<?xml version="1.0" encoding="utf-8"?>
<!-- Generator: Adobe Illustrator 19.2.0, SVG Export Plug-In . SVG Version: 6.00 Build 0)  -->
<svg version="1.1" id="Capa_1" xmlns="http://www.w3.org/2000/svg" xmlns:xlink="http://www.w3.org/1999/xlink" x="0px" y="0px"
	 viewBox="0 0 100 100" enable-background="new 0 0 100 100" xml:space="preserve">
<g id="Capa_2">
</g>
<g id="Capa_1_1_">
	<g>
		<path fill="#FFFFFF" d="M26.8,69.3c-0.2,0.5-0.1,0.9,0.2,1.3c0.7-1.3,1.7-2.4,2.4-3.9C28.2,67.4,27.3,68.2,26.8,69.3z"/>
		<path fill="#FFFFFF" d="M26.8,68.3c0.9-1,1.6-2.2,2.3-3.3c-1.4,0.4-2.2,1.3-2.8,2.5c-0.1,0.2-0.1,0.5,0,0.7
			C26.5,68.5,26.6,68.5,26.8,68.3z"/>
		<path fill="#FFFFFF" d="M18.5,36.6c0.9-1.2,0.7-3.2-0.4-4.3c0.2,1.6-0.2,2.4-1.2,2.6c-0.5,0.1-1,0.1-1.4-0.2
			C15,34.5,15,34,14.9,33.5c-0.5,1.3-0.3,2.3,0.6,3.3C16.3,37.6,17.7,37.5,18.5,36.6z"/>
		<path fill="#FFFFFF" d="M28.6,63.7c0.1-0.1,0.2-0.3,0.2-0.4c-1.5,0.5-2.9,2.2-2.4,3.2C27.2,65.5,28,64.7,28.6,63.7z"/>
		<path fill="#FFFFFF" d="M29.2,32.2c0.1,0.6,0.4,1.1,0.1,1.7c-0.2,0.6-0.7,0.9-1.3,1.1c-1.1,0.2-1.8-0.2-2.3-1.4
			c-0.2,0.6-0.3,1.1-0.2,1.7c0.1,1.3,0.9,2.2,2,2.4c1.2,0.2,2.4-0.4,2.8-1.4c0.5-1.2,0.3-2.3-0.3-3.4C29.8,32.5,29.6,32.3,29.2,32.2
			z"/>
		<path fill="#FFFFFF" d="M94.9,79c-2.2,0.4-3.9,1.6-5.6,2.9c-0.2,0.2-0.4,0.8-0.7,0.4c-0.3-0.3,0.2-0.6,0.5-0.8
			c0.4-0.3,1-0.6,1.3-1c0.9-1.2,2.1-2.1,3.3-3c-1.2,0.5-2.3,1.2-3.4,2c-0.7,0.5-1.2,1.2-1.7,1.9c-0.1,0.1-0.2,0.3-0.4,0.1
			c-0.2-0.1,0-0.3,0.1-0.4c0.3-0.4,0.6-0.8,0.9-1.2c1.1-2,2.7-3.6,4.5-5c0.1-0.1,0.2-0.1,0.1-0.3c-0.1,0-0.2,0.1-0.3,0.1
			c-0.2,0.1-0.4,0.2-0.6,0.3c-2,1.3-3.7,3-4.9,5.1c-0.1,0.2-0.2,0.5-0.4,0.4c-0.3-0.1-0.1-0.4,0-0.6c0.3-0.6,0.6-1.1,0.9-1.7
			c1-1.8,2.4-3.4,3.9-4.8c0.1-0.1,0.3-0.2,0.4-0.5c-0.9,0.2-1.6,0.7-2.2,1.2c-1.1,1-1.9,2.3-2.6,3.6c-0.2,0.3-0.4,0.8-0.9,0.6
			c-0.5-0.2-0.3-0.7-0.2-1c0.2-1,0.7-1.8,1.1-2.6c0.5-0.8,1-1.6,1.5-2.4c-0.9,0.7-1.5,1.6-2.1,2.6c-1,1.7-1.8,3.5-2.4,5.4
			c-0.1,0.2,0,0.4-0.2,0.4s-0.3-0.2-0.3-0.4c-0.3-0.8-0.5-1.6-0.5-2.4c-0.1-1.5,0.1-3.1,0.4-4.6c-0.1,0.1-0.1,0.2-0.1,0.3
			c-0.6,2.2-0.7,4.4-0.6,6.7c0,0.4,0,0.8,0,1.2c0,0.1,0,0.3-0.2,0.3c-0.1,0-0.2-0.1-0.3-0.2c-0.1-0.4-0.3-0.8-0.4-1.1
			c-0.3-1.5-0.4-3-0.3-4.5c-0.1,0.8-0.2,1.7-0.3,2.5c-0.1,0.8-0.1,1.6,0.3,2.3c0.2,0.5,0.4,1,0.6,1.5c0.1,0.2,0.1,0.4-0.1,0.4
			c-0.2,0.1-0.3-0.1-0.3-0.2c-0.2-0.4-0.4-0.8-0.5-1.3c-0.6-1.5-1.2-3-1.3-4.6c0-1.1,0-2.2,0-3.3c-0.3,0.5-0.5,1.1-0.5,1.7
			c-0.1,2.6,0.6,4.9,1.5,7.3c0.4,1.1,0.9,2.1,1.1,3.2c0.1,0.3,0.1,0.7,0,1c-1.1,2.8-4.5,3.7-6.8,1.7c-1.3-1.1-2.3-2.4-3-3.9
			c-1.9-3.7-3-7.7-3.9-11.7c-0.3-1.5-0.6-3-1.2-4.5c0,0.5,0.1,0.8,0.1,1.2c0.1,2.3-0.4,4.4-1.2,6.5c-0.1,0.2-0.2,0.4,0,0.7
			c0.6,0.8,0.9,1.8,1.2,2.7c0.3,0.9,0.5,1.8,0.8,2.7c1.1,2.7,2.8,5,4.7,7.2c1.2,1.4,2.7,2.3,4.6,2.5c1.5,0.1,2.9,0,4.1-1
			c1.3-1.1,2.5-2.3,3.7-3.5c1.1-1.2,2.2-2.6,3.7-3.4c1.2-0.6,2.3-1.3,3.5-1.8c0.3-0.1,0.6-0.3,0.9-0.4s0.6-0.3,0.9-0.4
			c-2.1,0.4-4.2,0.8-5.8,2.3c-0.2,0.2-0.5,0.5-0.7,0.7c-0.1,0.1-0.2,0.2-0.4,0.1c-0.1-0.1,0-0.3,0-0.4c0.1-0.1,0.1-0.2,0.2-0.2
			c1.3-1.2,2.5-2.3,4.1-3.2c1-0.5,2.1-1,3.1-1.4C95.3,79,95.1,79,94.9,79z"/>
		<path fill="#FFFFFF" d="M66.9,64.2c-0.1-0.3-0.2-0.4-0.5-0.3c-0.9,0.3-1.8,0.5-2.7,0.7c-1.5,0.3-3,0.5-4.6,0.5
			c-0.2,0-0.4,0-0.5-0.2c0-0.3,0.2-0.2,0.4-0.3c0.7,0,1.3-0.1,2-0.1c2.4-0.2,4.7-0.7,6.9-1.7c1.6-0.7,3.2-1.4,5-1.3
			c0.5,0,1.1,0,1.7-0.2c-0.1-0.1-0.2-0.1-0.3-0.1c-0.6-0.1-1.2-0.1-1.8-0.2c-0.3,0-0.6-0.1-0.7-0.4c-0.1-0.4,0.3-0.5,0.6-0.6
			c0.6-0.2,1.3-0.4,2-0.5c0.5-0.1,0.9-0.1,1.4-0.5c-1-0.1-1.8,0-2.6,0c-0.4,0-1.1,0.2-1.3-0.4c-0.1-0.6,0.6-0.7,1-0.8
			c1-0.4,2-0.5,3-0.7c0.4-0.1,0.8-0.1,1.3-0.5c-0.4,0-0.7-0.1-0.9-0.1c-1.4-0.1-2.8,0.1-4.1,0.2c-0.3,0-0.7,0.1-0.8-0.3
			c-0.2-0.4,0.2-0.6,0.5-0.7c0.9-0.5,1.9-0.9,3-1.1c0.6-0.1,1.2-0.2,1.7-0.5C76.4,53.9,76.2,54,76,54c-0.9-0.1-1.8,0-2.7,0
			c-0.5,0-0.9,0.2-1.3,0.5c-1.1,0.8-1.9,1.8-2.6,2.9c-0.1,0.1-0.2,0.4-0.4,0.3c-0.3-0.2,0-0.4,0.1-0.5c0.8-1.2,1.7-2.3,2.9-3.2
			c0.4-0.3,0.7-0.6,0.9-0.9c0.1-0.2,0.3-0.4,0.2-0.7c-0.2,0-0.3,0.1-0.5,0.2c-1.5,0.9-3.1,1.7-4.7,2.5c-0.7,0.3-1.3,0.3-2,0.2
			c-1.6-0.3-3.2-0.8-4.9-0.9c-0.8,0-1.5-0.4-2-0.9c-1.3-1.2-2.7-2.2-4.2-3.2c-0.2-0.1-0.4-0.2-0.2-0.4c0.1-0.2,0.3,0,0.5,0.1
			c1.1,0.7,2.2,1.4,3.2,2.3c0.6,0.5,1.2,1.1,1.9,1.4c0.3,0.1,0.6,0.3,1,0.2c0-0.3-0.2-0.4-0.3-0.5c-1.5-1.9-3.2-3.7-5-5.3
			c-2.3-2-4.6-3.9-6.7-6c-3.4-3.3-6-7.2-8.3-11.4c-1.9-3.4-3.5-7-5.4-10.4c-0.6-1.1-1.1-2.2-2-3.1c-0.5-0.6-1.1-1.1-1.9-1.5
			c0.1,0.5,0.2,1,0.2,1.4c0,0.1,0.1,0.3-0.1,0.4s-0.3-0.2-0.3-0.3c0-0.1,0-0.2-0.1-0.3c-0.2-1.5-0.6-3.1-1.1-4.5
			C29.1,10.7,28.3,9.3,27,8c-0.3-0.3-0.6-0.4-0.8,0.1c-0.9,2-1.2,4.1-0.8,6.3c0.1,0.4,0.3,0.9,0.5,1.3c0.1,0.2,0.3,0.4,0,0.5
			s-0.3-0.2-0.4-0.4c-0.1-0.2-0.2-0.4-0.3-0.7c-0.1-0.6-0.5-0.7-1-0.6c-1.1,0.1-2.2,0.4-3.2,0.9c-0.4,0.2-0.6,0.1-0.7-0.2
			c-0.3-0.6-0.7-1.3-1-1.9c-0.7-1.3-1.6-2.5-2.8-3.4c-0.5-0.3-0.6-0.3-0.7,0.3c0,0.5,0,1,0,1.4c0,0.2,0.1,0.4,0.3,0.5
			c0.5,0.2,0.8,0.7,1,1.2c0.5,1.2,1.2,2.4,1.9,3.5c0.1,0.2,0.3,0.4,0.1,0.6c-0.3,0.2-0.4-0.1-0.5-0.3c-0.6-1.1-1.3-2.2-1.8-3.4
			c-0.2-0.4-0.3-0.8-0.9-1.1c0.4,2.3,1.2,4.2,2.2,6.2c0.3-0.2,0.3-0.4,0.4-0.6s0.2-0.4,0.4-0.3c0.2,0.1,0.1,0.3,0,0.5
			c-0.2,0.4-0.4,0.8-0.5,1.2c-1.1,2.4-1.6,5.1-2.1,7.8c0.2-0.2,0.4-0.4,0.6-0.5c1.2-1.1,2.9-0.3,3.4,0.6c0.1,0.2,0.2,0.3,0,0.5
			c-0.2,0.1-0.3-0.1-0.4-0.2c-0.2-0.3-0.4-0.5-0.7-0.7c-1-0.6-2-0.2-2.7,0.9c-0.8,1.1-0.7,2.4-1.1,3.6c0,0.1,0,0.2,0.1,0.2
			c0.3,0,0.3,0.2,0.4,0.4c0.1,0.2,0.2,0.5,0.5,0.6c0-0.1,0-0.2,0-0.3c0-0.9,0.6-1.3,1.4-0.9c0.6,0.3,1,0.7,1.3,1.3
			c0.4,0.8,0.5,1.6,0.4,2.5c-0.1,1.2-0.9,2.1-2.1,2.4c-1.1,0.3-1.9-0.1-2.6-1.2c-0.2-0.2-0.3-0.5-0.5-0.7c-0.3,0.6-0.6,1.1-0.9,1.6
			c-1.5,2.2-3.2,4.1-5.5,5.7c-1.8,1.2-3.3,2.7-4.3,4.7c-1.4,2.6-1.6,5.3-0.3,7.9c2.4,4.8,6.4,7,11.6,7.4c2,0.1,4-0.1,6-0.4
			c3.6-0.6,6.9-2.1,9.8-4.3c1.4-1.1,2.4-2.6,3.4-4.2c1.5-2.5,2.4-5.1,2.4-8.1c0-2.1-0.3-4.2-0.9-6.3c-0.1-0.3-0.2-0.6-0.2-0.8
			c0-0.1,0-0.2,0.2-0.3c0.1,0,0.2,0,0.2,0.1c0.1,0.1,0.1,0.3,0.2,0.4c0.6,1.9,1,3.9,1.1,5.9c0.2,3.2-0.6,6.1-2.3,8.8
			c-1.1,1.8-2.2,3.5-3.8,4.7c-0.7,0.5-1.5,1-2.3,1.5c-0.2,0.1-0.4,0.2-0.5,0.4c-0.2,0.8-0.4,1.6-0.5,2.5c0.5-0.2,0.9-0.4,1.3-0.6
			c0.2-0.1,0.4-0.1,0.6,0.1c0.2,0.2,0,0.4-0.1,0.6c-0.2,0.4-0.5,0.7-0.8,1.2c0.3-0.1,0.5-0.2,0.7-0.3c0.2-0.1,0.5-0.2,0.7,0
			c0.2,0.3,0,0.5-0.1,0.7c-0.2,0.4-0.6,0.8-0.8,1.4c0.2-0.1,0.3-0.1,0.3-0.1c0.2-0.1,0.4-0.2,0.6,0s0,0.4-0.1,0.6
			c-0.2,0.4-0.5,0.8-0.7,1.3c0.3,0,0.6-0.2,0.8,0.1c0.2,0.3,0,0.6-0.1,0.9c-0.2,0.5-0.5,0.8-0.9,1.2c-0.2,0.2-0.4,0.3-0.3,0.6
			c0.1,0.2,0.2,0.4-0.1,0.5c-0.3,0-0.4-0.2-0.5-0.4c-0.1-0.4,0.2-0.7,0.5-0.9c0.4-0.4,0.7-0.7,0.9-1.2c-0.2,0-0.3,0.1-0.4,0.1
			c-0.6,0.2-0.8,0.8-1.1,1.2c-0.7,0.8-0.5,1.5,0.5,1.8c0.3,0.1,0.6,0.1,0.7,0.5c0.7,1.8,1.8,3.4,3,5c0.5,0.7,1,1.4,1.7,2
			c2.1,1.6,4.3,3,6.9,3.7c1.1,0.3,2.3,0.5,3.5,0.6c0.2,0,0.5,0,0.5,0.3s-0.3,0.2-0.5,0.2c-1.5-0.1-2.9-0.4-4.3-0.8
			c-2-0.6-3.7-1.6-5.4-2.8c-0.3-0.2-0.5-0.3-0.9-0.1c-2.4,1.7-3.8,4-3.9,7c0,0.4-0.1,0.6-0.5,0.7c-1.5,0.4-3,0.7-4.5,1.1
			c-0.7,0.2-1.5,0.4-2.2,0.9c0.8,0.3,1.5,0.3,2.2,0.4c3.1,0.2,6.2,0.1,9.2,0.2c1.2,0.1,2.1-0.3,2.8-1.3c0.8-1,1.5-2.1,2.6-2.8
			c2-1.3,4.1-2.3,6.5-2.7c0.7-0.1,1.4-0.1,2.1-0.2c0.3,0,0.5-0.1,0.5-0.5c0-1.9,1.1-3.2,2.5-4.3c0.2-0.2,0.6-0.6,0.8-0.3
			c0.3,0.4-0.3,0.4-0.5,0.7l0,0c-2.6,2-3,4.6-1.2,7.2c0.8,1.1,1.6,2.2,2.7,3c0.1,0.1,0.3,0.2,0.2,0.4c-0.1,0.2-0.3,0.1-0.5,0
			c-0.1,0-0.1-0.1-0.2-0.1c-0.4-0.4-0.8-0.4-1.3-0.1c-0.2,0.1-0.5,0.2-0.7,0.3c-1.4,0.7-2.8,1.2-4,2.1c-0.1,0.1-0.3,0.2-0.3,0.4
			c0.1,0.2,0.3,0.2,0.4,0.2c0.1,0,0.3,0,0.4,0c1.5,0.2,3,0.1,4.4,0c2-0.1,4-0.2,6-0.8c0.7-0.2,1.3-0.6,1.6-1.3
			c0.2-0.5,0.4-0.9,0.6-1.3c0.8-1.6,1.3-3.4,2.1-5.1c0.9-2.2,2.4-4.1,3.7-6.1C67.9,73.8,67.9,69.1,66.9,64.2z M20.5,23.7
			c0,0.1-0.2,0.2-0.3,0.2c-0.2,0-0.4,0-0.6,0c-0.9,0-1.7,0.2-2.2,1C17.3,25,17.2,25.1,17,25s-0.1-0.3,0-0.4c0.5-0.9,2.3-1.6,3.2-1.2
			C20.4,23.5,20.5,23.6,20.5,23.7z M27.3,10.8c0-0.2,0-0.6,0.2-0.7c0.3-0.1,0.4,0.3,0.6,0.5c1,1.3,1.4,2.8,1.6,4.5
			c0,0.2,0,0.5-0.2,0.5c-0.3,0-0.3-0.3-0.3-0.5c-0.1-1.2-0.4-2.4-1-3.5c-0.1-0.2-0.1-0.4-0.4-0.5c0,0.9,0.1,1.8,0.3,2.6
			c0.1,0.8,0.3,1.5,0.5,2.3c0,0.2,0.1,0.4-0.1,0.5s-0.3-0.2-0.3-0.3C27.6,14.4,27.2,12.6,27.3,10.8z M25.8,23.7
			c0.7-0.7,1.9-0.7,2.6,0c0.1,0.1,0.2,0.2,0.1,0.4c-0.1,0.2-0.3,0-0.4,0c-0.3-0.2-0.6-0.4-1-0.4s-0.7,0.2-1,0.4
			c-0.1,0.1-0.3,0.3-0.5,0.1C25.5,24,25.7,23.8,25.8,23.7z M25.3,27.7c0.5-1.2,1.6-1.7,2.9-1.4c0.9,0.3,1.6,0.9,2,1.7
			c0.1,0.1,0.2,0.3,0,0.5c-0.2,0.1-0.3-0.1-0.4-0.2c-0.5-0.9-1.2-1.6-2.5-1.6c-0.7-0.1-1.2,0.5-1.5,1.2c-0.1,0.2-0.1,0.5-0.4,0.4
			C25.1,28.1,25.3,27.9,25.3,27.7z M30.8,36.2c-0.4,1.2-1.5,1.9-2.8,2c-1.1,0.1-2.1-0.6-2.6-1.7c-0.7-1.6-0.3-3.6,1-4.6
			c0.4-0.3,0.7-0.3,0.8,0.3c0.1,0.3,0.1,0.6,0.3,1c0.2-0.4,0.1-0.7,0-1s0-0.5,0.3-0.6c1.1-0.3,2.3,0.1,2.8,1.2
			C31,33.8,31.2,35,30.8,36.2z"/>
		<path d="M92.3,79.3c1-0.9,2.1-1.6,3.3-2.3c0.2-0.1,0.6-0.2,0.4-0.5c-0.1-0.4-0.5-0.1-0.7,0c-1.2,0.3-2.3,0.9-3.4,1.5
			c-0.5,0.3-0.9,0.6-1.4,0.9c0.1-0.3,0.3-0.5,0.5-0.7c1.2-1.3,2.5-2.5,4-3.6c0.1-0.1,0.3-0.2,0.3-0.3c-0.1-0.2-0.3-0.1-0.4-0.1
			c-0.8,0-1.6,0.3-2.3,0.7c-0.9,0.5-1.6,1.2-2.4,1.9c1-1.4,2.2-2.6,3.5-3.8c0.1-0.1,0.3-0.2,0.2-0.3c-0.1-0.2-0.3-0.1-0.4-0.1
			c-1,0.1-1.9,0.4-2.7,1c-1.3,1-2.3,2.3-3,3.7c-0.1,0.2-0.2,0.5-0.5,0.7c-0.1-0.2,0-0.4,0-0.6c0.3-0.9,0.8-1.8,1.3-2.6
			c0.6-1.1,1.4-2.1,2.1-3c0.1-0.1,0.3-0.3,0.1-0.5c-0.2-0.2-0.4-0.1-0.5,0c-0.3,0.2-0.7,0.4-0.9,0.7c-1.7,1.4-2.7,3.3-3.6,5.3
			c-0.4,0.8-0.7,1.7-1.1,2.7c-0.3-1.1-0.4-2.2-0.3-3.2c0.2-1.7,0.5-3.3,1.1-5c0.1-0.2,0.2-0.4,0-0.6c-0.3-0.2-0.4,0.1-0.5,0.3
			c-0.7,0.9-1,1.8-1.3,2.9c-0.4,1.7-0.5,3.5-0.5,5.2c-0.3-1.9-0.1-3.9,0.3-5.8c0.1-0.7,0.3-1.4,0.5-2.1c0-0.2,0.2-0.5-0.1-0.6
			c-0.3-0.1-0.3,0.2-0.4,0.4c-0.2,0.3-0.3,0.6-0.4,0.9c-0.5,1.3-0.7,2.7-0.9,4c-0.1,0.7-0.2,1.4-0.3,2.3c-0.1-0.2-0.1-0.3-0.1-0.4
			c-0.4-1.9-0.3-3.8-0.1-5.7c0-0.1,0.1-0.3,0-0.4c-0.2-0.1-0.3,0.1-0.4,0.2c-0.6,0.5-0.9,1.2-1,2C80,76,80.2,77.5,80.6,79
			c0.5,1.9,1.1,3.8,1.9,5.6c0.6,1.5,0.4,2.3-0.8,3.3c-0.1,0.1-0.3,0.2-0.5,0.3c-1.6,1.1-2.7,1.1-4.2-0.1c-1.2-0.9-2.1-2.1-2.8-3.4
			c-1.7-3-2.7-6.3-3.6-9.6c-0.5-2-0.9-4.1-1.5-6c-0.5-1.6-0.9-3.3-1.3-4.9c-0.1-0.3-0.1-0.5,0.2-0.6c1.6-0.7,3.1-1.7,5-1.5
			c0.5,0,1,0,1.5-0.1c0.4,0,0.9-0.1,1.2-0.4c0.1-0.1,0.3-0.3,0.3-0.5c-0.1-0.2-0.3-0.2-0.4-0.2c-0.6-0.1-1.2-0.1-1.8-0.2
			c-0.2,0-0.4,0-0.6-0.2c0.5-0.1,1-0.2,1.4-0.3c0.6-0.1,1.2-0.2,1.7-0.4c0.2-0.1,0.5-0.2,0.5-0.6c0-0.3-0.3-0.4-0.6-0.5
			c-0.6-0.2-1.3-0.1-1.9,0c-0.4,0-0.9,0-1.3,0.1c0.6-0.4,1.2-0.5,1.9-0.6c0.9-0.2,1.8-0.3,2.6-0.6c0.3-0.1,0.7-0.2,0.7-0.6
			c0-0.4-0.4-0.5-0.7-0.5c-0.9-0.2-1.9-0.1-2.8,0c-0.7,0.1-1.5,0.1-2.2,0.1c0.8-0.5,1.7-0.9,2.6-1.1c0.7-0.2,1.4-0.3,2.1-0.6
			c0.3-0.1,0.6-0.3,0.5-0.6S77.3,54,77.1,54c-0.3,0-0.6-0.1-0.9-0.1c-0.8,0-1.5,0-2.3,0c-0.3,0-0.5-0.1-0.3-0.4
			c0.2-0.3,0.3-0.7,0.2-1.1c-0.1-0.4-0.3-0.5-0.7-0.3c-1.6,1-3.2,1.9-4.9,2.7c-0.7,0.3-1.4,0.4-2.1,0.3c-1.2-0.2-2.4-0.5-3.7-0.8
			c-0.4-0.1-0.6-0.3-0.8-0.6c-1.4-1.9-3-3.6-4.8-5.2c-2.2-1.9-4.3-3.8-6.4-5.7c-4-3.6-6.9-8-9.4-12.8c-1.9-3.5-3.6-7.1-5.5-10.5
			c-0.8-1.4-1.7-2.7-3.1-3.6c-0.7-0.4-1-0.9-1.1-1.6c0-0.1-0.1-0.2-0.1-0.3c-0.7-2.2-1.5-4.2-3.2-5.8c-1.1-1.1-1.2-1-1.9,0.4
			c-0.7,1.6-1,3.4-0.8,5.2c0,0.5,0,0.7-0.5,0.8c-0.7,0-1.3,0.2-2,0.4c-0.5,0.1-1.1,0.7-1.6,0.4c-0.4-0.3-0.6-1-0.9-1.5
			c-0.9-1.7-2-3.2-3.7-4.2C16.2,9.5,16,9.5,15.9,10c-0.2,1-0.2,2-0.1,3c0.3,2.4,1.2,4.5,2.4,6.6c0.2,0.3,0.2,0.5,0.1,0.8
			c-0.6,1.4-1,2.8-1.3,4.3c-0.7,3.2-1.2,6.5-2.2,9.7c-0.2,0.6-0.1,1.2-0.4,1.7C12.7,38,11,40,9,41.7c-1.9,1.5-3.9,2.8-5.2,4.9
			c-1.4,2.3-2.2,4.7-1.4,7.4c1.5,5.1,5.1,8.1,10.2,9.2c4.5,1,8.8,0.2,13-1.4c0.7-0.2,1.3-0.5,2-0.8c-0.1,0.6-0.2,1.1-0.3,1.7
			c-0.1,0.7-0.3,1.3-0.8,1.9c-0.6,0.7-0.9,1.5-0.5,2.4c0.1,0.2,0,0.3,0,0.5c-0.2,0.5-0.1,0.9,0.2,1.2c0.1,0.1,0.2,0.3,0.2,0.5
			c-0.2,1.4,0.5,2.6,1.8,3.1c0.3,0.1,0.5,0.3,0.7,0.6c1,2.4,2.6,4.5,4.3,6.5c0.3,0.4,0.4,0.5,0,0.9c-2.3,1.7-3.7,4-3.9,7
			c0,0.4-0.2,0.5-0.5,0.6c-1.3,0.3-2.7,0.6-4,0.9c-0.8,0.2-1.6,0.5-2.3,0.9C22.3,89.8,22,90,22,90.3c0.1,0.3,0.4,0.4,0.7,0.5
			c0.8,0.2,1.6,0.3,2.4,0.4c2.8,0.2,5.7,0,8.5,0.2c1.7,0.1,2.9-0.4,3.8-1.8c0.6-0.8,1.2-1.7,2-2.3c2.6-1.8,5.4-2.8,8.6-2.9
			c0.3,0,0.5,0,0.6,0.4c0.4,1.6,1.4,2.9,2.5,4.1c0.3,0.3,0.2,0.5-0.1,0.6c-1.1,0.5-2.3,1-3.4,1.6c-0.6,0.3-1.3,0.7-1.8,1.2
			s-0.4,0.9,0.3,1.1c0.9,0.2,1.9,0.2,2.9,0.2c1.7,0,3.3-0.1,5-0.3c1.3-0.1,2.6-0.3,3.8-0.8c0.7-0.2,1.1-0.6,1.4-1.2
			c0.3-0.8,0.7-1.5,1-2.3c0.9-2,1.4-4.2,2.6-6.1c1.2-1.9,2.4-3.7,3.5-5.6c0.3-0.4,0.4-0.2,0.5,0c0.4,0.7,0.6,1.5,0.8,2.3
			c0.5,1.9,1.2,3.6,2.1,5.3c1.1,1.9,2.5,3.5,3.9,5.2c1.9,2.3,6.6,3.1,9.2,0.7c1.5-1.4,2.9-2.7,4.2-4.3c1-1.3,2.3-2.1,3.7-2.9
			c1.7-0.9,3.5-1.7,5.3-2.4c0.1-0.1,0.4-0.1,0.4-0.2c0-0.2-0.2-0.2-0.4-0.3c-0.4-0.2-0.9-0.1-1.3-0.1c-1.1,0.2-2.1,0.5-3.2,0.8
			c1.8-1.2,3.8-1.8,5.8-2.6C95.6,78.1,93.9,78.6,92.3,79.3z M14.9,33.5c0.1,0.5,0.2,1,0.6,1.3c0.4,0.3,0.9,0.3,1.4,0.2
			c1-0.2,1.4-1,1.2-2.6c1.2,1.1,1.3,3.1,0.4,4.3c-0.7,1-2.2,1-3,0.1C14.6,35.8,14.4,34.7,14.9,33.5z M28.9,63.3
			c-0.1,0.2-0.2,0.3-0.2,0.4c-0.6,1-1.5,1.8-2.2,2.8C26,65.4,27.3,63.7,28.9,63.3z M26.4,68.2c-0.1-0.2-0.1-0.5,0-0.7
			c0.6-1.2,1.4-2.2,2.8-2.5c-0.7,1.2-1.5,2.3-2.3,3.3C26.6,68.5,26.5,68.5,26.4,68.2z M27,70.6c-0.3-0.4-0.4-0.8-0.2-1.3
			c0.6-1.1,1.4-1.9,2.6-2.6C28.6,68.2,27.7,69.3,27,70.6z M65.1,78.3c-1.3,2-2.7,3.9-3.7,6.1c-0.7,1.7-1.2,3.4-2.1,5.1
			c-0.2,0.4-0.4,0.9-0.6,1.3c-0.3,0.8-0.9,1.1-1.6,1.3c-2,0.6-4,0.7-6,0.8c-1.5,0.1-3,0.2-4.4,0c-0.1,0-0.3,0-0.4,0
			c-0.2,0-0.4,0-0.4-0.2c-0.1-0.2,0.1-0.3,0.3-0.4c1.2-1,2.6-1.5,4-2.1c0.2-0.1,0.5-0.2,0.7-0.3c0.5-0.2,0.9-0.3,1.3,0.1
			c0.1,0.1,0.1,0.1,0.2,0.1c0.2,0.1,0.3,0.2,0.5,0c0.1-0.2-0.1-0.3-0.2-0.4c-1.1-0.8-2-1.9-2.7-3c-1.8-2.7-1.4-5.3,1.2-7.2l0,0
			c0.2-0.2,0.8-0.3,0.5-0.7c-0.2-0.3-0.6,0.2-0.8,0.3c-1.4,1.1-2.5,2.4-2.5,4.3c0,0.4-0.2,0.4-0.5,0.5c-0.7,0.1-1.4,0.1-2.1,0.2
			c-2.4,0.4-4.5,1.4-6.5,2.7c-1.1,0.7-1.8,1.8-2.6,2.8S35,91,33.9,90.9c-3.1-0.2-6.2,0-9.2-0.2c-0.7-0.1-1.4-0.1-2.2-0.4
			c0.7-0.5,1.4-0.8,2.2-0.9c1.5-0.4,3-0.7,4.5-1.1c0.4-0.1,0.5-0.3,0.5-0.7c0.1-3,1.5-5.3,3.9-7c0.3-0.2,0.6-0.1,0.9,0.1
			c1.7,1.2,3.4,2.2,5.4,2.8c1.4,0.4,2.8,0.7,4.3,0.8c0.2,0,0.5,0.1,0.5-0.2c0-0.3-0.3-0.3-0.5-0.3c-1.2-0.1-2.3-0.3-3.5-0.6
			c-2.6-0.7-4.9-2-6.9-3.7c-0.7-0.5-1.2-1.3-1.7-2c-1.2-1.6-2.3-3.2-3-5c-0.1-0.4-0.4-0.4-0.7-0.5c-1-0.3-1.2-1-0.5-1.8
			c0.4-0.4,0.6-1,1.1-1.2c0.1,0,0.2-0.2,0.4-0.1c-0.2,0.5-0.5,0.9-0.9,1.2c-0.3,0.3-0.6,0.5-0.5,0.9c0,0.2,0.2,0.5,0.5,0.4
			s0.2-0.3,0.1-0.5c-0.1-0.3,0.1-0.4,0.3-0.6c0.4-0.3,0.7-0.7,0.9-1.2c0.1-0.3,0.3-0.6,0.1-0.9c-0.2-0.3-0.5-0.1-0.8-0.1
			c0.2-0.4,0.5-0.9,0.7-1.3c0.1-0.2,0.3-0.4,0.1-0.6c-0.2-0.2-0.4-0.1-0.6,0c-0.1,0-0.2,0.1-0.3,0.1c0.2-0.6,0.6-0.9,0.8-1.4
			c0.1-0.2,0.4-0.4,0.1-0.7c-0.2-0.2-0.5-0.1-0.7,0s-0.4,0.2-0.7,0.3c0.3-0.5,0.6-0.8,0.8-1.2c0.1-0.2,0.3-0.4,0.1-0.6
			c-0.2-0.2-0.4-0.2-0.6-0.1c-0.4,0.2-0.8,0.4-1.3,0.6c0.1-0.9,0.2-1.7,0.5-2.5c0.1-0.2,0.3-0.3,0.5-0.4c0.8-0.5,1.6-0.9,2.3-1.5
			c1.6-1.3,2.7-3,3.8-4.7c1.7-2.7,2.4-5.6,2.3-8.8c-0.1-2-0.5-4-1.1-5.9c0-0.1-0.1-0.3-0.2-0.4c0-0.1-0.1-0.2-0.2-0.1
			c-0.1,0-0.2,0.1-0.2,0.3c0.1,0.3,0.1,0.6,0.2,0.8c0.6,2,0.9,4.1,0.9,6.3c0,2.9-0.9,5.6-2.4,8.1c-0.9,1.5-1.9,3.1-3.4,4.2
			c-2.9,2.2-6.1,3.7-9.8,4.3c-2,0.3-4,0.6-6,0.4c-5.2-0.4-9.2-2.6-11.6-7.4C1.8,53.2,2,50.6,3.4,48c1-1.9,2.5-3.4,4.3-4.7
			c2.2-1.5,4-3.5,5.5-5.7c0.3-0.5,0.6-1,0.9-1.6c0.2,0.3,0.3,0.5,0.5,0.7c0.8,1.1,1.6,1.4,2.6,1.2c1.1-0.3,1.9-1.2,2.1-2.4
			c0.1-0.9,0-1.7-0.4-2.5c-0.3-0.6-0.7-1-1.3-1.3c-0.8-0.4-1.4,0-1.4,0.9c0,0.1,0,0.2,0,0.3c-0.3-0.1-0.4-0.3-0.5-0.6
			c-0.1-0.2-0.1-0.5-0.4-0.4c-0.1,0-0.2-0.1-0.1-0.2c0.4-1.2,0.3-2.5,1.1-3.6c0.8-1.1,1.7-1.4,2.7-0.9c0.3,0.2,0.5,0.4,0.7,0.7
			c0.1,0.1,0.2,0.3,0.4,0.2c0.2-0.1,0.1-0.3,0-0.5c-0.5-1-2.3-1.7-3.4-0.6c-0.2,0.2-0.3,0.3-0.6,0.5c0.6-2.7,1-5.3,2.1-7.8
			c0.2-0.4,0.4-0.8,0.5-1.2c0.1-0.2,0.2-0.4,0-0.5c-0.3-0.1-0.3,0.1-0.4,0.3c-0.1,0.2-0.1,0.4-0.4,0.6c-0.9-1.9-1.6-3.9-2-6.2
			c0.5,0.3,0.7,0.7,0.9,1.1c0.5,1.2,1.2,2.2,1.8,3.4c0.1,0.2,0.2,0.5,0.5,0.3c0.2-0.2,0-0.4-0.1-0.6c-0.6-1.2-1.3-2.3-1.9-3.5
			c-0.2-0.5-0.5-0.9-1-1.2c-0.2-0.1-0.3-0.3-0.3-0.5c0-0.5,0-1,0-1.4c0-0.6,0.2-0.7,0.7-0.3c1.2,0.9,2.1,2.1,2.8,3.4
			c0.3,0.6,0.7,1.2,1,1.9c0.2,0.3,0.4,0.4,0.7,0.2c1-0.5,2.1-0.7,3.2-0.9c0.5-0.1,0.9,0,1,0.6c0.1,0.2,0.2,0.5,0.3,0.7
			c0.1,0.2,0.2,0.5,0.4,0.4c0.3-0.1,0.1-0.4,0-0.5c-0.2-0.4-0.4-0.8-0.5-1.3c-0.4-2.2-0.2-4.3,0.8-6.3C26.5,7.6,26.7,7.7,27,8
			c1.3,1.2,2.1,2.7,2.7,4.3c0.6,1.5,0.9,3,1.1,4.5c0,0.1,0,0.2,0.1,0.3c0.1,0.2,0.1,0.4,0.3,0.3c0.2-0.1,0.2-0.2,0.1-0.4
			c-0.1-0.4-0.1-0.9-0.2-1.4c0.8,0.4,1.4,0.9,1.9,1.5c0.9,0.9,1.4,2,2,3.1c1.9,3.4,3.6,7,5.4,10.4c2.3,4.1,4.9,8.1,8.3,11.4
			c2.2,2.1,4.4,4,6.7,6c1.8,1.6,3.5,3.3,5,5.3c0.1,0.1,0.3,0.3,0.3,0.5c-0.4,0.1-0.7,0-1-0.2c-0.7-0.3-1.3-0.9-1.9-1.4
			c-1-0.9-2.1-1.6-3.2-2.3c-0.1-0.1-0.3-0.2-0.5-0.1c-0.2,0.2,0.1,0.3,0.2,0.4c1.5,0.9,2.9,2,4.2,3.2c0.6,0.5,1.2,0.8,2,0.9
			c1.7,0.1,3.3,0.6,4.9,0.9c0.7,0.1,1.4,0.1,2-0.2c1.6-0.8,3.2-1.5,4.7-2.5c0.1-0.1,0.3-0.2,0.5-0.2c0.1,0.3,0,0.5-0.2,0.7
			c-0.2,0.4-0.5,0.7-0.9,0.9c-1.2,0.8-2.1,1.9-2.9,3.2c-0.1,0.2-0.3,0.4-0.1,0.5c0.2,0.1,0.3-0.1,0.4-0.3c0.7-1.1,1.5-2.1,2.6-2.9
			c0.4-0.3,0.8-0.5,1.3-0.5c0.9,0,1.8-0.1,2.7,0c0.2,0,0.4-0.1,0.6,0.1c-0.5,0.3-1.1,0.4-1.7,0.5c-1,0.2-2,0.5-3,1.1
			c-0.3,0.1-0.6,0.3-0.5,0.7c0.1,0.3,0.5,0.3,0.8,0.3c1.4-0.1,2.8-0.3,4.1-0.2c0.3,0,0.5,0,0.9,0.1c-0.5,0.3-0.9,0.4-1.3,0.5
			c-1,0.2-2,0.3-3,0.7c-0.4,0.2-1.1,0.2-1,0.8s0.8,0.4,1.3,0.4c0.8-0.1,1.7-0.1,2.6,0c-0.5,0.4-1,0.4-1.4,0.5
			c-0.7,0.1-1.3,0.2-2,0.5c-0.3,0.1-0.6,0.2-0.6,0.6c0.1,0.3,0.4,0.4,0.7,0.4c0.6,0.1,1.2,0.1,1.8,0.2c0.1,0,0.2,0,0.3,0.1
			c-0.5,0.2-1.1,0.2-1.7,0.2c-1.8-0.1-3.4,0.6-5,1.3c-2.2,1-4.5,1.5-6.9,1.7c-0.7,0.1-1.3,0.1-2,0.1c-0.2,0-0.4,0-0.4,0.3
			s0.3,0.2,0.5,0.2c1.5,0,3.1-0.2,4.6-0.5c0.9-0.2,1.8-0.4,2.7-0.7c0.3-0.1,0.5,0,0.5,0.3C67.9,69.1,67.9,73.8,65.1,78.3z
			 M92.3,80.4c-1.6,0.8-2.8,2-4.1,3.2c-0.1,0.1-0.1,0.1-0.2,0.2s-0.2,0.3,0,0.4s0.3,0,0.4-0.1c0.2-0.2,0.4-0.5,0.7-0.7
			c1.7-1.5,3.8-1.8,5.8-2.3c-0.3,0.1-0.6,0.3-0.9,0.4s-0.6,0.3-0.9,0.4c-1.2,0.5-2.4,1.2-3.5,1.8c-1.5,0.8-2.6,2.2-3.7,3.4
			c-1.1,1.2-2.3,2.4-3.7,3.5c-1.2,1-2.6,1.1-4.1,1c-1.9-0.2-3.3-1-4.6-2.5C71.7,87,70,84.7,68.9,82c-0.4-0.9-0.6-1.8-0.8-2.7
			c-0.3-1-0.6-1.9-1.2-2.7c-0.2-0.3-0.1-0.5,0-0.7c0.8-2.1,1.2-4.3,1.2-6.5c0-0.4-0.1-0.7-0.1-1.2c0.6,1.5,0.9,3,1.2,4.5
			c0.9,4,2,8,3.9,11.7c0.8,1.5,1.7,2.8,3,3.9c2.3,2,5.6,1.1,6.8-1.7c0.1-0.3,0.1-0.7,0-1c-0.2-1.1-0.8-2.1-1.1-3.2
			c-0.8-2.4-1.6-4.7-1.5-7.3c0-0.6,0.2-1.2,0.5-1.7c-0.1,1.1-0.1,2.2,0,3.3c0.1,1.7,0.7,3.1,1.3,4.6c0.2,0.4,0.3,0.9,0.5,1.3
			c0.1,0.1,0.1,0.3,0.3,0.2c0.2-0.1,0.1-0.3,0.1-0.4c-0.2-0.5-0.4-1-0.6-1.5c-0.4-0.7-0.4-1.5-0.3-2.3s0.2-1.7,0.3-2.5
			c-0.2,1.5-0.1,3,0.3,4.5c0.1,0.4,0.2,0.8,0.4,1.1c0,0.1,0.1,0.2,0.3,0.2c0.2,0,0.2-0.1,0.2-0.3c0-0.4,0-0.8,0-1.2
			c-0.1-2.3,0-4.5,0.6-6.7c0-0.1,0.1-0.2,0.1-0.3c-0.4,1.5-0.5,3-0.4,4.6c0,0.8,0.2,1.6,0.5,2.4c0.1,0.2,0.1,0.4,0.3,0.4
			c0.2,0,0.2-0.3,0.2-0.4c0.6-1.9,1.4-3.7,2.4-5.4c0.6-1,1.2-1.9,2.1-2.6c-0.5,0.8-1,1.6-1.5,2.4s-0.9,1.7-1.1,2.6
			c-0.1,0.4-0.3,0.8,0.2,1s0.7-0.3,0.9-0.6c0.7-1.3,1.5-2.6,2.6-3.6c0.6-0.6,1.3-1,2.2-1.2c-0.1,0.3-0.3,0.4-0.4,0.5
			c-1.5,1.5-2.9,3-3.9,4.8c-0.3,0.6-0.6,1.1-0.9,1.7c-0.1,0.2-0.3,0.5,0,0.6s0.3-0.2,0.4-0.4c1.2-2.1,2.9-3.8,4.9-5.1
			c0.2-0.1,0.4-0.2,0.6-0.3c0.1,0,0.2-0.1,0.3-0.1c0.1,0.2,0,0.2-0.1,0.3c-1.8,1.4-3.3,3-4.5,5c-0.2,0.4-0.6,0.8-0.9,1.2
			c-0.1,0.1-0.2,0.3-0.1,0.4c0.2,0.2,0.3,0,0.4-0.1c0.5-0.7,1-1.4,1.7-1.9c1.1-0.8,2.2-1.5,3.4-2c-1.2,0.9-2.4,1.8-3.3,3
			c-0.3,0.4-0.9,0.6-1.3,1c-0.3,0.2-0.7,0.6-0.5,0.8c0.3,0.3,0.5-0.3,0.7-0.4c1.7-1.3,3.4-2.5,5.6-2.9c0.2,0,0.4,0,0.6,0
			C94.4,79.4,93.3,79.9,92.3,80.4z"/>
		<path d="M27.7,31.6c-0.3,0.1-0.5,0.2-0.3,0.6c0.1,0.3,0.2,0.6,0,1c-0.2-0.4-0.2-0.7-0.3-1c-0.1-0.6-0.3-0.6-0.8-0.3
			c-1.2,1-1.7,3-1,4.6c0.5,1.1,1.5,1.8,2.6,1.7c1.4-0.1,2.4-0.8,2.8-2s0.2-2.3-0.3-3.4C30,31.7,28.8,31.2,27.7,31.6z M30.3,36.2
			c-0.4,1.1-1.6,1.6-2.8,1.4c-1-0.2-1.8-1.1-2-2.4c-0.1-0.5,0-1.1,0.2-1.7c0.5,1.3,1.2,1.7,2.3,1.4c0.6-0.1,1.1-0.5,1.3-1.1
			c0.2-0.6-0.1-1.1-0.1-1.7c0.4,0.1,0.6,0.3,0.7,0.6C30.6,33.9,30.8,35.1,30.3,36.2z"/>
		<path d="M28.3,16.5c0.3-0.1,0.2-0.3,0.1-0.5c-0.2-0.8-0.4-1.5-0.5-2.3c-0.1-0.9-0.3-1.7-0.3-2.6c0.3,0.1,0.3,0.3,0.4,0.5
			c0.6,1.1,0.9,2.3,1,3.5c0,0.2,0,0.5,0.3,0.5c0.2,0,0.2-0.3,0.2-0.5c-0.2-1.6-0.6-3.1-1.6-4.5c-0.2-0.2-0.3-0.6-0.6-0.5
			c-0.2,0.1-0.2,0.4-0.2,0.7c-0.1,1.8,0.3,3.6,0.7,5.3C28.1,16.3,28.1,16.5,28.3,16.5z"/>
		<path d="M25.4,28.3c0.3,0.1,0.3-0.2,0.4-0.4c0.3-0.7,0.8-1.3,1.5-1.2c1.3,0,2,0.7,2.5,1.6c0.1,0.1,0.2,0.4,0.4,0.2
			c0.2-0.1,0.1-0.3,0-0.5c-0.4-0.8-1.1-1.5-2-1.7c-1.2-0.4-2.4,0.2-2.9,1.4C25.3,27.9,25.1,28.1,25.4,28.3z"/>
		<path d="M20.3,23.5c-1-0.4-2.8,0.2-3.2,1.2c-0.1,0.1-0.2,0.3,0,0.4s0.3,0,0.4-0.1c0.5-0.8,1.3-1.1,2.2-1c0.2,0,0.4,0,0.6,0
			c0.1,0,0.2,0,0.3-0.2C20.5,23.6,20.4,23.5,20.3,23.5z"/>
		<path d="M26.1,24.1c0.3-0.3,0.6-0.4,1-0.4s0.7,0.2,1,0.4c0.1,0.1,0.3,0.2,0.4,0s0-0.3-0.1-0.4c-0.7-0.7-1.8-0.7-2.6,0
			c-0.1,0.1-0.3,0.3-0.2,0.5C25.8,24.4,26,24.2,26.1,24.1z"/>
	</g>
</g>
</svg>
