<?xml version="1.0" encoding="utf-8"?>
<!-- Generator: Adobe Illustrator 19.2.0, SVG Export Plug-In . SVG Version: 6.00 Build 0)  -->
<svg version="1.1" id="Capa_1" xmlns="http://www.w3.org/2000/svg" xmlns:xlink="http://www.w3.org/1999/xlink" x="0px" y="0px"
	 viewBox="0 0 100 100" enable-background="new 0 0 100 100" xml:space="preserve">
<g id="Capa_2">
</g>
<g>
	<path fill="#FFFFFF" d="M65.1,79.2c0.1,0.5,0.1,1-0.1,1.5c-0.1,0.2-0.3,0.4-0.6,0.3c-0.3-0.1-0.4-0.3-0.3-0.6
		c0.2-0.9-0.1-1.8-0.1-2.8c0,0.1,0,0.3,0,0.4c0,0.3-0.2,0.5-0.5,0.5s-0.4-0.3-0.4-0.5c0-0.1,0-0.3,0-0.4c0-0.2,0.1-0.7-0.3-0.6
		c-0.3,0-0.3,0.4-0.3,0.7c0,0.5,0.2,0.9,0,1.4c-0.1,0.2-0.2,0.5-0.5,0.5s-0.4-0.2-0.5-0.5c-0.1-0.6-0.2-1.2-0.2-1.8
		c0-0.5-0.1-0.9-0.6-1.3c0,0.7,0,1.3,0,1.8c0,0.6,0.1,1.2,0.1,1.8c0.1,2.3,0.2,2.5,2.5,2.8c0.2,0,0.4,0,0.7,0c1.7-0.2,2-0.4,2.2-2.1
		c0-0.3,0.1-0.7,0.1-1c0.1-0.9-0.3-1.5-0.9-2.1C65,77.8,65,78.5,65.1,79.2z"/>
	<path fill="#FFFFFF" d="M34,71.8c-1.5-0.1-1.9,0.2-2.5,1.6c-0.3,0.7-0.1,1,0.7,1.2c1.8,0.3,3.6,0.1,5.5-0.1c0.3,0,0.6-0.1,0.8-0.4
		c0.5-0.7,0.9-1.5,1.5-2.5C37.8,71.8,35.9,71.9,34,71.8z"/>
	<path fill="#FFFFFF" d="M61.5,75.3c0.7,0.1,1.3,0.2,2,0.3c0.8,0,1.5-0.1,2.2-0.4c0.2-0.1,0.4-0.2,0.4-0.4c0-0.2-0.2-0.3-0.4-0.4
		c-1.4-0.3-2.8-0.4-4.2,0.2C61.3,74.7,61,74.7,61,75C61.1,75.3,61.3,75.3,61.5,75.3z"/>
	<path fill="#FFFFFF" d="M54,66.9c-1,1.2-1.7,2.6-2.7,3.8c-0.4,0.5-0.1,0.6,0.3,0.7c1.6,0.3,3.2,0.6,4.8,0.5c0.5,0,1.1-0.1,1.7-0.3
		c-0.6-0.2-1-0.3-1.5-0.4c-0.4-0.1-0.9-0.1-0.8-0.7c0.1-0.4,0.5-0.4,0.9-0.4c1.3-0.1,2.6-0.4,3.9-0.9c-1.2-0.4-2.3-0.2-3.5,0
		c-0.3,0-0.6,0.2-0.7-0.2c-0.1-0.4,0.3-0.5,0.6-0.5c0.8-0.2,1.7-0.2,2.5-0.2c0.4,0,0.8,0.2,1.2-0.1c-0.4-0.5-0.8-0.5-1.3-0.5
		c-0.9-0.1-1.8,0.2-2.6,0.3c-0.3,0-0.6,0.1-0.7-0.3c0-0.3,0.3-0.4,0.5-0.5s0.4-0.1,0.6-0.1c0.9-0.2,1.9-0.2,2.9,0
		c-0.3-0.4-0.7-0.4-1-0.4c-1.1-0.1-2.2,0-3.3,0.4c-0.2,0.1-0.6,0.3-0.7-0.1c-0.2-0.4,0.2-0.5,0.5-0.6s0.5-0.2,0.8-0.2
		c0.5-0.1,1-0.2,1.5-0.3c-0.3-0.1-0.5-0.2-0.7-0.1C56.1,65.8,54.8,65.9,54,66.9z"/>
	<path fill="#FFFFFF" d="M67.3,41.3c-0.4-1.2,0.7-2.5,1.9-2.2c1.1,0.3,1.1-0.4,1.3-1c0.1-0.6,0.1-1.2,0-1.7c-0.2-1.2-1-1.6-2.1-1.4
		c-1.8,0.4-3.3,2.4-3.3,4.2c0,0.4,0,0.9,0.2,1.3c0.3,0.7,0.7,1.3,1.6,1.4C67.2,41.9,67.4,41.9,67.3,41.3z"/>
	<path fill="#FFFFFF" d="M69.2,56.9c4.3-1,6.9-5.1,5.9-9.2c-0.3-1.4-1.2-2.5-2-3.6c-1.1-1.5-1.4-3.2-1-5c0.3-1.5,0.7-2.9,1.1-4.4
		c0.6-2,1-4.1,0.8-6.2c-0.1-0.6,0.1-0.9,0.6-1.3c1-0.7,1.9-1.4,2.9-2.3c-1.3,0.3-2.4,0.7-3.3,1.3c-0.2,0.2-0.5,0.5-0.8,0.2
		c-0.3-0.4,0.1-0.6,0.4-0.9c0.1-0.1,0.2-0.2,0.4-0.2c1.4-0.6,2.7-1.4,4.2-1.4c0.3,0,0.5-0.1,0.7-0.3c0.2-0.2,0.6-0.4,0.5-0.7
		c-0.1-0.4-0.5-0.3-0.8-0.3c-2.4,0-4.8,0.3-6.8,1.7c-0.3,0.2-0.8,0.3-0.7-0.1c0.1-0.9-0.4-1.2-0.9-1.7c-0.1-0.1-0.2-0.3-0.1-0.5
		s0.3-0.2,0.5-0.1c0.5,0.3,0.8,0,1.1-0.2c0.3-0.3,0.7-0.5,1.1-0.8c1-0.8,2-1.5,2.9-2.3c0.2-0.2,0.4-0.4,0.3-0.7
		c-0.1-0.3-0.5-0.2-0.7-0.2c-3,0.6-5.9,1.5-8.3,3.4c-0.3,0.3-0.6,0.4-1,0.4c-4-0.2-8,0.6-11.9,1.3c-4.6,0.7-9.1,2.1-13.5,3.6
		c-1.5,0.5-3,0.9-4.5,1.6c-3.6,1.8-7,4-10,6.7c-3.8,3.4-6.5,7.7-8.1,12.5c-1.1,3.3-1.3,6.8-0.8,10.3c0.2,1.6,0.6,3.2,1.4,4.7
		c0.1,0.2,0.2,0.4,0.4,0.4c0.2,0,0.3-0.3,0.3-0.4c0.1-0.4,0.2-0.9,0.3-1.3c0.1-0.2,0.1-0.5,0.5-0.4c0.3,0.1,0.3,0.3,0.3,0.5
		s0,0.4-0.1,0.6c-0.6,2-1.3,4.1-2.5,5.9c-1.3,1.9-2.7,3.8-4.7,5c-0.4,0.2-0.7,0.3-1.2,0.1c-2.4-1.2-4.6-0.6-6.8,0.6
		c-0.2,0.1-0.6,0.3-0.5,0.7c0.3,0.1,0.6-0.1,0.9-0.2c0.7-0.3,1.4-0.5,2.2-0.4c0.3,0,0.8,0,0.8,0.4C8.7,74.2,8.2,74,8,74
		c-1.9,0.1-3.5,0.9-4.9,2.2c1.5-0.6,3.2-0.6,4.7-1.2c0.2-0.1,0.6-0.2,0.7,0.1c0.1,0.3-0.2,0.4-0.4,0.6c-0.2,0.1-0.4,0.2-0.6,0.3
		c-1,0.6-2.1,1.1-3.1,2c1.8-0.1,3.1-0.8,4.4-1.7c0.2-0.1,0.5-0.4,0.7-0.1s-0.1,0.5-0.3,0.7C9,77,8.8,77.2,8.7,77.3
		c-1.2,0.9-2.4,1.6-3.6,2.4c1.8-0.2,3.4-0.6,4.8-1.8c0.2-0.2,0.5-0.6,0.8-0.2s-0.1,0.6-0.4,0.8c-0.8,0.8-1.7,1.5-2.7,2.1
		c0.3,0.2,0.5,0.1,0.7,0c2.5-0.8,4.3-2.5,5.9-4.5c0.2-0.3,0.3-0.6,0.2-0.9c-0.2-0.7,0.2-1.1,0.7-1.5c3.3-2.8,6-6.2,7.6-10.2
		c0.1-0.3,0.2-0.8,0.6-0.6s0.2,0.6,0.1,0.9c-0.3,0.9-0.7,1.7-1.2,2.5c-0.5,0.9-0.5,1.1,0.3,1.7c1.4,1,2.8,1.7,4.5,2.2
		c2.7,0.8,5.4,1.1,8.2,1.2c1.4,0,2.8-0.1,4.1-0.3c0.4-0.1,0.9-0.1,1.2,0.3s0,0.8-0.2,1.1c-0.4,0.7-0.8,1.4-1.2,2.1
		c-0.7,1.3-0.4,1.8,1,2.1c0.1,0,0.2,0,0.2,0c2.2,0.4,4.3,0.1,6.5-0.1c1.6-0.2,3.2-0.7,4.7-1.2c0.8-0.3,0.8-0.7,0.1-1.1
		c-0.8-0.5-1.6-0.8-2.5-0.6c-0.2,0.1-0.5,0.1-0.6-0.1c-0.2-0.2-0.1-0.5,0.1-0.7c0.1-0.2,0.3-0.3,0.4-0.5c1.7-1.8,3.4-3.7,4.6-5.9
		c0.8-1.5,0.3-2.9-1.3-3.5c-0.7-0.3-1.5-0.3-2.3-0.3c-1.9,0.2-3.8,0.5-5.7,1.1c-0.3,0.1-0.7,0.3-0.8-0.2c-0.1-0.3,0.3-0.5,0.5-0.5
		c2.2-0.7,4.5-1.2,6.9-1.1c1.3,0,2.6,0.3,3.4,1.6c0.2,0.3,0.4,0.3,0.7,0.1c1.6-0.9,3.3-1.6,4.5-3.1c0.6-0.7,0.9-0.6,1.2,0.2
		c0.3,0.9,0.8,1.7,1.5,2.4c0.2-0.2,0.1-0.4,0.1-0.6c-0.2-0.8-0.4-1.6-0.5-2.4c-0.1-0.3-0.1-0.6,0.2-0.8s0.6,0,0.8,0.1
		c0.5,0.3,0.9,0.8,1.3,1.3c0.3,0.4,0.4,0.9,0.9,1.2c0.3-1.6-0.3-2.8-1.9-3.9c-0.2-0.2-0.5-0.3-0.3-0.6s0.5-0.2,0.7,0
		c0.8,0.5,1.4,1.2,1.8,2c0.1,0.2,0.1,0.4,0.4,0.4s0.2-0.3,0.2-0.5c0.2-1.8-1-3.4-2.8-3.8c-0.2,0-0.5-0.1-0.5-0.4
		c0-0.3,0.3-0.4,0.5-0.4c0.3,0,0.6,0.1,0.9,0.2c0.5,0.2,0.9,0.6,1.4,0.9c0.1-0.4-0.2-0.6-0.4-0.9c-1-1.2-2.3-1.4-3.8-1.3
		c-2.1,0.1-4,0.8-6.1,0.8c-2.3,0.1-4.2-0.7-6.2-1.7c-0.2-0.1-0.6-0.3-0.4-0.6c0.2-0.4,0.5-0.1,0.7,0c0.9,0.4,1.7,0.9,2.6,1.1
		c1.6,0.5,1.7,0.6,1.9-1.3c0-0.6-0.1-1.2-0.4-1.7c-1.2-2.6-1.3-5.5-1.2-8.3c0-2.5,1.4-4.6,2.7-6.6c0.2-0.3,0.5-0.6,0.8-0.4
		c0.4,0.3-0.1,0.6-0.3,0.8c-1.3,2.1-2.5,4.2-2.6,6.8c0,0.9,0.1,1.9,0.1,2.8c0.2,2.9,1.1,5.5,3,7.8c0.3,0.4,0.6,0.5,1.1,0.4
		c1.2-0.3,2.3-0.5,3.5-0.7c0.6-0.1,0.6-0.3,0.3-0.7c-0.4-0.6-0.8-1.3-1.1-2C59,49,58.2,48,57.7,46.8c-0.2-0.4-0.1-0.7,0.2-1
		c0.4-0.3,0.7-0.3,1.1,0c0.2,0.2,0.3,0.4,0.5,0.6c1,1.8,2.1,3.7,3.1,5.5c0.3,0.6,0.8,1.1,1.5,1.4c1.4,0.6,2,1.6,2,3.1
		c0,0.7,0.3,1,1,1.1C67.7,57.3,68.4,57.1,69.2,56.9z M67.8,29.8c0.3-0.5,0.9-0.6,1.3-0.5c0.8,0,1.4,0.1,1.9,0.6
		c0.1,0.1,0.3,0.3,0.1,0.5c-0.1,0.2-0.3,0.1-0.5,0c-0.8-0.5-1.6-0.6-2.5-0.1c-0.1,0.1-0.3,0.1-0.4-0.1
		C67.7,30.1,67.7,29.9,67.8,29.8z M67,32.2c0.4-0.6,1-0.8,1.7-0.8c0.9,0,1.8,0.4,2.5,1c0.2,0.2,0.4,0.4,0.2,0.6
		c-0.2,0.3-0.4,0.1-0.6-0.1c-1.1-0.8-2.1-1.3-3.3-0.2c-0.1,0.1-0.3,0.2-0.4,0C66.8,32.6,66.9,32.4,67,32.2z M64.5,40.6
		c-0.2-0.5-0.3-1-0.3-1.5c-0.1-2,2.3-4.7,4.2-4.8c1.6-0.1,2.5,0.6,2.7,2.2c0,0.3,0,0.6,0.1,1c-0.2,1.7-0.8,3.6-2.5,4.7
		C66.9,43.3,65.2,42.4,64.5,40.6z"/>
	<path d="M98.1,71.3c-0.9-0.7-2-0.8-3.1-1c-2.7-0.5-5.4-0.7-8,0.6c-1.2,0.6-2.5,1.3-3.7,1.9c-1.4,0.7-2.9,1.1-4.5,1.1
		c-0.7,0-1.1-0.7-1.9-0.3c0.3-0.3,0.6-0.5,0.4-0.9s-0.6-0.3-0.9-0.3c-0.1,0-0.2,0-0.2,0c-0.8,0.2-1.6,0.1-2.4-0.2
		c-0.9-0.3-1.3-0.9-1.7-1.7c-1.8-3.4-3.8-6.7-5.7-10c-0.5-0.8-0.1-1.6-0.1-2.4c0-0.3,0.3-0.3,0.5-0.3c1,0,2-0.4,2.9-0.6
		c5.9-1.1,7.8-9.4,4.4-13.1c-1.1-1.2-1.9-2.7-1.5-4.5c0.2-1.2,0.4-2.4,0.7-3.5c0.8-2.6,1.5-5.1,1.2-7.8c0-0.5,0.3-0.7,0.6-0.9
		c1.4-1.1,2.8-2.1,4.2-3.2c0.5-0.4,1.1-0.9,0.9-1.6s-1-0.7-1.7-0.8c-2.1-0.1-4.2,0.3-6.2,1.1c-0.3,0.1-0.5,0.3-0.7,0
		c-0.3-0.4,0.1-0.5,0.3-0.6c1.3-1,2.7-2,4-3.1c0.5-0.4,1.2-1.1,0.8-1.8c-0.4-0.7-1.2-0.5-1.9-0.4c-1.8,0.3-3.5,0.9-5.2,1.5
		c-1.2,0.5-2.4,1-3.3,1.9c-0.2,0.2-0.5,0.3-0.8,0.3c-1.1-0.2-2.3,0-3.4,0.1c-5.7,0.6-11.3,1.5-16.8,3.2c-4,1.3-8.2,2.2-11.9,4.5
		c-1.6,1-3.2,2-4.7,3.1c-4.6,3.2-8,7.3-10.4,12.3c-1.4,2.8-1.9,5.9-2.1,8.9s0.1,5.9,1.3,8.7c1.3,3.1,1.3,2-0.3,4.9
		c-1,1.9-2.5,3.5-4.2,4.8c-0.4,0.3-0.8,0.3-1.4,0.2c-2.4-0.9-4.9-0.7-6.9,0.8c-1.3,1-2.3,2.6-3.4,4c-0.2,0.2-0.3,0.5,0,0.8
		c0.2,0.3,0.5,0.1,0.8,0c0.8-0.3,1.5-0.6,2.5-0.8c-0.8,0.6-1.5,0.9-2.3,1.2C2,77.5,1.6,77.6,1.7,78s0.5,0.3,0.8,0.3
		c0.6,0,1.2,0,1.9,0c-0.4,0.4-0.8,0.5-1.1,0.6c-0.2,0.1-0.5,0.2-0.4,0.5c0,0.3,0.3,0.4,0.5,0.4C4.2,80,5,80,5.8,79.9
		c-0.2,0.1-0.3,0.2-0.5,0.3c-0.2,0.2-0.5,0.4-0.3,0.7c0.1,0.3,0.4,0.4,0.7,0.4c0.1,0,0.3,0,0.4,0c2.9,0,5.2-1.3,7.2-3.3
		c0.7-0.7,1.7-1.4,1.7-2.5c0.1-1.1,0.7-1.7,1.4-2.3c0.5-0.4,1-1,1.5-1.5c1-1.1,1.9-2.3,2.8-3.4c0.2-0.3,0.4-0.6,0.9-0.3
		c2.7,2,5.9,2.9,9.1,3.5c1,0.2,1,0.2,0.5,1c-1,1.7-0.5,2.6,1.5,2.9c0.4,0,0.7,0,1.1,0c1.2,0.1,2.4-0.1,3.7-0.2c0.4,0,0.7,0,0.7,0.5
		c0,0.6,0.4,0.9,1,1.1c0.7,0.3,1.4,0.4,2.2,0.4c2.2,0.1,4.4,0.1,6.6-0.3c1.3-0.2,2.7-0.6,3.9-1.1c0.6-0.2,1-0.6,1.1-1.2
		c0.1-0.7-0.4-1.1-0.9-1.4s-1.1-0.5-1.7-0.6c-0.2,0-0.5,0-0.5-0.2s0.2-0.4,0.4-0.5c0.3-0.2,0.7,0,1,0.1c2.2,0.6,4.5,0.9,6.8,0.5
		c0.5-0.1,1.1-0.2,1.2-0.7c0.1-0.6-0.5-0.7-0.9-1c0,0,0-0.1,0-0.2c1-0.2,2-0.5,3-0.8c0.4-0.1,1-0.3,0.8-0.9c-0.5-1.2-0.6-2.6-2.1-3
		L60,65.8c-0.8-0.9-1.9-1-3.1-0.8c-0.5,0.1-0.9,0.2-1.4,0.3c-0.6,0.2-0.7-0.1-0.7-0.6c0-0.4,0.3-0.5,0.6-0.7
		c1.5-0.9,3.1-1.6,4.3-2.8c0.4-0.4,0.5-0.2,0.7,0.2c0.3,0.6,0.7,1.2,1.1,1.8c0.3,0.4,0.6,1.1,1.1,0.9c0.6-0.2,0.5-0.9,0.4-1.5
		c-0.1-0.5-0.2-1.1-0.3-1.6c0-0.2-0.2-0.4,0-0.6c0.4,0.2,0.6,0.5,0.8,0.8c0.3,0.4,0.5,0.8,0.8,1.3c0.2,0.3,0.6,0.5,0.9,0.2
		c0.6-0.6,0.7-0.1,0.9,0.3c1.6,2.6,3.1,5.3,4.7,7.9c0.4,0.7,0.7,1.4,0.9,2.1c0.4,1.4,2.4,3.1,3.8,3c0.4,0,0.8,0,0.9-0.4
		c0.1-0.5-0.5-0.3-0.7-0.6c1-0.1,1.9-0.2,2.8,0.1c0.4,0.1,0.9,0.1,1.4,0c2-0.2,3.8-0.9,5.5-2c3.8-2.4,7.8-2.6,11.9-0.8
		c0.2,0.1,0.4,0.1,0.6,0.1c0.4,0,0.8,0.1,0.9-0.3C98.8,71.7,98.4,71.5,98.1,71.3z M37.6,74.4c-1.8,0.3-3.6,0.5-5.5,0.1
		c-0.8-0.1-1-0.5-0.7-1.2c0.6-1.4,1-1.7,2.5-1.6c1.9,0.1,3.8,0,5.9-0.3c-0.6,1-1.1,1.7-1.5,2.5C38.2,74.3,37.9,74.4,37.6,74.4z
		 M57.3,65.6c0.2,0,0.5,0,0.7,0.1c-0.5,0.1-1,0.2-1.5,0.3c-0.3,0.1-0.5,0.1-0.8,0.2s-0.7,0.2-0.5,0.6c0.1,0.3,0.5,0.2,0.7,0.1
		c1.1-0.4,2.2-0.4,3.3-0.4c0.3,0,0.7,0,1,0.4c-1.1-0.1-2-0.2-2.9,0c-0.2,0-0.4,0.1-0.6,0.1c-0.2,0.1-0.5,0.2-0.5,0.5
		c0.1,0.4,0.4,0.3,0.7,0.3c0.9-0.1,1.7-0.3,2.6-0.3c0.5,0,0.9,0.1,1.3,0.5c-0.4,0.2-0.8,0.1-1.2,0.1c-0.8,0-1.7,0-2.5,0.2
		c-0.3,0.1-0.7,0.1-0.6,0.5c0.1,0.4,0.4,0.2,0.7,0.2c1.1-0.1,2.2-0.3,3.5,0c-1.3,0.5-2.6,0.8-3.9,0.9c-0.4,0-0.8,0-0.9,0.4
		c-0.1,0.5,0.5,0.5,0.8,0.7c0.4,0.1,0.8,0.2,1.5,0.4c-0.7,0.3-1.2,0.3-1.7,0.3c-1.6,0.1-3.2-0.2-4.8-0.5c-0.5-0.1-0.7-0.2-0.3-0.7
		c1-1.2,1.8-2.6,2.7-3.8C54.8,65.9,56.1,65.8,57.3,65.6z M65.9,56.2c0-1.5-0.5-2.5-2-3.1c-0.7-0.3-1.1-0.7-1.5-1.4
		c-1-1.8-2.1-3.7-3.1-5.5c-0.1-0.2-0.3-0.4-0.5-0.6c-0.3-0.3-0.7-0.3-1.1,0c-0.3,0.3-0.4,0.6-0.2,1c0.5,1.2,1.3,2.3,1.9,3.4
		c0.4,0.7,0.7,1.3,1.1,2c0.3,0.4,0.3,0.6-0.3,0.7c-1.2,0.2-2.4,0.4-3.5,0.7c-0.5,0.1-0.8,0-1.1-0.4c-1.8-2.3-2.7-4.9-3-7.8
		c-0.1-0.9-0.1-1.9-0.1-2.8c0-2.6,1.3-4.7,2.6-6.8c0.1-0.2,0.7-0.5,0.3-0.8c-0.3-0.2-0.6,0.1-0.8,0.4c-1.3,2.1-2.7,4.1-2.7,6.6
		c-0.1,2.8,0,5.6,1.2,8.3c0.2,0.5,0.4,1.1,0.4,1.7c-0.1,1.9-0.2,1.8-1.9,1.3c-0.9-0.3-1.7-0.8-2.6-1.1c-0.2-0.1-0.6-0.3-0.7,0
		c-0.1,0.3,0.2,0.5,0.4,0.6c1.9,1,3.9,1.7,6.2,1.7c2.1-0.1,4-0.7,6.1-0.8c1.5-0.1,2.8,0.1,3.8,1.3c0.2,0.2,0.4,0.4,0.4,0.9
		c-0.5-0.3-0.9-0.7-1.4-0.9c-0.3-0.1-0.6-0.2-0.9-0.2c-0.3,0-0.5,0.1-0.5,0.4c0,0.3,0.3,0.3,0.5,0.4c1.8,0.4,3,1.9,2.8,3.8
		c0,0.2,0.1,0.5-0.2,0.5c-0.2,0-0.3-0.2-0.4-0.4c-0.5-0.8-1.1-1.5-1.8-2c-0.2-0.2-0.5-0.3-0.7,0s0.1,0.5,0.3,0.6
		c1.6,1.1,2.3,2.4,1.9,3.9c-0.5-0.3-0.6-0.8-0.9-1.2c-0.4-0.5-0.8-1-1.3-1.3c-0.3-0.2-0.5-0.4-0.8-0.1c-0.3,0.2-0.2,0.5-0.2,0.8
		c0.2,0.8,0.4,1.6,0.5,2.4c0,0.2,0.1,0.4-0.1,0.6c-0.7-0.7-1.1-1.5-1.5-2.4c-0.3-0.8-0.7-0.9-1.2-0.2c-1.2,1.5-2.9,2.2-4.5,3.1
		c-0.3,0.2-0.5,0.2-0.7-0.1c-0.8-1.3-2.1-1.6-3.4-1.6c-2.4-0.1-4.6,0.4-6.9,1.1c-0.3,0.1-0.6,0.2-0.5,0.5c0.1,0.4,0.5,0.2,0.8,0.2
		c1.9-0.5,3.8-0.9,5.7-1.1c0.8-0.1,1.6,0,2.3,0.3c1.6,0.6,2.1,2,1.3,3.5c-1.2,2.2-2.8,4.1-4.6,5.9c-0.2,0.2-0.3,0.3-0.4,0.5
		c-0.1,0.2-0.2,0.5-0.1,0.7c0.2,0.2,0.4,0.2,0.6,0.1c0.9-0.3,1.8,0.1,2.5,0.6s0.7,0.9-0.1,1.1c-1.5,0.5-3.1,1-4.7,1.2
		c-2.2,0.2-4.3,0.5-6.5,0.1c-0.1,0-0.2,0-0.2,0c-1.4-0.3-1.7-0.8-1-2.1c0.4-0.7,0.8-1.4,1.2-2.1c0.2-0.4,0.5-0.7,0.2-1.1
		s-0.8-0.3-1.2-0.3c-1.4,0.2-2.8,0.3-4.1,0.3c-2.8,0-5.5-0.4-8.2-1.2c-1.6-0.5-3.1-1.2-4.5-2.2c-0.8-0.6-0.9-0.8-0.3-1.7
		c0.5-0.8,0.8-1.6,1.2-2.5c0.1-0.3,0.3-0.7-0.1-0.9c-0.5-0.2-0.5,0.3-0.6,0.6c-1.7,4.1-4.3,7.4-7.6,10.2c-0.5,0.4-0.9,0.8-0.7,1.5
		c0.1,0.3,0,0.7-0.2,0.9c-1.6,2-3.4,3.7-5.9,4.5c-0.2,0.1-0.4,0.2-0.7,0c1-0.7,1.9-1.3,2.7-2.1c0.2-0.2,0.7-0.4,0.4-0.8
		s-0.6,0-0.8,0.2c-1.4,1.2-3,1.6-4.8,1.8c1.2-0.8,2.5-1.5,3.6-2.4C8.7,77,8.9,76.9,9,76.7c0.2-0.2,0.5-0.4,0.3-0.7
		c-0.2-0.3-0.5,0-0.7,0.1c-1.3,0.8-2.7,1.6-4.4,1.7c1-0.9,2.1-1.4,3.1-2c0.2-0.1,0.4-0.2,0.6-0.3C8,75.4,8.3,75.3,8.2,75
		c-0.1-0.4-0.5-0.2-0.7-0.1c-1.5,0.6-3.2,0.6-4.7,1.2c1.4-1.4,3-2.1,4.9-2.2c0.3,0,0.7,0.1,0.7-0.3S8,73.2,7.6,73.2
		c-0.8,0-1.5,0.2-2.2,0.4c-0.3,0.1-0.5,0.3-0.9,0.2c0-0.4,0.3-0.5,0.5-0.7c2.2-1.2,4.4-1.8,6.8-0.6c0.5,0.2,0.8,0.1,1.2-0.1
		c2.1-1.2,3.4-3.1,4.7-5c1.3-1.8,1.9-3.8,2.5-5.9c0.1-0.2,0.1-0.4,0.1-0.6c0-0.2,0-0.5-0.3-0.5c-0.3-0.1-0.4,0.2-0.5,0.4
		c-0.1,0.4-0.2,0.9-0.3,1.3c0,0.2-0.1,0.4-0.3,0.4c-0.2,0-0.3-0.2-0.4-0.4c-0.8-1.4-1.2-3.1-1.4-4.7c-0.5-3.5-0.3-6.9,0.8-10.3
		c1.6-4.8,4.3-9.1,8.1-12.5c3-2.7,6.4-4.9,10-6.7c1.4-0.7,3-1.1,4.5-1.6c4.4-1.5,8.9-2.9,13.5-3.6c3.9-0.6,7.9-1.5,11.9-1.3
		c0.4,0,0.7-0.2,1-0.4c2.4-1.9,5.3-2.8,8.3-3.4c0.3,0,0.6-0.1,0.7,0.2c0.1,0.3-0.1,0.6-0.3,0.7c-1,0.8-1.9,1.6-2.9,2.3
		c-0.4,0.3-0.7,0.5-1.1,0.8c-0.3,0.3-0.7,0.5-1.1,0.2c-0.2-0.1-0.3-0.1-0.5,0.1c-0.1,0.2-0.1,0.4,0.1,0.5c0.5,0.5,1.1,0.8,0.9,1.7
		c-0.1,0.4,0.4,0.3,0.7,0.1c2.1-1.4,4.4-1.7,6.8-1.7c0.3,0,0.7-0.1,0.8,0.3c0.1,0.3-0.3,0.5-0.5,0.7s-0.4,0.3-0.7,0.3
		c-1.6,0-2.9,0.8-4.2,1.4c-0.1,0.1-0.3,0.1-0.4,0.2c-0.3,0.2-0.7,0.5-0.4,0.9c0.2,0.3,0.5-0.1,0.8-0.2c1-0.6,2-1,3.3-1.3
		c-1,0.9-1.9,1.6-2.9,2.3c-0.5,0.3-0.6,0.7-0.6,1.3c0.2,2.1-0.2,4.1-0.8,6.2c-0.4,1.4-0.8,2.9-1.1,4.4c-0.3,1.8,0,3.4,1,5
		c0.8,1.1,1.7,2.2,2,3.6c1,4.1-1.6,8.2-5.9,9.2c-0.8,0.2-1.6,0.4-2.4,0.4C66.1,57.2,65.9,56.8,65.9,56.2z"/>
	<path d="M65.9,73.7c-1.4-0.4-2.7-0.4-4.1-0.1c-1.6,0.4-2,1-2,2.7c0,0.2,0,0.5,0,0.7c0.1,0,0.1,0,0.2,0c0,1.4,0,2.9,0,4.3
		c0,0.4,0.2,0.6,0.5,0.8c1.4,1,4.3,1,5.7,0.1c0.4-0.2,0.6-0.5,0.6-1c0-2,0.2-4,0.2-6C66.9,74.4,66.6,74,65.9,73.7z M61.4,74.6
		c1.4-0.6,2.8-0.5,4.2-0.2c0.2,0,0.4,0.1,0.4,0.4c0,0.2-0.2,0.3-0.4,0.4c-0.7,0.3-1.4,0.4-2.2,0.4c-0.7-0.1-1.3-0.2-2-0.3
		c-0.2,0-0.5-0.1-0.5-0.3C61,74.7,61.3,74.7,61.4,74.6z M66.2,79.2c0,0.3-0.1,0.7-0.1,1c-0.2,1.7-0.4,1.9-2.2,2.1
		c-0.2,0-0.4,0-0.7,0c-2.3-0.3-2.5-0.4-2.5-2.8c0-0.6-0.1-1.2-0.1-1.8c0-0.6,0-1.1,0-1.8c0.5,0.4,0.6,0.8,0.6,1.3
		c0,0.6,0,1.2,0.2,1.8c0.1,0.2,0.2,0.5,0.5,0.5s0.4-0.2,0.5-0.5c0.2-0.5,0-0.9,0-1.4c0-0.3-0.1-0.7,0.3-0.7c0.4,0,0.2,0.4,0.3,0.6
		c0,0.1,0,0.3,0,0.4c0,0.3,0.1,0.5,0.4,0.5c0.3,0,0.4-0.2,0.5-0.5c0-0.1,0-0.3,0-0.4c0,1,0.4,1.9,0.1,2.8c-0.1,0.2,0,0.5,0.3,0.6
		c0.3,0.1,0.5-0.1,0.6-0.3c0.3-0.5,0.2-1,0.1-1.5c-0.1-0.7-0.2-1.4,0.1-2.1C65.8,77.8,66.3,78.4,66.2,79.2z"/>
	<path d="M68.7,42.1c1.8-1.1,2.3-3,2.5-4.7c0-0.5,0-0.8-0.1-1c-0.2-1.6-1.1-2.3-2.7-2.2c-2,0.2-4.3,2.9-4.2,4.8
		c0,0.5,0.1,1.1,0.3,1.5C65.2,42.4,66.9,43.3,68.7,42.1z M66.8,41.9c-0.9-0.1-1.3-0.7-1.6-1.4C65,40.1,65,39.6,65,39.2
		c0-1.8,1.5-3.8,3.3-4.2c1.1-0.3,1.9,0.2,2.1,1.4c0.1,0.6,0.1,1.2,0,1.7c-0.1,0.7-0.2,1.3-1.3,1c-1.2-0.3-2.2,1.1-1.9,2.2
		C67.4,41.9,67.2,41.9,66.8,41.9z"/>
	<path d="M67.4,32.7c1.2-1.1,2.3-0.6,3.3,0.2c0.2,0.2,0.4,0.4,0.6,0.1c0.2-0.3,0-0.5-0.2-0.6c-0.7-0.6-1.5-1-2.5-1
		c-0.7,0-1.3,0.2-1.7,0.8c-0.1,0.2-0.2,0.4,0,0.5C67.1,32.9,67.3,32.8,67.4,32.7z"/>
	<path d="M68.1,30.3c0.9-0.5,1.7-0.4,2.5,0.1c0.1,0.1,0.3,0.1,0.5,0c0.2-0.2,0-0.4-0.1-0.5c-0.5-0.5-1.1-0.7-1.9-0.6
		c-0.5,0-1,0-1.3,0.5c-0.1,0.1-0.1,0.3,0,0.5C67.9,30.4,68,30.4,68.1,30.3z"/>
</g>
</svg>
