<?xml version="1.0" encoding="utf-8"?>
<!-- Generator: Adobe Illustrator 19.2.0, SVG Export Plug-In . SVG Version: 6.00 Build 0)  -->
<svg version="1.1" id="Capa_1" xmlns="http://www.w3.org/2000/svg" xmlns:xlink="http://www.w3.org/1999/xlink" x="0px" y="0px"
	 viewBox="0 0 100 100" enable-background="new 0 0 100 100" xml:space="preserve">
<g id="Capa_2">
</g>
<g>
	<path fill="#FFFFFF" d="M59.2,40.4c0,1.1,0.8,2,0.7,3.3c-1.4-0.7-2-1.8-1.8-3.2c-0.2,1-0.4,2.1-0.8,3.1c-0.5,1.6-1.4,3-2.9,3.7
		c-1.2,0.5-1.8,1.4-1.4,2.5c0.5,1.5-0.1,3.2,0.5,4.7c0.2,0.5,0.2,1.1-0.3,1.4c-0.6,0.4-1.1,0.1-1.6-0.3c-0.2-0.2-0.4-0.5-0.6-0.8
		c-0.7-1.3-1.3-2.7-0.8-4.3c0.4-1.3,0.1-2.2-1.5-2.5c-2-0.3-3.1-1.6-3.7-3.5c-0.4-1.5-0.7-2.9-0.6-4.5c0-0.4-0.1-0.8,0.5-1
		c0.4,0.4,0.3,0.9,0.3,1.3c0,1.4,0.3,2.7,0.6,4c0.3,1.2,0.9,2.1,2.1,2.7c3.5,1.7,7.6,0,8.8-3.7c0.4-1.3,0.6-2.7,0.6-4
		c0-0.8,0.2-1.5,0.8-2.1c0.5-0.4,0.8-0.5,1,0.2c0.2,0.8,0.5,1.5,0.8,2.2c-0.1-1.3-0.5-2.5-0.9-3.7c-0.3-0.9-0.7-1.1-1.4-0.3
		c-1.1,1.3-2.6,2.1-4.1,2.8c-0.3,0.1-0.7,0.5-1,0c-0.4-0.7-3-0.8-3-0.1c0,1.3-0.8,0.8-1.1,0.7c-1.5-0.6-3.4-0.2-4.7-1.7
		c-0.2-0.2-0.6-0.2-1-0.1c1.1,0.3,0.9,1.3,1.1,2.1c0,0.2-0.1,0.3-0.3,0.4c-0.7,0.1-0.7,0.1-0.8,0.8c0,0.3,0.2,0.8-0.4,0.9
		c-0.5-0.2-0.2-0.8-0.5-1.1c-0.5,1.4-1,2.8-1.6,4.1c-0.3,0.8-0.9,1.5,0.2,2.2c-1.3,0.3-2.7-0.4-3,1.4c-0.1,0.9,0.6,0.8,1.3,0.8
		c-0.2,0.4-0.4,0.7-0.5,0.9c-0.1,0.3-0.7,0.7-0.2,1c0.4,0.3,0.7-0.2,1-0.4c0.7-0.5,0.9-1.4,1.8-1.8c0.3,0.6-0.1,0.9-0.3,1.2
		c-1,1.4-2.2,4.4-2.4,6.1v0.1c-0.2,0.9,0.2,1.2,1.1,1.2c0.9,0,1.5-0.5,1.5-1.4c0.1-0.9,0.1-1.8,0.1-2.8c0-0.3,0-0.8,0.4-0.8
		c0.5,0,0.5,0.5,0.5,0.9c0,1,0.1,2-0.1,2.9c-0.3,1.1-0.9,2-2.2,1.9c-0.7,0-1.2,0.2-1.1,1c0.1,0.8-0.2,1.9,0.9,2
		c3,0.4,5.9,1.7,9.1,1.2c1.3-0.2,2.7-0.1,4,0.4c0.9,0.4,1.8,0.2,2.6-0.4c0.9-0.6,1.8-1.2,2.5-2c0.3-0.4,0.6-0.9,1.6-0.7
		c-0.7,0.7-1.2,1.3-1.9,2c2.3,0.1,4.3-0.2,5.5-2.3c0.5-0.9,0.7-1.4-0.7-1.3c-1.4,0.1-2.1-0.6-2.2-2c-0.1-1.5-0.4-2.9-0.6-4.3
		c0-0.3-0.2-0.7,0.3-0.8c0.6,0.5,0.6,1.2,0.7,1.8c0.1,1.1,0.2,2.1,0.3,3.2c0,0.6,0.2,1.1,0.8,1.3c1.1,0.2,2.2,0.1,3.1-0.7
		c0.8-0.7,0.9-1.7,0.4-2.5c-0.6-0.9-1.2-1.9-2.6-1.9c-1.3,0.1-2.1-0.7-2.1-2.1c0.9,0.3,1.4,2.1,2.5,0.8c0.5-0.6,1.9-1.4,0.9-2.6
		c-1.5-1.7-2.5,0.2-3.7,0.9c0.1-1.3,0.9-1.8,1.7-2.2c0.9-0.5,1.8,0.2,2.7,0.5c0-1.1-0.8-1.8-0.6-2.8c0.4-0.1,0.6,0.1,0.6,0.3
		c0.4,1.2,0.8,2.3,1.1,3.5c0.4,1.5,1.1,2.9,0.3,4.5c-0.3,0.6,0,1.8,0.4,1.8c1.2,0.1,0.9,1,1.1,1.6c0.2,0.7,0.3,1.5,0.5,2.3
		c0.2,0.7,0.2,1.8,1.2,1.3c0.6-0.3,2-0.5,1.3-2c-2.8-6.2-5.4-12.5-8.1-18.8c-0.3-0.7-0.8-1.3-1.2-2c-0.4,2.8,0.9,5.3,0.3,8
		C60.5,43.3,60.9,41.4,59.2,40.4z"/>
	<path fill="#FFFFFF" d="M32.6,59.7c0.7-1.4,1-2.9,1.1-4.5c0.3-3.8,1.8-7.4,3.1-10.9c0.1-0.4,0.2-0.9,1.1-1
		c-0.4,1.3-0.8,2.4-1.2,3.6c-0.7,1.8-1.2,3.6-1.7,5.4c-0.1,0.3-0.2,0.7,0.3,0.8c0.3,0.1,0.5-0.2,0.6-0.5c0.1-0.8,0.3-1.5,0.5-2.2
		c0.3-1.4-0.1-3.2,1.4-4.1c1.1-0.7,1.6-1.6,2.1-2.7c0.7-1.6,1.1-3.3,1.6-5c0.3-1,0-1.8-0.3-2.7c-0.2-0.7-0.5-0.4-0.8-0.1
		c-1,1.1-2,2.2-2.8,3.6C34.5,45,32.1,51,29.9,57c-0.7,1.9-0.7,1.8,1.1,2.7c0.2,0.1,0.3,0.2,0.4,0.4C32.1,60.8,32.3,60.4,32.6,59.7z"
		/>
	<path fill="#FFFFFF" d="M39.7,17.2c0,0.3-0.6,0.7,0.2,0.9c0.4,0.1,0.7-0.2,1-0.5c0.6-0.6,0.5-1.1,0.2-1.9c-1.7-3.7-4.4-7-5.5-11.1
		c0.2,1.1,0.3,2.3-0.2,3s1.3,2.1-0.6,2c0,1.1,3.2,0.9,0.8,2.7c0.5,0.5,1.2,0.6,1.8,1c1.2,0.8,0,1-0.5,1.2c0.7,0.5,2,0.1,1.8,1.1
		c-0.2,0.9,0.1,0.8,0.6,1C39.4,16.7,39.7,16.9,39.7,17.2z"/>
	<path fill="#FFFFFF" d="M65.4,57.6c-0.9-0.1-1.3,0.3-1.6,1c-1.1,2.3-3,3.3-5.7,3.6c-3.2,0.4-6.3,0.8-9.5,0.6
		c-2.3-0.2-4.6-0.2-6.9-0.7c-1-0.2-2.3-0.9-2.8-0.1c-0.6,0.9,0.1,2.3,0.7,3.3c1,1.6,1.2,3.3,1.2,5c0,1.4-0.8,1.8-2,2
		c-2,0.3-2.9,0-3.3-1.3c-0.3-1-0.5-2-0.6-3c-0.2-1.4,0.4-2.4,1.9-2.9c0.4-0.1,1-0.2,1.2-0.7c0.4-1-0.6-4.1-1.5-4.6
		c-1.8-1.1-2.8-0.7-3.2,1.4c-0.7,3.6-1.7,7.1-2.7,10.6C30,74,30,74,31.8,75.4c0.9,0.8,1.4,0.8,1.6-0.4c0.2-1.2,1.1-0.4,1.6-0.4
		c0.7-0.1,0.3,0.6,0.3,1c-0.1,1.8,0.2,2.1,1.9,2.6c2.9,0.8,5.8,1.4,8.9,1.1c1-0.1,1.5-0.2,1.7-1.2c0.1-0.3,0.1-0.7,0.6-0.8
		c0.4,0,0.4,0.4,0.5,0.6c0.1,0.3,0.2,0.6,0.5,0.6c0.4,0,0.4-0.4,0.4-0.7c0.2-0.8,0.3-0.9,0.6-0.6c0.9,0.9,0.8-0.1,0.9-0.5
		c0.3-1.1,0.1-2.2,0.9-3.5c0.5,1.1,0.2,1.9,0.3,2.7c0.1,1.5,0.8,2.1,2.3,2.1c2.3,0.1,4.4-0.4,6.7-0.8c0.7-0.1,1.2-0.2,1.3-1.1
		c0-0.5,0.5-0.7,0.8-0.5c1.5,1.1,2.6,0.5,3.8-0.5c0.3-0.3,0.8-0.2,1.2-0.2c1.4,0,2.2-1,1.9-2.3c-0.9-4.6-2-9.2-3.2-13.8
		C66.9,58,66.4,57.7,65.4,57.6z"/>
	<path fill="#FFFFFF" d="M60.3,29.7c-0.4-0.1-0.8-0.1-1.2-0.1c-3.8,0.2-7.6-0.5-11.3,0.2c-0.8,0.2-1.4-0.9-2-0.7
		c-1.6,0.5-3.1-0.1-4.6-0.3c-0.5,0-0.9,0-1,0.6c-0.1,0.9-0.2,1.8,0.3,2.7c0.6-0.4,0-1.3,0.7-1.2c0.6,0.1,1.3,0.4,1.2,1.3
		c-0.1,0.6,0,1.3,0.1,1.9c0,0.2,0.2,0.5,0.3,0.6c0.3,0.1,0.5-0.2,0.6-0.5c0.3-0.8,0.6-1.7,0.6-2.5c0-0.4,0.2-0.8,0.7-0.7
		c0.6,0,0.5,0.4,0.5,0.8c0,0.7-0.2,1.3,0.2,2.1c0.8-0.8,0.5-2.1,1.6-2.7c0,1.5-0.7,2.7-0.9,3.9c-0.1,0.4-0.1,1.1-0.6,1
		c-0.4-0.1-1.2-0.2-1.3-1c0-0.2,0.1-0.5-0.2-0.6c-0.2,2,0.2,2.6,2,2.8c1.3,0.2,2.6,0.2,3.9-0.2c1.1-0.4,2.2-0.4,3.3-0.2
		c1.2,0.2,1.9-0.1,2.5-1.3c-0.5,0.1-0.9,1.2-1.3,0.3c-0.5-1.1-0.5-2.4-0.3-3.6c0.1-0.6,0.6-0.9,1.1-0.8c0.6,0,0.4,0.6,0.4,1.1
		s-0.3,1,0,1.5c0.5-0.5,0.3-1.7,0.9-1.5c0.9,0.3-0.3,1.1,0.1,1.8c0.4-0.3,0.6-0.7,0.6-1.1c-0.1-2,1.6-2,2.7-2.5
		c0.2-0.1,0.5,0.5,0.6-0.1C60.8,30.2,60.7,29.8,60.3,29.7z"/>
	<path fill="#FFFFFF" d="M70.7,24.2c-3-1.5-5.9-2.9-8.9-4.4c-1.6-0.8-2.6-2.1-3.2-3.8c-1.1-3.2-2.1-6.5-2.9-9.8
		c-0.4-1.6-0.9-1.8-2.3-1.2c0.2,0.5,1,0.8,0.8,1.8c-0.9-0.6-1.6-1.2-2.4-1.8c-2.7-1.8-2.6-1.8-4.1,1.1c-1.7,3.3-2.9,6.8-4.8,10
		c-1.2,2-2.7,3.5-4.9,4.4c-2.3,1-4.8,1.6-7.2,2.5c-0.7,0.2-1.8,0.3-1.8,1c0,0.9,1.2,0.7,1.9,0.9c3.1,0.9,6.2,1,9.1,2.7
		c1.6,1,3.9,1.6,5.9,0.2c0.4-0.3,0.7-0.1,0.8,0.4c0.1,0.7,0.7,0.9,1.2,0.7c0.8-0.4,1.6-0.2,2.5-0.2c3.3-0.2,6.6,0.4,9.9,0
		c0.9-0.1,1.8,0.1,2.2-1c0.2-0.4,0.6-0.3,0.9-0.2c0.6,0.3,1.2,0.2,1.7-0.1c1.7-0.8,3.6-0.8,5.3-1.4c0.5-0.2,1.3-0.1,1.4-0.8
		C72.1,24.6,71.2,24.4,70.7,24.2z"/>
	<path d="M71.3,23.6c-0.4-0.2-0.8-0.4-1.2-0.6c-2.4-1.1-4.7-2.3-7.1-3.4c-1.9-0.9-3.2-2.4-3.9-4.5c-1-2.9-1.8-5.9-2.6-8.8
		c-0.6-2.2-1.2-2.6-3.4-2.2c-0.7,0.1-1.2,0-1.7-0.4c-1.7-1.4-2.4-1.3-3.5,0.7c-1.2,2.1-2.1,4.4-3.2,6.6c-0.8,1.6-1.5,3.4-2.6,5
		c-2.2-4.1-4.7-7.9-6-12.2C35.9,3.1,36,2,35,2.2c-0.8,0.2-0.6,1.1-0.6,1.8c0,0.3,0.1,0.6,0.1,0.9c0,0.2,0,0.5-0.2,0.5
		c-1.5-0.3-0.6,0.8-0.8,1.3c-0.3,0.7,0.4,1.3,0.1,1.8c-0.7,1.4,0.2,2.9,0.6,3.7c0.6,1.1,0.9,2.3,1.8,3.4c1,1.1,1.4,2.8,3.1,3.5
		c-2.5,1.5-5,2.3-7.6,3c-1.2,0.3-2.4,0.6-3.4,1.3c-0.8,0.5-0.8,1.1,0.1,1.6c0.3,0.2,0.7,0.3,1.1,0.4c2.2,0.6,4.3,1.1,6.6,1.4
		c2.4,0.3,3.4,1.4,3.4,3.8c0,1.1,0.3,2.1,0.7,3.1c0.3,0.7,0.2,1.2-0.3,1.7c-2,1.8-2.8,4.2-4.2,6.4c-3,5-4.8,10.6-6.7,16
		c-0.5,1.5-0.8,3.2-1.6,4.6c-0.2,0.4-0.2,0.8,0,1.3c0.8,1.4,2.6,1.9,4,1c-0.2,2.1-0.8,4.1-1.4,6c-0.9,2.4-1.2,4.4,1.6,5.8
		c0.9,0.5,1.5,0.5,2.3,0.4c0.2,1.1,0.8,1.7,1.9,1.9c0.5,0.1,1,0.1,1.4,0.2c3.4,0.5,4.1,1.3,4.5,4.6c0.2,1.6,0.3,3.1,0.1,4.7
		c-0.2,2-0.1,2.2,1.8,2.5c0.7,0.1,0.9,0.3,0.5,0.9c-0.2,0.3-0.3,0.7-0.4,1.1c-0.3,0.9-0.7,1.6-1.9,1c-0.7-0.4-1.4,0-1.8,0.6
		c-0.4,0.7-0.4,1.5,0.2,2.2c1.3,1.5,3.3,1.5,4.7,0.1c0.1,1.1,0.6,1.6,1.6,1.4c1.1-0.2,0.9-1,0.9-1.7c0-1.7,0-3.3-0.6-4.9
		c-0.2-0.5,0.2-0.5,0.3-0.6c1.4-0.2,1.4-1.1,1.2-2.2c-0.4-2.5,0.1-5.1,0.2-7.6c0-1,2.1-2.8,3-2.7c1.3,0.2,1.5,1.3,1.6,2.4
		c0.3,2.7,0.2,5.5,0.2,8.2c0,1.4,0.4,1.9,1.8,1.7l0,0l0,0c0.3-0.3,0.6-1.1,0.7-1c1.3,1.4,2.4,0,3.6-0.1c0.8-0.1,1-0.6,0.9-1.4
		c-0.5-2.8-0.1-5.5,0.4-8.3c0.2-1,0.6-1.4,1.5-1.9c1-0.5,1.7-1,2.8-0.6c0.1,0,0.3-0.1,0.4-0.1c1.3-0.8,2.6-1.1,4-1.6
		c1.7-0.6,1.9-1.3,1.5-3c-0.5-2.4-1-4.9-1.6-7.3c-0.2-0.7,0.1-1.1,0.8-1.4c0.9-0.4,1.8-1.1,1.5-2.3C71.3,59.3,71.1,57,70,55
		c-0.7-1.3-1.2-2.8-1.9-4.1c-2.4-5.1-3.8-10.5-6.9-15.3c-0.7-1-1.2-2.5,0-3.8c0.3-0.3,0.3-0.8,0.4-1.2c0.1-0.7,0.5-1.2,1.2-1.5
		c2.6-1.1,5.4-1.6,8.1-2.3c0.9-0.2,1.8-0.4,2-1.4C73,24.3,72,24,71.3,23.6z M39.2,16.6c-0.5-0.2-0.9-0.1-0.6-1
		c0.3-1-1.1-0.6-1.8-1.1c0.5-0.3,1.7-0.4,0.5-1.2c-0.6-0.4-1.3-0.4-1.8-1c2.5-1.8-0.8-1.6-0.8-2.7c2,0.1,0.2-1.3,0.6-2
		c0.5-0.7,0.4-1.9,0.2-3c1.1,4.1,3.8,7.3,5.5,11.1c0.3,0.7,0.4,1.3-0.2,1.9c-0.3,0.3-0.6,0.5-1,0.5c-0.8-0.1-0.2-0.6-0.2-0.9
		C39.7,16.9,39.4,16.7,39.2,16.6z M31,59.7c-1.8-0.9-1.8-0.9-1.1-2.7c2.2-6,4.6-12,7.7-17.6c0.7-1.4,1.8-2.4,2.8-3.6
		c0.3-0.3,0.6-0.6,0.8,0.1c0.3,0.9,0.6,1.7,0.3,2.7c-0.5,1.7-0.9,3.4-1.6,5c-0.5,1-1,2-2.1,2.7c-1.5,0.9-1.1,2.7-1.4,4.1
		c-0.1,0.7-0.3,1.5-0.5,2.2c-0.1,0.3-0.2,0.6-0.6,0.5c-0.5-0.1-0.4-0.5-0.3-0.8c0.5-1.8,1-3.7,1.7-5.4c0.4-1.1,0.8-2.3,1.2-3.6
		c-0.9,0.1-1,0.6-1.1,1c-1.3,3.6-2.8,7.1-3.1,10.9c-0.1,1.6-0.4,3.1-1.1,4.5c-0.3,0.7-0.6,1.1-1.2,0.4C31.3,59.9,31.2,59.8,31,59.7z
		 M70.3,72.8c0.3,1.3-0.5,2.2-1.9,2.3c-0.4,0-0.9-0.1-1.2,0.2c-1.2,1-2.3,1.6-3.8,0.5c-0.4-0.3-0.8-0.1-0.8,0.5
		c-0.1,0.9-0.6,0.9-1.3,1.1c-2.2,0.4-4.4,0.8-6.7,0.8c-1.5-0.1-2.1-0.6-2.3-2.1c-0.1-0.8,0.2-1.6-0.3-2.7c-0.8,1.3-0.6,2.4-0.9,3.5
		c-0.1,0.4,0,1.4-0.9,0.5c-0.3-0.3-0.4-0.2-0.6,0.6c-0.1,0.3-0.1,0.6-0.4,0.7c-0.4,0-0.4-0.3-0.5-0.6c-0.1-0.3-0.1-0.7-0.5-0.6
		c-0.4,0-0.5,0.5-0.6,0.8c-0.2,1-0.7,1.1-1.7,1.2c-3.1,0.3-6-0.3-8.9-1.1c-1.7-0.5-2-0.8-1.9-2.6c0-0.4,0.4-1.1-0.3-1
		c-0.5,0-1.3-0.8-1.6,0.4c-0.2,1.2-0.7,1.2-1.6,0.4c-1.8-1.5-1.8-1.4-1.2-3.6c1-3.5,2-7,2.7-10.6c0.4-2.1,1.3-2.5,3.2-1.4
		c0.9,0.5,1.9,3.6,1.5,4.6c-0.2,0.5-0.8,0.6-1.2,0.7c-1.4,0.5-2,1.5-1.9,2.9c0.1,1,0.3,2,0.6,3c0.4,1.3,1.3,1.5,3.3,1.3
		c1.2-0.2,2-0.6,2-2c0-1.8-0.2-3.5-1.2-5c-0.6-1-1.3-2.3-0.7-3.3c0.5-0.8,1.9-0.1,2.8,0.1c2.3,0.5,4.6,0.6,6.9,0.7
		c3.3,0.2,6.3-0.2,9.5-0.6c2.7-0.3,4.5-1.3,5.7-3.6c0.4-0.8,0.7-1.1,1.6-1c1,0.1,1.4,0.4,1.7,1.4C68.3,63.6,69.4,68.2,70.3,72.8z
		 M60.9,36.7c0.4,0.7,0.9,1.3,1.2,2c2.7,6.3,5.4,12.5,8.1,18.8c0.7,1.5-0.7,1.7-1.3,2c-1,0.5-1.1-0.6-1.2-1.3
		c-0.2-0.8-0.2-1.5-0.5-2.3c-0.2-0.6,0.1-1.5-1.1-1.6c-0.4,0-0.7-1.2-0.4-1.8c0.7-1.6,0.1-3.1-0.3-4.5c-0.3-1.2-0.7-2.3-1.1-3.5
		c-0.1-0.2-0.3-0.4-0.6-0.3c-0.2,1,0.6,1.7,0.6,2.8c-0.9-0.3-1.8-1-2.7-0.5c-0.8,0.4-1.6,1-1.7,2.2c1.2-0.7,2.2-2.6,3.7-0.9
		c1,1.1-0.4,1.9-0.9,2.6c-1.1,1.3-1.6-0.5-2.5-0.8c0.1,1.4,0.9,2.2,2.1,2.1c1.3-0.1,2,1,2.6,1.9c0.6,0.8,0.4,1.8-0.4,2.5
		c-0.9,0.8-2,1-3.1,0.7c-0.6-0.1-0.7-0.7-0.8-1.3c-0.1-1.1-0.2-2.1-0.3-3.2c-0.1-0.7-0.1-1.4-0.7-1.8c-0.5,0.1-0.3,0.5-0.3,0.8
		c0.2,1.4,0.4,2.9,0.6,4.3c0.1,1.4,0.8,2.1,2.2,2s1.2,0.4,0.7,1.3c-1.2,2.1-3.1,2.4-5.5,2.3c0.7-0.7,1.2-1.3,1.9-2
		c-1-0.1-1.2,0.4-1.6,0.7c-0.7,0.8-1.6,1.4-2.5,2c-0.8,0.5-1.7,0.7-2.6,0.4c-1.3-0.5-2.7-0.6-4-0.4c-3.2,0.5-6.1-0.8-9.1-1.2
		c-1.2-0.2-0.9-1.3-0.9-2c-0.1-0.8,0.5-1,1.1-1c1.3,0,1.9-0.8,2.2-1.9c0.3-1,0.1-1.9,0.1-2.9c0-0.4,0.1-0.9-0.5-0.9
		C41,52,41,52.5,41,52.8c0,0.9,0,1.9-0.1,2.8c-0.1,0.9-0.6,1.4-1.5,1.4s-1.3-0.3-1.1-1.2v-0.1c0.2-1.6,1.4-4.7,2.4-6.1
		c0.2-0.3,0.6-0.6,0.3-1.2c-0.8,0.4-1.1,1.3-1.8,1.8c-0.3,0.2-0.6,0.7-1,0.4s0.1-0.7,0.2-1c0.1-0.3,0.3-0.5,0.5-0.9
		c-0.7,0-1.5,0.1-1.3-0.8c0.2-1.8,1.7-1.1,3-1.4c-1.1-0.8-0.5-1.5-0.2-2.2c0.6-1.3,1-2.7,1.6-4.1c0.3,0.3,0,0.9,0.5,1.1
		c0.6-0.1,0.4-0.6,0.4-0.9c0.1-0.7,0.1-0.7,0.8-0.8c0.2,0,0.4-0.2,0.3-0.4c-0.2-0.8,0-1.7-1.1-2.1c0.4-0.1,0.8-0.1,1,0.1
		c1.2,1.5,3.1,1.1,4.7,1.7c0.3,0.1,1.2,0.7,1.1-0.7c0-0.6,2.5-0.6,3,0.1c0.3,0.5,0.7,0.2,1,0c1.5-0.7,3-1.5,4.1-2.8
		c0.7-0.8,1.1-0.6,1.4,0.3c0.4,1.2,0.7,2.4,0.9,3.7c-0.3-0.7-0.6-1.5-0.8-2.2s-0.5-0.7-1-0.2c-0.7,0.6-0.8,1.3-0.8,2.1
		c0,1.4-0.2,2.7-0.6,4c-1.2,3.6-5.4,5.3-8.8,3.7c-1.1-0.6-1.8-1.5-2.1-2.7c-0.3-1.3-0.6-2.7-0.6-4c0-0.4,0.1-1-0.3-1.3
		c-0.6,0.2-0.4,0.7-0.5,1c0,1.5,0.2,3,0.6,4.5c0.6,1.9,1.7,3.2,3.7,3.5c1.6,0.3,2,1.2,1.5,2.5c-0.5,1.6,0.1,2.9,0.8,4.3
		c0.2,0.3,0.4,0.6,0.6,0.8c0.4,0.4,1,0.7,1.6,0.3c0.6-0.3,0.5-0.9,0.3-1.4c-0.6-1.5-0.1-3.1-0.5-4.7c-0.3-1.1,0.3-2,1.4-2.5
		c1.5-0.7,2.4-2.1,2.9-3.7c0.3-1,0.5-2.1,0.8-3.1c-0.2,1.4,0.4,2.5,1.8,3.2c0.1-1.3-0.7-2.2-0.7-3.3c1.7,0.9,1.3,2.8,2,4.2
		C61.8,42,60.5,39.5,60.9,36.7z M60.7,30.5c-0.1,0.6-0.4,0-0.6,0.1c-1.1,0.6-2.8,0.6-2.7,2.5c0,0.4-0.2,0.8-0.6,1.1
		c-0.4-0.7,0.8-1.5-0.1-1.8c-0.6-0.2-0.4,1-0.9,1.5c-0.3-0.5-0.1-1,0-1.5c0-0.4,0.2-1-0.4-1.1c-0.4,0-0.9,0.3-1.1,0.8
		c-0.3,1.2-0.2,2.5,0.3,3.6c0.4,0.9,0.8-0.3,1.3-0.3c-0.6,1.2-1.3,1.6-2.5,1.3c-1.1-0.2-2.2-0.2-3.3,0.2c-1.3,0.4-2.6,0.4-3.9,0.2
		c-1.8-0.3-2.2-0.8-2-2.8c0.3,0.1,0.2,0.4,0.2,0.6c0.1,0.7,0.8,0.9,1.3,1s0.5-0.6,0.6-1c0.2-1.3,0.9-2.4,0.9-3.9
		c-1.2,0.7-0.8,1.9-1.6,2.7c-0.4-0.7-0.2-1.4-0.2-2.1c0-0.4,0-0.8-0.5-0.8s-0.7,0.3-0.7,0.7c-0.1,0.9-0.3,1.7-0.6,2.5
		c-0.1,0.3-0.3,0.6-0.6,0.5c-0.2-0.1-0.3-0.4-0.3-0.6c-0.1-0.6-0.2-1.3-0.1-1.9c0.1-0.9-0.5-1.3-1.2-1.3c-0.7-0.1-0.1,0.8-0.7,1.2
		c-0.4-0.9-0.4-1.8-0.3-2.7c0.1-0.5,0.6-0.6,1-0.6c1.5,0.1,3,0.7,4.6,0.3c0.5-0.2,1.2,0.9,2,0.7c3.8-0.7,7.6,0,11.3-0.2
		c0.4,0,0.8,0,1.2,0.1C60.7,29.8,60.8,30.2,60.7,30.5z M71.9,25.3c-0.1,0.7-0.9,0.6-1.4,0.8c-1.7,0.6-3.7,0.6-5.3,1.4
		c-0.5,0.3-1.1,0.4-1.7,0.1c-0.3-0.2-0.7-0.3-0.9,0.2c-0.4,1.1-1.4,0.9-2.2,1c-3.3,0.3-6.6-0.2-9.9,0c-0.8,0-1.6-0.2-2.5,0.2
		c-0.5,0.2-1.1,0-1.2-0.7c-0.1-0.5-0.4-0.7-0.8-0.4c-2,1.5-4.3,0.8-5.9-0.2C37.2,25.9,34,25.8,31,25c-0.7-0.2-1.9,0-1.9-0.9
		c0-0.7,1.1-0.7,1.8-1c2.4-0.9,4.8-1.4,7.2-2.5c2.2-1,3.7-2.5,4.9-4.4c1.9-3.2,3.2-6.7,4.8-10c1.5-2.9,1.4-2.9,4.1-1.1
		c0.8,0.5,1.5,1.1,2.4,1.8c0.2-0.9-0.6-1.2-0.8-1.8c1.4-0.6,1.9-0.4,2.3,1.2c0.8,3.3,1.8,6.6,2.9,9.8c0.6,1.7,1.6,3,3.2,3.8
		c3,1.5,5.9,2.9,8.9,4.4C71.2,24.4,72.1,24.6,71.9,25.3z"/>
	<path d="M55.3,90.4c-0.6,1.6-0.6,3.2-0.6,4.9c0,0.7-0.3,1.6,0.7,1.8c1,0.3,1.7,0,1.9-1.1c1.6,1.3,2.4,1.3,3.9,0.4
		c0.9-0.5,1.5-1.3,1.1-2.4S61,92.8,60,93.1c-0.7,0.2-1.3,0-1.4-0.7C58.3,90.4,56.9,90.3,55.3,90.4L55.3,90.4L55.3,90.4z"/>
	<path d="M55.3,90.4L55.3,90.4L55.3,90.4z"/>
</g>
</svg>
