<?xml version="1.0" encoding="utf-8"?>
<!-- Generator: Adobe Illustrator 19.2.0, SVG Export Plug-In . SVG Version: 6.00 Build 0)  -->
<svg version="1.1" id="Capa_1" xmlns="http://www.w3.org/2000/svg" xmlns:xlink="http://www.w3.org/1999/xlink" x="0px" y="0px"
	 viewBox="0 0 100 100" enable-background="new 0 0 100 100" xml:space="preserve">
<g id="Capa_2">
</g>
<g id="Capa_1_1_">
	<path fill="#FFFFFF" d="M43.3,81.7c0,0-1.3,10.5-16.5,10.4c0,0-4.3-4.9-10.2-4.5c0,0-9.8,6.1,2.8,9.1c0,0,5.1,0.2,7.4-2.3
		c0,0,12.7,0.6,19.6-8.1"/>
	<g>
		<path fill="#FFFFFF" d="M63.6,31.5c-1.1-0.9-1.1-2.2-0.7-3.5c-1.9,0.8-1.7,3.7-0.7,5.1c0.8,1,2,1.3,3.2,0.8
			c1.1-0.5,1.4-1.4,1.1-2.9C65.7,32,64.7,32.3,63.6,31.5z"/>
		<path fill="#FFFFFF" d="M86.8,35.9c-0.4-1.6-1.3-3-3-3.7c-1.4-0.5-2.8-0.8-4.3-1.1c-1.6-0.3-3.3-0.4-4.1-2.3
			c-1,2.6-3.1,3.3-4.7,1.7c-2.1-2.1-1.4-5.5,1.4-6.7c-0.6-1-1.1-1.9-1.7-2.9c-0.9-1.4-1.6-1.5-2.9-0.4c-0.1-0.1-0.1-0.2-0.2-0.2
			c0.5-0.5,1.1-0.9,1.7-1.4c-1.2-1.8-2.6-3.6-4.7-4.7c-0.5-0.3-1.6-0.4-0.3-1.2c0.1-0.1,0.1-0.4,0.1-0.6c-0.3-2.5-0.6-4.9-1-7.4
			C63,5,63,4.9,63,4.8c-0.1-0.2-0.4-0.4-0.5-0.6c-0.2,0.2-0.6,0.4-0.7,0.7c-1.3,2.1-2,4.5-2.4,6.9c-0.1,0.6,0.1,0.8,0.7,0.9
			c0.4,0,0.8,0.2,1.2,0.3c-0.6,0.3-1.2,0.3-1.5,0.6s-0.3,0.9-0.5,1.3c-0.1,0-0.2,0-0.3,0c-0.3-0.8-0.4-1.7-0.8-2.5
			c-1-2.2-2-4.3-3-6.4c-0.1-0.3-0.6-0.4-0.9-0.6C54,5.7,53.8,6,53.7,6.3c-0.2,1.1-0.5,2.1-0.6,3.2c-0.2,2.4-0.2,4.9-0.3,7.1
			c-0.3,0.2-0.7,0.3-0.9,0.5c-0.6,1-1.2,2-1.7,3c-2.8,6.7-4,13.8-5.7,20.8c-1.2,5.2-2.1,10.4-3.2,15.6c-1,5.1-1.5,10.2-0.7,15.4
			c0.1,0.5,0.2,1.1,0.3,1.6c0.1,0,0.2,0,0.3,0c0.5-5.1,0.4-10.3,1.9-15.3c0.2,0.3,0.1,0.7,0.1,1c-0.3,3.1-0.7,6.3-1,9.4
			c-0.3,2.7-0.6,5.4-0.9,8c-0.1,1-0.3,2-0.4,3c0,0.4,0.1,0.8,0.3,1.4c1.4-1.4,0-2.9,0.8-4.3c0.4,1.8,0.2,3.6,1.3,5
			c-0.1-0.8-0.2-1.6-0.3-2.4s-0.1-1.6-0.1-2.4c0.1,0,0.3,0,0.4,0c0.1,0.9,0.2,1.7,0.3,2.6c0.2,0.8,0.2,1.7,1.1,2.6
			c0-1.9-0.3-3.6,0.4-5.1c0.4,1.7-0.3,3.4,0.6,5.3c1.4-2,0.8-4.5,2.3-6.2c0.7,0.6,1.2,1.2,1.8,1.7c0.2,0.1,0.5,0.1,0.8,0.2
			c0-0.3,0.2-0.5,0.1-0.8c-0.1-0.3-0.3-0.6-0.4-1c-0.2-1.1-0.7-2.3-0.5-3.4c0.8-4.1,1.8-8.2,2.8-12.3c0-0.1,0.1-0.3,0.1-0.4
			c0.1,0.1,0.2,0.1,0.3,0.2c0,0.4,0,0.8-0.1,1.1c-0.5,2.4-1,4.8-1.7,7.2c-0.7,2.8-1.5,5.6-0.1,8.4c0.2,0.4,0,1.3-0.3,1.4
			c-0.3,0.2-1.1,0-1.5-0.3c-0.4-0.2-0.6-0.8-1-1.2c-0.5,0.5-0.6,0.9-0.7,1.2c-0.2,1-0.4,1.9-0.7,2.9c-0.2,0.9-0.5,1.7-1.6,1.9
			c1.7,3,2.6,6.2,3.2,9.4c0.1,0.8,0.5,1.3,1.3,1.6c3.3,1.3,6.6,1.7,10.1,1.5c0.5,0,1.1-0.1,1.6-0.2c0-0.1,0.1-0.2,0.1-0.4
			c-1.1-1.5-2.6-2.6-4.4-3.3c0.3-2.4,0.5-4.9,0.8-7.3c0.1,0,0.1,0,0.2,0c0.1,0.3,0.2,0.7,0.4,1.1c1.3,0,2.5,0.1,3.8,0
			c1.2-0.1,2.5-0.3,3.7-0.4c0,0.1,0,0.2,0.1,0.3c-1.2,0.2-2.4,0.5-3.6,0.7c-0.6,0.1-0.9,0.2-0.9,1c0,1.5,0,3-0.1,4.5
			c0,1,0.5,1.5,1.3,1.6c3.2,0.4,6.3,0.8,9.5,1.2c0.4,0.1,0.9,0,1.4-0.1c0-0.3-0.1-0.6-0.2-0.8c-1.1-1.3-2.4-2.2-3.9-2.7
			c1.1-2.3,2.2-4.6,3.4-7c-0.6,0.1-1,0.2-1.4,0.3c0.3-0.4,0.7-0.7,1.1-1c2.1-1.4,3.7-3.3,4.9-5.5c1.7-3.1,2.2-6.4,2-9.9
			c-0.2-5.3-1.9-10.1-4.4-14.6c-0.8-1.5-0.7-1.9-2.6-1.1c-0.2,0.1-0.3,0.1-0.5,0c-1.9,0-3.8,0-5.8-0.1c-3.3-0.2-6.1-1.7-8.6-3.7
			c-2.8-2.4-4.7-5.4-6.1-8.8c-0.8-1.8-1.3-3.7-1.8-5.5c0.2,0,0.3-0.1,0.5-0.1c0.1,0.3,0.2,0.6,0.3,0.9c1,3.7,2.7,7.1,5.1,10.2
			c4.4,5.7,10.3,7.1,17,6.2c2.8-0.4,5.3-1.5,7.7-2.9c3.2-2.1,5.5-4.8,6.2-8.6c0.1-0.5,0.1-1,0.2-1.5C87,37.2,86.9,36.6,86.8,35.9z
			 M55.6,14.7c-0.3-1.3-0.6-2.6-0.9-3.9c-0.1,0-0.2,0-0.3,0c0,1.5,0,3,0,4.5c-0.1,0-0.3,0-0.4,0c0-2.5,0-5,0-7.5c0.1,0,0.2,0,0.3,0
			c0.9,2.2,1.5,4.5,1.6,6.9C55.8,14.6,55.7,14.6,55.6,14.7z M62.1,6.3c0.1,0,0.2,0,0.3,0c0.5,2.2,0.5,4.4,0.6,6.6
			c-0.1,0-0.2,0-0.3,0c-0.1-0.5-0.1-1.1-0.2-1.6h-0.1c-0.1,0.6-0.2,1.3-0.3,1.9c-0.1,0-0.3,0-0.4,0C61.8,10.9,62,8.6,62.1,6.3z
			 M57.8,24.2c0.2-1.6,1.2-2.4,2.6-2.1C59.5,22.8,58.6,23.6,57.8,24.2z M65.2,34.6c-1.6,0.4-2.8-0.1-3.6-1.5
			c-0.7-1.2-0.8-2.4-0.6-3.7c0.2-1.3,1.2-2.3,2.4-2.5c1.1-0.2,2.5,0.4,3,1.6c0.6,1,0.8,2,1.1,3C67.3,33.2,66.6,34.2,65.2,34.6z"/>
		<path fill="#FFFFFF" d="M71.3,28.3c-0.5-0.8-0.7-1.8-1.1-2.6c-0.7,1.1-0.7,2.5,0.2,3.7c0.6,0.9,1.8,1.3,2.7,1
			c0.9-0.3,1.3-1.1,1.1-2.5C72.9,28.9,71.9,29.1,71.3,28.3z"/>
		<path d="M63.9,13c-1.3,0.8-0.2,0.9,0.3,1.2c2.1,1.1,3.5,2.9,4.7,4.7c-0.6,0.5-1.2,0.9-1.7,1.4c0.1,0,0.1,0.1,0.2,0.2
			c1.3-1.1,2-1,2.9,0.4c0.6,1,1.1,1.9,1.7,2.9c-2.8,1.2-3.5,4.6-1.4,6.7c1.6,1.6,3.7,0.9,4.7-1.7c0.8,1.9,2.5,2,4.1,2.3
			c1.5,0.3,2.9,0.6,4.3,1.1c1.7,0.7,2.7,2.1,3,3.7c-0.4-2.2-1.8-4.3-4.5-4.8c-1.6-0.4-3.2-0.6-4.7-1.1c-0.7-0.2-1.4-0.6-1.8-1.2
			c-1.3-1.7-2.4-3.5-3.5-5.3c-2.2-3.6-4.3-7.3-7.7-9.9c-0.2-0.2-0.4-0.6-0.4-1c-0.2-1.8-0.3-3.6-0.6-5.4C63.4,6.5,63.2,5.8,63,5
			c0.4,2.5,0.7,4.9,1,7.4C64,12.6,64,12.9,63.9,13z M74.2,27.9c0.2,1.4-0.2,2.2-1.1,2.5s-2.1-0.1-2.7-1c-0.9-1.2-0.9-2.6-0.2-3.7
			c0.4,0.8,0.6,1.8,1.1,2.6C71.9,29.1,72.9,28.9,74.2,27.9z"/>
		<path d="M72.4,94.2c-3.2-0.4-6.3-0.8-9.5-1.2c-0.8-0.1-1.3-0.6-1.3-1.6c0.1-1.5,0.1-3,0.1-4.5c0-0.8,0.3-0.9,0.9-1
			c1.2-0.2,2.4-0.5,3.6-0.7c-0.1-0.1-0.1-0.2-0.1-0.3c-1.2,0.1-2.5,0.3-3.7,0.4c-1.3,0.1-2.5,0-3.8,0c-0.2-0.4-0.3-0.8-0.4-1.1
			c-0.1,0-0.1,0-0.2,0c-0.3,2.4-0.5,4.9-0.8,7.3c1.8,0.7,3.3,1.8,4.4,3.3c0,0.2-0.1,0.3-0.1,0.4c-0.5,0.1-1.1,0.2-1.6,0.2
			c-3.5,0.2-6.8-0.2-10.1-1.5c-0.8-0.3-1.2-0.8-1.3-1.6c-0.6-3.2-1.5-6.4-3.2-9.4c1.1-0.2,1.4-1,1.6-1.9c0.3-1,0.5-1.9,0.7-2.9
			c0.1-0.3,0.2-0.7,0.7-1.2c0.4,0.4,0.6,1,1,1.2c0.4,0.3,1.2,0.5,1.5,0.3c0.3-0.1,0.5-1,0.3-1.4c-1.4-2.8-0.6-5.6,0.1-8.4
			c0.7-2.4,1.2-4.8,1.7-7.2c0.1-0.3,0.1-0.7,0.1-1.1c-0.1-0.1-0.2-0.1-0.3-0.2c0,0.1-0.1,0.3-0.1,0.4c-1,4.1-2,8.2-2.8,12.3
			c-0.2,1.1,0.3,2.3,0.5,3.4c0.1,0.4,0.3,0.7,0.4,1c0.1,0.3-0.1,0.5-0.1,0.8c-0.3-0.1-0.6-0.1-0.8-0.2c-0.6-0.5-1.1-1.1-1.8-1.7
			c-1.5,1.7-0.9,4.2-2.3,6.2c-0.9-1.9-0.2-3.6-0.6-5.3c-0.7,1.5-0.4,3.2-0.4,5.1c-0.9-0.9-0.9-1.8-1.1-2.6c-0.1-0.9-0.2-1.7-0.3-2.6
			c-0.1,0-0.3,0-0.4,0c0,0.8,0,1.6,0.1,2.4s0.2,1.6,0.3,2.4c-1.1-1.4-0.9-3.2-1.3-5c-0.8,1.4,0.6,2.9-0.8,4.3
			c-0.2-0.6-0.3-1-0.3-1.4c0.1-1,0.3-2,0.4-3c0.3-2.6,0.6-5.3,0.9-8c0.3-3.1,0.7-6.3,1-9.4c0-0.3,0.1-0.7-0.1-1
			c-1.5,5-1.4,10.2-1.9,15.3c-0.1,0-0.2,0-0.3,0c-0.1-0.5-0.2-1.1-0.3-1.6c-0.8-5.2-0.3-10.3,0.7-15.4c1.1-5.2,2-10.4,3.2-15.6
			c1.7-7,2.9-14.1,5.7-20.8c0.5-1,1.1-2,1.7-3c0.2-0.2,0.6-0.3,0.9-0.5c0.1-2.2,0.1-4.7,0.3-7.1c0.1-1.1,0.4-2.1,0.6-3.2
			C53.8,6,54,5.7,54.2,5.4C54.5,5.6,55,5.7,55.1,6c1,2.1,2,4.2,3,6.4c0.4,0.8,0.5,1.7,0.8,2.5c0.1,0,0.2,0,0.3,0
			c0.2-0.4,0.2-1,0.5-1.3s0.9-0.3,1.5-0.6c-0.4-0.1-0.8-0.3-1.2-0.3c-0.6-0.1-0.8-0.3-0.7-0.9c0.4-2.4,1.1-4.8,2.4-6.9
			c0.1-0.3,0.5-0.5,0.7-0.7c0.1,0.2,0.4,0.4,0.5,0.6c0-0.1-0.1-0.3-0.1-0.4c-0.1-0.4-0.6-0.9-1-1c-0.3-0.1-0.8,0.4-1.1,0.7
			c-0.5,0.7-1,1.5-1.3,2.3c-0.5,1.4-1,2.8-1.5,4.5c-0.2-0.5-0.3-0.8-0.5-1.1c-0.8-1.5-1.5-3-2.4-4.5c-0.2-0.4-1-0.9-1.4-0.8
			s-0.9,0.8-1,1.3c-0.4,2-1,4.1-1,6.2c0,2.3-0.7,4-1.7,6c-1.4,2.8-2.5,5.9-3.3,9c-1.9,7.8-3.6,15.7-5.3,23.6c-0.8,4-1.5,8.1-2,12.2
			c-0.4,3.3-0.4,6.8,0.4,10.1c0.4,1.8,0.7,3.5,0.4,5.3c-0.1,0.7-0.1,1.5,0,2.3c0.1,0.7,0.3,1.3,1.3,1.1c0.6-0.1,1.6,1.1,1.3,1.6
			c-0.9,1.4-1.6,2.9-2.8,4.1c-3.1,3.1-7.1,4.2-11.3,4.9c-1.3,0.2-2.4-0.2-3.3-1.1c-0.3-0.3-0.6-0.6-0.9-0.9c-2.2-2-4.8-2.9-7.8-2.6
			c-0.2,0-0.4,0.1-0.6,0.2c3.6,0.1,6.7,1.3,9.1,4c0.9,1,2.2,1.3,3.6,1c1.3-0.3,2.6-0.4,3.9-0.8c4-1.1,7.5-3,9.9-6.5
			c0.6-0.8,0.9-1.8,1.5-2.9c0.5,0.9,0.9,1.8,1.4,2.5c0.7,1,0.4,1.8-0.4,2.5c-0.1,0.1-0.3,0.2-0.4,0.3c-4.3,3.8-9.3,5.5-14.9,6.1
			c-1.7,0.2-3.3,0.4-4.9,1.1c-1.8,0.8-4,1.1-6,1.6c0.2,0,0.4,0,0.6,0c2,0.1,4,0,5.9-1c1.3-0.7,2.7-1,4.2-1.1
			c5.4-0.5,10.4-2,14.7-5.5c0.7-0.5,1.4-1.1,2.3-1.9c0.4,1.9,0.9,3.7,1.2,5.4c0.2,1,0.6,1.6,1.6,2c3.4,1.3,7,1.8,10.7,1.5
			c2.3-0.2,2.3-0.2,1.8-2.4c0.5,0.1,1,0.1,0.9,0.2c3.3,0.3,6.6,0.6,9.9,0.9c0.4,0,1.2-0.3,1.2-0.6v-0.1
			C73.3,94.2,72.8,94.3,72.4,94.2z M60.6,92.8c-1-0.6-1.7-1.1-2.5-1.6c-0.2-0.1-0.3-0.5-0.3-0.7c0.1-1.2,0.2-2.3,0.5-3.5
			c0.1-0.3,0.7-0.7,1-0.7c0.5,0,1.2,0.2,1.3,0.5C61,88.7,60.8,90.7,60.6,92.8z"/>
		<path d="M63,5c0-0.1,0-0.2-0.1-0.2C63,4.9,63,5,63,5L63,5z"/>
		<path d="M18.6,96.7c0.1,0,0.1,0,0.2,0C18.8,96.7,18.7,96.7,18.6,96.7z"/>
		<path d="M86.9,37.9c0,0.5-0.1,1-0.2,1.5c0-0.1,0-0.2,0.1-0.2c0.2-1.1,0.2-2.2-0.1-3.3C86.9,36.6,87,37.2,86.9,37.9z"/>
		<path d="M80.5,48c-2.4,1.4-4.9,2.5-7.7,2.9c-6.7,0.9-12.6-0.5-17-6.2c-2.4-3.1-4.1-6.5-5.1-10.2c-0.1-0.3-0.2-0.6-0.3-0.9
			c-0.2,0-0.3,0.1-0.5,0.1c0.5,1.8,1,3.7,1.8,5.5c1.4,3.4,3.3,6.4,6.1,8.8c2.5,2,5.3,3.5,8.6,3.7c2,0.1,3.9,0.1,5.8,0.1
			c0.2,0.1,0.3,0.1,0.5,0c1.9-0.8,1.8-0.4,2.6,1.1c2.5,4.5,4.2,9.3,4.4,14.6c0.2,3.5-0.3,6.8-2,9.9c-1.2,2.2-2.8,4.1-4.9,5.5
			c-0.4,0.3-0.8,0.6-1.1,1c0.4-0.1,0.8-0.2,1.4-0.3c-1.2,2.4-2.3,4.7-3.4,7c1.5,0.5,2.7,1.4,3.9,2.7c-0.1-0.1-0.2-0.3-0.3-0.4
			c-0.8-0.8-1.7-1.5-2.6-2.2c-0.5-0.4-0.6-0.9-0.3-1.5c0.7-1.4,1.4-2.7,2-4.1c0.5-1.3,1.3-2.3,2.3-3.2c2.8-2.6,4.3-5.9,4.9-9.6
			c1-6-0.1-11.6-2.8-17c-0.7-1.3-1.4-2.6-2.1-3.8c1.8-0.9,3.7-1.7,5.3-2.7c3.5-2.3,6.1-5.2,6.7-9.4C86,43.2,83.8,45.9,80.5,48z"/>
		<path d="M73.8,94.1c0.1,0,0.3,0,0.4-0.1c-0.2-0.3-0.4-0.5-0.6-0.7C73.8,93.5,73.9,93.8,73.8,94.1z"/>
		<path d="M14.3,94.5c1.5,1.8,7.7,1.9,9.3,0.2c-2.4,0.8-4.6,0.9-6.9,0.3c1.6-0.4,3.3-0.2,5-1.1c-2.1-0.5-4-1-5.8-1.5
			c0-0.1,0.1-0.2,0.1-0.3c1.8,0.3,3.5,0.6,5.3,0.9c0.1-0.1,0.1-0.2,0.1-0.3c-2.1-0.4-4.1-0.9-6.1-1.4c0-0.1,0-0.2-0.1-0.3
			c2.3,0.4,4.6,0.8,6.9,1.2c-1.5-1.3-6.9-3.3-8.1-3c1.2,0.4,2.4,0.9,3.6,1.3c-1,0.1-2,0-2.9,0c-0.8,0-1,0.3-0.6,1
			c0.2,0.4,0.5,0.7,0.9,0.9c1.1,0.5,2.1,0.9,3.2,1.3c0.2,0,0.4,0.1,0.6,0.2c0,0.1,0,0.1,0,0.2C17.3,94.2,15.8,94.4,14.3,94.5z"/>
		<path d="M16,88.4c2.2,0.8,4.4,1.6,6.7,2.4C21.6,89.2,17.3,87.8,16,88.4z"/>
		<path d="M63.4,26.9c-1.2,0.2-2.2,1.2-2.4,2.5s-0.1,2.5,0.6,3.7c0.8,1.4,2,1.9,3.6,1.5c1.4-0.4,2.1-1.4,2.3-3.1c-0.3-1-0.5-2-1.1-3
			C65.9,27.3,64.5,26.7,63.4,26.9z M65.4,33.9c-1.2,0.5-2.4,0.2-3.2-0.8c-1-1.4-1.2-4.3,0.7-5.1c-0.4,1.3-0.4,2.6,0.7,3.5
			c1.1,0.8,2.1,0.5,2.9-0.5C66.8,32.5,66.5,33.4,65.4,33.9z"/>
		<path d="M54,7.8c0,2.5,0,5,0,7.5c0.1,0,0.3,0,0.4,0c0-1.5,0-3,0-4.5c0.1,0,0.2,0,0.3,0c0.3,1.3,0.6,2.6,0.9,3.9
			c0.1-0.1,0.2-0.1,0.3,0c-0.1-2.4-0.7-4.7-1.6-6.9C54.2,7.8,54.1,7.8,54,7.8z"/>
		<path d="M62.4,11.3L62.4,11.3c0.2,0.5,0.2,1.1,0.3,1.6c0.1,0,0.2,0,0.3,0c-0.1-2.2-0.1-4.4-0.6-6.6c-0.1,0-0.2,0-0.3,0
			c-0.1,2.3-0.3,4.6-0.4,6.9c0.1,0,0.3,0,0.4,0C62.2,12.6,62.3,11.9,62.4,11.3z"/>
		<path d="M57.8,24.2c0.8-0.6,1.7-1.4,2.6-2.1C59,21.8,58,22.6,57.8,24.2z"/>
	</g>
</g>
</svg>
