<?xml version="1.0" encoding="utf-8"?>
<!-- Generator: Adobe Illustrator 19.2.0, SVG Export Plug-In . SVG Version: 6.00 Build 0)  -->
<svg version="1.1" id="Capa_1" xmlns="http://www.w3.org/2000/svg" xmlns:xlink="http://www.w3.org/1999/xlink" x="0px" y="0px"
	 viewBox="0 0 100 100" enable-background="new 0 0 100 100" xml:space="preserve">
<g id="Capa_2">
</g>
<g>
	<path fill="#FFFFFF" d="M41.6,14.7c0.7-0.6,1.3-1.2,1.2-2.2c0-1.1-0.4-2.1-1.1-3c-0.1-0.1-0.2-0.3-0.5-0.4c0.1,0.2,0.2,0.4,0.3,0.7
		c0.1,0.1,0,0.3-0.1,0.4c-0.2,0.1-0.3-0.1-0.3-0.2c-0.2-0.8-0.9-1.1-1.5-1.6c0.2,0.4,0.6,0.6,0.8,1c0.1,0.2,0.2,0.4,0,0.5
		c-0.2,0.2-0.4,0-0.4-0.2c-0.2-0.3-0.4-0.6-0.7-0.8c0.1,0.3,0.2,0.5,0.3,0.7c0,0.1,0,0.3-0.1,0.4c-0.2,0.1-0.2-0.1-0.3-0.2
		c-0.1-0.3-0.2-0.6-0.5-0.9c0,0.3,0.1,0.5,0.1,0.7S38.7,10,38.5,10s-0.2-0.2-0.2-0.4c0-0.3,0-0.7-0.2-1c-0.2,0.4-0.2,0.7-0.2,1.1
		c0,0.1,0,0.3-0.2,0.3s-0.2-0.2-0.2-0.3s0-0.2,0-0.3c0-0.4,0.2-0.7,0.1-1.2c-0.3,0.5-0.4,1-0.6,1.5c0,0.2-0.1,0.4-0.3,0.4
		c-0.2-0.1-0.2-0.3-0.1-0.5c0.1-0.3,0.2-0.7,0.3-1c-0.4,0.4-0.7,0.8-1,1.3c-0.1,0.2-0.1,0.4-0.3,0.3c-0.2-0.1-0.1-0.3-0.1-0.5
		c0.1-0.2,0.2-0.4,0.3-0.6c0.2-0.3,0.3-0.5,0.5-0.7c-0.2,0.1-0.3,0.2-0.4,0.3c-0.4,0.4-0.8,0.8-1.2,1.3c-0.1,0.1-0.2,0.2-0.4,0.2
		c-0.2-0.1-0.1-0.3,0-0.4c0.1-0.1,0.2-0.2,0.3-0.3c0.2-0.3,0.5-0.5,0.7-0.8c-0.1,0-0.2,0.1-0.3,0.1c-0.5,0.3-0.9,0.6-1.3,1
		c-0.3,0-0.5,0.2-0.7,0c-0.1-0.1,0-0.3,0.1-0.4c0.2-0.3,0.4-0.5,0.6-0.6c0.5-0.3,1-0.7,1.5-1.1c-0.2-0.1-0.4,0.1-0.5,0.1
		c-1.2,0.6-2.2,1.5-3,2.5c-1.5,1.8-1.1,3.8,0.9,5C34.9,16.8,39.3,16.6,41.6,14.7z M38.4,11.5c1.1,0.2,2.1-0.3,3.1-0.7
		c0.7-0.3,0.8-0.2,0.9,0.5c0,0.1,0,0.2,0,0.5c0.1,0.4-0.2,0.8-0.7,1.1c-0.6,0.4-1.3,0.5-2,0.4c-0.5-0.1-0.9-0.3-1-0.9
		c0-0.3-0.2-0.4-0.4-0.4c-0.1,0-0.4,0-0.4-0.2C38,11.5,38.2,11.5,38.4,11.5z M34.1,13.3c-0.6,0.1-1.2-0.2-1.7-0.7s-0.5-1.1,0.1-1.6
		c0.4-0.4,0.8-0.5,1.4-0.2c0.8,0.4,1.7,0.6,2.6,0.5c0.3,0,0.6-0.1,0.5-0.5c0-0.1,0-0.2,0.1-0.2s0.2,0.1,0.2,0.1c0.2,0.5,0,0.9-0.5,1
		c-0.4,0-0.6,0.2-0.8,0.6C35.7,13.2,34.9,13.3,34.1,13.3z M35.4,13.6c0.2-0.4,0.6-0.5,1-0.6c0.1,0,0.2,0,0.2,0.1s0,0.2,0,0.2
		c-0.1,0.2-0.3,0.2-0.4,0.3c-0.1,0.1-0.3,0.1-0.3,0.2c0,0.1,0.2,0.1,0.3,0.1c0.5,0.1,0.9,0.1,1.4,0.1c0.4,0,0.7,0,1.1-0.1
		c0.2-0.1,0.2-0.2,0-0.3s-0.4-0.2-0.6-0.3c-0.2-0.1-0.4-0.3-0.5-0.5s-0.2-0.4,0-0.5s0.3,0.1,0.3,0.2c0.3,0.3,0.7,0.5,1,0.7
		c0.2,0.1,0.5,0.2,0.4,0.6c0,0.3-0.3,0.4-0.6,0.5c-1.1,0.2-2.1,0.1-3.2-0.1C35.2,14.3,35.2,14,35.4,13.6z M35.4,14.9
		c0.1-0.2,0.3-0.1,0.5,0c1.1,0.3,2.3,0.4,3.4-0.1c0.2-0.1,0.4-0.2,0.4,0.1c0.1,0.2-0.1,0.3-0.3,0.4c-0.7,0.2-1.4,0.4-2.1,0.4
		c-0.6,0-1.1,0-1.6-0.2C35.5,15.3,35.3,15.2,35.4,14.9z"/>
	<path fill="#FFFFFF" d="M30.2,32.2c0.3,0.1,0.3,0.3,0.1,0.5c-0.1,0.2-0.3,0.4-0.2,0.7c0.2-0.3,0.3-0.6,0.6-0.7
		c0.3-0.2,0.5-0.1,0.5,0.3c0,0.4,0,0.8,0.2,1.2c0.3,0.5,0.6,0.6,1.1,0.4c0.1-0.1,0.3-0.3,0.5-0.1c0.2,0.1,0.1,0.3,0.1,0.5
		c0,0.1-0.1,0.1,0.1,0.1c0.1-0.2,0.3-0.3,0.5-0.5s0.3-0.6,0.6-0.4c0.2,0.1,0,0.5-0.1,0.7S34,35.2,34,35.4c-0.1,0.2-0.2,0.4-0.2,0.7
		c0.4-0.4,0.6-0.9,0.9-1.3c0.2-0.4,0.4-0.4,0.7,0c0.2,0.3,0.4,0.5,0.7,0.8c0.2,0.2,0.4,0.2,0.5-0.1c0.3-0.6,0.9-0.9,1.5-1.1
		c0.4-0.1,0.6,0,0.5,0.4c-0.1,0.3-0.1,0.7-0.1,1c0,0.4,0.1,0.5,0.5,0.4s0.9-0.3,1.3-0.3c0.4,0,0.5-0.1,0.7-0.3
		c0.3-0.5,0.7-0.9,1.2-1.2c0.2-0.1,0.4-0.4,0.7-0.2c0.2,0.2,0.1,0.4,0,0.7c0,0.1,0,0.1,0,0.2c0,0.2-0.1,0.4,0.1,0.5
		c0.1,0.1,0.2-0.1,0.4-0.1c0.2-0.1,0.3-0.2,0.5-0.1c0.1,0.1,0.1,0.3,0.1,0.4c-0.1,0.8-0.1,0.8,0.7,0.6h0.1c0.4,0,0.5-0.3,0.4-0.6
		c-0.2-0.7-0.4-1.3-0.8-1.9c-0.3-0.5-0.7-1-1-1.5c-0.2-0.5-0.1-1.2-0.3-1.8l0,0c0-0.3-0.2-0.4-0.4-0.3c-0.3,0.1-0.7,0.1-1-0.1
		C41.2,30,41,30,41.1,30.3c0,0.4-0.2,0.4-0.5,0.4c-0.3,0.1-0.4-0.1-0.4-0.3c0-0.1,0-0.3,0-0.4c0-0.4-0.1-0.6-0.5-0.6
		c-0.3,0-0.6,0-0.7-0.4c-0.1-0.4-0.3-0.4-0.7-0.4c-1.9,0.1-3.9,0.5-5.7-0.8c-0.1-0.1-0.2-0.1-0.3,0c-0.4,0.4-0.4,0.9-0.1,1.4
		c0.6,0.7,1.3,1.1,2.1,1.3c0.2,0,0.5,0,0.4,0.3S34.4,31,34.2,31c-0.1,0-0.2-0.1-0.3-0.1c-0.7-0.2-1.3-0.6-1.8-1.1
		c-0.1-0.1-0.2-0.2-0.3-0.2c-0.2,0.1-0.1,0.2-0.1,0.3c0,0.4,0,0.8,0.2,1.1c0.2,0.4,0.5,0.7,0.9,1c0.2,0.1,0.4,0.3,0.2,0.5
		s-0.3,0-0.5-0.1c-0.5-0.4-1-0.9-1.2-1.5c-0.1-0.3-0.3-0.3-0.5-0.1c-0.3,0.3-0.5,0.6-0.7,1C30.1,32,29.9,32.2,30.2,32.2z"/>
	<path fill="#FFFFFF" d="M22.2,37.6c0.1,0.1,0.2,0.1,0.3,0.2c1.4,0.8,2.9,0.7,4.3,0v-0.1c-0.2-0.1-0.5,0-0.5-0.3
		c0-0.2-0.1-0.3-0.3-0.5c-0.2-0.1-0.2-0.3,0.1-0.4c0.3-0.1,0.7-0.2,1-0.4s0.5-0.2,0.5,0.3c0,0.3,0,0.8,0.3,0.9
		c0.9,0.6,1.8,0.7,2.8,0.3s1.5-1.2,1.8-2.2c0.1-0.2,0-0.3-0.2-0.2c-0.3,0.1-0.6,0.1-0.9,0.2c-1.2,0.3-2.4,0.1-3.5-0.4
		c-0.2-0.1-0.2-0.1-0.2-0.3c0.1-0.2,0.2-0.5,0.4-0.7c0.2-0.2,0.4-0.3,0.6-0.1c0.2,0.1,0.4,0.2,0.5,0.4c0.2,0.2,0.3,0.1,0.3-0.1
		c0.2-0.3,0.2-0.7,0.3-1.1c0-0.3-0.1-0.3-0.3-0.3c-0.4,0-0.8,0.1-1.2,0.2c-0.7,0.2-0.9,0.6-0.9,1.3c0,0.1,0,0.2,0,0.3
		s-0.1,0.2-0.2,0.2s-0.2,0-0.2-0.1c-0.2-0.3-0.5-0.5-0.7-0.8c-0.4-0.5-0.9-0.7-1.5-0.7c-1.3,0.1-1.3-0.1-0.9,1.3
		c0.3,1,1.2,1.4,2.2,0.9c-0.3-0.2-0.6-0.3-0.8-0.4c-0.3-0.2-0.3-0.3,0-0.5c0.5-0.3,1.3-0.2,1.7,0.2c0.1,0.1,0.1,0.3,0,0.3
		c-0.3,0.1-0.3,0.2-0.2,0.5c0.1,0.1-0.1,0.2-0.2,0.3c-0.6,0.2-1.1,0.6-1.7,0.8c-0.6,0.3-1.3,0.2-2,0.1c-0.2,0-0.5-0.2-0.6,0
		C21.7,37.2,22,37.4,22.2,37.6z M28.4,36.2c-0.1-0.4,0.1-0.4,0.5-0.4c0.1,0,0.4,0.1,0.6,0.2c0.3,0.1,0.4,0.3,0.3,0.6
		c-0.1,0.2-0.1,0.3,0,0.5c0.1,0.3,0,0.4-0.3,0.4c-0.2,0-0.4-0.1-0.6-0.2c-0.4-0.1-0.8-0.2-0.5-0.8C28.4,36.4,28.4,36.3,28.4,36.2z"
		/>
	<path fill="#FFFFFF" d="M34.9,28.2c1.1,0.1,2.2,0.1,3.3-0.1c0.2,0,0.4-0.1,0.4-0.2c0.1-0.1,0-0.4,0.3-0.4c0.2,0,0.2,0.3,0.3,0.5
		c0,0.1,0,0.3,0.1,0.4c0.1,0.5,0.4,0.7,0.7,0.4c0.5-0.4,1.1-0.7,1.6-1.1c0.1-0.1,0.3-0.2,0.3-0.3c0.2-0.7,0.7-0.9,1.3-1.1
		c0.2-0.1,0.3-0.1,0.3-0.3c0-0.7,0.1-1.3-0.2-2c-0.1-0.3-0.4-0.5-0.7-0.5s-0.4,0.2-0.6,0.4c-0.5,0.7-1.1,1.4-2.1,1.3
		c-0.1,0-0.1,0.1-0.2,0.1c-0.3,0.3-0.6,0.4-1,0.5c-0.5,0.1-0.9-0.1-1.4,0.1c-1.6,0.4-3.1,0.2-4.6-0.7c-0.1-0.1-0.3-0.2-0.2-0.4
		c0.1-0.2,0.4-0.1,0.5,0c0.3,0.2,0.5,0.4,0.8,0.5c0.9,0.3,1.8,0.3,2.7,0.2c0.2,0,0.3-0.1,0.3-0.3c-0.1-0.4,0-0.8,0.1-1.1
		c0.1-0.3,0-0.4-0.3-0.5c-0.6-0.1-1.2-0.4-1.7-0.7c-0.7-0.4-1.3-0.9-1.6-1.7c-0.1-0.2-0.1-0.4,0-0.5c0.2-0.1,0.3,0.1,0.4,0.3
		c0.4,0.9,1.1,1.4,2,1.8c0.5,0.2,1,0.3,1.5,0.4c0.4,0.1,0.7,0.2,1.1-0.1c0.3-0.2,0.5,0,0.6,0.5c0-0.5,0.5-0.7,0.7-1.1
		s0.4-0.8,0.5-1.2c0-0.1,0.1-0.2,0.2-0.1c0.1,0,0.1,0.2,0.1,0.3c0,0.4-0.1,0.7-0.3,1c-0.5,0.6-0.5,1.1-0.1,1.8
		c0.2,0.3,0.3,0.3,0.5,0.1c1.1-0.7,1.4-1.8,0.9-3c-0.4-1.1-1.3-1.8-1.7-2.9c-0.1-0.2-0.2-0.2-0.3-0.1s-0.2,0.2-0.3,0.3
		c-0.2,0.4-0.5,0.4-0.9,0.1c-0.5-0.3-0.9-0.7-1.2-1.2s-0.4-0.4-0.7,0c-0.4,0.6-0.9,1.2-1.7,1.4c-0.3,0.1-0.5,0-0.6-0.3
		c-0.2-0.4-0.3-0.8-0.5-1.2c-0.2-0.3-0.1-0.5,0.2-0.5c0.3-0.1,0.5-0.1,0.8-0.3c0.1,0,0.1-0.1,0.1-0.2s-0.1-0.1-0.2-0.1
		c-0.4-0.1-0.7-0.2-1.1-0.3c-0.2-0.1-0.3,0-0.5,0.2c-0.5,0.7-0.8,1.5-1.1,2.3c-0.6,1.7-1.2,3.4-1.1,5.3C31.4,26.3,32.9,28,34.9,28.2
		z"/>
	<path fill="#FFFFFF" d="M38.9,24.8c0.2,0,0.4,0,0.6-0.1c-0.1-0.1-0.2-0.1-0.3-0.1c-1-0.1-1.1-0.1-0.5-1c-0.9,0.3-1.2,0.8-1,1.4
		c0.1,0.4,1,0.5,1.7,0.2c-0.1,0-0.2,0-0.3,0c-0.2,0-0.4,0-0.4-0.2C38.5,24.8,38.7,24.9,38.9,24.8z"/>
	<path fill="#FFFFFF" d="M42.4,27.8c-0.1-0.1-0.2,0-0.2,0.1c-0.3,0.2-0.5,0.3-0.8,0.5c-0.2,0.1-0.4,0.2-0.2,0.5
		c0.2,0.2,0.4,0.2,0.6,0c0.2-0.2,0.4-0.4,0.7-0.5c0.1,0,0.1-0.1,0.1-0.2C42.5,28,42.5,27.9,42.4,27.8z"/>
	<path fill="#FFFFFF" d="M19.1,83.2c-0.9-0.7-1.9-1.2-2.8-2c-0.1-0.1-0.2-0.2-0.4-0.2c-0.3,0.1-0.6,0.3-0.9,0.4
		c-0.3,0.1-0.5,0.2-0.2,0.6c0.1,0.1,0.1,0.2,0.1,0.3c-0.3,0.6,0.2,1,0.6,1.2c0.3,0.2,0.5,0.4,0.5,0.8c0,0.3,0.1,0.4,0.4,0.3
		c0.9-0.3,1.8-0.6,2.7-1c0.1,0,0.3-0.1,0.3-0.2C19.3,83.3,19.2,83.2,19.1,83.2z"/>
	<path fill="#FFFFFF" d="M30.3,40.7c0.2-0.2,0.4-0.5,0.3-0.8c-0.2-0.3-0.3-0.6-0.5-1c0-0.1-0.1-0.2-0.2-0.2c-0.2,0-0.1,0.2-0.1,0.3
		c0,0.7,0,1.4-0.3,2.1C29.8,41,30.1,40.9,30.3,40.7z"/>
	<path fill="#FFFFFF" d="M30.5,51.5c3.1,2.4,6.8,3.2,10.6,3.1c2.5-0.1,4.7-1,6.5-2.7c0.8-0.7,1.4-1.6,1.8-2.7
		c-0.2,0.1-0.3,0.1-0.4,0.2c-1.2,0.6-2.9,0.1-3.6-1.1c-0.3-0.6-0.4-1.2-0.2-1.8s0.2-0.6-0.4-0.6c-0.7,0-1.3,0.1-2-0.3
		c-0.8-0.4-0.8-0.4-1,0.5c-0.3,1.8-2.1,3.3-3.8,3.2c-1.9-0.1-3.4-1.7-3-3.7c0-0.2,0.1-0.4-0.3-0.3c-1.4,0.3-2.7,0-4.1-0.3
		c-1.2-0.3-2.5-0.5-3.8-0.4c-0.5,0-0.6,0.1-0.5,0.6C27.1,47.7,28.4,49.9,30.5,51.5z M44.3,53c-0.6,0.2-1.3,0.2-1.9,0.2
		c-0.4,0-0.8,0-1.2-0.1c-0.2,0-0.3-0.1-0.3-0.3s0.2-0.2,0.4-0.2c1,0.1,1.9,0,2.9-0.2c0.2,0,0.3,0,0.4,0.2C44.6,52.9,44.4,53,44.3,53
		z M39.9,50.4c0.6-0.3,1-0.7,1.6-1c0.1-0.1,0.3-0.2,0.4,0c0.1,0.2,0,0.3-0.1,0.4c-0.4,0.3-0.8,0.5-1.2,0.8c-0.1,0.1-0.2,0.1-0.2,0.2
		c0,0.2,0.2,0.2,0.3,0.2c1,0.3,2.1,0.3,3,0.4c1.1,0,2-0.1,2.8-0.3c0.1,0,0.4,0,0.4-0.2s-0.2-0.3-0.3-0.3c-0.2-0.1-0.4-0.2-0.6-0.3
		c-1.1-0.4-1.5-1.3-1.6-2.3c0-0.1-0.1-0.3,0.1-0.4c0.2-0.1,0.2,0.1,0.3,0.3c0.1,0.1,0.1,0.3,0.1,0.5c0.1,0.8,0.6,1.3,1.3,1.6
		c0.3,0.1,0.6,0.3,0.8,0.4c0.2,0.1,0.4,0.3,0.4,0.6s-0.2,0.5-0.5,0.6c-0.3,0.2-0.7,0.2-1.1,0.3c-1.7,0.3-3.5,0.1-5.2-0.1
		c-0.3,0-0.6-0.2-0.8-0.4C39.5,50.9,39.5,50.6,39.9,50.4z M27.9,47.9c-0.4-0.8-0.5-1.7-0.3-2.6c0-0.1,0.1-0.2,0.1-0.4
		c0.1-0.1,0.1-0.2,0.3-0.2c0.2,0,0.1,0.2,0.1,0.3c-0.1,0.7-0.1,1.4,0.1,2.1c0.2,0.6,0.4,1.1,1,1.4c0.1,0.1,0.2,0.2,0.4,0
		c0.1-0.1,0-0.2,0-0.3s0-0.2-0.1-0.2c0-0.1,0-0.3,0.2-0.3s0.2,0.1,0.3,0.2c0.1,0.1,0.1,0.3,0.1,0.4c0,0.7-0.5,1-1.1,0.7
		C28.6,48.8,28.2,48.4,27.9,47.9z"/>
	<path fill="#FFFFFF" d="M38.7,45.1c-0.7-0.1-1.4-0.2-2.1-0.4c-0.2,0-0.3,0-0.5,0.1c-0.4,0.5-0.7,1.1-0.6,1.8c0.3,2,2.9,2.8,4.4,1.6
		c-1,0-1.4-0.4-1.5-1.3c0-0.5,0.1-1,0.4-1.4C39.1,45.2,39,45.1,38.7,45.1z"/>
	<path fill="#FFFFFF" d="M28.5,71.7c-0.2-0.1-0.4-0.1-0.5,0c-0.8,0.6-1.8,0.9-2.7,1.4c-0.9,0.5-0.9,0.5-0.5,1.4
		c0,0.1,0.1,0.2,0.1,0.3c0.3,0.6,0.5,1.3,1,1.9c0-0.9-0.1-1.7-0.2-2.4c0-0.2-0.1-0.4,0.2-0.4c0.2,0,0.3,0.1,0.3,0.3
		c0.2,0.6,0.4,1.2,0.7,1.8c0.1,0.2,0.1,0.4,0.3,0.7c-0.1-0.9,0-1.7-0.4-2.5c-0.1-0.2-0.2-0.5,0.1-0.6c0.3-0.1,0.3,0.2,0.4,0.3
		c0.2,0.5,0.4,1,0.6,1.6c0.1,0.3,0.2,0.7,0.5,1c0-0.2,0-0.5,0-0.7c-0.1-0.7-0.3-1.4-0.5-2.1c0-0.2,0-0.4,0.2-0.5s0.3,0.1,0.4,0.3
		c0.3,0.6,0.5,1.2,0.8,1.8c0.1,0.3,0.3,0.7,0.4,1c0.1-0.5,0.1-0.9,0-1.3c-0.1-0.7-0.4-1.4-0.7-2.1c-0.1-0.1-0.1-0.3,0-0.4
		s0.3,0,0.4,0.1s0.1,0.1,0.1,0.2c0.3,0.7,0.9,0.8,1.6,1.1C31,73.7,31,73.7,31,73.6C30.2,72.8,29.3,72.2,28.5,71.7z"/>
	<path fill="#FFFFFF" d="M27,44c1.3,0,2.6,0.1,3.9,0.5c1,0.3,2,0.4,3.1,0.4c0.6,0,1.1-0.2,1.5-0.6c0.2-0.2,0.5-0.3,0.8-0.2
		c1.8,0.5,3.6,0.5,5.4,0.5c0.3,0,0.5,0.1,0.7,0.2c0.7,0.3,1.4,0.7,2.2,0.6c0.2,0,0.5,0,0.8,0c1.4,0.2,2.8,0.1,4.2-0.6
		c1.5-0.7,3-1.4,4.5-2.1c0.8-0.4,1.6-0.7,2.4-1.1c-0.4-0.4-0.9-0.5-1.4-0.6c-2-0.3-4-0.5-6-0.8c-0.3,0-0.4,0.1-0.2,0.3
		c0,0.1,0.1,0.1,0.1,0.2c0.1,0.2,0.2,0.4,0.1,0.6c-0.2,0.2-0.4,0-0.6,0c-0.2-0.1-0.4-0.2-0.5-0.2c-0.5-0.2-0.9-0.2-1.4-0.1
		c0.2,0.3,0.4,0.4,0.6,0.5c0.2,0.1,0.4,0.1,0.3,0.3c0,0.2-0.2,0.3-0.4,0.3c-1,0.4-2,0.7-3.1,0.7c-0.7,0-1.4-0.1-2-0.6
		c0,0.3,0.1,0.5,0.2,0.7c0.1,0.2,0.3,0.4,0.1,0.6c-0.2,0.2-0.4,0.2-0.7,0.1c-0.2,0-0.4-0.1-0.6-0.3c-0.2-0.1-0.3-0.3-0.6-0.3
		c0,0.2,0.1,0.4-0.1,0.5c-0.2,0.1-0.4-0.1-0.5-0.2c-0.2-0.1-0.4-0.3-0.6-0.5c0,0.6-0.3,0.5-0.6,0.2c-0.4,0-0.6-0.3-0.6-0.7
		c0-0.2-0.1-0.2-0.3-0.2c-0.9,0.1-1.5-0.3-1.9-1.1c-0.1-0.2-0.2-0.2-0.3,0c-0.1,0.1-0.1,0.2-0.2,0.3c-0.4,0.9-1.1,1.3-2,1.3
		c-0.7,0-1.3,0-2,0.2c-0.2,0-0.3,0.1-0.4-0.1c-0.1-0.1,0-0.3,0.1-0.4c0.2-0.3,0.5-0.6,0.7-1c0.1-0.2,0.1-0.3-0.1-0.4
		c-0.1-0.1-0.2-0.2-0.4-0.3c-0.1-0.1-0.2-0.1-0.3,0.1c-0.4,0.6-1,0.8-1.6,1c-0.2,0.1-0.5,0.2-0.7-0.1c-0.2-0.2,0.1-0.4,0.2-0.6
		c0.4-0.6,0.5-1.3,0.2-2.2c-0.2,0.4-0.3,0.7-0.4,0.9c-0.1,0.3-0.3,0.6-0.6,0.7c-0.2,0.1-0.3,0.2-0.5,0c-0.1-0.1,0-0.3,0.1-0.4
		c0.1-0.3,0.3-0.5,0.4-0.8c0.1-0.4,0.2-0.8,0.1-1.2c-0.2,0.1-0.2,0.2-0.2,0.4c-0.3,0.7-0.7,1.3-1.3,1.7c-0.9,0.7-1.8,1.2-2.9,0.8
		c-0.3,0.1-0.7,0-0.7-0.3c0-0.3,0.4-0.4,0.7-0.5c0.5-0.1,1-0.3,1.5-0.6c0.2-0.2,0.6-0.4,0.4-0.6c-0.1-0.2-0.6-0.1-0.8,0.1
		c-0.4,0.3-0.8,0.5-1.1,0.8c-0.1,0.1-0.3,0.3-0.5,0.1s0-0.4,0.1-0.5l0.1-0.1c0.1-0.1,0.2-0.1,0.2-0.2c0-0.2-0.2-0.1-0.3-0.2
		c-0.2-0.1-0.5-0.2-0.7-0.3s-0.3-0.1-0.5,0c-0.9,0.4-1.9,0.3-2.9,0.2c-0.7-0.1-1.3-0.2-2-0.3c-0.1,0-0.2-0.1-0.3,0.1
		c0,0.1,0.1,0.2,0.1,0.2c1.1,1.2,2.1,2.3,3.3,3.4c1.4,1.2,3,1.7,4.8,1.4c0.5-0.1,1-0.1,1.5,0C27.2,43.4,27.2,43.6,27,44z"/>
	<path fill="#FFFFFF" d="M42.2,38.9c-0.7,0.5-1.1,1.1-1,2c0,0.1,0.1,0.3-0.1,0.4c-0.2,0-0.2-0.1-0.3-0.3c0-0.1,0-0.3-0.1-0.4
		c0-0.1,0.1-0.3-0.1-0.3c-0.1,0-0.2,0.1-0.4,0.1c-0.2,0.1-0.2,0.3-0.3,0.4c-0.3,0.8,0.4,2,1.3,2.3c0.3,0.1,0.3-0.1,0.2-0.3
		c-0.1-0.4-0.1-0.8-0.1-1.1c0-0.1,0.1-0.3,0.2-0.3c0.2,0,0.2,0.1,0.3,0.2c0.2,0.4,0.4,0.6,0.8,0.7c1.2,0.3,2.3,0.2,3.4-0.2
		c0.2-0.1,0.3-0.2,0.1-0.4c-0.2-0.3-0.5-0.5-0.7-0.8C44.9,40,43.9,40,43,39.8c-0.3-0.1-0.3,0.1-0.2,0.3c0.2,0.3,0.4,0.6,0.7,0.8
		c0.1,0.1,0.3,0.1,0.2,0.3s-0.3,0.2-0.4,0.1c-0.2,0-0.3-0.1-0.4-0.2c-0.2-0.2-0.3-0.4-0.5-0.7c0.1,0.3,0.2,0.5,0.2,0.7
		c0,0.1,0,0.2-0.1,0.3s-0.2,0-0.3-0.1c-0.5-0.5-0.5-1.5,0-2C42.2,39.3,42.1,39.2,42.2,38.9z"/>
	<path fill="#FFFFFF" d="M47.4,38.8c-0.1,0.1-0.1,0.1,0,0.2c0.3,0.2,0.5,0.6,0.9,0.6c0.8-0.2,1.6-0.3,2.2-0.8c-0.5,0-1,0.1-1.5,0.1
		c-0.4,0-0.7-0.1-1.1-0.2C47.7,38.6,47.6,38.7,47.4,38.8z"/>
	<path fill="#FFFFFF" d="M48,45.9C47.6,46,47.2,46,46.8,46c-0.7,0-1,0.2-1.1,0.9c-0.1,0.6,0.1,1.2,0.6,1.6c1,0.9,2.3,0.8,3.3-0.2
		c-0.9,0.3-1.4,0-1.5-0.9c-0.1-0.4,0-0.8,0.2-1.2C48.4,46,48.3,45.9,48,45.9z"/>
	<path fill="#FFFFFF" d="M36,55.3c0-0.1-0.2-0.1-0.3-0.2c-1.4-0.5-2.8-1-3.9-2.1c-0.7-0.7-1.7-1.2-2.4-1.9C29.2,51,29.1,51,29,51.3
		c-0.1,0.5-0.2,0.9,0.3,1.3c0.9,0.8,1.9,1.6,2.9,2.2c0.9,0.5,1.8,0.8,2.7,0.9c0.4,0,0.7,0,0.9-0.1C35.9,55.5,36,55.5,36,55.3z"/>
	<path fill="#FFFFFF" d="M42.3,55c-0.1-0.1-0.2,0.1-0.2,0.2c0,0.2-0.2,0.4-0.3,0.7c-1,1.7-2.4,3-3.9,4.2c-0.1,0.1-0.2,0.1-0.2,0.1
		c-0.1,0.1-0.3,0.1-0.4,0c-0.1-0.1,0-0.2,0.1-0.3c0.2-0.2,0.4-0.4,0.7-0.6c1-0.8,1.9-1.8,2.7-2.9c-0.2,0.1-0.4,0.2-0.5,0.3
		c-1.2,1-2.7,1.8-4.2,2.3H36c-0.1,0-0.3,0-0.3-0.1c-0.1-0.2,0.1-0.2,0.2-0.3c0.2-0.1,0.5-0.2,0.7-0.3c1.6-0.7,3.1-1.6,4.3-2.9
		c0.1-0.1,0.3-0.2,0.2-0.3s-0.3-0.1-0.4,0c-0.1,0.1-0.2,0.2-0.3,0.3c-0.4,0.4-0.9,0.8-1.4,1.2c-1.3,0.9-2.7,1.7-4.2,2.1
		c-0.1,0-0.3,0.1-0.4-0.1c-0.1-0.2,0.2-0.2,0.3-0.3c1-0.4,2-0.9,3-1.4c0.7-0.4,1.4-0.9,2-1.4c0.1-0.1,0.3-0.3,0-0.3
		c-1.2-0.3-2.3-0.4-3.3,0.6c-0.5,0.5-1.1,0.8-1.8,1.1c-0.8,0.4-1.7,0.7-2.6,1c0.4,0.3,0.2,0.5,0,0.6c-0.2,0.1-0.5,0.3-0.8,0.4
		c-0.4,0.2-0.8,0.3-1.2,0.7c0.6,0.1,1,0.1,1.4,0.1c0.6,0.1,1.1-0.1,1.7-0.1c0.2,0,0.3,0,0.4,0.2c0.1,0.2-0.1,0.3-0.2,0.4
		c-0.1,0.1-0.3,0.1-0.3,0.3c0.2,0.1,0.4,0,0.6,0c0.8-0.1,1.7-0.2,2.5-0.6c0.2-0.1,0.4-0.2,0.5,0s-0.1,0.4-0.2,0.5
		c-0.1,0.1-0.2,0.1-0.3,0.2c-0.3,0.1-0.6,0.3-0.8,0.6c0.5,0.1,1,0,1.4-0.2c2.1-0.6,3.7-2.1,5-3.8c0.4-0.6,0.8-1.2,1.1-1.9
		C42.3,55.2,42.4,55.1,42.3,55z"/>
	<path fill="#FFFFFF" d="M42.1,35.3c0-0.1,0-0.2-0.1-0.2s-0.2,0-0.2,0.1c-0.6,0.7-1.2,1.4-1.5,2.3c0,0.2-0.1,0.3-0.1,0.5
		c0,0.1,0.1,0.3,0.3,0.3c0.3,0,0.1-0.2,0.1-0.3c0-0.7,0.1-1.4,0.6-2c0.1-0.2,0.4-0.3,0.5-0.1c0.2,0.2-0.1,0.3-0.2,0.4
		c-0.5,0.6-0.6,1.3-0.4,2c0.1,0.2,0.1,0.5,0.4,0.5c0.1,0,0.6-0.6,0.6-0.7c-0.1-0.5,0-1,0-1.3C42.1,36.2,42.1,35.8,42.1,35.3z"/>
	<path fill="#FFFFFF" d="M42.7,37.8c0.2,0.1,0.4,0,0.5,0c0.6-0.1,1.1-0.2,1.7-0.3c0.2,0,0.4,0,0.4,0.2S45.1,37.9,45,38
		c-0.1,0-0.3,0-0.4,0c-0.8,0.1-1.7,0.2-2.4,0.8c0.6-0.3,1.3-0.2,2-0.4c0.6-0.1,1.2-0.2,1.7-0.6c0.1-0.1,0.2-0.1,0.3,0s0,0.2,0,0.3
		c-0.2,0.2-0.4,0.3-0.6,0.4c-0.9,0.3-1.8,0.4-2.7,0.6c-0.1,0-0.2,0-0.4,0.1c0.5,0.1,1,0.2,1.4,0.3c1.4,0.1,2.7-0.4,3.6-1.6
		c0.6-0.8,0.7-0.8-0.3-1c-1.3-0.3-2.6-0.4-3.8,0.3C43.1,37.4,42.9,37.6,42.7,37.8z"/>
	<path fill="#FFFFFF" d="M40.3,12.9c0.9,0,1.6-0.5,1.6-1.2c0-0.2,0-0.4-0.3-0.4s-0.3,0.2-0.3,0.4c0,0.4-0.1,0.6-0.4,0.8
		c-0.3,0.1-0.7,0.1-1-0.1c-0.1-0.1-0.2-0.1-0.3-0.2c-0.1-0.1-0.3-0.2-0.5,0c-0.1,0.2-0.1,0.3,0.1,0.5C39.6,12.8,39.9,12.9,40.3,12.9
		z"/>
	<path fill="#FFFFFF" d="M38.4,16.9c0.1,0.1,0.3,0.3,0.1,0.4c-0.2,0.2-0.4,0-0.5-0.2c-0.2-0.5-0.5-0.4-0.9-0.3
		c-0.3,0.1-0.8-0.1-0.9,0.4c-0.1,0.2-0.2,0.4-0.5,0.5c-0.1,0-0.3,0.1-0.4,0c-0.1-0.1,0.1-0.2,0.1-0.3c0.1-0.2,0.3-0.3,0.3-0.5
		c-0.3,0.4-0.7,0.6-1.1,0.8c-0.2,0.1-0.2,0.2-0.1,0.4c0.1,0.1,0.1,0.3,0.2,0.4c0.1,0.3,0.3,0.4,0.6,0.2c0.5-0.3,0.9-0.8,1.2-1.4
		c0.1-0.2,0.2-0.4,0.5-0.4s0.5,0.2,0.6,0.4c0.3,0.5,0.6,0.9,1.1,1.2c0.2,0.1,0.3,0.2,0.5,0c0.2-0.3,0.5-0.4,0.5-0.8l-0.1-0.1
		c-0.5-0.3-0.9-0.5-1.3-0.9C38.3,16.8,38.4,16.9,38.4,16.9z"/>
	<path fill="#FFFFFF" d="M37.1,39.9c0.8,0.3,1.6,0.3,2.4,0.2c0.5-0.1,0.9-0.3,1.3-0.6c0.3-0.2,0.3-0.4-0.1-0.5
		c-0.4-0.2-0.8-0.3-1.2-0.3c-0.6,0-1.1,0-1.7,0.1c-0.2,0-0.4,0-0.5-0.2c0-0.2,0.2-0.3,0.4-0.3c0.5-0.1,0.9-0.4,1.3-0.6
		c0.3-0.2,0.5-0.5,0.5-0.8c0-0.2,0-0.3-0.2-0.3c-0.6,0.1-1.2,0.3-1.8,0.7c-0.4,0.2-0.2,0.6-0.3,0.9c-0.1,0.2-0.1,0.5-0.4,0.4
		c-0.3-0.1-0.1-0.3-0.1-0.5c0.2-0.6,0-1.1-0.5-1.4c-0.3-0.2-0.5-0.4-0.8-0.7c-0.7-0.6-0.7-0.6-1.2,0.1c-0.7,0.9-0.4,2.1,0.6,2.6
		c0.2,0.1,0.7,0.1,0.5,0.5c-0.2,0.3-0.5,0.1-0.8-0.1c-0.2-0.1-0.3-0.2-0.5-0.3c-0.1-0.1-0.3-0.2-0.5-0.3c-1-0.5-1.9-0.2-2.9,0.1
		c-0.2,0.1-0.4,0.2-0.2,0.4c0.5,0.6,0.8,1.3,1.5,1.6c1.3,0.6,2.6,0.4,3.6-0.7c-0.7-0.1-1.3,0.1-1.8-0.1c-0.1,0-0.3-0.1-0.3-0.3
		c0-0.1,0.2-0.1,0.3-0.1c0.5,0,1,0,1.5,0c0.2,0,0.4,0.1,0.5-0.1c0.1-0.1-0.1-0.3-0.2-0.4c-0.3-0.3-0.5-0.7-0.8-1
		c-0.1-0.2-0.2-0.4,0-0.5s0.3,0.1,0.4,0.2c0.5,0.5,0.8,1.2,1.4,1.6c0.1,0.1,0.1,0.2,0.1,0.3C36.7,39.8,36.9,39.8,37.1,39.9z"/>
	<path fill="#FFFFFF" d="M35.2,11.8c-0.2,0-0.3,0.1-0.4,0.2c-0.3,0.5-0.8,0.6-1.3,0.4c-0.4-0.2-0.6-0.5-0.5-1
		c-0.6,0.2-0.7,0.6-0.3,0.9c0.5,0.6,2.2,0.7,2.7,0.1c0.1-0.1,0.3-0.3,0.2-0.5C35.5,11.8,35.4,11.8,35.2,11.8z"/>
	<path fill="#FFFFFF" d="M69.7,46.6c-1.2,0.6-2,2.3-1.5,3.6c0.3,0.8,0.9,1.2,1.6,1.2c1.4-0.1,2.5-1.3,2.5-2.7c0-0.1,0-0.2,0-0.3
		C72.2,46.8,71,46,69.7,46.6z M70,50c-0.5,0.5-1.3,0.4-1.7-0.3c-0.3-0.7-0.1-1.8,0.5-2.2c0.3-0.2,0.7-0.3,1.1-0.1s0.6,0.6,0.6,1.2
		C70.6,49.1,70.4,49.6,70,50z"/>
	<path fill="#FFFFFF" d="M45.3,93.7c1.7-1.5,2.7-3.5,3.4-5.6c0.1-0.2,0-0.3,0-0.5c-0.2-0.3-0.4-0.6-0.6-1c-0.2,0.3-0.2,0.5-0.2,0.8
		c-0.5,2.3-1.4,4.3-3.3,5.9c-0.1,0.1-0.3,0.2-0.2,0.3c0.1,0.2,0.3,0.4,0.6,0.3C45,93.9,45.1,93.8,45.3,93.7z"/>
	<path fill="#FFFFFF" d="M81.8,54.9c0.9-3,1.8-6,2-9.2c0-0.3,0.1-0.6,0-0.7c-0.3-0.3-0.2-0.5,0-0.8c1.5-1.9,2.3-3.9,2.4-6.3
		c0-0.3,0.3-0.7,0-0.9c-0.3-0.1-0.6,0.2-0.9,0.5c-1.3,1.1-2.3,2.3-3.2,3.7c-0.1,0.1-0.2,0.3-0.3,0.4c-0.1,0.1-0.2,0.1-0.3,0.1
		c-0.1-0.1-0.1-0.2-0.1-0.3c0.2-0.3,0-0.5-0.2-0.7c-0.6-0.4-1.2-0.7-1.9-0.8c-0.3-0.1-0.6-0.1-0.8-0.2c-0.1,0-0.2-0.1-0.2-0.2
		c0-0.1,0.1-0.2,0.2-0.2c0.2,0,0.3-0.1,0.4-0.3c0.5-1.6,0.8-3.2,0.7-4.9c0-0.3-0.1-0.4-0.4-0.3c-1.2,0.5-1.9,1.6-2.5,2.7
		c0.3-0.3,0.5-0.6,0.7-0.9c0.1-0.1,0.3-0.2,0.4-0.1c0.1,0.1,0.2,0.2,0.2,0.3c-0.2,1.4-0.5,2.7-1.1,4c-0.1,0.1-0.2,0.3-0.4,0.2
		c-0.2-0.1-0.1-0.3,0-0.5c0.4-0.8,0.6-1.6,0.8-2.4c0-0.1,0.1-0.3,0-0.5c-0.4,0.6-0.8,1.1-1,1.8c-0.1,0.2-0.1,0.4-0.3,0.4
		c-0.3,0-0.1-0.3-0.2-0.5c-0.1,0.3-0.2,0.5-0.3,0.8c-0.1,0.1-0.1,0.2,0.1,0.3c0.3,0.2,0.1,0.4-0.1,0.5c-1.7,0.9-3.1,2.1-4.3,3.5
		c-2,2.4-4.2,4.7-6.5,6.8c-0.8,0.7-1.6,1.2-2.6,1.3c-0.8,0.1-1.6,0.2-2.4,0.6c-3.2,1.5-3.9,4.9-2.9,7.2c1.1,2.6,3,4.5,5.7,5.4
		c5,1.7,9.7,0.9,14.1-2c0.2-0.2,0.6-0.5,0.7-0.2c0.2,0.3-0.2,0.5-0.4,0.7c-3.7,2.5-7.7,3.5-12.1,2.7c-2.5-0.4-4.8-1.4-6.6-3.3
		c-0.2-0.2-0.3-0.2-0.5-0.1c-0.9,0.6-1.9,1.2-2.7,1.9c0,0-0.1,0.1,0,0.2c0.4,0.1,0.8,0.1,1.2,0.2c0.1,0,0.3,0.1,0.3,0.3
		c0,0.2-0.2,0.2-0.4,0.2c-0.4-0.1-0.8-0.2-1.1-0.1c-0.8,0-1.6,0.2-2.4,0.3c-1.2,0.2-2.3,0.8-3,1.8c-0.4,0.5-0.7,1-1.1,1.5
		c-1.3,1.8-2.2,3.7-2.9,5.7c-0.1,0.4-0.2,0.8-0.1,1.3c0.3-0.2,0.3-0.5,0.3-0.7c0.1-0.5,0.3-0.9,0.6-1.3c0.1-0.1,0.2-0.3,0.4-0.2
		c0.2,0.1,0.1,0.3,0,0.4c-0.1,0.2-0.2,0.3-0.3,0.5C46.2,75,46,75.6,46,76.2c0,0.2,0,0.4,0.3,0.4c0.2,0,0.5-0.1,0.6-0.4
		c0-0.1,0-0.2,0.1-0.3c0.1-0.7,0.5-1.3,0.8-1.9c0.1-0.2,0.2-0.4,0.4-0.3s0.1,0.3,0,0.5c-0.1,0.1-0.2,0.3-0.2,0.4
		c-0.4,0.7-0.6,1.4-0.6,2.2c0,0.2,0,0.3,0.2,0.4c0.2,0,0.4,0,0.5-0.2c0.1-0.1,0.1-0.3,0.1-0.4c0.1-0.6,0.4-1.2,0.6-1.8
		c0.1-0.2,0.2-0.3,0.4-0.2c0.2,0.1,0.1,0.3,0.1,0.5c-0.1,0.1-0.1,0.2-0.2,0.4c-0.3,0.6-0.4,1.2-0.3,1.9c0.1,0.3,0.2,0.4,0.5,0.4
		s0.2-0.3,0.2-0.4c0-0.2,0-0.3,0.1-0.5c0.1-0.6,0.3-1.2,0.7-1.6c0.2-0.2,0.4-0.2,0.7,0c0.4,0.4,0.9,0.9,1.2,1.5
		c0.1-0.3,0.1-0.5,0-0.7c-0.1-0.5-0.2-0.9-0.3-1.4c-0.1-0.6,0.1-1.2,0.6-1.6c1.3-1,2.9-1.7,4.5-2.1c0.1,0,0.3,0,0.4,0
		c0.1,0,0.3,0.1,0.3,0.2s-0.1,0.2-0.2,0.2c-0.3,0.1-0.6,0.2-0.9,0.3c-1.3,0.4-2.6,1-3.7,1.8c-0.3,0.2-0.4,0.5-0.4,1
		c0.1,0.6,0.3,1.3,0.4,1.9c0,0.3,0.1,0.6-0.1,0.8c-0.2,0.2-0.2,0.5-0.2,0.7c0,0.3,0.1,0.7-0.2,1c-0.4,0.2-0.6-0.2-0.9-0.4
		c0,0.3,0,0.5-0.1,0.7c0,0.2-0.2,0.4-0.4,0.4s-0.4-0.1-0.5-0.3c-0.1-0.2-0.2-0.4-0.3-0.6c-0.1-0.3-0.3-0.4-0.6-0.4
		c-0.4,0-0.7-0.1-1-0.4c-0.5-0.4-0.8-0.3-1,0.3c-0.5,2.3-0.4,4.6,0.5,6.7c0.9,2.2,2.2,4,4.2,5.3c0.3,0.2,0.3,0.4,0.2,0.7
		C52.2,92,52,93.1,52,94.3c0,0.6,0.2,0.9,0.8,1.1c0.4,0.1,0.8,0.2,1.2,0.2c1.9,0.3,3.8,0.4,5.8,0.5c1,0,2.1,0.3,3.1,0
		c0.3-0.1,0.8-0.1,0.9-0.5c0-0.4-0.5-0.4-0.8-0.5c-0.9-0.3-1.8-0.6-2.8-0.9c-0.4-0.1-0.5-0.3-0.3-0.7c0.2-0.6,0.5-1.2,0.8-1.7
		c0.7-1.2,0.4-2.3-0.7-3.1c-0.6-0.4-1.1-0.8-1.8-1.1c-0.4-0.2-0.9-0.4-1.3-0.7c-0.1-0.1-0.4-0.2-0.3-0.4c0.1-0.2,0.3-0.1,0.5,0
		c1.1,0.6,2.3,1.2,3.3,2c0.5,0.4,0.9,0.9,0.9,1.6c0.1,0.4,0.2,0.5,0.5,0.4c1,0,1.9-0.2,2.8-0.5c0.6-0.2,1.2-0.4,1.7-0.7
		c0.2-0.1,0.6-0.3,0.7,0s-0.2,0.4-0.5,0.5c0,0-0.1,0-0.1,0.1c-0.7,0.3-1.5,0.5-2.3,0.7c-0.2,0.1-0.5,0.1-0.7,0.3c1,0.2,2,0.5,3,0.4
		c0.5,0,0.8,0.2,0.9,0.6c0.2,0.8,0.5,1.7,0.7,2.5c0.4,1.4,0.7,1.8,2.3,1c1.1-0.5,2.1-1.2,3.2-1.7c1.4-0.8,2.8-1.6,4.1-2.6
		c0.2-0.1,0.5-0.3,0.4-0.6c-0.1-0.3-0.4-0.2-0.7-0.2c-0.2,0-0.4,0-0.7,0.1c-0.7,0.1-1.4,0.4-2.1,0.7c-0.4,0.1-0.7,0.3-1.1,0.4
		c-0.1,0-0.3,0.1-0.4-0.1s0.1-0.3,0.2-0.3c0.3-0.1,0.4-0.4,0.4-0.7c0-0.9,0-1.7-0.1-2.6c0-0.5-0.1-1-0.5-1.4c-0.5-0.5-0.9-0.5-1.4,0
		c-0.4,0.5-0.9,0.9-1.4,1.3c-0.1,0.1-0.3,0.2-0.5,0.1c-0.1-0.2,0-0.3,0.1-0.5l0.1-0.1c0.7-0.5,1.2-1.2,1.8-1.8
		c2.2-2.6,3.4-5.7,4.4-9c0.7-2.2,0.6-4.5,0.8-6.8c0.2-2.1,0.5-4.1,1.3-6.1C79.5,60.7,80.9,57.9,81.8,54.9z M82.8,41.9
		c0.8-0.9,1.5-2,2.2-3c0.1-0.2,0.2-0.3,0.4-0.2c0.2,0.1,0.3,0.3,0.2,0.4c0,0.3-0.1,0.6-0.2,0.9c-0.4,1.1-0.9,2.1-1.5,3.1
		c-0.2,0.2-0.4,0.6-0.7,0.4c-0.3-0.2,0.1-0.5,0.3-0.7c0.7-0.9,1.1-1.9,1.4-3c-0.6,0.7-1,1.4-1.5,2c-0.1,0.1-0.1,0.2-0.2,0.2
		c-0.1,0.1-0.3,0.3-0.4,0.1C82.6,42.2,82.7,42,82.8,41.9z M79.3,44.6c0.3-0.2,0.7-0.2,1,0c0.6,0.4,1,0.9,1.1,1.6
		c0,0.1,0,0.2-0.1,0.3c0,0.1-0.1,0.2-0.2,0.2S81,46.6,81,46.5c0-0.3-0.2-0.6-0.3-0.8c-0.3-0.6-0.6-0.7-1.2-0.6c-0.1,0-0.4,0.2-0.4,0
		C78.9,44.8,79.1,44.6,79.3,44.6z M65.4,51.7c0-0.1,0.1-0.1,0.2-0.1c1.8,0.2,3.3,1,4.6,2.1c0.1,0.1,0.1,0.1,0.1,0.2
		c0,0.2-0.1,0.2-0.2,0.2C70,54,69.8,54,69.7,53.9c-1.1-1-2.4-1.5-3.8-1.9c-0.1,0-0.2-0.1-0.3-0.1C65.4,51.8,65.3,51.8,65.4,51.7z
		 M71.5,56.6c-0.2,0.2-0.3,0-0.5-0.1c-0.7-0.6-1.4-1.2-2.1-1.7c-1.5-1.1-3.2-1.7-5-2.2c-0.2-0.1-0.4,0-0.7-0.1c-0.2,0-0.4,0-0.4-0.2
		s0.2-0.2,0.4-0.2c0.1,0,0.1,0,0.3,0c1,0.1,2.1,0.5,3.1,1c1.8,0.7,3.3,1.8,4.7,3.2C71.4,56.3,71.6,56.5,71.5,56.6z M69.7,51.8
		c-0.7,0-1.2-0.3-1.6-0.9c-1-1.7-0.5-3.7,1.3-4.7c1.6-0.9,3.6,0.3,3.6,2.3C72.9,50.4,71.5,51.6,69.7,51.8z M73.4,43.6
		c-0.1,0.1-0.3,0.3-0.5,0.2c-0.2-0.2,0.1-0.4,0.2-0.5c0.5-0.5,1.1-0.8,1.7-0.8s1.1,0.4,1.3,0.9c0,0.1,0.2,0.3,0,0.4
		c-0.2,0.1-0.3,0-0.4-0.2c-0.2-0.4-0.6-0.6-1-0.6C74.1,43,73.7,43.3,73.4,43.6z M75.2,54.6c-0.9-1.5-0.6-4.4,2-4.9
		c1.6-0.3,2.8,0.7,2.8,2.4c-0.1,1.3-0.7,2.4-1.9,3.1C77,55.9,75.9,55.7,75.2,54.6z"/>
	<path fill="#FFFFFF" d="M50.6,76.5c0.3,0.3,0.4,0.7,0.7,1.1c0.1,0.2,0.2,0.4,0.4,0.5c0-0.8-0.5-1.8-1.1-2.2
		c-0.2-0.1-0.3-0.1-0.4,0.1c-0.1,0.1-0.1,0.3-0.2,0.4C50.2,76.2,50.4,76.3,50.6,76.5z"/>
	<path fill="#FFFFFF" d="M79.3,51.1c-0.2-0.7-0.8-1-1.5-1c-1.1,0-1.9,0.5-2.3,1.6c0.2-0.2,0.4-0.5,0.7-0.6c0.8-0.4,1.6,0.1,1.6,1
		c0,0.7-0.5,1.4-1.2,1.7c-0.5,0.2-0.9,0-1.2-0.5c-0.1-0.3-0.2-0.6-0.2-0.9c0.1-0.2,0.1-0.4,0.2-0.6c-0.1,0.2-0.1,0.4-0.2,0.6
		c-0.1,0.4-0.1,0.9,0,1.3c0.2,1,1,1.9,2.1,1.5C79.1,54.4,79.7,52.6,79.3,51.1z"/>
	<path fill="#FFFFFF" d="M50.6,79c0-0.5-0.1-1-0.3-1.4c-0.1-0.4-0.3-0.7-0.3-1.1C49.6,77.2,49.9,78.5,50.6,79z"/>
	<path fill="#FFFFFF" d="M89.9,62.7c-1.1-0.6-2.3-0.9-3.5-1.1c-0.3-0.1-0.6-0.1-0.7,0.3c0,0.2-0.2,0.4-0.4,0.3
		c-0.2-0.1-0.1-0.3,0-0.5c0.2-0.7,0.4-1.3,0.4-2c0.1-0.5,0-1-0.3-1.4c-0.1-0.1-0.2-0.2-0.3-0.1c-0.1,0-0.1,0.2-0.1,0.3
		c-0.1,1.3-0.9,2.3-1.4,3.4c0,0.1-0.2,0.2-0.3,0.3c-1.2,0.8-2.4,1.6-3.8,2c-0.8,0.2-1.2,0.7-1.3,1.5v0.1c-0.5,2.1-0.6,4.2-0.8,6.3
		c0,0.5-0.1,1.1-0.1,1.6c0,0.3,0.1,0.3,0.3,0.1c0.1-0.1,0.2-0.1,0.2-0.2c1.5-1.4,3-2.8,4.5-4.2c0.9-0.8,1.8-1.6,2.9-2.2
		c0.4-0.2,0.8-0.1,1.1,0.2c0.1,0.1,0.2,0.3,0.4,0.4c0.4,0.5,1,0.8,1.5,1.2c-0.1-0.1-0.1-0.3-0.2-0.4c-0.5-0.9-1.2-1.6-1.7-2.5
		c-0.1-0.1-0.2-0.2-0.1-0.4c0.1-0.1,0.3-0.1,0.4,0c0.5,0.3,0.9,0.7,1.4,1c0.3,0.2,0.6,0.4,1,0.5c-0.1-0.2-0.2-0.4-0.4-0.5
		c-0.6-0.5-1.2-1.1-1.8-1.6c-0.2-0.2-0.6-0.4-0.4-0.7c0.2-0.3,0.6-0.1,0.9,0.1c0.8,0.4,1.6,0.8,2.4,1.1c0.1,0,0.2,0.1,0.4,0
		c-0.4-0.5-1-0.9-1.6-1.3s-1.3-0.7-1.9-1c-0.2-0.1-0.4-0.2-0.4-0.5c0.1-0.3,0.4-0.1,0.5-0.1c0.4,0.1,0.8,0.2,1.2,0.2
		c0.7,0.1,1.4,0.2,2.2,0.3C90.3,62.9,90.1,62.8,89.9,62.7z"/>
	<path fill="#FFFFFF" d="M37.7,86.8c1.8-0.7,3.6-1.1,5.5-1.4c1-0.2,1.1-0.3,0.8-1.4c-0.6-2.2-1.2-4.3-1.9-6.5
		c-0.2-0.6-0.2-1.4-0.9-1.9c-0.1,0-0.1-0.2-0.1-0.3c-0.2-3.3-0.6-6.6-1-10c-0.1-0.6-0.1-1.1-0.2-1.7c0-0.2,0-0.4,0.2-0.5
		c0.2,0,0.2,0.2,0.3,0.4c0,0.1,0.1,0.2,0.1,0.3c0.4,2.9,0.7,5.7,1,8.6c0,0.3,0,0.6,0.3,0.8c0.6,0.4,1.2,0.6,1.9,0.7
		c0.1,0,0.3,0.1,0.4-0.1c0.1-0.1-0.1-0.2-0.2-0.3c-0.2-0.3-0.5-0.5-0.7-0.8c-0.1-0.1-0.2-0.3-0.1-0.4c0.2-0.2,0.3,0,0.4,0.1
		c0.1,0.1,0.2,0.2,0.3,0.3c0.3,0.3,0.5,0.6,0.8,0.8c0.3,0.2,0.6,0.3,0.8-0.2c0.4-0.9,0.8-1.8,1.3-2.8c0.1-0.3,0-0.4-0.2-0.5
		c-0.5-0.5-1-1.1-1.5-1.7c-0.6-0.8-1.2-1.6-1.8-2.5c0,0.1,0,0.1,0,0.2c0,0.2,0.2,0.5-0.2,0.6c-0.3,0-0.3-0.3-0.4-0.5
		c-0.1-0.3-0.1-0.7-0.1-1c-0.2-1.9-1.2-3.5-2-5.1c-0.3-0.5-0.3-0.5-0.8-0.2c-0.7,0.6-1.5,1.1-2.3,1.5c-1,0.4-2.1,0.7-3.2,0.6
		c-0.2,0-0.6-0.1-0.6-0.4c0-0.3,0.3-0.2,0.5-0.4c-0.2-0.1-0.4,0-0.5,0c-0.5,0.1-1,0.1-1.5,0c-0.2,0-0.5-0.1-0.5-0.3
		c-0.1-0.2,0.2-0.2,0.3-0.4c-0.2-0.1-0.5-0.1-0.7-0.1c-0.7-0.1-1.3-0.1-2-0.2c-0.2,0-0.4-0.1-0.4-0.3s0.1-0.3,0.3-0.3
		c0.2-0.1,0.3-0.1,0.6-0.2c-0.2,0-0.2,0-0.3,0c-0.2,0-0.5,0-0.6-0.3s0.3-0.3,0.4-0.4c1.3-0.4,2.6-1,3.9-1.5c0.6-0.2,1.1-0.3,1.6-0.7
		c-0.7-0.2-1.4-0.3-2-0.6c-1.3-0.6-2.4-1.5-3.4-2.5c-0.4-0.3-0.7-0.4-1.1-0.1c-1.2,0.9-2.5,1.7-3.7,2.8c-1,1-1.9,2-3,2.8
		c-1.9,1.5-3.6,3.1-5.4,4.7c-2.9,2.7-5.4,5.7-7.5,9.1C7.7,74.1,6.7,75.5,6,77c-0.2,0.3-0.1,0.5,0.2,0.6c0.8,0.4,1.6,0.6,2.4,1
		c1,0.4,1.1,0.4,1.8-0.4l0.1-0.1c0.3-0.2,0.5-0.6,0.8-0.4s0.1,0.6,0,0.9s0,0.5,0.3,0.6c1,0.4,2.1,0.7,3.2,0.9
		c0.4,0.1,0.9,0.1,1.3,0.4c1.6,1.2,3.3,2.2,4.8,3.6c0.5,0.4,1,0.7,1.5,1c0.2,0.1,0.4,0.2,0.6,0c0.6-0.4,1.3-0.5,1.9-0.8
		c0.3-0.1,0.7-0.3,0.9,0c0.2,0.3-0.1,0.6-0.3,0.9c-0.1,0.1-0.3,0.2-0.2,0.3c0.1,0.1,0.3,0.1,0.4,0.1c0.8-0.2,1.6,0,2.3,0.3
		c0.3,0.1,0.5,0.2,0.8,0.3c0.2,0.1,0.4,0.1,0.7,0c0.5-0.3,1-0.5,1.5-0.8c0.2-0.1,0.5-0.4,0.8-0.2c0.2,0.3-0.1,0.5-0.2,0.8
		c-0.3,0.4-0.3,0.5,0.3,0.6c1,0.2,2,0.3,3.1,0.3c0.8,0,1.7-0.1,2.5,0.2C37.4,86.9,37.6,86.8,37.7,86.8z M21.5,65.2
		c0.1-0.6,0.2-1.3,0.4-1.9c0.4-1.2,0.7-2.5,1.2-3.7c0.1-0.2,0.2-0.4,0.4-0.6c0.2,0,0.2,0.1,0.1,0.2c-0.1,0.2-0.1,0.4-0.2,0.6
		c-0.8,1.8-1.2,3.7-1.6,5.6c-0.1,0.4,0,0.7,0,1.1c0,0.2,0,0.4-0.2,0.4s-0.3-0.2-0.3-0.3C21.4,66.2,21.4,65.7,21.5,65.2z M31.7,73.9
		c-0.2,0.3-0.5,0.3-0.8,0.3c-0.1,0-0.2,0-0.2-0.1c-0.7-0.2-0.7-0.2-0.6,0.6c0.1,0.3,0.1,0.7,0.2,1c0,0.3,0,0.6-0.1,0.8
		C30.1,76.8,30,77,29.7,77c-0.2,0-0.4-0.2-0.5-0.4c-0.1-0.2-0.1-0.3-0.2-0.5c0-0.1,0-0.3-0.1-0.4c0,0.3,0.1,0.7,0,1
		c0,0.3-0.1,0.6-0.4,0.6s-0.4-0.2-0.5-0.4c-0.1-0.2-0.1-0.3-0.2-0.6c-0.1,0.3-0.1,0.5-0.1,0.8c0,0.2-0.1,0.3-0.3,0.4
		c-0.2,0-0.3-0.1-0.4-0.2c-0.1-0.2-0.2-0.5-0.3-0.8c0,0.3,0,0.6-0.1,0.8c-0.1,0.4-0.4,0.5-0.7,0.2c-0.2-0.2-0.3-0.5-0.4-0.8
		c-0.3-0.8-0.7-1.6-1.1-2.3c-0.1-0.2-0.2-0.3-0.4-0.2c-0.4,0.1-0.7,0-1.1-0.1c-1.7-0.5-3.4-1.3-4.8-2.4c-1-0.7-2-1.6-2.6-2.7
		c-0.1-0.1-0.1-0.3-0.2-0.4c0-0.1,0-0.2,0.1-0.2c0.1-0.1,0.2,0,0.2,0l0.1,0.1c0.7,1.1,1.6,1.8,2.6,2.6c0.8,0.6,1.6,1.1,2.5,1.5
		c0.8,0.4,1.6,0.6,2.4,0.9c0.2,0.1,0.5,0.1,0.6,0c1.2-0.9,2.7-1.4,3.9-2.2c0.3-0.2,0.4-0.3,0-0.5c-0.8-0.6-1.6-1.1-2.3-1.7
		c-0.4-0.3-0.9-0.6-1.2-1.1c-0.1-0.1-0.2-0.3,0-0.5s0.3,0.1,0.5,0.1c-0.1-1-0.2-2-0.3-3c-0.1-1.5-0.2-2.9-0.1-4.4
		c0-0.2,0-0.4,0.2-0.4s0.2,0.2,0.3,0.4c0,0.2,0,0.3,0,0.5c0,2.2,0.1,4.4,0.4,6.6c0.1,0.8,0.4,1.5,1.2,1.9c0.6,0.4,1.2,0.8,1.8,1.3
		c0.3,0.2,0.7,0.3,0.7,0.8c0,0.1,0.2,0.2,0.3,0.3c0.9,0.5,1.6,1.2,2.4,1.8C31.6,73.4,31.9,73.6,31.7,73.9z"/>
	<path fill="#FFFFFF" d="M40.2,89.4c0.2,0,0.3-0.1,0.4-0.2c0.3-0.8,0.7-1.6,1-2.5c0.1-0.4,0-0.5-0.4-0.4c-1.1,0.2-2.2,0.6-3.4,1
		c-0.2,0.1-0.3,0.2-0.3,0.4c-0.2,0.6-0.3,1.1-0.5,1.7c-0.2,0.5,0.3,0.6,0.5,0.8c0.1,0.2,0.3,0,0.4-0.1
		C38.6,89.6,39.3,89.2,40.2,89.4z"/>
	<path d="M90.9,62.8c-0.1-0.1-0.2-0.1-0.3-0.2c-1.1-0.6-2.3-1-3.5-1.3c-1-0.2-1-0.2-0.9-1.3c0.1-0.6,0.1-1.2-0.2-1.8
		c-0.2-0.3-0.5-0.6-1-0.5c-0.4,0.1-0.5,0.4-0.5,0.8c-0.2,1.1-0.7,2.1-1.2,3c-0.1,0.2-0.3,0.3-0.5,0.5c-1.1,0.7-2.2,1.3-3.4,1.7
		c-0.1,0.1-0.3,0.2-0.4,0.1c-0.1-0.1,0-0.3,0.1-0.4c0-0.1,0-0.1,0.1-0.2c1.2-2.9,2.5-5.8,3.4-8.9c0.8-2.9,1.7-5.7,1.8-8.7
		c0-0.8,0.2-1.5,0.7-2.1c0.5-0.8,0.9-1.6,1.2-2.5c0.4-1.2,0.7-2.5,0.6-3.8c0-0.7-0.3-0.8-0.9-0.6c-0.2,0.1-0.4,0.2-0.5,0.3
		c-0.7,0.5-1.3,1-1.8,1.7c-0.5,0.6-1,1.2-1.4,1.8c-0.2,0.2-0.3,0.2-0.5,0.1c-0.6-0.4-1.2-0.7-1.8-0.9c-0.4-0.1-0.4-0.3-0.3-0.7
		c0.2-0.8,0.4-1.5,0.5-2.3c0.1-0.9,0.2-1.8,0.1-2.6s-0.4-1-1.2-0.6c-0.6,0.3-1.2,0.7-1.6,1.3c-1.2,1.4-1.9,3-2.6,4.6
		c-0.1,0.3-0.3,0.6-0.6,0.8c-1.2,0.8-2.4,1.8-3.3,2.9c-2,2-4,4.1-6,6c-1.1,1-2.1,2.1-3.8,2.1c-0.1,0-0.2,0-0.2,0
		c-3.7,0.6-5.5,3.6-5.2,6.9c0.1,1.3,0.7,2.3,1.4,3.4c0.2,0.3,0.2,0.5-0.1,0.7c-0.8,0.5-1.7,1.1-2.4,1.8c-0.6,0.5-1.3,0.9-2.1,1
		c-1.9,0.2-3.4,1.2-4.4,2.8c-0.3,0.5-0.7,1-1.1,1.6c-0.4,0.5-0.4,0.5-0.9,0.1c-0.1-0.1-0.1-0.1-0.2-0.2c-1.4-1.5-2.3-3.3-3.5-5
		c-0.1-0.1-0.1-0.2-0.1-0.4c-0.3-1.6-1.1-3-1.8-4.4c-0.2-0.4-0.2-0.7,0.1-1c0.9-1,1.6-2.1,2.1-3.4c0.1-0.2,0.2-0.3,0.5-0.4
		c0.7-0.2,1.4-0.4,2-0.7c2-1,3.6-2.3,4.5-4.3c0.2-0.5,0.3-1,0.6-1.5c0.5-0.9,0.6-1.9,0.4-2.9c-0.1-0.5,0-0.6,0.4-0.8
		c1.9-0.9,3.7-1.7,5.7-2.4c0.5-0.2,0.5-0.3,0.1-0.7c-0.5-0.5-1.2-0.7-1.8-0.8c-0.7-0.1-1.4-0.2-2.1-0.3c-1.1-0.2-2.3-0.3-3.5-0.5
		c0.7-0.3,1.3-0.7,1.7-1.2c0.2-0.3,0.5-0.6,0.2-0.8c-0.2-0.3-0.5,0.1-0.8,0.2c-0.6,0.3-1.3,0.5-2.1,0.3c0.4-0.3,0.8-0.7,1.2-0.9
		c0.4-0.3,0.6-0.6,0.7-1.1c0.1-0.6,0.2-1.1,0.6-1.6c0.1-0.1,0.1-0.2,0.1-0.4c-0.1-0.2-0.2-0.1-0.4-0.1c-0.4,0.1-0.8,0.2-1.2,0.5
		c-0.3,0.2-0.6,0.3-1,0.5c0,0,0-0.1-0.1-0.1c0.6-0.3,0.6-1,0.9-1.4c0.3-0.4,0.1-0.6-0.1-0.9c-0.3-0.2-0.6-0.4-1-0.1
		c-0.3,0.2-0.3,0.7,0,0.9c0.4,0.3,0.3,0.5,0.1,0.8c-0.1,0.1-0.2,0.2-0.3,0.3c-0.2,0.2-0.2,0.5-0.5,0.4c-0.2-0.1-0.1-0.4-0.2-0.6
		c0-0.1-0.1-0.2-0.1-0.3c-0.1-0.2-0.1-0.4-0.4-0.3c-0.2,0-0.2,0.2-0.2,0.4c-0.1,0.6-0.4,1.1-0.8,1.5c-0.1,0.2-0.3,0.3-0.5,0.3
		s-0.2-0.2-0.3-0.4c-0.3-0.9-0.6-1.8-1-2.6s-1-1.5-0.9-2.5v-0.1c-0.3-0.6-0.2-1.2-0.1-1.8c0.1-0.3,0.1-0.4,0.4-0.2
		c0.6,0.3,1.5-0.1,1.8-0.7c0.1-0.3,0-0.9-0.3-1.1c-0.4-0.3-0.6,0.1-0.8,0.3c-0.1,0.1-0.3,0.2-0.4,0.3c-0.3,0.2-0.5,0.2-0.6-0.1
		c-0.1-0.3-0.2-0.5,0.2-0.6c0.2-0.1,0.4-0.1,0.4-0.4c0.1-0.8,0.2-1.5,0-2.3c-0.2-0.5-0.4-0.8-1-0.8c-0.3,0-0.5-0.2-0.5-0.5
		c0-0.6-0.2-1.2-0.4-1.7c-0.3-0.7-0.8-1.4-1.2-2c-0.2-0.3-0.4-0.6-0.3-1c0.2-0.4,0.1-0.6-0.3-0.7c-0.4-0.1-0.5-0.5-0.5-0.8
		c-0.1-0.3,0.3-0.3,0.5-0.4c0.9-0.4,1.7-0.9,2.4-1.6c0.2-0.3,0.5-0.5,0.8-0.5c0.2,0,0.3-0.2,0.4-0.4c0.2-0.5,0.3-1.1,0.2-1.6
		c-0.1-0.3-0.2-0.7-0.5-0.8c-0.4-0.1-0.5-0.4-0.7-0.8c-0.2-0.4-0.4-0.7-0.6-1c-1-1.1-2.1-2-3.5-2.5c-0.4-0.1-0.4-0.3-0.3-0.7
		c0.5-1.6,0-3.1-0.8-4.5c-0.2-0.3-0.5-0.4-0.8-0.2c-0.5,0.3-0.7,0.8-0.9,1.3c-0.4,1.2-0.4,2.4,0.1,3.6C36,6.8,36,6.9,35.6,7
		c-2.1,0.8-3.8,2.1-5,4.1c-0.1,0.1-0.1,0.3-0.3,0.3c-0.6,0.1-0.6,0.5-0.6,0.9s0.1,0.8,0.2,1.2c0.1,0.5,0.4,0.9,0.9,1
		c0.2,0,0.3,0.1,0.4,0.3c0.4,0.4,0.9,0.8,1.4,1.1c0.3,0.2,0.4,0.3,0.2,0.7c-0.6,1.2-1.1,2.4-1.5,3.6c-0.5,1.4-0.7,2.7-0.6,4.2
		c0.1,1,0.4,1.8,1,2.5c0.3,0.4,0.3,0.7,0.1,1.1c-0.2,0.3-0.3,0.6-0.2,1c0,0.4-0.2,0.8-0.5,1.1c-0.4,0.3-0.6,0.6-0.9,1
		c-0.2,0.3-0.4,0.7-0.7,1c-0.2,0.3-0.5,0.3-0.9,0.3c-0.3,0-0.2-0.3-0.3-0.5c-0.1-0.3-0.2-0.7-0.5-0.9c-0.1-0.1-0.2-0.3-0.4-0.2
		c-0.2,0-0.2,0.2-0.2,0.4c0,0.3-0.1,0.3-0.4,0.1c-0.5-0.4-1-0.6-1.6-0.7c-0.3,0-0.7-0.1-0.9,0.3c-0.1,0.3,0.3,0.4,0.4,0.6
		c0.4,0.4,0.8,0.8,0.9,1.3c0,0.1,0.1,0.4-0.2,0.2c-0.8-0.4-1.6,0-2.4,0.1c-0.4,0-0.4,0.2-0.3,0.5s0.1,0.6,0.2,0.9
		c0.3,1,0.2,1.1-0.8,0.8c-1.4-0.3-2-1.4-1.7-2.8c0.1-0.5,0.1-1-0.1-1.5c-0.1-0.3-0.3-0.6-0.3-1c0-0.1,0-0.3-0.2-0.3
		s-0.3,0.1-0.3,0.2c-0.2,0.3-0.4,0.7-0.6,1c-0.6,1-0.4,1.8,0.5,2.4c0.4,0.3,0.5,0.7,0.7,1.1c-1.5-0.2-1.8-0.1-2.7,0.7
		c-0.2,0.2-0.3,0.3,0,0.5c0.8,0.5,2.4,0.4,3.1-0.3c0.2-0.2,0.3-0.2,0.5-0.1c0.6,0.4,1.4,0.6,2.1,0.5c0.5,0,0.8,0.2,1.1,0.4
		c-0.3,0.2-0.5,0.2-0.8,0.2c-0.6,0-1.2,0-1.8-0.3c-0.5-0.2-0.7,0-0.6,0.5c0,0.3,0.2,0.6,0.4,0.9c0.2,0.3,0.1,0.4-0.2,0.5
		c-0.5,0.1-1.1,0.1-1.6,0c-1.1-0.2-2.2-0.3-3.3-0.5c-0.2,0-0.4-0.1-0.5,0.1c-0.1,0.2,0,0.4,0.2,0.6c1.2,1.2,2.3,2.6,3.5,3.8
		c1.5,1.3,3.1,2.1,5.1,1.9c0.9-0.1,0.9-0.1,1,0.8c0.3,2,1.2,3.7,2.4,5.2c0.4,0.5,0.6,0.9,0.3,1.5c-0.1,0.1-0.1,0.3-0.1,0.5
		c0,0.3-0.2,0.5-0.4,0.6c-1.3,0.8-2.5,1.6-3.5,2.7c-2.4,2.4-5.1,4.4-7.6,6.7c-2,1.9-3.9,3.7-5.6,5.9c-1.4,1.8-2.7,3.8-4,5.8
		c-0.7,1-1.3,2.1-1.9,3.2c-0.4,0.7-0.4,0.8,0.3,1.2c1.2,0.6,2.4,1.1,3.7,1.4c0.3,0.1,0.5,0,0.7-0.2s0.4-0.4,0.6-0.6
		c-0.1,0.4-0.3,0.7,0.3,0.9c1.3,0.4,2.5,1,3.8,1.1c0.2,0,0.3,0,0.5,0.3c-0.4,0.2-0.8,0.3-1.1,0.4s-0.5,0.3-0.2,0.6
		c0.2,0.2,0,0.3-0.2,0.4c-0.6,0.2-1.2,0.4-1.8,0.6c-0.7,0.2-1.4,0.4-2.1,0.6c-0.4,0.1-0.5,0.3-0.4,0.8c0.2,1.1,0.2,1.2,1.3,0.8
		c1.1-0.3,1.1-0.3,0.9,0.8c-0.5,2,0.1,3.7,1.4,5.2c0.3,0.4,0.6,0.5,1.1,0.3c0.3-0.2,0.6-0.3,0.8-0.4c0.9-0.5,1.1-1.1,0.5-1.9
		c-0.4-0.6-0.7-1.1-1.1-1.7c-0.3-0.5-0.6-0.9-0.8-1.5c-0.2-0.7,0-1.3,0.6-1.6c0.9-0.5,1.2-0.3,1.2,0.7c0,0.6,0.2,0.8,0.7,0.5
		c1.1-0.6,2.3-0.9,3.5-1.3c0.3-0.1,0.5-0.1,0.8,0.2c0.5,0.4,1,0.8,1.5,1.2c0.4,0.3,0.8,0.3,1.3,0s1-0.6,1.7-0.7
		c-0.2,0.2-0.2,0.3-0.3,0.4c-0.4,0.4-0.3,0.6,0.2,0.8c0.3,0.2,0.7,0.2,1.1,0.1c0.8-0.2,1.4,0.1,2.1,0.4c0.2,0.1,0.5,0.2,0.7,0.3
		c0.4,0.1,0.8,0.1,1.2-0.2c0.2-0.2,0.5-0.3,0.8-0.4c-0.1,0.3-0.4,0.6,0.1,0.7c1.1,0.2,2.1,0.6,3.3,0.5c0.8,0,1.6,0,2.5,0
		c0.4,0,0.5,0.1,0.4,0.5s-0.2,0.7-0.3,1.1c-0.2,0.4-0.3,0.9-0.3,1.3c0,0.3,0,0.5,0.4,0.4c0.3-0.1,0.4,0,0.5,0.3
		c0.1,0.2,0.1,0.3,0.3,0.3c0.5-0.1,0.3,0.2,0.2,0.3c-0.4,1.2-0.8,2.5-1,3.7c0,0.3-0.1,0.4-0.4,0.3c-0.6-0.1-1.2-0.1-1.8,0
		c-0.4,0-0.7,0.1-1-0.2c-0.1-0.1-0.2-0.1-0.3,0c-0.4,0.6-0.9,0.2-1.4,0c-0.4-0.2-0.8-0.4-1.2-0.4c-0.6,0-1.2-0.1-1.7,0
		c-1,0.1-1.9,0-2.9-0.4c-0.6-0.2-1.1-0.3-1.7,0c-0.1,0.1-0.3,0.1-0.5,0.1c-0.6-0.2-1.1-0.1-1.7,0c-0.4,0.1-0.9,0.1-1.2-0.2
		c-0.1-0.1-0.3-0.2-0.4,0c-0.4,0.8-1.4,0.3-1.9,0.8h-0.1c-0.2-0.2-0.5-0.6-0.6,0.1c0,0.1-0.1,0.1-0.2,0c-0.6-0.1-1.2,0.1-1.8,0.3
		c-0.4,0.1-0.7,0.2-1.1,0.3c-0.4,0-0.6,0-0.8-0.4c-0.1-0.2-0.1-0.4-0.4-0.3c-0.2,0.1-0.1,0.3-0.1,0.5c0,0.1,0,0.1,0,0.2
		c0.1,0.4-0.1,0.5-0.5,0.4c-0.2,0-0.3-0.1-0.5-0.2s-0.4-0.2-0.6,0c-0.5,0.3-1,0.5-1.6,0.7c-0.1,0-0.3,0.1-0.2,0.3
		c0,0.2,0.2,0.2,0.4,0.1c0.5,0,0.9-0.2,1.3-0.5c0.3-0.2,0.6-0.3,1-0.1c0.4,0.2,0.9,0.2,1.2-0.2c0.1-0.1,0.2-0.2,0.3-0.1
		c0.7,0.1,1.4-0.1,2-0.4c0.5-0.2,1.1-0.3,1.6,0c0.2,0.1,0.4,0.1,0.5-0.1c0.6-0.7,1.7-0.3,2.3-0.9l0,0c1.1,0.4,2.2-0.2,3.3,0.2
		c0.1,0,0.1,0,0.2,0c0.6-0.3,1.2-0.2,1.8,0c0.9,0.3,1.8,0.4,2.7,0.4c0.4,0,0.8,0,1.2,0c0.5,0,1,0.1,1.5,0.4c0.6,0.4,1.2,0.4,1.9,0.3
		c0.9-0.1,1.8-0.1,2.6,0c0.3,0,0.6,0.1,0.6,0.5c0,0.2,0.2,0.3,0.4,0.4c0.2,0,0.4,0,0.6,0c0.8,0,0.8,0,0.9-0.8c0-0.3,0-0.7,0.2-0.8
		c0.3-0.1,0.5,0.3,0.7,0.4c1.3,1.4,2.9,1.6,4.7,1.2c0.4-0.1,0.6-0.3,0.6-0.6c0-0.2,0-0.4,0.2-0.5c0.5-0.3,1.1-0.6,1.7-0.5
		c1.1,0.2,2.2-0.2,3.3-0.3c0.3-0.1,0.7-0.2,1-0.2s0.4,0.1,0.5,0.3c0.2,0.5,0.5,0.8,1,0.9c0.5,0.2,1,0.3,1.5,0.3
		c2.5,0.2,4.9,0.4,7.4,0.6c0.8,0.1,1.6,0,2.3-0.4c0.3-0.1,0.5-0.3,0.6-0.7c0-0.4-0.2-0.6-0.5-0.7c-0.6-0.3-1.2-0.5-1.8-0.6
		c-0.3-0.1-0.6-0.1-0.9-0.3c0.4-0.2,0.8-0.3,1.1-0.3c0.7,0,1.4,0.1,2-0.3c0.1,0,0.2,0,0.2,0c0.8,0,1.5,0,2.3-0.1
		c0.4-0.1,0.6,0.1,0.7,0.5c0.1,0.6,0.2,1.2,0.5,1.8c0.4,0.7,0.8,1,1.6,0.8c0.3-0.1,0.5-0.2,0.8-0.3c0.8-0.3,1.4-0.8,2.2-1.2
		c0.8-0.4,1.6-0.8,2.4-1.3c0.6-0.4,1.1-0.8,1.9-0.6c0.1,0,0.2,0,0.2,0c0.8-0.3,1.6-0.2,2.4-0.3c0.2,0,0.5,0,0.7,0.1
		c0.9,0.4,2,0.5,2.9,0.8c0.8,0.3,1.7,0.6,2.4,1.1c0.3,0.2,0.6,0.5,0.9,0.5c0.4,0,0.6,0.2,0.8,0.5c0.2,0.6,0.7,0.7,1.2,0.8
		c0.2,0,0.3,0,0.3-0.2s-0.1-0.3-0.2-0.3s-0.2-0.1-0.2-0.1c-0.4,0-0.7-0.3-0.8-0.7c-0.1-0.4-0.4-0.6-0.8-0.6c-0.3,0-0.6-0.1-0.9-0.4
		c-0.5-0.5-1.2-0.8-1.9-1c-0.7-0.2-1.3-0.3-1.9-0.6c-0.1,0-0.2-0.1-0.3,0c-0.3,0.1-0.5,0-0.7-0.1c-0.5-0.3-1.1-0.4-1.7-0.3
		c-0.7,0.1-1.5,0-2.2,0.3c0.3-0.2,0.5-0.4,0.8-0.6s0.7-0.5,1-0.8c0.3-0.4,0.2-0.8-0.3-1c-0.4-0.2-0.9-0.2-1.3-0.1
		c-0.7,0.1-1.4,0.4-2.1,0.6c-0.4,0.1-0.6,0.1-0.6-0.4c0-0.6-0.1-1.2-0.1-1.8c0-0.6-0.1-1.1-0.3-1.7c-0.1-0.4-0.4-0.9-0.8-1
		c-0.5-0.2-0.5-0.4-0.2-0.7c2.1-3,3.4-6.5,4.2-10.1c0.1-0.2,0.1-0.4,0.3-0.6c1.8-1.5,3.5-3.2,5.2-4.8c0.8-0.7,1.5-1.3,2.4-1.9
		c0.7-0.4,0.9-0.4,1.4,0.2c0.4,0.4,0.7,0.8,1.1,1.1c0.2,0.2,0.5,0.4,0.8,0.4c0.3,0.1,0.5-0.1,0.5-0.4c0-0.4-0.2-0.7-0.4-1
		c-0.2-0.4-0.6-0.6-0.7-1.1c0.2,0.1,0.4,0.2,0.6,0.3c0.3,0.2,0.7,0.4,1.1,0.4c0.4,0.1,0.6-0.1,0.5-0.5c-0.1-0.3-0.3-0.5-0.5-0.7
		c-0.4-0.4-0.7-0.7-1.1-1.1c0.4,0,0.6,0.2,0.8,0.3c0.4,0.2,0.8,0.3,1.2,0.4c0.2,0,0.5,0.1,0.6-0.1s0-0.5-0.1-0.7
		c-0.3-0.5-0.7-0.8-1.2-1.1c-0.3-0.2-0.7-0.5-1-0.7c0.2-0.1,0.3,0,0.4,0c0.5,0,1,0.1,1.5,0.1c0.2,0,0.4-0.1,0.5-0.3
		C91.1,63,91,62.9,90.9,62.8z M42.3,55.3c-0.3,0.7-0.6,1.3-1.1,1.9c-1.3,1.7-2.8,3.2-5,3.8c-0.4,0.1-0.9,0.2-1.4,0.2
		c0.3-0.3,0.6-0.5,0.8-0.6c0.1-0.1,0.2-0.1,0.3-0.2c0.1-0.1,0.3-0.3,0.2-0.5s-0.3-0.1-0.5,0c-0.8,0.4-1.6,0.5-2.5,0.6
		c-0.2,0-0.4,0.1-0.6,0c0.1-0.2,0.2-0.2,0.3-0.3s0.3-0.2,0.2-0.4s-0.2-0.2-0.4-0.2c-0.6,0-1.1,0.1-1.7,0.1c-0.4,0-0.9-0.1-1.4-0.1
		c0.4-0.4,0.8-0.5,1.2-0.7c0.3-0.1,0.5-0.3,0.8-0.4c0.3-0.2,0.4-0.3,0-0.6c0.9-0.3,1.8-0.6,2.6-1c0.7-0.3,1.3-0.6,1.8-1.1
		c1-1,2.1-0.9,3.3-0.6c0.3,0.1,0.1,0.2,0,0.3c-0.6,0.6-1.3,1-2,1.4c-1,0.5-2,1-3,1.4c-0.1,0.1-0.4,0.1-0.3,0.3
		c0.1,0.2,0.3,0.1,0.4,0.1c1.5-0.4,2.9-1.2,4.2-2.1c0.5-0.3,0.9-0.7,1.4-1.2c0.1-0.1,0.2-0.2,0.3-0.3s0.3-0.1,0.4,0
		c0.1,0.1-0.1,0.2-0.2,0.3c-1.2,1.3-2.7,2.1-4.3,2.9c-0.2,0.1-0.5,0.2-0.7,0.3c-0.1,0.1-0.3,0.1-0.2,0.3c0.1,0.1,0.2,0.1,0.3,0.1
		h0.1c1.5-0.6,2.9-1.3,4.2-2.3c0.2-0.1,0.3-0.2,0.5-0.3c-0.8,1.1-1.7,2.1-2.7,2.9c-0.2,0.2-0.5,0.4-0.7,0.6
		c-0.1,0.1-0.2,0.2-0.1,0.3c0.1,0.1,0.2,0.1,0.4,0c0.1,0,0.2-0.1,0.2-0.1c1.5-1.2,2.9-2.5,3.9-4.2c0.1-0.2,0.3-0.4,0.3-0.7
		c0-0.1,0.1-0.2,0.2-0.2C42.4,55.1,42.3,55.2,42.3,55.3z M34.9,55.7c-0.9-0.1-1.8-0.4-2.7-0.9c-1-0.7-2-1.4-2.9-2.2
		c-0.4-0.4-0.4-0.8-0.3-1.3c0.1-0.2,0.2-0.2,0.3-0.1c0.8,0.7,1.8,1.2,2.4,1.9c1.1,1.2,2.5,1.6,3.9,2.1c0.1,0,0.3,0,0.3,0.2
		c0,0.1-0.1,0.2-0.2,0.2C35.6,55.6,35.3,55.7,34.9,55.7z M48.1,47.4c0.2,0.9,0.6,1.2,1.5,0.9c-1,1-2.3,1.1-3.3,0.2
		c-0.5-0.4-0.6-1-0.6-1.6c0.1-0.7,0.3-0.9,1.1-0.9c0.4,0,0.8,0,1.2-0.1c0.3-0.1,0.4,0.1,0.3,0.3C48.1,46.6,48,47,48.1,47.4z
		 M49,38.8c0.5,0,1-0.1,1.5-0.1c-0.6,0.5-1.4,0.7-2.2,0.8c-0.4,0.1-0.6-0.3-0.9-0.6c-0.1-0.1,0-0.1,0-0.2c0.1-0.1,0.3-0.2,0.5-0.2
		C48.2,38.7,48.6,38.8,49,38.8z M47.2,37c1,0.2,1,0.2,0.3,1c-0.9,1.2-2.1,1.7-3.6,1.6c-0.5,0-1-0.2-1.4-0.3l0,0l0,0
		c-0.5,0.5-0.5,1.4,0,2c0.1,0.1,0.2,0.2,0.3,0.1c0.1-0.1,0.1-0.2,0.1-0.3c-0.1-0.2-0.1-0.4-0.2-0.7c0.2,0.3,0.4,0.5,0.5,0.7
		c0.1,0.1,0.2,0.2,0.4,0.2s0.3,0.1,0.4-0.1c0.1-0.2-0.1-0.2-0.2-0.3c-0.4-0.2-0.6-0.5-0.7-0.8c-0.1-0.2,0-0.4,0.2-0.3
		c0.8,0.3,1.8,0.2,2.4,1.1c0.2,0.3,0.5,0.5,0.7,0.8c0.2,0.2,0.1,0.3-0.1,0.4c-1.1,0.4-2.3,0.5-3.4,0.2c-0.4-0.1-0.6-0.4-0.8-0.7
		c-0.1-0.1-0.1-0.2-0.3-0.2c-0.1,0-0.2,0.2-0.2,0.3c-0.1,0.4,0,0.8,0.1,1.1c0.1,0.2,0.1,0.4-0.2,0.3c-0.9-0.2-1.5-1.4-1.3-2.3
		c0.1-0.2,0.1-0.3,0.3-0.4c0.1-0.1,0.2-0.2,0.4-0.1c0.2,0.1,0.1,0.2,0.1,0.3s0,0.3,0.1,0.4c0,0.1,0.1,0.3,0.3,0.3s0.1-0.2,0.1-0.4
		c-0.1-0.9,0.3-1.5,1-2l0,0l0,0c0.7-0.7,1.5-0.7,2.4-0.8c0.1,0,0.3,0,0.4,0c0.2,0,0.3-0.1,0.3-0.3s-0.2-0.2-0.4-0.2
		c-0.6,0.1-1.1,0.2-1.7,0.3c-0.2,0-0.3,0.2-0.5,0c0.1-0.3,0.4-0.4,0.6-0.5C44.6,36.6,45.9,36.7,47.2,37z M36.7,39.2
		c-0.6-0.4-0.9-1.1-1.4-1.6c-0.1-0.1-0.2-0.3-0.4-0.2s-0.1,0.4,0,0.5c0.2,0.4,0.5,0.7,0.8,1c0.1,0.1,0.3,0.3,0.2,0.4
		c-0.1,0.2-0.3,0.1-0.5,0.1c-0.5,0-1,0-1.5,0c-0.1,0-0.3,0-0.3,0.1c0,0.2,0.2,0.2,0.3,0.3c0.6,0.2,1.2,0.1,1.8,0.1
		c-1.1,1.1-2.4,1.4-3.6,0.7c-0.7-0.3-1-1.1-1.5-1.6c-0.2-0.2,0-0.4,0.2-0.4c1-0.3,1.9-0.7,2.9-0.1c0.2,0.1,0.3,0.2,0.5,0.3
		c0.1,0.1,0.3,0.3,0.5,0.3c0.2,0.1,0.6,0.4,0.8,0.1c0.2-0.3-0.3-0.4-0.5-0.5c-1-0.5-1.3-1.7-0.6-2.6c0.5-0.7,0.5-0.7,1.2-0.1
		c0.2,0.2,0.5,0.4,0.8,0.7c0.5,0.4,0.7,0.8,0.5,1.4c0,0.2-0.2,0.4,0.1,0.5s0.4-0.2,0.4-0.4c0.1-0.3-0.1-0.7,0.3-0.9
		c0.6-0.4,1.2-0.6,1.8-0.7c0.2,0,0.2,0.1,0.2,0.3c-0.1,0.3-0.2,0.6-0.5,0.8c-0.4,0.3-0.9,0.5-1.3,0.6c-0.2,0.1-0.4,0.1-0.4,0.3
		s0.3,0.2,0.5,0.2c0.6-0.1,1.1-0.1,1.7-0.1c0.4,0,0.8,0.1,1.2,0.3c0.3,0.1,0.3,0.3,0.1,0.5c-0.4,0.3-0.8,0.5-1.3,0.6
		c-0.8,0.1-1.6,0.2-2.4-0.2c-0.2-0.1-0.4-0.2-0.3-0.5C36.9,39.4,36.8,39.2,36.7,39.2z M42.1,38.1c0,0.1-0.5,0.7-0.6,0.7
		c-0.3,0-0.3-0.3-0.4-0.5c-0.2-0.7,0-1.4,0.4-2c0.1-0.1,0.3-0.3,0.2-0.4c-0.2-0.2-0.4,0-0.5,0.1c-0.5,0.6-0.7,1.2-0.6,2
		c0,0.1,0.2,0.3-0.1,0.3c-0.2,0-0.2-0.2-0.3-0.3c0-0.2,0-0.3,0.1-0.5c0.2-0.9,0.9-1.6,1.5-2.3c0-0.1,0.1-0.1,0.2-0.1
		c0.1,0,0.1,0.1,0.1,0.2c0,0.4,0,0.9,0,1.5C42.1,37.1,42,37.6,42.1,38.1z M39.7,17.6l0.1,0.1c0,0.4-0.3,0.5-0.5,0.8
		c-0.1,0.2-0.3,0.1-0.5,0c-0.5-0.3-0.8-0.7-1.1-1.2c-0.1-0.3-0.3-0.4-0.6-0.4s-0.4,0.2-0.5,0.4c-0.3,0.5-0.7,1-1.2,1.4
		c-0.3,0.2-0.5,0.1-0.6-0.2c-0.1-0.2-0.1-0.3-0.2-0.4c-0.1-0.2-0.1-0.3,0.1-0.4c0.4-0.2,0.8-0.4,1.1-0.8c0,0.3-0.2,0.4-0.3,0.5
		s-0.2,0.2-0.1,0.3c0.1,0.1,0.2,0,0.4,0c0.2-0.1,0.4-0.3,0.5-0.5c0.2-0.5,0.6-0.4,0.9-0.4c0.3-0.1,0.7-0.2,0.9,0.3
		c0.1,0.2,0.3,0.3,0.5,0.2c0.2-0.1,0-0.3-0.1-0.4c0,0-0.1-0.1-0.1-0.2C38.8,17.1,39.2,17.3,39.7,17.6z M32.6,15.4
		c-1.9-1.2-2.4-3.3-0.9-5c0.9-1,1.9-1.9,3-2.5c0.1-0.1,0.3-0.2,0.5-0.1c-0.5,0.4-1,0.7-1.5,1.1c-0.3,0.2-0.5,0.4-0.6,0.6
		C33,9.6,32.9,9.7,33,9.8c0.2,0.1,0.3,0,0.4-0.1c0.4-0.4,0.8-0.8,1.3-1c0.1-0.1,0.2-0.1,0.3-0.1c-0.2,0.3-0.5,0.5-0.7,0.8
		c-0.1,0.1-0.2,0.2-0.3,0.3s-0.2,0.3,0,0.4c0.2,0.1,0.3,0,0.4-0.2c0.4-0.5,0.8-0.9,1.2-1.3c0.1-0.1,0.2-0.2,0.4-0.3
		c-0.2,0.2-0.4,0.5-0.5,0.7s-0.2,0.4-0.3,0.6c-0.1,0.2-0.1,0.4,0.1,0.5c0.2,0.1,0.3-0.2,0.3-0.3c0.2-0.5,0.5-0.9,1-1.3
		c-0.1,0.3-0.2,0.7-0.3,1c-0.1,0.2-0.1,0.4,0.1,0.5c0.2,0,0.3-0.2,0.3-0.4c0.1-0.5,0.3-1,0.6-1.5c0.1,0.4-0.1,0.8-0.1,1.2
		c0,0.1,0,0.2,0,0.3c0,0.2,0,0.4,0.2,0.3c0.2,0,0.2-0.2,0.2-0.3c0-0.4,0-0.7,0.2-1.1C38,8.8,38,9.2,38,9.5c0,0.1,0,0.4,0.2,0.4
		s0.3-0.2,0.3-0.4s0-0.4-0.1-0.7c0.3,0.3,0.4,0.6,0.5,0.9C39,9.8,39,10,39.2,9.9s0.2-0.2,0.1-0.4C39.2,9.3,39.1,9,39,8.8
		c0.4,0.2,0.5,0.5,0.7,0.8c0.1,0.1,0.2,0.4,0.4,0.2c0.2-0.1,0.1-0.3,0-0.5c-0.2-0.4-0.5-0.7-0.8-1c0.6,0.5,1.2,0.8,1.5,1.6
		c0,0.1,0.1,0.3,0.3,0.2s0.2-0.2,0.1-0.4C41.1,9.5,41,9.3,40.9,9c0.2,0.1,0.3,0.2,0.5,0.4c0.7,0.9,1.1,1.9,1.1,3
		c0,1-0.5,1.6-1.2,2.2C39.3,16.6,34.9,16.8,32.6,15.4z M31.2,24.2c-0.1-1.9,0.4-3.6,1.1-5.3c0.3-0.8,0.6-1.6,1.1-2.3
		c0.1-0.2,0.3-0.2,0.5-0.2c0.4,0.1,0.7,0.2,1.1,0.3c0.1,0,0.2,0,0.2,0.1s-0.1,0.1-0.1,0.2c-0.2,0.1-0.5,0.2-0.8,0.3
		c-0.3,0.1-0.4,0.3-0.2,0.5c0.2,0.4,0.4,0.8,0.5,1.2c0.1,0.3,0.3,0.4,0.6,0.3c0.8-0.3,1.3-0.8,1.7-1.4c0.3-0.5,0.4-0.5,0.7,0
		s0.7,0.9,1.2,1.2c0.3,0.2,0.6,0.2,0.9-0.1c0.1-0.1,0.2-0.2,0.3-0.3c0.1-0.1,0.2-0.1,0.3,0.1c0.4,1.1,1.3,1.9,1.7,2.9
		c0.5,1.2,0.2,2.3-0.9,3c-0.2,0.2-0.3,0.2-0.5-0.1c-0.4-0.7-0.5-1.2,0.1-1.8c0.2-0.3,0.3-0.6,0.3-1c0-0.1,0-0.2-0.1-0.3
		c-0.1,0-0.2,0-0.2,0.1c-0.1,0.4-0.3,0.8-0.5,1.2c-0.2,0.4-0.7,0.5-0.7,1.1c-0.1-0.5-0.3-0.7-0.6-0.5c-0.4,0.3-0.7,0.2-1.1,0.1
		c-0.5-0.1-1-0.2-1.5-0.4c-0.8-0.4-1.6-0.9-2-1.8c-0.1-0.1-0.1-0.4-0.4-0.3c-0.2,0.1-0.1,0.3,0,0.5c0.3,0.8,0.9,1.3,1.6,1.7
		c0.5,0.3,1.1,0.5,1.7,0.7c0.3,0.1,0.4,0.2,0.3,0.5c-0.1,0.4-0.2,0.8-0.1,1.1c0,0.2,0,0.3-0.3,0.3c-0.9,0-1.8,0-2.7-0.2
		c-0.3-0.1-0.6-0.3-0.8-0.5c-0.2-0.1-0.4-0.3-0.5,0c-0.1,0.2,0.1,0.3,0.2,0.4c1.4,0.9,2.9,1.2,4.6,0.7c0.5-0.1,0.9,0,1.4-0.1
		c0.4-0.1,0.7-0.2,1-0.5c0.1-0.1,0.1-0.2,0.2-0.1c1,0.1,1.6-0.7,2.1-1.3c0.2-0.2,0.2-0.4,0.6-0.4c0.3,0.1,0.6,0.2,0.7,0.5
		c0.2,0.6,0.2,1.3,0.2,2c0,0.2-0.2,0.3-0.3,0.3c-0.6,0.2-1.1,0.4-1.3,1.1c0,0.1-0.2,0.2-0.3,0.3c-0.5,0.4-1.1,0.7-1.6,1.1
		c-0.4,0.3-0.7,0.1-0.7-0.4c0-0.1,0-0.3-0.1-0.4c0-0.2,0-0.4-0.3-0.5c-0.2,0-0.2,0.2-0.3,0.4c-0.1,0.2-0.3,0.2-0.4,0.2
		c-1.1,0.2-2.2,0.2-3.3,0.1C32.9,28,31.4,26.3,31.2,24.2z M38.9,25.2c0.1,0,0.2,0,0.3,0c-0.7,0.3-1.5,0.2-1.7-0.2
		c-0.2-0.6,0.2-1.1,1-1.4c-0.5,0.8-0.5,0.9,0.5,1c0.1,0,0.2,0,0.3,0.1c-0.2,0-0.4,0-0.6,0.1c-0.1,0-0.4,0-0.4,0.2
		C38.5,25.3,38.8,25.2,38.9,25.2z M42.4,28.4c-0.3,0.1-0.5,0.4-0.7,0.5c-0.2,0.2-0.4,0.2-0.6,0c-0.2-0.2,0-0.4,0.2-0.5
		c0.3-0.2,0.5-0.3,0.8-0.5c0.1-0.1,0.1-0.2,0.2-0.1c0.1,0.1,0.1,0.2,0.1,0.3C42.5,28.3,42.5,28.3,42.4,28.4z M30.1,31.9
		c0.2-0.4,0.5-0.7,0.7-1s0.4-0.2,0.5,0.1c0.2,0.7,0.7,1.1,1.2,1.5c0.1,0.1,0.3,0.3,0.5,0.1s0-0.4-0.2-0.5c-0.4-0.3-0.6-0.6-0.9-1
		c-0.2-0.3-0.3-0.7-0.2-1.1c0-0.1,0-0.3,0.1-0.3s0.2,0.1,0.3,0.2c0.5,0.5,1.1,0.9,1.8,1.1c0.1,0,0.2,0.1,0.3,0.1
		c0.2,0,0.5,0.1,0.5-0.2c0.1-0.3-0.2-0.3-0.4-0.3c-0.8-0.2-1.6-0.6-2.1-1.3c-0.4-0.5-0.3-1,0.1-1.4c0.1-0.1,0.2-0.1,0.3,0
		c1.8,1.2,3.7,0.9,5.7,0.8c0.4,0,0.6,0,0.7,0.4c0.1,0.4,0.4,0.4,0.7,0.4c0.4,0,0.5,0.2,0.5,0.6c0,0.1,0,0.3,0,0.4
		c0,0.2,0.2,0.4,0.4,0.3c0.2,0,0.5,0,0.5-0.4c0-0.3,0.1-0.3,0.3-0.2c0.3,0.2,0.6,0.2,1,0.1c0.3-0.1,0.4,0,0.4,0.3l0,0
		c0.1,0.6,0.1,1.3,0.3,1.8s0.7,1,1,1.5c0.3,0.6,0.6,1.3,0.8,1.9c0.1,0.4,0.1,0.6-0.4,0.6h-0.1c-0.8,0.2-0.8,0.2-0.7-0.6
		c0-0.2,0-0.3-0.1-0.4c-0.2-0.1-0.3,0-0.5,0.1c-0.1,0.1-0.2,0.3-0.4,0.1c-0.1-0.1-0.1-0.3-0.1-0.5c0-0.1,0-0.1,0-0.2
		c0-0.2,0.2-0.5,0-0.7c-0.3-0.2-0.5,0.1-0.7,0.2c-0.5,0.3-0.9,0.7-1.2,1.2c-0.2,0.2-0.3,0.4-0.7,0.3c-0.4-0.1-0.8,0.1-1.3,0.3
		c-0.4,0.1-0.5,0-0.5-0.4c0-0.3,0.1-0.7,0.1-1c0.1-0.5-0.1-0.5-0.5-0.4c-0.6,0.2-1.2,0.5-1.5,1.1c-0.2,0.3-0.3,0.3-0.5,0.1
		c-0.3-0.2-0.5-0.5-0.7-0.8c-0.2-0.4-0.4-0.4-0.7,0s-0.4,0.9-0.9,1.3c-0.1-0.3,0.1-0.5,0.2-0.7c0.1-0.2,0.2-0.3,0.2-0.5
		c0.1-0.2,0.3-0.6,0.1-0.7c-0.3-0.2-0.4,0.2-0.6,0.4c-0.2,0.2-0.3,0.4-0.5,0.5C33,35.1,33,35,33,35c0-0.2,0.1-0.4-0.1-0.5
		c-0.2-0.1-0.3,0.1-0.5,0.1c-0.4,0.2-0.8,0.1-1.1-0.4c-0.2-0.4-0.2-0.8-0.2-1.2s-0.2-0.5-0.5-0.3s-0.4,0.5-0.6,0.7
		c-0.1-0.3,0.1-0.5,0.2-0.7s0.2-0.4-0.1-0.5C29.9,32.2,30.1,32,30.1,31.9z M21.8,36.9c0.1-0.2,0.4,0,0.6,0c0.7,0.1,1.4,0.2,2-0.1
		c0.6-0.2,1.1-0.7,1.7-0.8c0.1,0,0.3-0.1,0.2-0.3c-0.1-0.3,0-0.4,0.2-0.5c0.1-0.1,0.1-0.2,0-0.3c-0.3-0.5-1.2-0.6-1.7-0.2
		c-0.3,0.2-0.2,0.4,0,0.5s0.6,0.2,0.8,0.4c-1,0.4-1.9,0-2.2-0.9c-0.4-1.4-0.3-1.2,0.9-1.3c0.6-0.1,1.1,0.1,1.5,0.7
		c0.2,0.3,0.5,0.5,0.7,0.8c0,0.1,0.1,0.2,0.2,0.1c0.1,0,0.1-0.1,0.2-0.2c0-0.1,0-0.2,0-0.3c0-0.7,0.2-1.1,0.9-1.3
		c0.4-0.1,0.8-0.2,1.2-0.2c0.2,0,0.4,0.1,0.3,0.3c0,0.4-0.1,0.7-0.3,1.1c-0.1,0.2-0.2,0.3-0.3,0.1c-0.1-0.2-0.3-0.2-0.5-0.4
		s-0.5-0.1-0.6,0.1c-0.2,0.2-0.3,0.4-0.4,0.7c-0.1,0.1,0,0.2,0.2,0.3c1.1,0.5,2.3,0.6,3.5,0.4c0.3-0.1,0.6-0.1,0.9-0.2
		c0.2,0,0.3,0,0.2,0.2c-0.3,1-0.8,1.8-1.8,2.2s-1.9,0.3-2.8-0.3c-0.3-0.2-0.3-0.6-0.3-0.9c0-0.4-0.2-0.4-0.5-0.3
		c-0.3,0.2-0.6,0.3-1,0.4c-0.3,0.1-0.3,0.3-0.1,0.4c0.2,0.1,0.3,0.2,0.3,0.5s0.3,0.2,0.5,0.3V38c-1.4,0.7-2.9,0.8-4.3,0
		c-0.1-0.1-0.2-0.1-0.3-0.2C22,37.4,21.7,37.2,21.8,36.9z M29.7,39c0-0.1,0-0.2,0.1-0.3c0.1,0,0.2,0.1,0.2,0.2
		c0.2,0.3,0.4,0.6,0.5,1c0.2,0.3-0.1,0.6-0.3,0.8c-0.2,0.2-0.4,0.4-0.9,0.4C29.7,40.4,29.7,39.7,29.7,39z M25.2,43.4
		c-1.8,0.2-3.4-0.2-4.8-1.4c-1.2-1-2.2-2.2-3.3-3.4c-0.1-0.1-0.2-0.1-0.1-0.2c0.1-0.1,0.2-0.1,0.3-0.1c0.7,0.1,1.3,0.2,2,0.3
		c1,0.2,1.9,0.2,2.9-0.2c0.2-0.1,0.3,0,0.5,0c0.2,0.1,0.5,0.2,0.7,0.3c0.1,0,0.3,0,0.3,0.2c0,0.1-0.1,0.2-0.2,0.2l-0.1,0.1
		c-0.1,0.2-0.3,0.4-0.1,0.5c0.2,0.2,0.4,0,0.5-0.1c0.3-0.3,0.8-0.5,1.1-0.8c0.2-0.2,0.7-0.3,0.8-0.1c0.2,0.3-0.2,0.5-0.4,0.6
		c-0.5,0.3-1,0.5-1.5,0.6c-0.3,0.1-0.7,0.2-0.7,0.5c0,0.4,0.4,0.5,0.7,0.5c1.1,0.3,2.1-0.1,2.9-0.8c0.6-0.5,1-1.1,1.3-1.7
		c0.1-0.1,0-0.3,0.2-0.4c0.1,0.4,0.1,0.8-0.1,1.2c-0.1,0.3-0.3,0.6-0.4,0.8c-0.1,0.1-0.2,0.2-0.1,0.4s0.3,0.1,0.5,0
		c0.3-0.2,0.5-0.5,0.6-0.7c0.1-0.3,0.2-0.5,0.4-0.9c0.3,0.9,0.2,1.5-0.2,2.2c-0.1,0.2-0.4,0.3-0.2,0.6c0.2,0.2,0.5,0.2,0.7,0.1
		c0.6-0.2,1.2-0.4,1.6-1c0.1-0.2,0.2-0.2,0.3-0.1c0.1,0.1,0.2,0.2,0.4,0.3c0.2,0.1,0.2,0.3,0.1,0.4c-0.3,0.3-0.5,0.6-0.7,1
		c-0.1,0.1-0.2,0.3-0.1,0.4c0.1,0.2,0.3,0.1,0.4,0.1c0.7-0.2,1.3-0.2,2-0.2c0.9,0,1.6-0.4,2-1.3c0-0.1,0.1-0.2,0.2-0.3
		c0.1-0.2,0.2-0.2,0.3,0c0.4,0.8,1,1.2,1.9,1.1c0.2,0,0.2,0,0.3,0.2c0.1,0.4,0.3,0.7,0.6,0.9s0.5,0.4,0.6-0.2
		c0.2,0.2,0.4,0.4,0.6,0.5c0.2,0.1,0.3,0.3,0.5,0.2s0.1-0.3,0.1-0.5c0.2,0,0.4,0.2,0.6,0.3c0.2,0.1,0.4,0.2,0.6,0.3
		c0.2,0,0.5,0.1,0.7-0.1c0.2-0.2,0-0.4-0.1-0.6c-0.1-0.2-0.2-0.4-0.2-0.7c0.6,0.5,1.3,0.6,2,0.6c1.1,0,2.1-0.2,3.1-0.7
		c0.2-0.1,0.4-0.1,0.4-0.3s-0.2-0.3-0.3-0.3c-0.2-0.1-0.4-0.3-0.6-0.5c0.5-0.1,1-0.1,1.4,0.1c0.2,0.1,0.3,0.2,0.5,0.2
		c0.2,0.1,0.4,0.3,0.6,0c0.2-0.2,0-0.4-0.1-0.6c0-0.1-0.1-0.1-0.1-0.2c-0.1-0.3-0.1-0.4,0.2-0.3c2,0.3,4,0.5,6,0.8
		c0.5,0.1,0.9,0.2,1.4,0.6c-0.8,0.4-1.6,0.7-2.4,1.1c-1.5,0.7-3,1.3-4.5,2.1c-1.3,0.7-2.7,0.8-4.2,0.6c-0.3,0-0.5-0.1-0.8,0
		c-0.8,0.1-1.5-0.3-2.2-0.6c-0.2-0.1-0.5-0.2-0.7-0.2c-1.8,0.1-3.6,0-5.4-0.5c-0.3-0.1-0.5,0-0.8,0.2c-0.4,0.4-0.9,0.6-1.5,0.6
		c-1.1,0-2.1,0-3.1-0.4c-1.4-0.5-2.7-0.7-4-0.7c0.2-0.5,0.1-0.6-0.3-0.7C26.2,43.3,25.7,43.3,25.2,43.4z M38.5,46.9
		c0,1,0.5,1.4,1.5,1.3c-1.6,1.2-4.1,0.4-4.4-1.6c-0.1-0.7,0.1-1.3,0.6-1.8c0.1-0.2,0.3-0.2,0.5-0.1c0.7,0.1,1.4,0.3,2.1,0.4
		c0.3,0,0.4,0.1,0.2,0.4C38.6,45.9,38.5,46.4,38.5,46.9z M26.5,45.2c-0.1-0.5,0-0.6,0.5-0.6c1.3,0,2.5,0.1,3.8,0.4
		c1.3,0.3,2.7,0.6,4.1,0.3c0.3-0.1,0.3,0.1,0.3,0.3c-0.4,2,1.1,3.6,3,3.7c1.8,0.1,3.5-1.4,3.8-3.2c0.2-0.9,0.2-0.9,1-0.5
		c0.7,0.3,1.3,0.2,2,0.3c0.6,0,0.7,0.1,0.4,0.6c-0.3,0.6-0.2,1.2,0.2,1.8c0.7,1.2,2.3,1.7,3.6,1.1c0.1-0.1,0.2-0.1,0.4-0.2
		c-0.4,1.1-1,2-1.8,2.7c-1.8,1.7-4,2.6-6.5,2.7c-3.8,0.1-7.5-0.7-10.6-3.1C28.4,49.9,27.1,47.7,26.5,45.2z M19,83.6
		c-0.9,0.3-1.8,0.6-2.7,1c-0.3,0.1-0.4,0-0.4-0.3c0-0.4-0.2-0.6-0.5-0.8c-0.4-0.3-0.9-0.6-0.6-1.2c0-0.1,0-0.2-0.1-0.3
		c-0.3-0.3-0.1-0.4,0.2-0.6c0.3-0.1,0.7-0.3,0.9-0.4c0.2,0,0.3,0.1,0.4,0.2c0.9,0.7,1.9,1.3,2.8,2c0.1,0.1,0.3,0.1,0.2,0.3
		C19.3,83.6,19.1,83.6,19,83.6z M34.7,86.7c-1,0-2.1-0.1-3.1-0.3c-0.5-0.1-0.6-0.2-0.3-0.6c0.2-0.2,0.5-0.5,0.2-0.8
		c-0.2-0.3-0.5,0-0.8,0.2c-0.5,0.3-1,0.6-1.5,0.8c-0.2,0.1-0.4,0.1-0.7,0c-0.3-0.1-0.6-0.2-0.8-0.3c-0.8-0.3-1.5-0.5-2.3-0.3
		c-0.1,0-0.3,0.1-0.4-0.1s0.1-0.2,0.2-0.3c0.2-0.3,0.6-0.5,0.3-0.9c-0.2-0.3-0.6-0.1-0.9,0c-0.6,0.3-1.4,0.4-1.9,0.8
		c-0.2,0.2-0.4,0.1-0.6,0c-0.5-0.3-1.1-0.6-1.5-1c-1.5-1.3-3.2-2.4-4.8-3.6c-0.4-0.3-0.8-0.4-1.3-0.4c-1.1-0.2-2.1-0.5-3.2-0.9
		c-0.3-0.1-0.4-0.3-0.3-0.6c0.1-0.3,0.3-0.7,0-0.9c-0.3-0.2-0.6,0.2-0.8,0.4c-0.1,0-0.1,0.1-0.1,0.1c-0.7,0.8-0.8,0.8-1.8,0.4
		c-0.8-0.3-1.6-0.6-2.4-1c-0.3-0.1-0.4-0.3-0.2-0.6c0.7-1.6,1.7-3,2.6-4.4c2.1-3.4,4.6-6.4,7.5-9.1c1.8-1.6,3.5-3.3,5.4-4.7
		c1.1-0.8,2-1.9,3-2.8c1.1-1.1,2.4-1.9,3.7-2.8c0.4-0.3,0.7-0.2,1.1,0.1c1,1,2.1,1.8,3.4,2.5c0.6,0.3,1.3,0.5,2,0.6
		c-0.5,0.4-1.1,0.6-1.6,0.7c-1.3,0.4-2.6,1-3.9,1.5c-0.2,0.1-0.5,0.1-0.4,0.4c0.1,0.3,0.3,0.3,0.6,0.3c0.1,0,0.1,0,0.3,0
		c-0.3,0.1-0.4,0.2-0.6,0.2c-0.1,0.1-0.3,0.1-0.3,0.3s0.2,0.3,0.4,0.3c0.7,0.1,1.3,0.1,2,0.2c0.2,0,0.5,0,0.7,0.1
		c0,0.2-0.4,0.2-0.3,0.4s0.3,0.3,0.5,0.3c0.5,0,1,0,1.5,0c0.2,0,0.3-0.1,0.5,0c-0.2,0.2-0.5,0.1-0.5,0.4c0,0.3,0.4,0.3,0.6,0.4
		c1.1,0.2,2.2-0.1,3.2-0.6c0.9-0.4,1.6-0.9,2.3-1.5c0.5-0.4,0.5-0.4,0.8,0.2c0.8,1.7,1.8,3.3,2,5.1c0,0.3,0.1,0.7,0.1,1
		c0,0.2,0.1,0.6,0.4,0.5c0.3,0,0.2-0.3,0.2-0.6c0,0,0-0.1,0-0.2c0.6,0.9,1.2,1.7,1.8,2.5c0.4,0.6,0.9,1.2,1.5,1.7
		c0.2,0.2,0.3,0.3,0.2,0.5c-0.4,0.9-0.9,1.8-1.3,2.8c-0.2,0.4-0.4,0.4-0.8,0.2c-0.3-0.2-0.5-0.5-0.8-0.8c-0.1-0.1-0.2-0.2-0.3-0.3
		c-0.1-0.1-0.3-0.3-0.4-0.1c-0.1,0.1,0,0.3,0.1,0.4c0.2,0.3,0.5,0.5,0.7,0.8c0.1,0.1,0.2,0.2,0.2,0.3c-0.1,0.1-0.2,0.1-0.4,0.1
		c-0.7,0-1.3-0.3-1.9-0.7c-0.3-0.2-0.3-0.5-0.3-0.8c-0.2-2.9-0.6-5.8-1-8.6c0-0.1,0-0.2-0.1-0.3c-0.1-0.2,0-0.4-0.3-0.4
		c-0.2,0-0.2,0.3-0.2,0.5c0.1,0.6,0.1,1.1,0.2,1.7c0.4,3.3,0.8,6.6,1,10c0,0.1,0,0.3,0.1,0.3c0.6,0.5,0.7,1.2,0.9,1.9
		c0.7,2.1,1.3,4.3,1.9,6.5c0.3,1,0.3,1.2-0.8,1.4c-1.9,0.3-3.7,0.7-5.5,1.4c-0.1,0.1-0.3,0.1-0.5,0C36.4,86.5,35.5,86.7,34.7,86.7z
		 M37.9,90c-0.1,0.1-0.3,0.3-0.4,0.1c-0.2-0.3-0.7-0.3-0.5-0.8s0.3-1.1,0.5-1.7c0.1-0.2,0.1-0.3,0.3-0.4c1.1-0.4,2.2-0.8,3.4-1
		c0.4-0.1,0.5,0,0.4,0.4c-0.2,0.9-0.6,1.7-1,2.5c-0.1,0.2-0.2,0.3-0.4,0.2C39.3,89.2,38.6,89.6,37.9,90z M41.3,94.1
		c-0.7,0.1-1.4-0.3-1.6-1c-0.1-0.4-0.2-0.8-0.1-1.2c0.1-0.5,0.2-1,0.3-1.6c0-0.2,0.1-0.4,0.4-0.3c0.4,0.2,0.7,0,0.8-0.4
		c0.3-1.1,0.9-2,1.1-3.1c0.1-0.3,0.2-0.4,0.5-0.4c0.4-0.1,0.8-0.1,1.2-0.3c0.7-0.2,0.9-0.4,0.7-1.2c-0.2-0.9-0.4-1.7-0.7-2.6
		c-0.8-2.5-1.5-5-2.2-7.5c0-0.2-0.1-0.3-0.1-0.5c0.4,0.1,0.8,0.3,1.1,0.4c0.5,0.1,1,0.2,1.5,0c0.4-0.2,0.5,0,0.4,0.3
		s-0.1,0.6-0.1,0.9c0,0.4,0.1,0.8,0.5,1c0.1,0.1,0.2,0.2,0.3,0.3c0.1,0.3,0.4,0.4,0.7,0.4c0.2,0,0.4-0.2,0.6,0.1
		c0.2,0.3,0.3,0.6,0.2,1c-0.2,0.7-0.2,1.4-0.3,2.1c-0.1,1.6,0.1,3.2,0.7,4.7c0.1,0.2,0.1,0.4,0.1,0.6c-0.2,2.3-0.7,4.4-2.3,6.2
		C44.1,93.1,42.8,93.8,41.3,94.1z M44.3,93.6c-0.1-0.2,0.1-0.3,0.2-0.3c1.9-1.5,2.8-3.6,3.3-5.9c0.1-0.2,0.1-0.5,0.2-0.8
		c0.3,0.3,0.5,0.6,0.6,1c0.1,0.1,0.1,0.3,0,0.5c-0.7,2.1-1.6,4.1-3.4,5.6c-0.1,0.1-0.3,0.2-0.4,0.3C44.6,94,44.4,93.8,44.3,93.6z
		 M51.7,91.1c-0.1,0.9-0.4,1.8-0.4,2.7c0,0.2-0.2,0.2-0.3,0.3c-0.6,0.1-1.3,0.3-1.9,0.5c-0.2,0.1-0.4,0.1-0.6-0.2
		c-0.1-0.2-0.3-0.2-0.4,0c-0.2,0.5-0.5,0.4-0.9,0.4c-0.7-0.1-1.5-0.2-2.2,0.2c-0.1,0.1-0.2,0.1-0.2-0.1c-0.1-0.2,0-0.3,0.2-0.4
		c0.5-0.3,0.9-0.7,1.3-1.1c1.2-1.3,2-2.9,2.6-4.5c0.1-0.2,0.1-0.3,0.2-0.6c0.8,0.9,1.6,1.7,2.5,2.3C51.7,90.8,51.8,91,51.7,91.1z
		 M62.6,93.2c-0.8-0.1-1.5,0.2-2.3,0.5c0.3-0.9,0.8-1.6,1.1-2.4c0.1-0.2,0.2-0.2,0.4-0.2c0.3,0.1,0.7,0.1,1,0.2
		c1.1,0.4,2.3,0.5,3.5,0.6c0.1,0,0.3,0,0.4,0.1c0.2,0.1,0.3,0.4,0.3,0.6s-0.2,0.1-0.4,0.2c-0.7,0.1-1.4,0.2-2,0.1 M77.1,69.7
		c-0.2,2.3-0.1,4.6-0.8,6.8c-1,3.2-2.2,6.3-4.4,9c-0.5,0.7-1.1,1.3-1.8,1.8L70,87.4c-0.1,0.1-0.3,0.3-0.1,0.5
		c0.2,0.2,0.3,0.1,0.5-0.1c0.5-0.4,1-0.8,1.4-1.3c0.5-0.5,0.9-0.5,1.4,0c0.4,0.4,0.5,0.9,0.5,1.4c0.1,0.9,0.1,1.7,0.1,2.6
		c0,0.3,0,0.6-0.4,0.7c-0.1,0-0.3,0.2-0.2,0.3c0.1,0.2,0.2,0.2,0.4,0.1c0.4-0.1,0.7-0.3,1.1-0.4c0.7-0.3,1.3-0.6,2.1-0.7
		c0.2,0,0.4-0.1,0.7-0.1c0.3,0,0.6-0.1,0.7,0.2c0.1,0.3-0.2,0.4-0.4,0.6c-1.3,1-2.7,1.8-4.1,2.6c-1.1,0.6-2.1,1.2-3.2,1.7
		c-1.6,0.8-1.9,0.4-2.3-1c-0.2-0.8-0.5-1.7-0.7-2.5c-0.1-0.5-0.4-0.7-0.9-0.6c-1,0.1-1.9-0.2-3-0.4c0.2-0.2,0.5-0.2,0.7-0.3
		c0.8-0.2,1.6-0.4,2.3-0.7c0,0,0.1,0,0.1-0.1c0.2-0.1,0.6-0.2,0.5-0.5s-0.5-0.1-0.7,0c-0.5,0.3-1.1,0.5-1.7,0.7
		c-0.9,0.3-1.8,0.4-2.8,0.5c-0.3,0-0.5-0.1-0.5-0.4c-0.1-0.6-0.4-1.2-0.9-1.6c-1-0.8-2.2-1.4-3.3-2c-0.2-0.1-0.4-0.2-0.5,0
		s0.1,0.3,0.3,0.4c0.4,0.2,0.8,0.5,1.3,0.7c0.6,0.3,1.2,0.7,1.8,1.1c1.1,0.8,1.3,2,0.7,3.1c-0.3,0.6-0.6,1.1-0.8,1.7
		c-0.1,0.4,0,0.6,0.3,0.7c0.9,0.3,1.8,0.6,2.8,0.9c0.3,0.1,0.8,0.2,0.8,0.5c0,0.4-0.5,0.4-0.9,0.5c-1,0.2-2.1,0-3.1,0
		c-1.9-0.1-3.9-0.2-5.8-0.5c-0.4-0.1-0.8-0.1-1.2-0.2c-0.6-0.1-0.8-0.5-0.8-1.1c0-1.1,0.2-2.3,0.5-3.4c0.1-0.4,0-0.5-0.2-0.7
		c-2-1.3-3.3-3.1-4.2-5.3c-0.9-2.2-1-4.4-0.5-6.7c0.1-0.6,0.5-0.7,1-0.3c0.3,0.2,0.6,0.4,1,0.4c0.3,0,0.5,0.2,0.6,0.4
		c0.1,0.2,0.2,0.4,0.3,0.6s0.3,0.3,0.5,0.3s0.4-0.2,0.4-0.4c0-0.2,0-0.5,0.1-0.7c0.3,0.2,0.5,0.6,0.9,0.4s0.3-0.6,0.2-1
		c0-0.3-0.1-0.5,0.2-0.7c0.2-0.2,0.1-0.5,0.1-0.8c-0.1-0.6-0.3-1.3-0.4-1.9c-0.1-0.4,0-0.7,0.4-1c1.1-0.8,2.4-1.4,3.7-1.8
		c0.3-0.1,0.6-0.2,0.9-0.3c0.1,0,0.2-0.1,0.2-0.2c0-0.2-0.2-0.2-0.3-0.2s-0.3,0-0.4,0c-1.6,0.4-3.1,1.1-4.5,2.1
		c-0.5,0.4-0.7,0.9-0.6,1.6c0.1,0.5,0.2,0.9,0.3,1.4c0.1,0.2,0.1,0.4,0,0.7c-0.4-0.6-0.8-1-1.2-1.5c-0.3-0.3-0.4-0.3-0.7,0
		c-0.5,0.4-0.6,1-0.7,1.6c0,0.2,0,0.3-0.1,0.5c0,0.2,0,0.4-0.2,0.4c-0.3,0-0.5-0.1-0.5-0.4c-0.1-0.7,0-1.3,0.3-1.9
		c0.1-0.1,0.2-0.2,0.2-0.4c0.1-0.2,0.2-0.4-0.1-0.5c-0.2-0.1-0.3,0.1-0.4,0.2c-0.3,0.6-0.5,1.2-0.6,1.8c0,0.1,0,0.3-0.1,0.4
		c-0.1,0.2-0.3,0.3-0.5,0.2c-0.2,0-0.2-0.2-0.2-0.4c-0.1-0.8,0.2-1.5,0.6-2.2c0.1-0.1,0.2-0.3,0.2-0.4c0.1-0.2,0.2-0.4,0-0.5
		S48,73.9,48,74.1c-0.3,0.6-0.6,1.2-0.8,1.9c0,0.1,0,0.2-0.1,0.3c-0.1,0.3-0.3,0.4-0.6,0.4s-0.3-0.3-0.3-0.4c0-0.6,0.2-1.2,0.5-1.7
		c0.1-0.2,0.2-0.3,0.3-0.5c0.1-0.1,0.2-0.3,0-0.4s-0.3,0-0.4,0.2c-0.3,0.4-0.5,0.8-0.6,1.3c-0.1,0.2-0.1,0.5-0.3,0.7
		c-0.1-0.5,0-0.9,0.1-1.3c0.7-2.1,1.7-4,2.9-5.7c0.4-0.5,0.7-1,1.1-1.5c0.7-1,1.8-1.6,3-1.8c0.8-0.1,1.6-0.3,2.4-0.3
		c0.4,0,0.8,0,1.1,0.1c0.2,0,0.3,0,0.4-0.2c0-0.2-0.1-0.3-0.3-0.3c-0.4-0.1-0.8-0.1-1.2-0.2c-0.1-0.1,0-0.1,0-0.2
		c0.8-0.7,1.8-1.4,2.7-1.9c0.2-0.1,0.4-0.2,0.5,0.1c1.8,1.9,4.1,2.9,6.6,3.3c4.4,0.7,8.4-0.3,12.1-2.7c0.2-0.2,0.7-0.4,0.4-0.7
		c-0.2-0.3-0.5,0.1-0.7,0.2c-4.4,2.9-9,3.7-14.1,2C60,63.9,58.1,62,57,59.4c-1-2.3-0.3-5.7,2.9-7.2c0.8-0.4,1.6-0.5,2.4-0.6
		c1.1-0.1,1.9-0.6,2.6-1.3c2.3-2.2,4.4-4.4,6.5-6.8c1.2-1.4,2.6-2.7,4.3-3.5c0.2-0.1,0.4-0.3,0.1-0.5c-0.1-0.1-0.1-0.2-0.1-0.3
		c0.1-0.2,0.2-0.5,0.3-0.8c0.1,0.2-0.1,0.5,0.2,0.5c0.2,0,0.3-0.2,0.3-0.4c0.2-0.7,0.6-1.2,1-1.8c0.1,0.2,0.1,0.4,0,0.5
		c-0.2,0.8-0.4,1.7-0.8,2.4c-0.1,0.2-0.2,0.3,0,0.5c0.2,0.1,0.3-0.1,0.4-0.2c0.6-1.3,0.9-2.6,1.1-4c0-0.1,0-0.3-0.2-0.3
		c-0.2-0.1-0.3,0-0.4,0.1c-0.2,0.3-0.5,0.6-0.7,0.9c0.6-1.1,1.3-2.2,2.5-2.7c0.3-0.1,0.4,0,0.4,0.3c0.1,1.7-0.2,3.3-0.7,4.9
		c-0.1,0.2-0.2,0.3-0.4,0.3c-0.1,0-0.2,0.1-0.2,0.2c0,0.1,0.1,0.2,0.2,0.2c0.3,0.1,0.6,0.2,0.8,0.2c0.7,0.2,1.3,0.4,1.9,0.8
		c0.2,0.2,0.5,0.3,0.2,0.7c-0.1,0.1,0,0.2,0.1,0.3s0.2,0,0.3-0.1c0.1-0.1,0.2-0.3,0.3-0.4c0.9-1.4,2-2.7,3.2-3.7
		c0.3-0.2,0.6-0.6,0.9-0.5s0.1,0.6,0,0.9c-0.1,2.4-1,4.5-2.4,6.3c-0.2,0.3-0.4,0.4,0,0.8c0.2,0.2,0.1,0.5,0,0.7
		C83.8,49,82.8,52,82,55c-0.9,3-2.3,5.8-3.4,8.7C77.6,65.6,77.3,67.6,77.1,69.7z M50,76.4L50,76.4c0.1-0.1,0.1-0.3,0.2-0.4
		c0.1-0.2,0.2-0.2,0.4-0.1c0.6,0.4,1.1,1.4,1.1,2.2c-0.3-0.1-0.3-0.3-0.4-0.5c-0.2-0.4-0.4-0.8-0.7-1.1C50.4,76.3,50.2,76.2,50,76.4
		L50,76.4C50,76.5,50,76.5,50,76.4c0,0.4,0.2,0.8,0.3,1.2c0.2,0.4,0.3,0.9,0.3,1.4C49.9,78.5,49.6,77.2,50,76.4
		C50,76.5,50,76.4,50,76.4z M88.3,62.8c-0.4-0.1-0.8-0.2-1.2-0.2c-0.2,0-0.5-0.2-0.5,0.1c-0.1,0.2,0.2,0.4,0.4,0.5
		c0.6,0.3,1.3,0.6,1.9,1c0.5,0.4,1.1,0.7,1.6,1.3c-0.1,0.2-0.3,0.1-0.4,0c-0.8-0.3-1.6-0.6-2.4-1.1c-0.3-0.1-0.6-0.4-0.9-0.1
		c-0.2,0.3,0.2,0.5,0.4,0.7c0.6,0.6,1.2,1.1,1.8,1.6c0.1,0.1,0.3,0.3,0.4,0.5c-0.4-0.1-0.7-0.3-1-0.5c-0.5-0.3-1-0.7-1.4-1
		c-0.1-0.1-0.3-0.2-0.4,0c-0.1,0.1,0,0.3,0.1,0.4c0.5,0.9,1.2,1.6,1.7,2.5c0.1,0.1,0.1,0.3,0.2,0.4c-0.5-0.4-1.1-0.7-1.5-1.2
		c-0.1-0.1-0.2-0.3-0.4-0.4c-0.3-0.3-0.7-0.4-1.1-0.2c-1.1,0.5-2,1.3-2.9,2.2c-1.5,1.4-3,2.8-4.5,4.2c-0.1,0.1-0.1,0.1-0.2,0.2
		c-0.2,0.2-0.3,0.1-0.3-0.1c0-0.5,0.1-1.1,0.1-1.6c0.1-2.1,0.3-4.2,0.8-6.3v-0.1c0.1-0.8,0.5-1.2,1.3-1.5c1.4-0.4,2.6-1.2,3.8-2
		c0.1-0.1,0.2-0.2,0.3-0.3c0.5-1.1,1.3-2.1,1.4-3.4c0-0.1,0-0.2,0.1-0.3s0.3,0,0.3,0.1c0.4,0.4,0.4,0.9,0.3,1.4
		c-0.1,0.7-0.3,1.4-0.4,2c0,0.2-0.2,0.4,0,0.5s0.4-0.1,0.4-0.3c0.1-0.4,0.3-0.4,0.7-0.3c1.2,0.2,2.4,0.6,3.5,1.1
		c0.2,0.1,0.4,0.1,0.5,0.4C89.7,63,89,62.9,88.3,62.8z"/>
	<ellipse cx="50" cy="76.4" rx="0" ry="0"/>
	<path d="M51.1,37.1c0.2,0.1,0.4,0,0.5-0.2c0.2-0.3,0.4-0.4,0.7-0.5c0.3,0,0.6-0.3,0.6-0.6c0-0.4-0.4-0.5-0.7-0.6
		c-0.5,0-0.7,0.2-0.7,0.6c0,0.3,0,0.5-0.2,0.8C51.1,36.7,50.9,36.9,51.1,37.1z"/>
	<path d="M69.3,46.2c-1.7,1-2.3,3-1.3,4.7c0.4,0.6,0.9,0.9,1.6,0.9c1.8-0.1,3.2-1.4,3.2-3.3C72.9,46.5,71,45.3,69.3,46.2z
		 M72.4,48.6c0,1.4-1.2,2.6-2.5,2.7c-0.8,0-1.4-0.4-1.6-1.2c-0.4-1.3,0.3-3,1.5-3.6c1.3-0.6,2.5,0.2,2.6,1.7
		C72.4,48.4,72.4,48.5,72.4,48.6z"/>
	<path d="M79.9,52.1c0-1.7-1.2-2.7-2.8-2.4c-2.6,0.5-2.9,3.4-2,4.9c0.7,1.1,1.8,1.4,2.9,0.7C79.3,54.5,79.8,53.4,79.9,52.1z
		 M77.3,55.1c-1.1,0.4-1.8-0.5-2.1-1.5c-0.1-0.4-0.1-0.9,0-1.3c0.1-0.2,0.1-0.4,0.2-0.6c0.4-1.1,1.2-1.6,2.3-1.6
		c0.7,0,1.3,0.4,1.5,1C79.7,52.6,79.1,54.4,77.3,55.1z"/>
	<path d="M83.1,42.2c0.1-0.1,0.1-0.1,0.2-0.2c0.6-0.6,1-1.4,1.5-2c-0.3,1.1-0.7,2.1-1.4,3c-0.1,0.2-0.5,0.5-0.3,0.7
		c0.3,0.2,0.5-0.2,0.7-0.4c0.7-1,1.1-2,1.5-3.1c0.1-0.3,0.1-0.6,0.2-0.9c0-0.2,0-0.4-0.2-0.4c-0.2-0.1-0.3,0.1-0.4,0.2
		c-0.7,1-1.3,2.1-2.2,3c-0.1,0.1-0.2,0.3-0.1,0.4C82.9,42.5,83,42.3,83.1,42.2z"/>
	<path d="M71.3,56.2c-1.4-1.3-2.9-2.4-4.7-3.2c-1-0.4-2-0.9-3.1-1c-0.2,0-0.2,0-0.3,0c-0.2,0-0.4,0-0.4,0.2s0.2,0.2,0.4,0.2
		s0.5,0,0.7,0.1c1.8,0.5,3.5,1.1,5,2.2c0.7,0.5,1.4,1.1,2.1,1.7c0.1,0.1,0.3,0.3,0.5,0.1C71.6,56.5,71.4,56.3,71.3,56.2z"/>
	<path d="M65.6,51.9c0.1,0,0.2,0.1,0.3,0.1c1.4,0.4,2.7,0.9,3.8,1.9c0.1,0.1,0.3,0.2,0.4,0.2s0.2,0,0.2-0.2c0,0-0.1-0.1-0.1-0.2
		c-1.3-1.2-2.8-1.9-4.6-2.1c-0.1,0-0.2,0-0.2,0.1C65.3,51.8,65.4,51.8,65.6,51.9z"/>
	<path d="M75.7,43.6c0.1,0.1,0.2,0.3,0.4,0.2c0.2-0.1,0.1-0.3,0-0.4c-0.2-0.5-0.7-0.9-1.3-0.9c-0.7,0-1.3,0.3-1.7,0.8
		c-0.1,0.1-0.4,0.4-0.2,0.5c0.1,0.1,0.3-0.1,0.5-0.2c0.4-0.3,0.7-0.6,1.3-0.6C75.1,43,75.5,43.2,75.7,43.6z"/>
	<path d="M79.4,45c0.7-0.1,0.9,0,1.2,0.6c0.1,0.3,0.3,0.5,0.3,0.8c0,0.1,0,0.2,0.1,0.2s0.2-0.1,0.2-0.2c0-0.1,0-0.2,0.1-0.3
		c-0.1-0.7-0.5-1.3-1.1-1.6c-0.3-0.2-0.7-0.1-1,0c-0.2,0.1-0.4,0.2-0.3,0.4C79,45.2,79.3,45,79.4,45z"/>
	<path d="M31.4,73.2c-0.8-0.6-1.5-1.3-2.4-1.8c-0.1-0.1-0.3-0.2-0.3-0.3c-0.1-0.4-0.4-0.6-0.7-0.8c-0.6-0.4-1.2-0.9-1.8-1.3
		c-0.7-0.4-1.1-1.1-1.2-1.9c-0.3-2.2-0.4-4.4-0.4-6.6c0-0.2,0-0.3,0-0.5s0-0.4-0.3-0.4c-0.2,0-0.2,0.2-0.2,0.4c0,1.5,0,2.9,0.1,4.4
		c0.1,1,0.2,2,0.3,3c-0.2-0.1-0.3-0.3-0.5-0.1c-0.2,0.2-0.1,0.3,0,0.5c0.3,0.5,0.8,0.8,1.2,1.1c0.7,0.6,1.5,1.2,2.3,1.7
		c0.3,0.2,0.2,0.3,0,0.5c-1.2,0.9-2.7,1.3-3.9,2.2c-0.2,0.2-0.4,0.1-0.6,0c-0.8-0.2-1.7-0.5-2.4-0.9c-0.9-0.4-1.8-0.9-2.5-1.5
		c-1-0.8-1.9-1.6-2.6-2.6c0-0.1-0.1-0.1-0.1-0.1c-0.1-0.1-0.2-0.1-0.2,0c0,0-0.1,0.1-0.1,0.2s0.1,0.3,0.2,0.4
		c0.7,1.1,1.6,1.9,2.6,2.7c1.4,1.1,3.1,1.9,4.8,2.4c0.4,0.1,0.7,0.2,1.1,0.1c0.2-0.1,0.3,0,0.4,0.2c0.4,0.7,0.8,1.5,1.1,2.3
		c0.1,0.3,0.2,0.6,0.4,0.8c0.3,0.3,0.6,0.2,0.7-0.2c0.1-0.2,0.1-0.5,0.1-0.8c0.1,0.3,0.2,0.6,0.3,0.8c0.1,0.2,0.2,0.3,0.4,0.2
		c0.2,0,0.3-0.2,0.3-0.4c0.1-0.2,0.1-0.5,0.1-0.8c0.1,0.2,0.2,0.4,0.2,0.6c0.1,0.2,0.2,0.5,0.5,0.4c0.3,0,0.4-0.3,0.4-0.6
		c0-0.3,0-0.7,0-1c0.1,0.2,0.2,0.3,0.2,0.5c0.1,0.2,0.1,0.3,0.2,0.5s0.2,0.4,0.5,0.4s0.4-0.2,0.5-0.4c0.1-0.3,0.2-0.6,0.1-0.8
		c-0.1-0.3-0.1-0.7-0.2-1c-0.2-0.8-0.2-0.8,0.6-0.6c0.1,0,0.2,0,0.2,0.1c0.3,0.1,0.6,0.1,0.8-0.3C31.9,73.6,31.6,73.4,31.4,73.2z
		 M29.5,72.7c0-0.1-0.1-0.1-0.1-0.2c-0.1-0.1-0.2-0.2-0.4-0.1c-0.1,0.1-0.1,0.2,0,0.4c0.3,0.7,0.6,1.4,0.7,2.1
		c0.1,0.4,0.1,0.9,0,1.3c-0.1-0.3-0.3-0.7-0.4-1c-0.3-0.6-0.5-1.2-0.8-1.8c-0.1-0.2-0.2-0.4-0.4-0.3c-0.2,0.1-0.2,0.3-0.2,0.5
		c0.2,0.7,0.4,1.4,0.5,2.1c0,0.2,0,0.4,0,0.7c-0.3-0.3-0.4-0.7-0.5-1c-0.2-0.5-0.4-1.1-0.6-1.6c-0.1-0.2-0.1-0.5-0.4-0.3
		c-0.3,0.1-0.2,0.4-0.1,0.6c0.3,0.8,0.3,1.6,0.4,2.5c-0.2-0.2-0.3-0.5-0.3-0.7c-0.2-0.6-0.4-1.2-0.7-1.8c-0.1-0.2-0.1-0.3-0.3-0.3
		c-0.2,0.1-0.2,0.3-0.2,0.4c0.1,0.8,0.2,1.5,0.2,2.4c-0.5-0.6-0.7-1.3-1-1.9c0-0.1-0.1-0.2-0.1-0.3c-0.4-0.9-0.4-0.9,0.5-1.4
		s1.8-0.8,2.7-1.4c0.2-0.1,0.4-0.1,0.5,0c0.9,0.5,1.7,1.2,2.5,1.8c0,0,0.1,0.1,0.1,0.3C30.4,73.5,29.8,73.4,29.5,72.7z"/>
	<path d="M21.8,66.9c0.2,0,0.2-0.2,0.2-0.4c0-0.4-0.1-0.7,0-1.1c0.4-1.9,0.8-3.8,1.6-5.6c0.1-0.2,0.1-0.4,0.2-0.6
		c0-0.1,0-0.2-0.1-0.2c-0.2,0.1-0.3,0.4-0.4,0.6c-0.6,1.2-0.8,2.5-1.2,3.7c-0.2,0.6-0.3,1.3-0.4,1.9c-0.1,0.5-0.1,0.9,0,1.4
		C21.5,66.8,21.6,67,21.8,66.9z"/>
	<path d="M39.9,51.2c0.2,0.2,0.5,0.3,0.8,0.4c1.7,0.2,3.4,0.4,5.2,0.1c0.4-0.1,0.7-0.1,1.1-0.3c0.2-0.1,0.5-0.3,0.5-0.6
		s-0.2-0.5-0.4-0.6c-0.3-0.1-0.5-0.3-0.8-0.4c-0.7-0.3-1.2-0.8-1.3-1.6c0-0.2-0.1-0.3-0.1-0.5c-0.1-0.1-0.1-0.3-0.3-0.3
		c-0.2,0.1-0.1,0.2-0.1,0.4c0.1,1,0.5,1.9,1.6,2.3c0.2,0.1,0.4,0.2,0.6,0.3c0.1,0.1,0.3,0.2,0.3,0.3c0,0.2-0.2,0.2-0.4,0.2
		c-0.9,0.2-1.7,0.3-2.8,0.3c-0.9-0.1-1.9-0.1-3-0.4c-0.1,0-0.3,0-0.3-0.2c0-0.1,0.1-0.2,0.2-0.2c0.4-0.3,0.8-0.5,1.2-0.8
		c0.1-0.1,0.2-0.2,0.1-0.4c-0.1-0.2-0.3-0.1-0.4,0c-0.6,0.3-1,0.7-1.6,1C39.5,50.6,39.5,50.9,39.9,51.2z"/>
	<path d="M30.1,48.4c0-0.1-0.1-0.2-0.1-0.4c-0.1-0.1-0.1-0.2-0.3-0.2c-0.2,0-0.2,0.2-0.2,0.3s0,0.2,0.1,0.2c0,0.1,0.1,0.2,0,0.3
		s-0.2,0-0.4,0c-0.6-0.3-0.8-0.8-1-1.4c-0.2-0.7-0.2-1.4-0.1-2.1c0-0.1,0.1-0.3-0.1-0.3s-0.2,0.1-0.3,0.2c-0.1,0.1-0.1,0.2-0.1,0.4
		c-0.2,0.9-0.1,1.8,0.3,2.6c0.2,0.5,0.6,0.9,1.1,1.2C29.6,49.4,30.1,49.1,30.1,48.4z"/>
	<path d="M44.2,52.5c-1,0.2-1.9,0.2-2.9,0.2c-0.1,0-0.4-0.1-0.4,0.2c0,0.2,0.2,0.3,0.3,0.3c0.4,0.1,0.8,0.1,1.2,0.1
		c0.6,0,1.2-0.1,1.9-0.2c0.1,0,0.4-0.1,0.3-0.3C44.5,52.5,44.3,52.5,44.2,52.5z"/>
	<path d="M36,12.4c0.2-0.4,0.4-0.6,0.8-0.6c0.5-0.1,0.7-0.5,0.5-1c0-0.1-0.1-0.2-0.2-0.1c-0.1,0-0.1,0.1-0.1,0.2
		c0.1,0.4-0.2,0.5-0.5,0.5c-0.9,0.1-1.8-0.1-2.6-0.5c-0.6-0.3-1-0.2-1.4,0.2c-0.6,0.5-0.6,1.1-0.1,1.6c0.5,0.5,1.1,0.7,1.7,0.7
		C34.9,13.3,35.7,13.2,36,12.4z M35.4,12.5c-0.6,0.5-2.2,0.5-2.7-0.1c-0.3-0.4-0.2-0.7,0.3-0.9c0,0.4,0.1,0.8,0.5,1
		c0.5,0.2,1,0.1,1.3-0.4c0.1-0.2,0.2-0.3,0.4-0.2c0.1,0,0.3,0,0.4,0.2C35.7,12.2,35.6,12.3,35.4,12.5z"/>
	<path d="M38.3,12c0.3,0,0.4,0.1,0.4,0.4c0.1,0.5,0.5,0.8,1,0.9c0.7,0.1,1.4,0,2-0.4c0.4-0.3,0.7-0.6,0.7-1.1c0-0.2,0-0.4,0-0.5
		c-0.1-0.7-0.2-0.8-0.9-0.5c-1,0.4-1.9,0.9-3.1,0.7c-0.2,0-0.4,0-0.4,0.2C37.9,12,38.2,12,38.3,12z M39.2,12.1
		c0.2-0.2,0.3-0.1,0.5,0c0.1,0.1,0.2,0.1,0.3,0.2c0.3,0.3,0.6,0.2,1,0.1c0.3-0.1,0.5-0.4,0.4-0.8c0-0.2,0-0.4,0.3-0.4
		c0.2,0,0.3,0.2,0.3,0.4c-0.1,0.6-0.8,1.2-1.6,1.2c-0.4,0-0.7-0.1-1-0.3C39.2,12.4,39.1,12.3,39.2,12.1z"/>
	<path d="M35.7,14.4c1.1,0.2,2.1,0.4,3.2,0.1c0.3-0.1,0.5-0.2,0.6-0.5c0-0.3-0.2-0.4-0.4-0.6c-0.4-0.2-0.7-0.4-1-0.7
		c-0.1-0.1-0.1-0.4-0.3-0.2c-0.2,0.1-0.1,0.3,0,0.5s0.3,0.4,0.5,0.5s0.4,0.2,0.6,0.3c0.2,0.1,0.2,0.2,0,0.3
		c-0.3,0.1-0.7,0.1-1.1,0.1c-0.5,0-0.9,0-1.4-0.1c-0.1,0-0.3,0-0.3-0.1c0-0.2,0.1-0.2,0.3-0.2c0.2-0.1,0.3-0.1,0.4-0.3
		c0-0.1,0.1-0.2,0-0.2c0-0.1-0.1-0.1-0.2-0.1c-0.4,0.1-0.8,0.2-1,0.6C35.2,14,35.2,14.3,35.7,14.4z"/>
	<path d="M37.3,15.6c0.7,0.1,1.4-0.2,2.1-0.4c0.2,0,0.4-0.1,0.3-0.4c-0.1-0.2-0.3-0.2-0.4-0.1c-1.1,0.5-2.2,0.5-3.4,0.1
		c-0.1,0-0.4-0.2-0.5,0s0.1,0.3,0.3,0.4C36.2,15.6,36.7,15.6,37.3,15.6z"/>
	<path d="M28.8,37.3c0.2,0.1,0.4,0.1,0.6,0.2c0.3,0.1,0.5-0.1,0.3-0.4c-0.1-0.2,0-0.4,0-0.5c0.1-0.3,0-0.5-0.3-0.6
		c-0.2-0.1-0.5-0.1-0.6-0.2c-0.4,0-0.6,0-0.5,0.4c0,0.1,0,0.2,0,0.2C28,37.1,28.4,37.2,28.8,37.3z"/>
	<path d="M45.6,38.7c0.2-0.1,0.5-0.2,0.6-0.4c0.1-0.1,0.1-0.2,0-0.3s-0.2,0-0.3,0c-0.5,0.4-1.1,0.5-1.7,0.6c-0.7,0.1-1.4,0.1-2,0.4
		l0,0l0,0c0,0.2,0,0.4,0.3,0.4l0,0l0,0c0.1,0,0.2-0.1,0.4-0.1C43.8,39.1,44.7,39,45.6,38.7z"/>
	<ellipse cx="42.2" cy="38.9" rx="0" ry="0"/>
	<ellipse cx="42.5" cy="39.3" rx="0" ry="0"/>
	<path d="M75.5,53.2c0.2,0.5,0.7,0.6,1.2,0.5c0.6-0.2,1.2-1,1.2-1.7c0-0.9-0.8-1.4-1.6-1c-0.3,0.2-0.5,0.4-0.7,0.6
		c-0.1,0.2-0.1,0.4-0.2,0.6C75.3,52.6,75.3,52.9,75.5,53.2z"/>
	<path d="M70,47.4c-0.4-0.2-0.8-0.1-1.1,0.1c-0.6,0.4-0.9,1.5-0.5,2.2c0.3,0.7,1.1,0.8,1.7,0.3c0.4-0.4,0.6-0.8,0.6-1.4
		C70.6,48,70.4,47.6,70,47.4z"/>
</g>
</svg>
