<?xml version="1.0" encoding="utf-8"?>
<!-- Generator: Adobe Illustrator 19.2.0, SVG Export Plug-In . SVG Version: 6.00 Build 0)  -->
<svg version="1.1" id="Capa_1" xmlns="http://www.w3.org/2000/svg" xmlns:xlink="http://www.w3.org/1999/xlink" x="0px" y="0px"
	 viewBox="0 0 100 100" enable-background="new 0 0 100 100" xml:space="preserve">
<g id="Capa_2">
</g>
<g id="GzgXUD.tif">
	<g>
		<path fill="#FFFFFF" d="M56.7,79.2c-1.2-0.4-2.4,0.1-3.5,0.1c-3.2,0-6.3-0.5-9.2-1.9c-0.4-0.2-0.8-0.2-1.1-0.3l0,0
			c-0.1,0-0.2-0.1-0.2-0.1c-0.1,0-0.2,0-0.2-0.1c0-0.3-0.2-0.3-0.4-0.3c-1.2-0.7-2.2-1.7-3-2.8c-0.5-0.7-0.9-1.3-2.1-1.4
			c-2.5-0.3-4.3,0.2-5.2,2.6c-0.2,0.3-0.4,0.6-0.6,0.9c-1.3,0.4-2.6,0.8-3.8-0.5c-2.5-2.7-4.1-5.7-4.3-9.4c0-0.6,0-1.1,0.4-1.5
			c0.2-0.2,0.4-0.5,0.7-0.1c1.2,1.8,2.7,3.4,3.4,5.5c0.2,0.6,0.5,1,0.9,1.3c0,0,0,0,0-0.1v0.1c-0.4-2.9-2.1-5-4.1-7.2
			c1.3-0.1,2.2,0.3,3,0.9c0.7,0.7,1.2,0.4,1.7-0.3c0.7-1,1.3-2,2-3c1.2-1.8,2.9-2.3,5-1.8c0.9,0.2,1.7,0.4,2.6,0.6
			c-0.9-0.8-1.9-1.1-3-1.2c-1.8-0.2-0.8-1.3-0.7-2c0.1-0.9,0.5-1.4,1.5-0.9c0.6,0.3,1.3,0.5,2.1,0.4c-1.6-0.6-3.2-1.4-4.5-2.5
			c-1.7-1.4-3.5-2.9-5.2-4.2c-0.3-0.3-0.6-0.9-1.2-0.6l0,0c-0.6-0.8-1.1-0.9-2.4-0.3c-1,0.4-1.7,1.2-2.9,1.5
			c0.4-1.5,1.6-2.3,2.7-3.4c-1.5,0.1-2.4,0.9-3.5,1.1c-0.3,0.1-0.7,0.6-1,0.2c-0.3-0.5,0.3-0.8,0.6-1c0.7-0.7,1.8-0.9,2.6-2.1
			c-1.6,0.2-2.9,0.4-4.2,0.6c0-0.5,0.3-0.7,0.5-0.8c0.8-0.5,1.7-0.7,2.7-1c0.5-0.1,1.2-0.2,1.1-0.8s-0.9-0.2-1.3-0.2
			c-0.9,0.1-1.9,0.4-3,0.1c0.8-0.9,1.8-1.1,2.6-1.4c2.8-1.1,2.8-1.1,3.7-3.4c0.5,0.9,0.9,1.7,1.4,2.5c0.2,0.3,0.4,0.8,0.7,0.5
			c1-0.8,1.8-0.1,2.7,0c0.4,0,0.8,0.3,1-0.2c0.2,0,0.5,0.1,0.7,0.1c0.8,0.8,1.9,0.6,2.9,0.9c1.7,0.4,3.3,1.2,5.2,2.1
			c-0.5-0.9-1-1.2-1.5-1.3c-1.6-0.5-2.8-1.3-1.8-3.2c0.1-0.2,0-0.6,0-0.9c0-2.8-0.9-5.4-2-7.9c-1.7-3.6-3.3-7.3-3.8-11.3
			c-0.1-0.5-0.2-1.4,0-1.4c1.5-0.6,0.1-1.1-0.1-1.4c-1.5-2-2.6-4.3-2.7-6.8c-0.1-1.6,0.5-1.9,2-1.2c1.9,0.8,3.5,2,4.9,3.4
			c0.4,0.4,0.8,1,1.5,0.5c3.6-2.2,7.4-2.5,11.3-0.8c-0.2,0.4-1,0.2-0.8,0.8c0.2,0.5,0.6,0.2,0.9,0.1c1.6-0.3,2.6,1.1,3.9,1.5
			c0.2,0.1,0.4,0.6,0.1,0.9c0.2,0.1,0.3,0.3,0.5,0.4c-0.3,0.7-0.5,1.3,0.3,2c0.1-1.1,0.4-1.5,1.7-1.4c1.8,0.1,3.5,1,5.3,0.2
			c1-0.4,2.1-0.6,3.2-0.9c4.5-1.1,7.4,0.6,8.8,5.1c2.4,8-2.3,16.4-10.8,18.8C56.1,41.1,50.9,40.3,46,38c-0.5-0.3-1.1-0.7-1.8-0.3
			c0.4,0.2,0.8,0.4,1.1,0.6c5.8,3,11.8,4,18,1.4c0.7-0.3,1,0.1,1.3,0.5c3.4,4.8,5.9,9.9,7.3,15.6c0.1,0.4,0,1.1,0.8,0.9
			c0,0.2,0,0.4,0,0.6c-0.7,0.4-0.4,1.1-0.4,1.6c0.1,2.4-0.1,4.8-0.9,7.1C68.5,72.8,64.2,77.8,56.7,79.2z M33.6,12.2
			c-0.9-1.2-2.4-1.6-3.7-2.4c0.2,2.4,1.6,4.9,3.1,5.6c0,0.3,0,0.8,0.4,0.3c0.3-0.3,0.3-0.9,0.6-1.1C35.1,13.6,34.6,12.9,33.6,12.2z
			 M44.1,23.4c0.6-1,0.6-2.3,1.9-2.7c1.1-0.4,2.2,0.2,3.4,0.1c-1.3-1.1-3.1-1.4-4.2-0.8C44.2,20.7,43.7,22.1,44.1,23.4z M38.8,21.2
			c-0.3-2.1-0.4-4.2,2.3-5.6C38.4,15.9,37.6,18.2,38.8,21.2z M26.2,46.6c0.5-1.1,0.6-2.1-0.1-3.2C26.3,44.5,26.1,45.5,26.2,46.6z"/>
		<path fill="#1D2224" d="M52,15.3c0.3-0.3,0.1-0.8-0.1-0.9c-1.3-0.4-2.3-1.8-3.9-1.5c-0.3,0.1-0.8,0.3-0.9-0.1
			c-0.2-0.6,0.5-0.4,0.8-0.8c-3.9-1.8-7.7-1.4-11.3,0.8c-0.8,0.5-1.1-0.1-1.5-0.5c-1.4-1.4-3-2.6-4.9-3.4c-1.5-0.6-2.1-0.3-2,1.2
			c0.2,2.6,1.2,4.8,2.7,6.8c0.2,0.3,1.6,0.8,0.1,1.4c-0.2,0.1,0,0.9,0,1.4c0.5,4,2.1,7.7,3.8,11.3c1.2,2.5,2.1,5.1,2,7.9
			c0,0.3,0.1,0.6,0,0.9c-0.9,2,0.2,2.7,1.8,3.2c0.5,0.2,1,0.4,1.5,1.3c-1.9-0.9-3.5-1.7-5.2-2.1c-1-0.3-2.1-0.1-2.9-0.9
			c0.8-0.3,1.6-0.2,2.3,0.2c1.3,0.7,1.7,0.1,1.8-1.1c0.2-2.5-0.1-5-1.1-7.3c-1.8-3.8-3.2-7.7-4.4-11.7c-0.3-1-0.2-2.2-0.2-3.2
			c0-0.8-0.2-1.5-0.7-2.2c-1.4-1.9-2-4.1-2.1-6.5c0-1.8,0.8-2.4,2.5-1.8c2,0.7,3.7,2,5.2,3.5c0.5,0.5,0.8,1,1.7,0.5
			c0.9-0.4,1.2-0.9,1.1-1.9c-0.1-1.7-0.1-3.4,0.6-5c0.7-1.6,1.8-1.8,2.9-0.4c1,1.4,1.9,2.9,2.4,4.6c0.2,0.6,0.4,1,1,1.1
			c2.6,0.5,4.8,1.9,7,3.3c1.8,1.2,3.6,2.7,6,2.4c1.4-0.2,2.8-0.6,4.2-1c6.8-2.2,10,2.3,10.7,7.2c1,6.7-1.5,12-7.1,15.9
			c-0.5,0.4-1.7,0.4-1,1.6c0.5,0.9,1.1,1.6,2.3,1c1.6-0.7,3.2-1.3,4.9-1.9c1.2-0.4,1.9-1.1,1.9-2.5c0-0.8-0.1-2,1-2.1s1.5,1,1.6,1.9
			c0.2,1.4,0.7,1.8,2.1,1.4c0.7-0.2,1.8-0.2,2.1,0.3c0.5,1.1,1.8,1.8,1.7,3.2c0,0.4,0.1,0.6,0.3,0.9c0.6,0.6,1.1,1.2-0.1,1.7
			c-0.6,0.3-0.1,0.5,0,0.8c0.4,0.9,0.1,1.3-0.9,1.2c-0.1,0-0.2,0-0.3,0c-2.9-1-4.8,0.2-6.4,2.6c-0.9,1.4-1.8,2.9-3.4,3.7
			c-0.4,0.2-0.4,0.5-0.3,0.9c0.3,1.3,0.6,2.6,0.9,3.9c-0.8,0.2-0.7-0.5-0.8-0.9c-1.4-5.7-4-10.9-7.3-15.6c-0.3-0.4-0.5-0.8-1.3-0.5
			c-6.2,2.6-12.2,1.6-18-1.4c-0.4-0.2-0.7-0.4-1.1-0.6c0.7-0.5,1.2,0,1.8,0.3c5,2.3,10.1,3.2,15.4,1.6c8.4-2.4,13.2-10.8,10.8-18.8
			c-1.4-4.5-4.2-6.2-8.8-5.1c-1.1,0.3-2.2,0.5-3.2,0.9c-1.8,0.8-3.6,0-5.3-0.2c-1.3-0.1-1.6,0.3-1.7,1.4c-0.8-0.7-0.6-1.3-0.3-2
			c0.2-0.1,0.3-0.2,0.5-0.4C52.7,15.1,52.4,14.8,52,15.3z M41.4,7.1c1,0.5,1,1.6,1.3,2.5c0.1,0.2,0.2,0.5,0.5,0.4
			c0.4-0.1,0.2-0.4,0.2-0.6c-0.6-1.6-1.4-3.2-2.5-4.6c-0.7-0.9-1.3-0.7-1.7,0.3c-0.5,1.4-0.6,2.9-0.6,4.4c0,1.1,0.3,1.5,1.5,1.1
			c0.7-0.2,0.8-0.6,0.7-1.2c-0.1-0.7-0.1-1.5-0.2-2.2c0-0.3-0.2-0.8,0.3-0.9C41.2,6.3,41.3,6.8,41.4,7.1c-0.9,0.9-0.2,2-0.1,2.9
			c0,0.4,0.4,0.3,0.7,0.2c0.4-0.1,0.3-0.5,0.2-0.7C41.9,8.7,41.7,7.9,41.4,7.1z M82.7,42.7c-1.1-1.3-2.7-0.9-4.4-1.8
			c1.6,0,2.7,0,4.1,0c-1.2-1.7-3.1-0.8-4.4-1.6c1-0.1,1.9-0.2,2.8-1.1c-1.3,0-2.5-0.1-3.7,0c-0.9,0.1-1.3,0-1.1-1.1
			c0.1-0.9-0.2-1.7-1.1-2.4c-0.1,0.6-0.3,1-0.3,1.4c0.2,1.8-0.9,2.6-2.5,3.2c-2,0.7-3.9,1.5-5.9,2.3c1.7,2.8,3.3,5.7,4.4,8.7
			c0.4,1.1,0.9,1,1.6,0.3c0.6-0.6,1.1-1.3,1.6-1.9c0.9-1.1,1.7-2.2,2.7-3.2c0.8-0.7,1.6-1,2.7-1c1,0,2,0.5,3.2,0.2
			c-0.9-0.7-1.8-1.1-2.7-1.1c-0.4,0-0.9,0-0.8-0.5c0.1-0.6,0.6-0.3,1-0.3C80.7,43,81.6,43.2,82.7,42.7z"/>
		<path fill="#FFFFFF" d="M19.8,89c-1.1-0.3-1.7-1.3-2.4-2.1c0.5-0.5,1-0.2,1.5,0c0.7,0.3,1.3,0.6,2,0.8c-1-0.8-1.8-1.9-3.2-2
			c-0.1-0.2-0.2-0.4-0.3-0.6c0-0.5-0.1-1,0.7-0.8c0.3,0.1,0.7,0,1,0.1c1,0.6,1.7-0.5,2.5-0.3c0,0-0.1,0-0.1-0.1v0.1
			c0.2-0.9-0.8-0.7-1-1.2c1.7-0.5,3.2,0.4,5.1,1c-0.7-0.7-1-1.2-1.4-1.6c0.1-0.1,0.2-0.2,0.3-0.3c1.6,0.4,2.7,1.1,3.2,2.8
			c0.9,2.8,0.9,2.8,3.9,2.8c0.8,0,1.6,0.1,2.4,0c4.9-0.2,9.6-4.1,10-8c0-0.4,0.1-1,0.8-0.6c0.5,0.3,1.6,0.1,1.2,1.3
			c-1,3.2-2.7,5.9-6,7.2c-3.5,1.4-7,1.9-10.7,1c-0.7-0.2-1,0-1.5,0.5c-1.9,2.1-4.4,2.6-7.1,1.5c0.5-0.6,1.4-0.4,2.1-1
			C21.7,89.3,20.7,89.2,19.8,89z"/>
		<path fill="#1D2224" d="M19.8,89c0.9,0.1,1.9,0.2,2.9,0.4c-0.6,0.6-1.5,0.4-2.1,1c2.7,1.1,5.2,0.6,7.1-1.5
			c0.4-0.5,0.8-0.6,1.5-0.5c3.7,0.8,7.2,0.4,10.7-1c3.3-1.3,4.9-4,6-7.2c0.4-1.2-0.7-1-1.2-1.3C44,78.4,44,79,43.9,79.4
			c-0.4,4-5.2,7.9-10,8c-0.8,0-1.6,0-2.4,0c-3,0-3,0.1-3.9-2.8c-0.5-1.6-1.7-2.4-3.2-2.8c-0.2-0.1-0.4-0.2-0.7,0
			c0.1,0.1,0.3,0.2,0.4,0.3c0.4,0.4,0.8,0.9,1.4,1.6c-1.9-0.6-3.4-1.5-5.1-1c0.2,0.6,1.3,0.4,1,1.2h0.1c-0.9-0.2-1.6,0.9-2.6,0.3
			c-0.3-0.2-0.7,0-1-0.1c-0.8-0.2-0.7,0.4-0.7,0.8c-0.6-0.1-0.7-0.5-0.7-1c0.1-0.3,0.7-0.1,0.7-0.3c0.4-0.9,1.7-0.5,2.2-1.5
			c0.3-0.6,1.7-0.1,2.5-0.2c0.1,0,1.4,0.6,0.6-0.6c-0.3-0.5,0.2-0.4,0.5-0.4c2.3,0.3,4.6,1.1,5.1,3.8c0.3,1.7,1.1,2.2,2.7,2.1
			s3.3-0.1,4.9-0.5c3-0.6,7.3-4.7,7.3-7.3c0-0.7-0.1-1.2-0.7-1.6c-1.5-0.8-2.9-2-4-3.4c-1-1.3-3.6-1.9-5-1.3c-0.5,0.2-0.6,0.7-0.8,1
			c-0.3,0.5-0.6,1-1.3,0.8c1-2.4,2.7-2.9,5.2-2.6c1.2,0.1,1.6,0.7,2.1,1.4c0.8,1.1,1.8,2.1,3,2.8c0.1,0.1,0.3,0.2,0.4,0.3
			c0,0.1,0.1,0.1,0.2,0.1c0.1,0,0.2,0.1,0.2,0.1l0,0c1.6,1.2,3.7,1.6,5.6,2.3c0.1,1.4-0.9,0.2-1.3,1.1c-0.2,0.7-0.4,1.3-0.7,2
			c-1.9,4.7-5.8,6.8-10.5,7.2c-1.9,0.2-4,0.5-6-0.2c-0.7-0.3-1.1,0.2-1.5,0.6c-2.5,2.3-5.8,2.6-8.7,0.6C19,89.6,21,90,19.8,89z"/>
		<path fill="#1D2224" d="M56.7,79.2C64.2,77.8,68.5,72.8,71,66c0.8-2.3,1-4.7,0.9-7.1c0-0.6-0.3-1.2,0.4-1.6c0.6,2.2,0.6,4.5,0,6.6
			c-2.2,6.8-4.5,13.6-9.1,19.2c-0.9,1.1-1.9,2.2-3,3.1c-1.4,1.1-2,2.5-2.3,4.1c-0.3,1.7-1,3.4-2.1,4.7c-1.6,1.9-4,1.8-5.2-0.4
			c-1.9-3.5-1.6-7.1-0.1-10.7c0.2-0.5,0.6-0.7,1.1-1c1-0.5,0.6-1.5,0.6-2.3c0-0.7-0.8-0.3-1.2-0.4c-0.5-0.1-1-0.2-1.5-0.3
			C51.8,79.4,54.3,80,56.7,79.2z M67.6,74c-0.1,0-0.3,0-0.3,0c-3.8,3.9-8.3,6.1-13.8,6.3c-0.3,0-0.6,0-0.6,0.4
			c-0.1,1.4-0.2,2.5-1.6,3.6c-1.9,1.5-1.5,8.4,0.2,10.4c1,1.2,2.4,1.4,3.5,0.3c1.7-1.7,2.4-4,2.6-6.2c0.1-0.8,0.2-1.2,0.7-1.6
			c4-3.2,6.8-7.3,9.1-11.8C67.4,75,67.8,74.6,67.6,74z M67.7,73.8c-0.1,0-0.1,0.1-0.2,0.1l0.1,0.1C67.7,74,67.7,73.9,67.7,73.8
			C67.8,73.9,67.7,73.8,67.7,73.8z"/>
		<path fill="#1D2224" d="M27.3,49.4c0.6-0.3,0.9,0.3,1.2,0.6c1.8,1.4,3.5,2.8,5.2,4.2c1.4,1.1,2.9,1.9,4.5,2.5
			c-0.8,0.2-1.5,0-2.1-0.4c-1.1-0.6-1.5-0.1-1.5,0.9c-0.1,0.7-1.1,1.9,0.7,2c1.1,0.1,2.1,0.4,3,1.2c-0.9-0.2-1.7-0.4-2.6-0.6
			c-2.1-0.5-3.7,0.1-5,1.8c-0.7,1-1.3,2-2,3c-0.5,0.6-0.9,0.9-1.7,0.3c-0.8-0.7-1.7-1-3-0.9c2.1,2.1,3.8,4.3,4.1,7.2h0.1
			c-0.5-0.3-0.8-0.8-1-1.3c-0.7-2.1-2.3-3.7-3.4-5.5c-0.3-0.4-0.5-0.1-0.7,0.1c-0.4,0.4-0.5,1-0.4,1.5c0.2,3.7,1.7,6.8,4.3,9.4
			c1.2,1.3,2.5,0.8,3.8,0.5c-0.5,1.1-1.4,1.2-2.5,1c-0.4-0.1-0.9-0.3-1.2-0.6c-3.2-3-5.2-6.6-5.1-11.1c0-1.2,0.8-1.6,1.8-1.8
			c0.8-0.1,1.6,0.1,2.3,0.4c0.6,0.2,1,1.2,1.7,0.9c0.5-0.3,0.8-1.1,1.2-1.7c1-1.5,1.9-3.2,3.9-3.7c0.8-0.2,0.4-1.1,0.7-1.7
			c0.8-1.5,0.2-2.4-1.1-3.3C30.8,52.7,28.9,51.3,27.3,49.4z"/>
		<path fill="#1D2224" d="M31.3,41.3c-0.3,0.5-0.6,0.2-1,0.2c-0.9-0.1-1.8-0.8-2.7,0c-0.4,0.3-0.6-0.3-0.7-0.5
			c-0.5-0.8-0.9-1.6-1.4-2.5c-0.9,2.3-0.9,2.3-3.7,3.4c-0.9,0.3-1.8,0.5-2.6,1.4c1.1,0.3,2.1,0,3-0.1c0.4,0,1.2-0.4,1.3,0.2
			c0.1,0.6-0.6,0.7-1.1,0.8c-0.9,0.3-1.8,0.5-2.7,1c-0.3,0.1-0.5,0.3-0.5,0.8c1.3-0.2,2.6-0.4,4.2-0.6c-0.8,1.1-1.8,1.4-2.6,2.1
			c-0.3,0.3-0.9,0.6-0.6,1s0.7-0.1,1-0.2c1.1-0.3,2.1-1,3.5-1.1c-1.1,1.2-2.2,1.9-2.7,3.4c1.2-0.3,2-1.1,2.9-1.5
			c1.3-0.5,1.8-0.5,2.4,0.3c-1.1-0.2-2,0.1-3,0.7c-0.5,0.3-1,0.6-1.5,0.9c-0.4,0.2-0.8,0.4-1.3,0.1c-0.4-0.4-0.2-0.8,0-1.2
			c0.1-0.3,0.5-0.5,0.3-1c-0.3-0.2-0.4,0.1-0.6,0.1c-0.5,0.1-1,0.6-1.5,0.1s-0.1-1,0.2-1.5c0.3-0.4,0.5-0.9-0.3-1.1
			c-0.4-0.1-1.1,0.2-1.2-0.5s0.5-1,1-1.4c0.1-0.1,0.2-0.2,0.4-0.3c-0.3-0.5-1.2-0.2-1.1-1c0-0.7,0.5-1.1,1.1-1.3
			c1.2-0.5,2.5-1,3.7-1.5c0.6-0.2,1.1-0.4,1-1.2c-0.1-0.6,0-1.4,0.8-1.6c0.7-0.1,1,0.6,1.2,1.2c0.3,1.1,1,1.5,2.1,1.6
			C29.4,40.7,30.5,40.6,31.3,41.3z"/>
		<path fill="#1D2224" d="M17.7,85.7c1.4,0.1,2.2,1.2,3.2,2c-0.7-0.3-1.3-0.6-2-0.8c-0.5-0.2-1-0.5-1.5,0
			C16.9,86.4,17.2,86.1,17.7,85.7z"/>
		<path fill="#D6AED5" d="M33.6,12.2c1,0.7,1.5,1.4,0.4,2.5c-0.3,0.3-0.3,0.9-0.6,1.1C33,16.2,33,15.7,33,15.5
			c-0.7-1.5-1.9-2.7-2.2-4.4l0.1-0.1C31.9,11.1,32.4,12.5,33.6,12.2z"/>
		<path fill="#1D2224" d="M30.8,11.1c0.3,1.7,1.5,2.9,2.2,4.4c-1.5-0.7-2.8-3.2-3.1-5.6c1.3,0.7,2.8,1.1,3.7,2.4
			C32.4,12.6,31.9,11.2,30.8,11.1c0,0,0-0.1-0.1-0.1C30.8,11,30.8,11,30.8,11.1z"/>
		<path fill="#1D2224" d="M44.1,23.4c-0.4-1.3,0.1-2.8,1-3.4c1-0.7,2.8-0.4,4.2,0.8c-1.2,0.1-2.3-0.5-3.4-0.1
			C44.8,21.1,44.7,22.4,44.1,23.4z"/>
		<path fill="#1D2224" d="M38.8,21.2c-1.2-3-0.4-5.3,2.3-5.6C38.4,17,38.5,19.1,38.8,21.2z"/>
		<path fill="#1D2224" d="M26.2,46.6c-0.1-1.1,0.1-2.1-0.1-3.2C26.8,44.4,26.8,45.5,26.2,46.6z"/>
		<path fill="#98C7D0" d="M42.3,76.8c-0.1-0.1-0.3-0.2-0.4-0.3C42.1,76.5,42.3,76.6,42.3,76.8z"/>
		<path fill="#1D2224" d="M28.2,71.1L28.2,71.1C28.3,71.1,28.3,71.1,28.2,71.1C28.3,71.1,28.2,71.1,28.2,71.1z"/>
		<path fill="#98C7D0" d="M42.8,77.1c-0.1,0-0.2-0.1-0.2-0.1S42.7,77.1,42.8,77.1z"/>
		<path fill="#FFFFFF" d="M82.7,42.7c-1.1,0.5-2,0.3-3,0.2c-0.3,0-0.9-0.3-1,0.3c0,0.5,0.4,0.4,0.8,0.5c0.9,0.1,1.8,0.4,2.7,1.1
			C81,45.1,80,44.6,79,44.6c-1.1,0-1.9,0.3-2.7,1c-1,1-1.9,2.1-2.7,3.2c-0.5,0.7-1.1,1.3-1.6,1.9c-0.6,0.7-1.1,0.8-1.6-0.3
			c-1.1-3-2.7-5.9-4.4-8.7c2-0.8,3.9-1.6,5.9-2.3c1.6-0.5,2.6-1.3,2.5-3.2c0-0.4,0.2-0.8,0.3-1.4c0.9,0.7,1.3,1.6,1.1,2.4
			c-0.2,1.1,0.3,1.1,1.1,1.1c1.2-0.1,2.4,0,3.7,0c-0.8,0.9-1.8,1-2.8,1.1c1.4,0.8,3.3-0.1,4.4,1.6c-1.3,0-2.5,0-4.1,0
			C79.9,41.8,81.6,41.4,82.7,42.7z"/>
		<path fill="#FFFFFF" d="M41.4,7.1c-0.1-0.4-0.2-0.8-0.6-0.8c-0.4,0.1-0.3,0.6-0.3,0.9c0,0.7,0,1.5,0.2,2.2c0.1,0.6,0,0.9-0.7,1.2
			c-1.1,0.4-1.5,0.1-1.5-1.1c0-1.5,0.1-3,0.6-4.4c0.4-1.1,1-1.3,1.7-0.3c1.1,1.4,1.8,3,2.5,4.6c0.1,0.2,0.2,0.5-0.2,0.6
			c-0.3,0.1-0.4-0.2-0.5-0.4C42.4,8.8,42.4,7.7,41.4,7.1L41.4,7.1z"/>
		<path fill="#D6AED5" d="M41.4,7.1c0.3,0.8,0.6,1.6,0.8,2.4c0.1,0.3,0.2,0.6-0.2,0.7c-0.3,0.1-0.7,0.2-0.7-0.2
			C41.2,9.1,40.5,8,41.4,7.1L41.4,7.1z"/>
		<path fill="#CCE8F8" d="M52,15.3c0.4-0.6,0.7-0.2,1,0c-0.2,0.1-0.3,0.2-0.5,0.4C52.3,15.6,52.2,15.5,52,15.3z"/>
		<path fill="#1D2224" d="M21.5,84.1C21.5,84,21.5,84,21.5,84.1C21.6,84,21.6,84,21.5,84.1C21.6,84.1,21.5,84.1,21.5,84.1z"/>
		<path fill="#CCE8F8" d="M24.2,82.2c-0.1-0.1-0.3-0.2-0.4-0.3c0.2-0.2,0.5-0.1,0.7,0C24.4,82,24.3,82.1,24.2,82.2z"/>
		<path fill="#FFFFFF" d="M67.6,74c0.3,0.5-0.1,0.9-0.3,1.4c-2.3,4.5-5.1,8.6-9.1,11.8c-0.5,0.4-0.6,0.8-0.7,1.6
			c-0.2,2.3-0.9,4.5-2.6,6.2c-1.1,1.1-2.5,1-3.5-0.3c-1.6-2-2.1-8.8-0.2-10.4c1.4-1.1,1.5-2.2,1.6-3.6c0-0.4,0.3-0.4,0.6-0.4
			c5.5-0.1,10.1-2.3,13.8-6.3C67.3,74,67.4,74.1,67.6,74z"/>
		<path fill="#CCE8F8" d="M67.7,73.8L67.7,73.8c0,0.1,0,0.2-0.1,0.2l-0.1-0.1C67.6,73.9,67.6,73.8,67.7,73.8z"/>
		<path fill="#98C7D0" d="M30.8,11.1c0-0.1,0-0.1-0.1-0.2c0.1,0,0.1,0.1,0.2,0.1C30.9,11,30.8,11.1,30.8,11.1z"/>
	</g>
</g>
</svg>
