<?xml version="1.0" encoding="utf-8"?>
<!-- Generator: Adobe Illustrator 19.2.0, SVG Export Plug-In . SVG Version: 6.00 Build 0)  -->
<svg version="1.1" id="Capa_1" xmlns="http://www.w3.org/2000/svg" xmlns:xlink="http://www.w3.org/1999/xlink" x="0px" y="0px"
	 viewBox="0 0 100 100" enable-background="new 0 0 100 100" xml:space="preserve">
<g id="Capa_2">
</g>
<g id="Capa_1_1_">
	<g>
		<path fill="#FFFFFF" d="M75.1,86.7c0.4-0.1,0.9-0.3,0.9-0.8c0-0.4-0.6-0.5-0.9-0.6c-1.8-0.4-3.6-0.7-5.4-1c-0.3-0.1-0.6,0-0.8,0.2
			c-1.6,1.2-3.3,2.2-5.2,3.1c1.6,1.1,2.2,1.3,3.1,1.1c2-0.4,4-0.9,6-1.4C73.5,87.2,74.3,87,75.1,86.7z"/>
		<path fill="#FFFFFF" d="M65.3,17.3c0.7,1.5,1.5,3.1,1.7,4.8c0.1,0.6,0.1,1.3-0.5,1.7c-0.6,0.4-1.2,0.2-1.8-0.1
			c-0.7-0.4-1.4-1-2-1.6c-1.6-1.5-3.1-3.1-4.5-4.8c-0.4-0.5-0.7-0.6-1.1-0.1c-0.4,0.5-0.9,1-1.4,1.4s-0.4,0.7,0.2,1
			c1.5,0.7,2.8,1.6,4,2.7c1.6,1.4,2.9,3.1,4.2,4.8c0.3,0.4,0.6,0.7,1.1,0.2c2.1-1.9,4.3-3.6,6.1-5.7c0.2-0.2,0.3-0.5,0.8-0.5
			c0.1,0.5-0.4,0.8-0.1,1.2c1.4,2.1,2.7,4.3,4.3,6.2c0.5,0.5,1.1,1.2,1.8,0.9c0.7-0.4,0.3-1.3,0.1-1.9c-0.7-2.2-1.4-4.3-2.1-6.5
			c-0.9-2.6-1.8-5.2-3-7.8c-0.6-1.3-1.6-1.9-3-1.7C68,11.9,66,12.4,64,13.1c-0.6,0.2-0.7,0.5-0.4,1C64.2,15.2,64.7,16.2,65.3,17.3z"
			/>
		<path fill="#FFFFFF" d="M21,30.4c0.8-1.6,1.6-3.1,2.4-4.8c-0.3,0.1-0.4,0.1-0.6,0.1c-1.9,0.9-3.6,2-5.1,3.4
			c-4.6,4.3-7,9.8-8.7,15.6c-1.2,4.6-1.8,9.3-2.1,14c0,0.4,0.1,0.9-0.4,1c-1,0.3-1.4,1.2-1.9,1.9c-1.7,2.7-2.2,5.8-2.5,8.9
			c-0.1,1.4,0,2.8,0.4,4.1c0.3-1.1,0.4-2.2,0.6-3.2c0.3-1.5,0.5-3.1,1-4.6c0.1-0.2,0.1-0.5,0.4-0.5c0.2,0,0.2,0.2,0.2,0.4
			c-0.2,2.8,0.2,5.7,0.3,8.5c0.1,1,0.2,2,0.6,3c0.2-0.6,0.2-1.2,0.2-1.7C6,73,6.3,69.4,6.2,65.8c0-0.2-0.1-0.6,0.2-0.7
			c0.3,0,0.3,0.4,0.3,0.6c-0.1,2,0.7,3.9,1.1,5.8c0.5,2.2,0.9,4.4,1.1,6.9c0.4-0.6,0.5-1,0.5-1.5c0.4-3.5,0.6-7.1-0.3-10.6
			c0-0.2-0.1-0.4-0.1-0.6c0-0.1,0.1-0.3,0.1-0.3c0.2-0.1,0.3,0.1,0.3,0.2C9.9,66,10,66.2,10,66.4c1.1,3.2,1.9,6.5,2.3,9.9
			c-0.2-3.4,0.7-6.8-1-10c-0.1-0.1-0.1-0.3,0.1-0.3c0.1,0,0.3,0,0.3,0.1c0.4,0.4,0.6,0.9,0.7,1.5c0.4,1.8,0.8,3.6,1.4,5.3
			c0.1-1.1-0.1-2.1-0.2-3.1c-0.3-3.5-1.5-6.6-3.9-9.3c-0.2-0.3-0.5-0.8-0.9-0.7C8,60,8.2,59.5,8.2,59.1c0.5-6.3,1.7-12.5,4.2-18.4
			c1.7-4.1,4.2-7.6,8.1-9.9C20.7,30.7,20.9,30.6,21,30.4z"/>
		<path fill="#FFFFFF" d="M76,78.4c-1.5,1.3-3,2.5-4.5,3.8c-0.5,0.5-1,1-1.4,1.5c0.2,0.2,0.5,0.2,0.8,0.3c1.5,0.3,2.9,0.5,4.4,0.9
			c0.6,0.1,1.2,0.3,1.3,1c0.1,0.7-0.6,1-1.1,1.2c-1.1,0.6-2.4,0.7-3.7,1.1c-0.4,0.1-0.9,0-1,0.6s0.2,1,0.6,1.4
			c0.4,0.3,0.8,0.4,1.3,0.5c2.5,0.3,4.9,0.2,7.4,0c0.6-0.1,1.3,0,2-0.5c-1.7-0.4-3.3-0.8-4.8-1.1c-0.2-0.1-0.6-0.1-0.6-0.4
			c0.1-0.4,0.4-0.2,0.7-0.1c1,0.2,1.9,0.6,2.9,0.5c2.3-0.1,4.6-0.2,6.8-0.4c0.5,0,1.3,0.2,1.3-0.3s-0.8-0.5-1.3-0.7
			c-2-0.5-4.1-0.8-6.2-0.7c-0.2,0-0.5,0.1-0.6-0.2c0-0.3,0.3-0.3,0.5-0.3s0.4,0,0.6,0c2.1-0.1,4.1,0.2,6.1,0.8
			c0.4,0.1,1,0.3,1.1-0.2s-0.5-0.5-0.8-0.6c-2.2-0.5-4.4-0.7-6.6-0.7c-0.4,0-0.8,0.2-1.1-0.3c0.3-0.4,0.8-0.3,1.3-0.4
			c2-0.1,3.9,0.3,5.8,0.6c0.3,0,0.7,0.1,0.8-0.2c0.1-0.5-0.4-0.4-0.7-0.5c-0.4-0.1-0.8-0.1-1.2-0.1c-1.9-0.1-3.7-0.1-5.6-0.2
			c-0.3,0-0.7,0.1-1-0.3c0.3-0.3,0.7-0.2,1-0.2c1.5,0,3,0,4.5,0.1c0.3,0,0.8,0.1,0.8-0.3c0-0.5-0.5-0.4-0.8-0.4c-1.7,0-3.3,0-5,0
			c-1.6,0-2.2-0.4-2.6-2c-0.3-1-0.5-2-0.8-3C76.7,78.1,76.4,78.1,76,78.4z"/>
		<path fill="#FFFFFF" d="M86.6,50.1c-9.2-2.4-17.9-1.2-25.8,4.4c-3.7,2.7-6.9,5.8-8.4,10.4c-0.1,0.2-0.1,0.5-0.4,0.4
			c-0.3-0.1-0.1-0.4-0.1-0.6c0.5-1.6,1.2-3,2.2-4.4c2.9-3.9,6.6-6.8,10.9-9c0.5-0.2,0.9-0.4,1-1.1c0.8-4.8,1.4-9.6,0.8-14.4
			c-0.9-7-4.7-11.9-10.6-15.4c-1.3-0.8-1.4-0.7-2.3,0.5c-1.6,2-3.4,3.8-5.6,5.1c-0.5,0.3-1,0.6-1.6,0.8c-0.1,0-0.3,0-0.3,0
			c-0.2-0.2,0-0.3,0.1-0.4c0.2-0.2,0.5-0.3,0.8-0.5c2.2-1.2,4.1-2.8,5.7-4.7c1.2-1.4,2.4-2.7,3.7-4.1c0.5-0.5,0.8-0.9,0.2-1.7
			c0.8,0,0.9,0.5,1.2,0.8c1.7,2,3.5,4.1,5.5,5.8c0.5,0.4,1,0.9,1.7,1.2c0.9,0.4,1.3,0,1.3-0.9c0-0.5-0.1-1-0.3-1.5
			c-1-2.8-2.4-5.4-3.8-7.9c-0.9-1.6-1.9-3.1-3-4.5c-0.9-1.2-2-1.9-3.6-1.7c-1,0.1-1.9,0.2-2.9,0.4c-5.4,1.3-10.3,3.8-15,6.6
			s-9.1,6.1-12.4,10.5c-5.5,7.2-6.9,15.4-5.4,24.2c1.3,7.1,4.5,13.4,8.4,19.3c0.1,0.1,0.1,0.2,0.3,0.2c0.1-2.2-0.1-4.5,0.1-6.8
			c0.4,0.3,0.4,0.7,0.4,0.9c0.1,6.8,0.1,13.5,0.7,20.2c0,0.3,0.6,1.8-0.8,0.6c-0.1-0.1-0.2-0.1-0.3-0.1c-1.8,0.2-3.6,0.2-5.3,0.9
			c-0.2,0.1-0.5,0.1-0.5,0.4s0.3,0.3,0.5,0.3c1.7,0.1,3.5,0.5,5.3,0c0.2-0.1,0.6-0.2,0.8,0.3c-2.9,1-6,1.1-8.8,2.5
			c0.5,0.4,0.9,0.3,1.2,0.3c2.3-0.1,4.5-0.4,6.7-0.9c0.4-0.1,0.8-0.2,1.1-0.3c0.3-0.1,0.7-0.3,0.7,0.1c0.1,0.4-0.4,0.3-0.7,0.4
			c-0.1,0-0.3,0.1-0.4,0.1c-1.9,0.5-3.8,1.1-5.6,2c-0.6,0.3-1.1,0.6-1.6,1.1c-0.1,0.1-0.2,0.2-0.2,0.4c0.1,0.2,0.3,0.2,0.4,0.2
			c1.7-0.4,3.6-0.5,5.2-1.3c1.3-0.6,2.6-1.3,3.8-1.9c0.2-0.1,0.6-0.4,0.8-0.1c0.2,0.4-0.3,0.4-0.5,0.6c-0.4,0.2-0.8,0.4-1.2,0.6
			c-1.6,0.8-3.1,1.5-4.5,2.6c-0.4,0.3-0.9,0.6-1.3,1.4c1.4-0.5,2.5-0.8,3.6-1.3c2.2-0.9,4.7-1.3,6.8-2.8c0.1-0.1,0.3-0.2,0.4,0
			c0.2,0.3-0.1,0.4-0.2,0.5c-1.2,1-2.4,2-3.6,3c-0.4,0.3-0.9,0.7-1,1.2c0.2,0.2,0.4,0.1,0.5,0.1c2.5-0.9,5-2,7.2-3.5
			c1.3-0.9,2-2.2,2.1-3.7c0.3-5.1,1-10.3,0.9-15.4c0-0.4,0-0.7,0-1.1c0-0.2,0-0.6,0.3-0.6s0.2,0.4,0.2,0.6s0,0.5,0,0.7
			c0,3.6-0.2,7.1-0.5,10.6c-0.1,0.7,0.1,1.2,0.7,1.7c1.4,1.1,2.8,2.4,4.2,3.5c0.7,0.6,1.6,1.1,2.6,1.5c-0.1-0.4-0.2-0.7-0.3-0.9
			c0-0.2-0.1-0.4,0.1-0.4c0.3-0.1,0.3,0.1,0.4,0.3c0.5,1.5,1.7,2.3,3,3c4.8,2.3,9.8,3,15,2.5c0.3,0,0.7,0,0.8-0.4
			c0.1-0.4-0.3-0.5-0.6-0.7c-3.1-2.4-6.7-3.6-10.4-4.5c-0.4-0.1-0.8,0-1.2-0.4c0.4-0.3,0.8-0.2,1.2-0.1c1.5,0.2,2.9,0.7,4.3,1.2
			c0.8,0.3,1.4,0.2,2.2-0.1c1.6-0.8,3.1-1.6,4.4-2.7c4-3.4,7.8-7,12.2-9.8c0.1-0.1,0.3-0.2,0.2-0.4c-0.6-1.3,0.3-0.5,0.6-0.4
			c2.4,0.9,4.9,1.2,7.4,0.7c9.4-1.8,10.7-11.5,7.4-17.2C93.9,53.6,90.7,51.1,86.6,50.1z M56.5,86.9c1.9,0.7,3.7,1.3,5.6,2
			c0.6,0.2,1.3,0.4,1.7,1c0.4,0.5,0.3,0.9-0.4,0.9c-3-0.1-5.9-0.7-8.7-1.9c-0.2-0.1-0.6-0.2-0.4-0.5c0.2-0.3,0.5,0,0.7,0.1
			c2.4,1.1,5.1,1.5,7.7,1.8c0.2,0,0.3,0,0.5,0c0-0.1,0-0.2,0.1-0.3c-2.4-1.2-5.1-1.6-7.6-2.9C56.1,86.6,56.3,86.8,56.5,86.9z
			 M63.4,73.8c-0.3,1.2-2,2.6-3.2,2.6c-1.1,0-3-1.4-3.2-2.4c0-0.1-0.1-0.3,0-0.4c0.2-0.1,0.3,0,0.4,0.1c0.4,0.4,0.7,0.9,1.1,1.3
			c1.2,1.1,2.5,1,3.6-0.2c0.3-0.4,0.5-0.8,0.8-1.2c0.1-0.1,0.2-0.3,0.4-0.2C63.5,73.5,63.4,73.7,63.4,73.8z M73.1,76.1
			c-0.7,0.7-2.1,1.3-3.3,1.3c-0.8,0-1.6-0.4-2.2-1.1c-0.1-0.2-0.3-0.4-0.1-0.6c0.2-0.2,0.3,0.1,0.5,0.2c1.5,1.2,2.3,1.3,3.9,0.3
			c0.3-0.2,0.5-0.4,0.8-0.6c0.2-0.1,0.3-0.3,0.5-0.1C73.5,75.8,73.2,75.9,73.1,76.1z"/>
		<path d="M80.1,48.4c-4.3-0.2-8.6,0.4-12.7,1.9c-0.7,0.2-1,0.2-0.8-0.6c0.5-2.5,0.7-5.1,0.9-7.7c0.3-4.5-0.2-8.9-2.2-13
			c-0.3-0.5-0.2-0.8,0.2-1.1c1.8-1.5,3.7-3.1,5.3-4.8c0.5-0.5,0.7-0.4,1.1,0.2c1.2,1.8,2.5,3.6,3.7,5.4c0.5,0.7,1.1,1.2,1.9,1.5
			c0.9,0.3,1.4-0.1,1.5-1s-0.2-1.8-0.5-2.7c-0.9-2.6-1.7-5.2-2.7-7.8c-0.7-1.9-1.3-3.8-2.2-5.5c-0.9-1.8-2.1-2.3-4-2
			c-2,0.4-4,0.8-6,1.5c-0.6,0.2-0.9,0.1-1.2-0.4c-0.6-1.1-1.4-2.1-2-3.1c-1.6-2.6-3.9-3.4-7-2.7c-5.4,1.2-10.3,3.5-15,6.3
			c-5.3,3.1-10.2,6.7-13.9,11.7c-0.3,0.4-0.7,0.5-1,0.7c-1.8,0.7-3.5,1.7-5,2.9c-3.8,3.1-6.3,7.1-8.2,11.5
			c-2.4,5.9-3.6,12.1-3.9,18.5c0,0.5,0,0.9-0.4,1.3c-2.4,2.3-3.5,5.2-4,8.4c-0.4,2.7-0.6,5.4,0.2,8c0.1,0.3,0.1,0.8,0.6,0.8
			s0.3-0.5,0.4-0.9c0.3-2,0.6-3.9,1-5.9c0.2,1.5,0.2,3,0.4,4.4c0.2,1.7,0.2,3.5,1,5.1c0.1,0.3,0.2,0.7,0.6,0.6s0.3-0.5,0.3-0.8
			c0.1-1.6,0.2-3.3,0.3-4.9c0.1-1.4,0.2-2.7,0.3-4.1c0.2,0.4,0.3,0.7,0.4,1.1c0.7,2.7,1.1,5.4,1.3,8.1c0,0.3-0.1,0.8,0.3,0.8
			c0.4,0.1,0.5-0.4,0.6-0.8c0.4-0.9,0.6-1.9,0.8-2.8c0.3-1.8,0.2-3.6,0.2-5.5c0.3,0.3,0.2,0.6,0.3,0.8c0.5,2,0.6,4.1,0.9,6.1
			c0.1,0.3,0,0.8,0.4,0.8s0.3-0.5,0.4-0.8c0.4-1.8,0.3-3.5,0.4-5.3c0.3,0.8,0.4,1.6,0.7,2.4c0.1,0.3,0,0.7,0.4,0.6
			c0.3-0.1,0.2-0.4,0.2-0.7c0-1.9,0-3.8-0.2-5.8c-0.4-3.9-2-7.1-4.8-9.8C9,59,9,58.7,9,58.2c0.5-5.4,1.5-10.6,3.4-15.7
			c1.6-4.1,3.7-7.7,7.2-10.4c0.3-0.2,0.5-0.5,0.9-0.5c0,0.1,0,0.2,0,0.3c-2.7,7.9-2,15.6,0.8,23.3c1.7,4.7,4.1,9,6.9,13.1
			c0.3,0.4,0.6,0.8,0.6,1.4c-0.1,3.7,0.3,7.4,0.6,11c0.1,1.4,0.1,1.4-1.4,1.5c-1.6,0.1-3.2,0.3-4.7,0.9c-0.4,0.2-0.9,0.4-0.8,1
			c0.1,0.5,0.5,0.6,1,0.7c0.6,0.1,1.2,0.2,2.1,0.3c-1.5,0.3-2.7,0.6-3.9,1.1c-0.5,0.2-1.3,0.4-1.2,1.1c0.1,0.7,0.9,0.6,1.5,0.6
			c1,0,2,0,3-0.1c-0.4,0.2-0.7,0.4-1.1,0.6c-0.7,0.4-1.5,0.8-2,1.6c-0.5,0.7-0.2,1.2,0.6,1.2c0.5,0,1-0.2,1.4-0.2
			c0.6-0.1,1.1-0.3,1.8-0.2c-0.3,0.2-0.4,0.4-0.6,0.5c-0.3,0.3-0.8,0.7-0.5,1.2s0.8,0.4,1.2,0.2c0.7-0.2,1.3-0.4,1.9-0.7
			c1.6-0.6,3.2-1.1,4.8-1.7c-0.5,0.8-1.2,1.3-1.7,1.9c-0.3,0.3-0.7,0.8-0.4,1.3c0.3,0.5,0.9,0.3,1.4,0.2c2.6-0.9,5-2,7.3-3.6
			c1.3-0.9,2.1-2.1,2.2-3.7c0.1-0.9,0.1-1.8,0.2-2.6c0-0.3-0.1-0.7,0.3-0.9c0.3-0.1,0.5,0.2,0.7,0.4c2.8,2.7,6.1,4.6,9.5,6.5
			s7.1,2.5,10.9,2.8c1.5,0.1,2.9,0.1,4.4-0.1c0.6-0.1,1.4-0.1,1.6-0.8c0.2-0.8-0.5-1-1-1.4c-0.3-0.3-0.8-0.5-1.1-1
			c0.9-0.2,1.8-0.4,2.6-0.6c0.5-0.1,0.8,0,0.9,0.6c0.3,1.1,1,1.7,2.1,1.8c3.2,0.5,6.3,0.4,9.4-0.1c0.4-0.1,0.7-0.2,0.9-0.5
			c0.2-0.5-0.3-0.6-0.4-1.1c1.9-0.1,3.7-0.1,5.5-0.1c1.3-0.1,1.4-0.2,1.3-1.4c0-0.1,0.1-0.3,0.2-0.4c0.2-0.4,0-0.7-0.2-1.1
			c-0.4-1-0.8-2.1-2.2-2.1c0,0,0,0-0.1-0.1C86.5,83,85.5,83,84.6,83c-1.4,0-2.7,0.1-4.1,0.1c-1.4,0.1-1.9-0.3-2.3-1.6
			c-0.3-1.1-0.6-2.1-0.9-3.2c-0.2-0.5-0.1-0.9,0.4-1.3c0.9-0.6,1.8-1.2,2.7-1.9c0.8-0.6,1.5-0.6,2.5-0.4c5.1,1.1,9.6,0.1,13-4.1
			c3.2-4,3.4-11.3-1.2-16.2C90.8,50.2,85.7,48.7,80.1,48.4z M64,13.1c2-0.7,4.1-1.2,6.2-1.5c1.4-0.2,2.4,0.4,3,1.7
			c1.2,2.5,2.1,5.1,3,7.8c0.7,2.2,1.5,4.3,2.1,6.5c0.2,0.6,0.6,1.5-0.1,1.9s-1.4-0.3-1.8-0.9c-1.6-1.9-2.9-4.1-4.3-6.2
			c-0.3-0.5,0.3-0.8,0.1-1.2c-0.5,0-0.6,0.3-0.8,0.5c-1.8,2.1-4.1,3.9-6.1,5.7c-0.5,0.5-0.8,0.2-1.1-0.2c-1.3-1.7-2.6-3.3-4.2-4.8
			c-1.2-1.1-2.5-2-4-2.7c-0.6-0.3-0.6-0.5-0.2-1c0.5-0.4,0.9-0.9,1.4-1.4c0.4-0.5,0.7-0.4,1.1,0.1c1.4,1.7,2.9,3.3,4.5,4.8
			c0.6,0.6,1.3,1.1,2,1.6c0.6,0.3,1.2,0.5,1.8,0.1c0.6-0.4,0.6-1,0.5-1.7c-0.3-1.7-1-3.2-1.7-4.8c-0.5-1.1-1.1-2.2-1.7-3.2
			C63.3,13.6,63.4,13.3,64,13.1z M12.5,40.7C10,46.6,8.8,52.8,8.4,59.1c0,0.4-0.3,0.9,0.6,0.7c0.4-0.1,0.6,0.4,0.9,0.7
			c2.3,2.7,3.6,5.8,3.9,9.3c0.1,1,0.3,2,0.2,3.1c-0.6-1.8-1-3.6-1.4-5.3c-0.1-0.5-0.3-1.1-0.7-1.5C11.6,66,11.5,66,11.4,66
			s-0.1,0.2-0.1,0.3c1.7,3.2,0.8,6.6,1,10c-0.3-3.4-1.2-6.7-2.3-9.9c0-0.2-0.1-0.4-0.1-0.6c-0.1-0.2-0.2-0.3-0.3-0.2
			c-0.1,0-0.1,0.2-0.1,0.3c0,0.2,0.1,0.4,0.1,0.6c0.8,3.5,0.7,7.1,0.3,10.6c0,0.4-0.1,0.9-0.5,1.5c-0.2-2.4-0.6-4.7-1.1-6.9
			c-0.4-1.9-1.2-3.8-1.1-5.8c0-0.2,0-0.6-0.3-0.6S6.6,65.7,6.7,66c0.1,3.6-0.2,7.1-0.4,10.7c0,0.6,0,1.1-0.2,1.7c-0.4-1-0.5-2-0.6-3
			c-0.2-2.8-0.6-5.6-0.3-8.5c0-0.2,0.1-0.4-0.2-0.4c-0.3,0-0.4,0.3-0.4,0.5c-0.5,1.5-0.7,3-1,4.6c-0.2,1.1-0.4,2.2-0.6,3.2
			c-0.4-1.4-0.5-2.7-0.4-4.1c0.2-3.1,0.8-6.2,2.5-8.9C5.6,61,6,60.2,7,59.9c0.5-0.2,0.3-0.7,0.4-1c0.3-4.7,0.8-9.4,2.2-13.9
			c1.7-5.9,4.1-11.4,8.7-15.6c1.5-1.4,3.2-2.5,5.1-3.4c0.1-0.1,0.3-0.1,0.6-0.1c-0.8,1.7-1.6,3.2-2.4,4.8c-0.1,0.2-0.3,0.3-0.4,0.4
			C16.7,33.1,14.2,36.6,12.5,40.7z M66.7,88.8c-0.8,0.2-1.5-0.1-3.1-1.1c1.9-0.9,3.6-1.9,5.2-3.1c0.2-0.2,0.5-0.3,0.8-0.2
			c1.8,0.3,3.6,0.6,5.4,1c0.4,0.1,0.9,0.1,0.9,0.6s-0.5,0.7-0.9,0.8c-0.8,0.3-1.6,0.5-2.4,0.7C70.7,87.9,68.7,88.4,66.7,88.8z
			 M77.7,81.7c0.4,1.6,0.9,2,2.6,2s3.3,0,5,0c0.3,0,0.8-0.1,0.8,0.4c0,0.4-0.5,0.3-0.8,0.3c-1.5-0.2-3-0.1-4.5-0.1
			c-0.3,0-0.7-0.1-1,0.2c0.3,0.4,0.7,0.2,1,0.3c1.9,0.1,3.7,0.1,5.6,0.2c0.4,0,0.8,0.1,1.2,0.1c0.3,0.1,0.8,0,0.7,0.5
			c-0.1,0.4-0.5,0.3-0.8,0.2c-1.9-0.3-3.9-0.6-5.8-0.6c-0.4,0-0.9-0.1-1.3,0.4c0.3,0.5,0.7,0.3,1.1,0.3c2.2,0,4.4,0.2,6.6,0.7
			c0.3,0.1,1,0.1,0.8,0.6c-0.1,0.5-0.7,0.3-1.1,0.2c-2-0.5-4-0.8-6.1-0.8c-0.2,0-0.4,0-0.6,0s-0.5,0-0.5,0.3s0.3,0.2,0.6,0.2
			c2.1-0.1,4.2,0.2,6.2,0.7c0.5,0.1,1.3,0.1,1.3,0.7c0,0.5-0.8,0.3-1.3,0.3c-2.3,0.1-4.6,0.2-6.8,0.4c-1,0.1-1.9-0.3-2.9-0.5
			c-0.2,0-0.6-0.2-0.7,0.1c-0.1,0.3,0.3,0.4,0.6,0.4c1.5,0.4,3.1,0.7,4.8,1.1c-0.7,0.4-1.4,0.4-2,0.5c-2.5,0.2-4.9,0.2-7.4,0
			c-0.5-0.1-0.9-0.2-1.3-0.5c-0.4-0.4-0.7-0.8-0.6-1.4s0.6-0.5,1-0.6c1.2-0.4,2.5-0.5,3.7-1.1c0.5-0.3,1.1-0.6,1.1-1.2
			c-0.1-0.7-0.7-0.9-1.3-1c-1.5-0.3-2.9-0.6-4.4-0.9c-0.3-0.1-0.6,0-0.8-0.3c0.5-0.5,0.9-1.1,1.4-1.5c1.5-1.3,3-2.5,4.5-3.8
			c0.5-0.4,0.7-0.3,0.9,0.3C77.1,79.7,77.4,80.7,77.7,81.7z M88.7,74.5c-2.5,0.5-5,0.2-7.4-0.7c-0.3-0.1-1.2-0.9-0.6,0.4
			c0.1,0.2-0.1,0.3-0.2,0.4c-4.5,2.8-8.2,6.4-12.2,9.8c-1.3,1.1-2.9,1.9-4.4,2.7c-0.7,0.3-1.4,0.4-2.2,0.1c-1.4-0.5-2.8-1-4.3-1.2
			c-0.4-0.1-0.8-0.2-1.2,0.1c0.3,0.4,0.8,0.4,1.2,0.4c3.8,0.8,7.3,2.1,10.4,4.5c0.2,0.2,0.7,0.3,0.6,0.7C68.2,92,67.8,92,67.5,92
			c-5.2,0.5-10.3-0.2-15-2.5c-1.3-0.6-2.5-1.5-3-3c-0.1-0.2-0.1-0.4-0.4-0.3c-0.2,0.1-0.1,0.3-0.1,0.4c0.1,0.3,0.2,0.5,0.3,0.9
			c-1-0.4-1.8-0.9-2.6-1.5c-1.4-1.2-2.8-2.4-4.2-3.5c-0.6-0.5-0.7-1-0.7-1.7c0.3-3.5,0.5-7.1,0.5-10.6c0-0.2,0-0.5,0-0.7
			s0.1-0.5-0.2-0.6c-0.4,0-0.3,0.4-0.3,0.6c-0.1,0.4-0.1,0.7,0,1.1c0.1,5.2-0.5,10.3-0.9,15.4c-0.1,1.5-0.7,2.8-2.1,3.7
			c-2.2,1.5-4.7,2.6-7.2,3.5c-0.1,0.1-0.3,0.1-0.5-0.1c0.1-0.6,0.6-0.9,1-1.2c1.2-1,2.4-2,3.6-3c0.2-0.1,0.4-0.3,0.2-0.5
			c-0.1-0.2-0.3-0.1-0.4,0c-2,1.5-4.5,1.8-6.8,2.8c-1.1,0.5-2.3,0.8-3.6,1.3c0.4-0.8,0.9-1.1,1.3-1.4c1.4-1,2.9-1.8,4.5-2.6
			c0.4-0.2,0.8-0.4,1.2-0.6c0.2-0.1,0.7-0.2,0.5-0.6c-0.2-0.3-0.5,0-0.8,0.1c-1.3,0.6-2.5,1.3-3.8,1.9c-1.6,0.8-3.5,0.9-5.2,1.3
			c-0.2,0-0.3,0-0.4-0.2s0.1-0.3,0.2-0.4c0.5-0.5,1-0.8,1.6-1.1c1.8-0.9,3.7-1.5,5.6-2c0.1,0,0.3-0.1,0.4-0.1c0.3-0.1,0.7,0,0.7-0.4
			c-0.1-0.4-0.5-0.2-0.7-0.1c-0.4,0.1-0.8,0.2-1.1,0.3c-2.2,0.5-4.4,0.8-6.7,0.9c-0.4,0-0.8,0.1-1.2-0.3c2.8-1.4,5.9-1.5,8.8-2.5
			c-0.2-0.5-0.6-0.3-0.8-0.3c-1.8,0.5-3.5,0.1-5.3,0c-0.2,0-0.5,0-0.5-0.3s0.3-0.3,0.5-0.4c1.7-0.7,3.5-0.7,5.3-0.9
			c0.1,0,0.2,0,0.3,0.1c1.3,1.1,0.8-0.4,0.8-0.6c-0.6-6.7-0.7-13.5-0.7-20.2c0-0.3,0.1-0.6-0.4-0.9c-0.2,2.4,0,4.6-0.1,6.8
			c-0.2,0.1-0.3-0.1-0.3-0.2c-3.9-6-7.2-12.2-8.4-19.3c-1.6-8.8-0.2-17,5.4-24.2c3.4-4.4,7.7-7.7,12.4-10.5s9.6-5.3,15-6.6
			c1-0.2,1.9-0.3,2.9-0.4c1.6-0.2,2.7,0.5,3.6,1.7c1.1,1.4,2.1,2.9,3,4.5c1.4,2.6,2.9,5.1,3.8,7.9c0.2,0.5,0.3,1,0.3,1.5
			c0,0.9-0.5,1.2-1.3,0.9c-0.6-0.3-1.1-0.8-1.7-1.2c-2-1.7-3.8-3.8-5.5-5.8c-0.3-0.3-0.4-0.7-1.2-0.8c0.6,0.8,0.2,1.2-0.2,1.7
			c-1.3,1.3-2.5,2.7-3.7,4.1c-1.6,1.9-3.5,3.5-5.7,4.7c-0.3,0.1-0.5,0.3-0.8,0.5c-0.1,0.1-0.3,0.2-0.1,0.4c0.1,0.1,0.3,0.1,0.3,0
			c0.5-0.3,1.1-0.5,1.6-0.8c2.2-1.3,4-3.1,5.6-5.1c1-1.2,1-1.3,2.3-0.5C62.3,24,66.1,29,67,35.9c0.6,4.8,0,9.6-0.8,14.4
			c-0.1,0.6-0.5,0.8-1,1.1c-4.3,2.2-8,5.1-10.9,9c-1,1.3-1.7,2.8-2.2,4.4c-0.1,0.2-0.2,0.5,0.1,0.6s0.4-0.2,0.4-0.4
			c1.5-4.5,4.7-7.7,8.4-10.4c7.9-5.6,16.6-6.8,25.8-4.4c4.1,1.1,7.3,3.5,9.5,7.2C99.4,62.9,98.1,72.7,88.7,74.5z"/>
		<path d="M55.7,87c2.4,1.3,5.2,1.8,7.6,2.9c0,0.1,0,0.2-0.1,0.3c-0.2,0-0.3,0-0.5,0c-2.6-0.4-5.2-0.7-7.7-1.8
			c-0.2-0.1-0.5-0.3-0.7-0.1c-0.2,0.3,0.2,0.4,0.4,0.5c2.8,1.2,5.7,1.8,8.7,1.9c0.7,0,0.8-0.4,0.4-0.9s-1.1-0.7-1.7-1
			c-1.9-0.7-3.7-1.3-5.6-2C56.3,86.8,56.1,86.6,55.7,87z"/>
		<path d="M63.3,73.4c-0.2-0.1-0.3,0.1-0.4,0.2c-0.3,0.4-0.5,0.8-0.8,1.2c-1.1,1.3-2.4,1.3-3.6,0.2c-0.4-0.4-0.7-0.8-1.1-1.3
			c-0.1-0.1-0.2-0.2-0.4-0.1c-0.1,0.1-0.1,0.2,0,0.4c0.3,1,2.2,2.4,3.2,2.4c1.1,0,2.9-1.4,3.2-2.6C63.4,73.7,63.5,73.5,63.3,73.4z"
			/>
		<path d="M72.7,75.7c-0.3,0.2-0.5,0.4-0.8,0.6c-1.6,1-2.5,0.9-3.9-0.3c-0.1-0.1-0.3-0.4-0.5-0.2c-0.2,0.2,0,0.4,0.1,0.6
			c0.6,0.8,1.4,1.1,2.2,1.1c1.1,0,2.6-0.6,3.3-1.3c0.1-0.2,0.4-0.3,0.2-0.6C73.1,75.4,72.9,75.6,72.7,75.7z"/>
	</g>
</g>
</svg>
