<?xml version="1.0" encoding="utf-8"?>
<!-- Generator: Adobe Illustrator 19.2.0, SVG Export Plug-In . SVG Version: 6.00 Build 0)  -->
<svg version="1.1" id="Capa_1" xmlns="http://www.w3.org/2000/svg" xmlns:xlink="http://www.w3.org/1999/xlink" x="0px" y="0px"
	 viewBox="0 0 100 100" enable-background="new 0 0 100 100" xml:space="preserve">
<g id="Capa_2">
</g>
<g id="Capa_1_1_">
	<g>
		<path fill="#FFFFFF" d="M33.8,54.1c-0.6,0.7-0.2,1.1,0.4,1.6c0.5,0.4,0.9,0.9,1.3,1.3c0.7,0.6,1.7,0.5,2.1-0.3
			c0.7-1.5,1.5-3,2.3-4.3c0.4-0.7,0.2-0.8-0.5-0.9c-0.7-0.1-1.5-0.2-2.2-0.4c-2-0.4-3.3-1.9-4.7-3.2c-0.8-0.8-1.7-1.2-2.9-1
			c0.4,0.5,0.9,0.7,1.4,0.8c0.6,0.1,1.1,0.2,0.9,1c-0.1,0.2,0.1,0.5,0.2,0.8c0.7,1.2,1.2,2.5,1.6,3.9C33.9,53.6,34,53.9,33.8,54.1z"
			/>
		<path fill="#FFFFFF" d="M39,61c0.1,0.4,0.5,0.1,0.8,0.1c0.6,0.1,1.2-0.7,1.6-0.3c0.3,0.4,0.2,1.2,0.3,1.8c0,0.1,0,0.1,0.1,0.4
			c0.1-0.2,0.2-0.3,0.3-0.3c0.6-0.6,0.7-1.5,0.3-2.2s-1.1-0.3-1.7-0.2c-0.4,0-0.7,0.1-1.1,0.2C39.3,60.6,38.9,60.7,39,61z"/>
		<path fill="#FFFFFF" d="M35.9,58.7c-0.5,0.7-0.8,1.6-0.8,2.8c0.1,0.9,0.3,2.1,0.9,3.2c0.7,1.2,1.9,1.6,3.2,1.1
			c1.2-0.4,1.9-1.7,1.7-3c-0.1-0.3,0-0.7-0.3-0.8c-0.4-0.1-0.5,0.3-0.7,0.6c-0.4,0.6-0.9,1-1.6,0.8c-0.7-0.2-1-0.8-1.1-1.5
			c-0.1-0.4,0-0.8,0-1.1c0.2-1.2,1-1.6,2.1-1.2c0.2,0.1,0.4,0.1,0.4-0.1c0-0.1,0-0.3-0.1-0.4C39,57.8,36.7,57.5,35.9,58.7z"/>
		<path fill="#FFFFFF" d="M35.2,66c0.2-0.1,0.1-0.3,0-0.5c-0.2-0.5-0.6-0.3-1-0.3c-0.2,0-0.3,0-0.5,0c-0.4-0.1-0.8-0.2-0.9-0.7
			c0-0.5,0.3-0.7,0.8-0.8c0.4-0.1,0.9-0.1,0.8-0.8c-0.1-0.6-0.3-1.1-1-1c-0.5,0-1-0.1-1.3-0.7c-0.2,0.8-0.1,1.5,0,2.2
			c0.2,1.2,0.8,2.2,2,2.7C34.4,66.1,34.8,66.2,35.2,66z"/>
		<path fill="#FFFFFF" d="M27.8,78.6c-0.1-0.5-0.6-0.5-1-0.6c-1.9-0.1-3.1,1.1-3.3,3.5c1-1,2.3-1.5,3.6-2.1
			C27.5,79.3,27.8,79.1,27.8,78.6z"/>
		<path fill="#FFFFFF" d="M18.7,82.6c-0.8-0.1-3,1-3.2,1.7c-0.1,0.4,0,0.6,0.4,0.5c0.5-0.2,1.1-0.2,1.6-0.2c0.6,0,1.6-0.9,1.6-1.5
			C19.1,82.8,18.9,82.7,18.7,82.6z"/>
		<path fill="#FFFFFF" d="M58.2,18.1c4.2,3.2,8.9,5.3,14.3,5.7c0.6,0,1-0.2,0.9-0.7c0-0.8-0.6-0.3-0.9-0.4c-0.3,0-0.7,0-1-0.1
			c-4.5-0.9-8.8-2.1-12.2-5.5c-0.1-0.1-0.2-0.2-0.3-0.3c-0.6-0.4-0.8,0.2-1.1,0.5C57.5,17.8,58,17.9,58.2,18.1z"/>
		<path fill="#FFFFFF" d="M32.7,68.6c-0.1,0-0.1,0-0.2,0c-2.8,0.4-3.9,1.7-4,4.5c0,1.8,0.2,3.6,0.3,5.4c0,0.8-0.3,1.3-1.1,1.5
			c-1.1,0.3-2.1,0.9-2.9,1.6c-0.2,0.2-0.5,0.4-0.3,0.8c0.1,0.3,0.5,0.2,0.7,0.2c3.5-0.4,6.8-1.1,10.2-2c0.7-0.2,1-0.6,1-1.3
			c0-0.7,0-1.4,0-2.1c0-0.8,0.2-1.4,1.4-0.9c-1.8-2.2-2.7-4.1-3-6.2C34.4,68.5,34.4,68.5,32.7,68.6z"/>
		<path fill="#FFFFFF" d="M68.6,38.3c1.1-3.4,2-6.9,2.7-10.5c0.2-0.8,0.1-1.1-0.7-1.1c-1.9-0.2-3.8-0.8-5.6-1.5
			c-0.2-0.1-0.4-0.3-0.7-0.1c0,0.4,0.3,0.7,0.2,1.1c-0.1,0.3-0.5,0.5-0.5,0.3c0-1.3-2.1-1-1.7-2.5c0,0-0.2-0.1-0.2-0.2
			c-0.9-0.5-1.9-1-2.8-1.5c-0.2,0.3,0.3,0.7-0.1,0.9c-0.4,0.2-0.6-0.2-0.8-0.3c-0.5-0.4-1-0.3-1.6-0.2c-0.2,0-0.5,0.2-0.6-0.2
			c-0.1-0.3,0.2-0.5,0.4-0.5c0.4-0.1,0.8-0.2,1.4-0.4c-0.7-0.3-1.1-1.4-1.8-0.5c-1.9,2.3-4.4,3.7-6.7,5.4c-1.4,1-2.9,1.3-4.6,1
			c-0.7-0.1-1.4-0.2-2.1-0.3c-4.6-0.6-7.9,2-8.3,6.5c0,0.2,0,0.3-0.1,0.5c-0.4,3.2,1.1,6.3,3.9,7.9c2,1.2,4.2,1.8,6.4,2.4
			c2.5,0.7,5,0.4,7.6,0.2c5.1-0.2,8.7-2.8,11.1-7.2c0.2-0.4,0.2-1.2,0.7-1c0.6,0.2,0.1,0.9-0.1,1.3c-1.7,3.3-4.2,5.6-7.6,6.8
			c-3.1,1.2-6.4,1-9.7,0.9c-0.6,0-1,0.1-1.4,0.5c-2.6,3.1-5,6.4-6.7,10.1c-0.3,0.6-0.2,0.9,0.4,1.2c0.5,0.2,0.9,0.6,1.1,1
			c0.4,0.6,0.8,0.8,1.5,0.7s1.4,0.2,1.4,0.9c0.1,1.4,0.8,1.2,1.6,0.8c0.2-0.1,0.3-0.1,0.5-0.1c2.6-0.7,5.4-1,7.9-2.3
			c0.8-0.4,1.6-0.7,2.3-1.1c0.2-0.1,0.5-0.2,0.6,0c0.2,0.3-0.1,0.5-0.3,0.6s-0.4,0.2-0.5,0.3c-3.1,1.7-6.5,2.5-10,3.2
			c-2,0.4-3,1.3-3.2,3.1c0.4-0.4,0.6-1.4,1.3-1c0.6,0.4-0.3,0.9-0.4,1.4c0,0.1-0.1,0.2-0.1,0.3c-0.2,0.7-0.3,1.3,0.2,1.9
			c0.2-0.9,0.4-1.8,0.8-2.6c0.2-0.3,0.3-0.7,0.7-0.5c0.4,0.2,0.1,0.6,0,0.9c-0.4,0.8-0.6,1.7-0.5,2.6c0,0.2,0.1,0.4,0.4,0.4
			c0.3,0,0.3-0.3,0.2-0.5c-0.2-0.7-0.1-1.4,0.2-2c0.1-0.3,0.3-0.6,0.7-0.4c0.3,0.2,0.1,0.5,0,0.7c-0.2,0.7-0.4,1.5,0.3,2.3
			c0.1-0.2,0.1-0.4,0.1-0.5c0-0.5,0.1-1,0.3-1.4c0.6-0.8,0.8,0.4,1.2,0.3h0.1c3,0.6,6,0.8,8.9-0.2c0.3-0.1,0.6-0.3,0.8,0.1
			s-0.3,0.5-0.5,0.6c-1.2,0.4-2.5,0.6-3.7,0.7c-1.8,0.1-3.6-0.1-5.3-0.4c-0.6-0.1-1.2-0.2-1.1,0.8c0.1,0.4-0.2,0.9-0.5,0.8
			c-0.8-0.2-1.7,0-2.5-0.3c-1.4-0.5-2.3-1.5-2.6-2.9c-0.1-0.7-0.4-0.7-0.8-0.3c-0.6,0.6-1.3,0.9-2.1,1c-0.6,0-0.6,0.3-0.4,0.8
			c0.4,1,0.7,1.9,1.1,2.9c0.3,0.8,0.6,1.7,0.8,2.5c0.2,0.9-0.2,1.5-1,1.8s-1.2-0.3-1.6-0.8c-0.2-0.4-0.3-0.7-0.5-1.1
			c-0.5-1.4-0.9-2.8-1.4-4.1c-0.2,2.8,0.8,5.1,2.7,7.1c0.4,0.5,0.8,0.6,1.1-0.1c0.5-0.9,1.2-1.8,2.3-2.1c2-0.7,4.1-0.6,6.2-0.4
			c0.3,0,0.7,0.1,0.7,0.5s-0.5,0.3-0.8,0.3c-1.5-0.3-3,0-4.5,0.1c-2,0.1-3.3,1.4-3.7,3.3c-0.3,1.4-0.1,2.7,0,4.1
			c0.1,0.9-0.3,1.4-1.2,1.5c-1.1,0.1-2.2,0.5-3.2,1.1c-0.3,0.1-0.6,0.3-0.5,0.7c0.1,0.3,0.5,0.2,0.7,0.2c2.3,0.1,4.7,0,7,0.2
			c1.1,0.1,2.1,0,3.2,0c0.7,0,1.1-0.3,1.2-1.1c0.1-0.8,0.3-1.6,0.4-2.3c0.1-0.8,0.4-1.1,1.2-0.9c4.3,1,8.4,0.1,12.3-1.6
			c0.3-0.1,0.5-0.5,0.8-0.1c0.2,0.3-0.1,0.6-0.4,0.7c-1.1,0.6-2.1,1.3-3.2,1.8c-3.2,1.5-5.4,4.1-7.1,7.1c-0.3,0.5-0.6,0.6-1.1,0.5
			c-1.8-0.2-3.1,0.7-4.2,2c0.2,0,0.3-0.1,0.5-0.1c0.3-0.2,0.7-0.4,0.9,0s-0.2,0.5-0.4,0.7c-0.3,0.3-0.7,0.5-0.8,1.1
			c0.3-0.1,0.4-0.2,0.6-0.3c0.3-0.1,0.6-0.4,0.8-0.1c0.3,0.3-0.1,0.5-0.3,0.8c-0.4,0.5-0.8,1-0.8,1.8c0.5-0.3,0.7-0.7,1.1-1.1
			c0.3-0.3,0.7-1,1.2-0.6s-0.2,0.8-0.3,1.3l0.1,0.1c1.7-1.4,1.7-1.4,2.1-0.5c1.1-0.8,1.6-2.3,1.3-3.9c-0.1-0.4-0.2-0.7,0.1-1.1
			c1.3-2.1,2.6-4,4.8-5.2c2.1-1.1,4.2-2.2,6.2-3.5c3-1.9,4.7-4.5,5.2-8c0.2-1.6,0.4-3.3,0.5-4.9c0.3-5-0.2-10-0.8-14.9
			C66.8,47.6,67.1,42.9,68.6,38.3z"/>
		<ellipse cx="23.6" cy="81.6" rx="0" ry="0"/>
		<path d="M16.1,47.3c1,1.5,0.4,2.9-0.1,4.3c0-0.8,0-1.6,0-2.4c0-0.2,0-0.4-0.2-0.5c-0.1,0-0.3,0-0.3,0.1c-0.3,0.8-0.8,1.7-0.7,2.4
			c0.3,1.3,1.7,1.7,2.7,2.4c0.3,0.2,0.7-0.2,0.8-0.6c0.1-0.3,0.1-0.6,0.5-0.7c1.3-0.4,1.8-1.2,1.3-2.6c-0.1-0.2,0-0.3-0.1-0.5
			c-0.1-0.4,0-0.9-0.5-0.9c-0.4,0-0.3,0.5-0.3,0.9c-0.1,0.6,0.1,1.3-0.2,2c-0.4-0.6-0.4-1.3-0.9-1.7c-0.7-0.5-0.7-1.1-0.4-1.8
			c0.4-0.9,0.4-1.7,0.4-2.6c-0.1-0.9,0.2-1.4,1.1-1.7c0.3-0.1,0.7-0.2,0.6-0.7s-0.2-1-0.4-1.5c-0.1-0.2-0.2-0.5-0.5-0.4
			c-0.2,0.1-0.3,0.3-0.3,0.5c0,0.4,0.2,0.9-0.3,1.4c-0.6-1.2-1.4-2.3-1.1-3.5c0.2-0.9,0.1-1.6,0-2.5C17,33.9,17,31,16.8,28.2
			c-0.2-3.4-0.4-6.8-0.5-10.2c-0.1-3.2,0-6.3,0-9.5c1.1,2.5,2.2,5,3,7.6c3.2,9.4,6.5,18.8,9.3,28.4c0.1,0.5,0.3,0.9,0.2,1.4
			c-0.4,1.5-0.7,3.1,0.1,4.6c0.7,1.2,0.9,2.7,2,3.6c0.9,0.7,1,1.7,1.4,2.5c0.6,1.1,0.2,1.9-0.5,2.7c-0.1,0.1-0.1,0.2-0.1,0.3
			c-1.3,2.9-0.4,5.6,2.5,7.1c0.2,0.1,0.5,0.2,0.4,0.5c0,0.3-0.3,0.4-0.5,0.4c-0.5,0.1-1,0.1-1.5,0.2c-3.5,0.4-5,2.1-5,5.6
			c0,1,0,2,0.1,3c0.1,0.4,0.1,0.8-0.6,0.8c-1.6-0.1-2.8,0.5-3.7,1.7c-0.2,0.3-0.4,0.5-0.8,0.6c-2.3,0.9-4.2,2.4-6.5,3.2
			c-1.3,0.5-2,1.7-1.6,3.3c0.2,0.6,0,1.3,0.3,1.9c0.1,0.3-0.2,0.7,0.2,0.8c0.4,0.1,0.5-0.4,0.7-0.7c0.8-0.9,1.7-1.5,2.9-1.5
			c0.6,0,1,0.1,0.4,0.8c-0.2,0.2-0.4,0.5-0.1,0.7c0.3,0.3,0.5-0.1,0.7-0.2c0.8-0.6,2-0.8,2.7-0.3c0.6,0.5,0.9,0.4,1.3-0.3
			c0.7-1.5,2.8-2.1,4-1.2c-0.4,0.3-1,0.4-1.1,1c0,0.1,0,0.4,0,0.5c0.1,0.2,0.3,0.1,0.4-0.1c1.1-0.9,2.3-0.8,3.6-0.2
			c0.2,0.1,0.4,0.3,0.6,0c0.1-0.2,0-0.5-0.2-0.6c-0.4-0.4-1-0.5-1.5-0.6c-0.7-0.1-0.7-0.5-0.3-0.9c0.6-0.6,1.3-0.8,2.1-0.7
			c0.3,0,0.7,0.2,0.7-0.3c0-0.4-0.3-0.5-0.6-0.6c-0.6-0.1-1.3,0-1.8,0.4c-0.9,0.8-1.8,1.2-3,0.9c-0.5-0.1-1.1,0.2-1.7-0.2
			c-0.6-0.4-1.3-0.6-2-0.6c-0.8,0-1-0.4-0.6-1.1c0.1-0.2,0.3-0.4,0.5-0.5c0.1-0.1,0.2-0.3,0.1-0.4c-0.1-0.2-0.3-0.1-0.5-0.1
			c-0.5,0.2-0.7,0.5-0.9,1c-0.2,0.6-0.6,0.6-1.1,0.4c-0.6-0.3-0.2-0.7-0.1-1c0.3-0.8,1-1.3,1.7-1.7c0.4-0.2,0.8-0.2,0.9,0.4
			c0.1,0.4,0.2,0.7,0.7,0.5l0,0l0,0c0.2-2.3,1.4-3.6,3.3-3.5c0.4,0,0.9,0,1,0.6c0.1,0.5-0.3,0.6-0.7,0.8c-1.3,0.6-2.6,1.1-3.6,2.1
			l0,0l0,0c-0.3,1.5,0.1,2,1.7,1.9c0.1,0,0.3,0,0.4,0c3.3-0.4,6.5-1.2,9.7-1.9c1.4-0.3,1.7-0.7,1.7-2.1c0-0.4,0-0.9,0-1.3
			s0-0.9,0.6-0.8c0.5,0.1,1.1,0,1.1,0.9c0,0.8,0,1.5,0.1,2.3c0.2,1-0.1,1.6-1.2,1.8c-1.1,0.2-2.3,0.6-3.2,1.3
			c-0.5,0.3-1,0.7-0.8,1.4c0.2,0.7,0.9,0.6,1.5,0.6c2.3,0,4.7,0,7,0.2c1.2,0.1,2.5,0,3.7,0c1,0,1.7-0.5,1.8-1.6
			c0.1-0.6,0.2-1.2,0.3-1.8c0.1-0.6,0.4-0.8,1.1-0.7c1.8,0.2,3.7,0.3,5.5,0.1c0.5-0.1,1-0.1,1.5-0.2c-2.3,1.6-3.9,3.7-5.4,6
			c-0.3,0.4-0.6,0.7-1.1,0.8c-3.1,0.4-5.7,1.8-5.5,6c0,0.3,0.1,0.7,0.5,0.7c0.6-0.1,0.4,0.2,0.3,0.5c-0.1,0.3-0.1,0.6-0.2,0.9
			c0,0.3,0,0.7,0.3,0.8c0.3,0.1,0.5-0.2,0.6-0.4c0.3-0.3,0.5-0.4,1-0.4c1-0.1,2,0.2,2.9-0.5c2-1.4,3.1-3.2,2.8-5.7
			c-0.1-0.6,0.1-1.1,0.4-1.6c1.6-2.1,3.4-4,5.9-5.2c1.6-0.7,3-1.6,4.5-2.6c2-1.4,3.8-3,4.7-5.5c0.3-0.8,0.8-1,1.6-0.9
			c1,0.1,1.6,0.7,2.2,1.4c0.3,0.4,0.4,0.7-0.3,0.9c-1.1,0.4-2.1,0.6-3.3,0.7c-0.6,0.1-1.2,0.3-1.1,1.3c1.3-0.9,2.5-0.8,3.7,0
			c0.2,0.1,0.5,0.3,0.4,0.7c-0.1,0.3-0.4,0.2-0.6,0.2c-0.8,0.1-1.5,0.2-2,0.9c-0.3,0.4-0.6,0.5-1.1,0.6c-0.6,0.1-1.3,0.3-1.7,0.8
			c-0.2,0.2-0.4,0.5-0.1,0.7c0.2,0.2,0.4,0,0.6-0.2c0.4-0.4,0.9-0.5,1.4-0.6c1.2-0.2,2.1,0.3,2.9,1.2c0.2,0.2,0.3,0.4,0.6,0.2
			c0.2-0.2,0.1-0.5-0.1-0.7c-0.4-0.5-0.9-0.9-1.4-1.2C69.2,81.3,69,81.3,69,81c0-0.1,0.2-0.3,0.4-0.3c0.9-0.2,1.9-0.4,2.7,0.4
			c0.3,0.3,0.5,0.4,0.8,0c1.2-1.3,2.9-1,3.8,0.5c0.3,0.5,0.3,0.7-0.3,0.9c-0.7,0.1-1.2,0.4-1.6,1c-0.1,0.2-0.3,0.4-0.1,0.6
			c0.3,0.2,0.4,0,0.6-0.2c0.5-0.7,1.3-0.9,2.1-0.9c0.8,0,1.5,0.3,2.2,0.8c0.2,0.2,0.5,0.6,0.7,0.2c0.2-0.3-0.1-0.6-0.3-0.8
			c-0.4-0.3-0.9-0.6-1.4-0.8C78.3,82.2,78,82.2,78,82c0-0.3,0.2-0.4,0.4-0.5c1.1-0.7,2.7-0.2,3.2,1c0.2,0.5,0.3,0.8,1,0.7
			c1.4-0.3,2.3,0.3,2.8,1.7c0.1,0.2,0.1,0.4,0.4,0.4c0.2-0.1,0.3-0.3,0.3-0.5c0-0.7-0.3-1.3-0.9-1.7c-0.3-0.2-0.7-0.5-0.7-1
			c0-1.2-0.8-1.9-1.8-2.4c-0.4-0.2-0.7-0.3-0.8-0.8c-0.5-2.3-2.1-3.3-4.3-2.6c-0.5,0.2-0.8,0-1.1-0.3c-1.1-1-2.3-1.4-3.8-0.8
			c-0.5,0.2-0.7,0.1-1.1-0.2c-0.7-0.7-1.4-1.2-2.4-1.3c-0.8,0-0.8-0.4-0.7-1c0.4-2.4,0.5-4.8,0.6-7.3c0.2-4.6-0.6-9.1-0.9-13.6
			c-0.1-1.9-0.5-3.8-0.4-5.6c0-2,0.6-3.9,1.2-5.7c1.1-3.6,2.1-7.2,2.8-10.9c0.4-2.3,0.5-2.3,2.8-2.6c1.3-0.1,2.1-0.8,2.4-1.9
			s-0.7-1.4-1.3-1.8c-0.9-0.5-0.9-1.1-0.5-1.9c1.3-3,2.7-6,4.2-8.8c0.5-1,0.3-1.6-0.4-2.2C74.8,6.6,70,5,65,3.8
			c-1-0.2-1.6,0.2-2,1.1c-1.3,3.2-2.8,6.4-4.2,9.5c-0.4,1-0.9,1.4-2,1c-0.6-0.3-1.3-0.3-1.9-0.2c-0.4,0-0.7,0.1-0.8,0.5
			c-0.6,1.3-0.2,2.8,0.9,3.8c0.9,0.8,0.9,0.8,0.1,1.8c-1.8,1.9-4,3.3-6.1,4.8c-1.2,0.9-2.6,1.1-4,0.8c-1.2-0.3-2.4-0.3-3.7-0.3
			c-6.6,0.4-10.1,7.2-6.7,12.9c1.2,2,2.9,3.4,5.1,4.4c1.4,0.6,2.8,1.1,4.3,1.5c0.8,0.2,1,0.4,0.4,1.1c-1.1,1.2-2.2,2.5-3,3.9
			c-0.1,0.2-0.3,0.5-0.6,0.5c-2.3-0.2-4.6-0.2-6.2-2.2c-0.9-1-1.9-2-3.3-2.4c-0.6-0.2-0.8-0.5-1-1c-2.3-7-4.3-13.9-6.8-20.7
			c-2.3-6.2-4.1-12.4-6.8-18.4c-0.2-0.4-0.3-0.7-0.2-1.2c0.2-0.5,0-1-0.5-1.2s-1,0-1.3,0.4c-0.4,0.4-0.2,0.8,0,1.2
			c0.2,0.3,0.5,0.6,0.5,1.1c0,1.1,0.2,2.1,0.2,3.2c0,2.3,0,4.7,0.1,7c0.3,6.5,0.7,13.1,0.8,19.6c0,0.3,0.2,0.7-0.2,1
			c-0.6,0.5-0.5,1-0.2,1.5c0.5,1.2,0.3,2.3-0.5,3.1c-0.1-0.2-0.2-0.4-0.2-0.6C15,40.9,15.4,40,14.7,40c-0.5,0-0.4,0.9-0.7,1.4
			s-0.2,0.8,0.4,1 M16.8,41.6c0.5,1.9,0.7,3.6,0.2,5.3C16.2,46.1,16,43,16.8,41.6z M20.6,86.1c0.3-0.7,1-1.1,2.2-1.1
			c0.1,0,0.2,0,0.4,0c0.3,0.1,0.8,0,0.9,0.4c0.2,0.4-0.3,0.5-0.5,0.7c-0.3,0.3-0.5,0.8-0.9,0.8c-0.7-0.1-1.3-0.2-2-0.3
			C20.3,86.6,20.5,86.3,20.6,86.1z M57.9,17.4c0.3-0.3,0.5-0.9,1.1-0.5c0.1,0.1,0.2,0.2,0.3,0.3c3.4,3.4,7.7,4.6,12.2,5.5
			c0.3,0.1,0.7,0.1,1,0.1s0.9-0.4,0.9,0.4c0,0.5-0.3,0.7-0.9,0.7c-5.4-0.4-10-2.5-14.3-5.7C58,17.9,57.5,17.8,57.9,17.4z M32.1,49.5
			c-0.1-0.2-0.3-0.5-0.2-0.8c0.2-0.8-0.3-0.9-0.9-1c-0.5-0.1-1-0.2-1.4-0.8c1.3-0.2,2.1,0.2,2.9,1c1.4,1.3,2.7,2.8,4.7,3.2
			c0.7,0.2,1.5,0.3,2.2,0.4c0.6,0.1,0.9,0.2,0.5,0.9c-0.9,1.4-1.6,2.9-2.3,4.3c-0.4,0.8-1.5,1-2.1,0.3c-0.4-0.4-0.8-0.9-1.3-1.3
			c-0.6-0.5-1-0.8-0.4-1.6c0.2-0.2,0-0.5-0.1-0.8C33.3,52,32.8,50.7,32.1,49.5z M39.7,59.4c-0.1,0.2-0.3,0.1-0.4,0.1
			c-1.2-0.4-1.9,0-2.1,1.2c-0.1,0.4-0.1,0.8,0,1.1c0.1,0.7,0.4,1.3,1.1,1.5c0.7,0.2,1.2-0.2,1.6-0.8c0.2-0.3,0.3-0.7,0.7-0.6
			c0.4,0.1,0.3,0.5,0.3,0.8c0.2,1.2-0.5,2.5-1.7,3c-1.3,0.5-2.5,0.1-3.2-1.1c-0.6-1-0.9-2.2-0.9-3.2c0-1.2,0.3-2,0.8-2.8
			c0.8-1.2,3.1-0.9,3.8,0.4C39.7,59.2,39.8,59.4,39.7,59.4z M40.7,60.3c0.6-0.1,1.3-0.5,1.7,0.2s0.3,1.5-0.3,2.2
			C42,62.8,42,62.9,41.8,63c-0.1-0.2-0.1-0.3-0.1-0.4c-0.1-0.6,0-1.4-0.3-1.8c-0.4-0.4-1,0.4-1.6,0.3C39.5,61,39.1,61.4,39,61
			c-0.1-0.4,0.3-0.5,0.6-0.5C39.9,60.4,40.3,60.3,40.7,60.3z M34,65.9c-1.1-0.6-1.8-1.5-2-2.7c-0.1-0.7-0.1-1.3,0-2.2
			c0.3,0.7,0.8,0.8,1.3,0.7c0.7,0,0.9,0.5,1,1c0.1,0.7-0.3,0.7-0.8,0.8c-0.4,0.1-0.8,0.3-0.8,0.8c0,0.5,0.5,0.6,0.9,0.7
			c0.2,0,0.3,0,0.5,0c0.4,0,0.8-0.2,1,0.3c0.1,0.2,0.1,0.4,0,0.5C34.8,66.2,34.4,66.1,34,65.9z M36.2,77.3c0,0.7,0,1.4,0,2.1
			c0.1,0.8-0.3,1.1-1,1.3c-3.3,1-6.7,1.7-10.2,2c-0.3,0-0.6,0.1-0.7-0.2c-0.2-0.3,0.1-0.6,0.3-0.8c0.9-0.7,1.8-1.4,2.9-1.6
			c0.8-0.2,1.1-0.7,1.1-1.5c-0.1-1.8-0.3-3.6-0.3-5.4c0.1-2.8,1.2-4.1,4-4.5c0.1,0,0.1,0,0.2,0c1.8-0.2,1.8-0.2,2,1.5
			c0.3,2.1,1.2,4,3,6.2C36.4,75.9,36.2,76.5,36.2,77.3z M68.2,67.3c-0.1,1.6-0.3,3.3-0.5,4.9c-0.5,3.5-2.2,6.1-5.2,8
			c-2,1.3-4.1,2.4-6.2,3.5c-2.2,1.2-3.5,3.2-4.8,5.2c-0.2,0.4-0.1,0.7-0.1,1.1c0.3,1.6-0.2,3-1.3,3.9C49.7,93,49.7,93,48,94.4
			l-0.1-0.1c0.1-0.4,0.8-0.9,0.3-1.3s-0.9,0.3-1.2,0.6c-0.4,0.4-0.6,0.8-1.1,1.1c0-0.8,0.3-1.3,0.8-1.8c0.2-0.2,0.6-0.4,0.3-0.8
			c-0.2-0.3-0.6,0-0.8,0.1c-0.1,0.1-0.3,0.1-0.6,0.3c0.1-0.6,0.5-0.8,0.8-1.1c0.2-0.2,0.6-0.4,0.4-0.7c-0.2-0.4-0.6-0.2-0.9,0
			c-0.1,0.1-0.3,0.2-0.5,0.1c1.1-1.2,2.4-2.2,4.2-2c0.5,0.1,0.8,0,1.1-0.5c1.7-3,3.9-5.5,7.1-7.1c1.1-0.5,2.2-1.2,3.2-1.8
			c0.3-0.2,0.6-0.4,0.4-0.7c-0.2-0.4-0.5,0-0.8,0.1c-4,1.7-8,2.6-12.3,1.6c-0.8-0.2-1.1,0.1-1.2,0.9c-0.1,0.8-0.3,1.5-0.4,2.3
			c-0.1,0.8-0.5,1.1-1.2,1.1c-1.1,0-2.1,0.1-3.2,0c-2.3-0.2-4.7-0.1-7-0.2c-0.3,0-0.6,0.2-0.7-0.2c-0.1-0.4,0.3-0.5,0.5-0.7
			c1-0.5,2.1-0.9,3.2-1.1c0.9-0.1,1.3-0.6,1.2-1.5c-0.1-1.4-0.3-2.7,0-4.1c0.4-1.9,1.7-3.2,3.7-3.3c1.5-0.1,3-0.3,4.5-0.1
			c0.3,0,0.7,0.1,0.8-0.3c0-0.4-0.4-0.4-0.7-0.5c-2.1-0.2-4.2-0.3-6.2,0.4c-1.1,0.4-1.8,1.2-2.3,2.1c-0.4,0.7-0.7,0.6-1.1,0.1
			c-1.9-2-2.8-4.3-2.7-7.1c0.5,1.4,0.9,2.8,1.4,4.1c0.1,0.4,0.3,0.8,0.5,1.1c0.3,0.6,0.8,1.1,1.6,0.8c0.8-0.3,1.2-0.9,1-1.8
			s-0.5-1.7-0.8-2.5c-0.3-1-0.7-1.9-1.1-2.9c-0.2-0.5-0.2-0.7,0.4-0.8c0.8-0.1,1.5-0.4,2.1-1c0.4-0.4,0.7-0.4,0.8,0.3
			c0.3,1.5,1.2,2.5,2.6,2.9c0.8,0.3,1.6,0.1,2.5,0.3c0.4,0.1,0.6-0.4,0.5-0.8c-0.2-1,0.5-0.9,1.1-0.8c1.8,0.3,3.5,0.4,5.3,0.4
			c1.3,0,2.5-0.3,3.7-0.7c0.3-0.1,0.7-0.2,0.5-0.6s-0.5-0.2-0.8-0.1c-3,1-6,0.8-8.9,0.2h-0.1c-0.5,0.1-0.6-1.1-1.2-0.3
			c-0.3,0.4-0.3,0.9-0.3,1.4c0,0.1-0.1,0.2-0.1,0.5c-0.7-0.8-0.5-1.5-0.3-2.3c0.1-0.3,0.3-0.6,0-0.7c-0.4-0.2-0.6,0.2-0.7,0.4
			c-0.3,0.6-0.4,1.3-0.2,2c0,0.2,0,0.4-0.2,0.5c-0.3,0-0.3-0.2-0.4-0.4c-0.2-0.9,0-1.8,0.5-2.6c0.2-0.3,0.5-0.7,0-0.9
			c-0.4-0.2-0.6,0.2-0.7,0.5c-0.4,0.8-0.6,1.6-0.8,2.6c-0.5-0.6-0.4-1.3-0.2-1.9c0-0.1,0.1-0.2,0.1-0.3c0.1-0.5,1-1,0.4-1.4
			c-0.7-0.4-0.9,0.6-1.3,1c0.2-1.7,1.2-2.7,3.2-3.1c3.5-0.6,6.9-1.5,10-3.2c0.2-0.1,0.4-0.2,0.5-0.3c0.2-0.1,0.5-0.3,0.3-0.6
			s-0.4-0.1-0.6,0c-0.8,0.4-1.6,0.7-2.3,1.1c-2.5,1.2-5.3,1.6-7.9,2.3c-0.2,0-0.3,0-0.5,0.1c-0.9,0.4-1.6,0.6-1.6-0.8
			c0-0.7-0.7-1-1.4-0.9s-1.2-0.1-1.5-0.7c-0.3-0.4-0.7-0.8-1.1-1c-0.6-0.3-0.7-0.6-0.4-1.2c1.7-3.7,4.1-7,6.7-10.1
			c0.4-0.4,0.8-0.5,1.4-0.5c3.3,0.1,6.5,0.3,9.7-0.9c3.4-1.3,6-3.6,7.6-6.8c0.2-0.4,0.7-1.1,0.1-1.3s-0.5,0.6-0.7,1
			c-2.4,4.4-6,6.9-11.1,7.2c-2.5,0.1-5.1,0.5-7.6-0.2c-2.2-0.6-4.4-1.3-6.4-2.4c-2.8-1.6-4.3-4.7-3.9-7.9c0-0.2,0-0.3,0.1-0.5
			c0.5-4.5,3.8-7.1,8.3-6.5c0.7,0.1,1.4,0.2,2.1,0.3c1.7,0.2,3.2,0,4.6-1c2.3-1.7,4.8-3.2,6.7-5.4c0.7-0.8,1.1,0.3,1.8,0.5
			c-0.6,0.2-1,0.2-1.4,0.4c-0.2,0.1-0.4,0.3-0.4,0.5c0.1,0.4,0.4,0.2,0.6,0.2c0.6-0.1,1.1-0.2,1.6,0.2c0.2,0.2,0.4,0.5,0.8,0.3
			c0.4-0.2-0.1-0.6,0.1-0.9c0.9,0.5,1.9,1,2.8,1.5c0.1,0,0.3,0.1,0.2,0.2c-0.4,1.5,1.8,1.2,1.7,2.5c0,0.2,0.4,0,0.5-0.3
			c0.1-0.4-0.2-0.7-0.2-1.1c0.3-0.2,0.5,0,0.7,0.1c1.8,0.7,3.6,1.2,5.6,1.5c0.8,0.1,0.9,0.4,0.7,1.1c-0.7,3.5-1.6,7-2.7,10.5
			c-1.5,4.6-1.7,9.3-1.1,14.1C68,57.3,68.5,62.3,68.2,67.3z M73.8,79.3c-0.3,0.1-0.5,0.3-0.8,0.4c-0.7,0.4-1.2,0.3-1.3-0.6
			c-0.1-0.6-0.6-0.9-1-1.5c1.4-0.5,2.8-0.1,3.4,0.8C74.3,78.8,74.4,79.1,73.8,79.3z M74.7,78c-0.5-0.5-0.9-0.9-1.6-1.1
			c-0.4-0.1-0.6-0.3-0.6-0.7c0.1-0.4,0.4-0.5,0.8-0.5c0.2,0,0.3,0,0.4,0c1.1,0,2,0.3,2.5,1.3c0.1,0.3,0.5,0.7,0.1,0.9
			C75.8,77.9,75.3,78.7,74.7,78z M78.8,80.2c-0.2,0.5-0.7,0.6-1.1,0.9c-0.2,0.1-0.3,0-0.4-0.2c-0.4-0.6-0.8-1.1-1.4-1.4
			c-0.2-0.1-0.4-0.3-0.2-0.6c0.3-0.4,0.7-0.4,1.2-0.4s1.1,0.2,1.5,0.6C78.6,79.4,78.9,79.8,78.8,80.2z M80.8,79.4
			c-0.4,0.1-0.9,0.6-1.3-0.1c-0.3-0.6-0.8-1-1.4-1.3c-0.4-0.2-0.9-0.3-0.8-0.8s0.6-0.4,1-0.5c0.1,0,0.3,0,0.4-0.1
			c1.3,0,2.3,0.7,2.5,1.8C81.3,78.9,81.3,79.3,80.8,79.4z"/>
		<path d="M19.6,88.5c-1,0-1.8,0.3-2.4,0.9C17,89.6,17,89.8,17.1,90c0.2,0.2,0.4,0.1,0.5,0c1.4-1.2,2.7-0.9,4,0.3
			c0.1,0.1,0.3,0.3,0.5,0.1c0.2-0.2,0-0.4-0.1-0.5C21.4,89.1,20.6,88.4,19.6,88.5z"/>
	</g>
	<path fill="none" stroke="#000000" stroke-width="0.2748" stroke-linecap="round" stroke-miterlimit="10" d="M55.2,24.7
		c0,0,2-1.3,2.6,1.2"/>
	<path fill="none" stroke="#000000" stroke-width="0.2748" stroke-linecap="round" stroke-miterlimit="10" d="M60.3,27.1
		c0,0,2-1.3,2.6,1.2"/>
</g>
</svg>
