<?xml version="1.0" encoding="utf-8"?>
<!-- Generator: Adobe Illustrator 19.2.0, SVG Export Plug-In . SVG Version: 6.00 Build 0)  -->
<svg version="1.1" id="Capa_1" xmlns="http://www.w3.org/2000/svg" xmlns:xlink="http://www.w3.org/1999/xlink" x="0px" y="0px"
	 viewBox="0 0 100 100" enable-background="new 0 0 100 100" xml:space="preserve">
<g>
	<path fill="#FFFFFF" d="M54.9,25.3c-1.4,1.3-1.6,3.8-0.4,5.3c0.8,1,1.5,1.2,2.3,0.8c-0.9-0.6-1.4-1.3-1.3-2.2
		c0.1-0.9,0.5-1.6,1.5-1.8c0.2,0,0.3-0.2,0.2-0.4c-0.3-0.7-0.6-1.4-1.2-1.9C55.6,24.9,55.3,25,54.9,25.3z"/>
	<path fill="#FFFFFF" d="M18.8,51c-1.1-0.2-2.2-0.2-3.2-0.1c-1,0.1-2,0.3-3,0.8c-0.2,0.1-0.5,0.2-0.4,0.5c0,0.2,0.3,0.2,0.5,0.2
		c1.1,0,2.2,0,3.2,0c0.3,0,0.7-0.2,0.8,0.3c0.1,0.5-0.5,0.5-0.8,0.5c-1,0-2,0-3,0c-0.2,0-0.5-0.1-0.6,0.2c-0.1,0.4-0.4,0.5-0.7,0.7
		c-1.1,0.7-2,1.5-2.8,2.6c1.4-0.7,2.8-1.4,4.2-2.1c0.2-0.1,0.5-0.4,0.7,0c0.2,0.3-0.1,0.6-0.3,0.7c-0.5,0.3-0.8,0.8-1.2,1.3
		c-0.5,0.6-1.2,1.2-1.6,2.1c1.2-0.9,2-1.9,3.2-2.6c0.2-0.2,0.5-0.5,0.8-0.2c0.2,0.3,0,0.6-0.2,0.8c-0.7,0.9-1.2,1.8-1.7,2.9
		c-0.1,0.2-0.2,0.4,0.1,0.6c0.4-0.5,0.8-1.1,1.2-1.6c0.8-1.3,1.5-1.6,3-1.3c0.2,0,0.5,0.1,0.7,0.1c0.3,0.1,0.5-0.1,0.5-0.4
		c0.2-1.8,0.6-3.5,1-5.2C19.4,51.1,19.2,51,18.8,51z"/>
	<path fill="#FFFFFF" d="M34.6,84.1c-0.6-0.7-1.7-0.6-2.5-0.9c-2.5-0.8-4.8-2.1-6.8-3.8c-0.2-0.2-0.4-0.6-0.8-0.4s-0.3,0.6-0.3,0.9
		c-0.1,1.8,0.5,3.4,1.1,5c0.2,0.4,0.7,0.8,0.4,1.3c-0.3,0.4-0.9,0.3-1.4,0.4c-1.2,0.2-2.5,0.4-3.6,0.9c-0.3,0.2-0.6,0.3-0.5,0.7
		c0,0.4,0.3,0.5,0.6,0.6c0.7,0.2,1.5,0.3,2.3,0.4c3.3,0.1,6.7,0.2,10.1,0.3c0.6,0,1.3,0,2-0.1c0.6-0.1,0.8-0.5,0.7-1
		s-0.2-1.1-0.4-1.6C35,85.8,35.1,84.8,34.6,84.1z"/>
	<path fill="#FFFFFF" d="M11.3,51.7c-1.5,0.5-2.6,1.4-3.7,2.5c0.8,0.1,2.6-0.5,4.1-1.2C11.2,52.7,11.1,52.3,11.3,51.7z"/>
	<path fill="#FFFFFF" d="M48.7,26.1c-0.3-0.1-0.6,0-0.9,0.3c-0.9,0.9-1.3,2-1.4,3.2c0,0.7,0.2,1.4,0.6,2c0.6,0.9,1.7,1.4,2.4,1.1
		c0.4-0.1,0.5-0.2,0.1-0.6c-1.4-1.1-1.1-3.2,0.5-3.9c0.2-0.1,0.5-0.2,0.3-0.5C50.1,27,49.6,26.4,48.7,26.1z"/>
	<path fill="#FFFFFF" d="M85.6,89.5c-0.3,0-0.6,0.1-0.7-0.2c-0.1-0.4,0.3-0.5,0.5-0.6c0.5-0.1,0.9-0.2,1.4-0.3
		c0.6-0.1,1.3-0.2,2-0.6c-1.5-0.3-3-0.2-4.4,0.1c-0.3,0.1-0.7,0.3-0.8-0.2c-0.1-0.4,0.3-0.4,0.6-0.5c0.8-0.3,1.7-0.7,2.5-1
		c-0.9-0.1-1.7-0.4-2.6-0.3c-2.7,0.4-5,1.5-6.7,3.6c-0.3,0.4-0.7,0.6-1.2,0.5c-4.6-0.7-8.9-2-12.8-4.6c-2-1.3-3.4-3-4.3-5.2
		c-0.4-1-0.5-2.1-0.1-3.1c1.1-2.7,1.8-5.6,1.7-8.6c-0.1-2.2-0.3-4.4-0.7-6.6c-0.7-3.3-1.7-6.5-3-9.6c-0.1-0.3-0.4-0.5-0.8-0.4
		c-0.6,0.1-1.3,0.2-1.9,0.2c-3.1,0.1-6-0.8-8.7-2.2c-5.5-2.8-9.2-7.2-11.1-13.1c-0.5-1.4-1.1-2.7-1.4-4.1c-0.1-0.3-0.1-0.5,0.3-0.6
		c0.3-0.1,0.4,0.1,0.5,0.4c0.2,1.2,0.8,2.3,1.1,3.4c1.4,5.1,4.4,9.1,8.7,12C47.7,50.6,52,52,57,51c4.3-0.9,8.2-2.4,11.1-6
		c1.4-1.7,2.2-3.5,1.9-5.7c-0.2-1.3-0.5-2.5-1.5-3.5c-1.8-1.7-4-1.9-6.3-1.6c-0.4,0.1-1,0.4-0.7-0.5c0.1-0.3-0.2-0.4-0.3-0.5
		c-1-0.8-1.7-1.9-2.3-3c-0.1-0.1-0.1-0.3-0.4-0.3c-0.1,0.3-0.2,0.6-0.3,0.9c-0.5,1.5-2,1.9-3.3,1c-1.5-1-2-3.5-1.5-5
		c0.4-1.2,1.1-2.3,2.5-2.5c0.4-0.1,0.3-0.3,0.2-0.6c-0.4-0.7-0.4-1.6-1.5-2c-0.8-0.3-1.5-0.7-2.4-0.8c-0.2,0-0.6,0.2-0.6-0.3
		c0-0.4,0.4-0.4,0.7-0.4c0.7,0,1.3,0.2,2,0.5c0.2,0.1,0.3,0.2,0.5,0.1s0-0.3-0.1-0.5c-0.8-1.9-1.6-3.9-2.4-5.8
		c-0.1-0.2-0.2-0.5-0.5-0.6c-0.5-0.1-0.5-0.5-0.4-0.9c0.9-2.2,0.9-4.4,0.8-6.7c0-0.2,0.1-0.5-0.2-0.6s-0.4,0.2-0.6,0.4
		c-1.4,1.4-2.5,3-3.6,4.7c-0.4,0.7-0.9,0.9-1.6,0.8c-1.6-0.1-1.6-0.1-1.7,1.5c0,0.3,0.1,0.7-0.4,0.7s-0.4-0.5-0.4-0.8
		c0-1.8,0.1-3.5-0.2-5.3c-0.1-0.6,0.1-1.4-0.4-1.6c-0.7-0.2-1,0.6-1.4,1.1c-1.9,2.2-3.2,4.7-4,7.5c-0.1,0.3-0.2,0.6-0.5,0.4
		c-0.5-0.3-0.6,0-0.8,0.3c-1.2,1.7-2.4,3.3-3.4,5.1c-2.1,3.8-4.3,7.5-6,11.5c-2.3,5.4-4.4,10.8-6.1,16.5c-1.2,4.2-2.3,8.4-2.1,12.9
		c0.1,2.5,0.2,5,0.8,7.4c1.1,4.3,3.2,7.9,6.7,10.6c3.4,2.7,7.4,3.9,11.7,4.2c0.7,0,1.2-0.2,1.6-0.7c0.7-1,1.8-1.4,2.9-2
		c0.2-0.1,0.4-0.2,0.5,0s0,0.4-0.2,0.5s-0.4,0.3-0.6,0.4c-0.9,0.4-1.6,1-2.3,1.7c-0.5,0.5-0.6,1-0.3,1.6c0.5,1,0.9,2.1,1.6,3.1
		c0.9,1.2,0.9,1.3-0.6,1.5c-1.2,0.2-2.5,0.3-3.6,0.8c-0.4,0.2-0.8,0.4-0.7,0.9s0.5,0.5,0.9,0.6c0.8,0.1,1.5,0.2,2.3,0.2
		c2.3,0,4.7,0,7-0.1c1.7,0,3.3-0.2,5-0.3c0.7,0,1-0.5,1-1.2c0-0.8-0.2-1.5-0.5-2.2s-0.6-1.3-0.8-2c-0.5-1.5-0.3-2,1.2-2.7
		c1.2-0.6,2.4-1.4,3.5-2.2c0.5-0.4,0.8-0.4,1.2,0.2c1.7,3,4.3,5.1,7.2,6.6c3.8,1.9,7.8,2.8,12,3.2c0.3,0,0.6,0.1,0.8,0.4
		c0.5,0.8,1.2,1.3,2.1,1.6c1.2,0.4,2.4,0.7,3.6,0.8c0.7,0.1,1.5,0.1,2.4-0.2c-1-0.2-1.7-0.5-2.4-0.9c-0.2-0.1-0.4-0.3-0.3-0.6
		c0.1-0.3,0.4-0.2,0.6-0.2s0.3,0.1,0.5,0.1c1.3,0.2,2.6,0,4-0.4c-1.3-0.1-2.4-0.2-3.4-0.5c-0.2-0.1-0.5-0.1-0.4-0.4
		c0-0.3,0.3-0.3,0.5-0.3c1.9,0.1,3.8-0.5,5.6-0.9c0.1,0,0.3,0,0.2-0.3C88.6,89.4,87.1,89.4,85.6,89.5z M50.7,32.8
		c-1.2,1.3-3.6,0.7-4.5-1.1c-0.3-0.6-0.5-1.3-0.5-2c0-1.7,0.7-3,1.8-4.1c0.3-0.4,0.9-0.4,1.3-0.2C51.6,26.3,53,30.3,50.7,32.8z
		 M48.8,12.3c0.5-1.3,1-2.6,1.7-3.8c0.1-0.2,0.4-0.4,0.7-0.3c0.3,0.1,0.4,0.3,0.4,0.6c0,1.4-0.2,2.7-0.6,4c-0.1,0.3-0.3,0.6-0.6,0.4
		c-0.4-0.2-0.1-0.5,0-0.7c0.4-1,0.6-2,0.5-3.1c-0.5,1-0.9,2-1.4,3.1c-0.1,0.2-0.1,0.5-0.4,0.4C48.7,12.8,48.7,12.5,48.8,12.3z
		 M44.9,22.5c0.4-1,1.2-1.6,2.2-1.9c0.4-0.1,0.8-0.1,1.2-0.2c0.3,0,0.5,0.1,0.5,0.4c-0.1,0.3-0.3,0.3-0.5,0.3c-1.3,0-2.3,0.5-3,1.7
		c-0.1,0.2-0.2,0.3-0.4,0.1C44.8,22.9,44.8,22.7,44.9,22.5z M39.3,13.7c0.4-1.5,1.1-2.9,2-4.2c0.1-0.2,0.3-0.4,0.5-0.3
		c0.3,0.1,0.4,0.3,0.4,0.5c0.2,1.5,0.2,3,0,4.6c0,0.2-0.1,0.6-0.5,0.6c-0.4-0.1-0.3-0.4-0.3-0.7c0.2-1.1,0-2.2,0.2-3.2
		c0-0.1-0.1-0.3-0.1-0.5c-0.8,1.1-1.2,2.3-1.7,3.5c-0.1,0.2,0,0.7-0.5,0.5C39.1,14.3,39.2,14,39.3,13.7z M42,55.6
		c0.4-0.2,1-0.6,1.3-0.1c0.3,0.6-0.6,0.6-0.9,0.7c-1.5,0.5-2.8,1.3-4.1,2.2c-0.2,0.1-0.4,0.3-0.7,0.6c0.6,0,1-0.3,1.4-0.4
		c0.9-0.4,1.9-0.7,2.8-1.1c0.3-0.1,0.6-0.3,0.8,0.1c0.2,0.4-0.2,0.5-0.5,0.7c-1.3,0.6-2.4,1.4-3.5,2.3c-0.2,0.2-0.4,0.4-0.5,0.7
		c0.6-0.2,1.2-0.4,1.7-0.7c0.8-0.3,1.6-0.7,2.3-1.2c0.2-0.2,0.5-0.3,0.7,0s-0.1,0.5-0.3,0.6c-0.8,0.7-1.6,1.4-2.4,2.1
		c-0.2,0.2-0.4,0.3-0.5,0.7c0.6-0.3,1.1-0.5,1.6-0.9c0.6-0.5,1.1-1,1.7-1.5c0.2-0.2,0.5-0.5,0.8-0.2s0,0.6-0.2,0.8
		c-1,1-1.6,2.3-2.6,3.5c0.6-0.1,0.9-0.4,1.2-0.7c0.1-0.1,0.2-0.3,0.3-0.4c1.4-1.7,2.2-1.8,4.1-0.7c1.4,0.8,2.8,1.6,4.1,2.4
		c0.3,0.2,0.5,0.3,0.8,0.3c0.2,0.1,0.4,0.2,0.3,0.4C51.6,66,51.4,66,51.3,66c-0.5-0.1-0.9-0.3-1.4-0.6c-1.4-0.9-2.9-1.8-4.4-2.5
		c-0.9-0.5-1.2-0.4-2,0.4c-0.7,0.6-1.2,1.5-2.1,1.9c-0.3,0.2-0.7,0.4-1,0.1s-0.2-0.7-0.1-1.1c0.2-0.5,0.5-0.9,0.7-1.4
		c-0.6,0.1-1,0.7-1.6,0.8c-0.3,0-0.7,0.2-0.9-0.2c-0.2-0.3,0-0.6,0.2-0.8c0.3-0.4,0.5-0.8,0.9-1.2c-0.6,0-1.1,0.4-1.6,0.5
		c-0.3,0.1-0.7,0.2-0.9-0.2c-0.2-0.3-0.1-0.7,0.1-0.9c0.3-0.4,0.7-0.7,1.1-1.1c-0.3-0.1-0.5,0-0.7,0c-0.4,0.1-0.8,0.2-1.1-0.3
		c-0.2-0.5,0.1-0.8,0.4-1.1c0.6-0.4,1.1-0.8,1.7-1.3c0.1-0.1,0.3-0.1,0.4-0.3c-0.1,0-0.1-0.1-0.1-0.1c-0.5-0.1-1.1,0-1.2-0.6
		c-0.2-0.6,0.4-0.9,0.9-1.2c1.1-0.7,2.4-0.8,3.7-0.9c2.7-0.1,5.3,0.6,7.7,1.9c0.4,0.2,0.9,0.4,1.3,0.7c0.2,0.1,0.6,0.3,0.3,0.6
		c-0.2,0.3-0.5,0.1-0.7-0.1c-1.2-0.6-2.4-1.2-3.6-1.6c-2.5-0.8-5-1.1-7.6-0.4c-0.5,0.1-0.9,0.3-1.2,0.8C39.9,56,41,56.1,42,55.6z"/>
	<path d="M90.8,89.1c-0.7,0-1.4-0.1-2.3-0.4c0.6-0.2,1.1-0.3,1.5-0.5c0.3-0.1,0.6-0.2,0.5-0.5c0-0.3-0.3-0.4-0.6-0.4
		c-0.9-0.1-1.8-0.3-3-0.4c0.6-0.2,0.9-0.3,1.3-0.4c0.2-0.1,0.5-0.2,0.4-0.4c0-0.3-0.2-0.4-0.5-0.4c-0.3-0.1-0.6-0.1-1-0.2
		c-4-0.6-7.4,0.3-10.2,3.3c-0.3,0.3-0.6,0.5-1.1,0.4c-3.7-0.6-7.2-1.5-10.5-3.4c-2.1-1.3-4-2.7-5.3-4.9c-0.7-1.3-1-2.5-0.4-3.9
		c1.8-4.1,2-8.4,1.3-12.8c-0.6-4-1.7-8-3.3-11.7c-0.3-0.6-0.2-0.9,0.6-1.1c4-1,7.6-2.6,10.2-6.1c1.4-1.8,2.1-3.8,1.9-6
		c-0.2-1.4-0.4-2.8-1.6-3.9c-1.7-1.5-3.6-2.2-5.8-2c-0.4,0-0.8-0.1-1.1-0.3c-1-0.8-1.9-1.7-2.5-2.9c-1.3-2.5-2.2-5.1-3.2-7.7
		c-1.2-3-2.3-6.2-3.8-9.1c-0.1-0.3-0.2-0.5-0.1-0.8c0.5-2,0.8-3.9,0.5-6C52.8,6,52.9,5.2,52.2,5s-1.1,0.4-1.5,0.9
		c-1.2,1.4-2.3,2.8-3.3,4.4C47,10.9,46.6,11,45.9,11c-0.2,0-0.4-0.1-0.7-0.1c-0.5,0-0.7-0.1-0.7-0.7c0-1.2-0.1-2.4-0.3-3.5
		c-0.1-0.5-0.1-1-0.7-1.2c-0.6-0.2-1,0.1-1.4,0.5c-1.9,1.9-3.3,4.1-4.3,6.5c-0.2,0.4-0.3,0.9-0.7,1.2c-1.5,1.2-2.5,2.8-3.5,4.4
		c-3.3,5.3-6.2,10.8-8.5,16.7c-2,4.9-3.8,9.9-5.3,15c-0.2,0.6-0.5,0.6-0.9,0.5c-1.9-0.3-3.8-0.3-5.7,0c-2.2,0.4-4.1,1.4-5.7,2.9
		c-0.4,0.4-0.9,0.9-0.6,1.5c0.3,0.5,1,0.3,1.5,0.1c0.4-0.1,0.8-0.2,1.1-0.3c0,0.2-0.1,0.3-0.2,0.4c-0.5,0.5-1.1,0.9-1.4,1.6
		c-0.3,0.6-0.1,0.9,0.6,0.9s1.2-0.4,1.7-0.7c0.4-0.2,0.8-0.6,1.3-0.6c-0.4,0.6-0.9,1.2-1.3,1.8c-0.3,0.5-0.8,1-0.3,1.5
		s1-0.1,1.4-0.4c0.4-0.3,0.7-0.8,1.3-1.1c0,0.4-0.2,0.6-0.3,0.9c-0.2,0.4-0.4,0.9-0.3,1.4c0,0.7,0.3,0.8,0.9,0.6
		c0.3-0.1,0.5-0.4,0.7-0.6c0.3-0.4,0.6-0.8,0.9-1.2c1-1.3,1.5-1.5,3-1c0.4,0.1,0.7,0.3,0.6,0.8c-0.2,1.4,0,2.8,0,4.2
		c0.1,2.3,0.2,4.5,0.9,6.7c0.9,2.8,1.8,5.5,3.9,7.7c0.3,0.4,0.5,0.7,0.5,1.2c-0.2,2.2,0.1,4.3,1,6.3c0.4,1,0.3,1-0.7,1.2
		c-1.3,0.1-2.5,0.4-3.7,1c-0.5,0.3-0.9,0.7-0.8,1.4c0.1,0.7,0.6,0.9,1.1,1.1c0.2,0.1,0.4,0.1,0.6,0.1c1.4,0.2,2.7,0.3,4.1,0.3
		c3.3,0.1,6.6,0.2,9.9,0.1c1.3,0,1.8-0.6,1.4-1.9c-0.2-1-0.6-2.1-0.9-3.1c-0.2-0.5,0-0.7,0.5-0.7c0.7,0.1,1.4,0.1,2.1,0.1
		c0.3,0,0.5,0.2,0.5,0.5c0.3,1.2,0.9,2.2,1.5,3.3c0.6,1,0.6,0.9-0.5,1.2c-1.3,0.3-2.7,0.3-3.8,1.2c-0.8,0.7-0.7,1.6,0.2,2.1
		c0.9,0.4,1.9,0.4,2.8,0.4c2.9,0,5.9,0,8.8-0.2c1.3-0.1,2.7,0,4.1-0.3c0.9-0.2,1.2-0.6,1.3-1.5c0-0.7-0.1-1.5-0.3-2.1
		c-0.3-1-0.7-1.9-1-2.9c-0.2-0.5-0.1-0.8,0.3-1.1c1.2-0.8,2.5-1.5,3.7-2.3c0.5-0.3,0.7-0.1,0.9,0.3c0.6,0.9,1.3,1.8,2.1,2.6
		c4.3,4.1,9.6,5.8,15.3,6.7c1.2,0.2,2.2,0.4,3.3,1.2c2.1,1.6,4.7,1.9,7.3,1.7c0.8-0.1,1.7-0.2,2.4-0.7c0.2-0.1,0.5-0.3,0.3-0.6
		c-0.1-0.3-0.4-0.2-0.6-0.2c-0.6,0-1.3,0.1-2-0.2C86,93.1,87,93,88,92.7c0.3-0.1,0.6-0.3,0.9-0.4c0.2-0.1,0.3-0.3,0.2-0.6
		c-0.1-0.3-0.3-0.3-0.5-0.3c-0.4,0-0.8,0-1.2,0c0.1-0.1,0.2-0.1,0.3-0.2c1.1-0.4,2.3-0.3,3.4-1c0.3-0.2,0.7-0.4,0.6-0.8
		C91.6,89,91.1,89.1,90.8,89.1z M57.2,27c0.1,0.2,0,0.3-0.2,0.4c-1,0.2-1.4,0.9-1.5,1.8s0.3,1.6,1.3,2.2c-0.8,0.4-1.5,0.2-2.3-0.8
		c-1.2-1.5-1-4,0.4-5.3c0.4-0.3,0.7-0.4,1.1-0.1C56.7,25.6,56.9,26.3,57.2,27z M7.6,54.2c1.1-1.1,2.2-2,3.7-2.5
		c-0.2,0.6-0.1,1,0.4,1.3C10.3,53.7,8.5,54.2,7.6,54.2z M17.8,57.2c-0.2-0.1-0.5-0.1-0.7-0.1c-1.4-0.3-2.2,0-3,1.3
		c-0.4,0.6-0.8,1.1-1.2,1.6c-0.3-0.2-0.2-0.4-0.1-0.6c0.4-1,1-2,1.7-2.9c0.2-0.2,0.5-0.5,0.2-0.8s-0.5,0-0.8,0.2
		c-1.1,0.7-1.9,1.7-3.2,2.6c0.4-0.9,1.1-1.5,1.6-2.1c0.3-0.5,0.7-0.9,1.2-1.3c0.2-0.2,0.5-0.4,0.3-0.7s-0.5-0.1-0.7,0
		c-1.4,0.7-2.8,1.4-4.2,2.1c0.7-1.1,1.7-1.9,2.8-2.6c0.3-0.2,0.6-0.3,0.7-0.7c0.1-0.3,0.4-0.2,0.6-0.2c1,0,2,0,3,0
		c0.3,0,0.8,0.1,0.8-0.5c0-0.5-0.5-0.3-0.8-0.3c-1.1,0-2.2,0-3.2,0c-0.2,0-0.5,0.1-0.5-0.2c-0.1-0.2,0.2-0.4,0.4-0.5
		c0.9-0.5,1.9-0.7,3-0.8s2.2-0.1,3.2,0.1c0.4,0.1,0.6,0.2,0.5,0.6c-0.4,1.7-0.8,3.4-1,5.2C18.3,57.1,18.2,57.2,17.8,57.2z
		 M35.8,88.2c0.1,0.6-0.1,0.9-0.7,1c-0.7,0.1-1.4,0.1-2,0.1c-3.4-0.1-6.7-0.2-10.1-0.3c-0.8,0-1.6-0.1-2.3-0.4
		c-0.3-0.1-0.6-0.2-0.6-0.6s0.2-0.6,0.5-0.7c1.1-0.6,2.4-0.7,3.6-0.9c0.5-0.1,1.1,0,1.4-0.4c0.4-0.4-0.2-0.9-0.4-1.3
		c-0.6-1.6-1.2-3.2-1.1-5c0-0.3-0.1-0.7,0.3-0.9c0.4-0.2,0.6,0.2,0.8,0.4c2,1.7,4.3,3,6.8,3.8c0.9,0.3,1.9,0.2,2.5,0.9
		c0.5,0.6,0.4,1.7,0.8,2.5C35.6,87.1,35.7,87.7,35.8,88.2z M89.8,90c-1.9,0.4-3.7,1-5.6,0.9c-0.2,0-0.5-0.1-0.5,0.3
		c0,0.3,0.2,0.4,0.4,0.4c1,0.3,2.1,0.4,3.4,0.5c-1.5,0.4-2.7,0.6-4,0.4c-0.2,0-0.3-0.1-0.5-0.1s-0.5-0.1-0.6,0.2
		c-0.1,0.3,0.1,0.5,0.3,0.6c0.7,0.4,1.4,0.7,2.4,0.9c-0.9,0.4-1.7,0.3-2.4,0.2c-1.2-0.2-2.4-0.4-3.6-0.8c-0.9-0.3-1.6-0.8-2.1-1.6
		c-0.2-0.3-0.5-0.4-0.8-0.4c-4.2-0.4-8.3-1.2-12-3.2c-3-1.5-5.6-3.6-7.2-6.6c-0.3-0.6-0.7-0.5-1.2-0.2c-1.1,0.8-2.2,1.6-3.5,2.2
		c-1.4,0.7-1.6,1.1-1.2,2.7c0.2,0.7,0.5,1.4,0.8,2c0.3,0.7,0.5,1.4,0.5,2.2c0,0.7-0.3,1.1-1,1.2c-1.7,0.1-3.3,0.2-5,0.3
		c-2.3,0.1-4.7,0.1-7,0.1c-0.8,0-1.6-0.1-2.3-0.2c-0.4,0-0.8-0.1-0.9-0.6c-0.1-0.5,0.3-0.7,0.7-0.9c1.1-0.5,2.4-0.6,3.6-0.8
		c1.5-0.2,1.6-0.3,0.6-1.5c-0.7-0.9-1.1-2-1.6-3.1c-0.3-0.6-0.2-1.1,0.3-1.6c0.7-0.7,1.4-1.3,2.3-1.7c0.2-0.1,0.4-0.3,0.6-0.4
		c0.2-0.1,0.3-0.3,0.2-0.5s-0.4-0.1-0.5,0c-1,0.6-2.1,1-2.9,2c-0.4,0.6-1,0.8-1.6,0.7c-4.3-0.3-8.3-1.5-11.7-4.2
		c-3.5-2.7-5.6-6.3-6.7-10.6c-0.6-2.4-0.6-4.9-0.8-7.4c-0.2-4.4,0.8-8.7,2.1-12.9c1.6-5.6,3.8-11.1,6.1-16.5c1.7-4,3.8-7.7,6-11.5
		c1-1.8,2.2-3.4,3.4-5.1c0.2-0.3,0.4-0.6,0.8-0.3c0.4,0.2,0.5-0.1,0.5-0.4c0.8-2.8,2.1-5.3,4-7.5C42,6.7,42.3,5.9,43,6.1
		c0.5,0.2,0.3,1,0.4,1.6c0.2,1.8,0.1,3.5,0.2,5.3c0,0.3-0.1,0.8,0.4,0.8c0.4,0,0.3-0.4,0.4-0.7c0.1-1.6,0.1-1.6,1.7-1.5
		c0.8,0.1,1.2-0.2,1.6-0.8c1-1.7,2.2-3.2,3.6-4.7C51.5,6,51.7,5.7,52,5.8c0.2,0.1,0.2,0.4,0.2,0.6c0.1,2.3,0.1,4.5-0.8,6.7
		c-0.2,0.4-0.2,0.7,0.4,0.9c0.3,0.1,0.4,0.3,0.5,0.6c0.8,1.9,1.6,3.9,2.4,5.8c0.1,0.2,0.2,0.3,0.1,0.5c-0.2,0.1-0.3,0-0.5-0.1
		c-0.6-0.2-1.3-0.5-2-0.5c-0.3,0-0.7,0-0.7,0.4s0.4,0.2,0.6,0.3c0.8,0.1,1.6,0.5,2.4,0.8c1,0.4,1.1,1.3,1.5,2
		c0.1,0.2,0.2,0.5-0.2,0.6c-1.4,0.2-2.1,1.3-2.5,2.5c-0.5,1.5,0,4,1.5,5c1.3,0.9,2.8,0.5,3.3-1c0.1-0.3,0.2-0.6,0.3-0.9
		c0.3,0,0.3,0.2,0.4,0.3c0.6,1.1,1.3,2.2,2.3,3c0.2,0.1,0.4,0.3,0.3,0.5c-0.3,0.9,0.3,0.6,0.7,0.5c2.3-0.3,4.4-0.1,6.3,1.6
		c1,1,1.4,2.2,1.5,3.5c0.3,2.2-0.5,4-1.9,5.7c-2.9,3.6-6.8,5.1-11.1,6c-4.9,1-9.3-0.4-13.3-3.1c-4.3-2.9-7.2-7-8.7-12
		c-0.3-1.2-0.9-2.2-1.1-3.4c0-0.3-0.2-0.4-0.5-0.4C33,32.1,33,32.4,33,32.7c0.3,1.4,0.9,2.8,1.4,4.1c1.9,5.9,5.7,10.3,11.1,13.1
		c2.7,1.4,5.6,2.3,8.7,2.2c0.7,0,1.3-0.1,1.9-0.2c0.4-0.1,0.6,0.1,0.8,0.4c1.3,3.1,2.4,6.3,3,9.6c0.4,2.2,0.7,4.4,0.7,6.6
		c0.1,3-0.6,5.8-1.7,8.6c-0.4,1.1-0.4,2.1,0.1,3.1c0.9,2.1,2.4,3.8,4.3,5.2c3.9,2.7,8.2,4,12.8,4.6c0.5,0.1,0.9-0.1,1.2-0.5
		c1.7-2.1,4-3.3,6.7-3.6c0.9-0.1,1.7,0.1,2.6,0.3c-0.8,0.3-1.7,0.7-2.5,1c-0.3,0.1-0.7,0.2-0.6,0.5c0.1,0.4,0.6,0.2,0.8,0.2
		c1.4-0.3,2.8-0.3,4.4-0.1c-0.7,0.4-1.3,0.5-2,0.6c-0.5,0.1-0.9,0.2-1.4,0.3c-0.3,0.1-0.7,0.2-0.5,0.6c0.1,0.3,0.4,0.2,0.7,0.2
		c1.5-0.1,3-0.1,4.5,0.2C90.1,89.9,90,89.9,89.8,90z"/>
	<path d="M40,55.1c2.6-0.7,5.1-0.4,7.6,0.4c1.3,0.4,2.4,1.1,3.6,1.6c0.2,0.1,0.5,0.3,0.7,0.1c0.2-0.3-0.1-0.5-0.3-0.6
		c-0.4-0.3-0.9-0.5-1.3-0.7c-2.4-1.3-5-2-7.7-1.9c-1.3,0.1-2.6,0.2-3.7,0.9c-0.4,0.3-1,0.6-0.9,1.2c0.1,0.6,0.7,0.5,1.2,0.6l0.1,0.1
		c-0.1,0.2-0.2,0.2-0.4,0.3c-0.6,0.4-1.1,0.8-1.7,1.3c-0.4,0.3-0.6,0.6-0.4,1.1c0.2,0.5,0.7,0.4,1.1,0.3c0.2,0,0.4-0.1,0.7,0
		c-0.4,0.4-0.8,0.7-1.1,1.1c-0.2,0.3-0.3,0.6-0.1,0.9c0.2,0.4,0.5,0.3,0.9,0.2c0.5-0.1,1-0.5,1.6-0.5c-0.3,0.5-0.6,0.8-0.9,1.2
		c-0.2,0.2-0.3,0.5-0.2,0.8c0.2,0.3,0.6,0.2,0.9,0.2c0.6,0,1-0.6,1.6-0.8c-0.3,0.5-0.5,0.9-0.7,1.4c-0.1,0.3-0.2,0.8,0.1,1.1
		c0.3,0.3,0.7,0,1-0.1c0.9-0.5,1.4-1.3,2.1-1.9c0.8-0.7,1.1-0.8,2-0.4c1.5,0.7,3,1.6,4.4,2.5c0.4,0.3,0.9,0.5,1.4,0.6
		c0.2,0,0.4,0,0.4-0.2c0.1-0.2-0.1-0.4-0.3-0.4c-0.3-0.1-0.6-0.2-0.8-0.3c-1.3-0.9-2.7-1.6-4.1-2.4c-1.9-1.1-2.7-0.9-4.1,0.7
		c-0.1,0.1-0.2,0.3-0.3,0.4c-0.3,0.3-0.6,0.7-1.2,0.7c0.9-1.2,1.5-2.5,2.6-3.5c0.2-0.2,0.5-0.5,0.2-0.8s-0.6,0-0.8,0.2
		c-0.6,0.5-1.1,1-1.7,1.5c-0.5,0.4-1,0.6-1.6,0.9c0.1-0.4,0.3-0.6,0.5-0.7c0.8-0.7,1.6-1.4,2.4-2.1c0.2-0.2,0.5-0.3,0.3-0.6
		s-0.5-0.2-0.7,0c-0.7,0.5-1.5,0.9-2.3,1.2c-0.6,0.2-1.2,0.4-1.7,0.7c0.1-0.3,0.3-0.5,0.5-0.7c1.1-0.9,2.2-1.7,3.5-2.3
		c0.2-0.1,0.6-0.3,0.5-0.7c-0.2-0.4-0.5-0.2-0.8-0.1c-0.9,0.4-1.9,0.7-2.8,1.1c-0.4,0.2-0.8,0.4-1.4,0.4c0.3-0.3,0.5-0.5,0.7-0.6
		c1.3-0.9,2.6-1.6,4.1-2.2c0.4-0.1,1.2-0.1,0.9-0.7c-0.2-0.5-0.9-0.1-1.3,0.1c-1,0.6-2.1,0.5-3.3,0.3C39.1,55.3,39.5,55.2,40,55.1z"
		/>
	<path d="M48.9,25.4c-0.5-0.2-1-0.2-1.3,0.2c-1,1.1-1.8,2.4-1.8,4.1c-0.1,0.7,0.2,1.3,0.5,2c0.9,1.8,3.2,2.4,4.5,1.1
		C53,30.3,51.6,26.3,48.9,25.4z M50.2,28.3c-1.7,0.7-2,2.7-0.5,3.9c0.4,0.3,0.3,0.4-0.1,0.6c-0.7,0.3-1.8-0.2-2.4-1.1
		c-0.4-0.6-0.6-1.2-0.6-2c0-1.3,0.5-2.3,1.4-3.2c0.3-0.3,0.6-0.4,0.9-0.3c0.8,0.3,1.4,0.8,1.8,1.6C50.7,28.1,50.4,28.2,50.2,28.3z"
		/>
	<path d="M39.4,14.4c0.4,0.1,0.4-0.3,0.5-0.5c0.4-1.2,0.8-2.4,1.7-3.5c0.1,0.2,0.2,0.4,0.1,0.5c-0.2,1.1,0,2.2-0.2,3.2
		c-0.1,0.3-0.2,0.7,0.3,0.7c0.4,0.1,0.4-0.3,0.5-0.6c0.2-1.5,0.3-3,0-4.6c0-0.2-0.1-0.5-0.4-0.5c-0.3,0-0.4,0.1-0.5,0.3
		c-0.9,1.3-1.6,2.7-2,4.2C39.2,14,39.1,14.3,39.4,14.4z"/>
	<path d="M49,12.9c0.3,0.1,0.3-0.2,0.4-0.4c0.5-1,0.9-2,1.4-3.1c0.1,1.1-0.1,2.1-0.5,3.1c-0.1,0.2-0.4,0.5,0,0.7s0.5-0.2,0.6-0.4
		c0.5-1.3,0.7-2.7,0.6-4c0-0.3-0.1-0.5-0.4-0.6c-0.3-0.1-0.5,0.1-0.7,0.3c-0.7,1.2-1.2,2.5-1.7,3.8C48.7,12.5,48.7,12.8,49,12.9z"/>
	<path d="M45.4,22.9c0.7-1.2,1.6-1.7,3-1.7c0.2,0,0.5,0,0.5-0.3c-0.1-0.3-0.3-0.4-0.5-0.4c-0.4,0-0.8,0-1.2,0.2
		c-1,0.3-1.8,0.9-2.2,1.9c-0.1,0.2-0.1,0.4,0.1,0.6C45.1,23.2,45.3,23.1,45.4,22.9z"/>
</g>
</svg>
