<?xml version="1.0" encoding="utf-8"?>
<!-- Generator: Adobe Illustrator 19.2.0, SVG Export Plug-In . SVG Version: 6.00 Build 0)  -->
<svg version="1.1" id="Capa_1" xmlns="http://www.w3.org/2000/svg" xmlns:xlink="http://www.w3.org/1999/xlink" x="0px" y="0px"
	 viewBox="0 0 100 100" enable-background="new 0 0 100 100" xml:space="preserve">
<g id="Capa_2">
</g>
<g id="Capa_1_1_">
	<path fill="none" stroke="#000000" stroke-width="0.2748" stroke-linecap="round" stroke-miterlimit="10" d="M55.2,24.7
		c0,0,2-1.3,2.6,1.2"/>
	<path fill="none" stroke="#000000" stroke-width="0.2748" stroke-linecap="round" stroke-miterlimit="10" d="M60.3,27.1
		c0,0,2-1.3,2.6,1.2"/>
	<g id="CyMvRF.tif">
		<g>
			<path fill="#060606" d="M32.4,4.8c0.4,2.8,0.7,5.6,1.1,8.3c0.4,2.9,0.7,5.8,1,8.6c0.1,0.8,0.2,1.7,0.3,2.5c0,0.2,0.1,0.3,0.3,0.3
				c1,0,2,0,2.9-0.3c0.3-0.1,0.4-0.2,0.5-0.5c0.3-0.9,1-1.4,1.7-2c0.4-0.3,0.8-0.6,1.3-0.9c-0.6-0.2-1.2-0.1-1.7,0.2
				c-0.5,0.2-0.9,0.5-1.4,0.7c-0.2,0.1-0.3,0.2-0.5,0.2c-0.3,0.1-0.7,0.2-0.9-0.1c-0.2-0.3,0-0.6,0.2-0.9c0.7-0.9,1.6-1.3,2.7-1.4
				c0.9-0.1,1.7,0,2.6,0.1c-0.1-0.4-0.2-0.6-0.4-0.9c-0.3-0.5-0.5-1.1-0.6-1.7c-0.1-0.3-0.1-0.6,0-0.9c0.1-0.4,0.2-0.8,0.6-0.8
				c0.4-0.1,0.5,0.4,0.6,0.7c0.3,0.6,0.3,1.2,0.8,1.8c0.5-1.3,1-2.6,1.5-3.8c1.2-3,2.7-5.8,4.3-8.5c0.6-1,1.2-1.2,2.1-0.8
				C51.7,4.8,51.9,5,52,5.3c0.6,1,1.4,1.9,2.3,2.8c0.2,0.2,0.4,0.4,0.6,0.7c1.5,1.4,2.2,3.2,2.5,5.2c0.2,1.7,0.5,3.4,0.8,5.1
				c0.1,0.5,0.3,1,0.7,1.4c1.7,1.9,3.3,3.7,5,5.6c0.1,0.2,0.3,0.2,0.5,0.3c1.9,0.3,3.7,0.6,5.6,0.6c0.6,0,1.1,0.1,1.6,0.3
				c0.6,0.3,0.7,0.6,0.2,1c-0.4,0.4-0.9,0.6-1.4,0.8c-1.8,0.6-3.6,1.3-5.5,1.6c0.8,1.7,0.2,3.2-0.4,4.7c-0.2,0.5-0.5,0.8-1.1,0.9
				c-0.2,0-0.3,0.2-0.4,0.4c-1.1,2.2-2.8,3.7-4.8,5c-0.1,0.1-0.3,0.1-0.1,0.3c0.6,0.9,1.1,1.8,2,2.4c0.2,0.2,0.5,0.4,0.8,0.2
				c0.2-0.1,0.1-0.5,0.1-0.7c-0.1-1.5-0.4-1.4,1.3-1.6c0.6-0.1,1.3,0,1.9,0c0.3,0,0.3,0.1,0.4,0.4c0.1,1.2-0.2,2.3-0.9,3.2
				c-0.7,0.8-2,0.9-3.1,0.4C60,46,59.5,45.5,59,44.9c-0.6-0.7-1.2-1.5-1.8-2.2c-0.1-0.2-0.2-0.2-0.4-0.2c-1,0.3-1.1,0.4-0.7,1.4
				c0,0.1,0.1,0.2,0.1,0.3c1.5,1.5,2.4,3.4,3.5,5.2c3.4,5.6,5.7,11.6,7.8,17.8C69.1,72,70,77,70.8,82c0.2,0.9,0,1.5-0.9,2.1
				c-1.6,1-3.2,1.9-5.1,2.2c-0.4,0.1-0.6,0-0.7-0.4c0-0.2-0.1-0.3-0.2-0.5c-0.2,0.4-0.2,0.8-0.3,1.1c-0.1,0.2-0.1,0.4-0.3,0.4
				s-0.3-0.2-0.4-0.4c-0.1-0.2-0.1-0.5-0.2-0.7c-0.1,0-0.1,0.1-0.1,0.1c-0.1,0.9-0.2,1-1.2,0.9c-1.1-0.1-1.1-0.1-1.3,1
				c-0.3,1.9-0.6,3.7-0.5,5.7c0,0.2,0,0.4-0.3,0.3s-0.2,0.2-0.2,0.3c0,1.3,0.1,2.5,0,3.8c0,0.4-0.2,0.5-0.5,0.5
				c-0.4,0-0.8-0.1-1.2,0s-0.6-0.1-0.6-0.4c0-0.6-0.1-1.2-0.1-2c-0.2,0.4-0.4,0.6-0.5,0.9c-0.4,1.2-1.3,1.6-2.4,1.7
				c-1,0.1-2.1,0-3.1,0c-0.3,0-0.4-0.2-0.5-0.4c-0.3-0.9-0.2-1.8,0-2.6c0.1-0.5,0.6-0.7,1.2-0.6c0.4,0.1,0.9,0.2,1.3,0.3
				c1.6,0.3,2.9-0.6,3.2-2.2c0-0.2-0.1-0.2-0.2-0.2c-0.2,0-0.4,0.1-0.6,0.2c-0.5,0.2-0.6,0.2-0.6-0.4c0-0.3,0-0.6,0-0.8
				c0-0.6-0.1-1.1-0.4-1.6c-0.3-0.5-0.3-1.2-0.4-1.8v-0.1c-0.2-1.6-0.4-1.7-1.9-1.7c-0.4,0-0.7,0-1.1,0c-0.7,0-0.7,0-0.8,0.7
				c-0.2,0.9-0.2,1.8-0.3,2.8c0,0.9,0,1.8-0.1,2.7c0,0.2,0,0.5-0.3,0.4c-0.2,0-0.1,0.2-0.1,0.3c0.2,1.3,0.2,2.7,0.2,4
				c0,0.3-0.1,0.4-0.4,0.4c-0.5,0-1,0-1.5,0c-0.2,0-0.3-0.1-0.3-0.3c-0.1-0.5,0-1-0.2-1.5c-0.3,0.2-0.5,0.5-0.7,0.8
				c-0.3,0.6-0.9,0.9-1.5,1c-1.1,0.2-2.3,0.2-3.4,0c-0.6-0.1-1-0.5-1-1.1c-0.1-0.6-0.1-1.2,0-1.8c0.2-0.8,0.6-1,1.4-0.7
				c0.4,0.2,0.7,0.4,1.1,0.5c1.1,0.5,2,0.2,2.9-0.4c0.3-0.2,0.3-0.6,0.4-0.9c0.1-0.3-0.1-0.7,0.3-0.9c0.1-0.1,0-0.2-0.1-0.2
				c-0.1-0.1-0.3-0.3-0.5-0.1c-0.2,0.1-0.3,0.3-0.5,0.4S45,93,45,92.7c0.2-1.3-0.4-2.5-1.1-3.6c-0.3-0.5-0.4-1-0.4-1.5
				c-0.1-0.9-0.4-1.8-0.6-2.7c-0.1-0.2-0.1-0.3-0.4-0.2c-0.3,0.2-0.6,0-0.6-0.4c0-0.7,0-1.4-0.1-2.1c-0.3,0.5-0.4,1.1-0.4,1.7
				c0,0.1,0.1,0.3-0.2,0.4c-0.2,0-0.3-0.1-0.3-0.2c-0.3-0.7-0.8-1.2-1.4-1.6c-0.3-0.2-0.4-0.4-0.4-0.7c0-1.1,0-2.3-0.1-3.4
				c-0.1,0.7-0.2,1.4-0.2,2.1c-0.1,0.7-0.1,1.4-0.1,2.1c0,0.1,0.1,0.4-0.1,0.4c-0.2,0.1-0.4-0.1-0.5-0.2c-0.7-0.8-1.5-1.5-1.3-2.8
				c-0.2,0.1-0.1,0.2-0.1,0.3c0,0.1,0,0.2,0,0.3c0,0.4-0.2,0.4-0.5,0.3c-0.2-0.1-0.4-0.2-0.6-0.3c-0.4-0.3-0.8-0.6-1.3-0.7
				c-0.3,0-0.2-0.2-0.1-0.4c0.1-1.5,0.4-2.9,0.8-4.4c0.8-3.8,1.7-7.5,2.8-11.2v-0.1h-0.1c-0.9,0.3-1.5-0.2-2-0.9
				c-1.3-1.9-2.2-3.9-2.8-6.1c-0.6-2.5-1.2-5.1-1.6-7.7c0-0.2-0.1-0.3-0.1-0.6C31,49,31,49.6,31,50.1s-0.4,0.5-0.7,0.5
				C30,50.7,30,50.4,30,50.1c0-0.6,0-1.3,0.1-1.9c0.1-0.3,0-0.5-0.3-0.7c-1.7-1.2-2.4-3.8-1.5-5.7c0.3-0.6,0.7-1.1,1.3-1.3
				c0.2-0.1,0.3-0.1,0.3-0.4c-0.2-4.3,0.2-8.7,0.2-13c0-0.5-0.1-0.7-0.5-0.9c-0.3-0.1-0.7-0.2-0.7-0.6s0.5-0.4,0.8-0.4
				s0.5-0.2,0.5-0.5c0.4-4.4,0.9-8.7,0.8-13.1c0-2,0.1-4,0.2-5.9c0-0.8,0-1.6-0.1-2.5c0-0.3-0.1-0.6,0.2-0.7c0.3-0.2,0.6,0,0.8,0.3
				c0.1-0.3,0.2-0.6,0.2-0.8c0.1-0.4,0.4-0.6,0.8-0.5c0.4,0.1,0.5,0.4,0.5,0.8c0,0.5-0.1,0.9-0.4,1.3c0.3,0.1,0.6,0.2,0.9,0.4
				c0.5,0.3,0.5,0.9,0,1.2c-0.2,0.1-0.3,0.2-0.3,0.5c0,0.2,0.1,0.5-0.2,0.5s-0.2-0.3-0.2-0.5C33.4,5,32.9,4.9,32.4,4.8
				C32.4,4.7,32.4,4.7,32.4,4.8C32.3,4.7,32.4,4.7,32.4,4.8z M51.3,34.9c0.2-0.3,0.3-0.7,0.3-1c0-0.1,0-0.2-0.2-0.2
				c-0.1,0-0.3,0-0.3,0.2C51.3,34.2,51.1,34.5,51.3,34.9L51.3,34.9L51.3,34.9z M50.9,27C50.8,27,50.8,26.9,50.9,27
				C50.8,27,50.8,27,50.9,27c0,0.3,0.1,0.5-0.1,0.7c-0.2,0.2-0.5,0.2-0.8,0c-0.1,0-0.2-0.1-0.2-0.2c-0.4-0.3-0.7-0.7-0.7-1.2
				c0-0.1-0.1-0.3-0.2-0.3c-0.1,0-0.1,0.1-0.1,0.2c0.1,0.5-0.2,0.9-0.6,1.1c-0.4,0.3-0.8,0.1-1.2-0.1c-0.7-0.3-1.3-0.7-2-1
				c-0.2-0.1-0.3-0.1-0.5,0c-0.7,0.4-1.3,0.2-1.5-0.6c0-0.2,0-0.3-0.2-0.4c-0.3-0.2-0.4-0.6-0.4-0.9c0.1-0.4-0.3-0.4-0.5-0.5
				c-0.2-0.2-0.4,0-0.5,0.2c-0.2,0.3-0.3,0.6-0.6,0.8c-0.2,0.2-0.5,0.4-0.7-0.1c0-0.1-0.1-0.2-0.2-0.2c-0.5,0.1-0.5-0.3-0.5-0.6
				c-0.5,0-0.6,0.8-1.1,0.4c-1,0.4-2,0.3-3,0.4c-0.4,0-0.4,0.2-0.4,0.5c0.2,1.3,0.4,2.5,0.5,3.8c0,0.2,0.1,0.4,0.3,0.5
				c0.8,0.5,1.8,0.9,2.7,1.3c1.1,0.6,2.2,0.7,3.4,0.6c1.4-0.2,2.8-0.2,4.1,0c0.1,0,0.3,0.1,0.4,0.1c0.1,0,0.3,0.1,0.2,0.3
				c0,0.1-0.2,0.1-0.3,0.1c-0.3,0-0.7,0-1,0c-0.2,0-0.5,0-0.7,0.2c1.7,0.9,3.6,0.9,5.5,1.2c0.1,0,0.3,0,0.4,0
				c2.1-0.4,4.3-0.8,6.4-1.2c0.5-0.1,1-0.2,1.5-0.3c0.1,0,0.3-0.1,0.2-0.2c-0.2-0.4,0.2-0.4,0.4-0.5c0.5-0.1,0.9-0.1,1.4-0.2
				c3.3-0.4,6.5-1.1,9.6-2.3c0.5-0.2,1.1-0.4,1.4-0.9c-0.2-0.2-0.5-0.3-0.8-0.3c-0.6-0.1-1.3-0.1-1.9-0.2c-1.6-0.1-3.2-0.2-4.7-0.6
				c-0.2,0-0.3-0.1-0.4-0.2c-1.1-1.2-2.2-2.4-3.2-3.6c-0.2-0.2-0.3-0.5-0.6-0.6c-0.1,0-0.3,0.3-0.5,0.4S59,22.8,59.1,23
				c0.2,0.3,0.4,0.5,0.5,0.9c0,0.3,0.1,0.5,0.4,0.5c0.3,0.1,0.5,0.3,0.5,0.7c0,0.3-0.2,0.5-0.4,0.7C59.8,26,59.4,26.1,59,26
				c-0.4-0.1-0.3-0.5-0.5-0.8c-0.3,0.2-0.6,0.3-0.7,0.5c-0.2,0.3,0.2,0.5,0.3,0.7c0.2,0.5,0.1,0.8-0.3,1.1c-0.8,0.5-1.4,0.2-1.5-0.8
				c0-0.2,0-0.3-0.2-0.3s-0.3-0.1-0.4,0.1c-0.3,0.7-1.2,0.7-1.8,0.3c-0.1-0.1-0.3-0.2-0.4-0.2c-0.5,0.2-0.8-0.1-1.1-0.5
				c-0.1,0.7-0.4,1.2-0.4,1.8c0,0.1,0,0.3-0.2,0.3c-0.1,0-0.2-0.1-0.3-0.2C51.5,27.7,51.3,27.3,50.9,27z M50.7,45.6
				c-0.6,0-1.1,0-1.6-0.3s-0.8-0.2-1.1,0.1c-0.7,0.7-1.4,1.5-1.9,2.4c-1.8,2.8-3.2,5.9-4.8,8.8c-0.1,0.1-0.2,0.2,0,0.4
				c0.7,0.7,1.2,1.6,2,2.2c0.1,0.1,0.2,0.3,0.4,0.3c0.5-0.1,1,0.2,1.5,0.3c1.5,0.5,3,1,4.5,1.3c0.2,0,0.4,0.1,0.6,0
				c0.7-0.6,1.5-0.5,2.2-0.3c0.3,0.1,0.5,0.1,0.8-0.1c1.9-1.5,4-2.7,5.3-4.7c0,0,0-0.1,0.1-0.1c0.1-0.1,0.2-0.3,0.4-0.1
				c0.2,0.1,0.1,0.3,0,0.4c-0.3,0.4-0.6,0.8-1,1.2c-1.3,1.4-2.9,2.5-4.5,3.6c-0.2,0.1-0.4,0.2-0.1,0.5c1.2,1.5,1.8,3.2,1.9,5.1
				c0.1,1,0.1,2,0.1,3.1c0.3-0.1,0.6-0.2,0.8-0.3c1.3-0.8,2.7-1.2,3.8-2.3c0.1-0.1,0.1-0.1,0.2-0.1c0.1-0.1,0.3-0.2,0.4,0
				c0.1,0.2,0,0.3-0.1,0.4s-0.2,0.1-0.2,0.2c-1.3,1.1-2.8,1.9-4.4,2.5c-0.7,0.3-0.8,0.5-0.5,1.3c0.2,0.6,0.1,1.1-0.4,1.5
				c-0.2,0.2-0.3,0.4-0.3,0.6c0,1.7,0,3.4,0,5.1c0,0.3-0.1,0.5-0.3,0.7c-1.8,1.5-5.2,1.7-7.1,0c-0.5-0.4-0.6-0.9-0.7-1.5
				c0-2-0.1-4.1-0.1-6.1c0-0.3-0.1-0.5-0.4-0.8c-0.6-0.5-0.6-1.4,0.1-1.7c0.4-0.2,0.4-0.6,0.5-1s0-0.6-0.4-0.8
				c-1.2-0.7-2.2-1.6-3.1-2.7c-0.2-0.3-0.5-0.6-0.5-0.9c0.1-0.6-0.3-0.7-0.7-0.8c-0.3-0.1-0.4-0.1-0.4,0.3c0.4,2,0.8,4,1.1,6
				c0.1,0.7-0.4,1.3-1.2,1.1c-0.3-0.1-0.4-0.2-0.4-0.4c-0.2-1-0.4-1.9-0.6-2.9c-0.3-1.2-0.5-2.5-0.8-3.7c-0.1-0.6-0.6-0.3-1-0.5
				c-0.3-0.1-0.2,0.3-0.3,0.4c-0.8,2.4-1.6,4.9-2.1,7.4c-0.6,2.7-1.3,5.4-1.7,8.2c0,0.2-0.1,0.4,0,0.4c0.6,0.2,1,0.6,1.6,0.8
				c0.1-0.6,0.1-1.1,0.1-1.7c0-0.3,0-0.6,0.1-0.9c0.1-0.2,0.2-0.4,0.4-0.4s0.2,0.3,0.2,0.5c0,0.9,0,1.7,0.1,2.6
				c0.1,0.7,0.7,1.1,1.1,1.7c0.1-1.6,0.2-3.1,0.4-4.6c0.1-1.6,0.3-3.1,0.5-4.7c0-0.2,0.1-0.5,0.4-0.5c0.3,0,0.1,0.3,0.1,0.5
				c-0.1,2.6-0.2,5.1-0.2,7.7c0,0.7,0.1,1.3,0.7,1.8c0.3,0.2,0.5,0.6,0.9,0.8c0.4-1.3,0.4-2.6,1.3-3.6c0.2,1.4-0.4,2.8,0.1,4.2
				c0.2-0.5,0.2-1,0.4-1.3c0.1-0.1,0.1-0.3,0.3-0.2c0.1,0,0.1,0.2,0.2,0.3c0.2,0.4,0.3,0.8,0.5,1.1c0.3,0.4,0.1,1.1,0.7,1.4
				c0.5,0.2,1.1,0.3,1.6,0.5c0.3,0.1,0.4,0,0.4-0.3c0-0.2,0.1-0.5,0.2-0.7c0.1-0.3,0.3-0.4,0.5-0.1c0.4,0.5,0.7,1,0.8,1.6
				c0.1,0.3,0.3,0.4,0.5,0.4c0.8,0,1.6,0,2.4,0c1.1-0.1,2.1-0.1,3.1,0.2c0.8,0.2,1.7,0.3,2.6,0.2c0.4,0,0.5-0.2,0.5-0.5
				s0.1-0.5,0.1-0.8c0-0.1,0.1-0.2,0.2-0.2c0.1,0,0.2,0.1,0.2,0.2c0.1,0.2,0.2,0.5,0.2,0.7c0,0.4,0.3,0.5,0.6,0.5
				c0.9-0.2,1.8-0.2,2.7,0c0.8,0.1,0.8,0,0.9-0.8c0-0.1,0-0.3,0-0.4c0-0.8,0-1.6,0-2.4c0-0.2,0-0.5,0.3-0.5c0.2,0,0.2,0.3,0.2,0.5
				c0,0.1,0,0.1,0,0.2c0,1,0.4,1.9,0.5,2.9c0.2-0.2,0.2-0.4,0.2-0.5c0.1-0.3,0.1-0.6,0.2-0.9c0.1-0.1,0.1-0.3,0.2-0.3
				c0.2,0,0.3,0.2,0.3,0.3c0.1,0.3,0.2,0.6,0.2,0.9c0,0.4,0.2,0.5,0.6,0.4c2-0.5,3.8-1.3,5.3-2.7c0.2-0.2,0.2-0.3,0.2-0.5
				c-0.1-0.5-0.2-1-0.2-1.5c-0.4-3.4-1.2-6.7-2-10c-0.5-2.1-1.3-4.1-2-6.1c-2.3-6.7-5.2-13.1-9.2-19c-0.2-0.3-0.4-0.6-0.6-0.8
				c-0.1-0.1-0.2-0.2-0.3-0.1c-0.3,0.3-0.7,0.4-1.1,0.5c-0.3,0.1-0.4,0.2-0.3,0.5c0.5,1.6,1.2,3.1,1.3,4.8c0.1,0.9,0.4,1.8,0.5,2.7
				c0,0.4,0.1,0.9-0.3,1.1c-0.5,0.4-0.7,0.9-0.8,1.5c0,0.2-0.1,0.4-0.2,0.6c-0.1,0.2-0.2,0.3-0.4,0.2c-0.4-0.3-0.6,0-0.7,0.4
				c-0.1,0.3-0.1,0.7-0.5,0.7s-0.5-0.4-0.7-0.7c0,0,0-0.1-0.1-0.1c-0.3-1.1-0.6-2.2-0.8-3.3c-0.2-0.8-0.2-1.6-0.3-2.6
				c-0.8,1.7-1.3,3.3-1.6,5c-0.1,0.6,0,1.1-0.1,1.7c-0.1,0.5-0.3,0.6-0.7,0.3c-0.6-0.5-1.2-1-1.4-1.8c-0.1-0.3-0.3-0.6-0.6-0.8
				c-0.8-0.5-0.8-0.8-0.5-1.6c1.1-2.7,2.2-5.4,3.7-7.8C50.6,46,50.7,45.8,50.7,45.6z M44.2,32c-1.3,0-2.7,0-4,0
				c-0.3,0-0.2,0.1-0.2,0.3c0.1,0.1,0.2,0.4,0,0.4c-0.2,0.1-0.3-0.2-0.4-0.4c0-0.1,0-0.1-0.1-0.2c-0.1-0.4-0.4-0.6-0.7-0.6
				s-0.4,0.5-0.4,0.8c0,0.6,0.1,1.2,0.3,1.8c0.2,0.7,0.4,1.3,0.7,1.9c0.1,0.2,0.3,0.5,0.6,0.4s0.2-0.4,0.2-0.6c0-0.2,0-0.4,0-0.6
				c0-0.1,0-0.1,0.1-0.2c0.1-0.1,0.1,0,0.2,0.1c0.4,0.4,0.3,1.4-0.1,1.6c-0.5,0.2-0.4,0.4-0.2,0.8c0.2,0.3,0.3,0.5,0.5,0.8
				c1.2,2,2.8,3.5,5,4.1c2.7,0.8,5.4,0.9,8.1,0.4c1-0.2,1.9-0.4,2.8-0.9c-0.3-0.1-0.5-0.2-0.7-0.4c-0.4-0.4-0.7-0.3-1.2-0.2
				c-1.1,0.4-2.2,0.3-3.4,0.2c-0.2,0-0.5-0.1-0.5-0.3c0-0.3,0.3-0.2,0.5-0.1c0.8,0.2,1.6,0.1,2.5,0c1-0.1,1.9-0.5,2.8-0.7
				c0.2,0,0.3-0.2,0.4,0.1c0.1,0.2-0.1,0.3-0.2,0.4c-0.1,0-0.1,0-0.1,0.1c0.1,0.1,0.3,0.1,0.5,0.3c0.4,0.3,0.7,0.2,1.1,0
				c0.9-0.6,1.7-1.2,2.4-1.9c1.9-2,3.1-4.3,3-7.1c0-1.4-0.1-1.2-1.2-1c0,0,0,0-0.1,0.1c0.1,0.3,0.2,0.5,0.3,0.8
				c0.2,0.5,0.3,1.1,0.2,1.6c-0.3,1.3-1.1,2.2-2.2,2.7c-2.5,1.1-4.4-1-4.4-3.2c0-0.6,0-0.6-0.5-0.5c-0.9,0.2-1.8,0.5-2.7,0.6
				c-0.3,0-0.6,0-0.9,0.2c-0.2,0.1-0.1,0.5-0.1,0.7c-0.3,1.3-1.2,2.1-2.3,2.8c-1.2,0.7-2.7,0.6-3.8-0.3c-1.1-0.9-1.6-2.2-1.2-3.6
				c0.1-0.3,0-0.4-0.3-0.5C43.9,32.4,43.9,32.4,44.2,32z M30.7,38.8c0-0.3,0-0.7,0.1-1.1c0-0.3,0.1-0.6,0.6-0.6
				c0.4,0.1,0.6,0.3,0.5,0.7c-0.1,0.7-0.1,1.3-0.1,2c0,0.3,0.1,0.4,0.3,0.5c1,0.4,1.6,1.1,1.7,2.1c0.2,1.8-0.3,3.5-1.8,4.7
				c-0.2,0.1-0.3,0.3-0.3,0.5c0.4,3.5,1.2,6.9,2.1,10.3c0.5,1.8,1.5,3.3,2.5,4.9c0.5,0.8,1.3,0.6,1.8-0.1c0.5-0.7,0.2-1.5,0.1-2.1
				c-0.1-0.6,0-1.2-0.3-1.8c-0.1-0.2,0-0.4,0.2-0.5c0.5-0.3,0.4-0.7,0.3-1.1c-0.1-0.4-0.1-0.9-0.4-1.1c-0.4-0.4-0.7-0.7-0.9-1.3
				c-0.2-0.8-0.5-1.6-0.3-2.4c0-0.1,0-0.1,0-0.2c-0.3-0.6-0.1-1,0.4-1.3c0.2-0.1,0.2-0.3,0.2-0.5c-0.4-2.3-0.7-4.6-1-6.9
				c-0.3-2.5-0.8-5-1.1-7.6c-0.3-2-0.6-4-0.8-6c0-0.2,0-0.3-0.2-0.5c-1.1-0.6-2-1.4-3-2.1c-0.1-0.1-0.3-0.3-0.4-0.2
				c-0.1,0.1-0.1,0.3-0.1,0.5c0,1.1,0,2.2-0.1,3.3c-0.1,3-0.3,6.1-0.1,9.1c0,0.1,0,0.3,0.2,0.3S31,40.1,31,40
				C30.7,39.6,30.7,39.3,30.7,38.8z M47.4,17.6c0.4-0.3,0.8-0.7,1.2-0.8c0.6-0.2,0.9,0,0.8,0.7c-0.1,0.3-0.2,0.6-0.3,0.9
				c0.3-0.1,0.6-0.1,0.9-0.1c0.8,0,1.3,0.5,1.2,1.3c-0.1,0.3-0.2,0.5-0.5,0.7c-0.1,0.1-0.2,0.1,0,0.3c0.1,0.1,0.2,0.1,0.3,0
				s0.1-0.3,0.2-0.4c0.4-0.9,1-1.6,1.9-2.2c0.4-0.2,0.8-0.3,1.2,0c0.3,0.3,0.2,0.6,0.1,1v0.1c0.2,0,0.4,0,0.7-0.1
				c0.2,0,0.4,0,0.5,0.2s-0.1,0.3-0.2,0.4c-0.3,0.2-0.6,0.5-1,0.7c0.2,0.1,0.4,0,0.6,0c0.5-0.1,0.9-0.2,1.4-0.1
				c0.2,0,0.3,0.1,0.4,0.4c0,0.2-0.1,0.4-0.3,0.4c-0.2,0.1-0.4,0.1-0.6,0.2c-0.3,0.1-0.6,0.1-0.9,0.3c0.1,0,0.1,0.1,0.2,0.1
				c0.8,0.3,0.9,0.5,0.8,1.3c0,0.2,0.1,0.4,0.3,0.4c0.2,0.1,0.3-0.1,0.4-0.3c0.3-1,0.8-1.2,1.7-0.7c0.3,0.2,0.6,0.1,0.8-0.2
				c0.3-0.3,0.2-0.6-0.1-0.8c-0.5-0.5-1.1-1-1.1-1.8c-0.2-1.8-0.7-3.6-0.9-5.4c-0.2-1.6-0.7-3.2-1.9-4.4c-0.5-0.5-0.9-1-1.4-1.5
				c-0.7-0.8-1.4-1.6-2-2.5c-0.4-0.6-1.1-0.7-1.6-0.2c-0.4,0.4-0.7,0.9-0.9,1.4c-1.7,3-3.2,6.1-4.4,9.4c-0.2,0.5-0.4,1.1-0.6,1.6
				c-0.1,0.2,0,0.6,0.1,0.4c0.4-0.3,0.7-0.5,1.2-0.7c0,0,0.1-0.1,0.1-0.2c0.1-0.3,0.3-0.7,0.6-0.9c0.5-0.4,1-0.3,1.2,0.3
				C47.3,17,47.3,17.3,47.4,17.6z M35.6,30.1c0.9,6.5,2.1,13,3,19.5c0.1-0.7,0.3-1.3,0.9-1.7c0.2-0.2,0.5-0.2,0.7-0.1
				c0.2,0.1,0.3,0.3,0.3,0.6c0,0.2,0,0.5,0,0.7c-0.2,0.8,0,1.6,0.4,2.4c0.5,0.9,0.7,1.9,0.6,2.9c0,0.2-0.2,0.6,0.1,0.7
				c0.3,0.1,0.4-0.3,0.5-0.5c0.9-1.9,1.7-3.7,2.7-5.5c0.9-1.6,2-3.1,3.4-4.4c0.4-0.3,0.4-0.7,0.3-1.1c-0.1-0.3-0.4-0.1-0.6-0.2
				c-0.1,0-0.3,0-0.4-0.1c-1.4-0.3-2.9-0.6-4.1-1.5c-2.7-2-4.2-4.8-5.2-8c-0.2-0.8-0.3-1.6,0-2.3c0.1-0.3,0-0.3-0.2-0.4
				c-0.5-0.1-1-0.4-1.4-0.7C36.3,30.3,36,30.1,35.6,30.1z M54.5,68c0-1-0.1-1.7-0.2-2.4c-0.2-1.2-0.5-2.3-1.1-3.3
				c-0.2-0.4-0.5-0.6-1.1-0.6c-1.2,0.1-2.4,0-3.6-0.3c-1.4-0.3-2.8-0.9-4.2-1.3c-0.4-0.1-0.6-0.1-0.8,0.4c-0.3,0.9-0.5,1.8-0.5,2.8
				c0,0.4,0,0.7,0.3,1c1,0.9,1.8,2,3,2.7c1,0.6,2,1.2,3.1,1.8c1.4,0.7,2.9,1.3,4.5,1.3c0.3,0,0.4-0.1,0.4-0.4
				C54.4,69,54.5,68.4,54.5,68z M49,17.2c-1,0.4-1.7,1.1-2,2.1c0,0.1,0,0.2-0.1,0.3c-0.1,0.2-0.1,0.4-0.3,0.4
				c-0.2-0.1-0.2-0.3-0.1-0.5c0-0.2,0.1-0.4,0.2-0.6c0.2-0.6,0.4-1.2,0.3-1.8c0-0.1,0-0.3-0.2-0.4s-0.3,0.1-0.4,0.2
				c-0.3,0.3-0.5,0.7-0.6,1.2c-0.2,0.6-0.3,1.3-0.4,2c0,0.1,0,0.3-0.2,0.4s-0.3-0.2-0.3-0.3c-0.2-0.4-0.3-0.8-0.5-1.1
				c-0.2-0.4-0.6-0.5-0.9-0.1c-0.2,0.3-0.3,0.7-0.2,1c0.1,0.5,0.3,1,0.7,1.3c0.1,0.1,0.2,0.2,0.2,0.3c0,0.2-0.2,0.1-0.3,0.2
				c-0.7,0.1-1.2,0.6-1.7,1.2c-0.2,0-0.3,0.2-0.2,0.4c0,0.3,0.2,0.3,0.4,0.2c0.3-0.1,0.4-0.4,0.6-0.6c0.3-0.3,0.5-0.6,0.9-0.9
				c0.1-0.1,0.3-0.2,0.4-0.1c0.1,0.1,0,0.3-0.1,0.4c-0.3,0.4-0.6,0.8-1,1.1c-0.4,0.3-0.4,0.7-0.4,1.1c0,0.1,0.1,0.3,0.2,0.3
				c0.2,0,0.2-0.1,0.2-0.3c0.1-0.2,0.1-0.4,0.2-0.6c0.1-0.1,0.2-0.2,0.3-0.1s0.1,0.2,0.1,0.3c0,0.2-0.1,0.4-0.2,0.6
				c0,0.1,0,0.2,0.1,0.3c0.1,0.1,0.2,0,0.3-0.1c0.2-0.2,0.3-0.4,0.3-0.6c0.1-0.4,0.2-0.8,0.4-1.1c0.1-0.1,0.2-0.3,0.4-0.3
				c0.2,0.1,0.1,0.2,0.1,0.4c0,0.4-0.2,0.7-0.4,1.1s-0.2,0.9,0,1.3c0.1,0.2,0.4,0.4,0.7,0.4c0.3-0.1,0.5-0.3,0.5-0.6
				c0-0.4,0-0.8,0.1-1.2c0-0.3,0-0.6,0.2-0.9c0.1-0.1,0.1-0.3,0.3-0.2c0.1,0,0.1,0.2,0.1,0.3c0,0.5,0.1,1,0,1.6
				c-0.1,0.5,0.3,1,0.7,1.1s0.6-0.2,0.7-0.8c0.1-0.4,0-0.7-0.1-1.1c-0.1-0.3-0.1-0.5-0.2-0.8c0-0.2-0.1-0.4,0.1-0.4
				c0.2-0.1,0.3,0.2,0.3,0.3c0.1,0.3,0.2,0.7,0.3,1s0.1,0.5,0.4,0.7c0.1,0.1,0.3,0.2,0.5,0.1s0.2-0.3,0.2-0.5
				c-0.2-0.6-0.2-1.2-0.8-1.7c-0.1-0.1-0.2-0.3-0.1-0.4c0.2-0.2,0.3,0,0.5,0.1c0.4,0.2,0.7,0.5,1,0.8c0.2,0.1,0.5,0.3,0.7,0.1
				c0.2-0.2,0.1-0.5-0.1-0.7c-0.1-0.2-0.3-0.4-0.5-0.4c-0.2-0.1-0.4-0.1-0.6-0.2c-0.3-0.1-0.6-0.2-0.5-0.5s0.4-0.1,0.6,0
				c0.2,0.1,0.4,0.1,0.6,0.2c0.2,0.1,0.3,0.1,0.5,0.1c0.1,0,0.3,0,0.4-0.1c0.1-0.1,0-0.2-0.1-0.4c-0.3-0.5-0.9-0.7-1.4-0.6
				c-0.3-0.1-0.6-0.1-0.8,0c-0.2,0-0.3,0-0.4-0.2c0-0.2,0.1-0.3,0.2-0.3c0.3-0.1,0.6-0.1,0.9-0.2c0.4-0.1,0.8-0.3,1-0.7
				c0.1-0.3,0.1-0.5,0-0.8c-0.2-0.2-0.4-0.2-0.6-0.2c-0.6,0-1,0.3-1.4,0.7c-0.2,0.2-0.4,0.3-0.6,0.5c-0.1,0.1-0.3,0.2-0.4,0
				c-0.1-0.1,0-0.3,0-0.4c0.2-0.3,0.5-0.6,0.8-1C48.7,18.2,49,17.8,49,17.2z M31.6,10h-0.1c0,0.2,0,0.3,0,0.5
				c-0.1,2.4-0.1,4.8-0.3,7.2c-0.2,2.3-0.5,4.7-0.6,7c0,0.3,0,0.4,0.4,0.4c0.6-0.1,1.2-0.1,1.9-0.2s0.7-0.1,0.6-0.7v-0.1
				c-0.6-3.5-0.9-7.1-1.3-10.6C31.9,12.2,31.8,11.1,31.6,10z M39.8,59.5c0,0.2-0.1,0.2-0.2,0.3c-0.3,0.1-0.7,0.1-1,0
				c-0.4-0.1-0.4,0.1-0.3,0.4c0,0.2,0.2,0.4,0.4,0.4c0.3,0,0.5,0.1,0.8,0.1c0.1,0,0.3,0,0.3,0.2c0,0.1-0.1,0.2-0.2,0.2
				c-0.2,0.1-0.5,0-0.7,0c-0.1,0-0.3-0.1-0.3,0.1c0,0.1,0,0.3,0.1,0.4c0.1,0.1,0.2,0.2,0.4,0.2c0.3,0.1,0.7,0,1,0
				c0.1,0,0.2,0,0.3,0.1c0,0.1-0.1,0.2-0.2,0.2c-0.3,0.2-0.6,0.3-1,0.2c-0.2,0-0.3-0.1-0.4,0.2c-0.1,0.2,0.1,0.2,0.3,0.3
				c0.3,0.1,0.7,0.3,1,0.2c0.8-0.2,1.6-0.2,2.4,0c0.1,0,0.3,0.1,0.3-0.1c0.1-0.8,0.3-1.6,0.6-2.3c0-0.1,0-0.2-0.1-0.3
				c-0.6-0.6-1.1-1.3-1.7-1.9c-0.3-0.4-0.7-0.7-1.1-1c-0.1-0.1-0.3-0.2-0.4-0.1c-0.1,0.1,0,0.2,0,0.4c0.1,0.3,0.1,0.6,0.2,1
				c0.1,0.3,0,0.4-0.3,0.4c-0.4,0.1-0.8,0-1.2,0c-0.1,0-0.3-0.1-0.4,0.1c-0.1,0.2-0.1,0.4,0.1,0.5c0.2,0.1,0.4,0.2,0.6,0.2
				C39.2,59.4,39.5,59.4,39.8,59.5z M62.3,32.7c0.1-0.5-0.2-0.9-0.3-1.4c0-0.1-0.2-0.1-0.2-0.1c-0.7,0.1-1.5,0.1-2.2,0.3
				c-0.1,0-0.3,0-0.2,0.2c0.1,0.4-0.2,0.4-0.5,0.5c-0.5,0.2-1,0.3-1.5,0.3c-0.3,0-0.5,0.1-0.5,0.4c-0.3,1.1,0.3,2.5,1.5,3
				c1,0.5,2.5,0.2,3.3-0.8V35c-1,0.1-1.4-0.1-1.6-0.8c-0.2-0.7,0-1.5,0.6-1.9C61,32.1,61.8,32.2,62.3,32.7z M50,36.3
				c-0.8,0-1.2-0.2-1.5-0.8c-0.3-0.5-0.2-1,0.1-1.5c0.1-0.1,0.2-0.3-0.1-0.4c-1-0.1-1.9-0.3-2.8-0.6c-0.3-0.1-0.4,0-0.5,0.3
				c-0.6,1.5,0.6,3.4,2.3,3.7C48.3,37.1,49.1,37,50,36.3z M40,48.7c0-0.1,0.1-0.4-0.1-0.4c-0.2-0.1-0.3,0.1-0.4,0.3
				c-0.1,0.2-0.2,0.4-0.2,0.6c-0.1,0.5-0.1,1,0,1.5c0,0.1,0.1,0.4-0.1,0.4c-0.4,0.1-0.3,0.3-0.2,0.6c0.2,1.3,0.5,2.6,0.7,3.9
				c0.1,0.5,0.2,0.8,0.7,0.9c0.5,0.1,0.6,0.1,0.7-0.5c0-0.6,0-1.3,0-1.9c0.1-0.9-0.1-1.7-0.6-2.5c-0.4-0.7-0.5-1.4-0.4-2.2
				C40,49.1,40,48.9,40,48.7z M34,28.9c-0.1-1.1-0.2-2.2-0.4-3.3c0-0.3-0.1-0.3-0.4-0.3c-0.7,0-1.4,0.1-2.1,0.2
				c-0.2,0-0.5-0.1-0.6,0.3c-0.1,0.3-0.1,0.6,0.2,0.9c0.5,0.3,0.9,0.7,1.3,1C32.7,28.1,33.3,28.5,34,28.9z M50.3,43.6
				c-0.4,0-0.8,0-1.1,0c-0.2,0-0.3,0.1-0.3,0.3c0,0.5,0.2,0.8,0.6,1c0.3,0.1,0.5,0.1,0.8,0.2c0.4,0.1,0.7,0,0.8-0.4
				c0.2-0.6,0.6-0.8,1.2-0.9c0.8-0.1,1.4,0.1,1.8,0.8c0.2,0.4,0.5,0.4,0.9,0.3c0.2-0.1,0.4-0.2,0.6-0.3c0.2-0.1,0.2-0.2,0.2-0.4
				c-0.1-0.4-0.1-0.7-0.3-1c-0.1-0.3-0.2-0.3-0.5-0.2C53.4,43.5,51.9,43.6,50.3,43.6z M31.3,42.8c0.6,0,1.1-0.3,1.7-0.4
				c0.2-0.1,0.2-0.2,0.1-0.3c-0.2-0.5-0.6-1-1.1-1.2c-0.2-0.1-0.3-0.1-0.4,0.1c-0.3,0.3-0.7,0.3-1,0c-0.1-0.1-0.2-0.2-0.3-0.1
				c-0.5,0.1-0.9,0.3-1.3,0.7c-0.2,0.2-0.2,0.4,0.1,0.6C29.7,42.6,30.5,42.8,31.3,42.8z M63.4,35.8c0.3-0.1,0.4-0.2,0.5-0.4
				c0.6-1.1,0.9-2.2,0.9-3.4c0-0.4-0.1-0.7-0.4-1c-0.1-0.1-0.2-0.2-0.3-0.1c-0.2,0-0.1,0.1-0.1,0.3c0.1,0.7,0.1,1.3,0,2
				C63.9,34,63.7,34.9,63.4,35.8z M29,45.9c0.3,0.8,0.9,1.4,1.6,1.4c0.8,0,1.6-0.7,1.9-1.5C31.3,46.5,30.2,46,29,45.9z M54,18.3
				c0-0.1-0.1-0.1-0.2-0.1c-0.3,0-0.5,0.1-0.8,0.3c-0.8,0.6-1.3,1.4-1.6,2.2c0,0.1-0.1,0.2,0,0.3c0.1,0.1,0.3,0,0.3-0.1
				c0.5-0.6,1.2-1.1,1.8-1.7C53.7,18.9,53.9,18.7,54,18.3z M38.2,55.7c0.2,0,0.5-0.1,0.6-0.4c0.1-0.3-0.2-0.3-0.3-0.4
				c-0.2-0.1-0.6-0.1-0.6-0.4c0-0.2,0.4-0.1,0.7-0.2c0.1,0,0.2,0,0.3-0.1c0-0.1-0.1-0.2-0.1-0.3c-0.3-0.3-0.7-0.3-1-0.4
				c-0.1,0-0.3-0.2-0.4,0.1c-0.1,0.2-0.1,0.5,0.1,0.6c0.3,0.1,0.2,0.3,0.2,0.6C37.5,55.3,37.8,55.7,38.2,55.7z M51.8,27.3
				c0.3-0.6,0.4-1.2,0.3-1.7c0-0.4-0.3-0.5-0.7-0.5c-0.3,0-0.5,0.2-0.5,0.6C51,26.3,51.3,26.8,51.8,27.3z M56.2,24.8
				c-0.2,0-0.6,0-0.6,0.3s0.1,0.7,0.5,0.9c0.4,0.2,1-0.1,1.1-0.4s-0.3-0.7-0.8-0.8C56.4,24.8,56.3,24.8,56.2,24.8z M37.7,52.1
				L37.7,52.1c0.1,0,0.3,0,0.4,0c0.1,0,0.3,0,0.3-0.1s-0.1-0.3-0.1-0.3c-0.2-0.3-0.6-0.4-0.9-0.5c-0.3-0.1-0.5,0-0.5,0.3
				s0,0.6,0.4,0.6C37.4,52.1,37.6,52.1,37.7,52.1z M53.8,25.1c0.2,0,0.5-0.1,0.7-0.2c0.2-0.2,0.3-0.4,0.2-0.6
				C54.5,24,54.3,23.9,54,24s-0.4,0.3-0.5,0.6C53.3,24.9,53.4,25.1,53.8,25.1z M38.5,53.2c-0.3-0.5-0.9-0.6-1.4-0.9
				c-0.1,0-0.1,0-0.1,0.1c-0.1,0.2-0.1,0.5,0,0.7s0.3,0.2,0.5,0.2C37.8,53.3,38.1,53.3,38.5,53.2z M54.8,26.7c0.3,0,0.6,0,0.7-0.4
				c0-0.1-0.5-0.6-0.6-0.6c-0.4,0-0.7,0.3-0.7,0.6C54.2,26.7,54.5,26.6,54.8,26.7z M31.8,44.8c-1.1,0-2.1-0.2-3.1-0.6
				c-0.1,0-0.2-0.2-0.3,0c-0.1,0.2,0.1,0.3,0.2,0.3C29.7,45.1,30.7,45,31.8,44.8z M32.4,3.7C33,3.4,33.2,3,33.2,2.4
				c0-0.2,0.1-0.5-0.2-0.5s-0.4,0.2-0.5,0.4C32.5,2.7,32.5,3.2,32.4,3.7z M50.4,27.4c-0.2-0.5-0.3-0.9-0.5-1.3
				c-0.1-0.2-0.1-0.4-0.3-0.4c-0.2,0.1-0.3,0.3-0.3,0.5C49.4,26.7,49.8,27.1,50.4,27.4z M56.5,92.7c0.3,0,0.5,0.1,0.6,0.2
				c0.3,0.4,0.8,0.4,1.2,0.3c0.1,0,0.4,0,0.3-0.2c0-0.1,0-0.3-0.1-0.4c-0.2-0.1-0.3,0.1-0.4,0.2c-0.3,0.3-0.5,0.3-0.8,0
				C57.2,92.4,56.8,92.3,56.5,92.7z M57.6,22.5c-0.3,0-0.5,0.1-0.7,0.3c0,0.1-0.1,0.2,0,0.3c0.2,0.1,0.4,0.2,0.6,0.3
				c0.1-0.3,0.4-0.4,0.6-0.7c0.1-0.1,0-0.2-0.1-0.2C57.9,22.5,57.7,22.5,57.6,22.5z M58.2,23.3c-0.3,0.4-0.5,0.8-0.3,1.2
				c0.1,0.2,0.9,0.3,1.1,0.2C58.3,24.5,58.5,23.8,58.2,23.3z M32.5,4.1c0.4,0.3,0.8,0.5,1.1,0.7c0.2,0.1,0.3,0,0.4-0.1
				c0.1-0.2,0.1-0.4-0.1-0.5C33.5,4.1,33,4,32.5,4.1z M57.4,27.3c0.3-0.1,0.6-0.1,0.6-0.5c0-0.3-0.3-0.4-0.5-0.4
				c-0.3,0-0.5,0.2-0.6,0.5C56.9,27.2,57.1,27.3,57.4,27.3z M55.3,23.3c-0.2,0-0.5,0.1-0.5,0.3c0,0.2,0.1,0.6,0.4,0.5
				c0.3,0,0.6-0.2,0.6-0.5C55.9,23.4,55.6,23.3,55.3,23.3z M53.5,22.8c-0.4,0-0.5,0.1-0.4,0.6c0,0.1-0.1,0.4,0.2,0.4
				c0.1,0,0.8-0.5,0.8-0.6C54,22.9,53.8,22.8,53.5,22.8z M56.6,24.3c0.3,0,0.6-0.1,0.6-0.4c0-0.2-0.3-0.3-0.5-0.3
				c-0.3,0-0.5,0.1-0.5,0.4C56.2,24.3,56.4,24.3,56.6,24.3z M30.6,44c0.9,0.3,1.7-0.1,2.5-0.2c0.1,0,0.2-0.1,0.1-0.2
				c0-0.1-0.1,0-0.2,0c-0.5,0.3-1.1,0.3-1.7,0.3C31.1,43.8,30.9,43.7,30.6,44z M52,24.2c-0.4-0.5-0.4-1.1-0.4-1.6
				c0-0.1,0-0.2-0.1-0.2s-0.2,0-0.3,0.1s0,0.1,0,0.2c0.2,0.3,0.3,0.7,0.2,1C51.3,24.2,51.7,24.2,52,24.2z M52.4,72.7
				c-0.1-0.1-0.3-0.2-0.3-0.1c-0.7,0.5-1.6-0.2-2.4,0.2C50.7,72.9,51.5,72.9,52.4,72.7z M54.3,22.2c-0.1,0-0.3,0-0.4,0.2
				c-0.1,0.1,0.1,0.2,0.2,0.2c0.1,0.1,0.1,0.2,0.2,0.3c0.1,0.1,0,0.3,0.3,0.2c0.2-0.1,0.3-0.2,0.3-0.4
				C54.8,22.4,54.6,22.2,54.3,22.2z M48.4,68.6c-0.1-0.2-0.3-0.3-0.5-0.3c-0.1,0-0.3-0.2-0.4,0c-0.1,0.2-0.2,0.4-0.1,0.6
				c0.1,0.2,0.3,0,0.4,0C48,68.8,48.2,68.8,48.4,68.6z M47.6,71.8c0.5,0.5,1.1,0.8,1.9,0.8C48.9,72.4,48.3,72,47.6,71.8z M59.8,24.9
				c-0.1,0-0.4,0-0.4,0.2c0,0.3,0.3,0.3,0.5,0.3s0.5,0.1,0.4-0.2C60.3,25,60.1,24.9,59.8,24.9z M47,92.7c0.3,0,0.5,0,0.7,0
				s0.4,0,0.6,0.1C47.4,92.2,47.4,92.2,47,92.7z M58.9,23.4c-0.1,0-0.1,0-0.1,0.1c-0.1,0.3,0.2,0.8,0.5,0.8c0.1,0,0.2,0,0.2-0.1
				C59.5,24,59.1,23.4,58.9,23.4z M55.3,95.5c0.4,0,0.7-0.1,0.8-0.5c0-0.1,0-0.2-0.1-0.2C55.5,94.8,55.4,95.1,55.3,95.5z M54,71.1
				c-0.3,0.4-0.3,0.9,0.1,1c0.1,0,0.3,0.1,0.4-0.1c0.1-0.1,0.2-0.2,0.1-0.3c-0.1-0.1-0.2-0.1-0.4,0c-0.1,0-0.1,0-0.2-0.1
				C54,71.5,54,71.3,54,71.1z M51.4,71.7c0.1,0,0.4,0,0.3-0.2c-0.1-0.3-0.4-0.3-0.6-0.3c-0.1,0-0.3,0-0.4,0.2v0.1
				C51,71.5,51.1,71.8,51.4,71.7z M44,95.8c0.2,0,0.5,0,0.5-0.2s-0.3-0.2-0.5-0.2s-0.5,0-0.5,0.2S43.8,95.8,44,95.8z M49,70
				c-0.1-0.2-0.2-0.4-0.4-0.4c-0.1,0-0.3,0-0.3,0.2s0.2,0.3,0.4,0.3C48.8,70.1,49,70.1,49,70z M54.3,96c0.2,0,0.4,0,0.4-0.2
				s-0.2-0.2-0.4-0.2s-0.4,0-0.4,0.2C54,96.1,54.2,96,54.3,96z M51.6,70.3c0-0.2-0.2-0.3-0.4-0.4C51,69.9,51,70,51,70.1
				c0,0.3,0.2,0.3,0.4,0.3C51.4,70.5,51.6,70.5,51.6,70.3z M46.6,70.6c0.1-0.2,0.4-0.4,0.2-0.7c-0.1-0.1-0.3-0.2-0.3-0.1
				C46.3,70.1,46.4,70.3,46.6,70.6z M50,69.8c-0.2-0.2-0.3-0.5-0.6-0.4c-0.1,0-0.1,0.1-0.1,0.3C49.5,70,49.7,69.9,50,69.8z
				 M56.8,93.7c0-0.1,0-0.3-0.1-0.3c-0.2,0-0.4,0.2-0.4,0.4c0,0.1,0,0.3,0.2,0.3C56.8,94.1,56.7,93.9,56.8,93.7z M46.6,93.7
				c-0.2,0.1-0.2,0.3-0.2,0.5c0,0.1-0.1,0.3,0.1,0.3c0.1,0,0.2-0.1,0.3-0.2C46.8,94.1,46.9,93.9,46.6,93.7z M45.1,95.4
				c0.4,0.1,0.7,0,1-0.2C45.7,94.9,45.4,95.1,45.1,95.4z M32.2,44.7c0.1-0.2,0.7,0.4,0.9-0.3C32.7,44.5,32.4,44.6,32.2,44.7z
				 M52.2,71.2c0.1,0,0.3,0,0.2-0.1c0-0.2-0.3-0.3-0.5-0.3c-0.1,0-0.2,0-0.2,0.2C51.7,71.2,52,71.1,52.2,71.2z M53.1,71.7
				C53,71.5,53.2,71.3,53,71C53,71.3,52.5,71.5,53.1,71.7z M29.5,25.7c0.2,0.1,0.3,0.4,0.6,0.2c0.1,0,0.1-0.2,0-0.3
				C29.9,25.5,29.8,25.7,29.5,25.7z"/>
			<path fill="#FDFDFD" d="M50.7,45.6c0,0.2-0.1,0.3-0.1,0.5c-1.5,2.5-2.6,5.2-3.7,7.8c-0.3,0.9-0.3,1.1,0.5,1.6
				c0.3,0.2,0.5,0.4,0.6,0.8c0.2,0.8,0.8,1.3,1.4,1.8c0.4,0.3,0.6,0.2,0.7-0.3c0.1-0.6,0-1.1,0.1-1.7c0.3-1.7,0.9-3.3,1.6-5
				c0.1,0.9,0.2,1.8,0.3,2.6c0.2,1.1,0.5,2.2,0.8,3.3c0,0,0,0.1,0.1,0.1c0.1,0.3,0.3,0.7,0.7,0.7s0.5-0.4,0.5-0.7
				c0.1-0.4,0.2-0.6,0.7-0.4c0.2,0.1,0.3,0,0.4-0.2c0.1-0.2,0.1-0.4,0.2-0.6c0.1-0.6,0.2-1.1,0.8-1.5c0.4-0.3,0.3-0.7,0.3-1.1
				c-0.1-0.9-0.4-1.8-0.5-2.7c-0.1-1.7-0.7-3.2-1.3-4.8c-0.1-0.3-0.1-0.4,0.3-0.5c0.4-0.1,0.8-0.2,1.1-0.5c0.1-0.2,0.2,0,0.3,0.1
				c0.2,0.3,0.4,0.5,0.6,0.8c4,5.9,6.9,12.3,9.2,19c0.7,2,1.5,4.1,2,6.1c0.8,3.3,1.5,6.6,2,10c0.1,0.5,0.1,1,0.2,1.5
				c0,0.2,0,0.4-0.2,0.5C68.8,84.2,67,85,65,85.5c-0.4,0.1-0.6,0-0.6-0.4c0-0.3-0.1-0.6-0.2-0.9c0-0.1-0.1-0.3-0.3-0.3
				c-0.1,0-0.2,0.2-0.2,0.3c-0.1,0.3-0.2,0.6-0.2,0.9c0,0.2,0,0.3-0.2,0.5c-0.1-1-0.5-1.9-0.5-2.9c0-0.1,0-0.1,0-0.2
				c0-0.2,0-0.5-0.2-0.5c-0.3,0-0.3,0.3-0.3,0.5c0,0.8,0,1.6,0,2.4c0,0.1,0,0.3,0,0.4c0,0.8-0.1,0.9-0.9,0.8c-0.9-0.1-1.8-0.1-2.7,0
				c-0.4,0.1-0.6-0.1-0.6-0.5c0-0.2-0.1-0.5-0.2-0.7c0-0.1-0.1-0.2-0.2-0.2c-0.1,0-0.2,0.1-0.2,0.2c-0.1,0.3-0.1,0.5-0.1,0.8
				s-0.2,0.5-0.5,0.5c-0.9,0.1-1.7,0-2.6-0.2c-1.2,0-2.2,0-3.3,0c-0.8,0-1.6,0.1-2.4,0c-0.3,0-0.4-0.1-0.5-0.4
				c-0.2-0.6-0.5-1.1-0.8-1.6c-0.2-0.3-0.4-0.2-0.5,0.1c-0.1,0.2-0.1,0.4-0.2,0.7c0,0.3-0.1,0.4-0.4,0.3c-0.5-0.2-1.1-0.2-1.6-0.5
				c-0.6-0.2-0.4-0.9-0.7-1.4c-0.2-0.3-0.4-0.7-0.5-1.1c0-0.1-0.1-0.2-0.2-0.3c-0.1,0-0.2,0.1-0.3,0.2c-0.2,0.4-0.3,0.8-0.4,1.3
				c-0.5-1.5,0.1-2.8-0.1-4.2c-0.9,1-0.9,2.4-1.3,3.6c-0.4-0.2-0.6-0.6-0.9-0.8c-0.6-0.4-0.7-1-0.7-1.8c0-2.6,0.1-5.1,0.2-7.7
				c0-0.2,0.1-0.5-0.1-0.5c-0.3,0-0.3,0.3-0.4,0.5c-0.2,1.6-0.4,3.1-0.5,4.7c-0.1,1.5-0.2,3-0.4,4.6c-0.5-0.6-1-0.9-1.1-1.7
				C37,79.5,37,78.6,37,77.7c0-0.2,0-0.4-0.2-0.5c-0.2,0-0.3,0.2-0.4,0.4c-0.1,0.3-0.1,0.6-0.1,0.9c0,0.5,0,1.1-0.1,1.7
				c-0.6-0.2-1-0.6-1.6-0.8c-0.2-0.1-0.1-0.3,0-0.4c0.4-2.8,1.1-5.5,1.7-8.2c0.5-2.5,1.3-5,2.1-7.4c0.1-0.2,0-0.5,0.3-0.4
				s0.8-0.1,1,0.5c0.3,1.2,0.5,2.5,0.8,3.7c0.2,1,0.4,1.9,0.6,2.9c0.1,0.3,0.2,0.4,0.4,0.4c0.8,0.2,1.4-0.4,1.2-1.1
				c-0.4-2-0.7-4-1.1-6c-0.1-0.4,0-0.4,0.4-0.3c0.4,0.1,0.8,0.2,0.7,0.8c0,0.4,0.2,0.7,0.5,0.9c0.9,1,2,1.9,3.1,2.7
				c0.3,0.2,0.4,0.4,0.4,0.8c-0.1,0.4-0.1,0.7-0.5,1c-0.7,0.4-0.7,1.2-0.1,1.7c0.2,0.2,0.4,0.4,0.4,0.8c0,2,0.1,4.1,0.1,6.1
				c0,0.6,0.2,1.1,0.7,1.5c1.9,1.7,5.3,1.5,7.1,0c0.2-0.2,0.3-0.4,0.3-0.7c0-1.7,0-3.4,0-5.1c0-0.3,0.1-0.5,0.3-0.6
				c0.5-0.4,0.7-0.9,0.4-1.5c-0.3-0.7-0.1-1,0.5-1.3c1.6-0.6,3.1-1.4,4.4-2.5c0.1-0.1,0.2-0.1,0.2-0.2c0.1-0.1,0.2-0.2,0.1-0.4
				c-0.1-0.2-0.3-0.1-0.4,0c-0.1,0-0.1,0.1-0.2,0.1c-1,1.1-2.5,1.6-3.8,2.3c-0.2,0.1-0.5,0.2-0.8,0.3c0-1.1,0-2.1-0.1-3.1
				c-0.1-1.9-0.7-3.6-1.9-5.1c-0.2-0.3,0-0.4,0.1-0.5c1.6-1.1,3.1-2.2,4.5-3.6c0.4-0.4,0.7-0.8,1-1.2c0.1-0.1,0.2-0.3,0-0.4
				c-0.2-0.1-0.3,0-0.4,0.1c0,0,0,0-0.1,0.1c-1.3,2.1-3.4,3.3-5.3,4.7C53,61,52.7,61,52.4,60.9c-0.8-0.2-1.6-0.3-2.2,0.3
				c-0.2,0.2-0.4,0.1-0.6,0c-1.5-0.3-3-0.8-4.5-1.3c-0.5-0.2-0.9-0.4-1.5-0.3c-0.2,0-0.3-0.2-0.4-0.3c-0.7-0.7-1.2-1.5-2-2.2
				c-0.1-0.1-0.1-0.3,0-0.4c1.7-2.9,3-6,4.8-8.8c0.6-0.9,1.2-1.6,1.9-2.4c0.3-0.3,0.6-0.5,1.1-0.1C49.5,45.6,50.1,45.6,50.7,45.6z"
				/>
			<path fill="#FDFDFD" d="M50.9,27c0.4,0.3,0.6,0.7,0.9,1.1c0.1,0.1,0.1,0.3,0.3,0.2c0.1,0,0.2-0.2,0.2-0.3c0-0.6,0.3-1.2,0.4-1.8
				c0.3,0.4,0.6,0.6,1.1,0.5c0.1,0,0.2,0.1,0.4,0.2c0.6,0.3,1.5,0.4,1.8-0.3c0.1-0.2,0.2-0.1,0.4-0.1s0.2,0.2,0.2,0.3
				c0.1,0.9,0.7,1.2,1.5,0.8c0.4-0.2,0.5-0.6,0.3-1.1c-0.1-0.2-0.5-0.4-0.3-0.7c0.1-0.2,0.4-0.3,0.7-0.5c0.2,0.3,0.1,0.7,0.5,0.8
				c0.4,0.1,0.8,0,1.1-0.2s0.4-0.4,0.4-0.7c0-0.3-0.2-0.6-0.5-0.7s-0.4-0.3-0.4-0.5c0-0.4-0.2-0.6-0.5-0.9c-0.1-0.2-0.2-0.2,0.1-0.4
				c0.2-0.1,0.4-0.4,0.5-0.4c0.3,0,0.4,0.4,0.6,0.6c1.1,1.2,2.2,2.4,3.2,3.6c0.1,0.1,0.3,0.1,0.4,0.2c1.6,0.4,3.2,0.5,4.7,0.6
				c0.6,0.1,1.3,0.1,1.9,0.2c0.3,0,0.6,0.1,0.8,0.3c-0.4,0.5-0.9,0.7-1.4,0.9c-3.1,1.3-6.3,1.9-9.6,2.3c-0.5,0.1-0.9,0.1-1.4,0.2
				c-0.2,0-0.6,0-0.4,0.5c0.1,0.2-0.1,0.2-0.2,0.2c-0.5,0.2-1,0.2-1.5,0.3c-2.1,0.4-4.3,0.8-6.4,1.2c-0.1,0-0.3,0.1-0.4,0
				c-1.9-0.2-3.8-0.3-5.5-1.2c0.2-0.3,0.4-0.2,0.7-0.2s0.7,0,1,0c0.1,0,0.3,0,0.3-0.1c0-0.2-0.1-0.2-0.2-0.3
				c-0.1-0.1-0.3-0.1-0.4-0.1c-1.4-0.2-2.8-0.2-4.1,0c-1.2,0.1-2.4,0-3.4-0.6c-0.9-0.5-1.8-0.8-2.7-1.3c-0.2-0.1-0.3-0.3-0.3-0.5
				c-0.2-1.3-0.3-2.5-0.5-3.8c0-0.3,0-0.5,0.4-0.5c1-0.1,2,0,3-0.4c0.5,0.3,0.7-0.5,1.1-0.4c0,0.3,0,0.7,0.5,0.6
				c0.1,0,0.2,0.1,0.2,0.2c0.2,0.5,0.4,0.3,0.7,0.1c0.3-0.2,0.4-0.6,0.6-0.8c0.1-0.2,0.2-0.3,0.5-0.2c0.2,0.1,0.6,0,0.5,0.5
				c-0.1,0.4,0.1,0.7,0.4,0.9c0.2,0.1,0.2,0.3,0.2,0.4c0.2,0.8,0.8,1.1,1.5,0.6c0.2-0.1,0.3-0.1,0.5,0c0.7,0.3,1.3,0.7,2,1
				c0.4,0.2,0.8,0.3,1.2,0.1c0.4-0.3,0.6-0.6,0.6-1.1c0-0.1,0-0.2,0.1-0.2c0.2,0,0.2,0.1,0.2,0.3c0,0.5,0.3,0.9,0.7,1.2
				c0.1,0.1,0.2,0.1,0.2,0.2c0.3,0.2,0.5,0.2,0.8,0C51,27.5,50.9,27.3,50.9,27C50.8,27,50.8,27,50.9,27z"/>
			<path fill="#FDFDFD" d="M44.2,32c-0.3,0.4-0.3,0.5,0.2,0.7c0.3,0.1,0.3,0.2,0.3,0.5c-0.4,1.3,0.1,2.7,1.2,3.6
				c1.1,0.9,2.7,1,3.8,0.3s2-1.5,2.3-2.8c0.1-0.3-0.1-0.6,0.1-0.7c0.2-0.1,0.6-0.2,0.9-0.2c0.9-0.1,1.8-0.4,2.7-0.6
				c0.6-0.1,0.6-0.1,0.5,0.5c0,2.2,1.9,4.3,4.4,3.2c1.2-0.5,2-1.4,2.2-2.7c0.1-0.6,0-1.1-0.2-1.6c-0.1-0.3-0.2-0.5-0.3-0.8
				c0,0,0-0.1,0.1-0.1c1.1-0.2,1.2-0.5,1.2,1c0,2.8-1.2,5.1-3,7.1c-0.7,0.8-1.6,1.4-2.4,1.9c-0.4,0.3-0.7,0.3-1.1,0
				c-0.1-0.1-0.3-0.2-0.5-0.3c0-0.1,0-0.1,0.1-0.1c0.2-0.1,0.3-0.1,0.2-0.4c-0.1-0.2-0.3-0.1-0.4-0.1c-0.9,0.3-1.8,0.6-2.8,0.7
				c-0.8,0.1-1.6,0.1-2.5,0c-0.2,0-0.5-0.1-0.5,0.1c0,0.3,0.3,0.3,0.5,0.3c1.1,0.1,2.3,0.2,3.4-0.2c0.5-0.1,0.8-0.2,1.2,0.2
				c0.2,0.2,0.4,0.2,0.7,0.4c-0.9,0.5-1.9,0.7-2.8,0.9c-2.7,0.5-5.4,0.4-8.1-0.4c-2.3-0.7-3.8-2.2-5-4.1c-0.2-0.3-0.3-0.5-0.5-0.8
				s-0.3-0.5,0.2-0.8c0.4-0.2,0.4-1.3,0.1-1.6c0,0-0.1-0.1-0.2-0.1c0,0-0.1,0.1-0.1,0.2c0,0.2,0,0.4,0,0.6c0,0.2,0.1,0.5-0.2,0.6
				s-0.5-0.2-0.6-0.4c-0.4-0.6-0.6-1.3-0.7-1.9c-0.2-0.6-0.2-1.2-0.3-1.8c0-0.3,0.1-0.7,0.4-0.8c0.3,0,0.7,0.2,0.7,0.6
				c0,0.1,0,0.1,0.1,0.2c0.1,0.2,0.2,0.4,0.4,0.4c0.2-0.1,0-0.3,0-0.4c-0.1-0.2-0.1-0.3,0.2-0.3C41.5,32,42.8,32,44.2,32z
				 M52.4,39.2c-0.7,0-1.4,0-2.1,0c-0.2,0-0.4-0.1-0.6-0.3c-0.4-0.3-0.4-0.4,0.1-0.6c0.5-0.2,1-0.5,1.5-0.5c1.1-0.1,1.5-0.9,1.8-1.7
				c0.1-0.2,0.1-0.5-0.1-0.6c-0.2-0.1-0.3,0.2-0.3,0.4c-0.2,0.8-0.7,1.3-1.6,1.5c-0.6,0.1-1.2,0.3-1.8,0.6c-0.5,0.3-0.5,0.6-0.2,1
				c0.3,0.3,0.6,0.5,1.1,0.6c1.9,0.2,3.8,0.1,5.7-0.2c0.7-0.1,1.4-0.2,2-0.7c0.5-0.4,0.5-0.9-0.1-1.3c-0.2-0.1-0.4-0.2-0.6-0.3
				c-0.9-0.5-1.8-1.1-2.1-2.2c0-0.2-0.2-0.3-0.3-0.2c-0.2,0.1-0.1,0.3-0.1,0.4c0.3,0.9,0.8,1.6,1.6,2.1c0.3,0.2,0.6,0.4,0.9,0.6
				c0.2,0.1,0.5,0.2,0.4,0.5c0,0.3-0.3,0.4-0.5,0.5s-0.3,0.1-0.5,0.1C55.2,39.2,53.8,39.3,52.4,39.2z"/>
			<path fill="#FDFDFD" d="M47.4,17.6c-0.1-0.3-0.1-0.6-0.2-0.9C47,16.1,46.5,16,46,16.4c-0.3,0.2-0.5,0.6-0.6,0.9
				c0,0.1,0,0.2-0.1,0.2c-0.4,0.1-0.8,0.4-1.2,0.7C44,18.3,44,17.9,44,17.7c0.2-0.5,0.4-1.1,0.6-1.6c1.3-3.2,2.7-6.4,4.4-9.4
				c0.3-0.5,0.5-1,0.9-1.4c0.5-0.5,1.3-0.4,1.6,0.2c0.6,0.9,1.3,1.7,2,2.5c0.5,0.5,0.9,1,1.4,1.5c1.2,1.2,1.7,2.8,1.9,4.4
				c0.3,1.8,0.7,3.6,0.9,5.4c0.1,0.8,0.6,1.3,1.1,1.8c0.3,0.3,0.4,0.5,0.1,0.8c-0.2,0.3-0.5,0.4-0.8,0.2c-0.9-0.5-1.4-0.3-1.7,0.7
				c-0.1,0.2-0.1,0.3-0.4,0.3c-0.2-0.1-0.4-0.2-0.3-0.4c0.1-0.8,0-1-0.8-1.3c0,0-0.1,0-0.2-0.1c0.3-0.2,0.6-0.2,0.9-0.3
				c0.2-0.1,0.4-0.1,0.6-0.2c0.2-0.1,0.3-0.2,0.3-0.4c0-0.2-0.2-0.3-0.4-0.4c-0.5-0.1-0.9,0-1.4,0.1c-0.2,0-0.4,0.1-0.6,0
				c0.3-0.3,0.7-0.5,1-0.7c0.1-0.1,0.3-0.2,0.2-0.4c-0.1-0.2-0.3-0.2-0.5-0.2s-0.4,0-0.7,0.1c0-0.1,0-0.1,0-0.1
				c0.1-0.3,0.3-0.7-0.1-1c-0.4-0.3-0.8-0.2-1.2,0c-0.8,0.5-1.5,1.3-1.9,2.2c-0.1,0.1-0.1,0.3-0.2,0.4c-0.1,0.1-0.2,0.1-0.3,0
				c-0.2-0.1,0-0.2,0-0.3c0.2-0.2,0.4-0.4,0.5-0.7c0.1-0.8-0.3-1.3-1.2-1.3c-0.3,0-0.6,0.1-0.9,0.1c0.1-0.3,0.2-0.6,0.3-0.9
				c0.1-0.7-0.2-0.9-0.8-0.7C48.2,17,47.8,17.3,47.4,17.6z"/>
			<path fill="#FDFDFD" d="M54.5,68c0,0.4-0.1,1-0.2,1.6c0,0.3-0.2,0.4-0.4,0.4c-1.6,0-3.1-0.6-4.5-1.3c-1-0.6-2.1-1.2-3.1-1.8
				c-1.2-0.7-2-1.8-3-2.7c-0.3-0.3-0.3-0.7-0.3-1c0-0.9,0.2-1.9,0.5-2.8c0.1-0.4,0.4-0.5,0.8-0.4c1.4,0.5,2.8,1,4.2,1.3
				c1.2,0.3,2.4,0.4,3.6,0.3c0.5,0,0.8,0.2,1.1,0.6c0.6,1,0.9,2.2,1.1,3.3C54.4,66.3,54.5,67,54.5,68z"/>
			<path fill="#FDFDFD" d="M49,17.2c0,0.6-0.3,1-0.5,1.3s-0.5,0.6-0.8,1c-0.1,0.1-0.1,0.2,0,0.4c0.1,0.2,0.3,0.1,0.4,0
				c0.2-0.1,0.4-0.3,0.6-0.5c0.4-0.4,0.9-0.7,1.4-0.7c0.2,0,0.5-0.1,0.6,0.2c0.2,0.3,0.2,0.5,0,0.8c-0.2,0.4-0.5,0.6-1,0.7
				c-0.3,0-0.6,0.1-0.9,0.2c-0.2,0-0.3,0.2-0.2,0.3c0,0.2,0.2,0.2,0.4,0.2c0.3,0,0.5-0.1,0.8-0.2c0.5-0.1,1.1,0.1,1.4,0.6
				c0.1,0.1,0.2,0.2,0.1,0.4C51.2,22,51,22,50.9,22c-0.2,0-0.3,0-0.5-0.1s-0.4-0.2-0.6-0.2c-0.2-0.1-0.5-0.2-0.6,0
				c-0.1,0.3,0.2,0.4,0.5,0.5c0.2,0.1,0.4,0.1,0.6,0.2c0.2,0.1,0.4,0.2,0.5,0.4c0.1,0.2,0.3,0.5,0.1,0.7s-0.5,0-0.7-0.1
				c-0.4-0.2-0.7-0.5-1-0.8c-0.1-0.1-0.3-0.3-0.5-0.1c-0.1,0.1,0,0.3,0.1,0.4c0.5,0.4,0.6,1.1,0.8,1.7c0.1,0.2,0,0.4-0.2,0.5
				s-0.3,0-0.5-0.1c-0.2-0.2-0.3-0.4-0.4-0.7c-0.1-0.3-0.2-0.7-0.3-1c0-0.1-0.1-0.4-0.3-0.3s-0.2,0.3-0.1,0.4
				c0.1,0.3,0.1,0.5,0.2,0.8c0.1,0.4,0.2,0.7,0.1,1.1c-0.1,0.6-0.3,0.8-0.7,0.8c-0.5-0.1-0.9-0.6-0.7-1.1c0.1-0.5,0-1.1,0-1.6
				c0-0.1,0-0.2-0.1-0.3c-0.2,0-0.2,0.1-0.3,0.2c-0.1,0.3-0.1,0.6-0.2,0.9c0,0.4,0,0.8-0.1,1.2c0,0.3-0.2,0.5-0.5,0.6
				s-0.5-0.1-0.7-0.4c-0.3-0.4-0.2-0.8,0-1.3c0.2-0.3,0.4-0.7,0.4-1.1c0-0.1,0.1-0.3-0.1-0.4c-0.2-0.1-0.3,0.1-0.4,0.3
				c-0.2,0.3-0.3,0.7-0.4,1.1c-0.1,0.2-0.1,0.4-0.3,0.6c0,0.2,0,0.3-0.1,0.3s-0.1-0.2-0.1-0.3c0-0.2,0.1-0.4,0.2-0.6
				c0-0.1,0-0.2-0.1-0.3c-0.2-0.1-0.3,0-0.3,0.1c-0.1,0.2-0.1,0.4-0.2,0.6c0,0.1-0.1,0.3-0.2,0.3c-0.2,0-0.2-0.2-0.2-0.3
				c0-0.4,0-0.8,0.4-1.1c0.4-0.3,0.7-0.7,1-1.1c0.1-0.1,0.2-0.3,0.1-0.4c-0.1-0.1-0.3,0-0.4,0.1c-0.4,0.2-0.6,0.6-0.9,0.9
				c-0.2,0.2-0.4,0.4-0.6,0.6c-0.2,0.1-0.4,0.1-0.4-0.2c0-0.2,0-0.4,0.1-0.5c0.4-0.6,0.9-1.1,1.7-1.2c0.1,0,0.3,0,0.3-0.2
				c0-0.1,0-0.3-0.2-0.3c-0.5-0.3-0.6-0.8-0.7-1.3c-0.1-0.4,0-0.7,0.2-1c0.3-0.4,0.7-0.3,0.9,0.1s0.3,0.8,0.5,1.1
				c0.1,0.1,0.1,0.4,0.3,0.3c0.2,0,0.2-0.2,0.2-0.4c0.1-0.7,0.2-1.3,0.4-2c0.1-0.4,0.3-0.9,0.6-1.2c0.1-0.1,0.3-0.2,0.4-0.2
				c0.2,0,0.1,0.2,0.2,0.4c0.1,0.6-0.1,1.2-0.3,1.8c-0.1,0.2-0.1,0.4-0.2,0.6c0,0.2-0.1,0.5,0.1,0.5c0.2,0,0.3-0.2,0.3-0.4
				c0-0.1,0-0.2,0.1-0.3C47.3,18.3,47.9,17.6,49,17.2z M46.6,20.6c-0.6,0-1.2,0.4-1.2,0.9c0,0.7,0.7,1.5,1.3,1.5
				c0.8,0,1.4-0.5,1.5-1.1C48.4,21.3,47.4,20.6,46.6,20.6z"/>
			<path fill="#FDFDFD" d="M39.8,59.5c-0.3,0-0.6-0.1-0.9-0.1c-0.2,0-0.4-0.1-0.6-0.2c-0.2-0.1-0.2-0.3-0.1-0.5
				c0.1-0.2,0.3-0.1,0.4-0.1c0.4,0,0.8,0.1,1.2,0c0.2,0,0.3-0.1,0.3-0.4c-0.1-0.3-0.1-0.6-0.2-1c0-0.1-0.1-0.3,0-0.4
				c0.1-0.1,0.3,0,0.4,0.1c0.4,0.3,0.7,0.6,1.1,1c0.6,0.6,1,1.4,1.7,1.9c0.1,0.1,0.1,0.2,0.1,0.3c-0.2,0.8-0.5,1.5-0.6,2.3
				c0,0.2-0.2,0.2-0.3,0.1c-0.8-0.2-1.6-0.2-2.4,0c-0.3,0.1-0.7-0.1-1-0.2c-0.1,0-0.3-0.1-0.3-0.3c0.1-0.2,0.2-0.2,0.4-0.2
				c0.4,0.1,0.7,0,1-0.2c0.1,0,0.2-0.1,0.2-0.2c0-0.1-0.2-0.1-0.3-0.1c-0.3,0.1-0.7,0.1-1,0c-0.1,0-0.3-0.1-0.4-0.2
				c-0.1-0.1-0.1-0.3-0.1-0.4c0.1-0.2,0.2-0.1,0.3-0.1c0.2,0,0.5,0.1,0.7,0c0.1,0,0.2-0.1,0.2-0.2c0-0.2-0.2-0.1-0.3-0.2
				c-0.3,0-0.5-0.1-0.8-0.1c-0.2,0-0.4-0.2-0.4-0.4s-0.1-0.5,0.3-0.4c0.3,0.1,0.7,0.1,1,0C39.7,59.7,39.8,59.6,39.8,59.5z"/>
			<path fill="#FDFDFD" d="M62.3,32.7c-0.5-0.6-1.3-0.7-1.9-0.3c-0.6,0.4-0.8,1.2-0.6,1.9s0.7,0.9,1.6,0.8v0.1
				c-0.7,1-2.2,1.3-3.3,0.8c-1.1-0.6-1.8-1.9-1.5-3c0.1-0.3,0.2-0.4,0.5-0.4c0.5,0,1-0.1,1.5-0.3c0.2-0.1,0.5-0.2,0.5-0.5
				c0-0.2,0.1-0.2,0.2-0.2c0.7-0.2,1.5-0.2,2.2-0.3c0.1,0,0.2,0,0.2,0.1C62.1,31.8,62.4,32.2,62.3,32.7z"/>
			<path fill="#FDFDFD" d="M50,36.3c-0.8,0.7-1.6,0.8-2.5,0.7c-1.7-0.3-2.9-2.2-2.3-3.7c0.1-0.3,0.2-0.3,0.5-0.3
				c0.9,0.3,1.9,0.5,2.8,0.6c0.4,0,0.2,0.2,0.1,0.4c-0.3,0.5-0.4,1-0.1,1.5C48.7,36.1,49.2,36.3,50,36.3z"/>
			<path fill="#FDFDFD" d="M40,48.7c0,0.2,0,0.4-0.1,0.6c-0.1,0.8,0,1.5,0.4,2.2c0.5,0.8,0.6,1.6,0.6,2.5c0,0.6,0,1.3,0,1.9
				c0,0.6-0.1,0.6-0.7,0.5c-0.5-0.1-0.6-0.4-0.7-0.9c-0.2-1.3-0.5-2.6-0.7-3.9c0-0.2-0.1-0.5,0.2-0.6c0.2-0.1,0.1-0.3,0.1-0.4
				c-0.1-0.5-0.1-1,0-1.5c0-0.2,0.1-0.4,0.2-0.6c0.1-0.2,0.2-0.3,0.4-0.3C40.1,48.3,40,48.5,40,48.7z"/>
			<path fill="#FDFDFD" d="M34,28.9c-0.7-0.3-1.3-0.8-1.9-1.2c-0.4-0.3-0.9-0.7-1.3-1c-0.4-0.2-0.3-0.5-0.2-0.9
				c0.1-0.4,0.4-0.3,0.6-0.3c0.7-0.1,1.4-0.2,2.1-0.2c0.3,0,0.4,0.1,0.4,0.3C33.8,26.6,33.9,27.7,34,28.9z"/>
			<path fill="#FDFDFD" d="M50.3,43.6c1.6,0,3.1-0.1,4.6-0.6c0.3-0.1,0.4,0,0.5,0.2c0.1,0.3,0.2,0.7,0.3,1c0,0.2,0,0.3-0.2,0.4
				c-0.2,0.1-0.4,0.2-0.6,0.3c-0.4,0.2-0.7,0.1-0.9-0.3c-0.4-0.7-1-0.9-1.8-0.8c-0.6,0.1-1,0.3-1.2,0.9c-0.1,0.4-0.4,0.5-0.8,0.4
				c-0.3-0.1-0.5-0.1-0.8-0.2c-0.4-0.2-0.6-0.6-0.6-1c0-0.2,0.1-0.3,0.3-0.3C49.6,43.6,49.9,43.6,50.3,43.6z"/>
			<path fill="#FDFDFD" d="M31.3,42.8c-0.8,0-1.5-0.2-2.2-0.7c-0.3-0.2-0.3-0.4-0.1-0.6c0.3-0.4,0.8-0.6,1.3-0.7
				c0.1,0,0.2,0,0.3,0.1c0.3,0.3,0.7,0.4,1,0c0.2-0.2,0.2-0.1,0.4-0.1c0.5,0.2,0.9,0.6,1.1,1.2c0.1,0.1,0.1,0.3-0.1,0.3
				C32.4,42.5,31.9,42.8,31.3,42.8z"/>
			<path fill="#FDFDFD" d="M63.4,35.8c0.3-0.9,0.5-1.8,0.6-2.7c0.1-0.7,0.1-1.3,0-2c0-0.1-0.1-0.2,0.1-0.3c0.1-0.1,0.2,0,0.3,0.1
				c0.3,0.3,0.4,0.6,0.4,1c0,1.2-0.3,2.4-0.9,3.4C63.8,35.6,63.7,35.8,63.4,35.8z"/>
			<path fill="#FDFDFD" d="M29,45.9c1.2,0.1,2.3,0.6,3.5-0.1c-0.2,0.8-1.1,1.5-1.9,1.5C29.9,47.3,29.2,46.7,29,45.9z"/>
			<path fill="#FDFDFD" d="M54,18.3c-0.1,0.4-0.3,0.6-0.5,0.9c-0.6,0.6-1.2,1.1-1.8,1.7c-0.1,0.1-0.2,0.2-0.3,0.1s0-0.2,0-0.3
				c0.3-0.9,0.8-1.7,1.6-2.2c0.2-0.2,0.5-0.3,0.8-0.3C53.9,18.2,54,18.2,54,18.3z"/>
			<path fill="#FDFDFD" d="M38.2,55.7c-0.4,0-0.7-0.4-0.7-0.9c0-0.2,0-0.4-0.2-0.6c-0.2-0.1-0.2-0.4-0.1-0.6
				c0.1-0.2,0.3-0.1,0.4-0.1c0.4,0.1,0.8,0.1,1,0.4c0.1,0.1,0.2,0.2,0.1,0.3c0,0.1-0.2,0.1-0.3,0.1c-0.2,0-0.6-0.1-0.7,0.2
				c0,0.3,0.4,0.3,0.6,0.4c0.2,0.1,0.4,0.1,0.3,0.4C38.7,55.6,38.5,55.7,38.2,55.7z"/>
			<path fill="#FDFDFD" d="M51.8,27.3c-0.5-0.5-0.8-1-0.9-1.7c0-0.4,0.2-0.5,0.5-0.6c0.3,0,0.6,0.1,0.7,0.5
				C52.2,26.1,52.1,26.7,51.8,27.3z"/>
			<path fill="#FDFDFD" d="M56.2,24.8c0.1,0,0.2,0,0.3,0c0.5,0.1,0.8,0.5,0.8,0.8c-0.1,0.3-0.7,0.6-1.1,0.4
				c-0.4-0.2-0.5-0.6-0.5-0.9C55.6,24.8,55.9,24.8,56.2,24.8z"/>
			<path fill="#FDFDFD" d="M37.7,52.1c-0.1,0-0.3,0-0.4,0c-0.4,0-0.4-0.3-0.4-0.6s0.2-0.4,0.5-0.3c0.4,0.1,0.7,0.2,0.9,0.5
				c0.1,0.1,0.2,0.2,0.1,0.3c-0.1,0.2-0.2,0.1-0.3,0.1S37.9,52.1,37.7,52.1L37.7,52.1z"/>
			<path fill="#FDFDFD" d="M53.8,25.1c-0.5,0-0.6-0.2-0.4-0.6c0.1-0.2,0.2-0.5,0.5-0.6s0.5,0,0.7,0.2c0.2,0.3,0.1,0.5-0.2,0.6
				C54.3,25,54.1,25.1,53.8,25.1z"/>
			<path fill="#FDFDFD" d="M38.5,53.2c-0.4,0.2-0.7,0.1-1.1,0.1c-0.2,0-0.4,0.1-0.5-0.2c-0.1-0.2-0.1-0.5,0-0.7
				c0-0.1,0.1-0.1,0.1-0.1C37.6,52.6,38.2,52.6,38.5,53.2z"/>
			<path fill="#FDFDFD" d="M54.8,26.7c-0.2-0.1-0.6,0-0.6-0.4c0-0.3,0.3-0.6,0.7-0.6c0.2,0,0.7,0.5,0.6,0.6
				C55.4,26.6,55.1,26.6,54.8,26.7z"/>
			<path fill="#FDFDFD" d="M31.8,44.8c-1.1,0.2-2.2,0.3-3.2-0.3c-0.1-0.1-0.3-0.2-0.2-0.3c0.1-0.2,0.2,0,0.3,0
				C29.7,44.6,30.8,44.8,31.8,44.8z"/>
			<path fill="#FDFDFD" d="M32.4,3.7c0.1-0.5,0.1-0.9,0.1-1.3c0-0.2,0.2-0.5,0.5-0.4c0.3,0,0.2,0.3,0.2,0.5
				C33.2,2.9,33,3.3,32.4,3.7z"/>
			<path fill="#FDFDFD" d="M50.4,27.4c-0.7-0.3-1.1-0.7-1.1-1.2c0-0.2,0.1-0.5,0.3-0.5c0.2-0.1,0.2,0.2,0.3,0.4
				C50.1,26.5,50.3,26.9,50.4,27.4z"/>
			<path fill="#FDFDFD" d="M56.5,92.7c0.4-0.4,0.7-0.2,0.9,0c0.3,0.4,0.5,0.3,0.8,0c0.1-0.1,0.2-0.3,0.4-0.2
				c0.1,0.1,0.1,0.3,0.1,0.4c0,0.3-0.2,0.2-0.3,0.2c-0.4,0.1-0.9,0.1-1.2-0.3C57,92.7,56.7,92.7,56.5,92.7z"/>
			<path fill="#FDFDFD" d="M57.6,22.5c0.1,0,0.3,0.1,0.4,0.1c0.1,0,0.2,0.1,0.1,0.2c-0.2,0.2-0.4,0.4-0.6,0.7
				c-0.2-0.1-0.4-0.2-0.6-0.3c-0.2-0.1-0.1-0.2,0-0.3C57.1,22.6,57.3,22.5,57.6,22.5z"/>
			<path fill="#FDFDFD" d="M58.2,23.3c0.3,0.5,0.1,1.2,0.8,1.4c-0.2,0.1-1,0-1.1-0.2C57.8,24.1,57.9,23.7,58.2,23.3z"/>
			<path fill="#FDFDFD" d="M32.5,4.1c0.6-0.2,1-0.1,1.4,0.1c0.2,0.1,0.2,0.3,0.1,0.5c-0.1,0.2-0.3,0.2-0.4,0.1
				C33.2,4.7,32.9,4.4,32.5,4.1z"/>
			<path fill="#FDFDFD" d="M57.4,27.3c-0.3,0-0.5-0.1-0.5-0.4s0.2-0.5,0.6-0.5c0.3,0,0.5,0.1,0.5,0.4C58,27.2,57.6,27.2,57.4,27.3z"
				/>
			<path fill="#FDFDFD" d="M55.3,23.3c0.3,0,0.6,0.1,0.5,0.3c0,0.3-0.3,0.5-0.6,0.5s-0.4-0.4-0.4-0.5C54.8,23.4,55.1,23.3,55.3,23.3
				z"/>
			<path fill="#FDFDFD" d="M53.5,22.8c0.2,0,0.4,0.1,0.5,0.4c0,0.1-0.6,0.6-0.8,0.6S53,23.6,53,23.4C53.1,23,53.2,22.9,53.5,22.8z"
				/>
			<path fill="#FDFDFD" d="M56.6,24.3c-0.2,0-0.4,0-0.4-0.3s0.2-0.4,0.5-0.4c0.2,0,0.5,0.1,0.5,0.3C57.2,24.3,56.9,24.3,56.6,24.3z"
				/>
			<path fill="#FDFDFD" d="M30.6,44c0.3-0.2,0.5-0.2,0.7-0.1c0.6,0,1.1,0,1.7-0.3c0.1,0,0.1-0.1,0.2,0c0,0.1,0,0.2-0.1,0.2
				C32.3,43.9,31.5,44.2,30.6,44z"/>
			<path fill="#FDFDFD" d="M52,24.2c-0.3-0.1-0.7,0-0.5-0.6c0.1-0.3,0-0.7-0.2-1c0-0.1-0.1-0.1,0-0.2c0.1,0,0.2-0.1,0.3-0.1
				s0.1,0.1,0.1,0.2C51.6,23.2,51.6,23.7,52,24.2z"/>
			<path fill="#FDFDFD" d="M52.4,72.7c-0.9,0.2-1.8,0.2-2.7,0.1c0.8-0.5,1.6,0.3,2.4-0.2C52.2,72.5,52.3,72.6,52.4,72.7z"/>
			<path fill="#FDFDFD" d="M54.3,22.2c0.3,0,0.6,0.1,0.6,0.5c0,0.2-0.1,0.3-0.3,0.4s-0.2-0.1-0.3-0.2s-0.2-0.2-0.2-0.3
				c-0.1-0.1-0.2-0.1-0.2-0.2C54,22.3,54.1,22.2,54.3,22.2z"/>
			<path fill="#FDFDFD" d="M48.4,68.6c-0.2,0.2-0.4,0.2-0.6,0.2c-0.1,0-0.3,0.2-0.4,0c-0.1-0.2,0-0.4,0.1-0.6s0.3,0,0.4,0
				C48,68.4,48.2,68.5,48.4,68.6z"/>
			<path fill="#FDFDFD" d="M47.6,71.8c0.6,0.2,1.2,0.6,1.9,0.8C48.8,72.6,48.2,72.3,47.6,71.8z"/>
			<path fill="#FDFDFD" d="M59.8,24.9c0.3,0,0.5,0.1,0.5,0.3c0,0.3-0.3,0.2-0.4,0.2c-0.2,0-0.5,0-0.5-0.3
				C59.4,24.9,59.6,25,59.8,24.9z"/>
			<path fill="#FDFDFD" d="M47,92.7c0.4-0.5,0.4-0.5,1.3,0.1c-0.2,0-0.4,0-0.6-0.1C47.5,92.7,47.3,92.7,47,92.7z"/>
			<path fill="#FDFDFD" d="M58.9,23.4c0.3,0,0.6,0.5,0.5,0.8c0,0.1-0.1,0.1-0.2,0.1c-0.3,0-0.6-0.5-0.5-0.8
				C58.8,23.4,58.8,23.4,58.9,23.4z"/>
			<path fill="#FDFDFD" d="M55.3,95.5c0.1-0.4,0.2-0.7,0.7-0.7c0.1,0,0.2,0.1,0.1,0.2C56,95.4,55.7,95.5,55.3,95.5z"/>
			<path fill="#FDFDFD" d="M54,71.1c0,0.2,0,0.4,0,0.5c0.1,0.1,0.1,0.1,0.2,0.1c0.1,0,0.3-0.1,0.4,0c0.1,0.1,0,0.2-0.1,0.3
				c-0.1,0.1-0.2,0.1-0.4,0.1C53.8,72,53.7,71.5,54,71.1z"/>
			<path fill="#FDFDFD" d="M51.4,71.7c-0.3,0.1-0.4-0.2-0.6-0.3v-0.1c0.1-0.2,0.2-0.2,0.4-0.2s0.5,0,0.6,0.3
				C51.8,71.8,51.5,71.7,51.4,71.7z"/>
			<path fill="#FDFDFD" d="M51.3,34.9c-0.2-0.3,0-0.7-0.1-1c-0.1-0.2,0.2-0.2,0.3-0.2s0.2,0.1,0.2,0.2
				C51.6,34.2,51.5,34.5,51.3,34.9L51.3,34.9z"/>
			<path fill="#FDFDFD" d="M44,95.8c-0.2,0-0.5,0-0.5-0.2s0.3-0.2,0.5-0.2s0.5,0,0.5,0.2S44.2,95.8,44,95.8z"/>
			<path fill="#FDFDFD" d="M49,70c-0.1,0.2-0.2,0.1-0.3,0.1c-0.2,0-0.4-0.1-0.4-0.3c0-0.2,0.1-0.2,0.3-0.2S49,69.7,49,70z"/>
			<path fill="#FDFDFD" d="M54.3,96c-0.1,0-0.4,0.1-0.4-0.2c0-0.2,0.2-0.2,0.4-0.2s0.4,0,0.4,0.2S54.5,96,54.3,96z"/>
			<path fill="#FDFDFD" d="M51.6,70.3c0,0.2-0.2,0.1-0.3,0.1c-0.2,0-0.4-0.1-0.4-0.3c0-0.1,0.1-0.2,0.2-0.2
				C51.4,70,51.5,70.1,51.6,70.3z"/>
			<path fill="#FDFDFD" d="M46.6,70.6c-0.2-0.3-0.4-0.5-0.2-0.8c0.1-0.1,0.3,0,0.3,0.1C47,70.2,46.8,70.4,46.6,70.6z"/>
			<path fill="#FDFDFD" d="M50,69.8c-0.3,0-0.5,0.2-0.7-0.1c-0.1-0.1,0-0.2,0.1-0.3C49.7,69.3,49.8,69.6,50,69.8z"/>
			<path fill="#FDFDFD" d="M56.8,93.7c-0.1,0.1,0,0.4-0.3,0.4c-0.2,0-0.2-0.1-0.2-0.3c0-0.2,0.1-0.4,0.4-0.4
				C56.8,93.4,56.8,93.6,56.8,93.7z"/>
			<path fill="#FDFDFD" d="M46.6,93.7c0.2,0.2,0.2,0.4,0.1,0.6c0,0.1-0.1,0.3-0.3,0.2c-0.2,0-0.1-0.2-0.1-0.3
				C46.5,94,46.4,93.8,46.6,93.7z"/>
			<path fill="#FDFDFD" d="M45.1,95.4c0.3-0.3,0.6-0.5,1-0.2C45.8,95.4,45.5,95.4,45.1,95.4z"/>
			<path fill="#FDFDFD" d="M32.2,44.7c0.2-0.1,0.5-0.2,0.9-0.3C32.9,45.1,32.3,44.5,32.2,44.7z"/>
			<path fill="#FDFDFD" d="M52.2,71.2c-0.2-0.1-0.4,0-0.5-0.3c0-0.2,0.1-0.2,0.2-0.2c0.2,0,0.4,0.1,0.5,0.3
				C52.4,71.2,52.2,71.1,52.2,71.2z"/>
			<path fill="#FDFDFD" d="M53.1,71.7C52.5,71.5,53,71.3,53,71C53.2,71.3,53,71.5,53.1,71.7z"/>
			<path fill="#FDFDFD" d="M29.5,25.7c0.2-0.1,0.4-0.2,0.6-0.1c0.1,0.1,0.1,0.2,0,0.3C29.9,26.1,29.7,25.9,29.5,25.7z"/>
			<path fill="#FDFDFD" d="M50.8,27v-0.1V27L50.8,27z"/>
			<path fill="#FDFDFD" d="M51.3,34.9v-0.1V34.9z"/>
			<path fill="#FDFDFD" d="M37.6,63.6L37.6,63.6L37.6,63.6C37.7,63.7,37.7,63.7,37.6,63.6z"/>
			<path fill="#FDFDFD" d="M32.4,4.8L32.4,4.8C32.4,4.7,32.4,4.7,32.4,4.8C32.4,4.7,32.4,4.8,32.4,4.8z"/>
			<path fill="#060606" d="M52.4,39.2c1.4,0.1,2.8,0,4.2-0.3c0.2,0,0.3-0.1,0.5-0.1c0.3-0.1,0.5-0.2,0.5-0.5s-0.3-0.4-0.4-0.5
				c-0.3-0.2-0.6-0.4-0.9-0.6c-0.8-0.5-1.3-1.2-1.6-2.1c0-0.1-0.1-0.3,0.1-0.4c0.2-0.1,0.3,0.1,0.3,0.2c0.3,1.1,1.2,1.7,2.1,2.2
				c0.2,0.1,0.4,0.2,0.6,0.3c0.6,0.4,0.6,0.8,0.1,1.3c-0.6,0.5-1.3,0.6-2,0.7c-1.9,0.3-3.8,0.4-5.7,0.2c-0.4,0-0.8-0.3-1.1-0.6
				c-0.4-0.4-0.3-0.8,0.2-1c0.5-0.3,1.2-0.5,1.8-0.6c0.9-0.2,1.4-0.7,1.6-1.5c0-0.2,0.1-0.5,0.3-0.4s0.2,0.4,0.1,0.6
				c-0.4,0.8-0.7,1.7-1.8,1.7c-0.5,0-1.1,0.3-1.5,0.5s-0.4,0.3-0.1,0.6c0.2,0.2,0.4,0.3,0.6,0.3C51,39.2,51.7,39.2,52.4,39.2z"/>
			<path fill="#060606" d="M46.6,20.6c0.7-0.1,1.8,0.6,1.6,1.3c-0.1,0.5-0.7,1.1-1.5,1.1c-0.7,0-1.3-0.8-1.3-1.5
				C45.5,21,46,20.6,46.6,20.6z"/>
		</g>
	</g>
</g>
</svg>
