<?xml version="1.0" encoding="utf-8"?>
<!-- Generator: Adobe Illustrator 19.2.0, SVG Export Plug-In . SVG Version: 6.00 Build 0)  -->
<svg version="1.1" id="Capa_1" xmlns="http://www.w3.org/2000/svg" xmlns:xlink="http://www.w3.org/1999/xlink" x="0px" y="0px"
	 viewBox="0 0 100 100" enable-background="new 0 0 100 100" xml:space="preserve">
<g id="Capa_2">
</g>
<g>
	<path fill="#FFFFFF" d="M30.3,88.5c0.2,0.1,0.4,0.1,0.6,0.2c1.7,0.2,3.4,0,5.1,0c0.3,0,0.6-0.1,0.9-0.2c0.4-0.2,0.6-0.6,0.5-0.9
		c-0.1-0.3-0.5-0.1-0.7-0.1c-1.6,0.2-3.3,0.2-4.9,0.1c-0.4,0-0.9,0-1.3,0c-0.3,0-0.5,0-0.6,0.3C29.9,88.1,30,88.4,30.3,88.5z"/>
	<path fill="#FFFFFF" d="M37.9,91c-0.5-0.3-1-0.6-0.9-1.3c0.1-0.6-0.2-0.6-0.6-0.5c-1.3,0.2-2.6,0.3-3.9,0.1
		c-0.4-0.1-0.9-0.2-1.3,0.1c-0.7,0.5-1.4,0.8-2.2,1.1c-0.7,0.3-1.5,0.6-2.2,0.9c-0.2,0.1-0.5,0.2-0.4,0.5c0,0.3,0.3,0.3,0.6,0.3
		c0.8,0,1.7,0.2,2.6,0.1c0.4,0,0.8,0,1.3,0c2.3-0.2,4.6-0.3,6.9-0.5c0.4,0,0.9,0,1-0.3C38.7,91.2,38.1,91.2,37.9,91z"/>
	<path fill="#FFFFFF" d="M24.7,23c0.3-0.8,0.4-1.7,0.4-2.7c-0.8,1-1.1,2-1.4,3C24.1,23.3,24.6,23.4,24.7,23z"/>
	<path fill="#FFFFFF" d="M55.9,67.1c0.5-0.2,0.8-0.5,1-1c0.1-0.3,0.1-0.6-0.3-0.6c-0.8-0.1-1.5-0.3-2.3-0.4c-0.2,0-0.4,0-0.4,0.2
		c0,0.7-0.4,1.2-1.1,1.7C53.9,67.4,54.9,67.4,55.9,67.1z"/>
	<path fill="#FFFFFF" d="M52.2,81.9c-1.1-0.3-2.1-1-3.3-0.8c-0.2,0-0.3,0.1-0.4-0.1c-0.1-0.2,0.1-0.2,0.2-0.3c0.1-0.1,0.1-0.2,0-0.3
		c-0.1-0.1-0.5-0.1-0.3-0.4c0.1-0.3,0.4-0.2,0.7-0.1c0.5,0.2,0.7,0,0.7-0.5c0-0.5,0-1,0-1.5c-0.1-1.5-0.6-2.9-1.6-4.3
		c-0.5,1-1,1.9-1.5,2.9c-0.8,1.7-1.4,3.4-1.6,5.3c-0.1,1.1,0.1,1.4,1,1.9c1.6,0.8,3.4,1.1,5,1.7c0.3,0.1,0.5,0,0.6-0.3
		c0.4-0.8,0.7-1.7,0.8-2.6C52.5,82.2,52.5,81.9,52.2,81.9z"/>
	<path fill="#FFFFFF" d="M60.8,87.4c-0.2-2.4-0.2-4.8-0.7-7.2c0-0.2,0-0.5-0.2-0.5c-0.2-0.1-0.3,0.2-0.4,0.3
		c-0.5,0.5-0.7,0.4-0.8-0.3c-0.1-0.5-0.1-0.9-0.5-1.4c-0.2,0.7-0.3,1.3-0.5,1.9c-0.1,0.5-0.4,0.6-0.8,0.3c-0.6-0.4-1.2-0.8-1.9-1.1
		c-0.3-0.2-0.4-0.4-0.5-0.7c-0.4-1.5-0.8-3.1,0.1-4.6c0.1-0.2,0.1-0.5-0.2-0.5c-1.2-0.2-2.1-1-3.1-1.6c-0.9-0.6-1.8-0.9-2.9-0.1
		c-2.2,1.4-4.1,3.1-5.6,5.2c-2.7,3.8-4,8.1-5.2,12.6c-0.1,0.2,0,0.5,0.2,0.6c0.5,0.4,1.1,0.7,1.8,0.8c0.4,0.1,0.6-0.1,0.8-0.5
		c0.3-0.9,0.6-1.7,0.9-2.6c0.1-0.2,0.1-0.5,0.4-0.7c0.2,0.2,0.1,0.5,0,0.7c-0.2,0.7-0.4,1.3-0.7,1.9c-0.4,1.2-0.4,1.2,0.6,1.8
		c0.2,0.1,0.4,0.2,0.5,0.3c0.9,0.6,1.9,0.7,3,0.5c0.8-0.1,1.1-0.5,1.2-1.3c0.1-1,0.3-2,0.5-3.1c0.4,0.4,0.3,0.7,0.3,1
		c-0.1,0.7-0.2,1.5-0.3,2.2c-0.1,0.5,0,0.8,0.6,0.8c1-0.1,1.9,0.1,2.9,0.4c1,0.3,2,0.3,2.9-0.2c1.2-0.6,2.5-0.5,3.7-0.4
		c1.3,0.1,2.5,0.2,3.7-0.5c0.4-0.2,0.5-0.4,0.4-0.9C61,89.5,60.9,88.4,60.8,87.4z M55,85.3c-0.2,0.1-0.2,0.7-0.7,0.6
		c0,0,0,0.2,0,0.2c0.1,0.2,0,0.5-0.2,0.4c-0.5-0.1-0.5,0.1-0.5,0.6c0.1,0.3-0.2,0.4-0.4,0.3c-0.4-0.2-0.6-0.5-0.8-0.8
		c-0.2-0.4-0.6-0.6-1-0.6c-1.8-0.3-3.5-0.9-5.2-1.6c-1.7-0.6-2-1.1-1.7-3.2c0.3-1.9,1-3.6,1.9-5.2c0.4-0.7,0.7-1.4,1-2.2
		c0.2-0.3,0.3-0.7,0.8-0.7c0.4,0,0.6,0.3,0.8,0.6c1.2,1.9,1.6,4.1,1.3,6.3c-0.1,0.5,0.1,0.7,0.5,0.8c1.3,0.2,2.4,1.2,3.8,1.3
		c0.3,0,0.6,0.2,0.6,0.5c0,0.4-0.4,0.3-0.6,0.4C54.4,83,54.2,83,53.9,83c0.3,0.6,0.9,0.8,1.2,1.2C55.3,84.6,55.8,85,55,85.3z"/>
	<path fill="#FFFFFF" d="M65.5,64.7c0.5-0.5,0.4-1.1,0.1-1.6c-0.2-0.3-0.4-0.5-0.8-0.3c-0.4,0.2-1.2,0.4-1.1,0.9
		c0.1,0.8,0,1.5-0.5,2.3C64.3,65.7,65,65.3,65.5,64.7z"/>
	<path fill="#FFFFFF" d="M9.3,56.1c0.2-0.3,0.7-0.5,1-0.2c0.2,0.4-0.3,0.5-0.5,0.7c-0.9,0.7-1.7,1.5-2.4,2.7c0.5-0.1,0.7-0.2,1-0.4
		c0.7-0.5,1.3-1,2-1.3c1.1-0.5,1.6-1.4,1.9-2.5c0.1-0.2,0.3-0.5,0.1-0.7c-0.2-0.2-0.5,0-0.8,0c-2.2,0.6-4.1,1.7-5.9,3.1
		C5.1,57.9,4.5,58.3,4,59c0.6-0.1,1-0.3,1.3-0.5C6.7,57.7,8.2,57.3,9.3,56.1z"/>
	<path fill="#FFFFFF" d="M6.4,60c-0.4,0.5-0.9,1.1-1,1.9c0.9-0.4,1.5-1,2-1.8C7.1,60.2,6.7,59.7,6.4,60z"/>
	<path fill="#FFFFFF" d="M23.5,24.3c-0.3,0.5-0.8,0.8-1.1,1.5c0.9-0.3,1.2-0.3,1.6,0.1c0.9,1,0.7,2.8-0.5,3.5
		c-0.4,0.2-0.2,0.3,0,0.5c0.5,0.3,1.1,0.3,1.6-0.1c1.2-0.9,1.7-3.5,0.9-4.7c-0.3-0.5-0.6-0.7-1.1-0.1c-0.1,0.1-0.3,0.2-0.4,0.2
		c-0.2-0.1-0.1-0.3-0.2-0.4c0-0.2,0.1-0.4-0.1-0.5C23.9,24,23.6,24.2,23.5,24.3z"/>
	<path fill="#FFFFFF" d="M20.5,11.8c0.4-0.2,0.9-0.5,1.3-0.7c0.1-0.1,0.3-0.1,0.2-0.3c-0.3-1.1-0.6-2.2-0.9-3.5
		c-0.3,0.7-0.3,1.2-0.3,1.8c0,0.2,0,0.5-0.3,0.5c-0.3,0-0.3-0.3-0.3-0.5c0-0.7,0.1-1.4,0.3-2c0.1-0.3,0.1-0.8,0.7-0.8
		c0.5,0,0.5,0.5,0.7,0.9C22.1,8,22.3,9,22.5,9.9c0.1,0.8,0.4,0.7,1,0.5c0.4-0.2,0.6-0.3,0.5-0.8c-0.1-0.3-0.1-0.6-0.2-0.9
		c-0.4-1.7-0.9-3.3-1.9-4.8c-0.3-0.4-0.5-0.4-0.7,0c-0.1,0.2-0.2,0.4-0.3,0.7c-0.8,2.3-0.9,4.6-0.7,7C20.1,12,20.3,11.9,20.5,11.8z"
		/>
	<path fill="#FFFFFF" d="M9.3,59.1c-0.5,1.1-1.3,2-1.8,3c-0.1,0.3-0.3,0.5-0.2,0.9c0.6-0.4,1-0.9,1.4-1.4c0.3-0.5,0.6-1,0.9-1.4
		c0.2-0.3,0.3-0.7,0.7-0.5c0.4,0.2,0.1,0.6,0,0.8c-0.3,0.7-0.6,1.3-0.9,1.9c-0.2,0.4-0.4,0.7-0.3,1.2c1.9-1.5,1.5-3.9,2-5.9
		C10.5,58.2,9.6,58.5,9.3,59.1z"/>
	<path fill="#FFFFFF" d="M15.5,25.6c0,0,0,0,0,0.1c0.4-0.1,0.8-0.3,1.2,0c1,0.8,0.7,3.1-0.5,3.6c-0.1,0-0.3,0-0.3,0.2
		c0,0.2,0.2,0.2,0.3,0.3c0.7,0.3,1.5,0.2,2-0.4c0.9-1.1,1.1-2.4,0.7-3.8c-0.3-0.8-0.8-1.5-1.8-1.6C16.1,24,15.8,24.9,15.5,25.6z"/>
	<path fill="#FFFFFF" d="M27.4,89.4c0.2-1,0.2-2,0.1-3.1c-0.1-1.4-0.1-1.4-1.6-1.7c-0.2,0-0.3,0-0.5-0.1c-0.2-0.1-0.6-0.1-0.5-0.5
		c0.1-0.3,0.4-0.2,0.7-0.2c0.9,0.3,1.8,0.3,2.8,0.4c0.6,0.1,1,0.1,0.8-0.7c0-0.2-0.1-0.6,0.2-0.6c0.3-0.1,0.4,0.3,0.5,0.6
		c0.1,0.9,0.4,1.8,0.8,2.6c0.1,0.4,0.3,0.5,0.7,0.6c2,0.3,4,0.1,6-0.2c0.4-0.1,0.5-0.3,0.6-0.6c0.5-1.5,0.9-3.1,1.6-4.6
		c0.1-0.1,0.1-0.3,0-0.5c-0.4-1.2-0.3-1.3,0.8-1.8c0.4-0.2,0.7-0.6,0.5-1c-0.3-1-0.6-2-1-2.9c-1.2-3-1.8-6.1-2-9.3
		c-0.3-5.1,0.3-10.1,1.6-14.9c0.9-3.2,2.1-6.3,3.7-9.1c0.2-0.4,0.5-0.8,0.3-1.3c-0.8-3.2-1.6-6.4-2.5-9.5c-0.7-2.4-1.4-4.7-2.2-7.1
		c-0.4-1.3-0.8-2.7-1.4-4C37.1,19,36.7,18,36.4,17c-0.3-0.8-0.6-1.6-1.1-2.3c-0.3-0.5-0.4-1-0.3-1.6c0.3-2.2,0.1-4.3-0.2-6.5
		c-0.1-1-0.2-1.9-0.7-2.8c-0.2-0.4-0.5-0.5-0.8-0.1c-0.5,0.6-0.9,1.3-1.3,2c-0.8,1.6-1.4,3.4-1.8,5.1c-0.1,0.4-0.2,0.6-0.6,0.4
		c-1.6-0.7-3.2-0.7-4.9-0.4c-4.4,1-7.2,3.9-9.2,7.7c-0.1,0.1-0.2,0.2,0,0.4c0.3-0.2,0.5-0.5,0.8-0.8c0.8-0.9,1.7-1.8,2.8-2.3
		c0.2-0.1,0.5-0.3,0.7,0c0.2,0.3-0.1,0.4-0.3,0.6c-1.6,1.3-2.6,3-3,5.1c0.3-0.2,0.4-0.4,0.5-0.7c0.9-1.5,2.1-2.8,3.3-4
		c0.2-0.2,0.5-0.5,0.8-0.2c0.2,0.2,0,0.5-0.2,0.7c-0.8,0.9-1.3,2-1.6,3.2c0,0.1-0.1,0.3,0.1,0.4c0.1-0.1,0.2-0.2,0.2-0.3
		c0.6-0.9,1.2-1.7,1.8-2.6c0.2-0.2,0.4-0.6,0.7-0.3c0.2,0.2,0,0.5-0.1,0.7c-0.3,0.4-0.5,0.9-0.6,1.4c-0.2,1.1-0.2,2,0,2.5
		c0.5-1.5,1.3-2.7,2-4c0.2-0.3,0.4-0.7,0.7-0.5c0.3,0.2,0.1,0.5-0.1,0.8c-0.5,1.1-0.7,2.3-0.7,3.7c0.3-0.6,0.5-1.1,0.7-1.5
		c0.4-0.9,1.1-1.6,1-2.7c0-0.2,0.1-0.3,0.3-0.3c0.2,0,0.3,0.2,0.3,0.3c0.2,0.8,0.3,1.7,0.2,2.6c-0.1,0.6-0.1,1.3-0.2,1.9
		c0.6-1.4,1.2-2.7,1.4-4.2c0-0.2-0.1-0.5,0.2-0.6c0.3-0.1,0.4,0.3,0.5,0.5c0.3,1,0.2,2,0.1,3c0,0.3-0.1,0.6,0,0.9
		c1.3-1.4,2-4.4,1.7-6.3c-0.1-0.4-0.2-0.8-0.2-1.3c0-0.5,0.3-0.6,0.7-0.3c0.3,0.2,0.6,0.6,0.8,0.9c1.1,1.7,1.6,3.6,2,5.5
		c0.1,0.3,0.1,0.6-0.2,0.7c-0.3,0.1-0.3-0.3-0.4-0.5c-0.3-1.2-0.6-2.4-1.1-3.5c0.3,1.2,0.4,2.4,0.3,3.6c0,0.2,0,0.6-0.3,0.6
		c-0.3,0-0.3-0.3-0.3-0.5c0-0.7-0.1-1.4-0.1-2.1c0-0.7-0.1-1-0.4-1.3c0,0.1,0,0.1,0,0.2c-0.2,2.2-1.2,4.2-2.5,5.9
		c-0.2,0.3-0.5,0.6-0.9,0.5c-0.4-0.1-0.2-0.5-0.1-0.9c0.1-0.8,0.4-1.5,0.4-2.2c-0.3,0.8-0.5,1.6-1,2.3c-0.2,0.4-0.2,0.7,0.1,1
		c1.5,1.8,0.7,4.6-0.6,5.7c-1,0.9-2.5,0.8-3.4-0.3c-1.2-1.5-1.2-3.4-0.1-4.9c0.1-0.2,0.3-0.3,0.3-0.5c0-1,0-2,0-2.9
		c-0.1,0-0.1,0-0.2,0c-0.4,0.9-0.7,1.8-0.8,2.8c0,0.3,0.2,0.8-0.3,0.9c-0.5,0-0.5-0.5-0.6-0.9c0,0,0-0.1,0-0.1
		c-0.3-1-0.2-2.1-0.4-3.3c-0.5,0.6-0.7,1.3-1.1,1.9c-0.1,0.2-0.2,0.5-0.5,0.5c-0.3-0.1-0.4-0.3-0.5-0.6c0-0.2,0-0.4,0-0.6
		c0-0.7,0.3-1.4,0.4-2.1c-1,1.1-1.6,2.5-2.3,3.8c1.3-0.3,2.1,0,2.8,1.2c1,1.6,1,3.2,0,4.6c-0.6,0.9-1.4,1.5-2.6,1.3
		c-1.2-0.2-1.9-1-2.3-2.1c-0.5-1.6,0.3-3.8,2-4.9c0,0,0,0,0,0l0,0c-0.7,0-0.6-0.6-0.8-1.1c-0.4,0.8-0.8,1.4-1.1,2.1
		c-1.3,2.9-3.5,4.6-6.6,5.3c-3.7,0.8-5.9,3.2-6.3,7c-0.5,4.4,0.9,6.8,4.7,8.4c3.2,1.4,6.7,1.8,10.1,1c5.5-1.4,10.3-4,13.8-8.7
		c0.4-0.6,0.9-1.1,1.2-1.7c0.1-0.2,0.3-0.4,0.6-0.3c0.3,0.2,0.2,0.4,0.1,0.7c-0.2,0.3-0.4,0.6-0.6,0.9c-3.2,4.5-7.5,7.6-12.8,9.2
		c-0.6,0.2-1.1,0.4-1.7,0.4c-0.5,0.1-0.7,0.3-0.9,0.7c-0.9,2.1-1.8,4.2-2.6,6.3c-1.3,3.8-2.3,7.6-2,11.6c0.3,3.8,1.3,7.2,3.2,10.5
		c1.4,2.4,3.1,4.5,5.5,6.1c0.3,0.2,0.8,0.3,0.6,0.7c-0.3,0.4-0.7,0-1-0.2c-0.6-0.4-1.2-0.9-1.9-1.4c0.1,0.4,0.2,0.7,0.3,1
		c0.4,1.2,0.8,2.5,1.1,3.7c0.3,1,0,1.6-0.9,2c-0.3,0.2-0.7,0.2-1,0.4c-1.2,0.4-2.4,0.9-3.5,1.6c-0.2,0.1-0.5,0.3-0.4,0.6
		c0,0.3,0.4,0.3,0.6,0.4c0.9,0.3,1.8,0.3,2.6,0.2c1.8-0.2,3.5-0.1,5.3-0.2c1.6-0.1,3.2-0.1,4.8-0.4C27.1,90.3,27.3,90,27.4,89.4z
		 M32.5,10.8c0,0.2-0.1,0.6-0.4,0.5c-0.3-0.1-0.3-0.4-0.3-0.6c0.1-0.6,0.2-1.2,0.3-1.8C32.3,8,32.5,7,32.9,6.2
		c0.2-0.4,0.4-0.7,0.8-0.7c0.5,0,0.5,0.5,0.6,0.8c0.3,1.6,0.2,3.2,0,4.7c0,0.3-0.1,0.6-0.5,0.5c-0.4-0.1-0.3-0.4-0.3-0.7
		c0.4-1.4,0.2-2.8,0.1-4.2C33.1,7.4,33,8.2,32.9,9C32.7,9.6,32.7,10.2,32.5,10.8z M25.2,57.4c0.3-0.4,0.8-0.6,1.2-0.9
		c1.5-0.9,3-1.6,4.6-2.2c1.1-0.4,2.2-0.2,3.3-0.1c0.7,0.1,1.4,0.2,2.1,0.3c0.2,0,0.4,0.1,0.6,0.1c0.2,0.1,0.5,0.2,0.4,0.5
		c-0.1,0.3-0.4,0.2-0.6,0.2c-1.5-0.2-3-0.6-4.5-0.5c-0.3,0-0.6,0-0.9,0.1c-1.1,0.2-4.6,2.1-5.4,2.8c1.3-0.2,2.5-0.7,3.6-1.2
		c0.1-0.1,0.2-0.1,0.4-0.2c0.3-0.1,0.7-0.3,0.9,0.1c0.2,0.4-0.3,0.5-0.5,0.6c-1.3,0.6-2.5,1.4-3.4,2.4c-0.1,0.1-0.2,0.2-0.2,0.4
		c0.5,0,0.8-0.2,1.1-0.5c0.8-0.6,1.7-1.1,2.6-1.6c0.2-0.1,0.3-0.2,0.5-0.2c0.2,0,0.4,0,0.5,0.1c0.1,0.2,0,0.4-0.2,0.5
		c-0.4,0.3-0.8,0.6-1.2,0.9c-0.8,0.7-1.6,1.4-2.3,2.5c0.6-0.2,0.9-0.4,1.3-0.7c0.7-0.5,1.3-1.1,2-1.6c0.2-0.1,0.3-0.2,0.5-0.3
		c0.2-0.1,0.4-0.1,0.5,0c0.1,0.2,0,0.4-0.1,0.5c-0.5,0.5-1,1-1.4,1.5c-0.5,0.5-0.9,1.2-1.1,1.9c0.8-0.5,1.5-1.1,2.1-1.8
		c0.3-0.4,0.7-0.8,1-1.1c0.2-0.2,0.4-0.3,0.6-0.2c0.2,0.1,0.2,0.3,0.1,0.5c-0.1,0.4,0.2,0.3,0.4,0.3c0.3,0,0.9-0.2,0.9,0.3
		c0,0.5-0.6,0.5-0.9,0.4c-0.8-0.2-1.3,0.1-1.9,0.7c-0.4,0.4-0.9,0.8-1.3,1.2c-0.3,0.2-0.5,0.4-0.9,0.6c-0.6,0.2-1-0.1-0.9-0.7
		c0-0.4,0.2-0.7,0.4-1.1c-0.4,0.2-0.6,0.3-0.9,0.5c-0.3,0.1-0.7,0.2-1-0.1c-0.3-0.3-0.2-0.7,0-1c0.2-0.3,0.4-0.6,0.7-1
		c-0.5,0.1-0.9,0.3-1.3,0.3c-0.3,0.1-0.6,0.1-0.8-0.2c-0.2-0.3-0.1-0.6,0.1-0.9c0.3-0.5,0.8-0.8,1.3-1.3c-0.6,0.1-1,0.3-1.4,0.3
		c-0.3,0-0.6,0-0.7-0.4C24.8,57.9,25,57.6,25.2,57.4z"/>
	<path fill="#FFFFFF" d="M53,45.1c-0.3,0.3-0.9,0.5-0.5,1.1c0.1,0.1,0.1,0.3,0.1,0.5c-0.1,2.5,0.9,4.7,1.5,7.1
		c-0.1-1.1-0.3-2.1-0.6-3.1c-0.2-0.6-0.3-1.3-0.5-1.9c0-0.2-0.1-0.4,0.1-0.5c0.3-0.1,0.3,0.2,0.4,0.3c0.1,0.1,0.1,0.3,0.2,0.5
		c0.3,1,0.6,2,1,3c-0.3-2-0.8-3.8-1.7-5.6c-0.1-0.2-0.4-0.6-0.1-0.8c0.3-0.2,0.5,0.2,0.6,0.5c0.1,0.2,0.3,0.4,0.4,0.7
		c0.9,2.1,1.7,4.2,1.7,6.6c0.1-0.3,0.1-0.7,0.1-1c-0.1-2.2-0.9-4.1-1.8-6c-0.1-0.3-0.3-0.6-0.2-1C53.6,45.1,53.2,44.9,53,45.1z"/>
	<path fill="#FFFFFF" d="M75.7,23.6c-1.6,1.5-2,4.5-0.7,6.3c0.4,0.5,0.8,0.8,1.5,0.7c0.8-0.1,1.6-0.6,2-1.4
		c-0.9,0.5-1.6,0.2-1.9-0.7c-0.3-1-0.3-2,0.3-3c0.5-0.9,1.2-1.1,2.2-0.4c-0.2-0.5-0.3-0.8-0.5-1.1C78,23.1,76.6,22.8,75.7,23.6z"/>
	<path fill="#FFFFFF" d="M53.2,53.4c-0.6-2.2-1.4-4.3-1.4-6.6C51.5,49.2,52.2,51.4,53.2,53.4z"/>
	<path fill="#FFFFFF" d="M58.5,73.3c0,1.8-0.1,3.7,0.7,5.4c0.1,0.3,0.3,0.3,0.5,0.1c0.6-0.7,1.3-1.3,2-1.9c0.1-0.1,0.3-0.3,0.2-0.5
		c-0.5-1.5-1.2-2.8-2.2-4c-0.2-0.2-0.4-0.1-0.6,0c-0.3,0.2,0,0.3,0.1,0.5c0.5,1,0.9,2.1,1,3.2c0,0.4,0.2,1.2-0.2,1.2
		c-0.6,0-0.4-0.7-0.4-1.1C59.5,75.2,59.1,74.2,58.5,73.3z"/>
	<path fill="#FFFFFF" d="M93.9,29.6c-1.9-0.4-3.8-0.7-5.7-0.8c-0.9,0-1.8-0.1-2.7-0.1c-0.3,0-0.8-0.1-0.7-0.5
		c0.1-0.4-0.1-0.6-0.3-0.8c-2.6-2.6-5-5.3-7.3-8.2c-0.8-1-1.5-2-2.3-3c-0.2,0.2-0.3,0.7-0.7,0.5c-0.4-0.2-0.1-0.5,0-0.8
		c0.5-1.4,1-2.8,1.4-4.2c0.4-1.6,0.6-3.2,0.5-4.9c0-0.6-0.3-0.7-0.8-0.5c-0.4,0.2-0.7,0.4-1.1,0.6c-2.6,1.7-4.3,4-5.5,6.8
		c-0.1,0.3-0.3,0.7-0.4,1c-0.1,0.1-0.2,0.3-0.4,0.2c-0.2-0.1-0.3-0.3-0.2-0.4c0.1-0.5,0.3-0.9,0.5-1.4c0.3-0.7,0.6-1.4,0.7-2.2
		c0.2-1.5,0.3-2.9,0.1-4.4c0-0.2,0.1-0.6-0.2-0.7c-0.2-0.1-0.4,0.2-0.6,0.3c-1.5,1.3-2.4,3-3.4,4.6c-0.7,1.1-1.5,2.2-1.9,3.5
		c0.5-0.4,1.1-0.5,1.7-0.9c0.2-0.1,0.5-0.2,0.6,0c0.1,0.2-0.2,0.3-0.3,0.5c-0.1,0.1-0.2,0.1-0.3,0.2c-1.3,0.5-2.2,1.4-3.1,2.4
		c-2.3,2.4-4.4,5-6.3,7.8c-2.2,3.2-4.5,6.3-6.6,9.6c-1.6,2.5-3,5.2-4.4,7.9c-4.1,7.5-5.9,15.5-5.5,24c0.2,3.4,0.9,6.7,2.1,9.9
		c0.1,0.2,0.2,0.5,0.3,0.7c0.3,0.6,0.8,0.4,1.2,0.3c0.4-0.1,0-0.5-0.1-0.7c-0.2-0.4,0-0.8,0.4-1c0.3-0.2,0.6-0.2,1-0.1
		c0.4,0.1,0.6-0.1,0.6-0.5c-0.2-1,0.2-1.4,1.2-1.2c0.3,0.1,0.7,0,0.6-0.4c-0.1-0.4-0.2-0.8,0.2-1c0.4-0.3,0.7-0.3,1.1,0
		c0.2,0.1,1.2-0.3,1.3-0.6c0.2-0.5-0.3-0.4-0.5-0.6c-2.7-1.8-3.7-4.6-2.7-7.6c1.2-3.4,3.6-5.8,6.7-7.6c0.6-0.3,0.6-0.5,0.2-1
		c-2.3-2.7-2.1-7.1,0.3-9.7c0.4-0.5,0.8-0.5,1.3-0.1c2.9,2.2,4,5.1,3.7,8.7c0,0.5,0.1,0.7,0.5,0.8c4.3,1,7.3,3.6,9,7.6
		c0.6,1.4,1,2.9,0.6,4.4c-0.7,2.5-2.1,4.4-4.5,5.4c-0.6,0.3-1.3,0.5-1.9,0.7c-0.8,0.3-0.8,0.3-0.4,0.9c0.6,1,1.3,2,1.6,3.2
		c0.2,0.6,0.1,1-0.4,1.3c-1.1,0.7-1.7,1.5-1.2,2.9c0.2,0.5,0.3,0.7,0.8,0.7c0.4,0,0.7,0,1.1,0.1c0.2,0,0.5,0.2,0.5,0.5
		c0.1,0.4-0.3,0.3-0.5,0.4c0.2,0.2,0.6,0.2,0.5,0.5c0,0.3-0.4,0.2-0.6,0.4c0.2,0.2,0.6,0.2,0.5,0.5c-0.1,0.4-0.6,0.1-0.9,0.3
		c0.1,0,0.1,0.1,0.2,0.1c0.2,0.1,0.6,0.2,0.6,0.5c-0.1,0.4-0.4,0.3-0.7,0.3c-0.1,0-0.2,0-0.3,0c-0.4,0-0.6,0.2-0.6,0.6
		c0,1.8,0.1,3.6,0.5,5.4c0.1,0.3,0.2,0.5,0.1,0.8c-0.1,0.5,0.2,0.8,0.6,1c0.4,0.2,0.8,0.2,1.3,0.2c3.2,0,6.3-0.3,9.5-0.6
		c1-0.1,2-0.1,3-0.4c0.3-0.1,0.8-0.1,0.9-0.5c0.1-0.5-0.4-0.6-0.7-0.9c-0.5-0.3-1.1-0.6-1.7-0.7c-1.1-0.3-2.3-0.4-3.5-0.6
		c-0.8-0.1-1.5-0.4-1.9,0.7c0,0.1-0.1,0.1-0.1,0.1c-0.2,0.1-0.3,0.2-0.5,0c-0.2-0.1-0.1-0.3,0-0.5c0.1-0.1,0.2-0.3,0.3-0.4
		c0.9-1.3,1.8-2.7,2.7-4c1.1-1.6,1-2.6-0.3-4.1c-0.7-0.7-1.4-1.3-2.2-1.9c-0.5-0.4-1-0.8-1.4-1.2c-0.1-0.1-0.3-0.3-0.2-0.5
		c0.1-0.2,0.4-0.2,0.6-0.1c0.2,0.1,0.3,0.2,0.4,0.3c0.8,0.7,1.6,1.3,2.4,2c0.3,0.2,0.5,0.3,0.8,0c3.2-3.4,5.3-7.4,6.6-11.9
		c0.1-0.5,0.3-1,0.2-1.7c-0.8,1.2-1.8,2-2.9,2.8c-0.7,0.6-1.6,1-2.4,1.4c-0.2,0.1-0.6,0.2-0.7-0.2c-0.1-0.3,0.2-0.5,0.5-0.6
		c0.3-0.1,0.6-0.2,0.9-0.4c1.9-1.1,3.6-2.4,4.6-4.4c0.4-0.7,1.1-0.8,1.8-0.4c0.3,0.2,0.6,0.4,0.9,0.7c0.5,0.4,0.9,0.8,1.4,1.2
		c-0.1-1-0.5-1.8-1.2-2.4c-0.2-0.2-0.5-0.5-0.7-0.8c-0.1-0.2-0.2-0.4,0-0.6c0.2-0.3,0.4,0,0.6,0.1c0.7,0.5,1.4,0.9,2.1,1.4
		c0.4,0.2,0.8,0.5,1.3,0.5c0-0.4-0.3-0.6-0.4-0.8c-0.8-1.1-2-1.7-3.1-2.4c-0.2-0.1-0.7-0.2-0.5-0.6c0.2-0.4,0.6-0.2,0.8,0
		c0.8,0.4,1.6,0.9,2.3,1.6c0.2,0.2,0.5,0.4,0.7,0.5c0.2,0.1,0.4,0.2,0.6,0c0.2-0.2,0-0.3,0-0.5c-0.2-0.9-0.8-1.5-1.5-1.9
		c-0.7-0.4-1.4-0.7-2.2-1c-0.2-0.1-0.6-0.2-0.5-0.5c0.1-0.4,0.5-0.2,0.7-0.2c0.5,0.1,0.9,0.3,1.3,0.5c0.5,0.3,1.1,0.6,1.7,1
		c-0.1-0.8-0.5-1.1-1-1.5c-1.5-1-3.1-1.3-4.8-0.9c-2.3,0.5-4.4,1.6-6.6,2.4c-0.6,0.2-1.1,0.5-1.8,0.5c-0.2,0-0.5-0.1-0.5-0.3
		c0-0.3,0.2-0.3,0.4-0.4c2.5-0.6,4.8-1.8,7.2-2.7c0.5-0.2,0.7-0.4,0.5-1c-1.2-4.9-2.8-9.6-5-14.1c-0.1-0.2-0.3-0.6-0.1-0.7
		c0.3-0.2,0.5,0.2,0.6,0.5c0.4,0.7,0.8,1.4,1,2.2c0.4,1.4,1.5,2.1,2.7,2.5c0.3,0.1,0.6,0.3,1,0.4c3.5,0.9,7,1.2,10.6,0.7
		c6.3-0.9,10.1-6.7,9.6-12C98.5,33.6,96.8,30.3,93.9,29.6z M71.3,15.1c-0.2-0.1-0.2-0.4-0.1-0.6c0.3-1.1,0.9-2.2,1.5-3.2
		c0.4-0.7,0.9-1.4,1.4-2.1c0.3-0.3,0.6-0.7,1-0.5c0.4,0.2,0.4,0.7,0.3,1.1c-0.2,1.6-0.8,3.2-1.5,4.7c-0.1,0.2-0.2,0.5-0.5,0.4
		c-0.3-0.1-0.2-0.4-0.1-0.6c0.5-1.4,1.1-2.8,1.3-4.2c0-0.1,0-0.2,0.1-0.5c-0.8,0.7-1.2,1.4-1.5,2.2c-0.5,1-1,2-1.5,3
		C71.7,15,71.6,15.3,71.3,15.1z M72.1,22.6c0,0.1,0,0.2,0,0.3c0,0.2,0,0.5-0.3,0.5c-0.2,0-0.3-0.2-0.3-0.4c0-0.2,0-0.4,0-0.4
		c0-1.6,1.2-3.1,2.6-3.4c0.2,0,0.4-0.1,0.5-0.1c0.3,0,0.6,0,0.6,0.3c0,0.3-0.3,0.2-0.5,0.3C73.4,19.9,72.4,21,72.1,22.6z M78.1,30.7
		c-1.5,0.9-3,0.6-4-0.9c-0.5-0.8-0.6-1.5-0.6-2.5c0-1.4,0.5-2.6,1.3-3.6c1.3-1.6,3.5-1.4,4.5,0.5C80.5,26.1,80.2,29.4,78.1,30.7z"/>
	<path fill="#FFFFFF" d="M56.2,74.8c0.1-0.5,0.3-1,0.2-1.6c-0.4,0.1-0.7,0.4-0.9,0.7c-0.6,0.9-0.7,1.9-0.6,2.9
		c0,1.2,0.5,2.2,1.7,2.6c0.5,0.2,0.6,0.1,0.7-0.4c0.4-1.7,0.6-3.5,0.5-5.3c0-0.4,0-0.8-0.3-1.3c-0.4,1.5-0.7,2.8-1.1,4.2
		c0.3-0.1,0.4-0.3,0.6-0.1c0.2,0.1,0.1,0.3,0,0.5c-0.1,0.2-0.2,0.4-0.3,0.5c-0.2,0.2-0.5,0.5-0.8,0.3c-0.3-0.2-0.3-0.5-0.2-0.8
		C55.8,76.4,56,75.6,56.2,74.8z"/>
	<path fill="#FFFFFF" d="M46.7,61.8c0.7-1.5,1.7-2.8,2.9-4c-2,1.6-3.2,3.7-4,6.1c-0.2,0.8-0.2,1.7,0.1,2.5c0.9,2.4,2.7,3.9,5.1,4.6
		c2.4,0.8,4.9,1.1,7.4,0.9c2.2-0.2,4.2-0.8,5.9-2c1.8-1.4,3.1-3.1,2.8-5.6c-0.2-1.6-0.7-3-1.6-4.3c-0.6-0.9-1.2-1.7-2-2.4
		c0.2,0.4,0.5,0.8,0.8,1.1c0.1,0.2,0.3,0.5,0,0.7c-0.3,0.2-0.5-0.1-0.6-0.3c-1-1.6-2.5-2.5-4.1-3.2c1.1,0.9,2.2,1.8,3.1,2.9
		c0.3,0.3,0.7,0.7,0.3,1c-0.4,0.3-0.6-0.3-0.8-0.6c-0.9-1.2-2.1-2.1-3.4-2.9c0.3,0.2,0.5,0.5,0.8,0.7c0.9,0.8,1.6,1.9,2.3,2.9
		c0.2,0.2,0.3,0.6,0,0.8c-0.3,0.2-0.4-0.2-0.5-0.3c-0.5-0.7-1-1.4-1.6-2.1c-0.6-0.7-1.3-1.4-2.1-1.9c0.1,0.2,0.2,0.4,0.4,0.5
		c0.9,1.1,1.9,2.2,2.4,3.6c0.1,0.2,0.3,0.6-0.1,0.7c-0.4,0.2-0.5-0.2-0.6-0.5c-0.4-1.1-1.2-2-2-2.9c0.1,0.3,0.2,0.5,0.3,0.8
		c0.3,0.8,0.7,1.6,0.8,2.5c0,0.2,0,0.5-0.3,0.5c-0.3,0-0.4-0.2-0.4-0.4c0-0.1,0-0.3-0.1-0.4c-0.3-1.5-1.2-2.8-1.9-4.1
		c0.1,1.3,0.3,2.6,0.4,3.9c0,0.4,0.3,1.1-0.2,1.1c-0.6,0.1-0.4-0.7-0.5-1.1c-0.1-1.2-0.2-2.3-0.5-3.5c-0.2,1-0.3,2.1-0.3,3.1
		c0,0.5,0,0.9-0.2,1.3c-0.1,0.2-0.2,0.4-0.5,0.3c-0.2-0.1-0.2-0.3-0.2-0.5c0-0.1,0.1-0.3,0.1-0.4c0.3-1.2,0.2-2.4,0.1-3.7
		c-0.6,1.4-0.9,2.8-1.1,4.2c0,0.3,0,0.7-0.4,0.6c-0.4,0-0.4-0.4-0.4-0.7c0-0.5,0.1-0.9,0.2-1.3c0.2-0.7,0.4-1.3,0.6-2
		c-0.7,1.3-1.4,2.5-1.7,3.9c0,0.2-0.1,0.5-0.3,0.4c-0.3-0.1-0.4-0.3-0.3-0.6c0-0.2,0.1-0.3,0.1-0.5c0.2-0.8,0.5-1.6,0.8-2.4
		c-0.1,0.1-0.2,0.1-0.2,0.2c-0.5,1-1.3,1.8-1.5,3c0,0.2-0.1,0.4-0.3,0.3c-0.2,0-0.2-0.3-0.2-0.5c0-0.5,0.1-0.9,0.3-1.3
		c0.5-0.8,0.8-1.8,1.5-2.6c-1.2,1.2-2.3,2.5-3,4.1c-0.1,0.2-0.1,0.5-0.4,0.4c-0.3-0.1-0.2-0.4-0.2-0.6c0.1-0.3,0.2-0.6,0.4-0.9
		c0.6-1.1,1.4-2.2,2.2-3.2c-1.3,1.2-2.4,2.5-3.2,4.2c-0.1,0.1-0.1,0.3-0.2,0.4c-0.1,0.2-0.2,0.3-0.4,0.2c-0.2-0.1-0.2-0.3-0.2-0.5
		C46.6,62.2,46.6,62,46.7,61.8z M63.1,69.7c-1.6,0.5-3.3,0.8-5.1,1c-0.1,0-0.5,0-0.5-0.3c0-0.3,0.3-0.3,0.5-0.3
		c1.6-0.2,3.3-0.3,4.9-0.9c0.2-0.1,0.4-0.1,0.5,0.1C63.5,69.5,63.3,69.6,63.1,69.7z M60.7,64.3c0.1-0.3,0.3-0.4,0.5-0.5
		c1.4-0.5,2.8-1.1,3.9-2.2c0.1-0.1,0.3-0.2,0.5-0.1c0.2,0.1,0.1,0.3,0,0.4c-0.1,0.2,0,0.4,0.2,0.5c0.8,1,0.8,2.1-0.3,3
		c-0.9,0.7-1.9,1-2.9,1.1C61.2,66.6,60.5,65.6,60.7,64.3z M59.1,67.1c0.1-0.1,0.3-0.1,0.4,0c0.1,0.1,0,0.3-0.1,0.4
		c-0.3,0.3-0.6,0.5-1,0.6c-0.1,0.1-0.4,0-0.4,0.3c0,0.2,0.3,0.2,0.5,0.2c0,0,0,0,0.1,0c1.5-0.1,2.9-0.5,4.3-0.9c0-0.1,0-0.1,0-0.2
		c-0.5-0.1-0.9-0.2-1.4-0.3c-0.7-0.2-1.2-0.6-1.5-1.3c-0.1-0.1-0.1-0.3,0.1-0.4c0.2-0.1,0.3,0.1,0.4,0.2c0.5,0.8,1.3,1.2,2.2,1.2
		c0.2,0,0.5,0.1,0.7,0.2c0.4,0.2,0.4,0.7,0.1,0.9c-0.2,0.1-0.4,0.3-0.7,0.3c-1.3,0.4-2.7,0.7-4.1,0.8c-0.3,0-0.5,0-0.8-0.1
		c-0.3-0.1-0.4-0.2-0.5-0.5c0-0.3,0.1-0.6,0.3-0.7C58.2,67.6,58.7,67.5,59.1,67.1z M51.1,64.3c0.2-0.3,0-0.8,0.4-0.8
		c0.4,0,0.8,0.2,1.2,0.3c1.4,0.5,2.8,1.1,4.4,1c0.4,0,0.8,0,1.1-0.2c0.2,0,0.4-0.1,0.5,0.1c0.1,0.2-0.1,0.3-0.2,0.4
		c-0.7,0.1-0.8,0.6-1,1.2c-0.6,1.3-1.8,1.5-3,1.6c-1-0.1-2-0.2-2.7-0.8C50.7,66.4,50.4,65.3,51.1,64.3z M46.9,63.5
		c0.4,0.2,0.6,0.7,0.6,1.2c0,0.2-0.2,0.2-0.4,0.1c-0.2-0.1-0.1-0.4-0.4-0.5c-0.2,0.7-0.1,1.3,0.1,1.9c0.1,0.3,0.3,0.8,0.8,0.4
		c0.1-0.1,0.2,0,0.3,0.1c0,0.1,0,0.2,0,0.3c-0.2,0.4-0.9,0.5-1.3,0.1c-0.6-0.6-0.9-2.4-0.5-3.1C46.2,63.6,46.5,63.3,46.9,63.5z"/>
	<path d="M92.6,28.6c-1.4-0.2-2.8-0.4-4.2-0.4c-1.5,0-2.7-0.4-3.7-1.6c-1-1.2-2.1-2.3-3.2-3.5c-2.1-2.2-3.9-4.7-5.7-7.1
		c-0.4-0.5-0.5-1.1-0.2-1.7c0.4-1.2,0.8-2.5,1.1-3.8c0.3-1.4,0.5-2.8,0.2-4.3c-0.1-0.6-0.4-0.8-1-0.7c-1.3,0.2-2.3,0.9-3.2,1.7
		C71.5,8,70.7,9,69.8,10c0.1-1.4,0-2.8-0.3-4.2c-0.1-0.8-0.6-1-1.3-0.6c-0.3,0.2-0.6,0.4-0.8,0.6c-1.1,1-1.9,2.3-2.8,3.6
		c-1.8,2.8-3,6.1-5.5,8.5c-0.4,0.4-0.7,0.8-1.1,1.2c-2.6,3.1-5,6.5-7.3,9.8c-2.1,3.1-4.1,6.2-5.9,9.5c-0.2,0.4-0.4,0.8-0.7,1.1
		c-0.1-0.1-0.1-0.1-0.1-0.2c-0.1-0.4-0.2-0.7-0.3-1.1c-1.7-6.1-3.1-12.2-5.5-18.1c-0.7-1.8-1.3-3.6-2.1-5.3
		c-0.3-0.7-0.5-1.3-0.5-2.1c0.2-2.1,0-4.2-0.3-6.3c-0.2-1-0.1-2.1-0.7-3.1c-0.6-0.9-1.3-1-2-0.2c-0.5,0.6-0.9,1.3-1.3,2
		c-0.7,1.5-1.4,3-1.8,4.6c-0.1,0.3-0.2,0.5-0.6,0.4c-1.2-0.3-2.4-0.2-3.7-0.2c-0.5,0-0.7-0.2-0.9-0.7c-0.4-1.3-0.8-2.6-1.2-3.8
		c-0.2-0.8-0.7-1.4-1.2-2.1c-0.5-0.6-1-0.6-1.5,0c-0.2,0.3-0.4,0.7-0.5,1.1c-0.7,2.5-1,5-0.7,7.5c0,0.3,0,0.6-0.3,0.8
		c-2,1.5-3.5,3.5-4.5,5.7c-0.4,0.8-0.7,1.7-0.7,2.6c0,0.2,0.1,0.5,0.4,0.6c0.3,0.1,0.3-0.3,0.4-0.5c0.4-0.7,0.7-1.4,1.4-2
		c-0.3,0.8-0.9,1.3-1.2,2c-0.6,1.8-1.5,3.3-2.5,4.9c-0.9,1.4-2.1,2.3-3.7,2.6c-0.6,0.1-1.1,0.2-1.7,0.4c-1.2,0.4-2.5,0.8-3.5,1.8
		c-2.4,2.3-3.5,5-3,8.3c0.2,1.2,0.4,2.4,1.2,3.4c1.4,1.8,3.2,3.1,5.4,3.7c2.6,0.7,5.2,1,7.9,0.7c-0.5,1.6-1.4,3-1.9,4.6
		c-0.4,1.2-1,1.8-2.3,2.1c-2.3,0.5-4.2,2-6.1,3.4C4.4,57.7,4,58,3.6,58.5c-0.2,0.3-0.4,0.5-0.1,0.9c0.2,0.3,0.5,0.3,0.9,0.2
		c0.4-0.1,0.8-0.3,1.3-0.5c0.2-0.1,0.4-0.3,0.7-0.3c0.1,0.1,0,0.2-0.1,0.3c-0.3,0.7-0.7,1.3-1.1,2c-0.3,0.4-0.7,0.9-0.2,1.4
		c0.5,0.5,1,0,1.4-0.3c0.3-0.2,0.6-0.5,1-0.8C7,62,6.7,62.5,6.6,63.1c0,0.3,0,0.6,0.3,0.7c0.3,0.1,0.5,0.1,0.8-0.1
		C8,63.5,8.2,63.3,8.5,63c0,0.5-0.3,1.2,0.3,1.4c0.9,0.3,1-0.7,1.5-1.1c0.2,0.2,0.1,0.4,0.1,0.5c0.1,2.9,0.5,5.7,1.5,8.4
		c1.1,2.9,2.4,5.6,4.6,7.8c0.1,0.1,0.2,0.3,0.3,0.5c0.4,1.5,0.9,2.9,1.3,4.4c0.6,2.2,0.6,2.2-1.6,3c-1.1,0.4-2.2,0.7-3.1,1.4
		c-0.5,0.3-1.1,0.7-1,1.4c0.1,0.7,0.9,0.8,1.5,0.9c0.8,0.2,1.6,0.1,2.4,0c2.2-0.1,4.4,0.1,6.6-0.1c0.7-0.1,1.5-0.1,2.2-0.1
		c0.2,0,0.4-0.1,0.5,0.3c0,0.9,0.2,1.1,1.2,1.2c1,0.1,2.1,0.1,3.1,0.1c2.9,0,5.7-0.5,8.6-0.6c0.3,0,0.6-0.1,0.8-0.3
		c0.4-0.4,0.9-0.4,1.4-0.2c0.4,0.2,0.8,0.4,1.2,0.6c1,0.7,2.2,0.8,3.3,0.6c0.4-0.1,0.9-0.1,1.3-0.2c0.7-0.2,0.8,0.1,0.8,0.7
		c0,0.3-0.1,0.7,0.3,0.8c1.1,0.5,1.7,0.1,1.8-1.1c0,0,0.1-0.1,0.1-0.1c1.6,1.7,2.1,1.9,3.8,1.8c0.9-0.1,0.7-0.7,0.8-1.2
		c0.1-0.4,0.1-0.8-0.7-0.8c1.3-0.7,1.3-0.6,1.4,0.5c0,0.3,0,0.6,0.4,0.7c1.1,0.4,1.7,0,1.6-1.2c0-0.1,0.1-0.1,0.1-0.2
		c0.2,0,0.2,0.2,0.3,0.3c0.3,0.8,0.9,1.2,1.7,1.3c0.7,0.1,1.5,0.1,2.2-0.1c0.6-0.2,0.8-0.6,0.6-1.4c-0.1-0.6-0.5-0.7-1-0.6
		c-0.3,0.1-0.6,0.2-1.1,0c0.3-0.1,0.6-0.2,0.8-0.3c0.5-0.2,0.9-0.3,1.3,0.3c0.2,0.4,0.7,0.6,1.2,0.6c0.6,0.1,1.2,0.1,1.8,0.1
		c3,0,5.9-0.4,8.9-0.6c1.2-0.1,2.5-0.2,3.7-0.6c1.1-0.4,1.3-1.3,0.4-2.1c-0.6-0.5-1.3-0.8-2-1c-1.3-0.4-2.7-0.6-4.1-0.9
		c-0.8-0.2-0.8-0.2-0.4-0.9c0.7-1,1.5-2,1.9-3.2c0.4-1.1,0.4-2.2-0.4-3.2c-0.4-0.5-0.3-0.7,0-1.1c1.4-1.8,2.9-3.5,3.9-5.6
		c1.4-2.8,2.8-5.6,3.1-8.8c0-0.5,0.2-0.5,0.6-0.3c0.7,0.4,1.2,1,1.8,1.6c0.3,0.4,0.7,0.9,1.2,0.6c0.5-0.3,0.2-0.9,0.1-1.4
		c-0.1-0.6-0.4-1.1-0.6-1.7c0.7,0.4,1.2,0.7,1.8,0.9c0.3,0.1,0.6,0.3,0.8,0c0.3-0.3,0.3-0.6,0.2-1c-0.1-0.2-0.3-0.5,0-0.7
		c0.7-0.7,0.4-1.5,0-2.2c-0.1-0.3-0.4-0.5-0.2-0.9c0.2-0.7-0.1-1.2-0.6-1.7c-1.4-1.5-3.2-2.1-5.2-1.9c-0.3,0-0.6,0-0.6-0.4
		c-0.7-3-1.8-5.9-2.7-8.9c0-0.2-0.2-0.3,0-0.5c5.2,1.7,8.2,2.1,12.4,1.6c2.8-0.3,5.2-1.3,7.2-3.3c1.5-1.5,2.4-3.4,3.1-5.4
		c0.6-1.7,0.7-3.4,0.2-5.1C98.2,31.4,96.3,29.1,92.6,28.6z M20.8,4.6c0.1-0.2,0.2-0.5,0.3-0.7c0.2-0.5,0.4-0.4,0.7,0
		c1,1.5,1.5,3.1,1.9,4.8c0.1,0.3,0.1,0.6,0.2,0.9c0.2,0.5-0.1,0.6-0.5,0.8c-0.6,0.2-0.8,0.3-1-0.5c-0.2-1-0.4-1.9-0.7-2.8
		c-0.1-0.3-0.2-0.8-0.7-0.9c-0.5,0-0.5,0.5-0.7,0.8c-0.2,0.6-0.3,1.3-0.3,2c0,0.2,0,0.5,0.3,0.5c0.3,0,0.3-0.2,0.3-0.5
		c0-0.6,0.1-1.1,0.3-1.8c0.3,1.3,0.6,2.4,0.9,3.5c0.1,0.2-0.1,0.3-0.2,0.3c-0.4,0.2-0.9,0.5-1.3,0.7c-0.2,0.1-0.4,0.2-0.4-0.2
		C19.9,9.3,20,6.9,20.8,4.6z M5.4,58.5C5,58.7,4.6,58.9,4,59c0.5-0.7,1.1-1.1,1.6-1.5c1.8-1.4,3.7-2.5,5.9-3.1
		c0.3-0.1,0.6-0.3,0.8,0c0.2,0.2,0,0.5-0.1,0.7c-0.3,1.1-0.7,2-1.9,2.5c-0.7,0.3-1.3,0.9-2,1.3c-0.2,0.2-0.5,0.3-1,0.4
		c0.7-1.1,1.4-2,2.4-2.7c0.3-0.2,0.8-0.3,0.5-0.7c-0.2-0.3-0.7-0.1-1,0.2C8.2,57.3,6.7,57.7,5.4,58.5z M5.5,61.9
		C5.5,61,6,60.5,6.4,60c0.3-0.3,0.6,0.3,1,0.1C7,60.9,6.4,61.5,5.5,61.9z M9.1,63.7c0-0.5,0.2-0.8,0.3-1.2c0.3-0.6,0.6-1.3,0.9-1.9
		c0.1-0.3,0.4-0.7,0-0.8C10,59.6,9.8,60,9.7,60.3c-0.3,0.5-0.6,1-0.9,1.4c-0.4,0.5-0.8,1-1.4,1.4c-0.1-0.4,0.1-0.7,0.2-0.9
		c0.4-1.1,1.3-2,1.8-3c0.3-0.6,1.1-0.9,1.7-1.4C10.6,59.8,11,62.1,9.1,63.7z M21.7,90.9c-1.8,0.1-3.5-0.1-5.3,0.2
		c-0.8,0.1-1.8,0.1-2.6-0.2c-0.2-0.1-0.5-0.1-0.6-0.4c0-0.3,0.2-0.4,0.4-0.6c1.1-0.7,2.3-1.2,3.5-1.6c0.3-0.1,0.7-0.2,1-0.4
		c0.9-0.5,1.2-1.1,0.9-2c-0.3-1.3-0.7-2.5-1.1-3.7c-0.1-0.3-0.2-0.6-0.3-1c0.7,0.5,1.3,1,1.9,1.4c0.3,0.2,0.7,0.6,1,0.2
		c0.2-0.4-0.3-0.6-0.6-0.7c-2.4-1.5-4.1-3.6-5.5-6.1c-1.9-3.3-2.9-6.7-3.2-10.5c-0.3-4.1,0.7-7.9,2-11.6c0.8-2.1,1.6-4.2,2.6-6.3
		c0.2-0.4,0.4-0.7,0.9-0.7c0.6-0.1,1.2-0.3,1.7-0.4c5.3-1.6,9.6-4.7,12.8-9.2c0.2-0.3,0.4-0.6,0.6-0.9c0.1-0.2,0.2-0.5-0.1-0.7
		c-0.3-0.1-0.5,0.1-0.6,0.3c-0.3,0.6-0.8,1.2-1.2,1.7c-3.5,4.7-8.3,7.3-13.8,8.7c-3.5,0.9-6.9,0.4-10.1-1c-3.8-1.7-5.2-4.1-4.7-8.4
		c0.4-3.8,2.7-6.2,6.3-7c3.2-0.7,5.4-2.4,6.6-5.3c0.3-0.7,0.7-1.4,1.1-2.1c0.2,0.5,0,1.1,0.8,1.1l0,0c0.7-1.3,1.3-2.6,2.3-3.8
		c-0.1,0.7-0.3,1.4-0.4,2.1c0,0.2,0,0.4,0,0.6c0,0.3,0.1,0.6,0.5,0.6c0.3,0.1,0.4-0.2,0.5-0.5c0.3-0.6,0.6-1.3,1.1-1.9
		c0.3,1.2,0.1,2.2,0.4,3.3c0,0,0,0.1,0,0.1c0.1,0.4,0.1,0.9,0.6,0.9c0.4,0,0.2-0.6,0.3-0.9c0.1-1,0.4-1.9,0.8-2.8c0.1,0,0.1,0,0.2,0
		c0,1,0,2,0,2.9c0,0.2-0.2,0.4-0.3,0.5c-1.1,1.5-1.1,3.4,0.1,4.9c0.9,1.1,2.3,1.2,3.4,0.3c1.2-1.1,2.1-3.9,0.6-5.7
		c-0.3-0.4-0.3-0.6-0.1-1c0.4-0.7,0.6-1.5,1-2.3c0,0.8-0.3,1.5-0.4,2.2c0,0.3-0.2,0.7,0.1,0.9c0.4,0.1,0.7-0.2,0.9-0.5
		c1.3-1.8,2.2-3.7,2.5-5.9c0-0.1,0-0.1,0-0.2c0.3,0.3,0.4,0.6,0.4,1.3c0,0.7,0,1.4,0.1,2.1c0,0.2,0,0.5,0.3,0.5
		c0.3,0,0.3-0.3,0.3-0.6c0.1-1.2-0.1-2.4-0.3-3.6c0.5,1.1,0.8,2.3,1.1,3.5c0.1,0.2,0.1,0.6,0.4,0.5c0.3-0.1,0.3-0.4,0.2-0.7
		c-0.4-1.9-0.9-3.8-2-5.5c-0.2-0.3-0.4-0.7-0.8-0.9c-0.4-0.3-0.7-0.2-0.7,0.3c0,0.4,0.1,0.9,0.2,1.3c0.4,1.9-0.4,4.8-1.7,6.3
		c-0.2-0.3-0.1-0.6,0-0.9c0.1-1,0.2-2-0.1-3c-0.1-0.2-0.2-0.6-0.5-0.5c-0.3,0-0.2,0.4-0.2,0.6c-0.2,1.5-0.8,2.8-1.4,4.2
		c0.1-0.6,0.1-1.3,0.2-1.9c0.1-0.9,0-1.7-0.2-2.6c0-0.2-0.1-0.3-0.3-0.3c-0.2,0-0.3,0.2-0.3,0.3c0.2,1.1-0.6,1.8-1,2.7
		c-0.2,0.4-0.4,0.9-0.7,1.5c0-1.4,0.1-2.6,0.7-3.7c0.1-0.3,0.4-0.6,0.1-0.8c-0.4-0.2-0.6,0.2-0.7,0.5c-0.7,1.3-1.5,2.5-2,4
		c-0.2-0.5-0.2-1.4,0-2.5c0.1-0.5,0.2-1,0.6-1.4c0.2-0.2,0.4-0.5,0.1-0.7c-0.3-0.2-0.5,0.1-0.7,0.3c-0.6,0.9-1.2,1.7-1.8,2.6
		c-0.1,0.1-0.1,0.2-0.2,0.3c-0.2-0.1-0.1-0.3-0.1-0.4c0.4-1.2,0.8-2.3,1.6-3.2c0.2-0.2,0.4-0.5,0.2-0.7c-0.3-0.3-0.6,0-0.8,0.2
		c-1.2,1.2-2.5,2.5-3.3,4c-0.1,0.2-0.2,0.5-0.5,0.7c0.3-2.1,1.4-3.8,3-5.1c0.2-0.2,0.5-0.3,0.3-0.6c-0.2-0.3-0.4-0.1-0.7,0
		c-1.1,0.6-2,1.4-2.8,2.3c-0.2,0.3-0.4,0.6-0.8,0.8c-0.2-0.1,0-0.3,0-0.4c2-3.8,4.8-6.7,9.2-7.7c1.7-0.4,3.3-0.4,4.9,0.4
		c0.5,0.2,0.6,0,0.6-0.4c0.4-1.8,1-3.5,1.8-5.1c0.4-0.7,0.7-1.4,1.3-2c0.3-0.4,0.6-0.3,0.8,0.1c0.4,0.9,0.6,1.9,0.7,2.8
		c0.2,2.1,0.5,4.3,0.2,6.5c-0.1,0.6,0,1.1,0.3,1.6c0.5,0.7,0.8,1.5,1.1,2.3c0.4,1,0.7,1.9,1.2,2.8c0.6,1.3,1,2.6,1.4,4
		c0.7,2.4,1.5,4.7,2.2,7.1c0.9,3.2,1.7,6.3,2.5,9.5c0.1,0.5-0.1,0.9-0.3,1.3c-1.7,2.9-2.9,5.9-3.7,9.1c-1.3,4.9-1.9,9.9-1.6,14.9
		c0.2,3.2,0.8,6.3,2,9.3c0.4,1,0.7,1.9,1,2.9c0.1,0.5-0.1,0.8-0.5,1c-1.2,0.6-1.2,0.6-0.8,1.8c0.1,0.2,0,0.3,0,0.5
		c-0.6,1.5-1.1,3-1.6,4.6c-0.1,0.3-0.3,0.6-0.6,0.6c-2,0.3-4,0.4-6,0.2c-0.4,0-0.6-0.2-0.7-0.6c-0.3-0.9-0.6-1.7-0.8-2.6
		c0-0.3-0.1-0.6-0.5-0.6c-0.3,0.1-0.3,0.4-0.2,0.6c0.2,0.8-0.2,0.8-0.8,0.7c-0.9-0.1-1.9-0.2-2.8-0.4c-0.2-0.1-0.6-0.2-0.7,0.2
		c-0.1,0.4,0.3,0.4,0.5,0.5c0.1,0.1,0.3,0.1,0.5,0.1c1.5,0.3,1.5,0.3,1.6,1.7c0.1,1,0.1,2-0.1,3.1c-0.1,0.6-0.4,0.9-0.9,1
		C24.9,90.8,23.3,90.8,21.7,90.9z M24.1,24.1c0.2,0.1,0.1,0.3,0.1,0.5c0,0.2,0,0.3,0.2,0.4c0.2,0.1,0.3,0,0.4-0.2
		c0.4-0.6,0.8-0.3,1.1,0.1c0.8,1.2,0.3,3.9-0.9,4.7c-0.5,0.4-1.1,0.4-1.6,0.1c-0.2-0.1-0.4-0.3,0-0.5c1.2-0.6,1.5-2.5,0.5-3.5
		c-0.4-0.4-0.6-0.4-1.6-0.1c0.2-0.7,0.8-1,1.1-1.5C23.6,24.2,23.9,24,24.1,24.1z M23.7,23.4c0.3-1.1,0.6-2.1,1.4-3
		c0.1,1,0,1.9-0.4,2.7C24.6,23.4,24.1,23.3,23.7,23.4z M28.2,85.8c0-0.3-0.1-0.7,0.4-0.7c0.4,0,0.9-0.1,1.1,0.5
		c0.1,0.6,0.4,1-0.2,1.6c-0.5,0.5-0.2,1.3,0.5,2.2c-0.6,0.3-1.2,0.5-1.7,0.8c-0.3,0.1-0.4,0-0.3-0.3C28.4,88.5,28.1,87.1,28.2,85.8z
		 M30,87.8c0.1-0.3,0.3-0.3,0.6-0.3c0.4,0,0.9,0,1.3,0c1.6,0.1,3.3,0.2,4.9-0.1c0.2,0,0.6-0.3,0.7,0.1c0.1,0.4-0.1,0.8-0.5,0.9
		c-0.3,0.1-0.6,0.2-0.9,0.2c-1.7,0-3.4,0.3-5.1,0c-0.2,0-0.4-0.1-0.6-0.2C30,88.4,29.9,88.1,30,87.8z M38.6,91.5
		c-0.1,0.3-0.6,0.2-1,0.3c-2.3,0.2-4.6,0.4-6.9,0.5c-0.5,0-0.9,0-1.3,0c-0.9,0.1-1.8-0.1-2.6-0.1c-0.2,0-0.5,0-0.6-0.3
		c0-0.3,0.2-0.4,0.4-0.5c0.7-0.3,1.5-0.6,2.2-0.9c0.8-0.3,1.5-0.6,2.2-1.1c0.4-0.3,0.9-0.2,1.3-0.1c1.3,0.2,2.6,0,3.9-0.1
		c0.4-0.1,0.7-0.1,0.6,0.5c-0.1,0.7,0.4,1,0.9,1.3C38.1,91.2,38.7,91.2,38.6,91.5z M60.7,91.4c-1.2,0.6-2.5,0.6-3.7,0.5
		c-1.3-0.1-2.5-0.2-3.7,0.4c-0.9,0.5-1.9,0.5-2.9,0.2c-0.9-0.3-1.9-0.5-2.9-0.4c-0.6,0.1-0.7-0.3-0.6-0.8c0.1-0.7,0.2-1.5,0.3-2.2
		c0-0.3,0.1-0.6-0.3-1c-0.2,1.1-0.4,2.1-0.5,3.1c-0.1,0.8-0.3,1.1-1.2,1.3c-1.1,0.2-2.1,0.1-3-0.5c-0.2-0.1-0.3-0.2-0.5-0.3
		c-1-0.6-1-0.6-0.6-1.8c0.2-0.6,0.4-1.3,0.7-1.9c0.1-0.2,0.2-0.5,0-0.7c-0.3,0.1-0.3,0.4-0.4,0.7c-0.3,0.9-0.6,1.7-0.9,2.6
		c-0.1,0.4-0.4,0.5-0.8,0.5c-0.7-0.1-1.2-0.4-1.8-0.8c-0.2-0.2-0.3-0.4-0.2-0.6c1.2-4.4,2.4-8.8,5.2-12.6c1.5-2.1,3.4-3.8,5.6-5.2
		c1.1-0.7,2-0.5,2.9,0.1c1,0.7,1.9,1.4,3.1,1.6c0.3,0.1,0.3,0.3,0.2,0.5c-0.9,1.5-0.5,3-0.1,4.6c0.1,0.3,0.3,0.5,0.5,0.7
		c0.6,0.4,1.3,0.7,1.9,1.1c0.4,0.3,0.7,0.1,0.8-0.3c0.2-0.6,0.3-1.2,0.5-1.9c0.3,0.5,0.3,1,0.5,1.4c0.2,0.7,0.3,0.7,0.8,0.3
		c0.1-0.1,0.2-0.4,0.4-0.3c0.2,0.1,0.2,0.3,0.2,0.5c0.4,2.4,0.5,4.8,0.7,7.2c0.1,1.1,0.2,2.1,0.4,3.2C61.3,91,61.1,91.2,60.7,91.4z
		 M46.7,62.9c0.2,0.1,0.3-0.1,0.4-0.2c0.1-0.1,0.1-0.3,0.2-0.4c0.8-1.6,1.9-2.9,3.2-4.2c-0.8,1-1.6,2-2.2,3.2
		c-0.2,0.3-0.3,0.6-0.4,0.9c-0.1,0.2-0.1,0.5,0.2,0.6c0.3,0.1,0.3-0.2,0.4-0.4c0.7-1.6,1.7-2.9,3-4.1c-0.7,0.8-1,1.7-1.5,2.6
		c-0.2,0.4-0.4,0.8-0.3,1.3c0,0.2,0,0.4,0.2,0.5c0.2,0,0.3-0.2,0.3-0.3c0.2-1.1,0.9-2,1.5-3c0-0.1,0.1-0.1,0.2-0.2
		c-0.3,0.8-0.6,1.6-0.8,2.4c0,0.2-0.1,0.3-0.1,0.5c-0.1,0.3,0,0.5,0.3,0.6c0.3,0,0.3-0.2,0.3-0.4c0.3-1.4,1.1-2.6,1.7-3.9
		c-0.2,0.7-0.4,1.3-0.6,2c-0.1,0.4-0.2,0.9-0.2,1.3c0,0.3,0,0.7,0.4,0.7c0.3,0,0.3-0.4,0.4-0.6c0.2-1.4,0.6-2.9,1.1-4.2
		c0,1.2,0.1,2.4-0.1,3.7c0,0.1-0.1,0.3-0.1,0.4c0,0.2,0,0.4,0.2,0.5c0.3,0.1,0.4-0.1,0.5-0.3c0.2-0.4,0.2-0.9,0.2-1.3
		c0-1,0-2.1,0.3-3.1c0.3,1.1,0.4,2.3,0.5,3.5c0,0.4-0.2,1.1,0.5,1.1c0.5,0,0.3-0.7,0.2-1.1c-0.1-1.3-0.3-2.6-0.4-3.9
		c0.7,1.3,1.6,2.6,1.9,4.1c0,0.1,0,0.3,0.1,0.4c0.1,0.2,0.1,0.5,0.4,0.4c0.3,0,0.3-0.3,0.3-0.5c-0.1-0.9-0.5-1.7-0.8-2.5
		c-0.1-0.2-0.2-0.5-0.3-0.8c0.7,0.9,1.5,1.8,2,2.9c0.1,0.3,0.2,0.6,0.6,0.5c0.3-0.1,0.2-0.5,0.1-0.7c-0.5-1.4-1.5-2.5-2.4-3.6
		c-0.1-0.2-0.3-0.3-0.4-0.5c0.9,0.5,1.5,1.1,2.1,1.9c0.6,0.7,1.1,1.4,1.6,2.1c0.1,0.2,0.2,0.5,0.5,0.3c0.3-0.2,0.2-0.5,0-0.8
		c-0.8-1-1.4-2.1-2.3-2.9c-0.3-0.2-0.5-0.5-0.8-0.7c1.3,0.8,2.5,1.7,3.4,2.9c0.2,0.3,0.5,0.9,0.8,0.6c0.4-0.3-0.1-0.7-0.3-1
		c-0.9-1.1-2-2-3.1-2.9c1.6,0.7,3.1,1.6,4.1,3.2c0.2,0.2,0.3,0.5,0.6,0.3c0.3-0.2,0.1-0.5,0-0.7c-0.3-0.4-0.5-0.7-0.8-1.1
		c0.8,0.7,1.4,1.5,2,2.4c0.9,1.3,1.4,2.8,1.6,4.3c0.3,2.5-1,4.2-2.8,5.6c-1.7,1.3-3.7,1.9-5.9,2c-2.5,0.2-5-0.1-7.4-0.9
		c-2.4-0.8-4.2-2.2-5.1-4.6c-0.3-0.8-0.4-1.7-0.1-2.5c0.7-2.4,1.9-4.5,4-6.1c-1.1,1.2-2.2,2.5-2.9,4c-0.1,0.2-0.2,0.4-0.2,0.6
		C46.5,62.6,46.5,62.8,46.7,62.9z M53.8,46.4c0.9,1.9,1.7,3.8,1.8,6c0,0.3,0,0.7-0.1,1c0-2.3-0.8-4.5-1.7-6.6
		c-0.1-0.2-0.2-0.5-0.4-0.7c-0.2-0.2-0.3-0.7-0.6-0.5c-0.3,0.2,0,0.5,0.1,0.8c0.9,1.8,1.4,3.6,1.7,5.6c-0.3-1-0.6-2-1-3
		c0-0.2-0.1-0.3-0.2-0.5c-0.1-0.2-0.1-0.4-0.4-0.3c-0.2,0.1-0.1,0.3-0.1,0.5c0.2,0.6,0.3,1.3,0.5,1.9c0.3,1,0.6,2,0.6,3.1
		c-0.6-2.3-1.7-4.6-1.5-7.1c0-0.2,0-0.3-0.1-0.5c-0.4-0.6,0.1-0.9,0.5-1.1c0.2-0.2,0.6,0,0.5,0.3C53.4,45.8,53.6,46.1,53.8,46.4z
		 M53.2,53.4c-1-2.1-1.7-4.2-1.4-6.6C51.9,49.1,52.7,51.3,53.2,53.4z M59.9,77.3c0.4,0,0.3-0.7,0.2-1.2c-0.1-1.2-0.4-2.2-1-3.2
		c-0.1-0.1-0.3-0.3-0.1-0.5c0.2-0.1,0.4-0.2,0.6,0c1,1.2,1.8,2.5,2.2,4c0.1,0.2-0.1,0.3-0.2,0.5c-0.7,0.6-1.4,1.1-2,1.9
		c-0.2,0.2-0.3,0.2-0.5-0.1c-0.8-1.7-0.7-3.6-0.7-5.4c0.6,0.9,1,1.8,1,2.9C59.5,76.7,59.3,77.4,59.9,77.3z M55.8,77.9
		c0.3,0.2,0.6-0.1,0.8-0.3c0.1-0.1,0.2-0.3,0.3-0.5c0.1-0.2,0.2-0.4,0-0.5c-0.2-0.2-0.3,0.1-0.6,0.1c0.4-1.4,0.7-2.7,1.1-4.2
		c0.3,0.5,0.3,0.9,0.3,1.3c0.1,1.8-0.1,3.5-0.5,5.3c-0.1,0.5-0.3,0.5-0.7,0.4c-1.2-0.5-1.7-1.4-1.7-2.6c0-1,0-2,0.6-2.9
		c0.2-0.3,0.5-0.6,0.9-0.7c0.2,0.6,0,1.1-0.2,1.6c-0.2,0.8-0.4,1.6-0.6,2.4C55.5,77.4,55.5,77.8,55.8,77.9z M89.1,47.8
		c-3.6,0.5-7.1,0.2-10.6-0.7c-0.3-0.1-0.6-0.2-1-0.4c-1.3-0.5-2.3-1.1-2.7-2.5c-0.2-0.8-0.7-1.5-1-2.2c-0.1-0.3-0.3-0.6-0.6-0.5
		c-0.3,0.1-0.1,0.5,0.1,0.7c2.2,4.5,3.8,9.2,5,14.1c0.1,0.5,0,0.8-0.5,1c-2.4,0.9-4.7,2-7.2,2.7C70.2,60,70,60,70,60.3
		c0,0.3,0.3,0.4,0.5,0.3c0.6-0.1,1.2-0.3,1.8-0.5c2.2-0.9,4.3-1.9,6.6-2.4c1.7-0.4,3.4-0.1,4.8,0.9c0.5,0.3,0.9,0.7,1,1.5
		c-0.7-0.4-1.2-0.7-1.7-1c-0.4-0.2-0.8-0.4-1.3-0.5c-0.2,0-0.6-0.2-0.7,0.2c-0.1,0.3,0.3,0.4,0.5,0.5c0.7,0.3,1.5,0.6,2.2,1
		c0.7,0.5,1.3,1.1,1.5,1.9c0,0.2,0.2,0.4,0,0.5c-0.2,0.2-0.4,0.1-0.6,0c-0.3-0.1-0.5-0.3-0.7-0.5c-0.7-0.7-1.5-1.1-2.3-1.6
		c-0.3-0.1-0.6-0.4-0.8,0c-0.2,0.4,0.2,0.5,0.5,0.6c1.1,0.7,2.3,1.3,3.1,2.4c0.2,0.2,0.4,0.5,0.4,0.8c-0.5,0-0.9-0.3-1.3-0.5
		c-0.7-0.4-1.4-0.9-2.1-1.4c-0.2-0.1-0.4-0.3-0.6-0.1c-0.2,0.2-0.1,0.4,0,0.6c0.1,0.3,0.4,0.5,0.7,0.8c0.7,0.6,1,1.5,1.2,2.4
		c-0.5-0.4-0.9-0.8-1.4-1.2c-0.3-0.2-0.5-0.5-0.9-0.7c-0.7-0.4-1.4-0.3-1.8,0.4c-1,2-2.7,3.3-4.6,4.4c-0.3,0.2-0.6,0.3-0.9,0.4
		c-0.3,0.1-0.6,0.3-0.5,0.6c0.1,0.3,0.5,0.3,0.7,0.2c0.8-0.4,1.7-0.8,2.4-1.4c1-0.8,2-1.7,2.9-2.8c0.2,0.6,0,1.2-0.2,1.7
		c-1.3,4.5-3.4,8.5-6.6,11.9c-0.3,0.3-0.5,0.2-0.8,0c-0.8-0.7-1.6-1.3-2.4-2c-0.1-0.1-0.3-0.2-0.4-0.3c-0.2-0.1-0.4-0.1-0.6,0.1
		c-0.1,0.2,0,0.4,0.2,0.5c0.5,0.4,0.9,0.8,1.4,1.2c0.8,0.6,1.5,1.2,2.2,1.9c1.3,1.5,1.4,2.4,0.3,4.1c-0.9,1.4-1.8,2.7-2.7,4
		c-0.1,0.1-0.2,0.3-0.3,0.4c-0.1,0.2-0.1,0.4,0,0.5c0.2,0.1,0.3,0.1,0.5,0c0.1,0,0.1-0.1,0.1-0.1c0.4-1,1.1-0.8,1.9-0.7
		c1.2,0.2,2.3,0.3,3.5,0.6c0.6,0.2,1.2,0.4,1.7,0.7c0.3,0.2,0.8,0.4,0.7,0.9c-0.1,0.4-0.5,0.4-0.9,0.5c-1,0.2-2,0.3-3,0.4
		c-3.1,0.3-6.3,0.6-9.5,0.6c-0.4,0-0.9-0.1-1.3-0.2c-0.4-0.2-0.7-0.5-0.6-1c0.1-0.3,0-0.5-0.1-0.8c-0.5-1.8-0.5-3.6-0.5-5.4
		c0-0.4,0.1-0.6,0.6-0.6c0.1,0,0.2,0,0.3,0c0.3,0,0.7,0,0.7-0.3c0-0.3-0.3-0.4-0.6-0.5c-0.1,0-0.1-0.1-0.2-0.1
		c0.3-0.2,0.8,0.1,0.9-0.3c0.1-0.3-0.3-0.3-0.5-0.5c0.2-0.2,0.6-0.1,0.6-0.4c0.1-0.4-0.4-0.3-0.5-0.5c0.2-0.1,0.6-0.1,0.5-0.4
		c0-0.3-0.3-0.4-0.5-0.5C62.3,81,62,81,61.6,81c-0.5,0-0.6-0.2-0.8-0.7c-0.5-1.4,0.1-2.2,1.2-2.9c0.5-0.3,0.6-0.7,0.4-1.3
		c-0.4-1.2-1-2.2-1.6-3.2c-0.4-0.7-0.4-0.7,0.4-0.9c0.6-0.2,1.3-0.4,1.9-0.7c2.4-1.1,3.9-2.9,4.5-5.4c0.4-1.5,0-3-0.6-4.4
		c-1.7-4.1-4.7-6.6-9-7.6c-0.5-0.1-0.6-0.3-0.5-0.8c0.3-3.6-0.8-6.5-3.7-8.7c-0.5-0.4-0.8-0.3-1.3,0.1c-2.4,2.5-2.6,7-0.3,9.7
		c0.4,0.5,0.4,0.6-0.2,1c-3.1,1.8-5.5,4.1-6.7,7.6c-1,3,0,5.8,2.7,7.6c0.2,0.1,0.7,0.1,0.5,0.6c-0.1,0.3-1.1,0.7-1.3,0.6
		c-0.4-0.3-0.8-0.3-1.1,0c-0.4,0.3-0.3,0.6-0.2,1c0.1,0.4-0.2,0.5-0.6,0.4c-1-0.2-1.4,0.1-1.2,1.2c0.1,0.4-0.2,0.6-0.6,0.5
		c-0.4-0.1-0.7-0.1-1,0.1c-0.3,0.2-0.5,0.6-0.4,1c0.1,0.2,0.5,0.6,0.1,0.7c-0.4,0.1-0.9,0.3-1.2-0.3c-0.1-0.2-0.2-0.5-0.3-0.7
		c-1.2-3.2-1.9-6.5-2.1-9.9c-0.5-8.5,1.4-16.5,5.5-24c1.4-2.6,2.8-5.3,4.4-7.9c2.1-3.3,4.4-6.4,6.6-9.6c1.9-2.8,4-5.4,6.3-7.8
		c0.9-0.9,1.8-1.9,3.1-2.4c0.1,0,0.2-0.1,0.3-0.2c0.1-0.1,0.4-0.2,0.3-0.5c-0.1-0.2-0.4-0.2-0.6,0c-0.5,0.3-1.1,0.5-1.7,0.9
		c0.4-1.3,1.2-2.4,1.9-3.5c1-1.6,2-3.3,3.4-4.6c0.2-0.1,0.3-0.4,0.6-0.3C69.1,5.9,69,6.2,69,6.5c0.2,1.5,0.1,2.9-0.1,4.4
		c-0.1,0.8-0.3,1.5-0.7,2.2c-0.2,0.4-0.3,0.9-0.5,1.4c-0.1,0.2,0,0.4,0.2,0.4c0.2,0.1,0.3-0.1,0.4-0.2c0.2-0.3,0.3-0.7,0.4-1
		c1.2-2.8,2.9-5.2,5.5-6.8c0.3-0.2,0.7-0.4,1.1-0.6c0.5-0.3,0.7-0.1,0.8,0.5c0.1,1.7-0.1,3.3-0.5,4.9c-0.4,1.4-0.9,2.8-1.4,4.2
		c-0.1,0.3-0.4,0.6,0,0.8c0.4,0.2,0.5-0.2,0.7-0.5c0.8,1,1.5,2,2.3,3c2.2,2.9,4.7,5.7,7.3,8.2c0.2,0.2,0.4,0.4,0.3,0.8
		c-0.1,0.4,0.3,0.5,0.7,0.5c0.9,0.1,1.8,0.1,2.7,0.1c1.9,0.1,3.8,0.4,5.7,0.8c3,0.7,4.6,4,4.8,6.1C99.2,41,95.4,46.9,89.1,47.8z"/>
	<path d="M74.9,23.6c-0.9,1-1.3,2.3-1.3,3.6c0,1,0.2,1.8,0.6,2.5c0.9,1.6,2.4,1.9,4,0.9c2.1-1.3,2.4-4.6,1.3-6.6
		C78.4,22.2,76.2,22,74.9,23.6z M76.8,25.6c-0.5,0.9-0.6,2-0.3,3c0.3,0.9,1,1.2,1.9,0.7c-0.4,0.8-1.2,1.3-2,1.4
		c-0.6,0-1.1-0.2-1.5-0.7c-1.3-1.8-0.9-4.8,0.7-6.3c0.9-0.8,2.2-0.6,2.8,0.5c0.2,0.3,0.3,0.7,0.5,1.1C78.1,24.5,77.3,24.7,76.8,25.6
		z"/>
	<path d="M71.8,14.8c0.5-1,0.9-2,1.5-3c0.4-0.7,0.8-1.5,1.5-2.2c0,0.3,0,0.4-0.1,0.5c-0.3,1.5-0.8,2.8-1.3,4.2
		c-0.1,0.2-0.2,0.5,0.1,0.6c0.3,0.1,0.4-0.2,0.5-0.4c0.6-1.5,1.2-3,1.5-4.7c0.1-0.4,0.1-0.9-0.3-1.1c-0.4-0.2-0.8,0.2-1,0.5
		c-0.5,0.6-1,1.4-1.4,2.1c-0.6,1-1.2,2.1-1.5,3.2c-0.1,0.2-0.1,0.5,0.1,0.6C71.6,15.3,71.7,15,71.8,14.8z"/>
	<path d="M75.2,19.4c0-0.3-0.3-0.3-0.6-0.3c-0.2,0-0.4,0-0.5,0.1c-1.4,0.3-2.6,1.9-2.6,3.4c0,0.1,0,0.3,0,0.4c0,0.2,0.1,0.4,0.3,0.4
		c0.3,0,0.2-0.3,0.3-0.5c0-0.1,0-0.2,0-0.3c0.2-1.6,1.2-2.7,2.5-2.9C74.9,19.6,75.2,19.7,75.2,19.4z"/>
	<path d="M25.7,58.5c0.5,0,0.9-0.2,1.4-0.3c-0.5,0.5-1,0.8-1.3,1.3c-0.2,0.3-0.3,0.6-0.1,0.9c0.2,0.3,0.5,0.3,0.8,0.2
		c0.4-0.1,0.8-0.2,1.3-0.3c-0.3,0.4-0.5,0.7-0.7,1c-0.2,0.3-0.3,0.7,0,1c0.3,0.3,0.6,0.2,1,0.1c0.3-0.1,0.6-0.3,0.9-0.5
		c-0.2,0.4-0.4,0.7-0.4,1.1c-0.1,0.7,0.2,1,0.9,0.7c0.3-0.1,0.6-0.3,0.9-0.6c0.4-0.4,0.9-0.8,1.3-1.2c0.5-0.5,1-0.9,1.9-0.7
		c0.3,0.1,0.9,0.1,0.9-0.4c0-0.5-0.5-0.3-0.9-0.3c-0.2,0-0.5,0.1-0.4-0.3c0.1-0.2,0.2-0.4-0.1-0.5c-0.2-0.1-0.4,0-0.6,0.2
		c-0.3,0.4-0.7,0.8-1,1.1c-0.6,0.7-1.3,1.3-2.1,1.8c0.2-0.7,0.6-1.4,1.1-1.9c0.5-0.5,1-1,1.4-1.5c0.1-0.1,0.2-0.3,0.1-0.5
		c-0.1-0.2-0.3-0.1-0.5,0c-0.2,0.1-0.4,0.2-0.5,0.3c-0.7,0.5-1.3,1.1-2,1.6c-0.3,0.3-0.7,0.5-1.3,0.7c0.6-1.1,1.4-1.8,2.3-2.5
		c0.4-0.3,0.8-0.6,1.2-0.9c0.1-0.1,0.3-0.3,0.2-0.5c-0.1-0.2-0.3-0.2-0.5-0.1c-0.2,0-0.3,0.1-0.5,0.2c-0.9,0.5-1.8,0.9-2.6,1.6
		c-0.3,0.2-0.7,0.5-1.1,0.5c0-0.2,0.1-0.3,0.2-0.4c1-1.1,2.2-1.8,3.4-2.4c0.2-0.1,0.7-0.2,0.5-0.6c-0.2-0.4-0.5-0.2-0.9-0.1
		c-0.1,0-0.2,0.1-0.4,0.2c-1.1,0.5-2.3,0.9-3.6,1.2c0.7-0.7,4.3-2.6,5.4-2.8c0.3-0.1,0.6-0.1,0.9-0.1c1.5-0.1,3,0.3,4.5,0.5
		c0.2,0,0.5,0.1,0.6-0.2c0.1-0.3-0.2-0.4-0.4-0.5c-0.2-0.1-0.4-0.1-0.6-0.1c-0.7,0-1.4-0.2-2.1-0.3c-1.1-0.1-2.2-0.3-3.3,0.1
		c-1.6,0.6-3.2,1.3-4.6,2.2c-0.4,0.3-0.9,0.5-1.2,0.9c-0.2,0.2-0.4,0.4-0.2,0.7C25.1,58.5,25.4,58.5,25.7,58.5z"/>
	<path d="M14.3,28.5c0.4,1.1,1,1.9,2.3,2.1c1.2,0.2,2-0.4,2.6-1.3c1-1.4,1-3.1,0-4.6c-0.7-1.1-1.6-1.5-2.8-1.2c0,0,0,0,0,0
		C14.6,24.8,13.7,26.9,14.3,28.5z M17.1,24.1c0.9,0.1,1.5,0.8,1.8,1.6c0.5,1.4,0.3,2.7-0.7,3.8c-0.5,0.6-1.3,0.7-2,0.4
		c-0.1-0.1-0.3-0.1-0.3-0.3c0-0.2,0.2-0.1,0.3-0.2c1.2-0.5,1.6-2.8,0.5-3.6c-0.4-0.3-0.8-0.1-1.2,0c0-0.1,0-0.1,0-0.1
		C15.8,24.9,16.1,24,17.1,24.1z"/>
	<path d="M33.6,6.7c0.1,1.4,0.3,2.8-0.1,4.2c-0.1,0.3-0.1,0.7,0.3,0.7c0.3,0.1,0.5-0.3,0.5-0.5c0.2-1.6,0.3-3.2,0-4.7
		c-0.1-0.3-0.1-0.8-0.6-0.8c-0.5,0-0.7,0.3-0.8,0.7C32.5,7,32.3,8,32.1,8.9c-0.1,0.6-0.2,1.2-0.3,1.8c0,0.2,0,0.6,0.3,0.6
		c0.4,0.1,0.4-0.3,0.4-0.5c0.1-0.6,0.2-1.2,0.3-1.8C33,8.2,33.1,7.4,33.6,6.7z"/>
	<path d="M53.9,83c0.3-0.1,0.5-0.1,0.7-0.1c0.2-0.1,0.6,0,0.6-0.4c0-0.3-0.3-0.5-0.6-0.5c-1.4-0.1-2.4-1.1-3.8-1.3
		c-0.4-0.1-0.6-0.3-0.5-0.8c0.3-2.2-0.1-4.4-1.3-6.3c-0.2-0.3-0.4-0.6-0.8-0.6c-0.4,0-0.6,0.4-0.8,0.7c-0.4,0.7-0.7,1.4-1,2.2
		c-0.9,1.7-1.6,3.4-1.9,5.2c-0.3,2.1-0.1,2.6,1.7,3.2c1.7,0.6,3.4,1.3,5.2,1.6c0.4,0.1,0.8,0.2,1,0.6c0.2,0.3,0.5,0.6,0.8,0.8
		c0.3,0.1,0.5,0.1,0.4-0.3c-0.1-0.4-0.1-0.6,0.5-0.6c0.2,0,0.2-0.2,0.2-0.4c0-0.1-0.1-0.2,0-0.2c0.6,0.2,0.5-0.5,0.7-0.6
		c0.8-0.3,0.3-0.7,0.1-1C54.8,83.8,54.2,83.6,53.9,83z M52.5,82.4c-0.1,0.9-0.4,1.8-0.8,2.6c-0.1,0.3-0.3,0.3-0.6,0.3
		c-1.7-0.5-3.4-0.9-5-1.7c-0.9-0.5-1.1-0.8-1-1.9c0.2-1.9,0.9-3.6,1.6-5.3c0.4-0.9,0.9-1.9,1.5-2.9c1,1.4,1.5,2.8,1.6,4.3
		c0,0.5,0,1,0,1.5c0,0.5-0.2,0.8-0.7,0.5c-0.2-0.1-0.5-0.2-0.7,0.1c-0.2,0.3,0.2,0.3,0.3,0.4c0.1,0.1,0.2,0.1,0,0.3
		c-0.1,0.1-0.3,0.2-0.2,0.3c0.1,0.2,0.3,0.1,0.4,0.1c1.2-0.1,2.2,0.5,3.3,0.8C52.5,81.9,52.5,82.2,52.5,82.4z"/>
	<path d="M51.7,67.2c0.8,0.6,1.7,0.7,2.7,0.8c1.2-0.1,2.4-0.3,3-1.6c0.2-0.5,0.3-1.1,1-1.2c0.1,0,0.3-0.2,0.2-0.4
		c-0.1-0.3-0.3-0.2-0.5-0.1c-0.4,0.1-0.8,0.1-1.1,0.2c-1.5,0.1-2.9-0.5-4.4-1c-0.4-0.1-0.8-0.3-1.2-0.3c-0.4,0-0.2,0.5-0.4,0.8
		C50.4,65.3,50.7,66.4,51.7,67.2z M53.9,65.3c0-0.3,0.2-0.3,0.4-0.2c0.8,0.1,1.5,0.3,2.3,0.4c0.4,0.1,0.5,0.3,0.3,0.6
		c-0.2,0.5-0.6,0.8-1,1c-1,0.4-2,0.3-3.1-0.1C53.5,66.5,53.9,66,53.9,65.3z"/>
	<path d="M62.7,66.6c1-0.1,2-0.4,2.9-1.1c1-0.8,1.1-2,0.3-3c-0.1-0.2-0.3-0.3-0.2-0.5c0.1-0.1,0.1-0.3,0-0.4c-0.2-0.1-0.4,0-0.5,0.1
		c-1.1,1-2.5,1.6-3.9,2.2c-0.2,0.1-0.4,0.2-0.5,0.5C60.5,65.6,61.2,66.6,62.7,66.6z M63.7,63.6c-0.1-0.6,0.7-0.7,1.1-0.9
		c0.4-0.2,0.6,0,0.8,0.3c0.3,0.6,0.4,1.1-0.1,1.6c-0.6,0.6-1.2,1-2.3,1.2C63.7,65.1,63.9,64.4,63.7,63.6z"/>
	<path d="M57.4,68.6c0,0.3,0.2,0.5,0.5,0.5c0.3,0.1,0.5,0.1,0.8,0.1c1.4-0.1,2.7-0.4,4.1-0.8c0.2-0.1,0.5-0.2,0.7-0.3
		c0.4-0.3,0.3-0.7-0.1-0.9c-0.2-0.1-0.4-0.2-0.7-0.2c-1,0-1.7-0.4-2.2-1.2c-0.1-0.1-0.2-0.3-0.4-0.2c-0.2,0.1-0.1,0.3-0.1,0.4
		c0.2,0.7,0.8,1.1,1.5,1.3c0.4,0.1,0.9,0.2,1.4,0.3c0,0.1,0,0.1,0,0.2c-1.4,0.4-2.8,0.8-4.3,0.9c0,0,0,0-0.1,0c-0.2,0-0.4,0-0.5-0.2
		c-0.1-0.3,0.2-0.2,0.4-0.3c0.4-0.2,0.8-0.3,1-0.6c0.1-0.1,0.2-0.2,0.1-0.4c-0.1-0.1-0.3-0.1-0.4,0c-0.4,0.3-1,0.5-1.4,0.8
		C57.4,68.1,57.3,68.3,57.4,68.6z"/>
	<path d="M46,63.9c-0.4,0.7-0.1,2.5,0.5,3.1c0.4,0.4,1.1,0.4,1.3-0.1c0-0.1,0-0.2,0-0.3c0-0.1-0.2-0.2-0.3-0.1
		c-0.5,0.4-0.7-0.1-0.8-0.4c-0.3-0.6-0.3-1.2-0.1-1.9c0.3,0.1,0.3,0.4,0.4,0.5c0.2,0.1,0.4,0.1,0.4-0.1c0.1-0.5-0.1-0.9-0.6-1.2
		C46.5,63.3,46.2,63.6,46,63.9z"/>
	<path d="M62.9,69.1c-1.6,0.6-3.2,0.8-4.9,0.9c-0.2,0-0.5,0-0.5,0.3c0,0.3,0.3,0.2,0.5,0.3c1.8-0.2,3.4-0.4,5.1-1
		c0.2-0.1,0.4-0.2,0.3-0.4C63.4,69,63.1,69.1,62.9,69.1z"/>
</g>
</svg>
