<?xml version="1.0" encoding="utf-8"?>
<!-- Generator: Adobe Illustrator 19.2.0, SVG Export Plug-In . SVG Version: 6.00 Build 0)  -->
<svg version="1.1" id="Capa_1" xmlns="http://www.w3.org/2000/svg" xmlns:xlink="http://www.w3.org/1999/xlink" x="0px" y="0px"
	 viewBox="0 0 100 100" enable-background="new 0 0 100 100" xml:space="preserve">
<g id="Capa_2">
</g>
<g id="Capa_1_1_">
	<g>
		<path fill="#FFFFFF" d="M35.9,26.1c0.5,0.9,1.7,1.3,2.7,0.9c1.4-0.6,2-2.2,1.3-3.8c-0.4,1.9-1.1,2.7-2.1,2.4
			c-1.1-0.3-1.3-1.1-0.8-2.7C35.8,23.5,35.3,25,35.9,26.1z"/>
		<path fill="#FFFFFF" d="M46.6,26.5c-1.1,0-1.5-0.7-1.5-2.3c-1.3,1-1.5,2.8-0.5,3.9c0.8,0.9,2.4,0.7,3.4-0.3
			c1.1-1.1,1.2-2.9,0.2-3.7C48.2,25.8,47.7,26.5,46.6,26.5z"/>
		<path fill="#FFFFFF" d="M36.8,19.2c5.8,1,11.5,1.6,17.4,1.2c2.5-0.1,2.5-0.1,2.5-2.5c0-0.4,0-0.7,0-1.1c0.1-1.1-0.3-1.3-1.3-1
			c-1.4,0.4-2.9,0.4-4.4,0.5c-4.9,0.1-9.7-0.3-14.4-1.7c-0.8-0.2-1,0.1-1.1,0.8c-0.1,0.7,0.1,1.5-0.1,2.1
			C35.1,18.8,35.8,19,36.8,19.2z"/>
		<path fill="#FFFFFF" d="M86.5,85.3c-0.3-0.4,0.2-0.6,0.5-0.8c1.2-1.2,2.4-2.4,3.1-4.2c-2,0.7-3.2,2-4.4,3.4
			c-0.2,0.2-0.3,0.8-0.7,0.5c-0.3-0.2,0-0.7,0.1-1c0.3-0.5,0.6-1.1,0.9-1.6c-0.8,0.4-1.3,1.1-1.7,1.8c-0.2,0.3-0.2,0.9-0.7,0.7
			c-0.5-0.2-0.2-0.7,0-1c0.3-0.7,0.6-1.4,0.9-2.2c-2.8,1.3-4.5,4.7-4,7.8c0.1,0.9-0.1,1.4-0.9,1.7c-1.1,0.6-2.1,1.1-3.3,1.3
			c-3.3,0.8-6.1,0.2-8.5-2.4c-2.3-2.5-3-5.7-3.7-8.9c0-0.2,0.1-0.5,0.2-0.7c2.9-5.2,3.2-10.8,2.4-16.6c-0.6-4.6-2.6-8.8-4.2-13
			c-1.7-4.6-3.2-9.2-4-14c-0.6-3.7-1.2-7.4-1.7-11.1c-0.1-0.6-0.2-1.4-1.1-1.2c-1.3,0.3-2.7,0.1-4.1,0.1c-1.7,0-1.7,0-1.8,1.7
			c-0.1,1.6-0.9,2.7-2.4,3.3c-1.1,0.4-2.2,0.5-3.1-0.4c-1.1-1.1-1-2.5-0.6-3.9c0.1-0.2,0.2-0.4,0.3-0.7c0.1-0.2,0.1-0.4-0.1-0.4
			c-0.7-0.1-1.5-0.4-2.2-0.3c-0.6,0.1-0.4,0.8-0.5,1.2c-0.4,1.5-1.2,2.6-2.7,3c-1.1,0.3-2.1-0.1-2.8-0.9c-1-1.2-0.6-2.5,0-3.7
			c0.1-0.2,0.4-0.4,0-0.7c-0.1,0-0.2,0-0.2,0.1c-0.2,0.3-0.3,0.6-0.5,1c-1.4,4.4-4.1,7.5-8.4,9.4c-1.7,0.7-3.3,1.7-4.6,2.9
			c-2.3,2.2-2.7,6-0.8,8.1c1.4,1.5,3.1,2.5,5,3.2c4.2,1.6,8.6,1.6,12.9,0.8c6.2-1.1,10.8-4.3,13.1-10.3c0.1-0.3,0.1-0.8,0.6-0.6
			c0.4,0.2,0.2,0.6,0.1,1c-1.3,3.5-3.5,6.3-6.7,8.2c-3.9,2.4-8.4,2.9-12.9,2.9c-0.7,0-1.2,0.1-1.5,0.8c-1.6,2.9-3.1,5.9-3.8,9.2
			c-0.1,0.4-0.1,1-0.6,1.3C27,60,27,59.6,27.1,59.2c0-0.4,0-0.7-0.4-0.7c-1.4,0.1-2.8,0.3-4.1,1.5c0.9,0.2,1.5-0.1,2-0.3
			c0.3-0.1,0.7-0.3,0.9,0c0.7,1,1.7,2,1.6,3.2c-0.2,3.5-0.2,7,0.6,10.4c1.1,5.1,3.4,9.3,8,12.1c0.2,0.1,0.5,0.2,0.4,0.5
			s-0.4,0.3-0.6,0.2c-0.8-0.4-0.8,0-0.9,0.7c0,1.6,0,3.2,0.5,4.7c0.2,0.7,0,1-0.6,1c-1.2,0.1-2.3,0.4-3.3,0.9
			c-0.5,0.3-1.2,0.4-1.1,1.1c0.1,0.6,0.9,0.4,1.4,0.4c3.1,0,6.1-0.3,9.2-0.5c2.8-0.2,3-0.3,3.2-3.1c0-0.1,0-0.2,0-0.2
			c0.2-2.3,0.2-2.3-2-2.8c-0.3-0.1-0.9-0.1-0.8-0.5c0.1-0.5,0.7-0.2,1-0.2c1.8,0.2,3.6,0.4,5.5,0.4c0.7,0,1.2-0.1,1.1-1
			c0-0.3,0.1-0.7,0.5-0.7s0.3,0.5,0.4,0.8c0,0.4,0,0.7,0,1.1c0,1.7-0.2,3.5,0.4,5.1c0.4,1.1-0.1,1.3-0.9,1.3
			c-1.6,0.1-2.9,0.6-4.3,1.3c-0.2,0.1-0.5,0.2-0.4,0.5c0,0.3,0.3,0.4,0.5,0.4c0.8,0.2,1.6,0.3,2.5,0.3c3-0.2,6-0.5,9-0.7
			c2.2-0.1,2.7-0.6,2.7-2.8c0-3.9,1.3-7.3,3.2-10.6c0.1-0.2,0.2-0.4,0.3-0.5s0.3-0.2,0.4-0.1c0.2,0,0.2,0.2,0.2,0.4
			c-0.6,1.7,0.5,3.1,1.2,4.5c1.1,2.2,2.4,4.1,4.7,5.2c4,1.8,7.7,0.9,11.3-1c1.1-0.5,1.9-0.7,3-0.5c2,0.4,3.8-0.1,5.6-1.8
			c-0.8,0.2-1.2,0.4-1.7,0.4s-1.2,0.4-1.4-0.2c-0.2-0.6,0.7-0.6,1.1-0.8c1.5-0.5,2.8-1.3,4-2.7c-1,0.4-1.8,0.6-2.5,0.9
			c-0.4,0.1-0.9,0.3-1.1-0.1c-0.2-0.5,0.4-0.6,0.7-0.7c1.7-1,3.2-2.2,3.8-4.5c-1.5,1.5-2.8,2.7-4.5,3.5
			C87.1,85.3,86.7,85.6,86.5,85.3z M59.2,64.8c-0.7,0.6-1.4,1.3-2.2,1.8c-2.1,1.4-3.8,3.1-4.9,5.4c-0.2,0.4-0.4,1-1,0.9
			c-0.7-0.1-0.5-0.7-0.6-1.1c-0.7,0.2-0.8,1.5-1.7,1.1c-0.6-0.3-0.2-1-0.2-1.6c-0.6,0.4-0.8,1.5-1.7,1.1c-0.8-0.3-0.3-1.2-0.3-1.8
			c-0.1,0-0.2,0-0.2,0c-0.4,0.3-0.8,0.9-1.3,0.5s-0.2-1-0.1-1.6c0.1-0.3,0.2-0.6,0.4-0.9c0.5-0.8,1.2-1.5-0.6-1.5
			c-0.6,0-0.8-0.7-0.4-1.2c0.3-0.4,0.8-0.7,1.2-0.9c2.1-1.3,4.2-2.6,5.7-4.6c0.6-0.8,1.1-1.6,1.4-2.5c0.1-0.3,0.2-0.9,0.7-0.6
			c0.4,0.2,0.1,0.6-0.1,0.9c-1.1,2.7-3,4.6-5.4,6.2c-1,0.6-2,1.1-3,2c0.9,0.3,1.5-0.1,2.1-0.3c0.3-0.1,0.6-0.3,0.8,0
			s-0.1,0.5-0.3,0.7c-1,1-1.7,2.1-1.9,3.5c0.8-0.8,1.6-1.7,2.4-2.5c0.3-0.3,0.6-0.8,1-0.4c0.3,0.3-0.1,0.6-0.3,0.9
			c-0.7,0.9-1.3,1.8-1.4,3.3c0.8-1,1.3-1.7,1.9-2.5c0.2-0.3,0.4-0.6,0.7-0.8c0.2-0.2,0.5-0.6,0.8-0.3c0.3,0.2,0,0.5-0.1,0.7
			c-0.6,0.9-1.1,1.9-1.2,3c0.6-0.8,1.1-1.6,1.7-2.4c0.2-0.3,0.5-0.8,0.9-0.6c0.5,0.2,0.1,0.7,0,1c-0.2,0.6-0.6,1.2-0.5,1.9
			c1.5-3.5,4.8-5.1,7.4-7.3c0.2-0.1,0.4-0.4,0.6-0.1C59.6,64.5,59.4,64.7,59.2,64.8z"/>
		<path d="M58.5,5.1c0.5-3.3,0.1-3.6-3-3.3c-3.9,0.4-7.8-0.2-11.7-0.2c-2.5,0-4.9-0.4-7.4-0.6c-0.8-0.1-1,0.2-1,1
			c0.3,4.8-0.1,9.6-0.5,14.4c-0.2,2.1-0.2,2.1-2.2,1.6c-0.5-0.1-0.9-0.2-1.1,0.5c-0.3,1.4,0.5,2.8,1.9,3.2c0.8,0.2,1.1,0.5,0.8,1.4
			C33,26.9,30.8,30,27,31.7c-0.8,0.3-1.5,0.8-2.2,1.2c-1.5,0.8-2.9,1.7-4,3c-2.4,2.9-2.1,7,0.9,9.4c2.5,2,5.4,2.9,8.4,3.4
			c0.8,0.1,1.2,0.3,0.7,1.3c-1.1,1.9-2,3.9-2.7,6c-0.4,1.2-1,1.9-2.3,1.9c-2.9,0-6.3,3.6-6.4,6.4c-0.1,2.1-0.3,4.2-0.5,6.3
			c-0.7,6-1.3,12-1.8,18.1C17,90.1,17,91.4,17,92.8c0,0.4,0,1,0.6,1s0.7-0.5,0.8-0.9c0.1-0.6,0.2-1.3,0.2-1.9
			c0.1-1.9,0.1-3.7,0.3-5.6c0.6-5.6,1.2-11.2,1.9-16.7c0.2-1.8,0.2-3.6,0.7-5.3c0.1-0.3,0.2-0.7,0.5-0.7c0.4-0.1,0.3,0.4,0.5,0.6
			c0.7,1,1.6,2,2.9,1.7c1-0.2,0.9,0.2,0.9,0.9c0,1.9-0.1,3.8,0.2,5.7c0.9,5.2,2.7,9.9,6.9,13.4c0.5,0.4,0.5,0.8,0.5,1.4
			c0,1.5-0.1,3,0.2,4.5c0.2,0.8-0.2,1.2-1,1.3c-1.2,0.2-2.2,0.7-3.2,1.3c-0.5,0.3-1.1,0.7-0.9,1.4c0.2,0.8,0.9,0.8,1.6,0.8
			c3.7,0.1,7.5-0.2,11.2-0.5c2.1-0.2,2.4-0.7,2.5-2.7c0-0.4,0.1-0.8,0.1-1.2c0.4-2.8-0.2-2.4,3.1-2.5c0.6,0,0.9,0.2,1,0.9
			c0.1,1,0.1,2.1,0.3,3.1c0.2,0.9-0.2,1.2-1,1.4c-0.9,0.2-1.9,0.5-2.7,0.8s-2,0.5-1.8,1.7s1.4,1.2,2.3,1.2c3.9-0.1,7.7-0.3,11.6-0.7
			c1.6-0.2,2-0.7,2.2-2.3c0.1-1.1,0.1-2.1,0.3-3.2c0.3-2.4,1.1-4.7,2.4-7.1c0.7,2,1.6,3.7,2.6,5.2c1.6,2.4,3.8,3.9,6.7,4.4
			c3.4,0.5,6.5-0.5,9.5-2.1c0.6-0.3,1-0.4,1.7-0.3c2.4,0.6,4.5,0,6.4-1.5c0.4-0.4,0.9-0.8,0.9-1.4c0-0.8,0.5-1.2,1-1.7
			c0.4-0.3,0.7-0.7,1-1.2c0.3-0.4,0.9-1,0.4-1.5s-0.8,0.5-1.2,0.6c-0.1,0-0.1,0-0.3,0c0.8-1,1.6-2,1.8-3.3c0.1-0.4,0.3-0.9-0.2-1.2
			c-0.5-0.2-0.7,0.3-0.9,0.6c-0.6,0.6-1.2,1.1-1.8,1.7c0.2-1,0.7-1.7,1.1-2.5c0.1-0.2,0.3-0.5,0-0.8c-0.2-0.3-0.5-0.2-0.8-0.1
			c-0.8,0.2-1.5,0.7-2.4,1.3c0.2-0.5,0.8-0.8,0.5-1.2c-0.3-0.4-0.8-0.1-1.2,0.1c-0.4,0.1-0.7,0.7-1,0.4c-0.9-1-1.5-0.1-2.1,0.3
			c-2.9,2-4.4,4.7-4.1,8.2c0,0.5,0.1,1-0.4,1.3c-2.7,1.5-5.4,2.4-8.4,1c-3.1-1.4-4.4-4.2-5.4-7.2C65,81.8,65,80,65.8,78.3
			c1.5-3.3,2-6.8,2-10.4c-0.1-4.3-1-8.4-2.5-12.5c-2.8-7.2-5.6-14.4-6.6-22.2c-0.3-2.6-0.8-5.2-1.2-7.8c-0.2-1-0.1-1.8,1.2-2
			c1.4-0.1,1.8-1.1,2-2.3c0.3-1.7,0.2-1.8-1.4-1.5c-1.6,0.3-1.7,0.2-1.7-1.4L58.5,5.1z M35.5,17.5c0.2-0.7,0.1-1.4,0.1-2.1
			c0.1-0.6,0.3-1,1.1-0.8c4.7,1.4,9.5,1.8,14.4,1.7c1.5,0,2.9-0.1,4.4-0.5c1-0.3,1.4,0,1.3,1c0,0.4,0,0.7,0,1.1c0,2.5,0,2.4-2.5,2.5
			c-5.9,0.3-11.6-0.3-17.4-1.2C35.8,19,35.1,18.8,35.5,17.5z M48,27.8c-1.1,1-2.6,1.2-3.4,0.3c-1-1.1-0.8-3,0.5-3.9
			c0,1.7,0.4,2.3,1.5,2.3s1.6-0.7,1.6-2.4C49.3,24.9,49.2,26.7,48,27.8z M37.8,25.5c1,0.3,1.7-0.5,2.1-2.4c0.7,1.6,0,3.2-1.3,3.8
			c-1,0.4-2.2,0.1-2.7-0.9c-0.6-1.1-0.1-2.6,1.1-3.3C36.5,24.4,36.8,25.2,37.8,25.5z M88.1,86.1c-0.3,0.2-0.9,0.2-0.7,0.7
			c0.2,0.4,0.7,0.2,1.1,0.1c0.7-0.2,1.5-0.5,2.5-0.9c-1.2,1.4-2.6,2.1-4,2.7c-0.4,0.2-1.3,0.2-1.1,0.8c0.2,0.6,0.9,0.2,1.4,0.2
			s0.9-0.2,1.7-0.4c-1.7,1.7-3.6,2.2-5.6,1.8c-1.1-0.2-2-0.1-3,0.5c-3.6,1.9-7.4,2.8-11.3,1c-2.3-1.1-3.7-3-4.7-5.2
			c-0.7-1.4-1.7-2.7-1.2-4.5c0.1-0.2,0-0.4-0.2-0.4c-0.1,0-0.3,0.1-0.4,0.1c-0.1,0.1-0.2,0.3-0.3,0.5c-1.9,3.3-3.2,6.8-3.2,10.6
			c0,2.3-0.5,2.7-2.7,2.8c-3,0.2-6,0.4-9,0.7c-0.8,0.1-1.7-0.1-2.5-0.3c-0.2-0.1-0.5-0.2-0.5-0.4c0-0.3,0.2-0.4,0.4-0.5
			c1.4-0.6,2.8-1.2,4.3-1.3c0.8,0,1.3-0.2,0.9-1.3c-0.6-1.6-0.4-3.4-0.4-5.1c0-0.4,0-0.7,0-1.1c0-0.3,0.1-0.8-0.4-0.8
			c-0.4,0-0.5,0.4-0.5,0.7c0,0.8-0.4,1-1.1,1c-1.8,0-3.7-0.1-5.5-0.4c-0.4,0-0.9-0.3-1,0.2c-0.1,0.4,0.5,0.4,0.8,0.5
			c2.3,0.5,2.3,0.5,2,2.8c0,0.1,0,0.2,0,0.2c-0.2,2.8-0.4,3-3.2,3.1c-3.1,0.2-6.1,0.5-9.2,0.5c-0.5,0-1.2,0.2-1.4-0.4
			c-0.2-0.7,0.6-0.8,1.1-1.1c1-0.6,2.1-0.9,3.3-0.9c0.7,0,0.8-0.3,0.6-1c-0.4-1.5-0.5-3.1-0.5-4.7c0-0.6,0.1-1.1,0.9-0.7
			c0.2,0.1,0.5,0.1,0.6-0.2c0.1-0.3-0.2-0.4-0.4-0.5c-4.6-2.8-6.8-7.1-8-12.1c-0.8-3.5-0.8-6.9-0.6-10.4c0.1-1.3-0.9-2.2-1.6-3.2
			c-0.2-0.3-0.6,0-0.9,0c-0.6,0.1-1.1,0.4-2,0.3c1.3-1.3,2.7-1.5,4.1-1.5c0.5,0,0.5,0.3,0.4,0.7c0,0.4-0.1,0.8,0.2,1.2
			c0.6-0.3,0.5-0.9,0.6-1.3c0.7-3.3,2.2-6.3,3.8-9.2c0.4-0.7,0.8-0.8,1.5-0.8c4.5,0,8.9-0.6,12.9-2.9c3.2-1.9,5.4-4.7,6.7-8.2
			c0.1-0.3,0.4-0.8-0.1-1c-0.4-0.2-0.5,0.3-0.6,0.6C49.8,43.8,45.2,46.9,39,48c-4.4,0.8-8.7,0.8-12.9-0.8c-1.9-0.7-3.6-1.7-5-3.2
			c-1.9-2.1-1.5-5.9,0.8-8.1c1.3-1.3,2.9-2.2,4.6-2.9c4.3-1.8,7.1-4.9,8.4-9.4c0.1-0.3,0.3-0.7,0.5-1c0,0,0.1-0.1,0.2-0.1
			c0.4,0.3,0.1,0.5,0,0.7c-0.6,1.2-0.9,2.5,0,3.7c0.7,0.9,1.6,1.2,2.8,0.9c1.5-0.5,2.4-1.5,2.7-3c0.1-0.4-0.2-1.1,0.5-1.2
			c0.7-0.2,1.5,0.2,2.2,0.3c0.2,0,0.2,0.2,0.1,0.4c-0.1,0.2-0.2,0.4-0.3,0.7c-0.4,1.4-0.5,2.8,0.6,3.9c0.9,0.9,2,0.8,3.1,0.4
			c1.5-0.6,2.3-1.7,2.4-3.3c0.1-1.7,0.1-1.7,1.8-1.7c1.4,0,2.7,0.1,4.1-0.1c1-0.2,1,0.5,1.1,1.2c0.6,3.7,1.1,7.4,1.7,11.1
			c0.8,4.8,2.4,9.4,4,14c1.6,4.3,3.6,8.4,4.2,13c0.8,5.8,0.5,11.4-2.4,16.6c0-0.1-0.2,0.2-0.2,0.4c0.8,3.2,1.4,6.3,3.7,8.9
			c2.4,2.6,5.2,3.2,8.5,2.4c1.2-0.3,2.3-0.8,3.3-1.3c0.7-0.4,1-0.9,0.9-1.7c-0.5-3.1,1.2-6.5,4-7.8c-0.3,0.8-0.6,1.5-0.9,2.2
			c-0.1,0.4-0.4,0.8,0,1s0.5-0.4,0.7-0.7c0.4-0.7,0.8-1.4,1.7-1.8c-0.3,0.5-0.6,1.1-0.9,1.6c-0.2,0.3-0.5,0.7-0.1,1s0.5-0.3,0.7-0.5
			c1.2-1.4,2.4-2.7,4.4-3.4c-0.7,1.9-1.8,3.1-3.1,4.2c-0.2,0.2-0.8,0.4-0.5,0.8c0.3,0.3,0.7,0,1-0.1c1.7-0.8,3-2.1,4.5-3.5
			C91.3,83.9,89.8,85.1,88.1,86.1z"/>
		<path d="M58.8,64.4c-2.6,2.3-5.9,3.9-7.4,7.3c-0.1-0.8,0.3-1.3,0.5-1.9c0.1-0.3,0.5-0.8,0-1c-0.4-0.2-0.7,0.3-0.9,0.6
			c-0.6,0.8-1.1,1.6-1.7,2.4c0.1-1.2,0.5-2.1,1.2-3c0.2-0.2,0.4-0.5,0.1-0.7c-0.3-0.3-0.6,0.1-0.8,0.3c-0.3,0.2-0.5,0.5-0.7,0.8
			c-0.6,0.7-1.2,1.5-1.9,2.5c0.2-1.5,0.8-2.4,1.4-3.3c0.2-0.3,0.6-0.6,0.3-0.9c-0.4-0.4-0.7,0.2-1,0.4c-0.8,0.8-1.6,1.7-2.4,2.5
			c0.2-1.4,0.9-2.5,1.9-3.5c0.2-0.2,0.5-0.4,0.3-0.7c-0.2-0.3-0.5-0.1-0.8,0c-0.6,0.2-1.2,0.6-2.1,0.3c1-0.9,2-1.4,3-2
			c2.4-1.6,4.3-3.5,5.4-6.2c0.1-0.3,0.5-0.7,0.1-0.9s-0.6,0.3-0.7,0.6c-0.3,0.9-0.8,1.7-1.4,2.5c-1.5,2-3.6,3.3-5.7,4.6
			c-0.4,0.3-0.9,0.6-1.2,0.9c-0.4,0.5-0.3,1.2,0.4,1.2c1.8,0,1.1,0.8,0.6,1.5c-0.2,0.3-0.3,0.6-0.4,0.9c-0.2,0.5-0.4,1.2,0.1,1.6
			s0.9-0.2,1.3-0.5c0,0,0.1,0,0.2,0c0,0.6-0.5,1.5,0.3,1.8c0.8,0.4,1-0.8,1.7-1.1c-0.1,0.6-0.4,1.3,0.2,1.6c1,0.4,1-0.9,1.7-1.1
			c0.1,0.4,0,1.1,0.6,1.1s0.8-0.5,1-0.9c1.1-2.3,2.8-4,4.9-5.4c0.8-0.5,1.5-1.2,2.2-1.8c0.2-0.1,0.4-0.4,0.2-0.6
			C59.2,64,59,64.2,58.8,64.4z"/>
	</g>
</g>
</svg>
