<?xml version="1.0" encoding="utf-8"?>
<!-- Generator: Adobe Illustrator 19.2.0, SVG Export Plug-In . SVG Version: 6.00 Build 0)  -->
<svg version="1.1" id="Capa_1" xmlns="http://www.w3.org/2000/svg" xmlns:xlink="http://www.w3.org/1999/xlink" x="0px" y="0px"
	 viewBox="0 0 100 100" enable-background="new 0 0 100 100" xml:space="preserve">
<g>
	<path fill="#FFFFFF" d="M65.4,66.8c1.3,0.5,2.2,1.3,3.1,2.3c0.3,0.3,0.5,0.7,1.1,0.8c-0.2-0.9-0.7-1.6-1-2.4
		c-0.1-0.3-0.4-0.6-0.1-1s0.7-0.2,1.1-0.1c0.7,0.3,1.4,0.6,2.3,1c-0.1-0.4-0.2-0.5-0.3-0.7c-0.7-0.9-2.2-1.1-2.1-2.6
		c-2.2-1.9-4.7-3.4-7.2-4.8c1.2,2.1,1.8,4.4,2.3,6.7C64.7,66.4,65,66.6,65.4,66.8z"/>
	<path fill="#FFFFFF" d="M44.8,33.3c1.3,0.1,2.4-1,2.8-3.2c-1,0.6-1.7,0.3-2.3-0.5c-0.5-0.7-0.5-1.5-0.1-2.3
		c0.1-0.2,0.3-0.5,0.1-0.7s-0.5,0-0.8,0c-1.2,0.4-2.1,1.9-2,3.4C42.5,31.9,43.5,33.2,44.8,33.3z"/>
	<path fill="#FFFFFF" d="M47.5,85.5c-0.5,0.1-1.1,0.1-1.6,0.1c-0.3,0-0.6,0-0.7-0.3c-0.1-0.4,0.3-0.5,0.5-0.6c1-0.4,2-0.8,3.3-1.3
		c-2.4,0-4.6,0.1-6.6,1c-1.1,0.5-2,0.5-3,0.2c-3.2-1-6.2-2.3-9.2-3.8c-2.8-1.4-5.3-3.2-6.5-6.4c0,2.7,0.9,5.1,3.2,6.6
		c2.8,1.8,5.8,3.4,9,4.5c1.1,0.4,2.2,1.2,3.3,1.3c1.8,0.2,1.2,1.9,2,2.7c0.3,0.3,0.6,0.7,0.9,0.9c2.1,1.5,4.4,1.7,6.8,1.3
		c-0.3-0.2-0.6-0.2-0.9-0.3c-2-0.6-4.1-1.2-5.8-2.4c-0.3-0.2-0.6-0.4-0.4-0.8c0.2-0.4,0.6-0.1,0.8,0c2.8,1,5.7,1,8.6,1.8
		c-0.2-0.4-0.5-0.5-0.7-0.6c-2-0.9-4.1-1.4-6.2-1.8c-0.4-0.1-0.9,0.1-0.9-0.4s0.6-0.4,1-0.4c1.9-0.3,3.8-0.3,5.7-0.3
		c0.8,0,1.6,0,2.6,0C51.1,85.6,49.1,85.2,47.5,85.5z"/>
	<path fill="#FFFFFF" d="M52.5,33.7c0.9-0.1,1.9-1.2,2-2.2c0-0.4,0.1-0.7-0.5-0.6c-1,0.2-1.5-0.5-1.8-1.3c-0.3-0.7-0.2-1.4,0.1-2.2
		c-1.1,0.1-1.8,0.6-2.1,1.5c-0.4,1.1-0.4,2.3,0.1,3.4C50.8,33.3,51.7,33.9,52.5,33.7z"/>
	<path fill="#FFFFFF" d="M74.9,65.8c-0.5,0-0.6,0.5-0.7,0.9c-0.2,0.9-0.4,1.7-0.6,2.6c-0.1,0.2-0.2,0.5-0.4,0.5
		c-0.3,0-0.3-0.3-0.4-0.4c-0.7-1.1-1.9-1.5-3.2-2.1c0.4,0.9,0.6,1.4,0.8,2c0.2,0.6,0.5,1.4-0.1,1.7c-0.6,0.4-1.1-0.2-1.5-0.7
		c-0.7-0.6-1.4-1.3-2.1-2c-1.3-1.1-1.4-1.1-1.7,0.5c0,0.1-0.1,0.3-0.1,0.4c-0.1,0.4-0.1,0.9-0.6,0.9c-0.4-0.1-0.2-0.6-0.2-0.9
		c0-5.4-2-9.9-5.8-13.6c-1.2-1.2-2.4-1.4-3.9-1.2c-0.9,0.1-1.6,0.3-1.7,1.3c-0.1,0.5-0.5,0.9-0.8,1.2c-0.6,0.6-1,1.3-1.3,2
		c-1.1,3.7-3,6.9-5.1,10.1c-0.3,0.5-0.6,1.6-1.2,1.2c-0.6-0.4,0.2-1.2,0.5-1.7c2.5-3.6,4.5-7.3,5.4-11.6c0.1-0.6,0.3-1.2,0.7-1.8
		c0.1-0.2,0.3-0.6,0.6-0.5c0.4,0.1,0.1,0.5,0.3,0.8c0.6-1.7,0.6-1.7-1-2c-0.3,0-0.6-0.1-0.4-0.5c0.1-0.2,0.6-0.4,0.2-0.8
		c-0.3-0.3-0.7,0-1,0c-0.3,0.1-0.7,0.3-0.9,0c-0.2-0.4,0.2-0.5,0.4-0.8c0.1-0.1,0.2-0.2,0.1-0.4c-0.3-0.2-0.5,0.1-0.8,0.1
		c-0.3,0.1-0.5,0.3-0.8,0.1c-0.2-0.3,0-0.5,0.2-0.8c0.2-0.4,0.4-0.8,0.7-1.2c0.4-0.7,0.9-1.4,1.3-2.1c-0.5,0-0.8,0.2-1.1,0.4
		c-1.4,1.1-2.4,2.6-3.5,4c-1.7,2.3-3.4,4.6-5.4,6.7c-1.7,1.8-3.6,3.5-5.8,4.8c-0.4,0.2-0.8,0.6-1.1,0.2c-0.3-0.4,0.3-0.7,0.6-0.9
		c3.8-2.4,6.7-5.7,9.4-9.2c0.5-0.6,0.5-0.9-0.3-1.4c-2.8-1.6-4.9-3.9-6.4-6.7c-1.9-3.7-2.1-7.6-2-11.7c0-0.2,0.1-0.3,0.1-0.5
		c0.1-0.2,0.2-0.4,0.4-0.4c0.1,0,0.2,0.3,0.3,0.4c0,0.2,0.1,0.5,0,0.7c-0.3,2.9-0.2,5.7,0.7,8.5c1.3,3.8,3.6,6.9,7.2,9
		c0.6,0.4,1,0.3,1.5-0.3c0.9-1.2,2-2.3,3-3.4c0.5-0.5,1-0.9,1.6-1.2c0.5-0.3,1.1-0.5,1.6,0s0.1,1-0.2,1.4c-0.4,0.6-0.8,1.2-1.2,1.8
		c-0.3,0.4-0.2,0.6,0.2,1c0.7,0.7,1.6,1.1,2.3,2c0.4,0.5,0.9,1.1,1.8,1.2c3.9,0.2,7.5-0.8,10.4-3.1c3.6-2.9,4.4-6.2,1.8-9.6
		c-1.8-2.5-4.6-3.9-7.5-4.7c-0.5-0.1-1.2,0-1.2-0.6c0-0.8,0.8-0.1,1.3-0.3c-0.3-0.7-0.7-1.3-1-2c-1.3-2.6-2.1-5.3-3-8
		c-0.3-0.9-0.6-1.8-1.4-2.4c-0.3-0.2-1.1-0.3-0.8-0.8c0.3-0.6,0.8,0.1,1.2,0.1h0.1c0-0.1,0.1-0.1,0.1-0.2c0-0.3-0.1-0.6-0.1-0.9
		c0-0.4-0.1-0.8,0.2-1.1c1.9-2.1,2.8-4.7,3.7-7.3c0.1-0.3,0.2-0.8-0.1-1c-0.3-0.3-0.7,0-1,0.1c-2.1,1.1-4.1,2.4-5.8,4.1
		c-0.6,0.6-0.6,0.9,0.3,1.1c0.4,0.1,0.9,0.2,0.8,0.7c-0.1,0.5-0.7,0.2-1,0.1c-1.7-0.5-3.4-0.9-5.2-0.8c-0.3,0-0.6,0-0.8,0.1
		c-0.4,0.1-0.4,0.9-0.8,0.6c-0.4-0.3,0-0.8,0-1.2c0-0.3,0.1-0.6,0.1-0.9c0.3-2.3,0.8-4.5,0.4-6.8c-0.2-1-0.3-1.1-1.2-0.4
		c-1.1,0.8-1.9,2-2.6,3.2c-1.2,2.1-2.2,4.4-3,6.7c-3.9,11-6.9,22.3-10.8,33.2c-2.2,6-3,12.3-2.8,18.6c0.2,5,2.4,8.5,7.1,10.4
		c3,1.2,6.1,1.8,9.3,2.3c1.4,0.2,2.7,0.6,4.1,0.4c2.6-0.5,5.2-0.7,7.8,0.4c0.4,0.2,0.8,0.2,1.2,0.3c2.8,0.1,5.5,0.1,8.2-0.4
		c0.6-0.1,0.8-0.3,0.9-1c0.4-3.8,0.1-7.5-0.6-11.1c-0.1-0.3-0.1-0.8-0.5-0.8s-0.5,0.4-0.6,0.7c-0.8,1.5-1.1,3.2-1.3,4.9
		c-0.1,0.4,0.1,1.1-0.5,1.1c-0.5-0.1-0.4-0.8-0.2-1.2c0.6-1.8-0.5-2.9-1.6-4c-0.2-0.2-0.4-0.3-0.5-0.5c-2.8-2.7-4.4-2.8-7.7-0.8
		c-0.3,0.2-0.6,0.5-0.8,0.2c-0.3-0.4,0.1-0.6,0.4-0.8c0.9-0.8,2.1-0.9,3.2-1.4c1.1-0.5,2.1-0.3,3,0.3c1.6,1,3,2.2,4.1,3.6
		c0.1,0.2,0.3,0.5,0.6,0.4c0.2-0.1,0.2-0.3,0.3-0.5c0.1-0.5,0.2-1,0.5-1.5c0.3-0.7,0.7-1.5,1.5-1.4c0.8,0,0.9,0.9,1.1,1.5
		c0.5,1.9,0.8,3.8,0.8,5.7c0,0.6,0.1,1,0.8,0.9c3.4-0.4,6.8-0.2,10.3-0.1c1,0,1.3-0.3,1.4-1.2c0.5-3.2,0.1-6.3-0.4-9.5
		C75.6,66.3,75.5,65.8,74.9,65.8z M52.7,18c1-1.3,1.9-2.7,3.1-3.8c0.2-0.1,0.4-0.2,0.6-0.1c0.1,0,0.1,0.2,0.1,0.2
		c-0.7,1.3-1,2.9-2.2,4c-0.4,0.4-1,0-1.6,0.3C52.6,18.7,52.6,18.2,52.7,18z M49.8,28.3c0.5-1.1,1.3-1.5,2.7-1.5
		c0.6,0,1.3,0.2,1.7,0.7c1.5,1.6,1.2,5.1-0.6,6.4c-1.2,0.8-2.8,0.6-3.5-0.6C49.2,31.7,49.1,30,49.8,28.3z M45.7,26
		c1.6,0.4,2.8,2.1,2.6,3.9c-0.1,0.7-0.3,1.5-0.6,2.1c-0.8,1.4-1.9,2.1-3.2,1.8c-1.3-0.2-2.4-1.7-2.6-3c0-0.2,0-0.4,0-0.5
		c-0.1-0.8,0.1-1.4,0.3-2C42.9,26.6,44.3,25.7,45.7,26z M41,16.9c0.2-0.5,0.3-1,0.6-1.5c0.7-1.4,1.2-2.8,1.7-4.2
		c0.1-0.3,0.2-0.8,0.6-0.6c0.4,0.1,0.2,0.5,0.1,0.8c-0.3,1.5-0.3,3.1-0.8,4.6c-0.1,0.4-0.1,1-0.6,1c-0.7,0-0.1-0.7-0.4-1.1
		c-0.2,0.4-0.4,0.9-0.6,1.3c-0.1,0.2-0.3,0.5-0.6,0.4C40.9,17.4,41,17.1,41,16.9z"/>
	<path d="M76.1,65.5c-0.3-0.5-0.6-0.9-1.2-0.9c-0.5,0-0.9,0.4-1.1,0.9c-0.2,0.7-0.4,1.3-0.7,2.2c-0.4-1.1-1-1.9-1.7-2.7
		c-1.2-1.5-2.8-2.6-4.3-3.7c-2.8-2-6.3-3.3-8.4-6.3c-0.2-0.2-0.7-0.3-0.6-0.7c0.1-0.4,0.6-0.4,0.9-0.5c2.3-0.7,4.5-1.5,6.3-3.1
		c4.2-3.6,3.9-9.2-0.6-12.4c-1.3-0.9-2.7-1.6-4.2-2.2c-0.5-0.2-0.9-0.5-1.1-1c-2-3.9-3.4-8.1-4.7-12.3c-0.3-0.9-0.2-1.7,0.3-2.5
		c1.4-2.4,2.6-4.9,3.4-7.5c0.2-0.6,0.1-1.1-0.3-1.6c-0.4-0.4-0.9-0.3-1.4-0.1c-2.5,1.3-5,2.6-6.9,4.8c-0.5,0.6-1,0.8-1.8,0.6
		s-1.6-0.4-2.4-0.3c-0.8,0.1-1.1-0.2-0.9-1c0.1-0.2,0.1-0.4,0.1-0.6c0.4-2,0.4-4.1,0.3-6.1C45,7,44.2,6.6,43,7.4
		c-0.7,0.5-1.3,1-1.8,1.7c-1.3,1.8-2.3,3.6-3.2,5.6c-1.6,3.7-2.8,7.5-4,11.4c-2.2,7.1-4.1,14.2-6.8,21.2c-1.1,2.9-2.1,5.8-2.8,8.8
		C23,62.4,23.3,68.9,23,75.2c-0.1,3.1,1.6,5.5,4.2,7.2c3.4,2.1,7.2,3.6,11,5c1,0.4,1.8,0.7,2.1,1.9c0.1,0.4,0.4,0.7,0.7,1.1
		c2,2.4,7.1,3.4,9.9,1.9c0.3-0.1,0.7-0.3,0.6-0.7c-0.1-0.3-0.5-0.3-0.8-0.4c-1.2-0.2-2.3-0.4-3.5-0.9c0.3,0,0.6,0,0.9,0.1
		c1.5,0.2,3,0.5,4.5,0.5c0.3,0,0.8,0.1,0.9-0.3c0.1-0.4-0.2-0.7-0.5-0.8c-0.5-0.3-1-0.6-1.5-0.8c0.8,0.1,1.5,0.2,2.2,0.4
		c0.3,0.1,0.7,0.2,0.8-0.2c0.1-0.4-0.3-0.6-0.6-0.7c-0.4-0.1-0.8-0.2-1.1-0.3c-1.3-0.3-2.6-0.6-3.9-0.8c0.2-0.1,0.4-0.1,0.7-0.1
		c1.5,0.1,3,0.3,4.5,0.4c0.3,0,0.6,0.1,0.7-0.2c0.1-0.3-0.1-0.5-0.3-0.7c-0.4-0.5-1-0.9-1.6-1.1c-1-0.4-2-0.8-3.3-1.2
		c0.9,0,1.5-0.1,2.1,0c2.1,0.5,4.3,0.1,6.4,0.2c1.5,0.1,2.9-0.3,4.3-0.5c0.7-0.1,1.1-0.4,1.1-1.2c0.1-1.2,0.3-2.4,0.3-3.6
		c0-0.8,0.3-1.3,1.2-1.3c1.9,0,3.8,0,5.7,0.1c1.6,0.1,3.1,0.1,4.7,0c1-0.1,1.4-0.6,1.5-1.4c0.4-2.8,0.3-5.6,0.1-8.3
		C76.7,67.3,76.5,66.4,76.1,65.5z M69.5,64.1c-0.1,1.5,1.5,1.7,2.1,2.6c0.1,0.1,0.1,0.3,0.3,0.7c-0.9-0.4-1.6-0.7-2.3-1
		c-0.4-0.1-0.8-0.3-1.1,0.1c-0.3,0.3,0,0.7,0.1,1c0.3,0.8,0.8,1.5,1,2.4c-0.6-0.1-0.8-0.5-1.1-0.8c-0.9-1-1.8-1.8-3.1-2.3
		c-0.4-0.1-0.7-0.3-0.8-0.8c-0.5-2.3-1.2-4.6-2.3-6.7C64.9,60.7,67.3,62.2,69.5,64.1z M52.8,86.6c-1,0-1.8,0-2.6,0
		c-1.9,0-3.8,0-5.7,0.3c-0.3,0.1-1,0-1,0.4c0,0.5,0.6,0.4,0.9,0.4c2.1,0.4,4.2,0.9,6.2,1.8c0.2,0.1,0.5,0.2,0.7,0.6
		c-2.9-0.7-5.9-0.8-8.6-1.8c-0.3-0.1-0.6-0.5-0.8,0c-0.2,0.3,0.2,0.6,0.4,0.8c1.8,1.2,3.8,1.8,5.8,2.4c0.3,0.1,0.6,0.2,0.9,0.3
		c-2.4,0.4-4.8,0.3-6.8-1.3c-0.3-0.3-0.6-0.6-0.9-0.9c-0.9-0.7-0.3-2.5-2-2.7c-1.1-0.1-2.2-0.9-3.3-1.3c-3.2-1.2-6.1-2.7-9-4.5
		c-2.4-1.5-3.2-3.9-3.2-6.6c1.2,3.2,3.6,5,6.5,6.4c3,1.5,6,2.8,9.2,3.8c1.1,0.3,2,0.3,3-0.2c2-0.9,4.2-1,6.6-1
		c-1.3,0.5-2.3,0.9-3.3,1.3c-0.2,0.1-0.6,0.2-0.5,0.6c0.1,0.3,0.4,0.3,0.7,0.3c0.5,0,1.1,0,1.6-0.1C49.1,85.2,51.1,85.6,52.8,86.6z
		 M76.1,76.2c-0.1,0.9-0.4,1.2-1.4,1.2c-3.4-0.1-6.8-0.3-10.3,0.1c-0.7,0.1-0.8-0.3-0.8-0.9c0-2-0.3-3.9-0.8-5.7
		c-0.2-0.6-0.3-1.5-1.1-1.5c-0.8-0.1-1.2,0.7-1.5,1.4c-0.2,0.5-0.3,1-0.5,1.5c-0.1,0.2,0,0.5-0.3,0.5c-0.3,0.1-0.4-0.2-0.6-0.4
		c-1.2-1.5-2.6-2.6-4.1-3.6c-1-0.6-1.9-0.8-3-0.3s-2.3,0.6-3.2,1.4c-0.3,0.2-0.7,0.4-0.4,0.8c0.3,0.3,0.6,0,0.8-0.2
		c3.3-2,4.9-1.8,7.7,0.8c0.2,0.2,0.4,0.3,0.5,0.5c1.1,1.1,2.2,2.2,1.6,4c-0.1,0.4-0.3,1.1,0.2,1.2c0.6,0.1,0.5-0.6,0.5-1.1
		c0.2-1.7,0.6-3.3,1.3-4.9c0.1-0.3,0.2-0.7,0.6-0.7c0.5,0,0.5,0.5,0.5,0.8c0.7,3.7,1,7.4,0.6,11.1c-0.1,0.6-0.4,0.9-0.9,1
		c-2.7,0.5-5.5,0.6-8.2,0.4c-0.4,0-0.9-0.1-1.2-0.3c-2.6-1.1-5.1-1-7.8-0.4c-1.4,0.3-2.7-0.2-4.1-0.4c-3.2-0.5-6.3-1.1-9.3-2.3
		c-4.7-1.9-7-5.4-7.1-10.4c-0.2-6.4,0.6-12.7,2.8-18.6c4-11,6.9-22.2,10.8-33.2c0.8-2.3,1.8-4.5,3-6.7c0.7-1.2,1.5-2.3,2.6-3.2
		c0.9-0.6,1-0.6,1.2,0.4c0.4,2.3-0.1,4.6-0.4,6.8c0,0.3-0.1,0.6-0.1,0.9c0,0.4-0.4,0.9,0,1.2c0.5,0.3,0.5-0.5,0.8-0.6
		s0.6-0.1,0.8-0.1c1.8-0.1,3.5,0.2,5.2,0.8c0.3,0.1,0.9,0.4,1-0.1s-0.4-0.6-0.8-0.7C50,16.9,50,16.6,50.6,16c1.7-1.6,3.7-3,5.8-4.1
		c0.3-0.1,0.7-0.4,1-0.1c0.3,0.2,0.2,0.7,0.1,1c-0.9,2.6-1.8,5.2-3.7,7.3c-0.3,0.3-0.3,0.7-0.2,1.1c0,0.3,0.1,0.6,0.1,0.9
		c0,0.1-0.1,0.1-0.1,0.2h-0.1c-0.4,0-0.9-0.7-1.2-0.1c-0.2,0.5,0.5,0.5,0.8,0.8c0.8,0.6,1.1,1.5,1.4,2.4c0.9,2.7,1.8,5.4,3,8
		c0.3,0.7,0.7,1.3,1,2c-0.5,0.3-1.2-0.4-1.3,0.3c0,0.6,0.7,0.5,1.2,0.6c3,0.8,5.7,2.3,7.5,4.7c2.5,3.4,1.8,6.7-1.8,9.6
		c-3,2.4-6.6,3.3-10.4,3.1c-0.9,0-1.4-0.6-1.8-1.2c-0.6-0.9-1.5-1.3-2.3-2c-0.4-0.4-0.4-0.6-0.2-1c0.4-0.6,0.8-1.2,1.2-1.8
		c0.3-0.4,0.6-0.9,0.2-1.4c-0.5-0.5-1-0.3-1.6,0s-1.1,0.7-1.6,1.2c-1,1.1-2.1,2.2-3,3.4c-0.5,0.6-0.8,0.7-1.5,0.3
		c-3.6-2-5.9-5.1-7.2-9c-0.9-2.8-1.1-5.6-0.7-8.5c0-0.2,0-0.5,0-0.7s-0.1-0.4-0.3-0.4c-0.2-0.1-0.4,0.2-0.4,0.4
		c-0.1,0.2-0.1,0.3-0.1,0.5c-0.2,4,0.1,8,2,11.7c1.5,2.9,3.5,5.2,6.4,6.7c0.8,0.4,0.7,0.7,0.3,1.4c-2.7,3.5-5.7,6.7-9.4,9.2
		c-0.3,0.2-0.8,0.5-0.6,0.9c0.3,0.5,0.7,0,1.1-0.2c2.2-1.3,4.1-3,5.8-4.8c2-2.1,3.6-4.4,5.4-6.7c1.1-1.4,2-2.9,3.5-4
		c0.3-0.2,0.6-0.4,1.1-0.4c-0.4,0.7-0.9,1.4-1.3,2.1c-0.2,0.4-0.5,0.8-0.7,1.2c-0.1,0.2-0.4,0.5-0.2,0.8s0.5,0,0.8-0.1
		c0.2-0.1,0.5-0.4,0.8-0.1c0.1,0.2,0,0.3-0.1,0.4c-0.2,0.2-0.6,0.4-0.4,0.8c0.2,0.3,0.6,0,0.9,0c0.3-0.1,0.7-0.3,1,0
		c0.4,0.3,0,0.5-0.2,0.8c-0.2,0.4,0.1,0.5,0.4,0.5c1.6,0.2,1.6,0.2,1,2c-0.2-0.3,0.1-0.7-0.3-0.8c-0.4-0.1-0.5,0.3-0.6,0.5
		c-0.4,0.5-0.6,1.1-0.7,1.8c-0.9,4.3-3,8.1-5.4,11.6c-0.4,0.5-1.1,1.4-0.5,1.7c0.6,0.4,0.9-0.7,1.2-1.2c2.2-3.1,4.1-6.4,5.1-10.1
		c0.2-0.8,0.7-1.5,1.3-2c0.4-0.3,0.8-0.7,0.8-1.2c0.1-1.1,0.8-1.2,1.7-1.3c1.5-0.2,2.8,0,3.9,1.2c3.8,3.8,5.8,8.3,5.8,13.6
		c0,0.3-0.2,0.9,0.2,0.9c0.5,0.1,0.5-0.5,0.6-0.9c0-0.1,0.1-0.3,0.1-0.4c0.3-1.6,0.4-1.6,1.7-0.5c0.7,0.6,1.4,1.3,2.1,2
		c0.4,0.4,1,1,1.5,0.7c0.6-0.4,0.3-1.1,0.1-1.7c-0.2-0.6-0.5-1.2-0.8-2c1.3,0.6,2.5,1.1,3.2,2.1c0.1,0.2,0.1,0.4,0.4,0.4
		s0.4-0.3,0.4-0.5c0.2-0.9,0.4-1.7,0.6-2.6c0.1-0.4,0.2-0.9,0.7-0.9c0.6,0,0.6,0.5,0.7,0.9C76.2,69.8,76.6,73,76.1,76.2z"/>
	<path d="M42.2,28.3c-0.2,0.6-0.4,1.2-0.3,2c0,0.1,0,0.3,0,0.5c0.1,1.4,1.3,2.8,2.6,3c1.3,0.3,2.5-0.4,3.2-1.8
		c0.3-0.7,0.5-1.4,0.6-2.1c0.2-1.8-1-3.5-2.6-3.9C44.3,25.7,42.9,26.6,42.2,28.3z M44.4,26.7c0.3-0.1,0.6-0.3,0.8,0
		c0.2,0.2,0,0.5-0.1,0.7c-0.3,0.8-0.4,1.6,0.1,2.3c0.6,0.8,1.3,1.1,2.3,0.5c-0.4,2.2-1.4,3.3-2.8,3.2c-1.2-0.1-2.2-1.5-2.3-3.2
		C42.3,28.6,43.2,27.1,44.4,26.7z"/>
	<path d="M53.7,33.8c1.8-1.3,2.1-4.8,0.6-6.4c-0.5-0.5-1.1-0.7-1.7-0.7c-1.4,0-2.2,0.4-2.7,1.5c-0.8,1.7-0.6,3.4,0.3,5
		C51,34.5,52.6,34.7,53.7,33.8z M50.2,28.8c0.3-0.9,1-1.4,2.1-1.5c-0.3,0.8-0.4,1.5-0.1,2.2c0.3,0.8,0.8,1.4,1.8,1.3
		c0.6-0.1,0.6,0.2,0.5,0.6c-0.1,1-1.1,2.1-2,2.2c-0.8,0.1-1.7-0.4-2.2-1.5C49.8,31.1,49.8,30,50.2,28.8z"/>
	<path d="M41.2,17.5c0.3,0.1,0.5-0.2,0.6-0.4c0.2-0.4,0.4-0.8,0.6-1.3c0.3,0.4-0.3,1,0.4,1.1c0.5,0,0.5-0.6,0.6-1
		c0.4-1.5,0.5-3.1,0.8-4.6c0.1-0.3,0.3-0.7-0.1-0.8c-0.5-0.2-0.5,0.3-0.6,0.6c-0.5,1.4-1,2.9-1.7,4.2c-0.2,0.5-0.4,1-0.6,1.5
		C41,17.1,40.9,17.4,41.2,17.5z"/>
	<path d="M52.8,18.6c0.5-0.3,1.1,0.1,1.6-0.3c1.1-1.1,1.4-2.7,2.2-4c0-0.1-0.1-0.2-0.1-0.2c-0.2-0.1-0.4,0-0.6,0.1
		c-1.3,1.1-2.1,2.5-3.1,3.8C52.6,18.2,52.6,18.7,52.8,18.6z"/>
</g>
</svg>
