<?xml version="1.0" encoding="utf-8"?>
<!-- Generator: Adobe Illustrator 19.2.0, SVG Export Plug-In . SVG Version: 6.00 Build 0)  -->
<svg version="1.1" id="Capa_1" xmlns="http://www.w3.org/2000/svg" xmlns:xlink="http://www.w3.org/1999/xlink" x="0px" y="0px"
	 viewBox="0 0 100 100" enable-background="new 0 0 100 100" xml:space="preserve">
<g id="Capa_2">
</g>
<g>
	<path fill="#FFFFFF" d="M53.1,90.8c0.3-0.8,1.2-1.9,0.6-2.4c-0.6-0.6-1.7,0.2-2.7,0.3c-0.2,0-0.3,0.1-0.5,0.1
		c-1.7,0.3-2.1,0-2.3-1.7c-0.1-2.1,0-4.2,0-6.4c-1.1,2.9-0.2,6.3-2.5,8.9c-0.1,0.1,0,0.5,0,0.8c0.2,1,0.4,2.1,0.6,3.1
		c0.1,0.4,0.1,0.9,0.7,0.6c2.1-1,4.5-1,7.1-1.7C53.4,92,52.7,91.7,53.1,90.8z"/>
	<path fill="#FFFFFF" d="M42.3,90.2c-0.2-0.8-0.6-1.2-1.5-1.3c-1.6-0.1-3.1-0.3-4.7-0.4c-2.1-0.2-2.1-0.1-1.6,1.9
		c0.2,0.8,0.5,1.6-0.6,2.3c2,0.9,3.8,1.1,5.5,1.4c3.9,0.6,4,0.5,3-3.4C42.3,90.5,42.3,90.4,42.3,90.2z"/>
	<path fill="#FFFFFF" d="M36.6,95.7c-2,0.9-4.1,1.5-6.2,2.3c-0.4,0.1-0.9,0.4-0.8,0.8c0.2,0.6,0.8,0.4,1.2,0.3
		c3.5-0.6,6.6-2.1,9.9-3.7C39.2,94.6,38,95.1,36.6,95.7z"/>
	<path fill="#FFFFFF" d="M26.6,97.3c3.6,0,6.7-1.7,9.9-2.9C33.1,95.1,29.6,95.5,26.6,97.3z"/>
	<path fill="#FFFFFF" d="M41.5,81c-1.3,0.1-1.7,1.1-1.7,2.2s0.7,1.7,1.6,1.7c1.2,0,2.2-1.1,2.2-2C43.5,81.9,42.5,80.9,41.5,81z"/>
	<path fill="#FFFFFF" d="M42.4,71.6c-1-0.1-2,0.8-2.1,1.9c0,1.2,0.6,2,1.8,2s1.9-0.7,2.1-1.9C44.2,72.4,43.6,71.7,42.4,71.6z"/>
	<path fill="#FFFFFF" d="M59.1,97.7c-2.4-0.9-4.9-1.5-7.3-2.3c-0.6-0.2-1.5-0.2-1.5-1.3c-0.7,0.1-1.5,0.1-2.4,0.8
		C51.6,96.6,55.1,98.2,59.1,97.7z"/>
	<path fill="#FFFFFF" d="M46.9,42.8c0.9,0,1.5-0.4,1.5-1.4c0-1.1-0.6-1.6-1.7-1.6c-0.9,0-1.7,0.4-1.7,1.4
		C45.1,42.4,45.9,42.8,46.9,42.8z"/>
	<path fill="#FFFFFF" d="M49.7,25.1c2.9,0,5.8-0.3,8.4-1.8c0.6-0.3,1.3-0.3,2-0.4c3.2-0.3,6.4-0.7,9.5-1c0.4,0,1,0,0.8-0.8
		c-0.3-0.9-2.4-2.3-3.2-1.9c-1.9,1-3.6,0.2-5.2-0.4c-1.1-0.4-2.1-1.5-2-2.9c0.1-1.3-1.1-2.9,0.9-3.7c0,0,0-0.2,0-0.3
		c-0.1-0.9,0.4-1.4,1.2-1.6c1.3-0.3,1.1-1,0.7-1.9c-0.6-1-1.2-2-1.8-3c-1.4-2.2-3.5-2.3-5.2-0.2c-2.6,3.2-4.7,6.7-6.4,10.4
		c-1.7,3.8-3.5,7.4-7.7,9.1C44.4,25.7,47.1,25.2,49.7,25.1z"/>
	<path fill="#FFFFFF" d="M64.1,24.4c-1.3,0.4-1.1,1.5-1.1,2.5c0,0.9,0.4,1.8,1.4,2s1.6-0.6,1.4-1.7c-0.1-0.4-0.1-0.9-0.1-1.1
		C65.8,24.4,65.4,24.1,64.1,24.4z"/>
	<path fill="#FFFFFF" d="M64.5,12.6c-0.8,0.5-1-0.8-1.6-1.1c-0.3-0.2-0.7-0.4-1,0c-0.2,0.3,0,0.6,0.2,0.8c0.3,0.4,1,0.4,1.2,1
		c-0.5,0.5-1,0.1-1.4,0.1c-0.5,0-1.3-0.2-1.3,0.5c0,0.8,0.7,0.6,1.2,0.5c0.3,0,0.7-0.2,0.8,0.2c0.2,0.5-0.3,0.5-0.7,0.7
		c-0.2,0.1-0.4,0.1-0.6,0.2c-0.3,0.2-0.7,0.4-0.5,0.8s0.5,0.1,0.8,0c0.4-0.2,0.7-0.9,1.2-0.3c0.3,0.4-0.3,0.7-0.6,1
		c-0.3,0.3-0.6,0.6-0.2,0.9c0.4,0.3,0.6-0.1,0.8-0.4s0.3-1,0.8-0.8c0.7,0.2,0.1,0.8,0.1,1.2c0,0.2,0,0.4,0.3,0.5
		c0.8-0.2,0.4-1.4,1.3-1.6c0.6,0.5-0.1,1.4,0.5,1.8c0.9-0.4,0-1.4,0.6-1.8c1-0.6,0.5,1.3,1.4,1.1c-0.1-1.9-0.7-2.6-1.7-2.1
		c-0.8,0.4-1.5,0.4-1.9-0.4c-0.4-0.8,0-1.4,0.7-1.8c0.4-0.2,0.9-0.2,0.5-0.8c-0.4-0.8-0.8-1.6-1.6-2.4c-0.1,0.3-0.2,0.5-0.2,0.6
		C63.9,11.6,65.2,12.2,64.5,12.6z"/>
	<path fill="#FFFFFF" d="M46.5,26.6c-0.3-0.3-0.7-0.4-1-0.2c-0.3,0.3-0.2,0.8,0,1c0.6,0.4,0.7,1,1,1.5c1.3,2.5,2.6,5,4.5,7.2
		c0.8,0.9,2.1,1.7,2.1,3.3c1.2-1.2,0.9-2.1,0-3.3c-2.3-2.7-4.7-5.5-6.3-8.8C46.8,27,46.6,26.8,46.5,26.6z"/>
	<path fill="#FFFFFF" d="M35.8,32.9c0.6,0.4,1.2,0.6,1.8,0.9c0.4,0.2,0.8,0.2,1.1-0.2c1.3-1.7,2.5-3.5,3.8-5.2
		c0.1-0.2,0.1-0.4,0.1-0.5c0-1-0.6-1.7-1.1-1.5c-1.5,0.7-3,1.6-4,2.9c-0.4,0.6-0.5,0.9-1.3,0.9c-0.9,0-1.7,0.7-1.9,1.4
		C34.1,32.5,35.2,32.6,35.8,32.9z"/>
	<path fill="#FFFFFF" d="M53.3,26.2c0.3,4.3,0.9,8.5,2.4,12.5C55.2,34.5,54,30.4,53.3,26.2z"/>
	<path fill="#FFFFFF" d="M53.4,34.5c-0.5-2.6-0.9-5.3-1.4-7.9c-0.1-0.5-0.5-0.6-1-0.6c-0.9,0.1-1.9,0.1-2.8,0.2
		c-0.5,0-0.7,0.2-0.5,0.7C49.1,29.8,51,32.3,53.4,34.5z"/>
	<path fill="#FFFFFF" d="M50.3,94.2c3,0.8,6,1.6,9,2.5c0.7,0.2,1.4,0.5,2.4-0.1c-2.6-1-5.1-1.4-7.5-2.1C53,94.1,51.7,93.5,50.3,94.2
		z"/>
	<path fill="#FFFFFF" d="M56.5,78.9c-1.3,0-1.7,0.8-1.8,1.9c0,1,0.4,1.8,1.5,1.8s1.9-0.6,1.9-1.3C58.1,79.7,57.7,78.9,56.5,78.9z"/>
	<path fill="#FFFFFF" d="M55.7,73c1,0.1,2.1-1,2-2s-0.6-1.6-1.8-1.7c-1.1,0.1-1.7,0.8-1.8,1.9C54.1,72.4,54.7,73,55.7,73z"/>
	<path fill="#FFFFFF" d="M64,57.4c-1.2,1-2.4,1.2-3.7,1.2c-2.9-0.1-5.9-0.4-8.7-1c-1.2-0.2-2.2-0.1-3.4,0.4
		c-2.6,1.2-5.5,1.8-8.2,2.6c-1.7,0.5-3.2,0-4.5-1.1c-2.2-1.7-3.9-3.9-5.9-5.9c-0.2-0.2-0.4-0.5-0.2-1c0.7,0.1,0.9,0.6,1.3,0.9
		c1.5,1.7,3.1,3.4,4.8,5c1.1,1,2.4,1.6,3.9,1.3c5.6-1.2,10.9-3.3,16-6.1c0.9-0.5,1-1.2,0.6-2.1c-0.6-1.3-1.2-2.7-1.7-4.1
		c-0.4-1.2-0.9-1.3-2-0.8c-2.6,1.2-5.2,2.2-7.9,3c-2.1,0.6-4.2,1.1-5,3.5c-0.2,0.5-0.7,1-1.4,0.7c-0.7-0.4-0.6-1-0.4-1.7
		c0.3-0.7,0.7-1.4,0.7-2.6c-0.6,1-1,1.6-1.5,2.2c-0.3,0.4-0.6,0.9-1.1,0.8c-1-0.2-0.8-2.2-2.4-1.9c-0.2,0-0.3-0.7-0.2-1.1
		c0.3-0.9,0.8-1.7-0.3-2.6c-0.3-0.3,0-0.9,0.2-1.3c0.6-1,1.4-1.9,2.5-2.3c1.2-0.4,2-0.9,1.9-2.4c0-0.6,0.4-1.3,1.1-1.3
		c0.7,0,1,0.6,1.1,1.2c0.3,1.8,1.6,2.7,3.1,3.5c1.6,0.8,3.5,1.1,5,2.2c0.8,0.6,1.5,0.5,2.3,0.1c1.6-0.7,3-1.6,4.9-1.4
		c0.6,0.1,1.4-0.3,1.7-1.1c0.4-0.9-0.4-1.2-0.8-1.7c-0.8-0.9-1.5-1.8-1.5-3.4c-0.6,1.1-1,1.7-1.4,2.4c-0.4,0.6-0.9,0.9-1.4,0.2
		c-1.8-2.4-3.9-4.7-5.4-7.3c-0.8-1.4-1.5-2.9-2.3-4.3c-0.2-0.3-0.6-1.3-1.1-0.5c-1.5,2.1-3.7,3.7-3.8,6.6c0,0.8-0.3,2-1.2,1.9
		c-1.6-0.1-3.4-0.3-4.8-1c-1.5-0.8-2-0.1-2.6,0.8c-1.8,2.7-3.3,5.7-4.4,8.7c-3.4,8.6-6.3,17.4-7,26.8c-0.2,2.6-0.5,5.2-0.6,7.8
		c-0.1,1.3,0.2,2.4,1.7,2.9c7.9,2.7,16,3.9,24.2,4.1c1.2,0,1.8-0.4,2-1.6c0.4-3.5,1-7.1,1.5-10.6c0.2-1.5,0.3-2.9,0.4-4.4
		c0-0.4,0.1-1,0.6-1c0.6,0,0.4,0.6,0.4,1c0,0.3,0,0.5,0,0.8c-0.2,4.7-0.1,9.3,0,14c0,1.4,0.6,1.7,1.8,1.4c1.4-0.3,2.8-0.6,4.1-0.9
		c3.2-0.8,6.7-0.9,9.3-3.4c0.8-0.8,1.4-1.5,1.3-2.6c-0.4-5.5-0.7-11.1-1-16.6C64.5,62,64.2,59.8,64,57.4z M46.8,38.8
		c1.5,0,2.6,1.2,2.6,2.8c0,1.3-1,2.1-2.4,2.2c-1.6,0-2.8-1-2.8-2.5C44.2,39.8,45.4,38.7,46.8,38.8z M41.4,86c-1.3,0-2.6-1.4-2.6-2.9
		c0-1.7,1.3-3.1,2.8-3.1c1.4,0,2.7,1.5,2.7,2.9C44.4,84.5,42.9,86,41.4,86z M42.1,76.4c-1.3,0-2.7-1.5-2.6-2.8c0-1.5,1.4-3,2.8-3
		c1.4,0,2.8,1.4,2.8,2.9C45.1,75.1,43.7,76.5,42.1,76.4z M42.9,67.1c-1.4,0-2.7-1.4-2.7-2.8c0-1.6,1.3-2.9,2.7-2.9s2.7,1.4,2.7,2.8
		C45.6,65.7,44.3,67.1,42.9,67.1z M55.3,59.8c1.4-0.1,2.7,1.3,2.7,2.9c0,1.3-1.2,2.6-2.6,2.6c-1.3,0-2.5-1.2-2.6-2.6
		C52.7,61.2,53.9,59.9,55.3,59.8z M56.1,68.4c1.3,0.1,2.4,1.4,2.4,2.9s-1.3,2.8-2.8,2.8c-1.3,0-2.5-1.4-2.5-2.8
		C53.2,69.7,54.7,68.3,56.1,68.4z M56.2,83.5c-1.4,0-2.4-1.2-2.5-2.7c0-1.6,1.2-3,2.6-3c1.5,0,2.8,1.4,2.8,3
		C59.1,82.2,57.7,83.6,56.2,83.5z"/>
	<path fill="#FFFFFF" d="M55.7,49.1C55.7,49.1,55.7,49.2,55.7,49.1c0.3,0.7,0.6,1.1,1.4,1c0.7-0.1,1.1-0.4,1.3-1.1
		c0.2-1.1,0.4-2.1,0.6-3.1c0.1-0.6,0.2-1-0.6-1C55.5,45.1,54.5,46.6,55.7,49.1z"/>
	<path fill="#FFFFFF" d="M60.2,40.3c-0.3-0.1-0.6,0-0.8,0.3c-0.7,1-1.4,2-1.5,3.4c0.8,0,1.1-0.4,1.2-1c0.1-0.4,0-1,0.5-1
		c0.6,0.1,0.5,0.7,0.4,1.2c-0.3,1.8-0.5,3.5-0.9,5.3c-0.2,1.2-0.1,1.8,1.3,1.8c0.6,0,1.4-0.1,1.7,0.7c-0.3,0.6-1,0.1-1.4,0.6
		c0.6,0.3,1.1,0.6,1.6,0.9c0.3,0.2,0.5,0.6,0,0.9c-1,0.7-4-0.2-4.2-1.5c-0.1-0.8-0.5-0.5-0.9-0.5c-0.6,0-0.7,0.4-0.4,0.9
		c0.6,1.1-0.1,1.7-0.9,2.1c-1.4,0.8-2.8,1.6-4.6,2.5c3.6,0.7,7,1.1,10.4,0.9c0.7,0,1.2-0.4,1.4-1.1c1.6-4.3,2.8-8.6,1-13.2
		C63.5,41.1,62,40.7,60.2,40.3z"/>
	<path fill="#FFFFFF" d="M77.1,28.1c-2.4,0.1-4.5-0.9-6.3-2.5c-0.6-0.6-1.3-1.2-2.2-1.9c-0.4,1.3-0.1,2.6-0.7,3.7
		c-0.8,1.6-2.5,2.7-3.9,2.3c-1.4-0.4-2.2-1.9-2-3.8c0-0.3,0.3-0.7-0.2-1c-1.5-0.8,0.3-0.7,0.3-1.1c-2.1,0-4.1,0.6-6.1,1.3
		c-1.5,0.5-1.7,1.3-1.5,2.6c0.6,3,1.2,6,1.8,8.9c0.2,0.8,0.5,1.4,1.3,1.7c5.7,2.4,11.6,3.8,17.8,2.4c3-0.7,5.4-2.5,6.4-5.7
		C82.8,32.1,80.7,28,77.1,28.1z"/>
	<path fill="#FFFFFF" d="M38.2,52.7c1-0.8,1.6-1.9,2.2-3c0.3-0.5,0.5-1.1,1.3-0.4c0.6,0.4,1.4,0,1.5-0.6c0.2-1,1.5-2.3,0.2-2.9
		c-1.6-0.9-3.1-2.3-5.3-2.2c-1.8,0.1-3.8,1.2-4.2,2.7c0.5-0.4,1-0.7,1.5-1c0.6-0.3,1.4-1.2,1.9-0.7c0.6,0.7-0.6,1.1-1,1.6
		c-0.8,1.1-2.2,1.9-2.4,3.8c1.1-1.3,2-2.3,2.9-3.4c0.3-0.3,0.7-0.8,1.2-0.4c0.5,0.4,0,0.9-0.3,1.2c-0.9,1.2-1.9,2.4-2,4
		c0.9-1.2,1.7-2.4,2.6-3.5c0.3-0.3,0.7-0.8,1.2-0.5s0.1,0.8,0,1.1C39.2,50,38.7,51.4,38.2,52.7z"/>
	<path fill="#FFFFFF" d="M42.8,62.5c-1.2,0-1.6,0.9-1.6,1.9c0,1.1,0.5,1.8,1.7,1.8c1.2-0.1,1.8-0.9,1.8-1.9
		C44.8,63,44,62.5,42.8,62.5z"/>
	<path fill="#FFFFFF" d="M55.4,64.4c1,0,1.7-0.6,1.8-1.8c-0.2-1-0.7-1.7-1.8-1.7s-1.7,0.7-1.7,1.7C53.7,63.6,54.3,64.4,55.4,64.4z"
		/>
	<path d="M50.3,94.2L50.3,94.2L50.3,94.2L50.3,94.2L50.3,94.2z"/>
	<path d="M76.9,27.2c-3.3-0.1-5.3-1.9-7.6-4.2c0.8-0.1,1.3-0.1,1.7-0.3c0.9-0.2,1.3-0.9,0.5-1.5c-2.2-1.6-2.7-4.1-3.7-6.4
		C66.1,10.9,63.1,7.7,61,4c-0.3-0.5-0.8-0.9-1.3-1.4c-1-1-1.9-0.9-2.8,0.2c-3.8,4.1-6.7,8.8-8.8,13.9c-1.4,3.4-3.6,5.7-6.6,7.4
		c-0.5,0.3-1.1,0.6-1.1,1.2c0.1,0.8-0.5,1.1-1,1.4c-3.1,1.9-5.6,4.6-8.9,6.1c-1.6,0.7-1.6,1.7-0.7,3.1c0.4,0.5,0.3,0.9,0,1.4
		c-3.4,5.9-6,12.1-8,18.6c-2.6,8.3-3.9,16.7-4.2,25.4c-0.1,2.8,0.1,3,2.8,3.9c3.6,1.2,7.3,2.3,11.1,2.9c0.8,0.1,1.5,0.3,1.8,1.4
		c0.9,2.7-0.4,3.3-2.5,3.7c-1.7,0.4-3.4,0.7-5.1,1.1c-0.7,0.2-1.4,0.5-1.9,1c-0.3,0.3-0.6,0.6-0.5,1.1c0.2,0.5,0.6,0.5,1,0.5
		c0.3,0,0.9-0.3,0.9,0.2c-0.1,2,1.3,1.1,2.2,1.2c0.4,0.1,1-0.6,1.1,0.3c0.1,1.5,1.1,1.4,2.2,1.4c1.4-0.1,2.7-0.5,3.9-1
		c2.9-1.2,5.7-2.4,8.6-3.5c0.8-0.3,0.9-0.9,0.8-1.6c-0.2-1.1-0.6-2.1-0.8-3.2c-0.1-0.5-0.3-1.1,0.5-1.3c0.7-0.1,1,0.3,1.1,0.9
		c0.3,1.3,0.5,2.6,0.7,3.9c0.1,0.6,0.2,1.1,0.9,1.4c2.7,0.9,5.2,2.1,8,2.9c3.3,0.9,6.4,1,8.9-1.8c0.3-0.4,1-0.5,0.9-1.1
		C64,95,63.5,94.9,63,94.7c-2.1-0.8-4.2-1.1-6.4-1.6c-1.9-0.4-2.4-1.5-2.1-3.3c0.4-1.9,1.9-2.4,3.2-2.4c3.2,0,5.4-1.7,7.8-3.4
		c0.8-0.5,1.1-1.2,1.1-2.1c-0.1-7.8-0.8-15.6-1.5-23.4c-0.1-1.6-0.2-3.1,0.2-4.7c1-3.7,1.4-7.4-0.3-11.1c-0.5-1-0.2-1.2,0.8-1
		c2.4,0.5,4.8,0.6,7.2,0.4c4.1-0.4,7.5-1.9,9.3-5.9C84.2,31.7,81.6,27.3,76.9,27.2z M64,10.9c0-0.1,0.1-0.3,0.2-0.6
		c0.8,0.8,1.1,1.6,1.6,2.4c0.3,0.6-0.2,0.7-0.5,0.8c-0.8,0.4-1.1,1-0.7,1.8c0.4,0.8,1.1,0.8,1.9,0.4c1-0.5,1.6,0.3,1.7,2.1
		c-0.9,0.2-0.4-1.6-1.4-1.1c-0.6,0.3,0.3,1.4-0.6,1.8c-0.6-0.5,0-1.3-0.5-1.8c-0.9,0.2-0.5,1.4-1.3,1.6C64,18.2,64,18,64,17.8
		c0-0.4,0.6-1-0.1-1.2c-0.5-0.2-0.6,0.5-0.8,0.8s-0.4,0.7-0.8,0.4c-0.3-0.3,0-0.7,0.2-0.9c0.3-0.3,0.9-0.6,0.6-1
		c-0.4-0.6-0.8,0.1-1.2,0.3c-0.3,0.1-0.6,0.4-0.8,0c-0.3-0.4,0.2-0.6,0.5-0.8c0.2-0.1,0.4-0.1,0.6-0.2c0.3-0.1,0.8-0.2,0.7-0.7
		c-0.1-0.4-0.5-0.2-0.8-0.2c-0.5,0.1-1.2,0.3-1.2-0.5c0-0.7,0.8-0.5,1.3-0.5c0.4,0,0.9,0.4,1.4-0.1c-0.2-0.7-0.9-0.6-1.2-1
		c-0.2-0.2-0.5-0.5-0.2-0.8c0.3-0.4,0.6-0.1,1,0c0.6,0.3,0.8,1.7,1.6,1.1C65.2,12.2,63.9,11.6,64,10.9z M49.4,15.8
		c1.7-3.7,3.8-7.2,6.4-10.4c1.7-2.1,3.8-2,5.2,0.2c0.6,1,1.2,2,1.8,3c0.5,0.8,0.6,1.6-0.7,1.9C61.4,10.6,60.8,11,61,12
		c0,0.1,0,0.3,0,0.3c-2,0.8-0.8,2.4-0.9,3.7c-0.1,1.4,0.9,2.5,2,2.9c1.6,0.5,3.3,1.4,5.2,0.4c0.7-0.4,2.9,1.1,3.2,1.9
		c0.2,0.8-0.4,0.8-0.8,0.8c-3.2,0.4-6.4,0.7-9.5,1c-0.7,0.1-1.4,0.1-2,0.4c-2.6,1.5-5.5,1.7-8.4,1.8c-2.6,0-5.3,0.6-8.1-0.2
		C45.9,23.2,47.7,19.6,49.4,15.8z M65.8,27.2c0.2,1.1-0.3,1.8-1.4,1.7c-1.1-0.2-1.4-1-1.4-2s-0.2-2.1,1.1-2.5c1.3-0.4,1.7,0,1.6,1.7
		C65.7,26.3,65.7,26.8,65.8,27.2z M53.1,36.1c1,1.1,1.2,2,0,3.3c0-1.6-1.3-2.3-2.1-3.3c-1.9-2.2-3.1-4.7-4.5-7.2
		c-0.3-0.5-0.5-1.1-1-1.5c-0.2-0.2-0.4-0.7,0-1c0.3-0.2,0.7-0.1,1,0.2c0.2,0.2,0.3,0.4,0.4,0.7C48.4,30.6,50.8,33.3,53.1,36.1z
		 M48.2,26.2c0.9-0.1,1.9-0.2,2.8-0.2c0.5,0,0.9,0.1,1,0.6c0.5,2.6,1,5.3,1.4,7.9c-2.5-2.2-4.3-4.7-5.7-7.6
		C47.5,26.4,47.7,26.3,48.2,26.2z M53.3,26.2c0.7,4.2,1.9,8.3,2.4,12.5C54.1,34.7,53.5,30.5,53.3,26.2z M34.4,31.7
		c0.2-0.7,1.1-1.4,1.9-1.4c0.8,0,0.9-0.4,1.3-0.9c1-1.4,2.5-2.2,4-2.9c0.5-0.3,1.1,0.5,1.1,1.5c0,0.1,0,0.3-0.1,0.5
		c-1.2,1.7-2.5,3.5-3.8,5.2C38.4,34,38,34,37.6,33.8c-0.6-0.3-1.3-0.5-1.8-0.9C35.2,32.6,34.1,32.5,34.4,31.7z M26.6,97.3
		c3.1-1.8,6.5-2.2,9.9-2.9C33.3,95.6,30.1,97.4,26.6,97.3z M30.8,99.1c-0.4,0.1-1,0.3-1.2-0.3c-0.1-0.5,0.4-0.7,0.8-0.8
		c2.1-0.8,4.2-1.4,6.2-2.3c1.3-0.6,2.6-1,4.1-0.3C37.5,97,34.3,98.4,30.8,99.1z M39.3,94.1c-1.7-0.3-3.5-0.5-5.5-1.4
		c1.1-0.6,0.8-1.4,0.6-2.3c-0.5-2-0.5-2,1.6-1.9c1.6,0.1,3.1,0.3,4.7,0.4c0.9,0,1.4,0.5,1.5,1.3c0,0.2,0.1,0.3,0.1,0.5
		C43.3,94.6,43.3,94.7,39.3,94.1z M46.3,93.5c-0.2-1-0.4-2.1-0.6-3.1c0-0.3-0.1-0.6,0-0.8c2.2-2.6,1.3-6,2.5-8.9
		c0,2.1-0.1,4.3,0,6.4c0.1,1.7,0.6,2,2.3,1.7c0.2,0,0.3-0.1,0.5-0.1c0.9-0.1,2.1-0.9,2.7-0.3c0.6,0.5-0.3,1.6-0.6,2.4
		c-0.4,0.9,0.3,1.2,1.1,1.7c-2.6,0.8-4.9,0.7-7.1,1.7C46.4,94.5,46.4,94,46.3,93.5z M54.3,94.5c2.4,0.7,4.9,1,7.5,2.1
		c-1,0.5-1.7,0.3-2.4,0.1c-3-0.8-6-1.6-9-2.5l0,0l0,0c-0.1,1.1,0.8,1.1,1.5,1.3c2.4,0.7,4.9,1.4,7.3,2.3c-4,0.5-7.5-1.2-11.2-2.7
		c0.9-0.8,1.7-0.7,2.4-0.8l0,0l0,0C51.7,93.5,53,94.1,54.3,94.5z M65.7,80.9c0.1,1.2-0.4,1.8-1.3,2.6c-2.7,2.5-6.1,2.6-9.3,3.4
		c-1.4,0.3-2.8,0.6-4.1,0.9c-1.2,0.3-1.8,0-1.8-1.4c-0.1-4.7-0.2-9.3,0-14c0-0.3,0-0.5,0-0.8c0-0.4,0.2-1-0.4-1
		c-0.5,0-0.5,0.6-0.6,1C48,73.1,48,74.5,47.8,76c-0.5,3.5-1,7.1-1.5,10.6c-0.2,1.3-0.8,1.7-2,1.6c-8.3-0.1-16.4-1.3-24.3-4
		c-1.5-0.5-1.8-1.6-1.7-2.9c0.2-2.6,0.5-5.2,0.6-7.8c0.7-9.4,3.6-18.2,7-26.8c1.2-3,2.7-5.9,4.4-8.7c0.6-0.9,1.1-1.6,2.6-0.8
		c1.4,0.8,3.2,0.9,4.8,1c1,0.1,1.2-1,1.2-1.9c0-2.9,2.3-4.6,3.8-6.6c0.5-0.7,0.9,0.2,1.1,0.5c0.8,1.4,1.5,2.9,2.3,4.3
		c1.5,2.7,3.5,4.9,5.4,7.3c0.5,0.6,1,0.4,1.4-0.2c0.4-0.7,0.8-1.4,1.4-2.4c0.1,1.6,0.7,2.5,1.5,3.4c0.4,0.5,1.2,0.8,0.8,1.7
		c-0.3,0.8-1.1,1.2-1.7,1.1c-1.9-0.2-3.3,0.8-4.9,1.4c-0.8,0.4-1.6,0.5-2.3-0.1c-1.5-1.1-3.3-1.4-5-2.2c-1.5-0.8-2.8-1.7-3.1-3.5
		c-0.1-0.6-0.4-1.2-1.1-1.2c-0.7,0-1.2,0.7-1.1,1.3c0.1,1.5-0.7,2-1.9,2.4c-1.1,0.4-1.9,1.2-2.5,2.3c-0.2,0.4-0.5,1.1-0.2,1.3
		c1.1,0.8,0.6,1.7,0.3,2.6c-0.2,0.4,0,1.2,0.2,1.1c1.6-0.3,1.4,1.7,2.4,1.9c0.5,0.1,0.8-0.4,1.1-0.8c0.4-0.6,0.9-1.3,1.5-2.2
		c0,1.2-0.5,1.9-0.7,2.6c-0.2,0.6-0.3,1.3,0.4,1.7c0.7,0.3,1.2-0.1,1.4-0.7c0.9-2.4,2.9-2.9,5-3.5c2.7-0.8,5.4-1.8,7.9-3
		c1-0.5,1.6-0.4,2,0.8c0.4,1.4,1.1,2.7,1.7,4.1c0.4,0.9,0.4,1.6-0.6,2.1c-5,2.8-10.3,4.9-16,6.1c-1.5,0.3-2.7-0.3-3.9-1.3
		c-1.7-1.5-3.3-3.2-4.8-5c-0.3-0.4-0.6-0.9-1.3-0.9c-0.2,0.5,0,0.8,0.2,1c1.9,2,3.7,4.2,5.9,5.9c1.4,1.1,2.8,1.6,4.5,1.1
		c2.8-0.8,5.6-1.4,8.2-2.6c1.1-0.5,2.2-0.6,3.4-0.4c2.9,0.6,5.8,0.9,8.7,1c1.3,0,2.5-0.1,3.7-1.2c0.2,2.4,0.5,4.6,0.6,6.8
		C65,69.8,65.3,75.3,65.7,80.9z M58.2,44.9c0.8-0.1,0.7,0.4,0.6,1c-0.2,1-0.4,2.1-0.6,3.1c-0.1,0.7-0.5,1.1-1.3,1.1
		c-0.7,0.1-1-0.4-1.3-0.9c0,0,0-0.1-0.1-0.1C54.5,46.6,55.5,45.1,58.2,44.9z M39.6,47.5c-0.5-0.3-0.9,0.1-1.2,0.5
		c-0.9,1.1-1.8,2.3-2.6,3.5c0.1-1.7,1.1-2.8,2-4c0.3-0.4,0.8-0.8,0.3-1.2s-0.9,0.1-1.2,0.4c-0.9,1-1.8,2.1-2.9,3.4
		c0.2-1.9,1.5-2.6,2.4-3.8c0.4-0.5,1.6-0.9,1-1.6c-0.5-0.5-1.3,0.4-1.9,0.7c-0.5,0.3-1,0.6-1.5,1c0.3-1.6,2.3-2.6,4.2-2.7
		c2.2-0.2,3.6,1.3,5.3,2.2c1.2,0.7,0,2-0.2,2.9c-0.1,0.6-0.9,1.1-1.5,0.6c-0.8-0.6-1-0.1-1.3,0.4c-0.6,1.1-1.2,2.2-2.2,3
		c0.5-1.4,1-2.7,1.5-4.1C39.8,48.3,40.1,47.8,39.6,47.5z M63.3,56.5c-0.2,0.6-0.7,1-1.4,1.1c-3.4,0.2-6.8-0.2-10.4-0.9
		c1.7-1,3.2-1.7,4.6-2.5c0.8-0.5,1.5-1,0.9-2.1c-0.2-0.5-0.2-0.9,0.4-0.9c0.3,0,0.7-0.3,0.9,0.5c0.2,1.3,3.2,2.2,4.2,1.5
		c0.4-0.3,0.3-0.6,0-0.9c-0.5-0.3-1-0.6-1.6-0.9c0.3-0.5,1.1,0,1.4-0.6c-0.3-0.7-1.1-0.7-1.7-0.7c-1.4,0-1.5-0.6-1.3-1.8
		c0.4-1.7,0.6-3.5,0.9-5.3c0.1-0.4,0.2-1.1-0.4-1.2c-0.5-0.1-0.5,0.6-0.5,1c-0.1,0.7-0.4,1.1-1.2,1c0.1-1.3,0.8-2.3,1.5-3.4
		c0.2-0.3,0.5-0.4,0.8-0.3c1.8,0.5,3.3,0.8,4.1,3C66.1,48,64.9,52.2,63.3,56.5z M81.8,35c-1,3.2-3.4,5-6.4,5.7
		c-6.2,1.3-12.1,0-17.8-2.4c-0.7-0.3-1.1-0.9-1.3-1.7c-0.6-3-1.2-6-1.8-8.9c-0.3-1.3,0-2.1,1.5-2.6c2-0.7,4-1.3,6.1-1.3
		c0,0.4-1.8,0.3-0.3,1.1c0.5,0.3,0.2,0.6,0.2,1c-0.2,2,0.6,3.5,2,3.8c1.3,0.4,3.1-0.7,3.9-2.3c0.6-1.1,0.3-2.3,0.7-3.7
		c0.9,0.7,1.6,1.3,2.2,1.9c1.8,1.7,3.9,2.6,6.3,2.5C80.7,28,82.8,32.1,81.8,35z"/>
	<path d="M56.4,77.8c-1.4,0-2.6,1.5-2.6,3s1.1,2.7,2.5,2.7c1.5,0,2.9-1.3,2.9-2.7C59.2,79.2,57.9,77.8,56.4,77.8z M56.3,82.6
		c-1.1,0-1.5-0.8-1.5-1.8c0-1.1,0.5-2,1.8-1.9c1.2,0,1.6,0.8,1.6,2.4C58.2,82,57.4,82.6,56.3,82.6z"/>
	<path d="M41.7,80c-1.5,0-2.8,1.4-2.8,3.1c0,1.4,1.2,2.8,2.6,2.9c1.5,0.1,3-1.5,3-3C44.4,81.5,43.1,80,41.7,80z M41.4,85
		c-0.9-0.1-1.7-0.6-1.6-1.7c0-1.1,0.4-2.1,1.7-2.2c1-0.1,2,0.9,2.1,1.9C43.6,83.9,42.6,85,41.4,85z"/>
	<path d="M55.7,74c1.5,0,2.8-1.3,2.8-2.8s-1.1-2.8-2.4-2.9c-1.5-0.1-2.9,1.4-3,2.9C53.2,72.6,54.4,74,55.7,74z M55.9,69.4
		c1.1,0,1.7,0.7,1.8,1.7s-1,2.1-2,2c-1.1-0.1-1.6-0.7-1.6-1.7C54.2,70.1,54.8,69.5,55.9,69.4z"/>
	<path d="M43,61.5c-1.5,0-2.7,1.3-2.7,2.9c0,1.4,1.3,2.8,2.7,2.8s2.7-1.4,2.8-2.9C45.7,62.9,44.3,61.5,43,61.5z M43,66.1
		c-1.2,0-1.7-0.7-1.7-1.8c0-1,0.3-1.9,1.6-1.9c1.1,0,2,0.5,2,1.7C44.8,65.3,44.2,66.1,43,66.1z"/>
	<path d="M42.3,70.6c-1.4,0-2.8,1.5-2.8,3c0,1.3,1.3,2.8,2.6,2.8c1.6,0.1,3-1.3,3-3C45,72,43.7,70.6,42.3,70.6z M42.1,75.5
		c-1.2,0-1.8-0.8-1.8-2c0-1.1,1-2,2.1-1.9c1.2,0.1,1.7,0.9,1.8,2C44,74.8,43.3,75.5,42.1,75.5z"/>
	<path d="M55.4,65.4c1.4,0,2.6-1.3,2.6-2.6c0-1.6-1.3-3-2.7-2.9s-2.6,1.4-2.5,2.9C52.8,64.1,54.1,65.4,55.4,65.4z M55.3,60.9
		c1.2,0,1.6,0.7,1.8,1.7c0,1.2-0.7,1.8-1.8,1.8s-1.7-0.9-1.7-1.9C53.6,61.6,54.3,60.9,55.3,60.9z"/>
	<path d="M47,43.7c1.4,0,2.3-0.9,2.4-2.2c0-1.5-1.1-2.7-2.6-2.8c-1.4,0-2.6,1.1-2.6,2.4C44.2,42.6,45.4,43.7,47,43.7z M46.7,39.8
		c1.1,0,1.6,0.6,1.7,1.6c0,1-0.5,1.4-1.5,1.4c-1.1,0-1.9-0.4-1.9-1.6C45.1,40.1,45.8,39.8,46.7,39.8z"/>
</g>
</svg>
