<?xml version="1.0" encoding="utf-8"?>
<!-- Generator: Adobe Illustrator 19.2.0, SVG Export Plug-In . SVG Version: 6.00 Build 0)  -->
<svg version="1.1" id="Capa_1" xmlns="http://www.w3.org/2000/svg" xmlns:xlink="http://www.w3.org/1999/xlink" x="0px" y="0px"
	 viewBox="0 0 100 100" enable-background="new 0 0 100 100" xml:space="preserve">
<g id="Capa_2">
</g>
<g>
	<path fill="#FFFFFF" d="M61.2,16c0,0.2-0.1,0.4-0.3,0.4s-0.3-0.1-0.4-0.3c-0.1-0.1-0.1-0.3-0.2-0.4c-0.5-0.8-1.2-1.2-2-1.3
		c-0.8,0-1.5,0.3-2,0.8c-0.5,0.4-0.4,0.8,0.1,1.2c0.4,0.3,0.9,0.4,1.4,0.4s0.9,0.1,1.4,0.1c0.2,0,0.4,0,0.4,0.3
		c0,0.2-0.2,0.3-0.4,0.3s-0.5,0-0.7,0c-1.1,0.1-2,0.4-2.6,1.3c-0.2,0.2-0.5,0.5-0.3,0.8s0.6,0.1,0.9,0c0.6-0.2,1.2-0.5,1.8-0.8
		c0.3-0.1,0.7-0.4,0.8,0c0.2,0.4-0.3,0.5-0.6,0.6c-0.8,0.5-1.6,1-2.1,1.8c-0.2,0.3-0.3,0.6-0.1,0.9s0.6,0.2,0.9,0.2
		c0.2,0,0.4-0.1,0.5-0.2c0.5-0.3,1-0.7,1.4-1.2c0.1-0.1,0.2-0.2,0.3-0.3c0.1-0.1,0.2-0.1,0.3,0s0.1,0.2,0,0.3
		c-0.1,0.2-0.2,0.3-0.3,0.5c-0.3,0.3-0.6,0.6-0.8,1s-0.3,0.8-0.2,1.3c0.2,0.4,0.4,0.5,0.8,0.3c0.5-0.3,0.9-0.6,1.2-1.1
		s0.6-0.9,1-1.4c0.7-0.8,1.6-1.1,2.6-1.4c0.2,0,0.4,0,0.4-0.2c0.1-0.4,0.3-0.3,0.6-0.4c0.4,0,0.7,0,1.1,0s0.8-0.2,1.1-0.5
		c0.3-0.4,0.3-0.7-0.2-0.8c-0.6-0.2-1.2-0.3-1.9-0.1c-0.3,0.1-0.6,0.2-0.9,0.3c-0.2,0-0.4,0.1-0.5-0.1s0.1-0.4,0.3-0.4
		c0.3-0.1,0.7-0.3,1.1-0.4c0.5-0.1,0.8-0.4,1.1-0.8c0.3-0.4,0.2-0.8-0.3-0.9c-0.9,0-1.7,0.1-2.3,0.8c-0.2,0.2-0.3,0.4-0.6,0.5
		c-0.1,0-0.2,0.1-0.3,0s0-0.2,0-0.3c0.1-0.3,0.3-0.4,0.6-0.6c0.4-0.3,0.7-0.8,1-1.3c0.2-0.4,0-1.2-0.4-1.5c-0.1-0.1-0.2-0.1-0.4,0
		C62.4,13.9,61.4,14.6,61.2,16z M63.2,17.8c0.5,0.4,0.7,1,0.4,1.5c-0.4,0.7-1,1.1-1.8,1.1c-0.6-0.1-1.1-0.2-1.5-0.7
		c-0.4-0.7-0.3-1.5,0.5-2C61.6,17.3,62.4,17.2,63.2,17.8z"/>
	<path fill="#FFFFFF" d="M45.2,47.3c3.8-1.1,7.1-3.1,10-5.9c2.2-2.1,3.8-4.6,4.4-7.6c0-0.1,0.1-0.2,0.1-0.3s0.1-0.2,0.2-0.2
		c0.1,0,0.2,0.1,0.2,0.2c0.1,0.3,0,0.5,0,0.8C60,34.5,60,34.7,60,34.9c0,0.2-0.1,0.4-0.1,0.6c0.7-0.7,1.4-1.2,2.3-1.5
		c0.5-0.1,0.5-0.4,0.3-0.8c-0.5-1-1.3-1.7-2.3-2.1c-1.1-0.5-1.5-1.5-1.9-2.5c-0.4-0.9-0.8-1.8-1.2-2.7c-0.2-0.4,0-0.5,0.3-0.5
		c0.4,0,0.7,0.1,1,0.3c0.8,0.4,1.7,0.6,2.4,1.2c0.7,0.5,1.6,0.9,1.7,2c0,0.1,0.1,0.3,0.3,0.3c-0.1-0.8-0.1-1.6-0.2-2.3
		c0-0.2-0.1-0.2-0.3-0.3c-0.6-0.1-1-0.4-1.5-0.8c-0.3-0.3-0.8-0.5-1.3-0.4c-1,0.2-1.5-0.1-2-1C57.2,24.2,57.2,24,57,24
		c-0.8,0.1-1.2-0.4-1.6-0.9c-0.3-0.4-0.4-0.8-0.1-1.3c0.1-0.1,0.2-0.3,0.2-0.4c0.2-0.3,0.1-0.5-0.2-0.5c-0.4-0.1-0.8-0.1-1-0.4
		c-0.4-0.6-1-1.2-1.3-1.9c-0.2-0.6-0.4-1.2-0.2-1.9c0.1-0.5,0-0.9-0.3-1.2c-0.1,0.6-0.1,1.2,0,1.7c0.2,1.6,0.8,3.1,1.6,4.5
		c0.1,0.2,0.3,0.4,0.2,0.7c0,0.3,0.1,0.5,0.3,0.6c0.5,0.4,0.7,1,0.8,1.6c0,0.3,0.1,0.7-0.3,0.7c-0.4,0-0.2-0.4-0.2-0.6
		c0-1.1-1-2-2.1-1.8c-0.2,0-0.6,0.2-0.7-0.1c-0.1-0.3,0.3-0.4,0.6-0.4h0.1c0.3,0,0.4-0.1,0.2-0.3c-0.8-1-1.3-2.1-1.7-3.3
		c0-0.1,0-0.2-0.2-0.2c0,0.9,0.2,1.8,0.6,2.7c0.1,0.2,0.3,0.5,0.1,0.6c-0.3,0.2-0.5,0-0.7-0.2c-0.1-0.1-0.1-0.1-0.2-0.2
		c-0.4-0.6-0.7-1.1-1-1.8c-0.5-1.1-0.8-2.3-1.1-3.4c0.1,1.4,0.4,2.8,1,4.1c0.1,0.2,0.2,0.3,0.2,0.6c0,0.1,0,0.2-0.1,0.2
		c-0.1,0.1-0.2,0-0.3-0.1s-0.1-0.2-0.2-0.3c-0.6-1.3-0.9-2.7-1.2-4.1c0,0.1,0,0.2,0,0.2c0,1,0.1,2,0.2,3c0,0.2,0.1,0.4-0.2,0.5
		c-0.2,0.1-0.3-0.1-0.4-0.3c-0.2-0.5-0.5-1.1-0.6-1.6c-0.3-1.2-0.3-2.4-0.4-3.8c-0.3,1.4-0.4,2.6,0.1,3.9c0.1,0.2,0.1,0.3,0.1,0.5
		s0.1,0.5-0.2,0.5c-0.3,0.1-0.4-0.1-0.5-0.3c-0.5-1-0.9-1.9-1-3C45.1,15.2,45,14.2,45,13c-0.1,0.2-0.1,0.2-0.1,0.2
		c-0.2,1.5-0.5,3.1,0.1,4.6c0.1,0.1,0.2,0.3,0,0.4s-0.3-0.1-0.4-0.2c-0.2-0.3-0.3-0.7-0.4-1.1c-0.2-1-0.1-1.9,0-2.9
		c-0.4,1.1-0.5,2.2-0.3,3.4c0,0.2,0.1,0.4-0.1,0.5c-0.2,0.1-0.4,0-0.5-0.2c-0.2-0.3-0.4-0.6-0.5-0.9c-0.2-0.6-0.2-0.6-0.6-0.1
		c-1.9,1.9-3.7,4-5.6,5.8C35,24,33.2,25.1,31,25.6c-1.8,0.4-3.6,1-5.2,1.9c-2.3,1.2-3.8,3-4.2,5.7c-0.2,1.5,0,3,0.1,4.5
		c0.1,1.3,0.5,2.6,1.2,3.8C24.6,44,27,45.8,30,47C35,48.9,40.1,48.8,45.2,47.3z M46.8,29.4c0.2-1.6,0.8-2.9,2.4-3.7
		c0.8-0.4,1.5-0.4,2.3-0.2c0.4,0.1,0.7,0.3,0.9,0.7c0.6,0.9,0.9,1.9,0.9,3c0,1.4-1.2,2.7-2.9,3.2c-0.3,0.1-0.6,0.1-0.8,0.1
		C47.8,32.5,46.6,31.1,46.8,29.4z M42.2,19.3c0.4-0.2,0.8-0.3,1.3-0.3c1-0.1,1.7,0.5,2.1,1.4c0.1,0.2,0.2,0.4-0.1,0.6
		s-0.3-0.1-0.4-0.3c-0.4-0.9-1.6-1.4-2.7-0.9c-0.1,0-0.1,0.1-0.2,0.1C42,20,41.7,20.3,41.6,20C41.6,19.6,42,19.4,42.2,19.3z
		 M41.2,21.7c1.3,0,2.4,1.1,2.5,2.5c0,0.2,0,0.4,0,0.5c0,1.9-1.5,3.4-3.5,3.6c-1.6,0.1-2.7-0.7-2.8-2.5
		C37.2,23.6,38.9,21.7,41.2,21.7z"/>
	<path fill="#FFFFFF" d="M49.1,46.5c0.6,0.2,1.1,0.1,1.7,0.1c2.4-0.3,4.1-1.8,5.5-3.6c1.1-1.4,1.5-3.1,2.1-4.7
		C56.1,41.9,52.8,44.4,49.1,46.5z"/>
	<path fill="#FFFFFF" d="M61.7,91.4c-0.1-0.1-0.1-0.1-0.2-0.2c-0.4-0.5-0.4-0.6,0.1-1c-0.2-0.1-0.3-0.1-0.5-0.2
		c-0.1-0.1-0.3-0.2-0.2-0.3c0.3-0.5-0.1-0.4-0.3-0.5s-0.5-0.1-0.7-0.2s-0.4-0.2-0.4-0.5s0.3-0.4,0.5-0.4c0.3,0,0.6,0,0.9-0.2
		c-0.4-0.1-0.7-0.1-1-0.2c-0.8-0.1-1-0.2-1-1.1c0-0.4-0.2-0.5-0.5-0.5c-0.2,0-0.3,0.1-0.5,0.2C57,86.8,57,86.8,56.3,86
		c-0.3-0.3-0.6-0.7-1-0.9c-0.5-0.2-0.6-0.1-0.6,0.4c0,0.7-0.3,1-0.9,0.8c-0.1,0-0.2-0.1-0.3-0.1C53,86.5,53,86.5,53.1,87
		s0,0.7-0.5,0.7c-0.2,0-0.4,0-0.6,0c0.2,0.3,0.5,0.5,0.7,0.8c0.7,1,0.8,1.3-0.3,1.7c-0.2,0.1-0.4,0.1-0.3,0.4
		c0.1,0.2,0.3,0.2,0.5,0.2c0.2-0.1,0.4-0.1,0.6-0.2c0.2-0.1,0.4-0.2,0.6-0.2c0.1,0,0.3,0,0.4,0.1c0.1,0.2,0,0.2-0.1,0.3
		c-0.3,0.2-0.3,0.6-0.3,0.9c0,0.2,0.2,0.4,0.4,0.5s0.4,0,0.6-0.2c0.1-0.1,0.2-0.2,0.2-0.3c0.2-0.2,0.4-0.5,0.7-0.4s0.3,0.4,0.4,0.6
		V92c0.2,0.8,0.3,0.8,0.9,0.4c0.5-0.4,0.8-0.3,1.2,0.2c0.1,0.1,0.2,0.3,0.4,0.3C58.9,93,59,93,59,92.6c0-0.2-0.1-0.4,0.1-0.5
		c0.2-0.1,0.3,0.1,0.5,0.2c0.1,0,0.1,0.1,0.2,0.1c0.1,0.1,0.3,0.2,0.4,0.1c0.1-0.1,0-0.2,0-0.4c-0.1-0.5,0-0.7,0.5-0.6
		c0.3,0.1,0.5,0.2,0.8,0.3c0.2,0.1,0.5,0.3,0.7,0.1C62.2,91.8,61.9,91.6,61.7,91.4z M57.9,90.5c-0.9,0.4-2.1-0.1-2.5-1
		c-0.3-0.7-0.1-1.2,0.7-1.3c0.2,0,0.4,0,0.6-0.1c0.6,0,1.1,0.2,1.5,0.5C58.8,89.2,58.7,90.1,57.9,90.5z"/>
	<path fill="#FFFFFF" d="M40.1,88.9c-0.2-0.1-0.4-0.2-0.5,0c-0.3,0.5-0.6,0.2-0.9,0c-0.8-0.7-1.6-1.4-2.4-2.1c-1-0.8-2-1.5-3.3-1.8
		c-0.5-0.2-0.6-0.1-0.5,0.4c0,0.3,0.2,0.5,0.3,0.8c1,2.2,2.3,4.3,3.3,6.4c0.8,1.6,1.7,3.3,2.8,4.7c0.7,0.9,1.1,1,2.2,0.7
		c0.5-0.2,1.1-0.4,1.6-0.5c1.4-0.4,1.4-0.4,1.4-1.6c0-1.8-0.5-3.3-1.4-4.7C42.1,90.2,41.2,89.3,40.1,88.9z"/>
	<path fill="#FFFFFF" d="M39.5,27.8c1.2,0.1,2.2-0.2,3-1.1c0.6-0.7,0.8-1.5,0.6-2.4C43,24.4,43,24.4,43,24.5c-0.6,0.8-1.5,1-2.3,0.7
		c-0.8-0.4-1.1-1.2-0.9-2.2c0-0.1,0.1-0.2,0-0.3c-0.1-0.1-0.2,0.1-0.4,0.1c-1.3,0.8-1.9,2.7-1.3,4.1C38.3,27.4,38.8,27.8,39.5,27.8z
		"/>
	<path fill="#FFFFFF" d="M44.3,89.3c-0.7-0.9-1.5-1.8-2.5-2.4c-1.1-0.6-1.4-0.5-1.9,0.7c-0.2,0.5-0.2,0.6,0.4,0.8
		c0.5,0.1,0.9,0.3,1.3,0.7c1,0.9,1.8,2,2.3,3.3c0.7,1.5,1,3.1,0.7,4.7c-0.1,0.4,0.1,0.5,0.5,0.4c0.9-0.2,1.2-0.6,1.3-1.5
		c0-0.2,0-0.4,0-0.6C46.2,93.1,45.7,91.1,44.3,89.3z"/>
	<path fill="#FFFFFF" d="M62,89.5c0.1,0.1,0,0.3,0.2,0.3s0.2-0.2,0.3-0.4c0.4-1.4,0.8-2.8,1.2-4.1c-0.7,1.1-1.2,2.2-1.6,3.4
		C61.9,88.9,61.8,89.2,62,89.5z"/>
	<path fill="#FFFFFF" d="M57,17.2c-0.3-0.2-0.5-0.3-0.7-0.4c-0.3-0.2-0.5-0.2-0.8,0.1c-0.4,0.4-0.9,0.4-1.4,0.3
		c-0.2-0.1-0.4-0.3-0.6-0.1c-0.2,0.2-0.1,0.5,0,0.8s0.3,0.5,0.5,0.7c0.6,0.6,0.8,0.6,1.3-0.1c0.1-0.1,0.1-0.1,0.2-0.2
		C55.9,17.9,56.4,17.6,57,17.2z"/>
	<path fill="#FFFFFF" d="M51.4,10.2c-0.1,0.2-0.3,0.4-0.1,0.6c0.1,0.2,0.4,0.1,0.5,0.1c0.2,0,0.5-0.1,0.6,0.2s-0.1,0.4-0.3,0.5
		c-0.4,0.3-0.6,0.7-0.6,1.2c0,0.3,0.2,0.4,0.5,0.3c0.2-0.1,0.3-0.2,0.4-0.3c0.2-0.1,0.3-0.2,0.5,0c0.1,0.2,0,0.3-0.1,0.4l-0.1,0.1
		c-0.1,0.1-0.2,0.2-0.1,0.4c0.1,0.2,0.3,0.1,0.4,0.1c0.2-0.1,0.3-0.2,0.5-0.3c0.3-0.2,0.6-0.5,0.9-0.8c0.2-0.1,0.3-0.3,0.6-0.1
		c0.2,0.2,0,0.4-0.1,0.5c-0.3,0.4-0.5,0.9-0.5,1.3c-0.1,0.5,0.2,0.8,0.7,1c0.4,0.2,0.6-0.1,0.7-0.4c0.1-0.1,0.2-0.3,0.3-0.4
		c1-0.8,2.9-1.3,4,0c0.2,0.3,0.5,0.3,0.8,0c0.7-0.5,1.1-1.1,1.2-1.9c0.1-0.4-0.1-0.6-0.4-0.8c-0.3-0.2-0.7-0.3-1-0.2
		c-0.2,0-0.3,0-0.4-0.2c-0.1-0.2,0.1-0.3,0.2-0.4c0.2-0.1,0.4-0.2,0.6-0.3c0.3-0.1,0.7-0.3,1-0.4c0.1-0.1,0.4-0.2,0.3-0.4
		c0-0.2-0.2-0.2-0.4-0.3c-0.3-0.1-0.7-0.1-1-0.2c-0.2-0.1-0.5-0.1-0.5-0.4c0-0.3,0.3-0.3,0.5-0.4h0.1c0.3-0.1,0.8,0,0.7-0.3
		c0-0.3-0.5-0.1-0.8-0.1S60.3,8.4,60.2,8c-0.1-0.4,0.3-0.4,0.5-0.5c0,0,0,0,0.1-0.1c-0.7-0.1-1.3,0.1-1.9,0.2
		c-0.6,0.1-0.9-0.1-1-0.7c0-0.3,0-0.6,0.1-0.9c0-0.2,0.2-0.4,0-0.5s-0.3,0.1-0.5,0.2c-0.4,0.3-0.5,0.6-0.8,1C56.6,6.9,56.4,7.1,56,7
		c-0.3-0.1-0.6,0-0.7,0.3c-0.2,0.6-0.5,0.5-1,0.5c-0.6,0-0.9,0.4-0.8,1c0.1,0.3,0,0.4-0.3,0.4C52.4,9.1,51.9,9.6,51.4,10.2z
		 M56.2,10.3c0.4-0.6,1.5-0.9,2.3-0.7c0.7,0.2,1.2,0.8,1.3,1.6c0.1,1.1-0.4,1.7-1.7,1.6c-0.8,0.1-1.5-0.6-2-1.3
		C55.8,11.2,55.9,10.7,56.2,10.3z"/>
	<path fill="#FFFFFF" d="M51.4,31.3c1.3-0.9,1.6-2.5,1-3.5c-0.5,1-1.3,1.2-2.2,1c-1-0.2-1.6-0.9-1.5-2.1c-1.1,0.9-1.4,1.9-1.4,3.1
		c0,0.5,0.2,1,0.6,1.4C48.8,32,50.3,32.1,51.4,31.3z"/>
	<path fill="#FFFFFF" d="M60.8,23.7c0,0.2,0.2,0.3,0.3,0.1c0.3-0.5,0.7-0.8,1.1-1.2c-0.3-0.1-0.5,0-0.7,0
		C61.1,22.6,60.7,23.3,60.8,23.7z"/>
	<path fill="#FFFFFF" d="M43.2,16.1c0-0.2,0.1-0.4,0.1-0.5c0.1-2.4,1.3-4.3,2.6-6.2c0.2-0.3,0.5-0.6,0.8-0.8c0.1-0.1,0.3-0.2,0.4,0
		c0.1,0.1,0,0.3-0.1,0.4c-0.3,0.6-0.7,1.2-1,1.8c-0.2,0.4-0.3,0.8-0.4,1.2c-0.2,1.3-0.1,2.5,0,3.8c0,0.4,0.1,0.9,0.3,1.4
		c0-0.3,0-0.5,0-0.6c0-2.1,0.6-4,1.5-5.9c0.1-0.3,0.3-0.6,0.5-0.8c0.1-0.1,0.2-0.2,0.3-0.1c0.2,0.1,0.1,0.2,0.1,0.3
		c0,0.4-0.2,0.7-0.3,1.1c-0.7,1.8-0.9,3.6-0.6,5.5c0.1-0.5,0.1-1.1,0.1-1.6c0.1-1.3,0.2-2.6,0.8-3.9c0.1-0.2,0.2-0.4,0.4-0.3
		c0.2,0,0.2,0.3,0.2,0.5c-0.2,1.2,0,2.3,0.1,3.5c0.2,1.6,0.5,3.1,1.2,4.6c0.1,0.2,0.1,0.3,0.3,0.5c-0.1-1.3-0.2-2.6-0.2-3.8
		c0-0.2,0-0.5,0.1-0.7c0-0.1,0.1-0.2,0.3-0.3c0.2,0,0.2,0.1,0.2,0.3c0.1,0.3,0.1,0.6,0.1,1c0.2,1.8,0.9,3.4,1.9,4.8
		c-0.9-2-1.3-4-1.2-6.2c0-0.2-0.1-0.3-0.3-0.4c-0.6-0.2-1.2-0.5-1.2-1.2c0-0.6-0.5-1.1-0.3-1.7v-0.1c0-0.1,0-0.2,0-0.3
		c-0.3-0.8-0.1-1.4,0.8-1.7c0.5-0.2,0.7-0.6,1.1-0.9c-0.7,0.1-1.4,0.2-2.2,0.3c-0.7,0-1.3-0.3-2-0.4c-0.1,0-0.2-0.1-0.3-0.2
		C47,8.2,47.1,8,47.5,7.8c0.2-0.1,0.4-0.1,0.6-0.2c0.9-0.6,2-1,2.9-1.7c-0.7-0.2-1.3-0.2-1.8,0c-1.5,0.5-2.8,1.2-3.9,2.4
		c-1.8,2-2.6,4.5-2.4,7.3C43,15.6,43.1,15.8,43.2,16.1z"/>
	<path fill="#FFFFFF" d="M50.8,5.1c0.2,0,0.5,0,0.6,0.2c0.1,0.1,0,0.3,0.2,0.2c0.2-0.1,0.3-0.2,0.4-0.4c0.1-0.8,0.2-1.6,0.2-2.5
		c0-0.3-0.1-0.6-0.2-0.9c-0.1-0.2-0.3-0.3-0.5-0.1C50.4,2.5,49.7,3.7,49,5C49.7,5,50.3,5,50.8,5.1z"/>
	<path fill="#FFFFFF" d="M52.2,72.6c-0.2,0-0.5,0-0.7,0.1c-0.6,0.2-1,0.6-1.5,0.8c-0.3,0.1-0.3,0.5,0.1,0.7c0.4,0.2,0.8,0.1,1.1,0.1
		c0.2,0,0.5-0.1,0.6,0.2c0,0.3-0.3,0.3-0.5,0.3c-0.4,0.1-0.9,0.2-1.2,0.5c-0.2,0.2-0.4,0.5,0,0.7c0.1,0.1,0.2,0.2,0.2,0.3
		c0.1,0.2,0.2,0.3,0.4,0.2c0.3-0.1,0.6-0.2,1-0.3c0.3-0.1,0.5-0.2,0.8-0.1c0.5,0.1,0.6,0.4,0.3,0.8c-0.2,0.2-0.3,0.4-0.4,0.7
		c-0.1,0.5,0.2,0.8,0.7,0.6c0.3-0.1,0.6-0.2,0.9-0.3c0.5-0.2,0.7,0,0.5,0.5c-0.1,0.4-0.1,0.8,0.3,1c0.3,0.2,0.8,0.1,1.1-0.3
		c0.2-0.3,0.4-0.6,0.6-0.9c0.2-0.2,0.4-0.3,0.6,0.1c0.1,0.1,0.1,0.4,0.3,0.4s0.3-0.2,0.4-0.4c0.1-0.4,0.2-0.7,0.3-1.1
		c0.1-0.3,0.2-0.5,0.5-0.5S59,77,59,77.2c0.2,0.3,0.3,0.7,0.5,1.1c0.2,0.3,0.4,0.3,0.6-0.1c0.3-0.6,0.3-1.3,0-1.9
		c-0.2-0.5-0.4-1.1-1.2-1.1c-0.2,0-0.3-0.1-0.3-0.3c0-0.2,0.2-0.2,0.4-0.2s0.5,0.1,0.7,0.1s0.6,0.1,0.7-0.2c0.1-0.3-0.3-0.4-0.5-0.5
		s-0.3-0.1-0.5-0.2c-0.2,0-0.3,0-0.5-0.1c-0.1,0-0.3-0.1-0.3-0.2c0-0.2,0.1-0.2,0.3-0.3c0.1,0,0.3,0,0.4,0c0.4,0,0.9-0.1,1.3-0.3
		c0.2-0.2,0.3-0.4,0-0.5c-1.2-0.3-2.3-0.5-3.4,0.2c-0.2,0.1-0.3,0.2-0.5,0c-0.1-0.2,0-0.3,0.1-0.4c0.3-0.3,0.5-0.6,0.6-1
		c0.2-0.5,0.2-0.9-0.2-1.3s-0.9-0.3-1.3-0.1c-0.7,0.4-1.3,0.9-1.7,1.7C54,72,53.8,72,53.6,71.7c-0.3-0.3-0.7-0.4-1.1-0.4
		c-0.4,0-0.8,0.1-1.1,0.4c-0.1,0.1-0.2,0.2-0.1,0.3c0,0.2,0.2,0.2,0.3,0.2c0.2,0,0.4,0,0.6,0.1c0.2,0,0.4,0.1,0.4,0.3
		C52.7,72.6,52.4,72.6,52.2,72.6z M56.7,73.2c0.9,0,1.6,0.7,1.6,1.6c0,1-0.8,1.9-1.9,1.9c-0.9,0-1.5-0.6-1.5-1.6
		C54.9,73.9,55.6,73.2,56.7,73.2z"/>
	<path fill="#FFFFFF" d="M62.2,77.4c1,0.1,1.9,0.2,2.9,0.3c-1.2-0.5-2.5-0.8-3.8-1c-0.2,0-0.4-0.1-0.4,0.2c0,0.3,0.1,0.4,0.4,0.4
		C61.6,77.4,61.9,77.4,62.2,77.4z"/>
	<path fill="#FFFFFF" d="M60.6,78.8c0,0.3,0.4,0.2,0.6,0.3h0.1c1.7,0.3,3.3,0.7,5.2,0.8c-0.5-0.4-0.9-0.6-1.3-0.7
		c-1.2-0.5-2.5-0.7-3.7-1C61,78.1,60.6,78.4,60.6,78.8z"/>
	<path fill="#FFFFFF" d="M63,32.9c0.1-0.8,0.2-1.6,0.3-2.4c0.1-0.7,0.2-1.4,0-2c0-0.1,0-0.2-0.1-0.2s-0.1,0.1-0.1,0.2s0,0.2,0,0.2
		C63.2,30.1,62.8,31.5,63,32.9z"/>
	<path fill="#FFFFFF" d="M83.8,86.7c-0.1-0.1-0.3-0.1-0.4-0.3c0-0.2,0.2-0.3,0.3-0.4c0.3-0.2,0.6-0.3,0.9-0.4
		c0.1-0.1,0.2-0.1,0.2-0.2s-0.2-0.1-0.3-0.2c-0.9-0.2-1.8-0.3-2.7-0.3c-0.2,0-0.5,0-0.6-0.3c-0.1-0.2,0.1-0.4,0.3-0.6
		c0.2-0.2,0.4-0.3,0.7-0.4c0.1-0.1,0.2-0.1,0.2-0.3c-0.9-0.2-1.7-0.3-2.6,0c-0.8,0.3-1,0.2-0.8-0.7c0.1-0.5,0-0.9-0.2-1.4
		c-0.1-0.1-0.2-0.3-0.4-0.1c-0.6,0.6-0.6,0.6-1.1-0.1l0,0c-0.1-0.1-0.2-0.2-0.4-0.2c-0.2,0-0.2,0.2-0.3,0.3c0,0.2-0.1,0.4-0.1,0.6
		c-0.1,0.9-0.4,1.1-1.3,0.6c-0.2-0.2-0.5-0.3-0.8-0.4c-0.1-0.1-0.3-0.1-0.4,0s0,0.2,0,0.3c0.1,0.2,0.1,0.4,0.2,0.6
		c0.1,0.6,0,0.8-0.6,0.8c-0.7,0-1.4-0.1-2,0.1c-0.2,0.1-0.4,0.1-0.4,0.4s0.3,0.3,0.5,0.3c0.3,0.1,0.7,0.1,1,0.2
		c0.2,0,0.3,0.2,0.3,0.4c0,0.2-0.2,0.2-0.4,0.3c-0.6,0.2-1.1,0.4-1.7,0.6c-0.4,0.2-0.3,0.4,0,0.6c0.4,0.3,0.8,0.2,1.2,0.2
		c0.3,0,0.7-0.1,0.8,0.2c0.1,0.3-0.1,0.6-0.4,0.8c-0.2,0.2-0.5,0.3-0.8,0.4c-0.1,0.1-0.3,0.2-0.3,0.4c0,0.2,0.2,0.2,0.4,0.2
		c0.2,0.1,0.4,0.1,0.5,0.4c0,0.2-0.1,0.4-0.3,0.5c-0.1,0.1-0.3,0.2-0.3,0.4c0.3,0,0.6-0.2,0.9-0.4c0.3-0.2,0.6-0.3,0.8-0.5
		c0.1-0.1,0.3-0.1,0.4,0s0.1,0.3,0,0.4c-0.1,0.2-0.2,0.3-0.1,0.6c0.3-0.2,0.6-0.5,0.9-0.6c0.5-0.2,0.7,0,0.7,0.5
		c0,0.4-0.1,0.8-0.3,1.1c-0.1,0.3-0.3,0.5-0.3,0.8s0.1,0.4,0.4,0.3c0.4-0.2,0.8-0.4,1.1-0.6c0.6-0.4,1.1-0.9,1.9-1
		c0.5-0.1,0.7,0.1,0.9,0.6c0.1,0.4,0.1,0.9,0.1,1.4c0,0.2-0.1,0.5,0.2,0.6c0.3,0.1,0.4-0.2,0.6-0.3c0.4-0.5,0.5-1,0.5-1.6
		c0-0.2,0-0.4,0.2-0.4c0.2-0.1,0.3,0.1,0.4,0.3c0.1,0.2,0.2,0.4,0.2,0.5c0.1,0.1,0.1,0.4,0.3,0.3c0.2-0.1,0.1-0.3,0-0.4
		c-0.1-0.3-0.1-0.6-0.2-1c-0.1-0.3-0.1-0.7,0.3-0.8c0.4-0.1,0.6,0.1,0.7,0.4c0.2,0.4,0.5,0.7,0.8,1c0.3,0.2,0.6,0.1,0.6-0.3
		c0-0.7,0-1.5-0.5-2.1c-0.1-0.1-0.3-0.3-0.2-0.5c0.1-0.2,0.4-0.2,0.6-0.1c0.4,0.1,0.8,0.3,1.1,0.5c0.2,0.1,0.4,0.3,0.6,0
		c0.2-0.2,0-0.4-0.1-0.6C85,87.4,84.5,86.9,83.8,86.7z M79.7,88.7c-0.2,0-0.4,0-0.4,0c-1.6,0-2.2-0.4-2.7-1.7
		c-0.4-0.9,0.2-1.8,1.1-1.8c1.3,0,2.6,0.9,2.8,2.2C80.7,88.3,80.5,88.6,79.7,88.7z"/>
	<path fill="#FFFFFF" d="M41.1,84c0.7-0.4,1.2-0.9,1.9-1.1c0.4-0.1,0.7-0.3,1-0.6c1.2-1.2,2.5-2.2,4.1-2.7c0.9-0.3,1.8-0.5,2.7-0.5
		c0.1,0,0.3,0.1,0.3-0.2c-0.1-0.3-0.5-0.5-0.9-0.4c-0.7,0.2-1.5,0.5-2.2,0.8c-2.4,1.1-4.6,2.5-6.9,3.9c-0.4,0.2-0.5,0.7-0.8,1
		l0.1,0.1C40.7,84.2,40.9,84.1,41.1,84z"/>
	<path fill="#FFFFFF" d="M69.4,76c0.1-1.6,0-3.3-0.1-4.9c-0.1-1.5-0.2-3-0.5-4.5c-0.7-3.4-1.4-6.8-2-10.3c-0.3-1.9-0.6-3.8-1.1-5.7
		c-0.1-0.3,0.1-0.5,0.3-0.7c2.3-2.2,3.8-4.8,4.7-7.8c1-3.6,0.9-7.3,0.4-11C70.7,28,69.5,25,68.5,22c-0.2-0.7-0.7-1-1.3-1.3
		c-1.7-0.9-3.4-0.5-4.9,0.5c-0.2,0.1-0.4,0.3-0.5,0.6c0.4-0.1,0.7-0.2,1.1-0.3c0.7-0.2,1.4-0.4,2.2-0.4c0.2,0,0.4,0,0.4,0.2
		s-0.1,0.4-0.3,0.5c-0.1,0-0.3,0-0.4,0.1c-1.3,0.2-2.2,0.9-3,1.8c-0.1,0.1-0.1,0.2-0.1,0.3c0.1,0.1,0.2,0.1,0.3,0.1
		c0.3-0.1,0.5-0.2,0.8-0.4c0.7-0.4,1.4-0.8,2.1-1.1c0.2-0.1,0.4-0.1,0.5,0.1s-0.1,0.4-0.3,0.4c-1.1,0.4-1.8,1.3-2.5,2.1
		c-0.1,0.1-0.2,0.2-0.2,0.4c0.5-0.2,0.9-0.5,1.4-0.8c0.6-0.4,1.3-0.8,1.9-1.2c0.2-0.1,0.4-0.2,0.6,0s-0.1,0.4-0.2,0.5
		c-0.5,0.4-0.9,0.8-1.2,1.2c-0.4,0.5-0.9,1-1.1,1.7c0.7-0.5,1.5-0.9,2-1.6c0.1-0.2,0.4-0.4,0.6-0.2c0.2,0.2-0.1,0.4-0.2,0.6
		c-0.5,0.5-1,1-1.6,1.4c-0.5,0.3-0.8,0.7-0.6,1.4c0.1,0.2,0,0.5,0,0.7s-0.1,0.5,0.1,0.8c0.3-0.3,0.6-0.5,0.8-0.9
		c0-0.1,0.1-0.2,0.2-0.2c0.7-0.3,1.4-0.7,2.1-1c0.2-0.1,0.4-0.1,0.7,0c0.3,0.1,0.4,0.3,0.2,0.5c-0.3,0.4-0.3,0.9-0.3,1.4
		c0,0.7-0.3,1.3-0.4,1.9c-0.1,0.6-0.4,1.1-0.7,1.6c-0.3,0.7-0.6,1.4-1.4,1.8c0.5,0.1,0.9,0,1.3,0.2c0.3,0.1,0.6,0.3,0.7,0.6
		c0,0.4-0.3,0.5-0.6,0.6c-0.6,0.3-1.2,0.3-1.8,0.5c-0.2,0-0.4,0-0.5,0.3c0.4,0,0.7,0,1.1,0c0.7-0.1,1.4-0.1,2,0
		c0.3,0.1,0.6,0.2,0.6,0.6c0,0.4-0.2,0.6-0.5,0.7c-0.5,0.2-1,0.3-1.5,0.4c-0.6,0.2-1.2,0.3-1.7,0.6c0.2,0,0.4,0,0.5,0
		c0.7-0.1,1.3-0.2,2-0.2c0.3,0,0.6,0.1,0.7,0.4c0.1,0.3-0.1,0.5-0.3,0.7c-0.3,0.3-0.7,0.6-1.1,0.7c-0.3,0.1-0.6,0.3-0.9,0.5
		c-1.6,1.5-2.6,3.3-3.5,5.2c-0.9,1.8-1.6,3.7-2.8,5.3c-1.4,1.9-3.1,3.7-5.2,4.8c-2.3,1.3-4.8,2.3-7.4,2.9c-0.3,0.1-0.5,0.1-0.8,0.1
		c-0.2,0-0.5,0-0.5-0.3c0-0.2,0.3-0.3,0.5-0.3c0.3,0,0.5,0,0.8-0.1c1.9-0.5,3.8-1.1,5.6-1.9c3.3-1.5,5.7-4,7.6-7
		c0.7-1.2,1.2-2.5,1.8-3.7c0.9-2,1.9-4,3.6-5.4c0.3-0.3,0.6-0.5,1-0.6c0.3-0.1,0.6-0.3,1-0.5c-0.2-0.2-0.4-0.2-0.6-0.1
		c-0.8,0.2-1.6,0.1-2.4,0.4c-0.3,0.1-0.8,0.3-1-0.2s0.3-0.6,0.6-0.8c1-0.5,2-0.8,3.1-1c0.2,0,0.4-0.1,0.4-0.3s-0.3-0.2-0.4-0.2
		c-0.5,0-1,0-1.5,0.1c-0.8,0.1-1.6,0.3-2.4,0.5c-0.3,0.1-0.6,0.1-0.7-0.2c-0.1-0.3,0.1-0.5,0.3-0.6c0.1-0.1,0.3-0.2,0.4-0.3
		c0.8-0.5,1.6-0.7,2.5-0.8c0.4-0.1,0.8-0.1,1.1-0.5c-0.1-0.1-0.3-0.1-0.4-0.1c-1-0.4-2-0.4-3,0c-0.3,0.1-0.6,0.3-0.9,0.2
		c-0.3,0-0.4-0.2-0.2-0.5c0.2-0.2,0.4-0.3,0.6-0.5c0.6-0.4,1.2-0.6,1.9-0.7c0.3,0,0.7-0.1,0.7-0.5c0-0.3-0.5-0.3-0.8-0.3
		c-1.1,0-2.2,0.3-3.1,0.9c-0.7,0.4-1.2,1-1.4,1.7c-0.4,1.1-0.9,2.1-1.2,3.2c-0.9,2.7-2.5,4.9-5,6.3c-1.6,0.9-3.2,1.3-5,0.7
		c-0.3-0.1-0.5,0-0.7,0.1c-2.8,1.1-5.7,1.8-8.7,1.9c-1.7,0.1-1.7,0-2.5,1.5c-2.1,4-4.1,8-5.8,12.2c-1.1,2.8-2.1,5.7-2.5,8.7
		c-0.4,3.4,0.1,6.6,1.5,9.7c0.3,0.7,0.7,1.4,1.1,2c0.1,0.1,0.3,0.3,0.1,0.5c-0.2,0.1-0.3,0-0.5-0.1c-0.2-0.2-0.4-0.4-0.5-0.7
		c-1.1-2.1-1.9-4.3-2.2-6.7c0-0.3-0.2-0.5-0.5-0.5c-1.8-0.3-3.5-0.1-5.1,0.6c-2,1-3.6,2.5-5,4.2c-0.3,0.4-0.4,0.7,0,1.1
		c0.1,0.1,0.2,0.3,0.2,0.5s0.1,0.4-0.1,0.5s-0.3-0.1-0.3-0.3c-0.6-1.4-1.5-2.6-2.4-3.8c-0.6-0.8-1.3-1.6-2-2.2
		c-0.2-0.2-0.5-0.4-0.8-0.2c-0.3,0.2-0.3,0.5-0.3,0.8c0,0.4,0.1,0.8,0.2,1.2c0.8,3.2,2,6.3,3.3,9.4c0.2,0.5,0.4,1,0.8,1.5
		c0.3,0.4,0.8,0.6,1.3,0.6c1.1-0.2,2.1-0.3,3.2-0.4c0.4,0,0.6-0.2,0.6-0.7c0-1.5,0-2.9-0.1-4.4c0-0.3-0.1-0.8,0.3-0.8
		c0.4-0.1,0.5,0.4,0.6,0.7c0.3,1,0.5,2.1,0.7,3.3c0.1-0.2,0.1-0.4,0.1-0.6c0-1.3,0-2.7-0.2-4c0-0.3-0.1-0.6,0.2-0.7
		c0.3-0.1,0.4,0.3,0.5,0.5c0.4,0.8,0.7,1.7,0.9,2.6c0.2-0.1,0.1-0.4,0.4-0.3c0.1,0.1,0.1,0.2,0.1,0.4c0,0.2,0,0.4,0,0.6
		C24.1,86,24,86.8,24,87.6c0,0.3,0.1,0.5,0.5,0.4s0.8-0.2,1.3-0.4c0.3-0.1,0.4-0.3,0.4-0.6c-0.1-0.6-0.1-1.1-0.2-1.7
		c-0.2-1.5-0.5-3-0.8-4.4c0-0.1-0.1-0.3,0.1-0.4s0.3,0,0.5,0.1c0.2,0.2,0.3,0.4,0.4,0.6c0.6,1.3,1.1,2.7,1.4,4.1c0-0.2,0-0.4,0-0.5
		c-0.2-1.6-0.6-3.3-0.9-4.9c0-0.2-0.1-0.5,0.1-0.6c0.3-0.1,0.4,0.2,0.5,0.4c0.4,0.5,0.6,1.2,0.9,1.7c0.2-0.4,0.2-0.4,0.4-0.4
		c0.2,0,0.4,0.2,0.5,0.4c0.1,0.1,0.1,0.3,0.2,0.4c0.6,1.5,1.1,3,1.5,4.5c0,0.1,0,0.3,0.2,0.3c0.1-0.2,0.1-0.4,0.1-0.5
		c0-0.5-0.2-1.1-0.3-1.6c0-0.2-0.1-0.3,0.1-0.4s0.3,0.1,0.4,0.2c0.1,0.2,0.1,0.3,0.1,0.5c0.1,0.5,0.1,1,0.2,1.4c0,0.1,0,0.3,0.2,0.3
		s0.3,0,0.5-0.1s0-0.3,0-0.4s-0.1-0.2-0.2-0.4c-0.1-0.5-0.3-0.9,0.1-1.3c0.4-0.4,0.8-0.1,1.2,0c2.1,0.7,3.7,2.2,5.3,3.7
		c0.1,0.1,0.3,0.4,0.5,0.3s0.1-0.3,0.1-0.4c0.1-0.8,0.5-1.6,1.2-1.9c0.5-0.2,0.8-0.6,1.1-0.9s0.5-0.6,0.8-0.9
		c0.1-0.1,0.2-0.1,0.1-0.3c-0.7,0.8-1.7,1.2-2.4,2c-0.1,0.2-0.3,0.4-0.5,0.2c-0.2-0.2,0-0.4,0.1-0.6c0.3-0.3,0.5-0.6,0.2-1
		c0-0.1,0-0.2,0-0.2c0.1-0.3,0-0.4-0.3-0.5s-0.3-0.4-0.2-0.7c0.1-0.2,0.2-0.4,0.4-0.5c0.8-0.8,1.7-1.5,2.6-2.1
		c0.4-0.3,0.5-0.6,0.3-1c-0.1-0.1-0.1-0.2-0.1-0.3c0-0.5-0.3-0.4-0.7-0.3c-0.5,0.2-1,0.5-1.5,0.5c-0.5,0.1-0.6-0.1-0.5-0.6
		c0.1-0.3,0.3-0.6,0.5-0.9c0.1-0.1,0.3-0.3,0.1-0.5c-0.3-0.3-0.3-0.7-0.2-1.1c0.1-0.2,0.1-0.4-0.2-0.4c-0.4-0.1-0.5-0.4-0.5-0.8
		s0.2-0.7,0.5-1c0.1-0.1,0.3-0.2,0.2-0.4c-0.2-0.5,0-0.8,0.4-1c0.3-0.2,0.6-0.4,0.9-0.5c0.1-0.1,0.2-0.1,0.2-0.3
		c-0.2-0.7,0-1.1,0.7-1.4c0.8-0.3,1.6-0.4,2.4-0.2c0.3,0.1,0.5,0,0.8-0.3c0.4-0.5,0.9-0.8,1.6-0.9c0.6-0.1,0.9,0.3,0.8,0.8
		c-0.1,0.4,0.1,0.4,0.4,0.3c0.6-0.1,1.1-0.2,1.7,0c0.4,0.1,0.6,0.6,0.4,0.8c-0.7,0.5-0.3,0.8,0.2,1l0.1,0.1c0.1,0.1,0.2,0.3,0.4,0.2
		c0.2-0.1,0.1-0.3,0-0.4c-0.2-0.5,0-0.8,0.5-1.1c0.7-0.3,1.4-0.4,2.2-0.2c0.4,0.1,0.6,0,0.8-0.2c0.5-0.5,1-1.1,1.8-1.4
		c1.1-0.4,2.1,0.3,2.1,1.5c0,0.3-0.3,0.6,0,0.8c0.2,0.1,0.6,0,0.9,0.1c0.2,0,0.3,0,0.5,0c0.5,0.1,1.1,0.1,1.6,0.3
		c0.5,0.3,0.5,0.9,0.1,1.2c-0.1,0.1-0.3,0.2-0.4,0.2c-0.3,0.1-0.4,0.2-0.1,0.5c0.6,0.4,0.5,0.9-0.1,1.3C61.1,75,61,75,61,75.2
		c0,0.3,0.4,0.8,0.8,0.9c0.9,0.2,1.9,0.4,2.8,0.6c1,0.2,1.9,0.6,2.8,0.9c0.2,0.1,0.3,0.2,0.3,0.4c0,0.2-0.2,0.2-0.4,0.3
		c-0.3,0-0.6,0-0.9,0c-0.6-0.1-1.1-0.2-1.7-0.1c0.8,0.3,1.5,0.6,2.2,1c0.3,0.2,0.6,0.3,0.8,0.5c0.3,0.3,0.2,0.6-0.2,0.7
		c-0.3,0.1-0.5,0-0.8,0c-1.9-0.3-3.8-0.6-5.7-0.9c-0.4-0.1-0.6-0.1-0.8,0.4c-0.1,0.4-0.4,0.6-0.7,0.7c-0.4,0.2-0.7,0.1-0.8-0.3
		C58,80.2,58,80,57.8,80c-0.4,0-0.7-0.2-1.1-0.5c-0.3-0.2-0.5,0.2-0.6,0.3c-0.2,0.3,0.1,0.3,0.2,0.3c0.7,0.3,1.4,0.5,2,0.8
		c0.1,0.1,0.3,0.1,0.4,0.2c0.1,0.1,0.2,0.2,0.1,0.4c-0.1,0.1-0.2,0.1-0.4,0.1c-0.1,0-0.2-0.1-0.3-0.1C56.8,81,55.4,80.4,54,80
		c-2.6-0.7-5.1-0.6-7.5,0.8c-2.1,1.2-3.6,3.1-4.9,5c-0.2,0.3-0.1,0.4,0.2,0.5c0.6,0.4,1.2,0.8,1.8,1.4c2.1,2,3.1,4.5,3.2,7.3
		c0,0.9,0,0.8,0.7,0.5c1.1-0.4,2.1-0.9,3.2-1.3c0.9-0.4,1.8-0.8,2.7-1.2c-0.3-0.1-0.6-0.2-0.8-0.4c-0.2-0.1-0.4-0.2-0.4-0.4
		c0-0.5-0.3-0.5-0.7-0.5c-0.7,0-0.9-0.2-1-0.9c0-0.2-0.1-0.4,0-0.6c0-0.2,0-0.2-0.2-0.3c-0.7-0.2-0.8-0.5-0.3-1
		c0.1-0.1,0.2-0.2,0.1-0.4c-0.2-0.7-0.2-1,0.4-1.3c0.3-0.2,0.6-0.3,0.6-0.7c0-0.1,0.1-0.3,0.3-0.3c0.7-0.1,1.4-0.4,2.1-0.2
		c0.7,0.2,0.7,0.2,0.7-0.5c0-0.6,0.1-0.8,0.7-0.7c0.7,0,1.2,0.5,1.7,1c0.6,0.6,0.5,0.7,1.3,0.2c0.1-0.1,0.2-0.1,0.3-0.2
		c0.8-0.3,1.4,0,1.4,0.8c0,0.5,0.2,0.7,0.7,0.7c0.3,0,0.7,0,1,0.2c0.4,0.3,0.6,0.1,0.8-0.3c0.7-1.6,1.5-3,2.5-4.5
		c0.1-0.2,0.2-0.4,0.4-0.3c0.2,0.1,0.1,0.4,0.1,0.5c-0.3,0.8-0.5,1.7-0.9,2.4C64.1,85.5,64,85.7,64,86c0.1-0.1,0.2-0.3,0.2-0.4
		c0.9-1.9,2-3.7,3.3-5.3c0.1-0.2,0.3-0.4,0.6-0.3c0.2,0.1,0.1,0.4,0,0.6c0,0,0,0.1-0.1,0.1c-0.9,2.1-1.9,4.1-2.6,6.3
		c0,0.1-0.1,0.2-0.1,0.4c0.8-1.8,1.6-3.6,2.5-5.4c0.4-0.8,0.9-1.5,1.1-2.3C69.3,78.5,69.4,77.3,69.4,76z"/>
	<path fill="#FFFFFF" d="M41.3,77.7c-0.2,0.1-0.3,0.3-0.5,0.4s-0.4,0.3-0.3,0.5c0.1,0.2,0.4,0,0.5-0.1c0.6-0.2,1.2-0.6,1.8-0.9
		c0.2-0.1,0.3-0.2,0.5-0.1c0.2,0.2,0,0.4-0.1,0.5s-0.1,0.2-0.2,0.3c-0.1,0.1-0.2,0.3-0.1,0.4c0.1,0.2,0.3,0,0.5,0
		c0.3-0.1,0.5-0.2,0.8-0.4c0.3-0.3,0.7-0.5,1-0.8s0.5-0.2,0.6,0.2c0.1,0.2,0.1,0.4,0.4,0.4c1.2,0.1,2.4-0.2,3.4-0.9
		c0.3-0.2,0.4-0.5,0.3-0.8c-0.1-0.3-0.3-0.3-0.6-0.4c-0.2,0-0.3,0-0.4-0.2c0-0.2,0.1-0.3,0.3-0.4c0.3-0.2,0.6-0.3,0.8-0.7
		c-0.2-0.1-0.4-0.1-0.6-0.1c-0.2,0-0.3-0.2-0.2-0.3c0.3-0.4,0.3-1,0.8-1.4c0.3-0.2,0.2-0.4-0.1-0.6c-0.4-0.2-0.7-0.2-1.1-0.1
		c-0.2,0-0.4,0.1-0.5-0.1s0.1-0.4,0.3-0.5c0.3-0.2,0.5-0.3,0.8-0.4c0.1-0.1,0.3-0.1,0.3-0.3c0-0.2-0.2-0.1-0.4-0.1
		c-0.8-0.1-1.5,0.1-2.1,0.6c-0.1,0.1-0.3,0.2-0.5,0.1s0-0.3,0-0.5c0.2-0.3,0.4-0.6,0.6-0.9c0.1-0.1,0.2-0.2,0.1-0.4
		c-0.1-0.1-0.3-0.1-0.4,0c-0.5,0.2-0.9,0.4-1.2,0.9c-0.2,0.3-0.4,0.4-0.8,0.3c-0.5-0.3-1.1-0.2-1.6-0.2c-0.4,0-0.7,0.2-1,0.4
		c-0.1,0.1-0.2,0.2-0.2,0.4c0,0.1,0.2,0.2,0.3,0.2c0.3,0.1,0.5,0.1,0.8,0.1c0.2,0,0.4,0,0.4,0.2s-0.2,0.3-0.4,0.3
		c-0.8-0.1-1.4,0.4-2.1,0.7c-0.2,0.1-0.4,0.2-0.3,0.4c0.1,0.2,0.3,0.1,0.5,0.1c0.3,0,0.6-0.2,0.7,0.1c0.1,0.3-0.3,0.3-0.6,0.4
		c-0.4,0.2-0.9,0.3-1.2,0.7c-0.1,0.1-0.2,0.3-0.2,0.4c0.1,0.2,0.3,0.1,0.4,0.1c0.4,0,0.8-0.2,1.2-0.3c0.2-0.1,0.5-0.2,0.6,0.1
		c0.1,0.2-0.2,0.3-0.4,0.4c-0.4,0.2-0.7,0.4-1,0.7c-0.3,0.5-0.2,0.7,0.3,0.9C41.6,77.3,41.6,77.4,41.3,77.7z M44.6,73.7
		c0.7-0.4,1.5-0.4,2.2-0.2c0.9,0.3,1.2,1.3,0.5,2c-0.6,0.6-1.3,0.9-1.9,0.9c-0.9,0-1.4-0.3-1.6-0.9C43.7,74.7,43.9,74.1,44.6,73.7z"
		/>
	<path fill="#FFFFFF" d="M40,83.2c2.5-1.6,5-3.1,7.8-4.4c-0.6,0-1,0-1.4,0.2c-1.9,0.9-3.9,1.8-5.5,3.2C40.4,82.4,40.1,82.7,40,83.2z
		"/>
	<path d="M85.5,87.4c-0.2-0.3-0.2-0.5,0.1-0.6c0.4-0.1,0.6-0.4,0.3-0.8c-0.3-0.4-0.3-0.8-0.3-1.2c0-0.5-0.2-0.9-0.7-1.1
		c-0.3-0.1-0.7-0.2-1-0.2c-0.2,0-0.4,0-0.4-0.1c-0.2-0.6-0.7-0.5-1.2-0.6c-0.7-0.1-1.3-0.1-2.1-0.1c0.2-0.3,0.4-0.5,0.5-0.7
		s0.1-0.4-0.1-0.5s-0.3,0.1-0.4,0.2c-0.2,0.2-0.3,0.5-0.6,0.7c0-0.6-0.1-1.2-0.4-1.7s-0.7-0.5-1-0.1c-0.2,0.3-0.3,0.3-0.5,0
		c-0.4-0.6-1.1-0.6-1.4,0.1c-0.1,0.3-0.2,0.6-0.3,0.9c-0.1,0.5-0.1,0.5-0.6,0.2c-0.4-0.3-0.8-0.5-1.2-0.5c-0.5,0-0.8,0.3-0.7,0.7
		c0.1,0.3,0.5,0.7,0.2,1c-0.2,0.3-0.7,0.1-1.1,0.1h-0.1c-0.4,0-0.5-0.2-0.4-0.6c0.1-0.3,0.2-0.5,0.2-0.8c0-0.2,0-0.4-0.1-0.4
		c-0.2-0.1-0.3,0.1-0.4,0.2s-0.1,0.1-0.1,0.2c-0.7,1.1-1.3,2.2-1.8,3.4c-0.5,1.1-0.9,2.2-1.3,3.3c0.6-2.4,1.2-4.7,2.4-6.9
		c0.2-0.3,0.5-0.8,0.1-1c-0.3-0.2-0.6,0.3-0.8,0.6c-0.8,1.1-1.4,2.3-2,3.5c0,0.1,0,0.2-0.2,0.2c0-0.2,0.1-0.3,0.1-0.4
		c0.5-1.6,1.2-3.1,1.7-4.6c0.1-0.3,0.4-0.7,0-1.1c-0.1-0.1,0-0.2,0-0.4c0.2-1.9,0.3-3.8,0.2-5.7c-0.1-2.4-0.3-4.8-0.8-7.2
		c-1-4.7-1.8-9.5-2.7-14.3c-0.1-0.3,0-0.5,0.2-0.8c1.1-1.2,2.2-2.5,3-3.9c1.6-2.8,2.4-5.9,2.4-9.2c0-1.7-0.2-3.3-0.3-5
		c-0.1-1.6-0.4-3.2-0.9-4.7c-0.6-1.8-1.2-3.6-1.8-5.4c-0.3-0.8-0.7-1.3-1.5-1.7c-0.4-0.2-0.8-0.3-1.3-0.5c0.5,0,0.9-0.2,1.2-0.4
		c0.7-0.6,0.7-1.2-0.1-1.7c-0.2-0.2-0.2-0.3-0.2-0.6c0.2-0.5,0.3-1.1,0.5-1.6c0.3-0.8,0.6-1,1.5-0.9c0.8,0.1,1.6,0.1,2.4-0.3
		c0.3-0.2,0.5-0.3,0.5-0.7s-0.3-0.6-0.6-0.7c-0.2-0.1-0.5-0.1-0.8-0.1c-0.7,0.1-1.3,0.2-1.9,0.5c-0.4,0.2-0.8,0.4-1.3,0.7
		c0.2-0.4,0.4-0.7,0.5-1.1c0.1-0.4,0.2-0.8,0.2-1.1c0-0.2,0.1-0.3,0.2-0.5s0.4-0.4,0.2-0.6c-0.1-0.2-0.4-0.1-0.6-0.1
		c-0.1,0-0.2,0-0.2,0c-0.7,0.2-1.5,0.4-2,1c-0.2,0.2-0.4,0.2-0.8,0.3c0.8-1.2,0.9-2.4,1-3.6c0-0.5,0.1-1.1,0.5-1.4
		c0.1-0.1,0.2-0.2,0.2-0.4c-0.1-0.2-0.2-0.1-0.4-0.2c-0.7-0.1-1.2,0.3-1.6,0.8c-0.3,0.5-0.6,1-0.9,1.4c-0.4,0.6-1.2,0.9-1.7,0.7
		c0.3-0.2,0.7-0.3,0.7-0.7c0-0.6-0.7-0.5-1-0.7c0.4-0.5,0.3-0.8-0.4-0.9c-0.2,0-0.5,0-0.7,0c-0.7,0-0.7,0-0.6-0.7
		C60,5.9,60,5.7,60,5.5c0-0.5-0.3-0.6-0.7-0.3c-0.3,0.2-0.5,0.5-0.7,0.9c0-0.1,0-0.2,0-0.3c0.1-0.3,0.1-0.6-0.2-0.8
		c-0.3-0.2-0.6-0.1-0.9,0c-0.5,0.2-0.8,0.6-1,1c-0.1,0.1-0.1,0.3-0.3,0.3c0.2-0.7,0.1-1-0.4-1.2c-0.6-0.3-1.2-0.2-1.9-0.1
		c-0.3,0.1-0.3,0.2-0.2,0.4c0.1,0.2,0.3,0.3,0.4,0.4c0.2,0.2,0.4,0.4,0.2,0.9c-0.4-0.5-0.6-1-1.1-1.1c-0.6-0.1-0.7-0.5-0.6-1
		c0-0.2,0-0.3,0.1-0.5c0.1-0.9,0.1-1.8-0.2-2.7c-0.2-0.6-0.7-0.7-1.2-0.4c-0.3,0.2-0.6,0.5-0.9,0.9c-0.8,0.9-1.3,1.9-1.9,2.9
		c-0.2,0.3-0.3,0.6-0.6,0.8c-0.1,0.1-0.2,0.1-0.3,0.1c-0.1-0.1-0.1-0.2-0.1-0.3c0-0.3-0.1-0.5-0.3-0.7c-1-0.6-2-0.9-3.1-0.2
		c-0.6,0.4-1.3,0.4-1.8,1c-0.1,0.1-0.3,0.1-0.4,0.1c-0.2,0-0.4,0.1-0.6,0.3c-0.2,0.2-0.5,0.3-0.8,0.3c-0.1,0-0.3,0-0.4,0.2
		c0,0.2,0.1,0.3,0.2,0.4c0.8,0.8,1.9,1,2.9,0.8c0.8-0.1,1.6-0.2,2.3-0.7c0,0.1,0,0.1,0,0.1c-0.1,0.1-0.2,0.2-0.3,0.4
		c-1.8,1.9-2.8,4.2-2.8,6.8c0,0.9-0.1,1.7-0.9,2.2c-0.1,0.1-0.2,0.2-0.3,0.3c-1.8,1.9-3.5,3.8-5.4,5.6c-1.4,1.4-3.1,2.3-5,2.7
		c-0.9,0.2-1.8,0.5-2.7,0.8c-1.6,0.5-3.1,1.3-4.5,2.3c-1.5,1.2-2.2,2.8-2.6,4.5c-0.3,1.7-0.2,3.4,0.1,5.1c0.2,1.1,0.4,2.3,0.9,3.3
		c0.8,1.5,1.9,2.8,3.2,3.8c3.2,2.6,6.9,3.8,11,4c0.5,0,0.5,0.1,0.3,0.5c-0.6,1.1-1.2,2.1-1.8,3.2c-2.2,4.4-4.2,8.8-5.8,13.4
		c-0.9,2.7-1.4,5.5-1.3,8.4c0,0.4-0.2,0.5-0.5,0.5c-0.9-0.1-1.8-0.1-2.6,0c-2.1,0.3-3.8,1.3-5.4,2.7c-0.8,0.7-1.7,1.4-2.3,2.3
		c-0.2,0.4-0.4,0.3-0.6,0c-0.9-1.4-1.9-2.8-3.1-4c-0.2-0.2-0.5-0.4-0.8-0.6c-0.7-0.3-1.3,0-1.5,0.7c-0.1,0.4,0,0.9,0.1,1.3
		c0.8,3,1.7,5.9,2.9,8.7c0.4,1,0.7,2,1.4,2.9c0.6,0.8,1.1,1,2.1,0.8c0.9-0.2,1.9-0.3,2.8-0.3c0.4,0,0.5,0.1,0.5,0.5
		c-0.1,1.1-0.2,2.1-0.5,3.1c-0.1,0.2-0.3,0.6,0,0.7c0.4,0.1,0.4-0.4,0.4-0.6c0.5-2.3,0.6-4.6,0.6-6.9c0-0.1,0-0.3,0-0.4
		s-0.1-0.2,0.1-0.3c0.3,1.5,0.6,3,0.4,4.6c0,0.2-0.1,0.4,0.2,0.5c0.3,0,0.3-0.2,0.4-0.4c0-0.1,0-0.2,0.1-0.2
		c0.4-1.5,0.5-3.1,0.5-4.7c0-0.5,0-1,0-1.5c0.5,1.2,0.8,2.5,0.6,3.8c-0.3,1.4-0.6,2.8-1.1,4.2c-0.1,0.2-0.3,0.5,0,0.6
		s0.4-0.2,0.4-0.4c0.1-0.4,0.3-0.8,0.4-1.3s0.3-1.1,0.4-1.6c0.1,0.1,0.1,0.2,0.1,0.3c0,0.2-0.1,0.5,0.2,0.5c0.3,0,0.3-0.3,0.3-0.5
		c0-0.4,0.2-0.6,0.5-0.7s0.7-0.2,1-0.3c0.4-0.1,0.6,0,0.5,0.4c-0.1,1.7-0.1,3.4-0.6,5.1c0,0.2-0.2,0.4,0.1,0.5
		c0.2,0.1,0.4-0.2,0.4-0.4c0.1-0.2,0.1-0.4,0.1-0.6c0.1-0.5,0.2-1.1,0.3-1.6c0.2-1.9,0.4-3.9,0.1-5.8c-0.1-0.9-0.3-1.8-0.4-2.6
		c0.1,0,0.1,0.1,0.2,0.2c0.8,2.3,1.1,4.8,1.5,7.2c0,0.3-0.1,0.8,0.3,0.8s0.3-0.5,0.3-0.7c0.1-2.3-0.3-4.6-0.6-6.9
		c-0.1-0.6-0.3-1.1-0.2-1.8c0.1,0.1,0.1,0.2,0.1,0.2c0.1,0.3,0.2,0.6,0.3,0.9c0.8,2.8,1,5.7,1.1,8.6c0,0.2-0.1,0.5,0.2,0.6
		c0.3,0,0.4-0.3,0.4-0.5c0.1-0.6,0.1-1.2,0.1-1.8c-0.1-1.5-0.2-3.1-0.4-4.6c-0.1-0.6-0.1-1.1-0.2-1.7c0.4,0.8,0.7,1.7,0.9,2.5
		c0.4,1.4,0.9,2.8,0.6,4.4c0,0.2,0,0.4,0.2,0.4s0.3-0.2,0.3-0.4c0.2-0.9,0.3-1.8,0.3-2.7c0-0.4,0.2-0.5,0.5-0.6
		c0.4-0.1,0.6,0,0.7,0.4c0.6,1.3,1.3,2.5,2,3.7c1.2,2.1,2.1,4.2,3.5,6.2c1,1.4,1.7,1.7,3.3,1.1c0.6-0.2,1.1-0.4,1.7-0.5
		c0.3-0.1,0.5-0.1,0.8,0.1c0.7,0.4,2.4-0.2,2.6-1c0.1-0.4,0.4-0.6,0.7-0.8c2.4-1,4.7-2,7.1-3.1c0.2-0.1,0.5-0.3,0.6-0.1
		c0.2,0.4,0.8,0.5,0.5,1.1c-0.4,0.9-0.7,1.8-1,2.8c-0.1,0.2-0.2,0.6,0.1,0.7s0.4-0.3,0.5-0.6c0-0.1,0-0.1,0-0.2
		c0.2-0.7,0.4-1.5,0.7-2.2c0.1-0.2,0.2-0.4,0.3-0.7c0.1-0.1,0.2-0.2,0.4-0.1s0.1,0.2,0,0.3c0,0.2-0.1,0.3-0.2,0.5
		c-0.3,0.7-0.5,1.3-0.8,2c-0.1,0.2-0.2,0.4,0.1,0.5s0.3-0.1,0.4-0.3c0.1-0.3,0.2-0.6,0.3-0.9c0.2-0.6,0.4-1.3,0.7-1.9
		c0.2-0.3,0.4-0.4,0.7-0.2c0.2,0.1,0.4,0.1,0.6,0.1c0.6-0.1,0.9,0.2,0.7,0.8c-0.1,0.6-0.3,1.1-0.5,1.7c-0.1,0.2-0.1,0.4,0,0.6
		c0,0.1,0.1,0.3,0.3,0.3s0.2-0.1,0.2-0.3c0.1-0.5,0.3-0.9,0.3-1.4c0.1-0.6,0.3-1.1,1.1-1.1c0.3,0,0.4,0,0.3,0.3
		c-0.2,0.7-0.3,1.3-0.5,2c0,0.2-0.1,0.4,0.2,0.5c0.2,0,0.3-0.2,0.3-0.4c0.1-0.8,0.4-1.5,0.5-2.2c0-0.1,0-0.3,0.2-0.4
		c0.6-0.2,0.6-0.7,0.5-1.3c-0.1-0.2,0-0.4,0.3-0.5c0.4-0.1,0.5-0.4,0.3-0.8c-0.2-0.3-0.2-0.7-0.1-1c0.9-2.5,1.9-5,3.3-7.3
		c0.2-0.3,0.4-0.7,0.6-1c-0.5,1.4-1.1,2.8-1.6,4.3c-0.8,2.2-1.2,4.5-1.6,6.8c0,0.2-0.1,0.5,0.2,0.6s0.3-0.2,0.4-0.4
		c0.8-3.1,2-6.1,3.3-9.1c0.2-0.5,0.4-1,0.8-1.5c0,0.2-0.1,0.3-0.1,0.5c-0.6,2.1-1.2,4.2-1.8,6.3c-0.1,0.3-0.3,0.7,0.1,0.9
		c0.4,0.1,0.4-0.4,0.5-0.7c0.5-1.5,1-3.1,1.7-4.5c0.3-0.7,0.6-1.4,1.1-2.1c-1,3.1-1.9,6.3-2.7,9.5c-0.2,0.9-0.4,1.7-0.5,2.6
		c0,0.2,0,0.4,0.2,0.4s0.3-0.1,0.3-0.3c0.6-2.2,1.3-4.4,2.1-6.6c0.5-1.5,1.1-2.9,1.8-4.3c0.1-0.1,0.1-0.5,0.4-0.3
		c0.2,0.2,0.5,0.2,0.9,0.4c-0.4,0.2-0.7,0.3-1.1,0.5c-0.2,0.1-0.5,0.2-0.5,0.5c0,0.7-0.4,1.2-0.6,1.8c-0.9,2.6-1.6,5.3-2.1,8
		c0,0.2-0.1,0.5,0.2,0.5C68,96.2,68,96,68,95.8c0.3-1.8,0.8-3.5,1.3-5.2c0.2-0.8,0.5-1.5,0.8-2.3c0.1,0.3-0.1,0.5-0.1,0.7
		c-0.4,0.8-0.2,1.8,0.5,2.1c0.6,0.3,1.3,0.7,2,0.7c0.8,0,1,0.3,1.1,1c0.1,0.8,0.9,1.1,1.7,0.7c0.3-0.2,0.6-0.5,0.9-0.7
		c0.1-0.1,0.3-0.2,0.4-0.1c0.4,0.4,0.9,0.3,1.4,0.2c0.3-0.1,0.5,0,0.6,0.3c0.2,0.4,0.5,0.6,1,0.4c0.4-0.2,0.7-0.5,0.9-0.9
		c0.2-0.4,0.3-0.4,0.6-0.1c0.3,0.3,0.6,0.6,1,0.2c0.3-0.3,0.6-0.3,1-0.2c0.8,0.2,1.5-0.4,1.6-1.2c0-0.5-0.1-1-0.1-1.5
		c0-0.3,0-0.4,0.3-0.3c0.4,0.2,0.8,0.2,1.1-0.2c0.3-0.3,0.3-1,0.1-1.3C85.9,87.9,85.7,87.6,85.5,87.4z M63.5,13.2
		c0.1-0.1,0.2,0,0.4,0c0.4,0.3,0.6,1,0.4,1.5s-0.5,0.9-1,1.3c-0.2,0.2-0.4,0.4-0.6,0.6c0,0.1-0.1,0.2,0,0.3c0.1,0.1,0.2,0.1,0.3,0
		c0.3-0.1,0.4-0.3,0.6-0.5c0.6-0.7,1.5-0.9,2.3-0.8c0.5,0,0.7,0.4,0.3,0.9c-0.3,0.4-0.6,0.7-1.1,0.8c-0.4,0.1-0.7,0.2-1.1,0.4
		c-0.2,0.1-0.4,0.2-0.3,0.4c0.1,0.2,0.3,0.2,0.5,0.1c0.3-0.1,0.6-0.2,0.9-0.3c0.6-0.2,1.3-0.1,1.9,0.1c0.5,0.2,0.5,0.5,0.2,0.8
		s-0.7,0.5-1.1,0.5s-0.7,0-1.1,0c-0.3,0-0.5,0-0.6,0.4c0,0.2-0.2,0.2-0.4,0.2c-1,0.2-1.9,0.6-2.6,1.4c-0.4,0.4-0.7,0.9-1,1.4
		s-0.7,0.8-1.2,1.1c-0.4,0.2-0.6,0.1-0.8-0.3s-0.1-0.9,0.2-1.3c0.2-0.4,0.5-0.6,0.8-1c0.1-0.1,0.3-0.3,0.3-0.5c0-0.1,0-0.2,0-0.3
		c-0.1-0.1-0.2-0.1-0.3,0s-0.2,0.2-0.3,0.3c-0.4,0.5-0.8,0.9-1.4,1.2c-0.2,0.1-0.3,0.2-0.5,0.2c-0.3,0.1-0.7,0.1-0.9-0.2
		c-0.2-0.3-0.1-0.6,0.1-0.9c0.5-0.8,1.3-1.3,2.1-1.8c0.2-0.1,0.7-0.3,0.6-0.6c-0.2-0.3-0.6-0.1-0.8,0c-0.6,0.2-1.2,0.6-1.8,0.8
		c-0.3,0.1-0.7,0.3-0.9,0s0.1-0.6,0.3-0.8c0.6-0.9,1.6-1.3,2.6-1.3c0.2,0,0.5,0,0.7,0s0.4-0.1,0.4-0.3c0-0.2-0.2-0.3-0.4-0.3
		c-0.5,0-0.9-0.1-1.4-0.1s-1-0.2-1.4-0.4c-0.6-0.3-0.6-0.7-0.1-1.2s1.2-0.7,2-0.8c0.8,0.1,1.5,0.5,2,1.3c0.1,0.1,0.1,0.3,0.2,0.4
		c0.1,0.2,0.2,0.3,0.4,0.3s0.3-0.2,0.3-0.4C61.4,14.6,62.4,13.9,63.5,13.2z M62.2,22.6c-0.4,0.4-0.8,0.8-1.1,1.2
		c-0.1,0.2-0.2,0.1-0.3-0.1c-0.1-0.4,0.3-1.1,0.7-1.1C61.8,22.6,62,22.5,62.2,22.6z M55.3,18.6c-0.5,0.7-0.7,0.7-1.3,0.1
		c-0.2-0.2-0.4-0.4-0.5-0.7c-0.1-0.3-0.2-0.6,0-0.8c0.2-0.2,0.4,0,0.6,0.1c0.5,0.1,1,0.1,1.4-0.3c0.2-0.3,0.5-0.3,0.8-0.1
		c0.2,0.1,0.4,0.2,0.7,0.4c-0.6,0.4-1.2,0.7-1.6,1.2C55.4,18.4,55.4,18.5,55.3,18.6z M53.2,9.1c0.3,0,0.4-0.1,0.3-0.4
		c-0.1-0.6,0.3-1,0.8-1c0.4,0,0.8,0.1,1-0.5C55.4,7,55.7,6.9,56,7c0.4,0.1,0.6-0.1,0.8-0.4c0.2-0.4,0.4-0.7,0.8-1
		c0.1-0.1,0.3-0.3,0.5-0.2c0.2,0.1,0.1,0.3,0,0.5C58,6.2,58,6.5,58,6.8c0.1,0.7,0.3,0.8,1,0.7c0.6-0.1,1.2-0.3,1.9-0.2
		c-0.1,0.1-0.1,0.1-0.1,0.1c-0.2,0.1-0.6,0.1-0.5,0.5s0.5,0.3,0.8,0.3s0.8-0.1,0.8,0.1c0,0.3-0.5,0.2-0.7,0.3h-0.1
		c-0.2,0.1-0.5,0.1-0.5,0.4c0,0.3,0.3,0.3,0.5,0.4c0.3,0.1,0.7,0.1,1,0.2c0.2,0,0.4,0.1,0.4,0.3s-0.2,0.3-0.3,0.4
		c-0.3,0.2-0.7,0.3-1,0.4c-0.2,0.1-0.4,0.2-0.6,0.3c-0.1,0.1-0.3,0.2-0.2,0.4s0.2,0.2,0.4,0.2c0.4,0,0.7,0.1,1,0.2
		c0.3,0.2,0.5,0.4,0.4,0.8C62,13.4,61.6,14,61,14.5c-0.3,0.2-0.6,0.2-0.8,0c-1.1-1.3-3-0.8-4,0c-0.1,0.1-0.2,0.2-0.3,0.4
		c-0.2,0.3-0.3,0.5-0.7,0.4c-0.5-0.2-0.8-0.5-0.7-1s0.3-0.9,0.5-1.3c0.1-0.2,0.3-0.3,0.1-0.5s-0.4,0-0.6,0.1
		c-0.3,0.2-0.6,0.5-0.9,0.8c-0.1,0.1-0.3,0.2-0.5,0.3s-0.3,0.1-0.4-0.1c-0.1-0.2,0.1-0.3,0.1-0.4l0.1-0.1c0.1-0.1,0.2-0.3,0.1-0.4
		c-0.2-0.2-0.3-0.1-0.5,0s-0.3,0.2-0.4,0.3c-0.3,0.1-0.5,0.1-0.5-0.3c0-0.5,0.3-0.9,0.6-1.2c0.2-0.1,0.4-0.3,0.3-0.5
		c-0.1-0.3-0.4-0.2-0.6-0.2c-0.2,0-0.4,0.1-0.5-0.1c-0.1-0.2,0-0.4,0.1-0.6C51.9,9.6,52.4,9.1,53.2,9.1z M51.6,1.6
		c0.2-0.2,0.3-0.1,0.5,0.1c0.1,0.3,0.2,0.6,0.2,0.9c0,0.8-0.1,1.7-0.2,2.5c0,0.2-0.2,0.3-0.4,0.4c-0.3,0.1-0.2-0.2-0.2-0.2
		c-0.2-0.2-0.4-0.2-0.6-0.2c-0.6-0.1-1.1,0-1.8,0C49.8,3.8,50.5,2.6,51.6,1.6z M45.4,8.1c1-1.2,2.4-1.8,3.9-2.4
		c0.6-0.2,1.2-0.1,1.8,0c-0.9,0.7-2,1-2.9,1.7c-0.2,0.1-0.4,0.1-0.6,0.2c-0.4,0.1-0.4,0.4-0.2,0.7c0.1,0.1,0.2,0.2,0.3,0.2
		c0.7,0.1,1.3,0.4,2,0.4s1.4-0.2,2.2-0.3c-0.4,0.3-0.6,0.7-1.1,0.9c-0.9,0.3-1.1,0.9-0.8,1.7c0,0.1,0.1,0.2,0,0.3v0.1
		c-0.2,0.6,0.3,1.1,0.3,1.7c0,0.7,0.6,1,1.2,1.2c0.2,0.1,0.4,0.2,0.3,0.4c-0.1,2.2,0.3,4.2,1.2,6.2c-1.1-1.4-1.7-3.1-1.9-4.8
		c0-0.3-0.1-0.6-0.1-1c0-0.1-0.1-0.3-0.2-0.3c-0.2,0-0.2,0.1-0.3,0.3s-0.1,0.4-0.1,0.7c0,1.3,0.1,2.5,0.2,3.8
		c-0.2-0.1-0.3-0.3-0.3-0.5c-0.7-1.4-0.9-3-1.2-4.6c-0.2-1.2-0.3-2.3-0.1-3.5c0-0.2,0-0.4-0.2-0.5c-0.2,0-0.3,0.2-0.4,0.3
		c-0.5,1.2-0.7,2.5-0.8,3.9c0,0.5,0,1.1-0.1,1.6c-0.2-1.9-0.1-3.7,0.6-5.5c0.1-0.3,0.3-0.7,0.3-1.1c0-0.1,0.1-0.3-0.1-0.3
		c-0.1-0.1-0.2,0-0.3,0.1c-0.2,0.2-0.4,0.5-0.5,0.8c-0.9,1.9-1.4,3.8-1.5,5.9c0,0.2,0,0.3,0,0.6c-0.2-0.5-0.3-1-0.3-1.4
		c-0.1-1.3-0.2-2.5,0-3.8c0.1-0.4,0.2-0.8,0.4-1.2c0.4-0.6,0.7-1.2,1-1.8c0.1-0.1,0.2-0.3,0.1-0.4c-0.1-0.1-0.3-0.1-0.4,0
		c-0.3,0.2-0.6,0.5-0.8,0.8c-1.3,1.9-2.5,3.8-2.6,6.2c0,0.1-0.1,0.3-0.1,0.5c-0.2-0.3-0.2-0.6-0.2-0.8C42.8,12.6,43.6,10.1,45.4,8.1
		z M30,47c-2.9-1.1-5.4-2.9-7.1-5.7c-0.7-1.2-1.1-2.4-1.2-3.8c-0.2-1.5-0.3-3-0.1-4.5c0.4-2.6,1.9-4.4,4.2-5.7
		c1.6-0.9,3.4-1.5,5.2-1.9c2.2-0.5,4-1.6,5.6-3.1c2-1.8,3.8-3.9,5.6-5.8c0.4-0.4,0.4-0.4,0.6,0.1c0.1,0.3,0.3,0.7,0.5,0.9
		c0.1,0.1,0.3,0.2,0.5,0.2c0.2-0.1,0.2-0.3,0.1-0.5c-0.2-1.2-0.1-2.3,0.3-3.4c0,1-0.1,1.9,0,2.9c0.1,0.4,0.1,0.8,0.4,1.1
		c0.1,0.1,0.2,0.3,0.4,0.2c0.2-0.1,0.1-0.3,0-0.4c-0.7-1.5-0.4-3-0.1-4.6c0,0,0-0.1,0.1-0.2c0,1.2,0.1,2.2,0.2,3.3
		c0.1,1.1,0.5,2,1,3c0.1,0.2,0.2,0.4,0.5,0.3s0.2-0.3,0.2-0.5s0-0.4-0.1-0.5c-0.5-1.2-0.3-2.5-0.1-3.9c0.1,1.4,0.1,2.6,0.4,3.8
		c0.1,0.6,0.4,1.1,0.6,1.6c0.1,0.2,0.2,0.4,0.4,0.3s0.2-0.3,0.2-0.5c-0.2-1-0.3-2-0.2-3c0-0.1,0-0.2,0-0.2c0.2,1.4,0.6,2.8,1.2,4.1
		c0,0.1,0.1,0.2,0.2,0.3c0.1,0.1,0.2,0.2,0.3,0.1c0.1,0,0.1-0.1,0.1-0.2c0-0.2-0.1-0.4-0.2-0.6c-0.6-1.3-0.9-2.7-1-4.1
		c0.3,1.2,0.6,2.3,1.1,3.4c0.3,0.6,0.6,1.2,1,1.8c0.1,0.1,0.1,0.2,0.2,0.2c0.2,0.2,0.4,0.4,0.7,0.2c0.3-0.2,0-0.4-0.1-0.6
		c-0.4-0.8-0.6-1.8-0.6-2.7c0.2,0,0.1,0.1,0.2,0.2c0.4,1.2,1,2.3,1.7,3.3c0.2,0.2,0.1,0.3-0.2,0.3h-0.1c-0.3,0.1-0.7,0.1-0.6,0.4
		c0.1,0.3,0.4,0.1,0.7,0.1c1-0.2,2,0.7,2.1,1.8c0,0.2-0.1,0.6,0.2,0.6c0.4,0,0.4-0.4,0.3-0.7c-0.1-0.4-0.3-1-0.8-1.4
		c-0.2-0.2-0.3-0.4-0.3-0.6c0-0.3-0.1-0.5-0.2-0.7c-0.7-1.4-1.4-2.9-1.6-4.5c-0.1-0.6,0-1.2,0-1.7c0.3,0.4,0.4,0.8,0.3,1.2
		c-0.2,0.6-0.1,1.3,0.2,1.9c0.3,0.7,0.9,1.3,1.3,1.9c0.2,0.3,0.6,0.4,1,0.4c0.3,0,0.4,0.2,0.2,0.5c-0.1,0.1-0.2,0.3-0.2,0.4
		c-0.3,0.5-0.2,0.9,0.1,1.3c0.4,0.5,0.8,1,1.6,0.9c0.2,0,0.2,0.2,0.3,0.3c0.5,0.9,1.1,1.1,2,1c0.5-0.1,0.9,0.1,1.3,0.4
		c0.4,0.4,0.9,0.7,1.5,0.8c0.2,0,0.3,0.1,0.3,0.3c0.1,0.8,0.1,1.5,0.2,2.3c-0.2-0.1-0.3-0.2-0.3-0.3c-0.1-1.1-1-1.4-1.7-2
		s-1.6-0.8-2.4-1.2c-0.3-0.1-0.6-0.3-1-0.3c-0.3,0-0.5,0.2-0.3,0.5c0.5,0.9,0.8,1.8,1.2,2.7c0.4,0.9,0.9,1.9,1.9,2.5
		c0.9,0.5,1.8,1.1,2.3,2.1c0.2,0.4,0.2,0.6-0.3,0.8c-0.9,0.3-1.6,0.8-2.3,1.5c0-0.2,0.1-0.4,0.1-0.6c0-0.2,0.1-0.4,0.1-0.6
		c0.1-0.3,0.1-0.5,0-0.8c0-0.1-0.1-0.2-0.2-0.2c-0.1,0-0.2,0.1-0.2,0.2c0,0.1-0.1,0.2-0.1,0.3c-0.6,3-2.2,5.5-4.4,7.6
		c-2.8,2.7-6.1,4.8-10,5.9C40.1,48.8,35,48.9,30,47z M58.3,38.3c-0.6,1.6-1,3.3-2.1,4.7c-1.5,1.8-3.1,3.2-5.5,3.6
		c-0.6,0.1-1.1,0.1-1.7-0.1C52.8,44.4,56.1,41.9,58.3,38.3z M42.8,97.5c-0.5,0.2-1.1,0.4-1.6,0.5c-1.1,0.4-1.5,0.2-2.2-0.7
		c-1.1-1.5-2-3.1-2.8-4.7c-1.1-2.2-2.3-4.2-3.3-6.4c-0.1-0.3-0.3-0.5-0.3-0.8c-0.1-0.5,0-0.6,0.5-0.4c1.2,0.4,2.3,1,3.3,1.8
		c0.8,0.7,1.6,1.4,2.4,2.1c0.3,0.3,0.6,0.5,0.9,0c0.1-0.2,0.4-0.1,0.5,0c1.2,0.4,2,1.3,2.7,2.3c0.9,1.4,1.4,2.8,1.4,4.7
		C44.1,97.1,44.1,97.1,42.8,97.5z M46.3,95.9c0,1-0.3,1.3-1.3,1.5c-0.4,0.1-0.5,0-0.5-0.4c0.3-1.6-0.1-3.2-0.7-4.7
		c-0.5-1.2-1.3-2.4-2.3-3.3c-0.4-0.3-0.8-0.5-1.3-0.7c-0.5-0.1-0.6-0.3-0.4-0.8c0.5-1.2,0.8-1.3,1.9-0.7c1,0.6,1.8,1.5,2.5,2.4
		c1.4,1.7,1.9,3.8,2,5.9C46.3,95.5,46.3,95.7,46.3,95.9z M62.1,91.9c-0.2,0.2-0.5,0-0.7-0.1c-0.3-0.1-0.5-0.2-0.8-0.3
		c-0.5-0.1-0.6,0.1-0.5,0.6c0,0.1,0.2,0.3,0,0.4c-0.1,0.1-0.3,0-0.4-0.1c-0.1,0-0.1-0.1-0.2-0.1c-0.1-0.1-0.3-0.3-0.5-0.2
		c-0.2,0.1-0.1,0.3-0.1,0.5c0,0.4-0.1,0.4-0.4,0.3c-0.2-0.1-0.3-0.2-0.4-0.3c-0.4-0.5-0.6-0.6-1.2-0.2c-0.7,0.5-0.7,0.4-0.9-0.4
		v-0.1c-0.1-0.3-0.1-0.6-0.4-0.6c-0.3-0.1-0.5,0.2-0.7,0.4c-0.1,0.1-0.2,0.2-0.2,0.3c-0.2,0.2-0.3,0.3-0.6,0.2
		c-0.2-0.1-0.3-0.2-0.4-0.5c-0.1-0.3,0-0.6,0.3-0.9c0.1-0.1,0.2-0.2,0.1-0.3c-0.1-0.1-0.2-0.1-0.4-0.1c-0.2,0.1-0.4,0.1-0.6,0.2
		c-0.2,0.1-0.4,0.2-0.6,0.2c-0.2,0-0.4,0.1-0.5-0.2c-0.1-0.2,0.2-0.3,0.3-0.4c1.1-0.3,1-0.7,0.3-1.7c-0.2-0.3-0.5-0.5-0.7-0.8
		c0.2-0.1,0.4,0,0.6,0c0.5,0,0.7-0.2,0.5-0.7c-0.1-0.5-0.1-0.5,0.4-0.4c0.1,0,0.2,0.1,0.3,0.1c0.6,0.1,1-0.2,0.9-0.8
		c0-0.5,0.1-0.6,0.6-0.4c0.4,0.2,0.7,0.5,1,0.9c0.7,0.8,0.8,0.8,1.6,0.3c0.2-0.1,0.3-0.2,0.5-0.2c0.4-0.1,0.6,0,0.5,0.5
		c0,0.8,0.1,1,1,1.1c0.3,0,0.6,0.1,1,0.2c-0.4,0.2-0.7,0.2-0.9,0.2s-0.5,0.1-0.5,0.4s0.1,0.4,0.4,0.5c0.2,0.1,0.5,0.1,0.7,0.2
		s0.7,0,0.3,0.5c-0.1,0.1,0,0.2,0.2,0.3c0.1,0.1,0.3,0.1,0.5,0.2c-0.5,0.3-0.6,0.5-0.1,1c0.1,0.1,0.1,0.1,0.2,0.2
		C61.9,91.6,62.2,91.8,62.1,91.9z M62.4,89.4c0,0.1-0.1,0.4-0.3,0.4s-0.1-0.2-0.2-0.3c-0.2-0.3-0.1-0.5,0-0.8c0.5-1.2,1-2.3,1.6-3.4
		C63.2,86.7,62.8,88.1,62.4,89.4z M67.8,82.1c-0.9,1.8-1.7,3.6-2.5,5.4c0-0.1,0.1-0.2,0.1-0.4c0.7-2.2,1.7-4.2,2.6-6.3
		c0,0,0-0.1,0.1-0.1c0.1-0.2,0.2-0.4,0-0.6s-0.4,0.1-0.6,0.3c-1.4,1.6-2.4,3.4-3.3,5.3c-0.1,0.1-0.1,0.3-0.2,0.4
		c0-0.3,0.1-0.5,0.2-0.7c0.4-0.8,0.6-1.6,0.9-2.4c0.1-0.2,0.2-0.4-0.1-0.5c-0.2-0.1-0.3,0.1-0.4,0.3c-1,1.4-1.9,2.9-2.5,4.5
		c-0.2,0.4-0.3,0.6-0.8,0.3c-0.3-0.2-0.7-0.2-1-0.2c-0.5,0-0.7-0.2-0.7-0.7c0-0.9-0.6-1.2-1.4-0.8c-0.1,0-0.2,0.1-0.3,0.2
		c-0.8,0.5-0.6,0.4-1.3-0.2c-0.5-0.5-1-1-1.7-1c-0.6,0-0.8,0.1-0.7,0.7c0,0.7,0,0.7-0.7,0.5s-1.4,0.2-2.1,0.2
		c-0.1,0-0.3,0.1-0.3,0.3c0,0.4-0.3,0.6-0.6,0.7c-0.6,0.3-0.7,0.6-0.4,1.3c0.1,0.2,0,0.3-0.1,0.4c-0.4,0.6-0.4,0.8,0.3,1
		c0.2,0,0.2,0.1,0.2,0.3c-0.1,0.2,0,0.4,0,0.6c0.1,0.7,0.3,0.9,1,0.9c0.4,0,0.7,0,0.7,0.5c0,0.2,0.2,0.3,0.4,0.4
		c0.3,0.1,0.5,0.2,0.8,0.4c-0.9,0.4-1.8,0.8-2.7,1.2c-1.1,0.5-2.1,0.9-3.2,1.3c-0.7,0.3-0.7,0.4-0.7-0.5c-0.1-2.8-1.1-5.3-3.2-7.3
		c-0.5-0.5-1.2-1-1.8-1.4c-0.2-0.1-0.3-0.3-0.2-0.5c1.4-1.9,2.9-3.8,4.9-5c2.3-1.4,4.9-1.5,7.5-0.8c1.4,0.4,2.7,0.9,4.1,1.5
		c0.1,0,0.2,0.1,0.3,0.1s0.3,0.1,0.4-0.1c0.1-0.2,0-0.3-0.1-0.4S58.5,81,58.3,81c-0.7-0.3-1.4-0.5-2-0.8c-0.1-0.1-0.5-0.1-0.2-0.3
		c0.1-0.2,0.3-0.6,0.6-0.3c0.3,0.3,0.6,0.5,1.1,0.5c0.2,0,0.2,0.2,0.3,0.4c0.2,0.4,0.4,0.5,0.8,0.3c0.3-0.2,0.6-0.4,0.7-0.7
		c0.1-0.4,0.4-0.4,0.8-0.4c1.9,0.3,3.8,0.6,5.7,0.9c0.3,0,0.5,0.1,0.8,0c0.4-0.1,0.5-0.3,0.2-0.7c-0.2-0.2-0.5-0.4-0.8-0.5
		c-0.7-0.4-1.5-0.7-2.2-1c0.6-0.1,1.1,0,1.7,0.1c0.3,0,0.6,0.1,0.9,0c0.2,0,0.3-0.1,0.4-0.3c0-0.2-0.1-0.3-0.3-0.4
		c-0.9-0.4-1.8-0.7-2.8-0.9c-0.9-0.2-1.9-0.4-2.8-0.6c-0.3-0.1-0.8-0.6-0.8-0.9c0-0.2,0.1-0.2,0.2-0.3c0.6-0.4,0.7-0.9,0.1-1.3
		c-0.3-0.2-0.2-0.3,0.1-0.5c0.2-0.1,0.3-0.1,0.4-0.2c0.5-0.3,0.4-0.9-0.1-1.2c-0.5-0.3-1.1-0.3-1.6-0.3c-0.2,0-0.3,0-0.5,0
		c-0.3,0-0.6,0.1-0.9-0.1c-0.3-0.2,0-0.5,0-0.8c0-1.1-1-1.9-2.1-1.5c-0.7,0.3-1.3,0.8-1.8,1.4c-0.2,0.3-0.5,0.4-0.8,0.2
		c-0.7-0.3-1.5-0.2-2.2,0.2c-0.5,0.2-0.6,0.6-0.5,1.1c0,0.1,0.2,0.3,0,0.4s-0.3-0.1-0.4-0.2l-0.1-0.1c-0.4-0.3-0.9-0.5-0.2-1
		c0.3-0.2,0-0.6-0.4-0.8c-0.6-0.2-1.1-0.1-1.7,0c-0.3,0.1-0.5,0.1-0.4-0.3c0.1-0.6-0.2-0.9-0.8-0.8s-1.2,0.5-1.6,0.9
		c-0.2,0.3-0.4,0.3-0.8,0.3c-0.8-0.2-1.7-0.1-2.4,0.2c-0.7,0.3-0.9,0.7-0.7,1.4c0.1,0.2,0,0.2-0.2,0.3c-0.3,0.1-0.7,0.3-0.9,0.5
		c-0.3,0.3-0.6,0.6-0.4,1c0.1,0.2,0,0.3-0.2,0.4c-0.3,0.2-0.5,0.6-0.5,1s0.1,0.7,0.5,0.8c0.3,0.1,0.3,0.2,0.2,0.4
		c-0.1,0.4-0.1,0.7,0.2,1.1c0.2,0.2,0,0.3-0.1,0.5c-0.2,0.3-0.4,0.5-0.5,0.9c-0.1,0.5,0,0.6,0.5,0.6c0.5-0.1,1-0.3,1.5-0.5
		c0.3-0.2,0.6-0.2,0.7,0.3c0,0.1,0.1,0.2,0.1,0.3c0.2,0.5,0.2,0.7-0.3,1c-0.9,0.6-1.8,1.3-2.6,2.1c-0.2,0.2-0.3,0.3-0.4,0.5
		c-0.1,0.3-0.1,0.6,0.2,0.7s0.3,0.3,0.3,0.5c0,0.1,0,0.2,0,0.2c0.3,0.4,0.1,0.7-0.2,1c-0.2,0.1-0.3,0.4-0.1,0.6s0.4,0,0.5-0.2
		c0.6-0.8,1.7-1.2,2.4-2c0.1,0.2,0,0.3-0.1,0.3c-0.3,0.3-0.5,0.6-0.8,0.9c-0.3,0.4-0.6,0.7-1.1,0.9c-0.7,0.3-1.1,1.1-1.2,1.9
		c0,0.2,0.1,0.4-0.1,0.4c-0.2,0.1-0.3-0.1-0.5-0.3c-1.6-1.5-3.2-2.9-5.3-3.7c-0.4-0.1-0.9-0.4-1.2,0c-0.4,0.4-0.2,0.9-0.1,1.3
		c0,0.1,0.1,0.2,0.2,0.4c0.1,0.1,0.2,0.3,0,0.4c-0.1,0.1-0.3,0.1-0.5,0.1S31,86.5,31,86.4c-0.1-0.5-0.1-1-0.2-1.4
		c0-0.2-0.1-0.3-0.1-0.5c-0.1-0.2-0.2-0.3-0.4-0.2c-0.2,0.1-0.2,0.3-0.1,0.4c0.2,0.5,0.3,1,0.3,1.6c0,0.2,0,0.4-0.1,0.5
		c-0.2,0-0.2-0.2-0.2-0.3c-0.4-1.5-0.9-3-1.5-4.5c-0.1-0.2-0.1-0.3-0.2-0.4c-0.1-0.2-0.2-0.4-0.5-0.4c-0.2,0-0.3,0.1-0.4,0.4
		c-0.3-0.6-0.5-1.2-0.9-1.7c-0.1-0.2-0.2-0.5-0.5-0.4s-0.2,0.4-0.1,0.6c0.3,1.6,0.6,3.3,0.9,4.9c0,0.2,0,0.4,0,0.5
		c-0.3-1.4-0.8-2.8-1.4-4.1c-0.1-0.2-0.2-0.5-0.4-0.6c-0.1-0.1-0.3-0.2-0.5-0.1c-0.1,0.1-0.1,0.3-0.1,0.4c0.4,1.5,0.6,2.9,0.8,4.4
		c0.1,0.6,0.1,1.1,0.2,1.7c0,0.3-0.1,0.5-0.4,0.6c-0.4,0.1-0.9,0.2-1.3,0.4c-0.3,0.1-0.4,0-0.5-0.4c-0.1-0.8,0.1-1.6,0.1-2.4
		c0-0.2,0-0.4,0-0.6c0-0.1,0-0.3-0.1-0.4c-0.2-0.1-0.2,0.2-0.4,0.3c-0.2-0.9-0.5-1.8-0.9-2.6c-0.1-0.2-0.2-0.6-0.5-0.5
		s-0.2,0.5-0.2,0.7c0.2,1.3,0.2,2.7,0.2,4c0,0.2,0,0.4-0.1,0.6c-0.2-1.1-0.4-2.2-0.7-3.3c-0.1-0.3-0.1-0.8-0.6-0.7
		c-0.4,0.1-0.3,0.5-0.3,0.8c0.1,1.5,0.1,2.9,0.1,4.4c0,0.5-0.2,0.7-0.6,0.7c-1.1,0.1-2.1,0.2-3.2,0.4c-0.5,0.1-1-0.1-1.3-0.6
		c-0.3-0.4-0.5-1-0.8-1.5c-1.3-3-2.4-6.1-3.3-9.4c-0.1-0.4-0.2-0.8-0.2-1.2c0-0.3,0-0.6,0.3-0.8c0.3-0.2,0.6,0,0.8,0.2
		c0.8,0.7,1.4,1.4,2,2.2c0.9,1.2,1.8,2.4,2.4,3.8c0.1,0.1,0.2,0.3,0.3,0.3c0.2-0.1,0.2-0.3,0.1-0.5c0-0.2-0.1-0.3-0.2-0.5
		c-0.3-0.4-0.3-0.7,0-1.1c1.4-1.7,3-3.2,5-4.2c1.6-0.8,3.3-0.9,5.1-0.6c0.3,0,0.5,0.2,0.5,0.5c0.2,2.4,1.1,4.6,2.2,6.7
		c0.1,0.2,0.3,0.5,0.5,0.7c0.1,0.1,0.3,0.3,0.5,0.1c0.2-0.2,0-0.3-0.1-0.5c-0.5-0.6-0.8-1.3-1.1-2c-1.4-3.1-1.9-6.3-1.5-9.7
		c0.3-3,1.3-5.9,2.5-8.7c1.7-4.2,3.6-8.2,5.8-12.2c0.8-1.5,0.8-1.4,2.5-1.5c3-0.1,5.9-0.8,8.7-1.9c0.2-0.1,0.4-0.2,0.7-0.1
		c1.8,0.6,3.4,0.1,5-0.7c2.5-1.4,4.1-3.6,5-6.3c0.4-1.1,0.8-2.2,1.2-3.2c0.3-0.7,0.8-1.3,1.4-1.7c1-0.6,2-0.9,3.1-0.9
		c0.3,0,0.7,0,0.8,0.3c0.1,0.4-0.4,0.5-0.7,0.5c-0.7,0.1-1.3,0.3-1.9,0.7c-0.2,0.2-0.4,0.3-0.6,0.5c-0.2,0.2-0.1,0.4,0.2,0.5
		s0.6-0.1,0.9-0.2c1-0.4,2.1-0.4,3.1-0.2c0.1,0,0.2,0.1,0.4,0.1c-0.3,0.4-0.7,0.4-1.1,0.5c-0.9,0.1-1.7,0.4-2.5,0.8
		c-0.1,0.1-0.3,0.2-0.4,0.3c-0.2,0.2-0.5,0.3-0.3,0.6c0.1,0.3,0.4,0.3,0.7,0.2c0.8-0.2,1.6-0.4,2.4-0.5c0.5-0.1,1-0.1,1.5-0.1
		c0.2,0,0.4,0,0.4,0.2s-0.2,0.3-0.4,0.3c-1.1,0.2-2.1,0.6-3.1,1c-0.3,0.2-0.8,0.3-0.6,0.8s0.6,0.3,1,0.2c0.8-0.2,1.6-0.2,2.4-0.4
		c0.2,0,0.4,0,0.6,0.1c-0.3,0.2-0.6,0.4-1,0.5s-0.7,0.4-1,0.6c-1.7,1.5-2.7,3.4-3.6,5.4c-0.6,1.2-1.1,2.5-1.8,3.7
		c-1.9,3-4.3,5.5-7.6,7c-1.8,0.8-3.7,1.5-5.6,1.9c-0.3,0.1-0.5,0.1-0.8,0.1c-0.2,0-0.5,0-0.5,0.3s0.3,0.3,0.5,0.3
		c0.3,0,0.6,0,0.8-0.1c2.6-0.6,5.1-1.6,7.4-2.9c2.1-1.2,3.7-2.9,5.2-4.8c1.2-1.6,2-3.5,2.8-5.3c0.9-1.9,1.9-3.7,3.5-5.2
		c0.3-0.2,0.5-0.4,0.9-0.5s0.8-0.4,1.1-0.7c0.2-0.2,0.4-0.4,0.3-0.7s-0.4-0.4-0.7-0.4c-0.7,0-1.4,0.1-2,0.2c-0.2,0-0.3,0-0.5,0
		c0.5-0.3,1.1-0.4,1.7-0.6c0.5-0.1,1-0.2,1.5-0.4c0.3-0.1,0.6-0.3,0.5-0.7c0-0.4-0.3-0.5-0.6-0.6c-0.7-0.2-1.4-0.1-2,0
		c-0.3,0-0.7,0.1-1.1,0c0.1-0.3,0.3-0.3,0.5-0.3c0.6-0.1,1.2-0.2,1.8-0.5c0.3-0.1,0.6-0.3,0.6-0.6c0-0.4-0.3-0.5-0.7-0.6
		c-0.4-0.1-0.8-0.1-1.3-0.2c0.7-0.5,1-1.1,1.4-1.8c0.3-0.5,0.5-1.1,0.7-1.6c0.2-0.6,0.4-1.3,0.4-1.9c0-0.5,0-0.9,0.3-1.4
		c0.2-0.3,0.1-0.5-0.2-0.5c-0.2-0.1-0.5-0.1-0.7,0c-0.7,0.3-1.4,0.6-2.1,1C64.1,28.8,64,29,64,29c-0.2,0.4-0.5,0.6-0.8,0.9
		c-0.1-0.3,0-0.5-0.1-0.8c0-0.2,0-0.5,0-0.7c-0.2-0.7,0.1-1.1,0.6-1.4c0.6-0.4,1.2-0.8,1.6-1.4c0.1-0.2,0.4-0.4,0.2-0.6
		c-0.2-0.2-0.5,0-0.6,0.2c-0.5,0.7-1.3,1.1-2,1.6c0.2-0.7,0.6-1.2,1.1-1.7c0.4-0.4,0.8-0.8,1.2-1.2c0.2-0.1,0.4-0.3,0.2-0.5
		c-0.1-0.2-0.4-0.1-0.6,0c-0.6,0.4-1.3,0.8-1.9,1.2c-0.4,0.3-0.9,0.6-1.4,0.8c-0.1-0.2,0.1-0.3,0.2-0.4c0.8-0.8,1.5-1.7,2.5-2.1
		c0.2-0.1,0.4-0.2,0.3-0.4c-0.1-0.2-0.3-0.2-0.5-0.1c-0.7,0.4-1.4,0.7-2.1,1.1c-0.3,0.1-0.5,0.3-0.8,0.4c-0.1,0-0.2,0.1-0.3-0.1
		c-0.1-0.1,0-0.2,0.1-0.3c0.8-1,1.8-1.6,3-1.8c0.1,0,0.3,0,0.4-0.1c0.2-0.1,0.3-0.2,0.3-0.5c0-0.2-0.2-0.2-0.4-0.2
		c-0.7,0-1.4,0.2-2.2,0.4c-0.3,0.1-0.7,0.2-1.1,0.3c0.1-0.3,0.3-0.5,0.5-0.6c1.6-1,3.2-1.4,4.9-0.5c0.6,0.3,1.1,0.7,1.3,1.3
		c1,3,2.2,5.9,2.6,9.1c0.5,3.7,0.7,7.3-0.4,11c-0.9,3-2.4,5.6-4.7,7.8c-0.2,0.2-0.3,0.4-0.3,0.7c0.5,1.9,0.7,3.8,1.1,5.7
		c0.6,3.4,1.4,6.8,2,10.3c0.3,1.5,0.4,3,0.5,4.5c0.1,1.6,0.2,3.3,0.1,4.9c-0.1,1.3-0.2,2.5-0.5,3.8C68.7,80.6,68.2,81.3,67.8,82.1z
		 M41.2,77.1c-0.5-0.2-0.6-0.4-0.3-0.9c0.2-0.4,0.6-0.5,1-0.7c0.2-0.1,0.4-0.1,0.4-0.4c-0.1-0.3-0.4-0.2-0.6-0.1
		c-0.4,0.1-0.8,0.3-1.2,0.3c-0.2,0-0.4,0.1-0.4-0.1c-0.1-0.2,0.1-0.3,0.2-0.4c0.3-0.4,0.8-0.5,1.2-0.7c0.2-0.1,0.6-0.2,0.6-0.4
		c-0.1-0.3-0.5-0.2-0.7-0.1c-0.2,0-0.4,0.1-0.5-0.1s0.2-0.3,0.3-0.4c0.7-0.3,1.3-0.8,2.1-0.7c0.2,0,0.4,0,0.4-0.3
		c0-0.2-0.2-0.3-0.4-0.2c-0.3,0.1-0.5,0-0.8-0.1c-0.1,0-0.3-0.1-0.3-0.2c0-0.2,0.1-0.3,0.2-0.4c0.3-0.3,0.7-0.4,1-0.4
		c0.5-0.1,1.1-0.1,1.6,0.2c0.3,0.2,0.6,0,0.8-0.3c0.3-0.5,0.7-0.7,1.2-0.9c0.1-0.1,0.3-0.1,0.4,0c0.1,0.1,0,0.3-0.1,0.4
		c-0.2,0.3-0.4,0.6-0.6,0.9c-0.1,0.1-0.2,0.3,0,0.5c0.2,0.1,0.4,0,0.5-0.1c0.6-0.5,1.4-0.7,2.1-0.6c0.1,0,0.3,0,0.4,0.1
		c0.1,0.2-0.2,0.3-0.3,0.3c-0.3,0.2-0.6,0.3-0.8,0.4s-0.4,0.2-0.3,0.5c0.1,0.2,0.3,0.1,0.5,0.1c0.4-0.1,0.8-0.1,1.1,0.1
		s0.4,0.4,0.1,0.6c-0.5,0.3-0.5,0.9-0.8,1.4c-0.1,0.2,0,0.3,0.2,0.3s0.4,0.1,0.6,0.1c-0.2,0.4-0.6,0.5-0.8,0.7
		c-0.1,0.1-0.3,0.2-0.3,0.4c0,0.2,0.2,0.2,0.4,0.2c0.3,0,0.5,0.1,0.6,0.4s0,0.6-0.3,0.8c-1,0.8-2.1,1-3.4,0.9
		c-0.3,0-0.3-0.2-0.4-0.4c-0.1-0.4-0.3-0.4-0.6-0.2c-0.3,0.3-0.7,0.5-1,0.8c-0.2,0.2-0.5,0.3-0.8,0.4c-0.1,0-0.3,0.2-0.5,0
		c-0.1-0.1,0-0.3,0.1-0.4c0-0.1,0.1-0.2,0.2-0.3c0.1-0.2,0.2-0.4,0.1-0.5c-0.2-0.2-0.3,0-0.5,0.1c-0.6,0.3-1.2,0.7-1.8,0.9
		c-0.2,0.1-0.4,0.2-0.5,0.1c-0.1-0.2,0.2-0.4,0.3-0.5c0.2-0.1,0.3-0.3,0.5-0.4C41.6,77.4,41.6,77.3,41.2,77.1z M52.2,72.1
		c-0.2,0-0.4,0-0.6-0.1c-0.1,0-0.3,0-0.3-0.2c0-0.1,0.1-0.2,0.1-0.3c0.3-0.3,0.7-0.4,1.1-0.4c0.4,0,0.8,0.1,1.1,0.4
		c0.2,0.3,0.4,0.2,0.6-0.1c0.4-0.7,1-1.3,1.7-1.7c0.4-0.2,0.9-0.3,1.3,0.1c0.4,0.4,0.4,0.8,0.2,1.3c-0.1,0.4-0.3,0.7-0.6,1
		c-0.1,0.1-0.3,0.3-0.1,0.4c0.1,0.2,0.3,0.1,0.5,0c1.1-0.8,2.3-0.5,3.4-0.2c0.4,0.1,0.3,0.3,0,0.5c-0.4,0.2-0.8,0.3-1.3,0.3
		c-0.1,0-0.3,0-0.4,0c-0.1,0-0.3,0.1-0.3,0.3c0,0.2,0.1,0.2,0.3,0.2s0.3,0.1,0.5,0.1s0.4,0.1,0.5,0.2c0.2,0.1,0.5,0.3,0.5,0.5
		c-0.1,0.3-0.4,0.2-0.7,0.2c-0.2,0-0.5-0.1-0.7-0.1s-0.3,0-0.4,0.2c0,0.2,0.1,0.3,0.3,0.3c0.7,0,0.9,0.6,1.2,1.1
		c0.3,0.6,0.3,1.3,0,1.9c-0.1,0.3-0.4,0.4-0.6,0.1c-0.2-0.3-0.3-0.7-0.5-1.1c-0.1-0.2-0.2-0.5-0.4-0.5c-0.3,0-0.4,0.2-0.5,0.5
		c-0.1,0.4-0.2,0.7-0.3,1.1c-0.1,0.2-0.2,0.4-0.4,0.4s-0.2-0.2-0.3-0.4c-0.2-0.3-0.4-0.3-0.6-0.1c-0.2,0.3-0.4,0.6-0.6,0.9
		c-0.3,0.4-0.7,0.5-1.1,0.3c-0.4-0.2-0.4-0.6-0.3-1c0.2-0.5,0-0.7-0.5-0.5c-0.3,0.1-0.6,0.2-0.9,0.3c-0.5,0.2-0.8-0.1-0.7-0.6
		c0-0.3,0.2-0.5,0.4-0.7c0.3-0.4,0.2-0.7-0.3-0.8c-0.3,0-0.5,0-0.8,0.1s-0.6,0.2-1,0.3c-0.2,0.1-0.4,0-0.4-0.2
		c0-0.1-0.1-0.3-0.2-0.3c-0.5-0.2-0.3-0.4,0-0.7c0.3-0.3,0.7-0.5,1.2-0.5c0.2,0,0.5-0.1,0.5-0.3c0-0.3-0.4-0.2-0.6-0.2
		c-0.4,0.1-0.8,0.1-1.1-0.1s-0.4-0.5-0.1-0.7c0.5-0.2,0.9-0.7,1.5-0.8c0.2-0.1,0.4-0.1,0.7-0.1c0.2,0,0.4,0,0.5-0.3
		C52.7,72.1,52.4,72.1,52.2,72.1z M46.3,79c0.4-0.2,0.8-0.2,1.4-0.2c-2.8,1.3-5.3,2.8-7.8,4.4c0.1-0.5,0.5-0.8,0.8-1
		C42.4,80.8,44.3,79.9,46.3,79z M41.2,83.1c2.3-1.4,4.4-2.9,6.9-3.9c0.7-0.3,1.4-0.6,2.2-0.8c0.3-0.1,0.8,0.1,0.9,0.4
		c0.1,0.3-0.2,0.2-0.3,0.2c-0.9,0.1-1.8,0.2-2.7,0.5c-1.6,0.5-2.9,1.5-4.1,2.7c-0.3,0.3-0.6,0.5-1,0.6c-0.7,0.2-1.3,0.7-1.9,1.1
		c-0.2,0.1-0.4,0.2-0.6,0.3l-0.1-0.1C40.7,83.9,40.8,83.4,41.2,83.1z M61.4,78.2c1.3,0.3,2.5,0.5,3.7,1c0.4,0.2,0.8,0.4,1.3,0.7
		c-1.9-0.1-3.5-0.5-5.2-0.8h-0.1c-0.2-0.1-0.6,0.1-0.6-0.3C60.6,78.4,61,78.1,61.4,78.2z M60.9,77c0-0.3,0.2-0.2,0.4-0.2
		c1.3,0.2,2.6,0.5,3.8,1c-1-0.1-1.9-0.2-2.9-0.3c-0.3,0-0.6-0.1-0.9-0.1C61.1,77.4,60.9,77.2,60.9,77z M63,28.7c0-0.1,0-0.2,0-0.2
		c0-0.1,0-0.2,0.1-0.2s0.1,0.1,0.1,0.2c0.2,0.7,0,1.4,0,2c-0.1,0.8-0.2,1.6-0.3,2.4C62.8,31.5,63.2,30.1,63,28.7z M85.4,88.6
		c-0.2,0.2-0.4,0.1-0.6,0c-0.4-0.2-0.7-0.4-1.1-0.5c-0.2,0-0.5-0.1-0.6,0.1s0.1,0.4,0.2,0.5c0.5,0.6,0.5,1.3,0.5,2.1
		c0,0.4-0.3,0.5-0.6,0.3c-0.3-0.3-0.6-0.6-0.8-1c-0.2-0.3-0.4-0.5-0.7-0.4c-0.4,0.1-0.4,0.5-0.3,0.8s0.1,0.6,0.2,1
		c0,0.1,0.1,0.3,0,0.4c-0.2,0.1-0.2-0.2-0.3-0.3c-0.1-0.2-0.1-0.4-0.2-0.5c-0.1-0.2-0.2-0.3-0.4-0.3c-0.2,0.1-0.2,0.3-0.2,0.4
		c0,0.6-0.1,1.1-0.5,1.6c-0.1,0.2-0.3,0.4-0.6,0.3c-0.2-0.1-0.2-0.4-0.2-0.6c0-0.5,0-0.9-0.1-1.4s-0.4-0.6-0.9-0.6
		c-0.7,0.1-1.3,0.5-1.9,1c-0.3,0.3-0.7,0.5-1.1,0.6c-0.3,0.1-0.4,0-0.4-0.3s0.2-0.6,0.3-0.8c0.2-0.3,0.4-0.7,0.3-1.1
		c0-0.5-0.2-0.6-0.7-0.5c-0.3,0.1-0.5,0.4-0.9,0.6c0-0.3,0.1-0.4,0.1-0.6c0-0.1,0.1-0.3,0-0.4s-0.3-0.1-0.4,0
		c-0.3,0.2-0.6,0.3-0.8,0.5c-0.3,0.2-0.5,0.3-0.9,0.4c0-0.3,0.2-0.3,0.3-0.4c0.2-0.1,0.3-0.3,0.3-0.5s-0.2-0.3-0.5-0.4
		c-0.1,0-0.3,0-0.4-0.2c0-0.2,0.2-0.3,0.3-0.4c0.3-0.1,0.5-0.3,0.8-0.4c0.3-0.2,0.5-0.5,0.4-0.8c-0.1-0.4-0.5-0.3-0.8-0.2
		c-0.4,0.1-0.8,0.1-1.2-0.2c-0.3-0.2-0.4-0.4,0-0.6c0.5-0.3,1.1-0.5,1.7-0.6c0.2,0,0.3,0,0.4-0.3c0-0.2-0.1-0.4-0.3-0.4
		c-0.3-0.1-0.7-0.1-1-0.2c-0.2,0-0.4-0.1-0.5-0.3c0-0.3,0.2-0.4,0.4-0.4c0.7-0.2,1.4-0.1,2-0.1s0.7-0.2,0.6-0.8
		c0-0.2-0.1-0.4-0.2-0.6c0-0.1-0.1-0.2,0-0.3c0.1-0.1,0.3-0.1,0.4,0c0.3,0.1,0.5,0.3,0.8,0.4c0.8,0.5,1.2,0.3,1.3-0.6
		c0-0.2,0.1-0.4,0.1-0.6s0.1-0.3,0.3-0.3c0.2,0,0.3,0.1,0.4,0.2l0,0c0.5,0.7,0.5,0.7,1.1,0.1c0.2-0.2,0.3,0,0.4,0.1
		c0.2,0.4,0.2,0.9,0.2,1.4c-0.1,0.9,0,1,0.8,0.7c0.9-0.3,1.7-0.2,2.6,0c0.1,0.2-0.1,0.2-0.2,0.3c-0.2,0.1-0.4,0.3-0.7,0.4
		c-0.2,0.1-0.3,0.3-0.3,0.6c0.1,0.3,0.4,0.3,0.6,0.3c0.9,0,1.8,0.1,2.7,0.3c0.1,0,0.3,0,0.3,0.2c0,0.1-0.1,0.2-0.2,0.2
		c-0.3,0.2-0.6,0.3-0.9,0.4c-0.1,0.1-0.3,0.2-0.3,0.4c0,0.2,0.2,0.2,0.4,0.3c0.7,0.3,1.1,0.7,1.5,1.3C85.4,88.2,85.6,88.4,85.4,88.6
		z"/>
	<path d="M65.9,89c-0.2-0.1-0.2,0.1-0.3,0.2c0,0.1,0,0.2-0.1,0.2c-0.6,1.5-0.9,3-1.2,4.6c-0.1,0.6-0.2,1.1-0.4,1.7
		c0,0.2,0,0.3,0.2,0.4s0.3-0.1,0.3-0.3c0-0.1,0-0.2,0.1-0.3c0.3-1.6,0.7-3.1,1.1-4.7c0.1-0.5,0.2-1,0.4-1.5
		C66,89.2,66.1,89.1,65.9,89z"/>
	<path d="M63.1,92.8c-0.2,0-0.2,0.1-0.2,0.2c-0.2,0.6-0.4,1.3-0.6,1.9c-0.2,0.5-0.3,1-0.4,1.3c0,0.3,0,0.4,0.2,0.5s0.2-0.1,0.3-0.3
		c0.2-1,0.6-1.9,0.9-2.9c0-0.2,0.1-0.3,0.1-0.5C63.2,93,63.2,92.9,63.1,92.8z"/>
	<path d="M49.5,32.5c0.3,0,0.5,0,0.8-0.1c1.7-0.4,2.9-1.7,2.9-3.2c0-1.1-0.3-2.1-0.9-3c-0.2-0.3-0.5-0.6-0.9-0.7
		c-0.8-0.2-1.6-0.1-2.3,0.2c-1.5,0.7-2.2,2-2.4,3.7C46.6,31.1,47.8,32.5,49.5,32.5z M48.7,26.7c-0.1,1.3,0.4,1.9,1.5,2.1
		c1,0.2,1.8-0.1,2.2-1c0.6,1,0.3,2.6-1,3.5c-1.1,0.8-2.7,0.7-3.5-0.2c-0.4-0.4-0.6-0.8-0.6-1.4C47.3,28.6,47.7,27.6,48.7,26.7z"/>
	<path d="M40.1,28.3c2-0.1,3.6-1.7,3.5-3.6c0-0.2,0-0.4,0-0.5c-0.1-1.4-1.3-2.5-2.5-2.5c-2.2,0-4,1.9-3.9,4.1
		C37.4,27.6,38.6,28.5,40.1,28.3z M39.4,22.7c0.1-0.1,0.2-0.2,0.4-0.1c0.1,0.1,0,0.2,0,0.3c-0.3,0.9,0.1,1.8,0.9,2.2
		c0.8,0.4,1.7,0.1,2.3-0.7c0,0,0.1-0.1,0.1-0.2c0.3,1,0,1.7-0.6,2.4c-0.8,0.9-1.8,1.2-3,1.1c-0.7,0-1.1-0.4-1.4-1
		C37.5,25.4,38.1,23.4,39.4,22.7z"/>
	<path d="M42.4,19.8c0.1,0,0.1-0.1,0.2-0.1c1-0.4,2.2,0,2.7,0.9c0.1,0.2,0.1,0.5,0.4,0.3c0.2-0.1,0.2-0.4,0.1-0.6
		c-0.4-0.9-1.1-1.4-2.1-1.4c-0.5,0-0.9,0.1-1.3,0.3c-0.2,0.1-0.6,0.3-0.4,0.6C41.9,20.1,42.2,19.9,42.4,19.8z"/>
	<path d="M77.7,85.3c-0.9,0-1.5,0.9-1.1,1.8c0.5,1.3,1.1,1.7,2.7,1.7c0.1,0,0.3,0,0.4,0c0.8-0.1,1-0.4,0.8-1.2
		C80.3,86.2,79,85.3,77.7,85.3z"/>
	<path d="M58.1,12.8c1.3,0,1.8-0.6,1.7-1.6c-0.1-0.8-0.6-1.4-1.3-1.6c-0.8-0.2-1.9,0.1-2.3,0.7c-0.3,0.4-0.4,0.9-0.1,1.3
		C56.7,12.2,57.3,12.9,58.1,12.8z"/>
	<path d="M56.3,76.7c1.1,0,1.9-0.8,1.9-1.9c0-0.9-0.7-1.6-1.6-1.6c-1,0-1.8,0.8-1.8,1.8C54.9,76,55.5,76.7,56.3,76.7z"/>
	<path d="M60.8,17.8c-0.8,0.4-0.9,1.2-0.5,2c0.3,0.6,0.9,0.7,1.5,0.7c0.8,0,1.4-0.4,1.8-1.1c0.3-0.6,0.2-1.2-0.4-1.5
		C62.4,17.2,61.6,17.3,60.8,17.8z"/>
	<path d="M45.4,76.4c0.7,0,1.4-0.3,1.9-0.9c0.7-0.7,0.4-1.7-0.5-2c-0.8-0.3-1.5-0.2-2.2,0.2c-0.7,0.4-1,1-0.8,1.8
		C44,76.1,44.5,76.4,45.4,76.4z"/>
	<path d="M58.1,88.6c-0.4-0.3-1-0.5-1.5-0.5c-0.2,0-0.4,0-0.6,0.1c-0.7,0.2-1,0.6-0.7,1.3c0.4,0.9,1.6,1.4,2.5,1
		S58.8,89.2,58.1,88.6z"/>
</g>
</svg>
