<?xml version="1.0" encoding="utf-8"?>
<!-- Generator: Adobe Illustrator 19.2.0, SVG Export Plug-In . SVG Version: 6.00 Build 0)  -->
<svg version="1.1" id="Capa_1" xmlns="http://www.w3.org/2000/svg" xmlns:xlink="http://www.w3.org/1999/xlink" x="0px" y="0px"
	 viewBox="0 0 100 100" enable-background="new 0 0 100 100" xml:space="preserve">
<g id="Capa_2">
</g>
<g id="Capa_1_1_">
	<path fill="#FFFFFF" d="M43.3,81.7c0,0-1.3,10.5-16.5,10.4c0,0-4.3-4.9-10.2-4.5c0,0-9.8,6.1,2.8,9.1c0,0,5.1,0.2,7.4-2.3
		c0,0,12.7,0.6,19.6-8.1"/>
	<g>
		<path fill="#FFFFFF" d="M66.4,54.5c0.1,0.5,0.3,0.5,0.6,0.1c0.9-1,1.8-2.1,2.8-3c1.6-1.4,2.1-1.5,4.1-0.7c0.8,0.3,1.5,0.7,2.4,0.7
			c-0.1-0.5-0.4-0.6-0.7-0.8c-0.7-0.5-1.4-0.9-2.2-1.2c-0.3-0.1-0.6-0.4-0.5-0.8c0.2-0.4,0.5-0.2,0.8-0.1c0.6,0.2,1.2,0.5,1.8,0.7
			c0.7,0.2,1.4,0.5,2.4,0.5c-1.1-0.8-2.1-1.4-3.2-1.7c-0.3-0.1-0.7-0.2-1-0.3s-0.6-0.4-0.5-0.8c0.1-0.4,0.4-0.4,0.8-0.4
			c0.3,0,0.7,0.1,1,0.2c1.1,0.2,2.3,0.5,3.5,0.7c0-0.4-0.4-0.5-0.6-0.6c-1.2-0.8-2.6-1.3-4.1-1.4c-0.3,0-0.8-0.1-0.8-0.6
			s0.5-0.5,0.9-0.5c0.3,0,0.6,0,0.8,0c1.1-0.1,2.2,0.2,3.4-0.1c-1.8-1.1-3.7-1.4-5.6-1.3c-0.3,0-0.6,0.1-0.6,0.5
			c0,0.2-0.1,0.4-0.3,0.4c-0.3,0-0.4-0.2-0.4-0.5c-0.1-0.5,0-1.1,0.1-1.6c0.1-0.7,0.2-1.3-0.1-2c-0.1-0.3-0.3-0.6-0.6-0.5
			c-0.3,0-0.3,0.4-0.4,0.6c-0.3,1.2-0.6,2.4-1.2,3.5c-0.2,0.5-0.6,0.8-1.1,1c-1.6,0.6-3.1,1.2-4.7,1.5c-0.5,0.1-0.8,0.3-0.4,0.9
			C64.2,49.4,65.5,51.8,66.4,54.5z"/>
		<path fill="#FFFFFF" d="M78.7,83.2c-1.1-0.4-2.1-0.4-3.2,0c-0.2,0.1-0.5,0.4-0.7,0s0.1-0.6,0.4-0.7c0.5-0.4,1.1-0.6,1.5-1.2
			c0.2-0.3,0.6-0.6,0.4-1c-0.2-0.5-0.6-0.6-1.1-0.6c-1.4-0.1-2.5,0.6-3.5,1.5c-0.2,0.2-0.4,0.4-0.7,0.6c-0.1,0.1-0.3,0.3-0.5,0.1
			c-0.2-0.2-0.1-0.4,0.1-0.5c0.3-0.4,0.6-0.7,0.9-1.1c0.4-0.6,0.4-1.8,0-2.2c-0.6-0.6-1.2-0.2-1.9,0.1c-0.5,0.3-0.9,0.6-1.2,1.1
			c-0.3,0.5-0.5,1-0.5,1.6c0,0.3,0,0.7-0.4,0.7c-0.5,0-0.4-0.4-0.3-0.7c0-0.1,0-0.2,0-0.3c0.1-1.2-0.4-1.9-1.3-2.1s-1.6,0.1-2.2,1.1
			c-0.5,0.9-0.4,1.4,0.7,2.1c0.2,0.2,0.5,0.3,0.3,0.6c-0.2,0.3-0.4,0.1-0.7,0.1c-0.4-0.1-0.8-0.2-1.1-0.2c-1.2,0-2.3,0-3.1,1.1
			c-0.4,0.6-0.3,1,0.3,1.3c0.7,0.4,1.3,0.5,2.1,0.2c0.4-0.1,0.8-0.2,1.1-0.3c0.3-0.1,0.5-0.1,0.6,0.2c0.1,0.4-0.1,0.5-0.4,0.6
			c-0.5,0.1-0.9,0.2-1.4,0.3c-1,0.2-1.6,1-2,1.9c-0.3,0.9,0.2,1.5,1.2,1.6c0.6,0,1.2-0.1,1.7-0.5c0.4-0.3,0.8-0.7,1.2-1
			c0.3-0.2,0.6-0.3,0.8-0.1c0.3,0.3,0,0.5-0.2,0.7s-0.4,0.4-0.5,0.6c-0.6,0.9-0.6,2.1,0.1,2.5c0.6,0.4,1.7,0.1,2.3-0.8
			c0.4-0.6,0.8-1.1,0.9-1.9c0-0.3,0.2-0.5,0.5-0.4s0.2,0.3,0.2,0.6c0,0.4-0.1,0.7-0.1,1.1c0.1,0.6,0.4,1.1,1,1.4s1,0,1.4-0.4
			c0.7-0.6,1.1-1.3,0.7-2.2c-0.1-0.3-0.2-0.7,0.1-0.8c0.4-0.2,0.4,0.3,0.5,0.5c0.7,1.3,2.1,1.7,3.4,0.9c0.9-0.5,0.9-1.4,0-2
			c-0.4-0.2-0.8-0.3-1.2-0.5c-0.3-0.1-0.6-0.1-0.6-0.5c0.1-0.4,0.5-0.3,0.8-0.3c1.3,0.3,2.5,0,3.7-0.6c0.4-0.2,0.8-0.5,0.7-1
			C79.5,83.8,79.2,83.4,78.7,83.2z M72.3,85.8c-0.9,0.6-1.9,0.9-2.9,0.9c-0.7,0-1.4,0-2-0.4c-1.3-0.7-1.3-2.1-0.2-2.9
			c1-0.8,2.2-1.1,3.5-1c0.9,0.1,1.7,0.5,2.1,1.3C73.2,84.4,73,85.3,72.3,85.8z"/>
		<path fill="#FFFFFF" d="M32.8,83.2c0.3-0.8-0.2-1.5-1.3-1.9c-0.3-0.1-0.6,0-0.6-0.5c0-0.4,0.3-0.5,0.6-0.5
			c0.6-0.1,1.1-0.4,1.6-0.8s0.2-0.8,0.1-1.2c0-0.4-0.3-0.7-0.7-0.7c-0.6,0-1.2,0-1.7,0.4c-0.2,0.1-0.5,0.4-0.7,0.1s0-0.5,0.1-0.8
			c0.1-0.2,0.2-0.3,0.4-0.5c0.6-0.8,0.6-1.3-0.2-1.9c-0.6-0.5-1.2-0.1-1.7,0.2c-0.4,0.4-0.7,0.8-0.9,1.4c-0.1,0.3-0.2,0.7-0.6,0.6
			s-0.1-0.5-0.1-0.7c0-0.4,0.1-0.8,0-1.2c-0.1-0.7-0.6-1-1.2-1c-0.7,0-1.2,0.4-1.3,1.1c-0.1,0.5,0,0.9,0.2,1.4c0.1,0.3,0.4,0.8,0,1
			c-0.5,0.2-0.4-0.4-0.6-0.6C23.5,76,22,75.9,21.3,77c-0.3,0.5-0.3,0.9,0.2,1.3c0.4,0.4,0.9,0.5,1.5,0.6c0.4,0,1,0,0.9,0.5
			c-0.1,0.6-0.6,0.4-1,0.3s-0.9-0.2-1.4-0.2c-0.3,0-0.7,0-1.1,0.1c-0.5,0.2-0.9,0.5-0.8,1.1s0.5,0.8,1,0.8c0.6,0.1,1.2,0.1,1.7-0.1
			c0.3-0.1,0.6-0.2,0.7,0.2c0.1,0.4-0.2,0.5-0.5,0.5c-0.6,0.1-1,0.4-1.4,0.9c-0.2,0.3-0.4,0.6-0.2,0.9c0.2,0.4,0.5,0.4,0.9,0.4
			c0.7,0,1.3-0.2,1.7-0.8c0.2-0.2,0.4-0.5,0.6-0.7s0.5-0.3,0.7,0c0.3,0.3,0,0.5-0.2,0.7c-0.5,0.4-0.9,0.8-0.9,1.4
			c0,1,0.4,1.3,1.3,0.9s1.5-1,1.5-2.1c0-0.3-0.1-0.6,0.4-0.6s0.4,0.3,0.4,0.6c0,0.3,0.1,0.6,0.2,0.9c0.3,0.9,1,1.2,1.8,0.9
			c0.6-0.2,0.9-1,0.7-1.8c-0.1-0.3-0.2-0.6-0.3-0.9c0-0.2,0-0.4,0.2-0.5c0.3-0.1,0.3,0.1,0.4,0.3c0.2,0.3,0.3,0.6,0.5,0.9
			C31.4,84.3,32.5,84.2,32.8,83.2z M29.3,80.4c-0.6,0.9-1.4,1.4-2.2,1.4c-1.4,0-2.1-0.4-2.3-1.1c-0.2-0.7,0.2-1.5,1-2.1
			c0.7-0.5,1.4-0.7,2.3-0.6C29.4,78.1,30,79.2,29.3,80.4z"/>
		<path fill="#FFFFFF" d="M36,79.9c-0.5-0.4-1-0.8-1.6-1.2c-0.1,3.7-1.2,6.9-3.4,9.7c-2.5,3.2-7.2,4.7-10.9,1.7
			c-1.2-1-2.4-2.1-3.6-3.2c-0.4-0.3-0.7-0.8,0-1.1c0.2-0.1,0.2-0.2,0.3-0.4c0.2-1.2-0.9-3.5-2-4.2c0.1,0.3,0.3,0.6,0.3,1
			c0,0.5,0.5,1.2-0.1,1.5c-0.7,0.3-0.9-0.5-1.2-0.9c-0.4-0.7-0.7-1.5-1.5-2.1c0.3,0.7,0.5,1.2,0.7,1.6s0.6,0.9,0.1,1.2
			c-0.5,0.3-0.7-0.4-0.9-0.7c-1-1.3-2.2-2.4-3.7-3.1c0.2,0.5,0.4,0.9,0.7,1.2c0.9,1.2,1.9,2.2,2.9,3.2c0.2,0.2,0.4,0.3,0.2,0.6
			c-0.2,0.3-0.4,0.3-0.7,0.2c-0.3-0.1-0.6-0.2-0.8-0.4c-0.6-0.4-1.1-0.7-1.7-1.1c0.3,0.6,0.7,1.1,1.2,1.5c0.4,0.3,1.1,0.6,0.9,1.1
			c-0.2,0.7-0.9,0.2-1.5,0.3c0.8,0.8,1.5,1.5,2.5,1.8c1.2,0.3,2.3,1,3.6,0.4c0.3-0.2,0.5,0.1,0.7,0.3c1.1,1.3,2.5,2.4,3.9,3.4
			c3,2.2,6.1,2.1,9.1,0.4c4.5-2.5,6.1-6.8,6.9-11.5C36.4,80.5,36.3,80.2,36,79.9z"/>
		<path fill="#FFFFFF" d="M45.1,91.2c0.4-0.2,1-0.3,1.1-0.7c0.1-0.5-0.5-0.6-0.8-0.8c-0.2-0.1-0.3-0.2-0.2-0.5
			c0.1-0.2,0.2-0.2,0.4-0.2c0.1,0,0.3,0.1,0.4-0.2c-0.7-0.3-1.3-0.7-2.1-1c0.1,0.7,0,1.4-0.5,1.7c-0.7,0.5-1.5,0.9-2.4,0.8
			c-0.8,0-1.3-0.3-1.5-1.1c-0.2-0.8,0.2-1.3,0.9-1.7c0.7-0.4,1.4-0.7,2.3-0.6c-0.8-0.6-1.4-1.2-2.1-1.7c-0.7-0.5-1.6-0.4-2.3-0.1
			c-0.4,0.2-0.8,0.5-0.8,1.1c0,0.5,0.4,0.7,0.8,1c0.3,0.1,0.8,0.1,0.7,0.6s-0.6,0.4-1,0.5c-1,0.1-2,0.5-2.5,1.5
			c-0.3,0.7-0.1,1.1,0.6,1.1c0.5,0,0.9-0.2,1.3-0.4c0.4-0.2,0.8-0.8,1.2-0.2c0.3,0.5-0.3,0.7-0.6,1s-0.6,0.6-0.8,1s-0.3,0.8,0,1.2
			c0.3,0.3,0.7,0.2,1.1,0.1c0.3-0.1,0.6-0.3,0.8-0.6c0.4-0.6,0.9-1,1.1-1.6c0.1-0.2,0.3-0.3,0.5-0.2c0.2,0.1,0.2,0.3,0.1,0.4
			c0,0.2-0.1,0.3-0.2,0.5c-0.2,0.6,0.1,1,0.5,1.3s0.9,0.3,1.3,0c0.7-0.5,0.9-1.2,0.7-2C43,91,42.6,90.6,43,90.3
			c0.4-0.2,0.5,0.4,0.8,0.6C44,91.1,44.5,91.4,45.1,91.2z"/>
		<path fill="#FFFFFF" d="M83.9,70.9c-0.7-0.6-1.5-0.8-2.4-0.9c-0.2,0-0.6,0-0.6-0.3s0.2-0.4,0.5-0.5c0.6-0.2,1.2-0.4,1.7-0.7
			c0.5-0.2,1-0.6,0.9-1.3c-0.1-0.7-0.7-0.9-1.3-1c-1-0.1-1.9,0.1-2.6,0.8c-0.2,0.2-0.4,0.4-0.6,0.2c-0.2-0.2-0.1-0.5,0-0.7
			c0.2-0.3,0.4-0.5,0.6-0.7c0.3-0.4,0.6-0.9,0.7-1.4c0.1-1.1-0.7-1.7-1.6-1.3c-0.7,0.3-1.2,0.9-1.3,1.7c0,0.4-0.1,0.8-0.2,1.2
			c0,0.3-0.1,0.6-0.4,0.5c-0.4-0.1-0.3-0.4-0.3-0.7c0-0.5,0.1-1,0.1-1.5s-0.4-0.9-0.8-1.1c-0.4-0.2-0.8-0.1-1.1,0.2
			c-0.5,0.6-0.8,1.3-0.5,2.1c0.4,1.1,0.9,2.2,1,3.4c1.1-1.2,2.3-1.4,3.8-1.1c1,0.2,1.6,1.2,1.1,2.2c-1,1.8-3.9,2-5.1,0.4
			c-0.7,1.3-1.9,1.9-3,2.6c-0.2,0.1-0.6,0.2-0.5,0.5s0.5,0.3,0.7,0.2c0.8-0.2,1.5-0.5,2-1.2c0.1-0.2,0.4-0.5,0.7-0.3
			c0.3,0.2,0.2,0.6-0.1,0.8c-0.4,0.5-0.7,1-0.7,1.7c0,0.4,0.1,0.9,0.5,1.1c0.5,0.2,0.9,0.1,1.3-0.2c0.5-0.4,0.9-1,0.8-1.7
			c0-0.4-0.2-1.1,0.2-1.1c0.6,0,0.4,0.7,0.5,1.1c0,0.1,0,0.2,0,0.3c0.2,0.6,0.4,1.1,1,1.4c1,0.5,1.9,0,1.9-1.1
			c0-0.7-0.3-1.2-0.7-1.8c-0.2-0.3-0.5-0.6-0.3-0.9c0.3-0.3,0.6,0,0.9,0.2c0.9,0.6,1.8,0.7,2.8,0.4C84.5,72.2,84.6,71.5,83.9,70.9z"
			/>
		<path fill="#FFFFFF" d="M74.3,67c-0.6-1.8-1.3-3.5-1.9-5.3c-0.3-1-0.8-2-1.8-2.6c-0.6-0.4-0.8-0.3-0.9,0.5
			c-0.2,1.5-0.1,3.1-0.2,4.6c0,1.4,0,1.5-1.4,1.9c-0.9,0.3-1.6,0.8-1.7,1.9c0,0.4-0.2,0.9-0.4,1.3c-0.1,0.3-0.2,0.8-0.6,0.6
			c-0.4-0.2-0.2-0.6-0.1-0.9c0-0.1,0-0.1,0-0.2c0.6-1.8,1-3.7,1.1-5.6c0.4-5.5-0.9-10.6-3.9-15.2c-1.3-2-2.8-3.9-4.2-5.9
			c-0.4-0.5-0.7-0.6-1.3-0.5c-2.6,0.6-5.2,0.8-7.9,0.4c-2.3-0.3-4.4-1.3-6.4-2.4c-2.6-1.5-5.2-3-7-5.5c-0.2-0.3-0.6-0.6-0.2-0.9
			c0.3-0.3,0.6,0.1,0.8,0.4c0.7,1.2,1.7,2.1,2.8,2.9c2.5,1.8,5,3.4,8,4.3C50,41.7,53,41.6,56,41c2.5-0.6,4.9-1.3,7-2.9
			c1.6-1.3,3.1-2.7,4.3-4.4c1.5-2,2.5-4.2,2.2-6.8c-0.1-0.7-0.2-1.3-0.4-2c-0.4-2-2.4-4-4.4-4.2c-2-0.3-3.8,0.1-5.4,1.2
			c-0.3,0.2-0.6,0.5-1,0.1s0.2-0.5,0.2-0.9c-1-0.1-1.8-0.5-2.7-0.9c-3.2-1.4-6.1-3-8.7-5.4c-0.4-0.4-0.7-0.8-0.5-1.5
			c0.1-0.3,0.1-0.7,0.1-1.1c0.2-1.7,0.8-3.4,0.5-5.2c-0.1-0.6,0.2-1.5-0.5-1.7c-0.8-0.3-1.4,0.4-1.8,1c-1.2,1.4-2,3.1-2.7,4.8
			c-0.1,0.3-0.2,0.5,0.3,0.5c0.3,0,0.7,0,0.7,0.4c0,0.5-0.5,0.4-0.8,0.3c-1.2-0.1-2.4,0.3-3.5,0.9c-0.7,0.4-1.3,0.7-0.7,1.6
			c0.1,0.1,0,0.3,0.1,0.5c0.1,0.3,0,0.5-0.3,0.6c-0.4,0.1-0.5-0.2-0.5-0.5c-0.2-0.7-0.5-1.3-0.8-1.8c-1.1-1.8-2.4-3.6-3.9-5.1
			c-0.6-0.7-0.9-0.6-1.3,0.2c-0.1,0.2-0.2,0.5-0.3,0.8c-0.6,3.3,0.2,6.2,1.9,9c0.2,0.3,0.5,0.5,0.2,1c-1,1.9-1.2,4-1.4,6.1
			c-0.3,3.3-0.7,6.6-1.3,9.9c-0.3,2.1-1.4,4.1-0.9,6.3c0,0.2-0.1,0.3-0.2,0.4c-0.1,0.1-0.2,0-0.4-0.1c-1.3-1-2.7-1.8-4.1-2.7
			c-1.5-0.9-2.7-1.9-3-3.7c-0.1-0.9-0.5-1.7-0.7-2.5c-0.1-0.2,0-0.4-0.4-0.4c-0.3,1.4-0.5,2.7,0.2,4.1c0.1,0.2,0.3,0.5,0,0.7
			s-0.5-0.1-0.7-0.3c-0.2-0.3-0.3-0.6-0.5-1c0.1,0.1,0.1-0.2-0.2-0.3c-1.2-0.3-2.3-0.8-3.6-0.7c1.2,0.4,2.3,1,3.4,1.7
			c0.3,0.2,0.5,0.4,0.3,0.8c-0.2,0.4-0.5,0.1-0.7,0.1c-1.1-0.3-2.2-0.6-3.3-0.8c-0.6-0.1-1.2-0.2-1.8,0.2c0.5,0.3,0.9,0.4,1.3,0.5
			c1.1,0.4,2.2,0.7,3.4,1.1c0.3,0.1,0.7,0.2,0.5,0.6c-0.1,0.4-0.4,0.3-0.7,0.2c-1.2-0.3-2.4-0.3-3.6-0.4c-0.6-0.1-1.1,0-1.6,0.3
			c0.2,0.3,0.5,0.3,0.8,0.3c1.4,0.2,2.9,0.5,4.3,0.9c0.3,0.1,0.6,0.1,0.6,0.4c0,0.4-0.3,0.4-0.6,0.4c-0.8,0.1-1.7,0.2-2.5,0.3
			c-0.7,0.1-1.3,0.2-2,0.6c0.6,0.2,1.1,0.2,1.6,0.1c1.1,0,2.1-0.1,3.2,0.1c0.2,0,0.6,0,0.6,0.3c0,0.8,0.8,1,1.1,1.6
			c2,3.5,4.5,6.7,6.3,10.3c0.1,0.2,0.2,0.3,0.2,0.6c-0.1,0.8,0,1.7-0.2,2.5c-0.5,3.6-0.1,7.1,1.2,10.5c1.6,4.2,4.2,7.6,7.7,10.3
			c0.5,0.3,1,0.9,1.5,0.9c0.9,0,1,0.6,1.2,1.1c0.4,1,0.9,2,1.6,2.8c2.1,2.3,4.6,4,7.5,5c0.4,0.2,1,0.2,1.1,0.8
			c0.1,0.6-0.4,1-0.9,1.3c-1,0.6-1.9,1.2-3,1.6c-0.2,0.1-0.5,0.2-0.5,0.5s0.3,0.3,0.6,0.4c1.6,0.4,3.2,0.5,4.6-0.2
			c2.5-1.2,4.8-2.7,6.8-4.6c1.1-1.1,1-1.4,0-2.5c-1.2-1.3-2.3-2.7-3-4.3c-0.5-1-0.4-1.2,0.8-1.4c2.2-0.4,4.2-1.4,5.9-2.8
			c0.8-0.7,1.4-1.5,2.2-2.2c0.2-0.2,0.4-0.4,0.6-0.2c0.3,0.3,0,0.5-0.1,0.7c-0.6,0.7-1.2,1.3-1.9,2.2c0.5-0.2,0.9-0.4,1.3-0.5
			c3.9-1.1,7.4-3,10.9-5.1C74.8,70.8,75.3,69.9,74.3,67z M49.5,21.3c0.4-1,1.5-1.6,2.5-1.6c0.5,0,1,0.1,1.5,0.3
			c0.3,0.1,0.5,0.3,0.3,0.6c-0.2,0.3-0.4,0.2-0.6,0.1c-1.5-0.6-2.1-0.3-3,1c-0.2,0.2-0.3,0.8-0.7,0.5C49.1,22,49.4,21.6,49.5,21.3z
			 M43.9,12.3c0.2-1.7,0.9-3.1,1.8-4.5c0.2-0.3,0.4-0.5,0.7-0.5c0.4,0.1,0.4,0.4,0.4,0.7c0,1.6,0.1,3.1-0.4,4.7
			c-0.1,0.3-0.2,0.7-0.6,0.5c-0.4-0.2-0.2-0.5-0.1-0.8c0.3-1.1,0.4-2.1,0.2-3.5c-0.7,1.2-1.1,2.3-1.3,3.5c0,0.3,0,0.8-0.5,0.7
			C43.7,13.1,43.8,12.6,43.9,12.3z M41.7,24.8c0.3-2,3.3-3.5,5-2.4c0.2,0.1,0.4,0.3,0.3,0.6c-0.1,0.3-0.4,0.1-0.6,0.1
			c-2-0.5-3,0-4,1.8c-0.1,0.2-0.2,0.5-0.5,0.4C41.6,25.2,41.8,24.9,41.7,24.8z M34.7,18c-0.4,0.3-0.7-0.2-0.9-0.4
			c-0.7-1.2-1.3-2.5-1.5-3.9c-0.1-0.7-0.2-1.3-0.3-2c0-0.3,0.1-0.7,0.4-0.8c0.3-0.1,0.5,0.2,0.7,0.4c1.2,1.6,2.1,3.3,3.2,5
			c0.2,0.3,0.3,0.6-0.1,0.8c-0.4,0.2-0.5-0.2-0.6-0.5c-0.9-1.4-1.8-2.9-2.7-4.3c0.1,1.8,0.6,3.6,1.6,5.1
			C34.8,17.4,35.1,17.7,34.7,18z"/>
		<path d="M83.7,69.9c-0.9-0.3-0.7-0.5,0-0.9s1.2-1,0.9-1.9c-0.3-1-0.6-1.4-1.6-1.5c-0.3-0.1-0.7-0.2-1-0.1c-0.7,0-0.8-0.1-0.6-0.8
			c0.2-0.8-0.1-1.5-0.7-2s-1.4-0.5-2-0.1c-0.3,0.2-0.6,0.3-0.8,0.6c-0.3,0.3-0.4,0.2-0.7,0c-1.4-1-1.9-0.9-2.9,0.5
			c-0.1,0.1-0.1,0.2-0.2,0.5c-0.5-1.2-0.8-2.2-1.2-3.1c-0.4-1-0.9-1.9-1.9-2.5c-1.2-0.7-1.9-0.3-2,1c-0.1,1.5-0.2,3-0.2,4.4
			c0,1-0.3,1.3-1.2,1.6c-0.6,0.1-0.7-0.1-0.6-0.5c0.6-2.7,0.3-5.5-0.2-8.2c-0.1-0.6,0-1,0.4-1.5c0.8-0.9,1.6-1.9,2.5-2.7
			c2.4-2.3,2-1.7,4.4-0.8c0.8,0.3,1.6,0.5,2.4,0.7c0.3,0.1,0.7,0,0.9-0.3c0.2-0.3-0.1-0.5-0.3-0.7c-0.2-0.3-0.6-0.5-0.6-0.9
			c0.2-0.2,0.4,0,0.6,0c0.6,0.1,1.2,0.3,1.5-0.4c0.3-0.6-0.3-1-0.7-1.3c-0.4-0.3-0.8-0.5-1.2-0.7c0.5-0.1,0.9,0,1.4,0s1,0.1,1.2-0.4
			c0.2-0.6-0.3-0.9-0.7-1.2c-0.2-0.2-0.4-0.2-0.6-0.3c-0.6-0.3-1.2-0.6-1.9-1c0.7,0,1.3,0,1.8,0c0.3,0,0.7,0.1,0.9-0.3
			c0.1-0.4,0-0.7-0.3-1c-0.3-0.2-0.6-0.5-0.9-0.6c-1.6-0.8-3.3-1.2-5.1-1c-0.7,0.1-0.7-0.1-0.6-0.7c0.2-0.9,0-1.7-0.5-2.4
			c-0.3-0.4-0.7-0.7-1.2-0.6c-0.5,0.1-0.6,0.5-0.7,0.9c-0.3,1.2-0.5,2.4-1.1,3.4c-0.2,0.3-0.4,0.6-0.7,0.8c-1.6,0.6-3.2,1.3-4.9,1.6
			c-0.7,0.1-1.1,0-1.4-0.5c-0.8-1-1.5-2.1-2.4-3.1c-0.4-0.5-0.2-0.6,0.2-0.7c2.8-1,5.3-2.6,7.3-4.9c2.4-2.8,4.4-5.7,3.8-9.7
			c-0.4-2.4-1.2-4.5-3.3-5.9c-1.9-1.2-4-1.1-5.9-0.4c-1.3,0.5-2.4,0.4-3.5-0.1c-3.4-1.3-6.5-2.9-9.3-5.3c-0.7-0.6-0.8-1.2-0.7-2
			c0.1-0.5,0.2-1,0.2-1.5c0.3-1.8,0.6-3.7,0.3-5.5c-0.2-1.2-1.1-1.6-2.2-1.1c-0.6,0.3-1.1,0.7-1.6,1.3c-1.2,1.5-2,3.3-2.8,5.1
			c-0.1,0.4-0.3,0.7-0.8,0.8c-1,0.2-1.9,0.6-2.7,1.1c-0.5,0.3-0.8,0.2-1.1-0.3c-1-1.6-2.2-3-3.4-4.5c-1.1-1.3-2.2-1.1-2.9,0.4
			c-0.1,0.3-0.2,0.6-0.3,1c-0.5,3.1,0.2,6.1,1.7,8.8c0.3,0.5,0.4,0.9,0.1,1.4c-0.7,1.8-1,3.6-1.1,5.5c-0.3,5.1-1.2,10.1-2.3,15
			c-0.1,0.5-0.2,0.5-0.6,0.3c-0.9-0.6-1.8-1.3-2.8-1.7c-1.5-0.8-2.4-2-2.7-3.6c-0.2-0.9-0.5-1.8-0.8-2.7c-0.1-0.3-0.3-0.6-0.7-0.6
			c-0.4,0-0.7,0.3-0.8,0.6c-0.2,0.4-0.4,0.9-0.4,1.4c0,0.9-0.3,1-1.1,0.7c-1.1-0.3-2.1-0.7-3.3-0.6c-0.4,0-0.8,0.1-0.8,0.6
			c0,0.4,0.2,0.7,0.6,0.8c0.3,0.1,0.6,0.2,0.8,0.3c-0.8-0.1-1.7-0.2-2.5,0.1c-0.7,0.2-0.8,0.6-0.4,1.3c0.3,0.5,0.9,0.5,1.3,0.7
			c-0.6,0.1-1.1,0.2-1.7,0.4c-0.7,0.3-0.8,1-0.2,1.4c0.3,0.2,0.7,0.3,1.1,0.4c0.8,0.1,1.6,0.2,2.3,0.4c-0.7,0.2-1.5,0.3-2.1,0.6
			c-0.6,0.2-1.4,0.3-1.3,1.1c0.1,0.8,0.9,0.8,1.6,0.8c1,0,2.1,0,3.1,0c0.2,0,0.6-0.1,0.7,0.1c0.3,0.8,1.2,1.1,1.6,1.8
			c1.6,2.8,3.4,5.4,5.2,8.1c1,1.6,1.1,3.3,0.9,5.1c-0.2,1.5-0.3,3.1-0.1,4.6c0.4,3.3,1.5,6.3,3.1,9.2c0.3,0.5,0.8,1,0.8,1.4
			c-0.1,0.4-0.8,0.6-1.2,1c-0.4,0.3-0.5,0.2-0.6-0.2c-0.3-0.8-1-1.1-1.7-1.1c-0.8,0.1-1.7,0.5-1.9,1.3c-0.2,0.8-0.6,0.8-1.2,0.7
			c-1.4-0.2-2.8,1.3-2.4,2.5c0.2,0.5,0.1,0.6-0.4,0.8c-0.7,0.3-1.3,0.8-1.3,1.7c0,0.8,0.4,1.4,1.2,1.6c0.6,0.2,0.3,0.6,0.2,0.9
			c-0.3,1,0,1.6,1,1.8c0.3,0.1,0.7,0.1,1,0c0.5-0.2,0.6,0,0.8,0.5c0.2,1.1,0.9,1.4,2,1.1c0.6-0.2,1-0.6,1.4-1c0.2-0.3,0.4-0.4,0.7,0
			c0.2,0.4,0.6,0.7,1.1,0.8c1.2,0.2,1.8,0,2.3-1.2c0.4-0.8,1-0.3,1.4-0.2c0.5,0.1,0.1,0.6,0,0.8c-0.4,0.9-0.9,1.8-1.6,2.6
			c-1.9,2.5-5.8,4.2-9.2,1.9c-1.2-0.8-2.4-1.8-3.4-3c-0.2-0.3-0.4-0.5-0.3-1c0.4-2.8-1.2-5.1-3.3-6.5c-0.6-0.4-0.9-0.2-1,0.6
			c-0.4-0.4-0.7-0.9-1.2-1.2C11.4,78.3,11,78.3,11,79c0,0.7-0.3,0.5-0.7,0.3c-0.6-0.4-1.2-0.8-1.9-1.1c-0.3-0.1-0.5-0.2-0.8,0
			s-0.1,0.5,0,0.8c0.3,0.8,0.8,1.5,1.3,2.3c-0.5,0-0.6-0.9-1.1-0.5s-0.1,0.9,0.1,1.4s0.5,1.1,0.9,1.6c-0.9,0-0.9,0.5-0.6,1
			c0.3,0.5,0.6,1,1,1.4c1.8,1.8,3.9,2.8,6.5,2.7c0.5,0,0.8,0.1,1.1,0.5c0.8,1,1.8,1.6,2.8,2.4c2.1,1.7,4.4,2.4,7.1,2
			c2.9-0.4,5.1-1.9,6.9-4.1c2.1-2.6,3.3-5.6,3.7-8.9c0-0.1,0-0.2,0.1-0.3c0.1-0.1,0.3,0,0.4,0.1c0.6,1,1.1,2,1.7,3
			c-0.4,0-0.7,0-0.9,0.1c-1.4,0.2-2.3,1.6-1.7,2.7c0.4,0.6,0.1,0.8-0.4,0.9c-0.9,0.3-1.4,1-1.8,1.8c-0.4,1,0.1,1.9,1.2,1.9
			c0.6,0,0.7,0.2,0.5,0.7c-0.4,1.2,0.3,2.1,1.6,2c0.6,0,1.1-0.3,1.5-0.8c0.3-0.4,0.5-0.5,1,0c0.5,0.6,1.3,1.1,2,0.5
			c0.9-0.8,1.7-0.5,2.6-0.2c2.1,0.7,4.1,0.3,5.9-0.9c2.2-1.4,4.3-2.7,6.2-4.5c0.9-0.9,1-1.6,0.2-2.7c-0.3-0.4-0.7-0.9-1.1-1.3
			c-0.8-0.9-1.5-1.9-2.1-3c-0.1-0.3-0.4-0.7,0.1-0.8c1.6-0.3,2.9-1.2,4.4-1.7c4.1-1.3,8.1-2.7,11.8-4.8c0.4-0.2,0.7-0.3,1.1,0
			c0.5,0.3,1.1,0.5,1.6,0.3c0.6-0.2,0.8,0,0.9,0.6c0.1,0.7,0.4,1.4,1.1,1.6c0.8,0.2,1.5,0,2.1-0.6c0.4-0.5,0.6-0.5,1.1-0.1
			c0.8,0.7,1.9,0.7,2.6,0.2s1-1.2,0.6-2.3c-0.2-0.7,0-0.8,0.6-0.6c0.7,0.2,1.4,0,2.1-0.3c0.9-0.4,1.2-1.2,0.8-2.1
			C84.6,70.5,84.2,70.1,83.7,69.9z M63.1,46.2c1.6-0.3,3.2-1,4.7-1.5c0.5-0.2,0.8-0.5,1.1-1c0.6-1.1,1-2.3,1.2-3.5
			c0.1-0.2,0-0.6,0.4-0.6c0.3,0,0.5,0.3,0.6,0.5c0.3,0.6,0.2,1.3,0.1,2c-0.1,0.5-0.2,1.1-0.1,1.6c0,0.2,0.1,0.4,0.4,0.5
			c0.3,0,0.3-0.2,0.3-0.4c0-0.4,0.3-0.5,0.6-0.5c1.9-0.2,3.8,0.2,5.6,1.3c-1.3,0.2-2.4,0-3.4,0.1c-0.3,0-0.6,0-0.8,0
			c-0.4,0-0.8,0-0.9,0.5c0,0.5,0.4,0.6,0.8,0.6c1.5,0.2,2.8,0.6,4.1,1.4c0.2,0.1,0.5,0.2,0.6,0.6c-1.2-0.2-2.3-0.5-3.5-0.7
			c-0.3-0.1-0.7-0.2-1-0.2s-0.7,0-0.8,0.4c-0.1,0.4,0.2,0.6,0.5,0.8c0.3,0.1,0.6,0.2,1,0.3c1.1,0.3,2.1,0.9,3.2,1.7
			c-1,0-1.7-0.3-2.4-0.5c-0.6-0.2-1.2-0.5-1.8-0.7c-0.3-0.1-0.6-0.3-0.8,0.1c-0.2,0.4,0.2,0.7,0.5,0.8c0.8,0.3,1.5,0.7,2.2,1.2
			c0.3,0.2,0.6,0.3,0.7,0.8c-0.9,0-1.6-0.4-2.4-0.7c-2-0.9-2.5-0.8-4.1,0.7c-1,0.9-1.9,2-2.8,3c-0.3,0.3-0.5,0.3-0.6-0.1
			c-0.8-2.7-2.2-5.1-3.6-7.4C62.3,46.4,62.6,46.3,63.1,46.2z M30.7,83.5c-0.2-0.3-0.3-0.6-0.5-0.9c-0.1-0.2-0.2-0.4-0.4-0.3
			c-0.2,0.1-0.3,0.3-0.2,0.5c0.1,0.3,0.2,0.6,0.3,0.9c0.2,0.8-0.1,1.6-0.7,1.8c-0.8,0.3-1.4-0.1-1.8-0.9c-0.1-0.3-0.2-0.6-0.2-0.9
			s0.1-0.7-0.4-0.6c-0.4,0-0.4,0.4-0.4,0.6c0,1-0.6,1.7-1.5,2.1s-1.3,0.1-1.3-0.9c0-0.7,0.4-1.1,0.9-1.4c0.2-0.2,0.5-0.4,0.2-0.7
			c-0.2-0.3-0.5-0.2-0.7,0s-0.4,0.4-0.6,0.7c-0.4,0.6-1,0.8-1.7,0.8c-0.4,0-0.7,0-0.9-0.4c-0.2-0.4,0-0.7,0.2-0.9
			c0.4-0.5,0.8-0.8,1.4-0.9c0.3-0.1,0.6-0.1,0.5-0.5s-0.4-0.3-0.7-0.2c-0.6,0.3-1.1,0.2-1.7,0.1c-0.5-0.1-1-0.3-1-0.8
			c-0.1-0.6,0.3-0.8,0.8-1.1c0.4-0.2,0.8-0.1,1.1-0.1c0.5,0,1,0.1,1.4,0.2s1,0.3,1-0.3c0.1-0.5-0.6-0.4-0.9-0.5
			c-0.5-0.1-1-0.2-1.5-0.6s-0.5-0.8-0.2-1.3c0.7-1.1,2.3-1,2.9,0.1c0.1,0.2,0.1,0.8,0.6,0.6c0.4-0.2,0.1-0.6,0-1
			c-0.2-0.5-0.3-0.9-0.2-1.4c0.2-0.7,0.6-1.1,1.3-1.1c0.7,0,1.1,0.4,1.2,1c0.1,0.4,0,0.8,0,1.2c0,0.3-0.2,0.6,0.1,0.7
			c0.4,0.1,0.5-0.3,0.6-0.6c0.2-0.5,0.5-1,0.9-1.4c0.5-0.4,1-0.8,1.7-0.2c0.8,0.7,0.8,1.1,0.2,1.9c-0.1,0.2-0.2,0.3-0.4,0.5
			c-0.2,0.2-0.3,0.5-0.1,0.8c0.3,0.3,0.5,0,0.7-0.1c0.5-0.3,1.1-0.3,1.7-0.4c0.4,0,0.6,0.3,0.7,0.7c0.1,0.4,0.4,0.9-0.1,1.2
			c-0.5,0.4-0.9,0.7-1.6,0.8c-0.4,0-0.6,0.2-0.6,0.5c0,0.4,0.3,0.4,0.6,0.5c1.1,0.4,1.6,1.1,1.3,1.9C32.5,84.2,31.4,84.3,30.7,83.5z
			 M36.3,80.9c-0.7,4.8-2.4,9.1-6.9,11.5c-3,1.7-6.1,1.7-9.1-0.4c-1.4-1-2.8-2.1-3.9-3.4c-0.2-0.2-0.4-0.4-0.7-0.3
			c-1.3,0.7-2.5,0-3.6-0.4c-1-0.3-1.7-1.1-2.5-1.8c0.6,0,1.3,0.4,1.5-0.3c0.2-0.5-0.5-0.8-0.9-1.1c-0.5-0.4-0.9-0.9-1.2-1.5
			c0.6,0.4,1.1,0.7,1.7,1.1c0.3,0.2,0.5,0.3,0.8,0.4c0.2,0.1,0.5,0.1,0.7-0.2c0.2-0.3-0.1-0.4-0.2-0.6c-1-1-2-2-2.9-3.2
			c-0.3-0.4-0.5-0.8-0.7-1.2c1.5,0.7,2.7,1.8,3.7,3.1c0.2,0.3,0.4,1,0.9,0.7s0-0.8-0.1-1.2c-0.2-0.5-0.4-1-0.7-1.6
			c0.8,0.7,1.1,1.5,1.5,2.1c0.3,0.5,0.5,1.2,1.2,0.9c0.6-0.3,0.2-1,0.1-1.5c0-0.3-0.2-0.6-0.3-1c1.1,0.7,2.2,3.1,2,4.2
			c0,0.2-0.1,0.3-0.3,0.4c-0.7,0.4-0.4,0.8,0,1.1c1.2,1,2.3,2.2,3.6,3.2c3.7,3,8.4,1.5,10.9-1.7c2.2-2.8,3.3-6,3.4-9.7
			c0.6,0.4,1.1,0.8,1.6,1.2C36.3,80.2,36.4,80.5,36.3,80.9z M42.9,90.2c-0.4,0.2,0,0.7,0.1,1.1c0.2,0.8,0,1.5-0.7,2
			c-0.4,0.3-0.9,0.3-1.3,0c-0.4-0.3-0.7-0.7-0.5-1.3c0.1-0.2,0.1-0.3,0.2-0.5c0.1-0.2,0-0.3-0.1-0.4c-0.2-0.1-0.4,0-0.5,0.2
			c-0.2,0.7-0.8,1.1-1.1,1.6c-0.2,0.3-0.4,0.5-0.8,0.6c-0.4,0.1-0.8,0.2-1.1-0.1c-0.3-0.4-0.2-0.8,0-1.2c0.2-0.4,0.5-0.7,0.8-1
			s0.9-0.5,0.6-1c-0.4-0.5-0.8,0-1.2,0.2s-0.8,0.4-1.3,0.4c-0.8,0-1-0.4-0.6-1.1c0.5-1,1.5-1.3,2.5-1.5c0.4-0.1,0.9,0,1-0.5
			s-0.4-0.4-0.7-0.6c-0.4-0.2-0.8-0.5-0.8-1s0.4-0.9,0.8-1.1c0.8-0.3,1.6-0.4,2.3,0.1s1.4,1.1,2.1,1.7c-0.9,0-1.6,0.2-2.3,0.6
			c-0.6,0.3-1.1,0.9-0.9,1.7c0.2,0.8,0.8,1,1.5,1.1c0.9,0.1,1.7-0.3,2.4-0.8c0.5-0.4,0.6-1,0.5-1.7c0.7,0.4,1.4,0.7,2.1,1
			c-0.1,0.3-0.3,0.2-0.4,0.2c-0.2,0-0.3,0-0.4,0.2c-0.1,0.2,0.1,0.4,0.2,0.5c0.4,0.2,0.9,0.3,0.8,0.8c-0.1,0.4-0.7,0.5-1.1,0.7
			c-0.6,0.3-1,0-1.4-0.4C43.4,90.5,43.3,89.9,42.9,90.2z M61.8,77.1c-0.4,0.1-0.8,0.3-1.3,0.5c0.7-0.8,1.3-1.5,1.9-2.2
			c0.2-0.2,0.4-0.5,0.1-0.7c-0.3-0.2-0.5,0-0.6,0.2c-0.8,0.7-1.4,1.5-2.2,2.2c-1.8,1.4-3.7,2.4-5.9,2.8c-1.2,0.2-1.3,0.4-0.8,1.4
			c0.8,1.6,1.8,3,3,4.3c1,1.1,1.1,1.4,0,2.5c-2,1.9-4.3,3.4-6.8,4.6c-1.4,0.7-3,0.7-4.6,0.2c-0.2-0.1-0.5-0.1-0.6-0.4
			c0-0.3,0.3-0.4,0.5-0.5c1.1-0.4,2-1.1,3-1.6c0.5-0.3,1-0.7,0.9-1.3c-0.1-0.6-0.6-0.6-1.1-0.8c-2.9-1-5.5-2.7-7.5-5
			c-0.7-0.8-1.2-1.8-1.6-2.8C38,80,37.8,79.4,37,79.4c-0.5,0-1-0.5-1.5-0.9c-3.6-2.7-6.1-6.1-7.7-10.3c-1.3-3.4-1.8-6.9-1.2-10.5
			c0.1-0.8,0.1-1.7,0.2-2.5c0-0.2-0.1-0.4-0.2-0.6c-1.9-3.6-4.4-6.8-6.3-10.3C20,44,19.1,43.8,19.1,43c0-0.2-0.4-0.2-0.6-0.3
			c-1.1-0.2-2.1-0.1-3.2-0.1c-0.5,0-1,0.1-1.6-0.1c0.7-0.4,1.4-0.5,2-0.6c0.8-0.1,1.7-0.2,2.5-0.3c0.3,0,0.6,0,0.6-0.4
			s-0.3-0.4-0.6-0.4c-1.4-0.5-2.8-0.7-4.3-0.9c-0.3,0-0.6,0-0.8-0.3c0.5-0.3,1.1-0.4,1.6-0.3c1.2,0.2,2.4,0.1,3.6,0.4
			c0.3,0.1,0.6,0.2,0.7-0.2s-0.2-0.5-0.5-0.6c-1.1-0.4-2.2-0.7-3.4-1.1c-0.4-0.1-0.9-0.2-1.3-0.5c0.6-0.4,1.3-0.3,1.8-0.2
			c1.1,0.2,2.2,0.5,3.3,0.8c0.3,0.1,0.5,0.3,0.7-0.1c0.2-0.3-0.1-0.6-0.3-0.8c-1-0.7-2.1-1.3-3.4-1.7c1.3-0.1,2.4,0.4,3.6,0.7
			c0.3,0.1,0.4,0.4,0.4,0.7c0.1,0.4,0.2,0.7,0.5,1c0.2,0.2,0.3,0.5,0.7,0.3c0.3-0.2,0.1-0.4,0-0.7c-0.7-1.3-0.5-2.7-0.2-4.1
			c0.4,0,0.3,0.2,0.4,0.4c0.3,0.8,0.6,1.6,0.7,2.5c0.3,1.8,1.5,2.9,3,3.7c1.4,0.8,2.8,1.7,4.1,2.7c0.1,0.1,0.2,0.2,0.4,0.1
			c0.1-0.1,0.3-0.2,0.2-0.4c-0.5-2.2,0.6-4.2,0.9-6.3c0.5-3.3,1-6.6,1.3-9.9c0.2-2.1,0.4-4.2,1.4-6.1c0.2-0.4,0-0.7-0.2-1
			c-1.6-2.8-2.4-5.8-1.9-9c0-0.3,0.1-0.5,0.3-0.8c0.4-0.8,0.7-0.9,1.3-0.2c1.5,1.6,2.8,3.3,3.9,5.1c0.4,0.6,0.7,1.2,0.8,1.8
			c0.1,0.3,0.2,0.6,0.5,0.5c0.3-0.1,0.3-0.3,0.3-0.6c0-0.2,0-0.4-0.1-0.5c-0.6-0.9,0-1.3,0.7-1.6c1.1-0.6,2.2-0.9,3.5-0.9
			c0.3,0,0.8,0.2,0.8-0.3c0-0.4-0.4-0.4-0.7-0.4c-0.4,0-0.3-0.3-0.3-0.5c0.6-1.7,1.5-3.4,2.7-4.8c0.4-0.5,1.1-1.2,1.8-1
			s0.5,1.1,0.5,1.7c0.2,1.8-0.4,3.4-0.5,5.2c0,0.4,0,0.7-0.1,1.1c-0.2,0.6,0,1.1,0.5,1.5c2.5,2.4,5.5,4,8.7,5.4
			c0.9,0.4,1.7,0.8,2.7,0.9c0,0.3-0.6,0.5-0.2,0.9c0.4,0.4,0.7,0.1,1-0.1c1.7-1.1,3.4-1.5,5.4-1.2c2,0.3,4,2.3,4.4,4.2
			c0.1,0.7,0.3,1.3,0.4,2c0.4,2.6-0.7,4.8-2.2,6.8c-1.2,1.6-2.7,3.1-4.3,4.4c-2.1,1.6-4.5,2.4-7,2.9c-3,0.7-6,0.7-8.9-0.2
			c-2.9-0.9-5.5-2.5-8-4.3c-1.1-0.8-2.2-1.7-2.8-2.9c-0.2-0.3-0.4-0.7-0.8-0.4c-0.4,0.3,0,0.6,0.2,0.9c1.8,2.5,4.3,4.1,7,5.5
			c2,1.1,4.1,2.1,6.4,2.4c2.7,0.4,5.3,0.1,7.9-0.4c0.6-0.1,0.9,0,1.3,0.5c1.4,2,2.9,3.8,4.2,5.9c3,4.6,4.3,9.7,3.9,15.2
			c-0.1,1.9-0.5,3.8-1.1,5.6c0,0.1,0,0.1,0,0.2c-0.1,0.3-0.3,0.7,0.1,0.9c0.5,0.2,0.5-0.3,0.6-0.6c0.2-0.4,0.3-0.8,0.4-1.3
			c0.1-1.1,0.7-1.6,1.7-1.9c1.4-0.4,1.3-0.5,1.4-1.9c0-1.5,0-3.1,0.2-4.6c0.1-0.8,0.3-0.9,0.9-0.5c1,0.6,1.5,1.6,1.8,2.6
			c0.6,1.8,1.3,3.5,1.9,5.3c1,2.9,0.5,3.7-1.6,5C69.2,74.1,65.7,76,61.8,77.1z M83.6,72.5c-1,0.3-1.9,0.2-2.8-0.4
			c-0.3-0.2-0.6-0.5-0.9-0.2s0.1,0.6,0.3,0.9c0.4,0.5,0.7,1.1,0.7,1.8c0,1.1-0.9,1.6-1.9,1.1c-0.6-0.3-0.8-0.8-1-1.4
			c0-0.1,0-0.2,0-0.3c-0.2-0.4,0-1.1-0.5-1.1s-0.3,0.7-0.2,1.1c0.1,0.8-0.3,1.3-0.8,1.7c-0.4,0.3-0.8,0.4-1.3,0.2
			c-0.4-0.2-0.5-0.6-0.5-1.1c0-0.7,0.2-1.2,0.7-1.7c0.2-0.2,0.4-0.6,0.1-0.8c-0.3-0.3-0.5,0.1-0.7,0.3c-0.5,0.7-1.2,1-2,1.2
			c-0.3,0.1-0.6,0.1-0.7-0.2c-0.1-0.3,0.3-0.4,0.5-0.5c1.1-0.7,2.3-1.3,3-2.6c1.2,1.7,4.2,1.4,5.1-0.4c0.5-1-0.1-2-1.1-2.2
			c-1.4-0.3-2.7-0.1-3.8,1.1c-0.1-1.3-0.6-2.3-1-3.4c-0.3-0.8,0-1.5,0.5-2.1c0.3-0.3,0.7-0.4,1.1-0.2c0.5,0.2,0.8,0.6,0.8,1.1
			c0,0.5-0.1,1-0.1,1.5c0,0.3-0.1,0.6,0.3,0.7c0.3,0,0.4-0.3,0.4-0.5c0.1-0.4,0.1-0.8,0.2-1.2c0.1-0.9,0.6-1.4,1.3-1.7
			c0.9-0.5,1.8,0.2,1.6,1.3c-0.1,0.6-0.4,1-0.7,1.4c-0.2,0.2-0.4,0.5-0.6,0.7c-0.1,0.2-0.2,0.5,0,0.7c0.3,0.3,0.5,0,0.6-0.2
			c0.7-0.7,1.6-1,2.6-0.8c0.6,0.1,1.2,0.3,1.3,1c0.1,0.7-0.3,1-0.9,1.3c-0.6,0.2-1.1,0.5-1.7,0.7c-0.2,0.1-0.5,0.2-0.5,0.5
			c0,0.4,0.4,0.3,0.6,0.3c0.9,0,1.7,0.3,2.4,0.9C84.6,71.5,84.5,72.2,83.6,72.5z"/>
		<path d="M78.7,82.4c-0.5-0.2-1-0.3-1.4-0.4c-0.1-0.2,0.1-0.3,0.2-0.5c0.8-1.3,0.1-2.6-1.5-2.7c-0.7,0-1.4,0-2.1,0.4
			c-0.6,0.3-0.7,0.1-0.8-0.5C73,77.2,72,76.5,70.6,77c-0.8,0.3-1.4,0.8-2,1.4c-0.2,0.2-0.3,0.4-0.6,0c-0.8-1-1.8-1.2-2.7-0.8
			c-1,0.4-2,1.7-1.8,2.8c0.1,0.8-0.2,0.8-0.8,0.8c-1.1,0-2,0.5-2.6,1.4c-0.8,1.1-0.6,1.8,0.6,2.5c0.2,0.1,0.5,0.3,0.7,0.5
			c-0.4,0.5-0.8,0.9-1,1.5c-0.5,1.2,0,2.5,1.2,2.7c0.4,0.1,0.9,0.1,1.3,0c0.8-0.2,1.1-0.2,1.1,0.7c0.1,1.3,1.4,2,2.6,1.5
			c0.4-0.2,0.8-0.4,1-0.7c0.5-0.6,0.8-0.7,1.3,0c0.6,0.8,1.3,0.9,2.2,0.5c0.6-0.3,1.1-0.7,1.4-1.3c0.2-0.5,0.6-0.6,1.1-0.4
			c0.2,0.1,0.4,0.1,0.6,0.2c1.5,0.3,3.5-1,3.1-2.3c-0.5-1.5,0.4-1.5,1.3-1.8c0.1,0,0.2-0.1,0.3-0.1c0.8-0.3,1.2-0.9,1.2-1.8
			C80.2,83.5,79.6,82.7,78.7,82.4z M78.7,85.3c-1.2,0.5-2.4,0.9-3.7,0.6c-0.3-0.1-0.7-0.1-0.8,0.3c-0.1,0.4,0.3,0.4,0.6,0.5
			c0.4,0.1,0.9,0.3,1.2,0.5c0.9,0.5,0.9,1.4,0,2c-1.3,0.8-2.8,0.4-3.4-0.9c-0.1-0.2-0.1-0.7-0.5-0.5c-0.4,0.1-0.3,0.5-0.1,0.8
			c0.4,0.9,0,1.6-0.7,2.2c-0.4,0.4-0.9,0.6-1.4,0.4c-0.6-0.3-0.9-0.8-1-1.4c0-0.4,0-0.7,0.1-1.1c0-0.2,0.1-0.5-0.2-0.6
			c-0.3-0.1-0.5,0.1-0.5,0.4c-0.1,0.7-0.5,1.3-0.9,1.9c-0.6,0.9-1.6,1.3-2.3,0.8c-0.7-0.4-0.7-1.6-0.1-2.5c0.1-0.2,0.3-0.4,0.5-0.6
			s0.5-0.4,0.2-0.7c-0.2-0.2-0.6-0.2-0.8,0.1c-0.4,0.3-0.8,0.7-1.2,1C63.2,88.9,62.6,89,62,89c-1,0-1.5-0.6-1.2-1.6
			c0.3-0.9,0.9-1.7,2-1.9c0.5-0.1,0.9-0.2,1.4-0.3c0.3-0.1,0.5-0.3,0.4-0.6c-0.1-0.3-0.3-0.3-0.6-0.2c-0.4,0.1-0.8,0.1-1.1,0.3
			c-0.8,0.3-1.4,0.1-2.1-0.2c-0.6-0.3-0.6-0.8-0.3-1.3c0.8-1.1,1.9-1.1,3.1-1.1c0.4,0,0.8,0.1,1.1,0.2c0.2,0.1,0.5,0.2,0.7-0.1
			c0.2-0.4-0.1-0.5-0.3-0.6c-1.1-0.7-1.2-1.2-0.7-2.1c0.5-0.9,1.3-1.3,2.2-1.1c0.9,0.3,1.3,0.9,1.3,2.1c0,0.1,0,0.2,0,0.3
			c0,0.3-0.2,0.7,0.3,0.7c0.4,0,0.5-0.4,0.4-0.7c0-0.6,0.2-1.1,0.5-1.6s0.7-0.8,1.2-1.1c0.6-0.3,1.2-0.7,1.9-0.1
			c0.4,0.4,0.5,1.6,0,2.2c-0.3,0.4-0.6,0.8-0.9,1.1c-0.1,0.2-0.2,0.3-0.1,0.5c0.2,0.2,0.4,0,0.5-0.1c0.2-0.2,0.5-0.4,0.7-0.6
			c1-0.9,2.1-1.6,3.5-1.5c0.5,0,0.9,0.2,1.1,0.6s-0.1,0.7-0.4,1c-0.4,0.6-1,0.8-1.5,1.2c-0.3,0.2-0.6,0.4-0.4,0.7
			c0.2,0.4,0.5,0.1,0.7,0c1.1-0.5,2.1-0.4,3.2,0c0.5,0.2,0.8,0.5,0.8,1.1C79.5,84.8,79.2,85.1,78.7,85.3z"/>
		<path d="M33,12.1c0.9,1.4,1.8,2.9,2.7,4.3c0.2,0.3,0.2,0.7,0.6,0.5c0.4-0.2,0.2-0.5,0.1-0.8c-1-1.7-2-3.4-3.2-5
			c-0.2-0.2-0.3-0.5-0.7-0.4s-0.5,0.5-0.4,0.8c0.1,0.7,0.2,1.3,0.3,2c0.2,1.4,0.8,2.7,1.5,3.9c0.2,0.3,0.4,0.7,0.9,0.4
			c0.4-0.2,0.1-0.5-0.1-0.8C33.5,15.7,33.1,14,33,12.1z"/>
		<path d="M44.1,13.1c0.5,0.1,0.5-0.4,0.5-0.7c0.2-1.2,0.6-2.3,1.3-3.5c0.1,1.3,0.1,2.4-0.2,3.5c-0.1,0.3-0.3,0.6,0.1,0.8
			c0.4,0.2,0.5-0.2,0.6-0.5c0.5-1.5,0.4-3.1,0.4-4.7c0-0.3,0-0.6-0.4-0.7s-0.6,0.2-0.7,0.5c-0.9,1.4-1.6,2.8-1.8,4.5
			C43.8,12.6,43.7,13.1,44.1,13.1z"/>
		<path d="M41.9,25.3c0.3,0.1,0.4-0.2,0.5-0.4c1-1.8,2.1-2.3,4-1.8c0.2,0.1,0.5,0.2,0.6-0.1c0.1-0.3-0.1-0.5-0.3-0.6
			c-1.7-1-4.7,0.4-5,2.4C41.8,24.9,41.6,25.2,41.9,25.3z"/>
		<path d="M49.5,22.2c0.4,0.3,0.5-0.2,0.7-0.5c0.9-1.3,1.6-1.6,3-1c0.2,0.1,0.5,0.3,0.6-0.1c0.2-0.3-0.1-0.5-0.3-0.6
			c-0.5-0.2-1-0.3-1.5-0.3c-1.1,0-2.1,0.6-2.5,1.6C49.4,21.6,49.1,22,49.5,22.2z"/>
		<path d="M28.1,77.9c-0.8-0.1-1.6,0.2-2.3,0.6c-0.8,0.5-1.2,1.4-1,2.1s0.9,1.1,2.3,1.1c0.7,0,1.6-0.4,2.2-1.4
			C30,79.2,29.4,78.1,28.1,77.9z"/>
		<path d="M70.6,82.3c-1.3-0.1-2.4,0.3-3.5,1c-1.2,0.8-1.1,2.2,0.2,2.9c0.6,0.3,1.3,0.4,2,0.4c1.1,0,2.1-0.2,2.9-0.9
			c0.7-0.5,0.9-1.4,0.5-2.2C72.3,82.8,71.5,82.4,70.6,82.3z"/>
	</g>
</g>
</svg>
